ISO-10303-21;
HEADER;
/* Generated by software containing ST-Developer
 * from STEP Tools, Inc. (www.steptools.com) 
 */

FILE_DESCRIPTION(
/* description */ ('NOT SPECIFIED'),
/* implementation_level */ '2;1');

FILE_NAME(
/* name */ '2-RSM6-RORATOR-1.step',
/* time_stamp */ '2026-07-07T17:46:08+08:00',
/* author */ (''),
/* organization */ (''),
/* preprocessor_version */ 'ST-DEVELOPER v20.1',
/* originating_system */ 'Autodesk Translation Framework v15.8.0.0',
/* authorisation */ '');

FILE_SCHEMA (('AUTOMOTIVE_DESIGN { 1 0 10303 214 3 1 1 }'));
ENDSEC;

DATA;
#10=MECHANICAL_DESIGN_GEOMETRIC_PRESENTATION_REPRESENTATION('',(#13,#14,
#15,#16),#1999);
#11=SHAPE_REPRESENTATION_RELATIONSHIP('SRR','None',#2006,#12);
#12=ADVANCED_BREP_SHAPE_REPRESENTATION('',(#17,#18,#19,#20),#1998);
#13=STYLED_ITEM('',(#2015),#17);
#14=STYLED_ITEM('',(#2015),#18);
#15=STYLED_ITEM('',(#2015),#19);
#16=STYLED_ITEM('',(#2015),#20);
#17=MANIFOLD_SOLID_BREP('\X2\5B9E4F53\X0\1',#1148);
#18=MANIFOLD_SOLID_BREP('\X2\5B9E4F53\X0\2',#1149);
#19=MANIFOLD_SOLID_BREP('\X2\5B9E4F53\X0\3',#1150);
#20=MANIFOLD_SOLID_BREP('\X2\5B9E4F53\X0\4',#1151);
#21=FACE_BOUND('',#188,.T.);
#22=FACE_BOUND('',#189,.T.);
#23=FACE_BOUND('',#195,.T.);
#24=FACE_BOUND('',#199,.T.);
#25=FACE_BOUND('',#200,.T.);
#26=FACE_BOUND('',#201,.T.);
#27=FACE_BOUND('',#202,.T.);
#28=FACE_BOUND('',#203,.T.);
#29=FACE_BOUND('',#204,.T.);
#30=FACE_BOUND('',#205,.T.);
#31=FACE_BOUND('',#206,.T.);
#32=FACE_BOUND('',#207,.T.);
#33=FACE_BOUND('',#208,.T.);
#34=FACE_BOUND('',#220,.T.);
#35=FACE_BOUND('',#223,.T.);
#36=FACE_BOUND('',#224,.T.);
#37=FACE_BOUND('',#225,.T.);
#38=FACE_BOUND('',#226,.T.);
#39=FACE_BOUND('',#227,.T.);
#40=FACE_BOUND('',#228,.T.);
#41=FACE_BOUND('',#231,.T.);
#42=FACE_BOUND('',#235,.T.);
#43=FACE_BOUND('',#239,.T.);
#44=FACE_BOUND('',#243,.T.);
#45=FACE_BOUND('',#247,.T.);
#46=PLANE('',#1171);
#47=PLANE('',#1178);
#48=PLANE('',#1179);
#49=PLANE('',#1190);
#50=PLANE('',#1206);
#51=PLANE('',#1209);
#52=PLANE('',#1212);
#53=PLANE('',#1215);
#54=PLANE('',#1218);
#55=PLANE('',#1222);
#56=PLANE('',#1234);
#57=PLANE('',#1239);
#58=PLANE('',#1244);
#59=PLANE('',#1249);
#60=PLANE('',#1254);
#61=PLANE('',#1259);
#62=PLANE('',#1262);
#63=PLANE('',#1265);
#64=PLANE('',#1266);
#65=PLANE('',#1267);
#66=PLANE('',#1268);
#67=PLANE('',#1269);
#68=PLANE('',#1272);
#69=PLANE('',#1273);
#70=PLANE('',#1274);
#71=PLANE('',#1281);
#72=PLANE('',#1282);
#73=PLANE('',#1286);
#74=PLANE('',#1287);
#75=PLANE('',#1291);
#76=PLANE('',#1292);
#77=PLANE('',#1296);
#78=PLANE('',#1297);
#79=PLANE('',#1301);
#80=PLANE('',#1302);
#81=PLANE('',#1306);
#82=CYLINDRICAL_SURFACE('',#1167,1.25);
#83=CYLINDRICAL_SURFACE('',#1175,1.25);
#84=CYLINDRICAL_SURFACE('',#1185,17.5);
#85=CYLINDRICAL_SURFACE('',#1201,4.75);
#86=CYLINDRICAL_SURFACE('',#1207,1.5);
#87=CYLINDRICAL_SURFACE('',#1210,1.5);
#88=CYLINDRICAL_SURFACE('',#1213,1.5);
#89=CYLINDRICAL_SURFACE('',#1216,1.5);
#90=CYLINDRICAL_SURFACE('',#1220,3.25);
#91=CYLINDRICAL_SURFACE('',#1232,3.25);
#92=CYLINDRICAL_SURFACE('',#1236,1.5);
#93=CYLINDRICAL_SURFACE('',#1237,3.25);
#94=CYLINDRICAL_SURFACE('',#1241,1.5);
#95=CYLINDRICAL_SURFACE('',#1242,3.25);
#96=CYLINDRICAL_SURFACE('',#1246,1.5);
#97=CYLINDRICAL_SURFACE('',#1247,3.25);
#98=CYLINDRICAL_SURFACE('',#1251,1.5);
#99=CYLINDRICAL_SURFACE('',#1252,3.25);
#100=CYLINDRICAL_SURFACE('',#1256,1.5);
#101=CYLINDRICAL_SURFACE('',#1277,2.);
#102=CYLINDRICAL_SURFACE('',#1280,2.);
#103=CYLINDRICAL_SURFACE('',#1285,2.);
#104=CYLINDRICAL_SURFACE('',#1290,2.);
#105=CYLINDRICAL_SURFACE('',#1294,1.5);
#106=CYLINDRICAL_SURFACE('',#1299,1.5);
#107=CYLINDRICAL_SURFACE('',#1304,1.5);
#108=FACE_OUTER_BOUND('',#184,.T.);
#109=FACE_OUTER_BOUND('',#185,.T.);
#110=FACE_OUTER_BOUND('',#186,.T.);
#111=FACE_OUTER_BOUND('',#187,.T.);
#112=FACE_OUTER_BOUND('',#190,.T.);
#113=FACE_OUTER_BOUND('',#191,.T.);
#114=FACE_OUTER_BOUND('',#192,.T.);
#115=FACE_OUTER_BOUND('',#193,.T.);
#116=FACE_OUTER_BOUND('',#194,.T.);
#117=FACE_OUTER_BOUND('',#196,.T.);
#118=FACE_OUTER_BOUND('',#197,.T.);
#119=FACE_OUTER_BOUND('',#198,.T.);
#120=FACE_OUTER_BOUND('',#209,.T.);
#121=FACE_OUTER_BOUND('',#210,.T.);
#122=FACE_OUTER_BOUND('',#211,.T.);
#123=FACE_OUTER_BOUND('',#212,.T.);
#124=FACE_OUTER_BOUND('',#213,.T.);
#125=FACE_OUTER_BOUND('',#214,.T.);
#126=FACE_OUTER_BOUND('',#215,.T.);
#127=FACE_OUTER_BOUND('',#216,.T.);
#128=FACE_OUTER_BOUND('',#217,.T.);
#129=FACE_OUTER_BOUND('',#218,.T.);
#130=FACE_OUTER_BOUND('',#219,.T.);
#131=FACE_OUTER_BOUND('',#221,.T.);
#132=FACE_OUTER_BOUND('',#222,.T.);
#133=FACE_OUTER_BOUND('',#229,.T.);
#134=FACE_OUTER_BOUND('',#230,.T.);
#135=FACE_OUTER_BOUND('',#232,.T.);
#136=FACE_OUTER_BOUND('',#233,.T.);
#137=FACE_OUTER_BOUND('',#234,.T.);
#138=FACE_OUTER_BOUND('',#236,.T.);
#139=FACE_OUTER_BOUND('',#237,.T.);
#140=FACE_OUTER_BOUND('',#238,.T.);
#141=FACE_OUTER_BOUND('',#240,.T.);
#142=FACE_OUTER_BOUND('',#241,.T.);
#143=FACE_OUTER_BOUND('',#242,.T.);
#144=FACE_OUTER_BOUND('',#244,.T.);
#145=FACE_OUTER_BOUND('',#245,.T.);
#146=FACE_OUTER_BOUND('',#246,.T.);
#147=FACE_OUTER_BOUND('',#248,.T.);
#148=FACE_OUTER_BOUND('',#249,.T.);
#149=FACE_OUTER_BOUND('',#250,.T.);
#150=FACE_OUTER_BOUND('',#251,.T.);
#151=FACE_OUTER_BOUND('',#252,.T.);
#152=FACE_OUTER_BOUND('',#253,.T.);
#153=FACE_OUTER_BOUND('',#254,.T.);
#154=FACE_OUTER_BOUND('',#255,.T.);
#155=FACE_OUTER_BOUND('',#256,.T.);
#156=FACE_OUTER_BOUND('',#257,.T.);
#157=FACE_OUTER_BOUND('',#258,.T.);
#158=FACE_OUTER_BOUND('',#259,.T.);
#159=FACE_OUTER_BOUND('',#260,.T.);
#160=FACE_OUTER_BOUND('',#261,.T.);
#161=FACE_OUTER_BOUND('',#262,.T.);
#162=FACE_OUTER_BOUND('',#263,.T.);
#163=FACE_OUTER_BOUND('',#264,.T.);
#164=FACE_OUTER_BOUND('',#265,.T.);
#165=FACE_OUTER_BOUND('',#266,.T.);
#166=FACE_OUTER_BOUND('',#267,.T.);
#167=FACE_OUTER_BOUND('',#268,.T.);
#168=FACE_OUTER_BOUND('',#269,.T.);
#169=FACE_OUTER_BOUND('',#270,.T.);
#170=FACE_OUTER_BOUND('',#271,.T.);
#171=FACE_OUTER_BOUND('',#272,.T.);
#172=FACE_OUTER_BOUND('',#273,.T.);
#173=FACE_OUTER_BOUND('',#274,.T.);
#174=FACE_OUTER_BOUND('',#275,.T.);
#175=FACE_OUTER_BOUND('',#276,.T.);
#176=FACE_OUTER_BOUND('',#277,.T.);
#177=FACE_OUTER_BOUND('',#278,.T.);
#178=FACE_OUTER_BOUND('',#279,.T.);
#179=FACE_OUTER_BOUND('',#280,.T.);
#180=FACE_OUTER_BOUND('',#281,.T.);
#181=FACE_OUTER_BOUND('',#282,.T.);
#182=FACE_OUTER_BOUND('',#283,.T.);
#183=FACE_OUTER_BOUND('',#284,.T.);
#184=EDGE_LOOP('',(#760,#761,#762));
#185=EDGE_LOOP('',(#763,#764,#765,#766));
#186=EDGE_LOOP('',(#767,#768,#769,#770));
#187=EDGE_LOOP('',(#771,#772,#773,#774,#775,#776,#777,#778));
#188=EDGE_LOOP('',(#779));
#189=EDGE_LOOP('',(#780));
#190=EDGE_LOOP('',(#781,#782,#783,#784));
#191=EDGE_LOOP('',(#785,#786,#787,#788));
#192=EDGE_LOOP('',(#789,#790,#791));
#193=EDGE_LOOP('',(#792,#793,#794,#795));
#194=EDGE_LOOP('',(#796,#797,#798,#799,#800,#801,#802,#803));
#195=EDGE_LOOP('',(#804));
#196=EDGE_LOOP('',(#805,#806,#807,#808,#809));
#197=EDGE_LOOP('',(#810,#811,#812,#813,#814));
#198=EDGE_LOOP('',(#815));
#199=EDGE_LOOP('',(#816));
#200=EDGE_LOOP('',(#817));
#201=EDGE_LOOP('',(#818));
#202=EDGE_LOOP('',(#819));
#203=EDGE_LOOP('',(#820));
#204=EDGE_LOOP('',(#821));
#205=EDGE_LOOP('',(#822));
#206=EDGE_LOOP('',(#823));
#207=EDGE_LOOP('',(#824));
#208=EDGE_LOOP('',(#825));
#209=EDGE_LOOP('',(#826,#827,#828,#829,#830));
#210=EDGE_LOOP('',(#831,#832,#833,#834,#835));
#211=EDGE_LOOP('',(#836));
#212=EDGE_LOOP('',(#837,#838,#839,#840));
#213=EDGE_LOOP('',(#841));
#214=EDGE_LOOP('',(#842,#843,#844,#845));
#215=EDGE_LOOP('',(#846));
#216=EDGE_LOOP('',(#847,#848,#849,#850));
#217=EDGE_LOOP('',(#851));
#218=EDGE_LOOP('',(#852,#853,#854,#855));
#219=EDGE_LOOP('',(#856));
#220=EDGE_LOOP('',(#857));
#221=EDGE_LOOP('',(#858,#859,#860,#861));
#222=EDGE_LOOP('',(#862,#863,#864,#865,#866,#867,#868,#869,#870,#871,#872,
#873));
#223=EDGE_LOOP('',(#874));
#224=EDGE_LOOP('',(#875));
#225=EDGE_LOOP('',(#876));
#226=EDGE_LOOP('',(#877));
#227=EDGE_LOOP('',(#878));
#228=EDGE_LOOP('',(#879));
#229=EDGE_LOOP('',(#880,#881,#882,#883));
#230=EDGE_LOOP('',(#884));
#231=EDGE_LOOP('',(#885));
#232=EDGE_LOOP('',(#886,#887,#888,#889));
#233=EDGE_LOOP('',(#890,#891,#892,#893));
#234=EDGE_LOOP('',(#894));
#235=EDGE_LOOP('',(#895));
#236=EDGE_LOOP('',(#896,#897,#898,#899));
#237=EDGE_LOOP('',(#900,#901,#902,#903));
#238=EDGE_LOOP('',(#904));
#239=EDGE_LOOP('',(#905));
#240=EDGE_LOOP('',(#906,#907,#908,#909));
#241=EDGE_LOOP('',(#910,#911,#912,#913));
#242=EDGE_LOOP('',(#914));
#243=EDGE_LOOP('',(#915));
#244=EDGE_LOOP('',(#916,#917,#918,#919));
#245=EDGE_LOOP('',(#920,#921,#922,#923));
#246=EDGE_LOOP('',(#924));
#247=EDGE_LOOP('',(#925));
#248=EDGE_LOOP('',(#926,#927,#928,#929));
#249=EDGE_LOOP('',(#930,#931,#932,#933));
#250=EDGE_LOOP('',(#934,#935,#936,#937));
#251=EDGE_LOOP('',(#938,#939,#940,#941));
#252=EDGE_LOOP('',(#942,#943,#944,#945));
#253=EDGE_LOOP('',(#946,#947,#948,#949));
#254=EDGE_LOOP('',(#950,#951,#952,#953));
#255=EDGE_LOOP('',(#954,#955,#956,#957,#958));
#256=EDGE_LOOP('',(#959,#960,#961,#962));
#257=EDGE_LOOP('',(#963,#964,#965,#966,#967));
#258=EDGE_LOOP('',(#968,#969,#970,#971));
#259=EDGE_LOOP('',(#972,#973,#974,#975));
#260=EDGE_LOOP('',(#976,#977,#978,#979));
#261=EDGE_LOOP('',(#980,#981,#982,#983));
#262=EDGE_LOOP('',(#984,#985,#986,#987));
#263=EDGE_LOOP('',(#988,#989,#990,#991));
#264=EDGE_LOOP('',(#992,#993,#994,#995));
#265=EDGE_LOOP('',(#996,#997,#998,#999));
#266=EDGE_LOOP('',(#1000,#1001,#1002,#1003));
#267=EDGE_LOOP('',(#1004,#1005,#1006,#1007));
#268=EDGE_LOOP('',(#1008,#1009,#1010,#1011));
#269=EDGE_LOOP('',(#1012,#1013,#1014,#1015));
#270=EDGE_LOOP('',(#1016,#1017,#1018,#1019));
#271=EDGE_LOOP('',(#1020,#1021,#1022,#1023));
#272=EDGE_LOOP('',(#1024,#1025,#1026,#1027));
#273=EDGE_LOOP('',(#1028,#1029,#1030,#1031));
#274=EDGE_LOOP('',(#1032,#1033,#1034,#1035));
#275=EDGE_LOOP('',(#1036,#1037,#1038,#1039));
#276=EDGE_LOOP('',(#1040));
#277=EDGE_LOOP('',(#1041,#1042,#1043,#1044));
#278=EDGE_LOOP('',(#1045));
#279=EDGE_LOOP('',(#1046));
#280=EDGE_LOOP('',(#1047,#1048,#1049,#1050));
#281=EDGE_LOOP('',(#1051));
#282=EDGE_LOOP('',(#1052));
#283=EDGE_LOOP('',(#1053,#1054,#1055,#1056));
#284=EDGE_LOOP('',(#1057));
#285=CIRCLE('',#1166,1.25);
#286=CIRCLE('',#1168,1.25);
#287=CIRCLE('',#1170,1.5);
#288=CIRCLE('',#1172,1.5);
#289=CIRCLE('',#1174,1.25);
#290=CIRCLE('',#1176,1.25);
#291=CIRCLE('',#1180,1.7);
#292=CIRCLE('',#1181,1.7);
#293=CIRCLE('',#1182,1.7);
#294=CIRCLE('',#1183,1.7);
#295=CIRCLE('',#1184,17.5);
#296=CIRCLE('',#1186,17.5);
#297=CIRCLE('',#1187,17.5);
#298=CIRCLE('',#1189,17.2);
#299=CIRCLE('',#1191,1.5);
#300=CIRCLE('',#1192,1.5);
#301=CIRCLE('',#1193,1.5);
#302=CIRCLE('',#1194,1.5);
#303=CIRCLE('',#1195,1.5);
#304=CIRCLE('',#1196,1.5);
#305=CIRCLE('',#1197,1.5);
#306=CIRCLE('',#1198,1.5);
#307=CIRCLE('',#1199,1.5);
#308=CIRCLE('',#1200,4.75);
#309=CIRCLE('',#1202,4.75);
#310=CIRCLE('',#1203,4.75);
#311=CIRCLE('',#1205,4.45);
#312=CIRCLE('',#1208,1.5);
#313=CIRCLE('',#1211,1.5);
#314=CIRCLE('',#1214,1.5);
#315=CIRCLE('',#1217,1.5);
#316=CIRCLE('',#1219,3.25);
#317=CIRCLE('',#1221,3.25);
#318=CIRCLE('',#1223,1.7);
#319=CIRCLE('',#1224,1.7);
#320=CIRCLE('',#1225,1.7);
#321=CIRCLE('',#1226,1.7);
#322=CIRCLE('',#1227,3.25);
#323=CIRCLE('',#1228,3.25);
#324=CIRCLE('',#1229,3.25);
#325=CIRCLE('',#1230,3.25);
#326=CIRCLE('',#1231,3.25);
#327=CIRCLE('',#1233,3.25);
#328=CIRCLE('',#1235,1.5);
#329=CIRCLE('',#1238,3.25);
#330=CIRCLE('',#1240,1.5);
#331=CIRCLE('',#1243,3.25);
#332=CIRCLE('',#1245,1.5);
#333=CIRCLE('',#1248,3.25);
#334=CIRCLE('',#1250,1.5);
#335=CIRCLE('',#1253,3.25);
#336=CIRCLE('',#1255,1.5);
#337=CIRCLE('',#1258,2.);
#338=CIRCLE('',#1261,2.);
#339=CIRCLE('',#1264,2.);
#340=CIRCLE('',#1271,2.);
#341=CIRCLE('',#1276,2.);
#342=CIRCLE('',#1279,2.);
#343=CIRCLE('',#1284,2.);
#344=CIRCLE('',#1289,2.);
#345=CIRCLE('',#1293,1.5);
#346=CIRCLE('',#1295,1.5);
#347=CIRCLE('',#1298,1.5);
#348=CIRCLE('',#1300,1.5);
#349=CIRCLE('',#1303,1.5);
#350=CIRCLE('',#1305,1.5);
#351=LINE('',#1680,#434);
#352=LINE('',#1684,#435);
#353=LINE('',#1688,#436);
#354=LINE('',#1693,#437);
#355=LINE('',#1695,#438);
#356=LINE('',#1697,#439);
#357=LINE('',#1699,#440);
#358=LINE('',#1701,#441);
#359=LINE('',#1703,#442);
#360=LINE('',#1705,#443);
#361=LINE('',#1706,#444);
#362=LINE('',#1712,#445);
#363=LINE('',#1716,#446);
#364=LINE('',#1719,#447);
#365=LINE('',#1723,#448);
#366=LINE('',#1724,#449);
#367=LINE('',#1725,#450);
#368=LINE('',#1732,#451);
#369=LINE('',#1736,#452);
#370=LINE('',#1739,#453);
#371=LINE('',#1744,#454);
#372=LINE('',#1750,#455);
#373=LINE('',#1777,#456);
#374=LINE('',#1781,#457);
#375=LINE('',#1786,#458);
#376=LINE('',#1791,#459);
#377=LINE('',#1796,#460);
#378=LINE('',#1801,#461);
#379=LINE('',#1808,#462);
#380=LINE('',#1815,#463);
#381=LINE('',#1819,#464);
#382=LINE('',#1823,#465);
#383=LINE('',#1825,#466);
#384=LINE('',#1827,#467);
#385=LINE('',#1829,#468);
#386=LINE('',#1831,#469);
#387=LINE('',#1834,#470);
#388=LINE('',#1848,#471);
#389=LINE('',#1853,#472);
#390=LINE('',#1857,#473);
#391=LINE('',#1862,#474);
#392=LINE('',#1866,#475);
#393=LINE('',#1871,#476);
#394=LINE('',#1875,#477);
#395=LINE('',#1880,#478);
#396=LINE('',#1884,#479);
#397=LINE('',#1889,#480);
#398=LINE('',#1892,#481);
#399=LINE('',#1895,#482);
#400=LINE('',#1898,#483);
#401=LINE('',#1899,#484);
#402=LINE('',#1903,#485);
#403=LINE('',#1906,#486);
#404=LINE('',#1907,#487);
#405=LINE('',#1910,#488);
#406=LINE('',#1912,#489);
#407=LINE('',#1915,#490);
#408=LINE('',#1916,#491);
#409=LINE('',#1919,#492);
#410=LINE('',#1920,#493);
#411=LINE('',#1922,#494);
#412=LINE('',#1923,#495);
#413=LINE('',#1925,#496);
#414=LINE('',#1929,#497);
#415=LINE('',#1931,#498);
#416=LINE('',#1935,#499);
#417=LINE('',#1936,#500);
#418=LINE('',#1937,#501);
#419=LINE('',#1939,#502);
#420=LINE('',#1940,#503);
#421=LINE('',#1946,#504);
#422=LINE('',#1949,#505);
#423=LINE('',#1952,#506);
#424=LINE('',#1953,#507);
#425=LINE('',#1955,#508);
#426=LINE('',#1958,#509);
#427=LINE('',#1961,#510);
#428=LINE('',#1964,#511);
#429=LINE('',#1965,#512);
#430=LINE('',#1967,#513);
#431=LINE('',#1978,#514);
#432=LINE('',#1986,#515);
#433=LINE('',#1994,#516);
#434=VECTOR('',#1311,0.6622031187871);
#435=VECTOR('',#1316,1.25);
#436=VECTOR('',#1321,1.375);
#437=VECTOR('',#1326,53.99999996529);
#438=VECTOR('',#1327,7.400000004431);
#439=VECTOR('',#1328,21.99999999359);
#440=VECTOR('',#1329,3.7);
#441=VECTOR('',#1330,10.);
#442=VECTOR('',#1331,3.7);
#443=VECTOR('',#1332,21.9999999717);
#444=VECTOR('',#1333,7.400000003616);
#445=VECTOR('',#1340,1.375);
#446=VECTOR('',#1345,1.25);
#447=VECTOR('',#1348,0.6622031187871);
#448=VECTOR('',#1351,53.99999996067);
#449=VECTOR('',#1352,0.424264069129701);
#450=VECTOR('',#1353,0.424264069052802);
#451=VECTOR('',#1360,32.99999996067);
#452=VECTOR('',#1363,53.99999996067);
#453=VECTOR('',#1366,32.99999996067);
#454=VECTOR('',#1371,17.5);
#455=VECTOR('',#1378,17.34999999981);
#456=VECTOR('',#1407,4.75);
#457=VECTOR('',#1412,4.599999998381);
#458=VECTOR('',#1419,1.5);
#459=VECTOR('',#1426,1.5);
#460=VECTOR('',#1433,1.5);
#461=VECTOR('',#1440,1.5);
#462=VECTOR('',#1449,3.25);
#463=VECTOR('',#1456,53.99999996067);
#464=VECTOR('',#1459,32.99999996067);
#465=VECTOR('',#1462,21.99999996793);
#466=VECTOR('',#1463,4.3);
#467=VECTOR('',#1464,10.);
#468=VECTOR('',#1465,4.3);
#469=VECTOR('',#1466,21.99999999274);
#470=VECTOR('',#1469,32.99999996067);
#471=VECTOR('',#1484,3.25);
#472=VECTOR('',#1491,1.5);
#473=VECTOR('',#1496,3.25);
#474=VECTOR('',#1503,1.5);
#475=VECTOR('',#1508,3.25);
#476=VECTOR('',#1515,1.5);
#477=VECTOR('',#1520,3.25);
#478=VECTOR('',#1527,1.5);
#479=VECTOR('',#1532,3.25);
#480=VECTOR('',#1539,1.5);
#481=VECTOR('',#1542,0.424264069129701);
#482=VECTOR('',#1545,0.424264069052802);
#483=VECTOR('',#1548,53.99999996529);
#484=VECTOR('',#1549,0.424264069129701);
#485=VECTOR('',#1554,0.424264069052802);
#486=VECTOR('',#1557,32.99999996529);
#487=VECTOR('',#1558,0.424264069129701);
#488=VECTOR('',#1563,0.424264069052802);
#489=VECTOR('',#1566,0.424264068711872);
#490=VECTOR('',#1569,4.);
#491=VECTOR('',#1570,4.);
#492=VECTOR('',#1573,10.);
#493=VECTOR('',#1574,4.);
#494=VECTOR('',#1577,4.);
#495=VECTOR('',#1578,0.424264068711901);
#496=VECTOR('',#1581,0.424264069129701);
#497=VECTOR('',#1586,0.424264069052802);
#498=VECTOR('',#1589,32.99999996529);
#499=VECTOR('',#1592,32.99999996529);
#500=VECTOR('',#1593,7.400000004431);
#501=VECTOR('',#1594,7.400000003616);
#502=VECTOR('',#1597,0.424264069129701);
#503=VECTOR('',#1598,0.424264069052802);
#504=VECTOR('',#1607,0.424264069052802);
#505=VECTOR('',#1612,7.400000003616);
#506=VECTOR('',#1615,53.99999996529);
#507=VECTOR('',#1616,7.400000004431);
#508=VECTOR('',#1619,0.424264069129701);
#509=VECTOR('',#1622,0.424264069052802);
#510=VECTOR('',#1627,7.400000003616);
#511=VECTOR('',#1630,32.99999996529);
#512=VECTOR('',#1631,7.400000004431);
#513=VECTOR('',#1634,0.424264069129672);
#514=VECTOR('',#1651,1.5);
#515=VECTOR('',#1662,1.5);
#516=VECTOR('',#1673,1.5);
#517=VERTEX_POINT('',#1678);
#518=VERTEX_POINT('',#1679);
#519=VERTEX_POINT('',#1683);
#520=VERTEX_POINT('',#1687);
#521=VERTEX_POINT('',#1691);
#522=VERTEX_POINT('',#1692);
#523=VERTEX_POINT('',#1694);
#524=VERTEX_POINT('',#1696);
#525=VERTEX_POINT('',#1698);
#526=VERTEX_POINT('',#1700);
#527=VERTEX_POINT('',#1702);
#528=VERTEX_POINT('',#1704);
#529=VERTEX_POINT('',#1707);
#530=VERTEX_POINT('',#1710);
#531=VERTEX_POINT('',#1714);
#532=VERTEX_POINT('',#1718);
#533=VERTEX_POINT('',#1721);
#534=VERTEX_POINT('',#1722);
#535=VERTEX_POINT('',#1727);
#536=VERTEX_POINT('',#1729);
#537=VERTEX_POINT('',#1731);
#538=VERTEX_POINT('',#1733);
#539=VERTEX_POINT('',#1735);
#540=VERTEX_POINT('',#1737);
#541=VERTEX_POINT('',#1740);
#542=VERTEX_POINT('',#1743);
#543=VERTEX_POINT('',#1745);
#544=VERTEX_POINT('',#1749);
#545=VERTEX_POINT('',#1753);
#546=VERTEX_POINT('',#1755);
#547=VERTEX_POINT('',#1757);
#548=VERTEX_POINT('',#1759);
#549=VERTEX_POINT('',#1761);
#550=VERTEX_POINT('',#1763);
#551=VERTEX_POINT('',#1765);
#552=VERTEX_POINT('',#1767);
#553=VERTEX_POINT('',#1769);
#554=VERTEX_POINT('',#1771);
#555=VERTEX_POINT('',#1774);
#556=VERTEX_POINT('',#1775);
#557=VERTEX_POINT('',#1780);
#558=VERTEX_POINT('',#1785);
#559=VERTEX_POINT('',#1790);
#560=VERTEX_POINT('',#1795);
#561=VERTEX_POINT('',#1800);
#562=VERTEX_POINT('',#1804);
#563=VERTEX_POINT('',#1807);
#564=VERTEX_POINT('',#1811);
#565=VERTEX_POINT('',#1812);
#566=VERTEX_POINT('',#1814);
#567=VERTEX_POINT('',#1816);
#568=VERTEX_POINT('',#1818);
#569=VERTEX_POINT('',#1820);
#570=VERTEX_POINT('',#1822);
#571=VERTEX_POINT('',#1824);
#572=VERTEX_POINT('',#1826);
#573=VERTEX_POINT('',#1828);
#574=VERTEX_POINT('',#1830);
#575=VERTEX_POINT('',#1832);
#576=VERTEX_POINT('',#1835);
#577=VERTEX_POINT('',#1837);
#578=VERTEX_POINT('',#1839);
#579=VERTEX_POINT('',#1841);
#580=VERTEX_POINT('',#1843);
#581=VERTEX_POINT('',#1846);
#582=VERTEX_POINT('',#1850);
#583=VERTEX_POINT('',#1855);
#584=VERTEX_POINT('',#1859);
#585=VERTEX_POINT('',#1864);
#586=VERTEX_POINT('',#1868);
#587=VERTEX_POINT('',#1873);
#588=VERTEX_POINT('',#1877);
#589=VERTEX_POINT('',#1882);
#590=VERTEX_POINT('',#1886);
#591=VERTEX_POINT('',#1891);
#592=VERTEX_POINT('',#1893);
#593=VERTEX_POINT('',#1897);
#594=VERTEX_POINT('',#1901);
#595=VERTEX_POINT('',#1905);
#596=VERTEX_POINT('',#1914);
#597=VERTEX_POINT('',#1918);
#598=VERTEX_POINT('',#1927);
#599=VERTEX_POINT('',#1933);
#600=VERTEX_POINT('',#1934);
#601=VERTEX_POINT('',#1945);
#602=VERTEX_POINT('',#1951);
#603=VERTEX_POINT('',#1957);
#604=VERTEX_POINT('',#1963);
#605=VERTEX_POINT('',#1973);
#606=VERTEX_POINT('',#1976);
#607=VERTEX_POINT('',#1981);
#608=VERTEX_POINT('',#1984);
#609=VERTEX_POINT('',#1989);
#610=VERTEX_POINT('',#1992);
#611=EDGE_CURVE('',#517,#518,#351,.T.);
#612=EDGE_CURVE('',#518,#518,#285,.T.);
#613=EDGE_CURVE('',#518,#519,#352,.T.);
#614=EDGE_CURVE('',#519,#519,#286,.T.);
#615=EDGE_CURVE('',#519,#520,#353,.T.);
#616=EDGE_CURVE('',#520,#520,#287,.T.);
#617=EDGE_CURVE('',#521,#522,#354,.T.);
#618=EDGE_CURVE('',#523,#521,#355,.T.);
#619=EDGE_CURVE('',#524,#523,#356,.T.);
#620=EDGE_CURVE('',#524,#525,#357,.T.);
#621=EDGE_CURVE('',#526,#525,#358,.T.);
#622=EDGE_CURVE('',#527,#526,#359,.T.);
#623=EDGE_CURVE('',#528,#527,#360,.T.);
#624=EDGE_CURVE('',#528,#522,#361,.T.);
#625=EDGE_CURVE('',#529,#529,#288,.T.);
#626=EDGE_CURVE('',#530,#530,#289,.T.);
#627=EDGE_CURVE('',#530,#529,#362,.T.);
#628=EDGE_CURVE('',#531,#531,#290,.T.);
#629=EDGE_CURVE('',#531,#530,#363,.T.);
#630=EDGE_CURVE('',#532,#531,#364,.T.);
#631=EDGE_CURVE('',#533,#534,#365,.T.);
#632=EDGE_CURVE('',#533,#521,#366,.T.);
#633=EDGE_CURVE('',#534,#522,#367,.T.);
#634=EDGE_CURVE('',#535,#533,#291,.T.);
#635=EDGE_CURVE('',#534,#536,#292,.T.);
#636=EDGE_CURVE('',#536,#537,#368,.T.);
#637=EDGE_CURVE('',#537,#538,#293,.T.);
#638=EDGE_CURVE('',#538,#539,#369,.T.);
#639=EDGE_CURVE('',#539,#540,#294,.T.);
#640=EDGE_CURVE('',#540,#535,#370,.T.);
#641=EDGE_CURVE('',#541,#541,#295,.T.);
#642=EDGE_CURVE('',#541,#542,#371,.T.);
#643=EDGE_CURVE('',#543,#542,#296,.T.);
#644=EDGE_CURVE('',#542,#543,#297,.T.);
#645=EDGE_CURVE('',#543,#544,#372,.T.);
#646=EDGE_CURVE('',#544,#544,#298,.T.);
#647=EDGE_CURVE('',#545,#545,#299,.T.);
#648=EDGE_CURVE('',#546,#546,#300,.T.);
#649=EDGE_CURVE('',#547,#547,#301,.T.);
#650=EDGE_CURVE('',#548,#548,#302,.T.);
#651=EDGE_CURVE('',#549,#549,#303,.T.);
#652=EDGE_CURVE('',#550,#550,#304,.T.);
#653=EDGE_CURVE('',#551,#551,#305,.T.);
#654=EDGE_CURVE('',#552,#552,#306,.T.);
#655=EDGE_CURVE('',#553,#553,#307,.T.);
#656=EDGE_CURVE('',#554,#554,#308,.T.);
#657=EDGE_CURVE('',#555,#556,#309,.T.);
#658=EDGE_CURVE('',#555,#554,#373,.T.);
#659=EDGE_CURVE('',#556,#555,#310,.T.);
#660=EDGE_CURVE('',#556,#557,#374,.T.);
#661=EDGE_CURVE('',#557,#557,#311,.T.);
#662=EDGE_CURVE('',#545,#558,#375,.T.);
#663=EDGE_CURVE('',#558,#558,#312,.T.);
#664=EDGE_CURVE('',#546,#559,#376,.T.);
#665=EDGE_CURVE('',#559,#559,#313,.T.);
#666=EDGE_CURVE('',#547,#560,#377,.T.);
#667=EDGE_CURVE('',#560,#560,#314,.T.);
#668=EDGE_CURVE('',#548,#561,#378,.T.);
#669=EDGE_CURVE('',#561,#561,#315,.T.);
#670=EDGE_CURVE('',#562,#562,#316,.T.);
#671=EDGE_CURVE('',#562,#563,#379,.T.);
#672=EDGE_CURVE('',#563,#563,#317,.T.);
#673=EDGE_CURVE('',#564,#565,#318,.T.);
#674=EDGE_CURVE('',#565,#566,#380,.T.);
#675=EDGE_CURVE('',#566,#567,#319,.T.);
#676=EDGE_CURVE('',#567,#568,#381,.T.);
#677=EDGE_CURVE('',#568,#569,#320,.T.);
#678=EDGE_CURVE('',#569,#570,#382,.T.);
#679=EDGE_CURVE('',#570,#571,#383,.T.);
#680=EDGE_CURVE('',#572,#571,#384,.T.);
#681=EDGE_CURVE('',#572,#573,#385,.T.);
#682=EDGE_CURVE('',#573,#574,#386,.T.);
#683=EDGE_CURVE('',#574,#575,#321,.T.);
#684=EDGE_CURVE('',#575,#564,#387,.T.);
#685=EDGE_CURVE('',#576,#576,#322,.T.);
#686=EDGE_CURVE('',#577,#577,#323,.T.);
#687=EDGE_CURVE('',#578,#578,#324,.T.);
#688=EDGE_CURVE('',#579,#579,#325,.T.);
#689=EDGE_CURVE('',#580,#580,#326,.T.);
#690=EDGE_CURVE('',#581,#581,#327,.T.);
#691=EDGE_CURVE('',#581,#576,#388,.T.);
#692=EDGE_CURVE('',#582,#582,#328,.T.);
#693=EDGE_CURVE('',#549,#582,#389,.T.);
#694=EDGE_CURVE('',#583,#583,#329,.T.);
#695=EDGE_CURVE('',#583,#577,#390,.T.);
#696=EDGE_CURVE('',#584,#584,#330,.T.);
#697=EDGE_CURVE('',#550,#584,#391,.T.);
#698=EDGE_CURVE('',#585,#585,#331,.T.);
#699=EDGE_CURVE('',#585,#578,#392,.T.);
#700=EDGE_CURVE('',#586,#586,#332,.T.);
#701=EDGE_CURVE('',#551,#586,#393,.T.);
#702=EDGE_CURVE('',#587,#587,#333,.T.);
#703=EDGE_CURVE('',#587,#579,#394,.T.);
#704=EDGE_CURVE('',#588,#588,#334,.T.);
#705=EDGE_CURVE('',#552,#588,#395,.T.);
#706=EDGE_CURVE('',#589,#589,#335,.T.);
#707=EDGE_CURVE('',#589,#580,#396,.T.);
#708=EDGE_CURVE('',#590,#590,#336,.T.);
#709=EDGE_CURVE('',#553,#590,#397,.T.);
#710=EDGE_CURVE('',#564,#591,#398,.T.);
#711=EDGE_CURVE('',#591,#592,#337,.T.);
#712=EDGE_CURVE('',#565,#592,#399,.T.);
#713=EDGE_CURVE('',#592,#593,#400,.T.);
#714=EDGE_CURVE('',#566,#593,#401,.T.);
#715=EDGE_CURVE('',#593,#594,#338,.T.);
#716=EDGE_CURVE('',#567,#594,#402,.T.);
#717=EDGE_CURVE('',#594,#595,#403,.T.);
#718=EDGE_CURVE('',#568,#595,#404,.T.);
#719=EDGE_CURVE('',#595,#528,#339,.T.);
#720=EDGE_CURVE('',#569,#528,#405,.T.);
#721=EDGE_CURVE('',#570,#527,#406,.T.);
#722=EDGE_CURVE('',#526,#596,#407,.T.);
#723=EDGE_CURVE('',#571,#596,#408,.T.);
#724=EDGE_CURVE('',#596,#597,#409,.T.);
#725=EDGE_CURVE('',#597,#572,#410,.T.);
#726=EDGE_CURVE('',#525,#597,#411,.T.);
#727=EDGE_CURVE('',#524,#573,#412,.T.);
#728=EDGE_CURVE('',#574,#523,#413,.T.);
#729=EDGE_CURVE('',#523,#598,#340,.T.);
#730=EDGE_CURVE('',#575,#598,#414,.T.);
#731=EDGE_CURVE('',#598,#591,#415,.T.);
#732=EDGE_CURVE('',#599,#600,#416,.T.);
#733=EDGE_CURVE('',#591,#599,#417,.T.);
#734=EDGE_CURVE('',#598,#600,#418,.T.);
#735=EDGE_CURVE('',#540,#599,#419,.T.);
#736=EDGE_CURVE('',#535,#600,#420,.T.);
#737=EDGE_CURVE('',#600,#521,#341,.T.);
#738=EDGE_CURVE('',#539,#601,#421,.T.);
#739=EDGE_CURVE('',#601,#599,#342,.T.);
#740=EDGE_CURVE('',#592,#601,#422,.T.);
#741=EDGE_CURVE('',#602,#601,#423,.T.);
#742=EDGE_CURVE('',#593,#602,#424,.T.);
#743=EDGE_CURVE('',#538,#602,#425,.T.);
#744=EDGE_CURVE('',#537,#603,#426,.T.);
#745=EDGE_CURVE('',#603,#602,#343,.T.);
#746=EDGE_CURVE('',#594,#603,#427,.T.);
#747=EDGE_CURVE('',#604,#603,#428,.T.);
#748=EDGE_CURVE('',#595,#604,#429,.T.);
#749=EDGE_CURVE('',#536,#604,#430,.T.);
#750=EDGE_CURVE('',#522,#604,#344,.T.);
#751=EDGE_CURVE('',#605,#605,#345,.T.);
#752=EDGE_CURVE('',#606,#606,#346,.T.);
#753=EDGE_CURVE('',#606,#605,#431,.T.);
#754=EDGE_CURVE('',#607,#607,#347,.T.);
#755=EDGE_CURVE('',#608,#608,#348,.T.);
#756=EDGE_CURVE('',#608,#607,#432,.T.);
#757=EDGE_CURVE('',#609,#609,#349,.T.);
#758=EDGE_CURVE('',#610,#610,#350,.T.);
#759=EDGE_CURVE('',#610,#609,#433,.T.);
#760=ORIENTED_EDGE('',*,*,#611,.T.);
#761=ORIENTED_EDGE('',*,*,#612,.T.);
#762=ORIENTED_EDGE('',*,*,#611,.F.);
#763=ORIENTED_EDGE('',*,*,#612,.F.);
#764=ORIENTED_EDGE('',*,*,#613,.T.);
#765=ORIENTED_EDGE('',*,*,#614,.T.);
#766=ORIENTED_EDGE('',*,*,#613,.F.);
#767=ORIENTED_EDGE('',*,*,#614,.F.);
#768=ORIENTED_EDGE('',*,*,#615,.T.);
#769=ORIENTED_EDGE('',*,*,#616,.T.);
#770=ORIENTED_EDGE('',*,*,#615,.F.);
#771=ORIENTED_EDGE('',*,*,#617,.F.);
#772=ORIENTED_EDGE('',*,*,#618,.F.);
#773=ORIENTED_EDGE('',*,*,#619,.F.);
#774=ORIENTED_EDGE('',*,*,#620,.T.);
#775=ORIENTED_EDGE('',*,*,#621,.F.);
#776=ORIENTED_EDGE('',*,*,#622,.F.);
#777=ORIENTED_EDGE('',*,*,#623,.F.);
#778=ORIENTED_EDGE('',*,*,#624,.T.);
#779=ORIENTED_EDGE('',*,*,#625,.F.);
#780=ORIENTED_EDGE('',*,*,#616,.F.);
#781=ORIENTED_EDGE('',*,*,#626,.F.);
#782=ORIENTED_EDGE('',*,*,#627,.T.);
#783=ORIENTED_EDGE('',*,*,#625,.T.);
#784=ORIENTED_EDGE('',*,*,#627,.F.);
#785=ORIENTED_EDGE('',*,*,#628,.T.);
#786=ORIENTED_EDGE('',*,*,#629,.T.);
#787=ORIENTED_EDGE('',*,*,#626,.T.);
#788=ORIENTED_EDGE('',*,*,#629,.F.);
#789=ORIENTED_EDGE('',*,*,#630,.T.);
#790=ORIENTED_EDGE('',*,*,#628,.F.);
#791=ORIENTED_EDGE('',*,*,#630,.F.);
#792=ORIENTED_EDGE('',*,*,#631,.F.);
#793=ORIENTED_EDGE('',*,*,#632,.T.);
#794=ORIENTED_EDGE('',*,*,#617,.T.);
#795=ORIENTED_EDGE('',*,*,#633,.F.);
#796=ORIENTED_EDGE('',*,*,#634,.T.);
#797=ORIENTED_EDGE('',*,*,#631,.T.);
#798=ORIENTED_EDGE('',*,*,#635,.T.);
#799=ORIENTED_EDGE('',*,*,#636,.T.);
#800=ORIENTED_EDGE('',*,*,#637,.T.);
#801=ORIENTED_EDGE('',*,*,#638,.T.);
#802=ORIENTED_EDGE('',*,*,#639,.T.);
#803=ORIENTED_EDGE('',*,*,#640,.T.);
#804=ORIENTED_EDGE('',*,*,#641,.T.);
#805=ORIENTED_EDGE('',*,*,#641,.F.);
#806=ORIENTED_EDGE('',*,*,#642,.T.);
#807=ORIENTED_EDGE('',*,*,#643,.F.);
#808=ORIENTED_EDGE('',*,*,#644,.F.);
#809=ORIENTED_EDGE('',*,*,#642,.F.);
#810=ORIENTED_EDGE('',*,*,#643,.T.);
#811=ORIENTED_EDGE('',*,*,#644,.T.);
#812=ORIENTED_EDGE('',*,*,#645,.T.);
#813=ORIENTED_EDGE('',*,*,#646,.F.);
#814=ORIENTED_EDGE('',*,*,#645,.F.);
#815=ORIENTED_EDGE('',*,*,#646,.T.);
#816=ORIENTED_EDGE('',*,*,#647,.T.);
#817=ORIENTED_EDGE('',*,*,#648,.T.);
#818=ORIENTED_EDGE('',*,*,#649,.T.);
#819=ORIENTED_EDGE('',*,*,#650,.T.);
#820=ORIENTED_EDGE('',*,*,#651,.T.);
#821=ORIENTED_EDGE('',*,*,#652,.T.);
#822=ORIENTED_EDGE('',*,*,#653,.T.);
#823=ORIENTED_EDGE('',*,*,#654,.T.);
#824=ORIENTED_EDGE('',*,*,#655,.T.);
#825=ORIENTED_EDGE('',*,*,#656,.F.);
#826=ORIENTED_EDGE('',*,*,#657,.F.);
#827=ORIENTED_EDGE('',*,*,#658,.T.);
#828=ORIENTED_EDGE('',*,*,#656,.T.);
#829=ORIENTED_EDGE('',*,*,#658,.F.);
#830=ORIENTED_EDGE('',*,*,#659,.F.);
#831=ORIENTED_EDGE('',*,*,#657,.T.);
#832=ORIENTED_EDGE('',*,*,#660,.T.);
#833=ORIENTED_EDGE('',*,*,#661,.F.);
#834=ORIENTED_EDGE('',*,*,#660,.F.);
#835=ORIENTED_EDGE('',*,*,#659,.T.);
#836=ORIENTED_EDGE('',*,*,#661,.T.);
#837=ORIENTED_EDGE('',*,*,#647,.F.);
#838=ORIENTED_EDGE('',*,*,#662,.T.);
#839=ORIENTED_EDGE('',*,*,#663,.T.);
#840=ORIENTED_EDGE('',*,*,#662,.F.);
#841=ORIENTED_EDGE('',*,*,#663,.F.);
#842=ORIENTED_EDGE('',*,*,#648,.F.);
#843=ORIENTED_EDGE('',*,*,#664,.T.);
#844=ORIENTED_EDGE('',*,*,#665,.T.);
#845=ORIENTED_EDGE('',*,*,#664,.F.);
#846=ORIENTED_EDGE('',*,*,#665,.F.);
#847=ORIENTED_EDGE('',*,*,#649,.F.);
#848=ORIENTED_EDGE('',*,*,#666,.T.);
#849=ORIENTED_EDGE('',*,*,#667,.T.);
#850=ORIENTED_EDGE('',*,*,#666,.F.);
#851=ORIENTED_EDGE('',*,*,#667,.F.);
#852=ORIENTED_EDGE('',*,*,#650,.F.);
#853=ORIENTED_EDGE('',*,*,#668,.T.);
#854=ORIENTED_EDGE('',*,*,#669,.T.);
#855=ORIENTED_EDGE('',*,*,#668,.F.);
#856=ORIENTED_EDGE('',*,*,#670,.T.);
#857=ORIENTED_EDGE('',*,*,#669,.F.);
#858=ORIENTED_EDGE('',*,*,#670,.F.);
#859=ORIENTED_EDGE('',*,*,#671,.T.);
#860=ORIENTED_EDGE('',*,*,#672,.T.);
#861=ORIENTED_EDGE('',*,*,#671,.F.);
#862=ORIENTED_EDGE('',*,*,#673,.T.);
#863=ORIENTED_EDGE('',*,*,#674,.T.);
#864=ORIENTED_EDGE('',*,*,#675,.T.);
#865=ORIENTED_EDGE('',*,*,#676,.T.);
#866=ORIENTED_EDGE('',*,*,#677,.T.);
#867=ORIENTED_EDGE('',*,*,#678,.T.);
#868=ORIENTED_EDGE('',*,*,#679,.T.);
#869=ORIENTED_EDGE('',*,*,#680,.F.);
#870=ORIENTED_EDGE('',*,*,#681,.T.);
#871=ORIENTED_EDGE('',*,*,#682,.T.);
#872=ORIENTED_EDGE('',*,*,#683,.T.);
#873=ORIENTED_EDGE('',*,*,#684,.T.);
#874=ORIENTED_EDGE('',*,*,#685,.F.);
#875=ORIENTED_EDGE('',*,*,#686,.F.);
#876=ORIENTED_EDGE('',*,*,#687,.F.);
#877=ORIENTED_EDGE('',*,*,#688,.F.);
#878=ORIENTED_EDGE('',*,*,#689,.F.);
#879=ORIENTED_EDGE('',*,*,#672,.F.);
#880=ORIENTED_EDGE('',*,*,#690,.F.);
#881=ORIENTED_EDGE('',*,*,#691,.T.);
#882=ORIENTED_EDGE('',*,*,#685,.T.);
#883=ORIENTED_EDGE('',*,*,#691,.F.);
#884=ORIENTED_EDGE('',*,*,#690,.T.);
#885=ORIENTED_EDGE('',*,*,#692,.T.);
#886=ORIENTED_EDGE('',*,*,#651,.F.);
#887=ORIENTED_EDGE('',*,*,#693,.T.);
#888=ORIENTED_EDGE('',*,*,#692,.F.);
#889=ORIENTED_EDGE('',*,*,#693,.F.);
#890=ORIENTED_EDGE('',*,*,#694,.F.);
#891=ORIENTED_EDGE('',*,*,#695,.T.);
#892=ORIENTED_EDGE('',*,*,#686,.T.);
#893=ORIENTED_EDGE('',*,*,#695,.F.);
#894=ORIENTED_EDGE('',*,*,#694,.T.);
#895=ORIENTED_EDGE('',*,*,#696,.T.);
#896=ORIENTED_EDGE('',*,*,#652,.F.);
#897=ORIENTED_EDGE('',*,*,#697,.T.);
#898=ORIENTED_EDGE('',*,*,#696,.F.);
#899=ORIENTED_EDGE('',*,*,#697,.F.);
#900=ORIENTED_EDGE('',*,*,#698,.F.);
#901=ORIENTED_EDGE('',*,*,#699,.T.);
#902=ORIENTED_EDGE('',*,*,#687,.T.);
#903=ORIENTED_EDGE('',*,*,#699,.F.);
#904=ORIENTED_EDGE('',*,*,#698,.T.);
#905=ORIENTED_EDGE('',*,*,#700,.T.);
#906=ORIENTED_EDGE('',*,*,#653,.F.);
#907=ORIENTED_EDGE('',*,*,#701,.T.);
#908=ORIENTED_EDGE('',*,*,#700,.F.);
#909=ORIENTED_EDGE('',*,*,#701,.F.);
#910=ORIENTED_EDGE('',*,*,#702,.F.);
#911=ORIENTED_EDGE('',*,*,#703,.T.);
#912=ORIENTED_EDGE('',*,*,#688,.T.);
#913=ORIENTED_EDGE('',*,*,#703,.F.);
#914=ORIENTED_EDGE('',*,*,#702,.T.);
#915=ORIENTED_EDGE('',*,*,#704,.T.);
#916=ORIENTED_EDGE('',*,*,#654,.F.);
#917=ORIENTED_EDGE('',*,*,#705,.T.);
#918=ORIENTED_EDGE('',*,*,#704,.F.);
#919=ORIENTED_EDGE('',*,*,#705,.F.);
#920=ORIENTED_EDGE('',*,*,#706,.F.);
#921=ORIENTED_EDGE('',*,*,#707,.T.);
#922=ORIENTED_EDGE('',*,*,#689,.T.);
#923=ORIENTED_EDGE('',*,*,#707,.F.);
#924=ORIENTED_EDGE('',*,*,#706,.T.);
#925=ORIENTED_EDGE('',*,*,#708,.T.);
#926=ORIENTED_EDGE('',*,*,#655,.F.);
#927=ORIENTED_EDGE('',*,*,#709,.T.);
#928=ORIENTED_EDGE('',*,*,#708,.F.);
#929=ORIENTED_EDGE('',*,*,#709,.F.);
#930=ORIENTED_EDGE('',*,*,#673,.F.);
#931=ORIENTED_EDGE('',*,*,#710,.T.);
#932=ORIENTED_EDGE('',*,*,#711,.T.);
#933=ORIENTED_EDGE('',*,*,#712,.F.);
#934=ORIENTED_EDGE('',*,*,#674,.F.);
#935=ORIENTED_EDGE('',*,*,#712,.T.);
#936=ORIENTED_EDGE('',*,*,#713,.T.);
#937=ORIENTED_EDGE('',*,*,#714,.F.);
#938=ORIENTED_EDGE('',*,*,#675,.F.);
#939=ORIENTED_EDGE('',*,*,#714,.T.);
#940=ORIENTED_EDGE('',*,*,#715,.T.);
#941=ORIENTED_EDGE('',*,*,#716,.F.);
#942=ORIENTED_EDGE('',*,*,#676,.F.);
#943=ORIENTED_EDGE('',*,*,#716,.T.);
#944=ORIENTED_EDGE('',*,*,#717,.T.);
#945=ORIENTED_EDGE('',*,*,#718,.F.);
#946=ORIENTED_EDGE('',*,*,#677,.F.);
#947=ORIENTED_EDGE('',*,*,#718,.T.);
#948=ORIENTED_EDGE('',*,*,#719,.T.);
#949=ORIENTED_EDGE('',*,*,#720,.F.);
#950=ORIENTED_EDGE('',*,*,#623,.T.);
#951=ORIENTED_EDGE('',*,*,#721,.F.);
#952=ORIENTED_EDGE('',*,*,#678,.F.);
#953=ORIENTED_EDGE('',*,*,#720,.T.);
#954=ORIENTED_EDGE('',*,*,#622,.T.);
#955=ORIENTED_EDGE('',*,*,#722,.T.);
#956=ORIENTED_EDGE('',*,*,#723,.F.);
#957=ORIENTED_EDGE('',*,*,#679,.F.);
#958=ORIENTED_EDGE('',*,*,#721,.T.);
#959=ORIENTED_EDGE('',*,*,#680,.T.);
#960=ORIENTED_EDGE('',*,*,#723,.T.);
#961=ORIENTED_EDGE('',*,*,#724,.T.);
#962=ORIENTED_EDGE('',*,*,#725,.T.);
#963=ORIENTED_EDGE('',*,*,#681,.F.);
#964=ORIENTED_EDGE('',*,*,#725,.F.);
#965=ORIENTED_EDGE('',*,*,#726,.F.);
#966=ORIENTED_EDGE('',*,*,#620,.F.);
#967=ORIENTED_EDGE('',*,*,#727,.T.);
#968=ORIENTED_EDGE('',*,*,#682,.F.);
#969=ORIENTED_EDGE('',*,*,#727,.F.);
#970=ORIENTED_EDGE('',*,*,#619,.T.);
#971=ORIENTED_EDGE('',*,*,#728,.F.);
#972=ORIENTED_EDGE('',*,*,#683,.F.);
#973=ORIENTED_EDGE('',*,*,#728,.T.);
#974=ORIENTED_EDGE('',*,*,#729,.T.);
#975=ORIENTED_EDGE('',*,*,#730,.F.);
#976=ORIENTED_EDGE('',*,*,#684,.F.);
#977=ORIENTED_EDGE('',*,*,#730,.T.);
#978=ORIENTED_EDGE('',*,*,#731,.T.);
#979=ORIENTED_EDGE('',*,*,#710,.F.);
#980=ORIENTED_EDGE('',*,*,#732,.F.);
#981=ORIENTED_EDGE('',*,*,#733,.F.);
#982=ORIENTED_EDGE('',*,*,#731,.F.);
#983=ORIENTED_EDGE('',*,*,#734,.T.);
#984=ORIENTED_EDGE('',*,*,#640,.F.);
#985=ORIENTED_EDGE('',*,*,#735,.T.);
#986=ORIENTED_EDGE('',*,*,#732,.T.);
#987=ORIENTED_EDGE('',*,*,#736,.F.);
#988=ORIENTED_EDGE('',*,*,#634,.F.);
#989=ORIENTED_EDGE('',*,*,#736,.T.);
#990=ORIENTED_EDGE('',*,*,#737,.T.);
#991=ORIENTED_EDGE('',*,*,#632,.F.);
#992=ORIENTED_EDGE('',*,*,#737,.F.);
#993=ORIENTED_EDGE('',*,*,#734,.F.);
#994=ORIENTED_EDGE('',*,*,#729,.F.);
#995=ORIENTED_EDGE('',*,*,#618,.T.);
#996=ORIENTED_EDGE('',*,*,#639,.F.);
#997=ORIENTED_EDGE('',*,*,#738,.T.);
#998=ORIENTED_EDGE('',*,*,#739,.T.);
#999=ORIENTED_EDGE('',*,*,#735,.F.);
#1000=ORIENTED_EDGE('',*,*,#739,.F.);
#1001=ORIENTED_EDGE('',*,*,#740,.F.);
#1002=ORIENTED_EDGE('',*,*,#711,.F.);
#1003=ORIENTED_EDGE('',*,*,#733,.T.);
#1004=ORIENTED_EDGE('',*,*,#741,.F.);
#1005=ORIENTED_EDGE('',*,*,#742,.F.);
#1006=ORIENTED_EDGE('',*,*,#713,.F.);
#1007=ORIENTED_EDGE('',*,*,#740,.T.);
#1008=ORIENTED_EDGE('',*,*,#638,.F.);
#1009=ORIENTED_EDGE('',*,*,#743,.T.);
#1010=ORIENTED_EDGE('',*,*,#741,.T.);
#1011=ORIENTED_EDGE('',*,*,#738,.F.);
#1012=ORIENTED_EDGE('',*,*,#637,.F.);
#1013=ORIENTED_EDGE('',*,*,#744,.T.);
#1014=ORIENTED_EDGE('',*,*,#745,.T.);
#1015=ORIENTED_EDGE('',*,*,#743,.F.);
#1016=ORIENTED_EDGE('',*,*,#745,.F.);
#1017=ORIENTED_EDGE('',*,*,#746,.F.);
#1018=ORIENTED_EDGE('',*,*,#715,.F.);
#1019=ORIENTED_EDGE('',*,*,#742,.T.);
#1020=ORIENTED_EDGE('',*,*,#747,.F.);
#1021=ORIENTED_EDGE('',*,*,#748,.F.);
#1022=ORIENTED_EDGE('',*,*,#717,.F.);
#1023=ORIENTED_EDGE('',*,*,#746,.T.);
#1024=ORIENTED_EDGE('',*,*,#636,.F.);
#1025=ORIENTED_EDGE('',*,*,#749,.T.);
#1026=ORIENTED_EDGE('',*,*,#747,.T.);
#1027=ORIENTED_EDGE('',*,*,#744,.F.);
#1028=ORIENTED_EDGE('',*,*,#635,.F.);
#1029=ORIENTED_EDGE('',*,*,#633,.T.);
#1030=ORIENTED_EDGE('',*,*,#750,.T.);
#1031=ORIENTED_EDGE('',*,*,#749,.F.);
#1032=ORIENTED_EDGE('',*,*,#750,.F.);
#1033=ORIENTED_EDGE('',*,*,#624,.F.);
#1034=ORIENTED_EDGE('',*,*,#719,.F.);
#1035=ORIENTED_EDGE('',*,*,#748,.T.);
#1036=ORIENTED_EDGE('',*,*,#621,.T.);
#1037=ORIENTED_EDGE('',*,*,#726,.T.);
#1038=ORIENTED_EDGE('',*,*,#724,.F.);
#1039=ORIENTED_EDGE('',*,*,#722,.F.);
#1040=ORIENTED_EDGE('',*,*,#751,.F.);
#1041=ORIENTED_EDGE('',*,*,#752,.F.);
#1042=ORIENTED_EDGE('',*,*,#753,.T.);
#1043=ORIENTED_EDGE('',*,*,#751,.T.);
#1044=ORIENTED_EDGE('',*,*,#753,.F.);
#1045=ORIENTED_EDGE('',*,*,#752,.T.);
#1046=ORIENTED_EDGE('',*,*,#754,.F.);
#1047=ORIENTED_EDGE('',*,*,#755,.F.);
#1048=ORIENTED_EDGE('',*,*,#756,.T.);
#1049=ORIENTED_EDGE('',*,*,#754,.T.);
#1050=ORIENTED_EDGE('',*,*,#756,.F.);
#1051=ORIENTED_EDGE('',*,*,#755,.T.);
#1052=ORIENTED_EDGE('',*,*,#757,.F.);
#1053=ORIENTED_EDGE('',*,*,#758,.F.);
#1054=ORIENTED_EDGE('',*,*,#759,.T.);
#1055=ORIENTED_EDGE('',*,*,#757,.T.);
#1056=ORIENTED_EDGE('',*,*,#759,.F.);
#1057=ORIENTED_EDGE('',*,*,#758,.T.);
#1058=CONICAL_SURFACE('',#1165,0.6622031187871,1.02974425867665);
#1059=CONICAL_SURFACE('',#1169,1.375,0.785398163397448);
#1060=CONICAL_SURFACE('',#1173,1.375,0.785398163397448);
#1061=CONICAL_SURFACE('',#1177,0.6622031187871,1.02974425867665);
#1062=CONICAL_SURFACE('',#1188,17.34999999981,0.785398163397448);
#1063=CONICAL_SURFACE('',#1204,4.599999998381,0.785398163397448);
#1064=CONICAL_SURFACE('',#1257,1.84999999666,0.785398163397448);
#1065=CONICAL_SURFACE('',#1260,1.84999999666,0.785398163397448);
#1066=CONICAL_SURFACE('',#1263,1.84999999666,0.785398163397448);
#1067=CONICAL_SURFACE('',#1270,1.84999999666,0.785398163397448);
#1068=CONICAL_SURFACE('',#1275,1.84999999666,0.785398163397448);
#1069=CONICAL_SURFACE('',#1278,1.84999999666,0.785398163397448);
#1070=CONICAL_SURFACE('',#1283,1.84999999666,0.785398163397448);
#1071=CONICAL_SURFACE('',#1288,1.84999999666,0.785398163397448);
#1072=ADVANCED_FACE('',(#108),#1058,.F.);
#1073=ADVANCED_FACE('',(#109),#82,.F.);
#1074=ADVANCED_FACE('',(#110),#1059,.F.);
#1075=ADVANCED_FACE('',(#111,#21,#22),#46,.T.);
#1076=ADVANCED_FACE('',(#112),#1060,.F.);
#1077=ADVANCED_FACE('',(#113),#83,.F.);
#1078=ADVANCED_FACE('',(#114),#1061,.F.);
#1079=ADVANCED_FACE('',(#115),#47,.T.);
#1080=ADVANCED_FACE('',(#116,#23),#48,.T.);
#1081=ADVANCED_FACE('',(#117),#84,.T.);
#1082=ADVANCED_FACE('',(#118),#1062,.T.);
#1083=ADVANCED_FACE('',(#119,#24,#25,#26,#27,#28,#29,#30,#31,#32,#33),#49,
 .T.);
#1084=ADVANCED_FACE('',(#120),#85,.T.);
#1085=ADVANCED_FACE('',(#121),#1063,.T.);
#1086=ADVANCED_FACE('',(#122),#50,.T.);
#1087=ADVANCED_FACE('',(#123),#86,.F.);
#1088=ADVANCED_FACE('',(#124),#51,.F.);
#1089=ADVANCED_FACE('',(#125),#87,.F.);
#1090=ADVANCED_FACE('',(#126),#52,.F.);
#1091=ADVANCED_FACE('',(#127),#88,.F.);
#1092=ADVANCED_FACE('',(#128),#53,.F.);
#1093=ADVANCED_FACE('',(#129),#89,.F.);
#1094=ADVANCED_FACE('',(#130,#34),#54,.T.);
#1095=ADVANCED_FACE('',(#131),#90,.F.);
#1096=ADVANCED_FACE('',(#132,#35,#36,#37,#38,#39,#40),#55,.T.);
#1097=ADVANCED_FACE('',(#133),#91,.F.);
#1098=ADVANCED_FACE('',(#134,#41),#56,.T.);
#1099=ADVANCED_FACE('',(#135),#92,.F.);
#1100=ADVANCED_FACE('',(#136),#93,.F.);
#1101=ADVANCED_FACE('',(#137,#42),#57,.T.);
#1102=ADVANCED_FACE('',(#138),#94,.F.);
#1103=ADVANCED_FACE('',(#139),#95,.F.);
#1104=ADVANCED_FACE('',(#140,#43),#58,.T.);
#1105=ADVANCED_FACE('',(#141),#96,.F.);
#1106=ADVANCED_FACE('',(#142),#97,.F.);
#1107=ADVANCED_FACE('',(#143,#44),#59,.T.);
#1108=ADVANCED_FACE('',(#144),#98,.F.);
#1109=ADVANCED_FACE('',(#145),#99,.F.);
#1110=ADVANCED_FACE('',(#146,#45),#60,.T.);
#1111=ADVANCED_FACE('',(#147),#100,.F.);
#1112=ADVANCED_FACE('',(#148),#1064,.T.);
#1113=ADVANCED_FACE('',(#149),#61,.T.);
#1114=ADVANCED_FACE('',(#150),#1065,.T.);
#1115=ADVANCED_FACE('',(#151),#62,.T.);
#1116=ADVANCED_FACE('',(#152),#1066,.T.);
#1117=ADVANCED_FACE('',(#153),#63,.T.);
#1118=ADVANCED_FACE('',(#154),#64,.T.);
#1119=ADVANCED_FACE('',(#155),#65,.T.);
#1120=ADVANCED_FACE('',(#156),#66,.T.);
#1121=ADVANCED_FACE('',(#157),#67,.T.);
#1122=ADVANCED_FACE('',(#158),#1067,.T.);
#1123=ADVANCED_FACE('',(#159),#68,.T.);
#1124=ADVANCED_FACE('',(#160),#69,.T.);
#1125=ADVANCED_FACE('',(#161),#70,.T.);
#1126=ADVANCED_FACE('',(#162),#1068,.T.);
#1127=ADVANCED_FACE('',(#163),#101,.T.);
#1128=ADVANCED_FACE('',(#164),#1069,.T.);
#1129=ADVANCED_FACE('',(#165),#102,.T.);
#1130=ADVANCED_FACE('',(#166),#71,.T.);
#1131=ADVANCED_FACE('',(#167),#72,.T.);
#1132=ADVANCED_FACE('',(#168),#1070,.T.);
#1133=ADVANCED_FACE('',(#169),#103,.T.);
#1134=ADVANCED_FACE('',(#170),#73,.T.);
#1135=ADVANCED_FACE('',(#171),#74,.T.);
#1136=ADVANCED_FACE('',(#172),#1071,.T.);
#1137=ADVANCED_FACE('',(#173),#104,.T.);
#1138=ADVANCED_FACE('',(#174),#75,.T.);
#1139=ADVANCED_FACE('',(#175),#76,.F.);
#1140=ADVANCED_FACE('',(#176),#105,.T.);
#1141=ADVANCED_FACE('',(#177),#77,.T.);
#1142=ADVANCED_FACE('',(#178),#78,.F.);
#1143=ADVANCED_FACE('',(#179),#106,.T.);
#1144=ADVANCED_FACE('',(#180),#79,.T.);
#1145=ADVANCED_FACE('',(#181),#80,.F.);
#1146=ADVANCED_FACE('',(#182),#107,.T.);
#1147=ADVANCED_FACE('',(#183),#81,.T.);
#1148=CLOSED_SHELL('',(#1072,#1073,#1074,#1075,#1076,#1077,#1078,#1079,
#1080,#1081,#1082,#1083,#1084,#1085,#1086,#1087,#1088,#1089,#1090,#1091,
#1092,#1093,#1094,#1095,#1096,#1097,#1098,#1099,#1100,#1101,#1102,#1103,
#1104,#1105,#1106,#1107,#1108,#1109,#1110,#1111,#1112,#1113,#1114,#1115,
#1116,#1117,#1118,#1119,#1120,#1121,#1122,#1123,#1124,#1125,#1126,#1127,
#1128,#1129,#1130,#1131,#1132,#1133,#1134,#1135,#1136,#1137,#1138));
#1149=CLOSED_SHELL('',(#1139,#1140,#1141));
#1150=CLOSED_SHELL('',(#1142,#1143,#1144));
#1151=CLOSED_SHELL('',(#1145,#1146,#1147));
#1152=DERIVED_UNIT_ELEMENT(#1154,1.);
#1153=DERIVED_UNIT_ELEMENT(#2001,-3.);
#1154=(
MASS_UNIT()
NAMED_UNIT(*)
SI_UNIT(.KILO.,.GRAM.)
);
#1155=DERIVED_UNIT((#1152,#1153));
#1156=MEASURE_REPRESENTATION_ITEM('density measure',
POSITIVE_RATIO_MEASURE(7850.),#1155);
#1157=PROPERTY_DEFINITION_REPRESENTATION(#1162,#1159);
#1158=PROPERTY_DEFINITION_REPRESENTATION(#1163,#1160);
#1159=REPRESENTATION('material name',(#1161),#1998);
#1160=REPRESENTATION('density',(#1156),#1998);
#1161=DESCRIPTIVE_REPRESENTATION_ITEM('\X2\94A2\X0\','\X2\94A2\X0\');
#1162=PROPERTY_DEFINITION('material property','material name',#2008);
#1163=PROPERTY_DEFINITION('material property','density of part',#2008);
#1164=AXIS2_PLACEMENT_3D('',#1676,#1307,#1308);
#1165=AXIS2_PLACEMENT_3D('',#1677,#1309,#1310);
#1166=AXIS2_PLACEMENT_3D('',#1681,#1312,#1313);
#1167=AXIS2_PLACEMENT_3D('',#1682,#1314,#1315);
#1168=AXIS2_PLACEMENT_3D('',#1685,#1317,#1318);
#1169=AXIS2_PLACEMENT_3D('',#1686,#1319,#1320);
#1170=AXIS2_PLACEMENT_3D('',#1689,#1322,#1323);
#1171=AXIS2_PLACEMENT_3D('',#1690,#1324,#1325);
#1172=AXIS2_PLACEMENT_3D('',#1708,#1334,#1335);
#1173=AXIS2_PLACEMENT_3D('',#1709,#1336,#1337);
#1174=AXIS2_PLACEMENT_3D('',#1711,#1338,#1339);
#1175=AXIS2_PLACEMENT_3D('',#1713,#1341,#1342);
#1176=AXIS2_PLACEMENT_3D('',#1715,#1343,#1344);
#1177=AXIS2_PLACEMENT_3D('',#1717,#1346,#1347);
#1178=AXIS2_PLACEMENT_3D('',#1720,#1349,#1350);
#1179=AXIS2_PLACEMENT_3D('',#1726,#1354,#1355);
#1180=AXIS2_PLACEMENT_3D('',#1728,#1356,#1357);
#1181=AXIS2_PLACEMENT_3D('',#1730,#1358,#1359);
#1182=AXIS2_PLACEMENT_3D('',#1734,#1361,#1362);
#1183=AXIS2_PLACEMENT_3D('',#1738,#1364,#1365);
#1184=AXIS2_PLACEMENT_3D('',#1741,#1367,#1368);
#1185=AXIS2_PLACEMENT_3D('',#1742,#1369,#1370);
#1186=AXIS2_PLACEMENT_3D('',#1746,#1372,#1373);
#1187=AXIS2_PLACEMENT_3D('',#1747,#1374,#1375);
#1188=AXIS2_PLACEMENT_3D('',#1748,#1376,#1377);
#1189=AXIS2_PLACEMENT_3D('',#1751,#1379,#1380);
#1190=AXIS2_PLACEMENT_3D('',#1752,#1381,#1382);
#1191=AXIS2_PLACEMENT_3D('',#1754,#1383,#1384);
#1192=AXIS2_PLACEMENT_3D('',#1756,#1385,#1386);
#1193=AXIS2_PLACEMENT_3D('',#1758,#1387,#1388);
#1194=AXIS2_PLACEMENT_3D('',#1760,#1389,#1390);
#1195=AXIS2_PLACEMENT_3D('',#1762,#1391,#1392);
#1196=AXIS2_PLACEMENT_3D('',#1764,#1393,#1394);
#1197=AXIS2_PLACEMENT_3D('',#1766,#1395,#1396);
#1198=AXIS2_PLACEMENT_3D('',#1768,#1397,#1398);
#1199=AXIS2_PLACEMENT_3D('',#1770,#1399,#1400);
#1200=AXIS2_PLACEMENT_3D('',#1772,#1401,#1402);
#1201=AXIS2_PLACEMENT_3D('',#1773,#1403,#1404);
#1202=AXIS2_PLACEMENT_3D('',#1776,#1405,#1406);
#1203=AXIS2_PLACEMENT_3D('',#1778,#1408,#1409);
#1204=AXIS2_PLACEMENT_3D('',#1779,#1410,#1411);
#1205=AXIS2_PLACEMENT_3D('',#1782,#1413,#1414);
#1206=AXIS2_PLACEMENT_3D('',#1783,#1415,#1416);
#1207=AXIS2_PLACEMENT_3D('',#1784,#1417,#1418);
#1208=AXIS2_PLACEMENT_3D('',#1787,#1420,#1421);
#1209=AXIS2_PLACEMENT_3D('',#1788,#1422,#1423);
#1210=AXIS2_PLACEMENT_3D('',#1789,#1424,#1425);
#1211=AXIS2_PLACEMENT_3D('',#1792,#1427,#1428);
#1212=AXIS2_PLACEMENT_3D('',#1793,#1429,#1430);
#1213=AXIS2_PLACEMENT_3D('',#1794,#1431,#1432);
#1214=AXIS2_PLACEMENT_3D('',#1797,#1434,#1435);
#1215=AXIS2_PLACEMENT_3D('',#1798,#1436,#1437);
#1216=AXIS2_PLACEMENT_3D('',#1799,#1438,#1439);
#1217=AXIS2_PLACEMENT_3D('',#1802,#1441,#1442);
#1218=AXIS2_PLACEMENT_3D('',#1803,#1443,#1444);
#1219=AXIS2_PLACEMENT_3D('',#1805,#1445,#1446);
#1220=AXIS2_PLACEMENT_3D('',#1806,#1447,#1448);
#1221=AXIS2_PLACEMENT_3D('',#1809,#1450,#1451);
#1222=AXIS2_PLACEMENT_3D('',#1810,#1452,#1453);
#1223=AXIS2_PLACEMENT_3D('',#1813,#1454,#1455);
#1224=AXIS2_PLACEMENT_3D('',#1817,#1457,#1458);
#1225=AXIS2_PLACEMENT_3D('',#1821,#1460,#1461);
#1226=AXIS2_PLACEMENT_3D('',#1833,#1467,#1468);
#1227=AXIS2_PLACEMENT_3D('',#1836,#1470,#1471);
#1228=AXIS2_PLACEMENT_3D('',#1838,#1472,#1473);
#1229=AXIS2_PLACEMENT_3D('',#1840,#1474,#1475);
#1230=AXIS2_PLACEMENT_3D('',#1842,#1476,#1477);
#1231=AXIS2_PLACEMENT_3D('',#1844,#1478,#1479);
#1232=AXIS2_PLACEMENT_3D('',#1845,#1480,#1481);
#1233=AXIS2_PLACEMENT_3D('',#1847,#1482,#1483);
#1234=AXIS2_PLACEMENT_3D('',#1849,#1485,#1486);
#1235=AXIS2_PLACEMENT_3D('',#1851,#1487,#1488);
#1236=AXIS2_PLACEMENT_3D('',#1852,#1489,#1490);
#1237=AXIS2_PLACEMENT_3D('',#1854,#1492,#1493);
#1238=AXIS2_PLACEMENT_3D('',#1856,#1494,#1495);
#1239=AXIS2_PLACEMENT_3D('',#1858,#1497,#1498);
#1240=AXIS2_PLACEMENT_3D('',#1860,#1499,#1500);
#1241=AXIS2_PLACEMENT_3D('',#1861,#1501,#1502);
#1242=AXIS2_PLACEMENT_3D('',#1863,#1504,#1505);
#1243=AXIS2_PLACEMENT_3D('',#1865,#1506,#1507);
#1244=AXIS2_PLACEMENT_3D('',#1867,#1509,#1510);
#1245=AXIS2_PLACEMENT_3D('',#1869,#1511,#1512);
#1246=AXIS2_PLACEMENT_3D('',#1870,#1513,#1514);
#1247=AXIS2_PLACEMENT_3D('',#1872,#1516,#1517);
#1248=AXIS2_PLACEMENT_3D('',#1874,#1518,#1519);
#1249=AXIS2_PLACEMENT_3D('',#1876,#1521,#1522);
#1250=AXIS2_PLACEMENT_3D('',#1878,#1523,#1524);
#1251=AXIS2_PLACEMENT_3D('',#1879,#1525,#1526);
#1252=AXIS2_PLACEMENT_3D('',#1881,#1528,#1529);
#1253=AXIS2_PLACEMENT_3D('',#1883,#1530,#1531);
#1254=AXIS2_PLACEMENT_3D('',#1885,#1533,#1534);
#1255=AXIS2_PLACEMENT_3D('',#1887,#1535,#1536);
#1256=AXIS2_PLACEMENT_3D('',#1888,#1537,#1538);
#1257=AXIS2_PLACEMENT_3D('',#1890,#1540,#1541);
#1258=AXIS2_PLACEMENT_3D('',#1894,#1543,#1544);
#1259=AXIS2_PLACEMENT_3D('',#1896,#1546,#1547);
#1260=AXIS2_PLACEMENT_3D('',#1900,#1550,#1551);
#1261=AXIS2_PLACEMENT_3D('',#1902,#1552,#1553);
#1262=AXIS2_PLACEMENT_3D('',#1904,#1555,#1556);
#1263=AXIS2_PLACEMENT_3D('',#1908,#1559,#1560);
#1264=AXIS2_PLACEMENT_3D('',#1909,#1561,#1562);
#1265=AXIS2_PLACEMENT_3D('',#1911,#1564,#1565);
#1266=AXIS2_PLACEMENT_3D('',#1913,#1567,#1568);
#1267=AXIS2_PLACEMENT_3D('',#1917,#1571,#1572);
#1268=AXIS2_PLACEMENT_3D('',#1921,#1575,#1576);
#1269=AXIS2_PLACEMENT_3D('',#1924,#1579,#1580);
#1270=AXIS2_PLACEMENT_3D('',#1926,#1582,#1583);
#1271=AXIS2_PLACEMENT_3D('',#1928,#1584,#1585);
#1272=AXIS2_PLACEMENT_3D('',#1930,#1587,#1588);
#1273=AXIS2_PLACEMENT_3D('',#1932,#1590,#1591);
#1274=AXIS2_PLACEMENT_3D('',#1938,#1595,#1596);
#1275=AXIS2_PLACEMENT_3D('',#1941,#1599,#1600);
#1276=AXIS2_PLACEMENT_3D('',#1942,#1601,#1602);
#1277=AXIS2_PLACEMENT_3D('',#1943,#1603,#1604);
#1278=AXIS2_PLACEMENT_3D('',#1944,#1605,#1606);
#1279=AXIS2_PLACEMENT_3D('',#1947,#1608,#1609);
#1280=AXIS2_PLACEMENT_3D('',#1948,#1610,#1611);
#1281=AXIS2_PLACEMENT_3D('',#1950,#1613,#1614);
#1282=AXIS2_PLACEMENT_3D('',#1954,#1617,#1618);
#1283=AXIS2_PLACEMENT_3D('',#1956,#1620,#1621);
#1284=AXIS2_PLACEMENT_3D('',#1959,#1623,#1624);
#1285=AXIS2_PLACEMENT_3D('',#1960,#1625,#1626);
#1286=AXIS2_PLACEMENT_3D('',#1962,#1628,#1629);
#1287=AXIS2_PLACEMENT_3D('',#1966,#1632,#1633);
#1288=AXIS2_PLACEMENT_3D('',#1968,#1635,#1636);
#1289=AXIS2_PLACEMENT_3D('',#1969,#1637,#1638);
#1290=AXIS2_PLACEMENT_3D('',#1970,#1639,#1640);
#1291=AXIS2_PLACEMENT_3D('',#1971,#1641,#1642);
#1292=AXIS2_PLACEMENT_3D('',#1972,#1643,#1644);
#1293=AXIS2_PLACEMENT_3D('',#1974,#1645,#1646);
#1294=AXIS2_PLACEMENT_3D('',#1975,#1647,#1648);
#1295=AXIS2_PLACEMENT_3D('',#1977,#1649,#1650);
#1296=AXIS2_PLACEMENT_3D('',#1979,#1652,#1653);
#1297=AXIS2_PLACEMENT_3D('',#1980,#1654,#1655);
#1298=AXIS2_PLACEMENT_3D('',#1982,#1656,#1657);
#1299=AXIS2_PLACEMENT_3D('',#1983,#1658,#1659);
#1300=AXIS2_PLACEMENT_3D('',#1985,#1660,#1661);
#1301=AXIS2_PLACEMENT_3D('',#1987,#1663,#1664);
#1302=AXIS2_PLACEMENT_3D('',#1988,#1665,#1666);
#1303=AXIS2_PLACEMENT_3D('',#1990,#1667,#1668);
#1304=AXIS2_PLACEMENT_3D('',#1991,#1669,#1670);
#1305=AXIS2_PLACEMENT_3D('',#1993,#1671,#1672);
#1306=AXIS2_PLACEMENT_3D('',#1995,#1674,#1675);
#1307=DIRECTION('axis',(0.,0.,1.));
#1308=DIRECTION('refdir',(1.,0.,0.));
#1309=DIRECTION('center_axis',(1.,0.,0.));
#1310=DIRECTION('ref_axis',(0.,-1.,0.));
#1311=DIRECTION('',(0.515038074910054,0.857167300702112,1.04972719113862E-16));
#1312=DIRECTION('center_axis',(1.,0.,0.));
#1313=DIRECTION('ref_axis',(0.,-1.,0.));
#1314=DIRECTION('center_axis',(1.,0.,0.));
#1315=DIRECTION('ref_axis',(0.,-1.,0.));
#1316=DIRECTION('',(1.,0.,0.));
#1317=DIRECTION('center_axis',(1.,0.,0.));
#1318=DIRECTION('ref_axis',(0.,-1.,0.));
#1319=DIRECTION('center_axis',(1.,0.,0.));
#1320=DIRECTION('ref_axis',(0.,-1.,0.));
#1321=DIRECTION('',(0.707106781186548,0.707106781186548,8.65956056235493E-17));
#1322=DIRECTION('center_axis',(1.,0.,0.));
#1323=DIRECTION('ref_axis',(0.,1.,0.));
#1324=DIRECTION('center_axis',(1.,0.,0.));
#1325=DIRECTION('ref_axis',(0.,0.,1.));
#1326=DIRECTION('',(7.548463916398E-12,-7.548595498386E-12,-1.));
#1327=DIRECTION('',(0.,1.,0.));
#1328=DIRECTION('',(-1.007068368385E-10,-1.007068368385E-10,1.));
#1329=DIRECTION('',(0.,1.,0.));
#1330=DIRECTION('',(0.,0.,1.));
#1331=DIRECTION('',(0.,1.,0.));
#1332=DIRECTION('',(8.217878913195E-11,8.217846615798E-11,1.));
#1333=DIRECTION('',(0.,1.,0.));
#1334=DIRECTION('center_axis',(1.,0.,0.));
#1335=DIRECTION('ref_axis',(0.,-1.,0.));
#1336=DIRECTION('center_axis',(1.,0.,0.));
#1337=DIRECTION('ref_axis',(0.,-1.,0.));
#1338=DIRECTION('center_axis',(1.,0.,0.));
#1339=DIRECTION('ref_axis',(0.,-1.,0.));
#1340=DIRECTION('',(0.707106781186548,0.707106781186548,8.65956056235493E-17));
#1341=DIRECTION('center_axis',(1.,0.,0.));
#1342=DIRECTION('ref_axis',(0.,-1.,0.));
#1343=DIRECTION('center_axis',(-1.,0.,0.));
#1344=DIRECTION('ref_axis',(0.,-1.,0.));
#1345=DIRECTION('',(1.,0.,0.));
#1346=DIRECTION('center_axis',(1.,0.,0.));
#1347=DIRECTION('ref_axis',(0.,-1.,0.));
#1348=DIRECTION('',(0.515038074910054,0.857167300702112,1.04972719113862E-16));
#1349=DIRECTION('center_axis',(0.707106781186598,0.707106781186498,0.));
#1350=DIRECTION('ref_axis',(0.707106781186498,-0.707106781186598,0.));
#1351=DIRECTION('',(8.554934544783E-12,-8.554934544783E-12,-1.));
#1352=DIRECTION('',(0.707106781186498,-0.707106781186597,2.01424021141299E-9));
#1353=DIRECTION('',(0.707106781186498,-0.707106781186597,-8.89304554797097E-9));
#1354=DIRECTION('center_axis',(0.,1.,0.));
#1355=DIRECTION('ref_axis',(1.,0.,0.));
#1356=DIRECTION('center_axis',(0.,1.,0.));
#1357=DIRECTION('ref_axis',(0.,0.,1.));
#1358=DIRECTION('center_axis',(0.,1.,0.));
#1359=DIRECTION('ref_axis',(1.,0.,0.));
#1360=DIRECTION('',(-1.,-1.399919912302E-11,-1.399898380704E-11));
#1361=DIRECTION('center_axis',(0.,1.,0.));
#1362=DIRECTION('ref_axis',(1.462882103036E-14,0.,-1.));
#1363=DIRECTION('',(-8.555000335777E-12,-8.554934544783E-12,1.));
#1364=DIRECTION('center_axis',(0.,1.,0.));
#1365=DIRECTION('ref_axis',(-1.,0.,0.));
#1366=DIRECTION('',(1.,-1.399876849106E-11,1.399919912302E-11));
#1367=DIRECTION('center_axis',(0.,-1.,0.));
#1368=DIRECTION('ref_axis',(1.,0.,0.));
#1369=DIRECTION('center_axis',(0.,-1.,0.));
#1370=DIRECTION('ref_axis',(1.,0.,0.));
#1371=DIRECTION('',(0.,1.,0.));
#1372=DIRECTION('center_axis',(0.,1.,0.));
#1373=DIRECTION('ref_axis',(-1.,0.,0.));
#1374=DIRECTION('center_axis',(0.,1.,0.));
#1375=DIRECTION('ref_axis',(-1.,0.,0.));
#1376=DIRECTION('center_axis',(0.,-1.,0.));
#1377=DIRECTION('ref_axis',(0.,0.,-1.));
#1378=DIRECTION('',(8.65956056235493E-17,0.707106781186548,-0.707106781186548));
#1379=DIRECTION('center_axis',(0.,1.,0.));
#1380=DIRECTION('ref_axis',(-1.,0.,0.));
#1381=DIRECTION('center_axis',(0.,1.,0.));
#1382=DIRECTION('ref_axis',(1.,0.,0.));
#1383=DIRECTION('center_axis',(0.,-1.,0.));
#1384=DIRECTION('ref_axis',(1.,0.,0.));
#1385=DIRECTION('center_axis',(0.,-1.,0.));
#1386=DIRECTION('ref_axis',(1.,0.,0.));
#1387=DIRECTION('center_axis',(0.,-1.,0.));
#1388=DIRECTION('ref_axis',(1.,0.,0.));
#1389=DIRECTION('center_axis',(0.,-1.,0.));
#1390=DIRECTION('ref_axis',(-1.,0.,0.));
#1391=DIRECTION('center_axis',(0.,-1.,0.));
#1392=DIRECTION('ref_axis',(-1.,0.,0.));
#1393=DIRECTION('center_axis',(0.,-1.,0.));
#1394=DIRECTION('ref_axis',(-1.,0.,0.));
#1395=DIRECTION('center_axis',(0.,-1.,0.));
#1396=DIRECTION('ref_axis',(-1.,0.,0.));
#1397=DIRECTION('center_axis',(0.,-1.,0.));
#1398=DIRECTION('ref_axis',(-1.,0.,0.));
#1399=DIRECTION('center_axis',(0.,-1.,0.));
#1400=DIRECTION('ref_axis',(-1.,0.,0.));
#1401=DIRECTION('center_axis',(0.,1.,0.));
#1402=DIRECTION('ref_axis',(1.,0.,0.));
#1403=DIRECTION('center_axis',(0.,1.,0.));
#1404=DIRECTION('ref_axis',(1.,0.,0.));
#1405=DIRECTION('center_axis',(0.,1.,0.));
#1406=DIRECTION('ref_axis',(1.,0.,0.));
#1407=DIRECTION('',(0.,-1.,0.));
#1408=DIRECTION('center_axis',(0.,1.,0.));
#1409=DIRECTION('ref_axis',(1.,0.,0.));
#1410=DIRECTION('center_axis',(0.,-1.,0.));
#1411=DIRECTION('ref_axis',(0.,0.,-1.));
#1412=DIRECTION('',(8.65956056235493E-17,0.707106781186547,-0.707106781186547));
#1413=DIRECTION('center_axis',(0.,1.,0.));
#1414=DIRECTION('ref_axis',(1.,0.,0.));
#1415=DIRECTION('center_axis',(0.,1.,0.));
#1416=DIRECTION('ref_axis',(1.,0.,0.));
#1417=DIRECTION('center_axis',(0.,-1.,0.));
#1418=DIRECTION('ref_axis',(1.,0.,0.));
#1419=DIRECTION('',(0.,-1.,0.));
#1420=DIRECTION('center_axis',(0.,-1.,0.));
#1421=DIRECTION('ref_axis',(1.,0.,0.));
#1422=DIRECTION('center_axis',(0.,-1.,0.));
#1423=DIRECTION('ref_axis',(1.,0.,0.));
#1424=DIRECTION('center_axis',(0.,-1.,0.));
#1425=DIRECTION('ref_axis',(1.,0.,0.));
#1426=DIRECTION('',(0.,-1.,0.));
#1427=DIRECTION('center_axis',(0.,-1.,0.));
#1428=DIRECTION('ref_axis',(1.,0.,0.));
#1429=DIRECTION('center_axis',(0.,-1.,0.));
#1430=DIRECTION('ref_axis',(1.,0.,0.));
#1431=DIRECTION('center_axis',(0.,-1.,0.));
#1432=DIRECTION('ref_axis',(1.,0.,0.));
#1433=DIRECTION('',(0.,-1.,0.));
#1434=DIRECTION('center_axis',(0.,-1.,0.));
#1435=DIRECTION('ref_axis',(1.,0.,0.));
#1436=DIRECTION('center_axis',(0.,-1.,0.));
#1437=DIRECTION('ref_axis',(1.,0.,0.));
#1438=DIRECTION('center_axis',(0.,-1.,0.));
#1439=DIRECTION('ref_axis',(-1.,0.,0.));
#1440=DIRECTION('',(0.,-1.,0.));
#1441=DIRECTION('center_axis',(0.,-1.,0.));
#1442=DIRECTION('ref_axis',(-1.,0.,0.));
#1443=DIRECTION('center_axis',(0.,-1.,0.));
#1444=DIRECTION('ref_axis',(-1.,0.,0.));
#1445=DIRECTION('center_axis',(0.,-1.,0.));
#1446=DIRECTION('ref_axis',(-1.,0.,0.));
#1447=DIRECTION('center_axis',(0.,-1.,0.));
#1448=DIRECTION('ref_axis',(-1.,0.,0.));
#1449=DIRECTION('',(0.,-1.,0.));
#1450=DIRECTION('center_axis',(0.,-1.,0.));
#1451=DIRECTION('ref_axis',(-1.,0.,0.));
#1452=DIRECTION('center_axis',(0.,-1.,0.));
#1453=DIRECTION('ref_axis',(1.,0.,0.));
#1454=DIRECTION('center_axis',(0.,-1.,0.));
#1455=DIRECTION('ref_axis',(0.,0.,1.));
#1456=DIRECTION('',(8.554934544783E-12,-8.554934544783E-12,-1.));
#1457=DIRECTION('center_axis',(0.,-1.,0.));
#1458=DIRECTION('ref_axis',(-1.,0.,0.));
#1459=DIRECTION('',(1.,-1.399898380704E-11,1.399876849106E-11));
#1460=DIRECTION('center_axis',(0.,-1.,0.));
#1461=DIRECTION('ref_axis',(0.,0.,-1.));
#1462=DIRECTION('',(9.313632706935E-11,9.313632706935E-11,1.));
#1463=DIRECTION('',(1.,0.,0.));
#1464=DIRECTION('',(0.,0.,-1.));
#1465=DIRECTION('',(-1.,0.,0.));
#1466=DIRECTION('',(-1.141341567089E-10,-1.141344796828E-10,1.));
#1467=DIRECTION('center_axis',(0.,-1.,0.));
#1468=DIRECTION('ref_axis',(1.,0.,0.));
#1469=DIRECTION('',(-1.,-1.399898380704E-11,-1.399898380704E-11));
#1470=DIRECTION('center_axis',(0.,-1.,0.));
#1471=DIRECTION('ref_axis',(-1.,0.,0.));
#1472=DIRECTION('center_axis',(0.,-1.,0.));
#1473=DIRECTION('ref_axis',(-1.,0.,0.));
#1474=DIRECTION('center_axis',(0.,-1.,0.));
#1475=DIRECTION('ref_axis',(-1.,0.,0.));
#1476=DIRECTION('center_axis',(0.,-1.,0.));
#1477=DIRECTION('ref_axis',(-1.,0.,0.));
#1478=DIRECTION('center_axis',(0.,-1.,0.));
#1479=DIRECTION('ref_axis',(-1.,0.,0.));
#1480=DIRECTION('center_axis',(0.,-1.,0.));
#1481=DIRECTION('ref_axis',(-1.,0.,0.));
#1482=DIRECTION('center_axis',(0.,-1.,0.));
#1483=DIRECTION('ref_axis',(-1.,0.,0.));
#1484=DIRECTION('',(0.,-1.,0.));
#1485=DIRECTION('center_axis',(0.,-1.,0.));
#1486=DIRECTION('ref_axis',(-1.,0.,0.));
#1487=DIRECTION('center_axis',(0.,1.,0.));
#1488=DIRECTION('ref_axis',(-1.,0.,0.));
#1489=DIRECTION('center_axis',(0.,-1.,0.));
#1490=DIRECTION('ref_axis',(-1.,0.,0.));
#1491=DIRECTION('',(0.,-1.,0.));
#1492=DIRECTION('center_axis',(0.,-1.,0.));
#1493=DIRECTION('ref_axis',(-1.,0.,0.));
#1494=DIRECTION('center_axis',(0.,-1.,0.));
#1495=DIRECTION('ref_axis',(-1.,0.,0.));
#1496=DIRECTION('',(0.,-1.,0.));
#1497=DIRECTION('center_axis',(0.,-1.,0.));
#1498=DIRECTION('ref_axis',(-1.,0.,0.));
#1499=DIRECTION('center_axis',(0.,1.,0.));
#1500=DIRECTION('ref_axis',(-1.,0.,0.));
#1501=DIRECTION('center_axis',(0.,-1.,0.));
#1502=DIRECTION('ref_axis',(-1.,0.,0.));
#1503=DIRECTION('',(0.,-1.,0.));
#1504=DIRECTION('center_axis',(0.,-1.,0.));
#1505=DIRECTION('ref_axis',(-1.,0.,0.));
#1506=DIRECTION('center_axis',(0.,-1.,0.));
#1507=DIRECTION('ref_axis',(-1.,0.,0.));
#1508=DIRECTION('',(0.,-1.,0.));
#1509=DIRECTION('center_axis',(0.,-1.,0.));
#1510=DIRECTION('ref_axis',(-1.,0.,0.));
#1511=DIRECTION('center_axis',(0.,1.,0.));
#1512=DIRECTION('ref_axis',(-1.,0.,0.));
#1513=DIRECTION('center_axis',(0.,-1.,0.));
#1514=DIRECTION('ref_axis',(-1.,0.,0.));
#1515=DIRECTION('',(0.,-1.,0.));
#1516=DIRECTION('center_axis',(0.,-1.,0.));
#1517=DIRECTION('ref_axis',(-1.,0.,0.));
#1518=DIRECTION('center_axis',(0.,-1.,0.));
#1519=DIRECTION('ref_axis',(-1.,0.,0.));
#1520=DIRECTION('',(0.,-1.,0.));
#1521=DIRECTION('center_axis',(0.,-1.,0.));
#1522=DIRECTION('ref_axis',(-1.,0.,0.));
#1523=DIRECTION('center_axis',(0.,1.,0.));
#1524=DIRECTION('ref_axis',(-1.,0.,0.));
#1525=DIRECTION('center_axis',(0.,-1.,0.));
#1526=DIRECTION('ref_axis',(-1.,0.,0.));
#1527=DIRECTION('',(0.,-1.,0.));
#1528=DIRECTION('center_axis',(0.,-1.,0.));
#1529=DIRECTION('ref_axis',(-1.,0.,0.));
#1530=DIRECTION('center_axis',(0.,-1.,0.));
#1531=DIRECTION('ref_axis',(-1.,0.,0.));
#1532=DIRECTION('',(0.,-1.,0.));
#1533=DIRECTION('center_axis',(0.,-1.,0.));
#1534=DIRECTION('ref_axis',(-1.,0.,0.));
#1535=DIRECTION('center_axis',(0.,1.,0.));
#1536=DIRECTION('ref_axis',(-1.,0.,0.));
#1537=DIRECTION('center_axis',(0.,-1.,0.));
#1538=DIRECTION('ref_axis',(-1.,0.,0.));
#1539=DIRECTION('',(0.,-1.,0.));
#1540=DIRECTION('center_axis',(0.,1.,0.));
#1541=DIRECTION('ref_axis',(-0.707106786346347,0.,0.707106776026748));
#1542=DIRECTION('',(-2.01425695906599E-9,0.707106781186498,0.707106781186597));
#1543=DIRECTION('center_axis',(0.,-1.,0.));
#1544=DIRECTION('ref_axis',(0.,0.,1.));
#1545=DIRECTION('',(-0.707106781186498,0.707106781186597,8.89304554797097E-9));
#1546=DIRECTION('center_axis',(-0.707106781186598,-0.707106781186498,0.));
#1547=DIRECTION('ref_axis',(-0.707106781186498,0.707106781186598,0.));
#1548=DIRECTION('',(7.548398125404E-12,-7.548463916398E-12,-1.));
#1549=DIRECTION('',(-0.707106781186597,0.707106781186498,-2.01424021141299E-9));
#1550=DIRECTION('center_axis',(0.,1.,0.));
#1551=DIRECTION('ref_axis',(0.,0.,-1.));
#1552=DIRECTION('center_axis',(0.,-1.,0.));
#1553=DIRECTION('ref_axis',(-1.,0.,0.));
#1554=DIRECTION('',(-8.89305392179797E-9,0.707106781186597,-0.707106781186498));
#1555=DIRECTION('center_axis',(0.,-0.707106781186498,-0.707106781186598));
#1556=DIRECTION('ref_axis',(0.,0.707106781186598,-0.707106781186498));
#1557=DIRECTION('',(1.,-1.235224718423E-11,1.235203186825E-11));
#1558=DIRECTION('',(2.01424021141299E-9,0.707106781186498,-0.707106781186597));
#1559=DIRECTION('center_axis',(0.,1.,0.));
#1560=DIRECTION('ref_axis',(0.,0.,-1.));
#1561=DIRECTION('center_axis',(0.,-1.,0.));
#1562=DIRECTION('ref_axis',(0.,0.,-1.));
#1563=DIRECTION('',(0.707106781186498,0.707106781186597,-8.89303717414497E-9));
#1564=DIRECTION('center_axis',(0.707106781186598,-0.707106781186498,0.));
#1565=DIRECTION('ref_axis',(0.707106781186498,0.707106781186598,0.));
#1566=DIRECTION('',(0.707106781186548,0.707106781186548,0.));
#1567=DIRECTION('center_axis',(0.,0.,-1.));
#1568=DIRECTION('ref_axis',(0.,1.,0.));
#1569=DIRECTION('',(1.,0.,0.));
#1570=DIRECTION('',(0.,1.,0.));
#1571=DIRECTION('center_axis',(1.,0.,0.));
#1572=DIRECTION('ref_axis',(0.,0.,-1.));
#1573=DIRECTION('',(0.,0.,1.));
#1574=DIRECTION('',(0.,-1.,0.));
#1575=DIRECTION('center_axis',(0.,0.,1.));
#1576=DIRECTION('ref_axis',(0.,-1.,0.));
#1577=DIRECTION('',(1.,0.,0.));
#1578=DIRECTION('',(-0.707106781186598,-0.707106781186498,0.));
#1579=DIRECTION('center_axis',(0.707106781186498,-0.707106781186598,0.));
#1580=DIRECTION('ref_axis',(0.707106781186598,0.707106781186498,0.));
#1581=DIRECTION('',(0.707106781186597,0.707106781186498,2.01424021141299E-9));
#1582=DIRECTION('center_axis',(0.,1.,0.));
#1583=DIRECTION('ref_axis',(0.707106776026747,0.,0.707106786346348));
#1584=DIRECTION('center_axis',(0.,-1.,0.));
#1585=DIRECTION('ref_axis',(1.,0.,0.));
#1586=DIRECTION('',(8.89304554797097E-9,0.707106781186597,0.707106781186498));
#1587=DIRECTION('center_axis',(0.,-0.707106781186498,0.707106781186598));
#1588=DIRECTION('ref_axis',(0.,0.707106781186598,0.707106781186498));
#1589=DIRECTION('',(-1.,-1.235203186825E-11,-1.235203186825E-11));
#1590=DIRECTION('center_axis',(0.,0.,1.));
#1591=DIRECTION('ref_axis',(-1.,0.,0.));
#1592=DIRECTION('',(1.,-1.235203186825E-11,1.235213952624E-11));
#1593=DIRECTION('',(0.,1.,0.));
#1594=DIRECTION('',(0.,1.,0.));
#1595=DIRECTION('center_axis',(0.,0.707106781186498,0.707106781186598));
#1596=DIRECTION('ref_axis',(0.,-0.707106781186598,0.707106781186498));
#1597=DIRECTION('',(-2.01424021141299E-9,-0.707106781186498,0.707106781186597));
#1598=DIRECTION('',(8.89304554797097E-9,-0.707106781186498,0.707106781186597));
#1599=DIRECTION('center_axis',(0.,-1.,0.));
#1600=DIRECTION('ref_axis',(0.707106776026747,0.,0.707106786346348));
#1601=DIRECTION('center_axis',(0.,1.,0.));
#1602=DIRECTION('ref_axis',(0.,0.,1.));
#1603=DIRECTION('center_axis',(0.,1.,0.));
#1604=DIRECTION('ref_axis',(0.,0.,1.));
#1605=DIRECTION('center_axis',(0.,-1.,0.));
#1606=DIRECTION('ref_axis',(-0.707106786346347,0.,0.707106776026748));
#1607=DIRECTION('',(-0.707106781186498,-0.707106781186597,8.89304554797097E-9));
#1608=DIRECTION('center_axis',(0.,1.,0.));
#1609=DIRECTION('ref_axis',(-1.,0.,0.));
#1610=DIRECTION('center_axis',(0.,1.,0.));
#1611=DIRECTION('ref_axis',(-1.,0.,0.));
#1612=DIRECTION('',(0.,1.,0.));
#1613=DIRECTION('center_axis',(-1.,0.,0.));
#1614=DIRECTION('ref_axis',(0.,0.,-1.));
#1615=DIRECTION('',(-7.548463916398E-12,-7.548595498386E-12,1.));
#1616=DIRECTION('',(0.,1.,0.));
#1617=DIRECTION('center_axis',(-0.707106781186598,0.707106781186498,0.));
#1618=DIRECTION('ref_axis',(-0.707106781186498,-0.707106781186598,0.));
#1619=DIRECTION('',(-0.707106781186498,-0.707106781186597,-2.01424021141299E-9));
#1620=DIRECTION('center_axis',(0.,-1.,0.));
#1621=DIRECTION('ref_axis',(0.,0.,-1.));
#1622=DIRECTION('',(-8.89304554797097E-9,-0.707106781186498,-0.707106781186597));
#1623=DIRECTION('center_axis',(0.,1.,0.));
#1624=DIRECTION('ref_axis',(0.,0.,-1.));
#1625=DIRECTION('center_axis',(0.,1.,0.));
#1626=DIRECTION('ref_axis',(0.,0.,-1.));
#1627=DIRECTION('',(0.,1.,0.));
#1628=DIRECTION('center_axis',(0.,0.,-1.));
#1629=DIRECTION('ref_axis',(1.,0.,0.));
#1630=DIRECTION('',(-1.,-1.235203186825E-11,-1.235203186825E-11));
#1631=DIRECTION('',(0.,1.,0.));
#1632=DIRECTION('center_axis',(0.,0.707106781186498,-0.707106781186598));
#1633=DIRECTION('ref_axis',(0.,-0.707106781186598,-0.707106781186498));
#1634=DIRECTION('',(2.01424021141314E-9,-0.707106781186548,-0.707106781186548));
#1635=DIRECTION('center_axis',(0.,-1.,0.));
#1636=DIRECTION('ref_axis',(0.,0.,-1.));
#1637=DIRECTION('center_axis',(0.,1.,0.));
#1638=DIRECTION('ref_axis',(1.,0.,0.));
#1639=DIRECTION('center_axis',(0.,1.,0.));
#1640=DIRECTION('ref_axis',(1.,0.,0.));
#1641=DIRECTION('center_axis',(0.,1.,0.));
#1642=DIRECTION('ref_axis',(0.,0.,1.));
#1643=DIRECTION('center_axis',(0.,1.,0.));
#1644=DIRECTION('ref_axis',(-1.,0.,0.));
#1645=DIRECTION('center_axis',(0.,1.,0.));
#1646=DIRECTION('ref_axis',(-1.,0.,0.));
#1647=DIRECTION('center_axis',(0.,1.,0.));
#1648=DIRECTION('ref_axis',(-1.,0.,0.));
#1649=DIRECTION('center_axis',(0.,1.,0.));
#1650=DIRECTION('ref_axis',(-1.,0.,0.));
#1651=DIRECTION('',(0.,-1.,0.));
#1652=DIRECTION('center_axis',(0.,1.,0.));
#1653=DIRECTION('ref_axis',(-1.,0.,0.));
#1654=DIRECTION('center_axis',(0.,1.,0.));
#1655=DIRECTION('ref_axis',(-1.,0.,0.));
#1656=DIRECTION('center_axis',(0.,1.,0.));
#1657=DIRECTION('ref_axis',(-1.,0.,0.));
#1658=DIRECTION('center_axis',(0.,1.,0.));
#1659=DIRECTION('ref_axis',(-1.,0.,0.));
#1660=DIRECTION('center_axis',(0.,1.,0.));
#1661=DIRECTION('ref_axis',(-1.,0.,0.));
#1662=DIRECTION('',(0.,-1.,0.));
#1663=DIRECTION('center_axis',(0.,1.,0.));
#1664=DIRECTION('ref_axis',(-1.,0.,0.));
#1665=DIRECTION('center_axis',(0.,1.,0.));
#1666=DIRECTION('ref_axis',(-1.,0.,0.));
#1667=DIRECTION('center_axis',(0.,1.,0.));
#1668=DIRECTION('ref_axis',(-1.,0.,0.));
#1669=DIRECTION('center_axis',(0.,1.,0.));
#1670=DIRECTION('ref_axis',(-1.,0.,0.));
#1671=DIRECTION('center_axis',(0.,1.,0.));
#1672=DIRECTION('ref_axis',(-1.,0.,0.));
#1673=DIRECTION('',(0.,-1.,0.));
#1674=DIRECTION('center_axis',(0.,1.,0.));
#1675=DIRECTION('ref_axis',(-1.,0.,0.));
#1676=CARTESIAN_POINT('',(0.,0.,0.));
#1677=CARTESIAN_POINT('Origin',(10.14681600209,41.5,20.));
#1678=CARTESIAN_POINT('',(9.748924226216,41.5,20.));
#1679=CARTESIAN_POINT('',(10.5,42.75,20.));
#1680=CARTESIAN_POINT('',(10.14681600209,42.1622031187871,20.));
#1681=CARTESIAN_POINT('Origin',(10.5,41.5,20.));
#1682=CARTESIAN_POINT('Origin',(9.311370437526,41.5,20.));
#1683=CARTESIAN_POINT('',(18.25,42.75,20.));
#1684=CARTESIAN_POINT('',(9.311370437526,42.75,20.));
#1685=CARTESIAN_POINT('Origin',(18.25,41.5,20.));
#1686=CARTESIAN_POINT('Origin',(18.375,41.5,20.));
#1687=CARTESIAN_POINT('',(18.5,43.,20.));
#1688=CARTESIAN_POINT('',(18.375,42.875,20.));
#1689=CARTESIAN_POINT('Origin',(18.5,41.5,20.));
#1690=CARTESIAN_POINT('Origin',(18.5,37.5,-29.));
#1691=CARTESIAN_POINT('',(18.4999999986125,45.200000001058,26.9999999943933));
#1692=CARTESIAN_POINT('',(18.499999998755,45.200000001245,-26.9999999717007));
#1693=CARTESIAN_POINT('',(18.49999999778,45.20000000222,26.99999999359));
#1694=CARTESIAN_POINT('',(18.4999999985442,37.7999999986136,26.9999999935911));
#1695=CARTESIAN_POINT('',(18.49999999778,37.79999999778,26.99999999359));
#1696=CARTESIAN_POINT('',(18.5,37.8,5.));
#1697=CARTESIAN_POINT('',(18.5,37.8,5.));
#1698=CARTESIAN_POINT('',(18.5,41.5,5.));
#1699=CARTESIAN_POINT('',(18.5,37.8,5.));
#1700=CARTESIAN_POINT('',(18.5,41.5,-5.));
#1701=CARTESIAN_POINT('',(18.5,41.5,-5.));
#1702=CARTESIAN_POINT('',(18.5,37.8,-5.));
#1703=CARTESIAN_POINT('',(18.5,37.8,-5.));
#1704=CARTESIAN_POINT('',(18.499999998836,37.7999999990592,-26.9999999725858));
#1705=CARTESIAN_POINT('',(18.49999999819,37.79999999819,-26.9999999717));
#1706=CARTESIAN_POINT('',(18.49999999819,37.79999999819,-26.9999999717));
#1707=CARTESIAN_POINT('',(18.5,43.,-20.));
#1708=CARTESIAN_POINT('Origin',(18.5,41.5,-20.));
#1709=CARTESIAN_POINT('Origin',(18.375,41.5,-20.));
#1710=CARTESIAN_POINT('',(18.25,42.75,-20.));
#1711=CARTESIAN_POINT('Origin',(18.25,41.5,-20.));
#1712=CARTESIAN_POINT('',(18.375,42.875,-20.));
#1713=CARTESIAN_POINT('Origin',(9.311370437526,41.5,-20.));
#1714=CARTESIAN_POINT('',(10.5,42.75,-20.));
#1715=CARTESIAN_POINT('Origin',(10.5,41.5,-20.));
#1716=CARTESIAN_POINT('',(9.311370437526,42.75,-20.));
#1717=CARTESIAN_POINT('Origin',(10.14681600209,41.5,-20.));
#1718=CARTESIAN_POINT('',(9.748924226216,41.5,-20.));
#1719=CARTESIAN_POINT('',(10.14681600209,42.1622031187871,-20.));
#1720=CARTESIAN_POINT('Origin',(18.35,45.35,0.));
#1721=CARTESIAN_POINT('',(18.1999999987605,45.5000000012395,26.9999999941741));
#1722=CARTESIAN_POINT('',(18.1999999987479,45.5000000012521,-26.99999996793));
#1723=CARTESIAN_POINT('',(18.19999999749,45.50000000251,26.99999999274));
#1724=CARTESIAN_POINT('',(18.19999999749,45.50000000251,26.99999999274));
#1725=CARTESIAN_POINT('',(18.19999999795,45.50000000205,-26.99999996793));
#1726=CARTESIAN_POINT('Origin',(87.,45.5,0.));
#1727=CARTESIAN_POINT('',(16.499999969807,45.5000000010236,28.6999999989765));
#1728=CARTESIAN_POINT('Origin',(16.5,45.5,27.));
#1729=CARTESIAN_POINT('',(16.4999999941741,45.5000000012395,-28.6999999987605));
#1730=CARTESIAN_POINT('Origin',(16.5,45.5,-27.));
#1731=CARTESIAN_POINT('',(-16.49999996793,45.5000000012521,-28.6999999987479));
#1732=CARTESIAN_POINT('',(16.49999999274,45.50000000251,-28.69999999749));
#1733=CARTESIAN_POINT('',(-18.1999999987605,45.5000000012395,-26.9999999941741));
#1734=CARTESIAN_POINT('Origin',(-16.5,45.5,-27.));
#1735=CARTESIAN_POINT('',(-18.1999999987479,45.5000000012521,26.99999996793));
#1736=CARTESIAN_POINT('',(-18.19999999749,45.50000000251,-26.99999999274));
#1737=CARTESIAN_POINT('',(-16.4999999941741,45.5000000012395,28.6999999987605));
#1738=CARTESIAN_POINT('Origin',(-16.5,45.5,27.));
#1739=CARTESIAN_POINT('',(-16.49999999274,45.50000000251,28.69999999749));
#1740=CARTESIAN_POINT('',(-17.5,45.5,-2.14313189850787E-15));
#1741=CARTESIAN_POINT('Origin',(0.,45.5,0.));
#1742=CARTESIAN_POINT('Origin',(0.,45.5,0.));
#1743=CARTESIAN_POINT('',(-17.5,47.7,-2.14313189850787E-15));
#1744=CARTESIAN_POINT('',(-17.5,45.5,-2.14313189850787E-15));
#1745=CARTESIAN_POINT('',(-2.14313189850848E-15,47.700000000005,17.500000000005));
#1746=CARTESIAN_POINT('Origin',(0.,47.7,0.));
#1747=CARTESIAN_POINT('Origin',(0.,47.7,0.));
#1748=CARTESIAN_POINT('Origin',(0.,47.8500000002,0.));
#1749=CARTESIAN_POINT('',(-2.10639249453406E-15,48.000000000005,17.200000000005));
#1750=CARTESIAN_POINT('',(-2.12476219649739E-15,47.8500000002,17.34999999981));
#1751=CARTESIAN_POINT('Origin',(0.,48.,0.));
#1752=CARTESIAN_POINT('Origin',(0.,48.,0.));
#1753=CARTESIAN_POINT('',(-13.73,48.,0.));
#1754=CARTESIAN_POINT('Origin',(-12.23,48.,0.));
#1755=CARTESIAN_POINT('',(4.615,48.,-10.59149068828));
#1756=CARTESIAN_POINT('Origin',(6.115,48.,-10.59149068828));
#1757=CARTESIAN_POINT('',(4.615,48.,10.59149068828));
#1758=CARTESIAN_POINT('Origin',(6.115,48.,10.59149068828));
#1759=CARTESIAN_POINT('',(-10.19134295109,48.,6.75));
#1760=CARTESIAN_POINT('Origin',(-11.69134295109,48.,6.75));
#1761=CARTESIAN_POINT('',(1.5,48.,13.5));
#1762=CARTESIAN_POINT('Origin',(0.,48.,13.5));
#1763=CARTESIAN_POINT('',(13.19134295109,48.,6.75));
#1764=CARTESIAN_POINT('Origin',(11.69134295109,48.,6.75));
#1765=CARTESIAN_POINT('',(-10.19134295109,48.,-6.75));
#1766=CARTESIAN_POINT('Origin',(-11.69134295109,48.,-6.75));
#1767=CARTESIAN_POINT('',(1.5,48.,-13.5));
#1768=CARTESIAN_POINT('Origin',(0.,48.,-13.5));
#1769=CARTESIAN_POINT('',(13.19134295109,48.,-6.75));
#1770=CARTESIAN_POINT('Origin',(11.69134295109,48.,-6.75));
#1771=CARTESIAN_POINT('',(-4.75,48.,0.));
#1772=CARTESIAN_POINT('Origin',(0.,48.,0.));
#1773=CARTESIAN_POINT('Origin',(0.,48.,0.));
#1774=CARTESIAN_POINT('',(-4.75,50.9,0.));
#1775=CARTESIAN_POINT('',(-5.81707229595054E-16,50.9000000000005,4.7500000000005));
#1776=CARTESIAN_POINT('Origin',(0.,50.9,0.));
#1777=CARTESIAN_POINT('',(-4.75,48.,5.81707229594993E-16));
#1778=CARTESIAN_POINT('Origin',(0.,50.9,0.));
#1779=CARTESIAN_POINT('Origin',(0.,51.05000000162,0.));
#1780=CARTESIAN_POINT('',(-5.44967825620633E-16,51.2000000000005,4.4500000000005));
#1781=CARTESIAN_POINT('',(-5.63337527409512E-16,51.05000000162,4.599999998381));
#1782=CARTESIAN_POINT('Origin',(0.,51.2,0.));
#1783=CARTESIAN_POINT('Origin',(0.,51.2,0.));
#1784=CARTESIAN_POINT('Origin',(-12.23,48.,0.));
#1785=CARTESIAN_POINT('',(-13.73,43.,0.));
#1786=CARTESIAN_POINT('',(-13.73,48.,-1.83697019872103E-16));
#1787=CARTESIAN_POINT('Origin',(-12.23,43.,0.));
#1788=CARTESIAN_POINT('Origin',(-12.23,43.,0.));
#1789=CARTESIAN_POINT('Origin',(6.115,48.,-10.59149068828));
#1790=CARTESIAN_POINT('',(4.615,43.,-10.59149068828));
#1791=CARTESIAN_POINT('',(4.615,48.,-10.59149068828));
#1792=CARTESIAN_POINT('Origin',(6.115,43.,-10.59149068828));
#1793=CARTESIAN_POINT('Origin',(6.115,43.,-10.59149068828));
#1794=CARTESIAN_POINT('Origin',(6.115,48.,10.59149068828));
#1795=CARTESIAN_POINT('',(4.615,43.,10.59149068828));
#1796=CARTESIAN_POINT('',(4.615,48.,10.59149068828));
#1797=CARTESIAN_POINT('Origin',(6.115,43.,10.59149068828));
#1798=CARTESIAN_POINT('Origin',(6.115,43.,10.59149068828));
#1799=CARTESIAN_POINT('Origin',(-11.69134295109,57.28335547497,6.75));
#1800=CARTESIAN_POINT('',(-10.19134295109,45.,6.75));
#1801=CARTESIAN_POINT('',(-10.19134295109,57.28335547497,6.75));
#1802=CARTESIAN_POINT('Origin',(-11.69134295109,45.,6.75));
#1803=CARTESIAN_POINT('Origin',(-11.69134295109,45.,6.75));
#1804=CARTESIAN_POINT('',(-8.44134295109,45.,6.75));
#1805=CARTESIAN_POINT('Origin',(-11.69134295109,45.,6.75));
#1806=CARTESIAN_POINT('Origin',(-11.69134295109,57.28335547497,6.75));
#1807=CARTESIAN_POINT('',(-8.44134295109,37.5,6.75));
#1808=CARTESIAN_POINT('',(-8.44134295109,57.28335547497,6.75));
#1809=CARTESIAN_POINT('Origin',(-11.69134295109,37.5,6.75));
#1810=CARTESIAN_POINT('Origin',(0.,37.5,0.));
#1811=CARTESIAN_POINT('',(-16.4999999941741,37.4999999987595,28.6999999987595));
#1812=CARTESIAN_POINT('',(-18.1999999989755,37.4999999989755,26.999999969807));
#1813=CARTESIAN_POINT('Origin',(-16.5,37.5,27.));
#1814=CARTESIAN_POINT('',(-18.1999999984655,37.4999999984655,-26.99999999274));
#1815=CARTESIAN_POINT('',(-18.19999999795,37.49999999795,26.99999996793));
#1816=CARTESIAN_POINT('',(-16.499999969807,37.4999999989755,-28.6999999989755));
#1817=CARTESIAN_POINT('Origin',(-16.5,37.5,-27.));
#1818=CARTESIAN_POINT('',(16.49999999274,37.4999999984655,-28.6999999984655));
#1819=CARTESIAN_POINT('',(-16.49999996793,37.49999999795,-28.69999999795));
#1820=CARTESIAN_POINT('',(18.1999999989755,37.4999999989755,-26.999999969807));
#1821=CARTESIAN_POINT('Origin',(16.5,37.5,-27.));
#1822=CARTESIAN_POINT('',(18.2,37.5,-5.));
#1823=CARTESIAN_POINT('',(18.19999999795,37.49999999795,-26.99999996793));
#1824=CARTESIAN_POINT('',(22.5,37.5,-5.));
#1825=CARTESIAN_POINT('',(18.2,37.5,-5.));
#1826=CARTESIAN_POINT('',(22.5,37.5,5.));
#1827=CARTESIAN_POINT('',(22.5,37.5,5.));
#1828=CARTESIAN_POINT('',(18.2,37.5,5.));
#1829=CARTESIAN_POINT('',(22.5,37.5,5.));
#1830=CARTESIAN_POINT('',(18.1999999984658,37.4999999984658,26.99999999274));
#1831=CARTESIAN_POINT('',(18.2,37.5,5.));
#1832=CARTESIAN_POINT('',(16.499999969807,37.4999999989755,28.6999999989755));
#1833=CARTESIAN_POINT('Origin',(16.5,37.5,27.));
#1834=CARTESIAN_POINT('',(16.49999996793,37.49999999795,28.69999999795));
#1835=CARTESIAN_POINT('',(3.25,37.5,13.5));
#1836=CARTESIAN_POINT('Origin',(0.,37.5,13.5));
#1837=CARTESIAN_POINT('',(14.94134295109,37.5,6.75));
#1838=CARTESIAN_POINT('Origin',(11.69134295109,37.5,6.75));
#1839=CARTESIAN_POINT('',(-8.44134295109,37.5,-6.75));
#1840=CARTESIAN_POINT('Origin',(-11.69134295109,37.5,-6.75));
#1841=CARTESIAN_POINT('',(3.25,37.5,-13.5));
#1842=CARTESIAN_POINT('Origin',(0.,37.5,-13.5));
#1843=CARTESIAN_POINT('',(14.94134295109,37.5,-6.75));
#1844=CARTESIAN_POINT('Origin',(11.69134295109,37.5,-6.75));
#1845=CARTESIAN_POINT('Origin',(0.,57.28335547497,13.5));
#1846=CARTESIAN_POINT('',(3.25,45.,13.5));
#1847=CARTESIAN_POINT('Origin',(0.,45.,13.5));
#1848=CARTESIAN_POINT('',(3.25,57.28335547497,13.5));
#1849=CARTESIAN_POINT('Origin',(0.,45.,13.5));
#1850=CARTESIAN_POINT('',(1.5,45.,13.5));
#1851=CARTESIAN_POINT('Origin',(0.,45.,13.5));
#1852=CARTESIAN_POINT('Origin',(0.,57.28335547497,13.5));
#1853=CARTESIAN_POINT('',(1.5,57.28335547497,13.5));
#1854=CARTESIAN_POINT('Origin',(11.69134295109,57.28335547497,6.75));
#1855=CARTESIAN_POINT('',(14.94134295109,45.,6.75));
#1856=CARTESIAN_POINT('Origin',(11.69134295109,45.,6.75));
#1857=CARTESIAN_POINT('',(14.94134295109,57.28335547497,6.75));
#1858=CARTESIAN_POINT('Origin',(11.69134295109,45.,6.75));
#1859=CARTESIAN_POINT('',(13.19134295109,45.,6.75));
#1860=CARTESIAN_POINT('Origin',(11.69134295109,45.,6.75));
#1861=CARTESIAN_POINT('Origin',(11.69134295109,57.28335547497,6.75));
#1862=CARTESIAN_POINT('',(13.19134295109,57.28335547497,6.75));
#1863=CARTESIAN_POINT('Origin',(-11.69134295109,57.28335547497,-6.75));
#1864=CARTESIAN_POINT('',(-8.44134295109,45.,-6.75));
#1865=CARTESIAN_POINT('Origin',(-11.69134295109,45.,-6.75));
#1866=CARTESIAN_POINT('',(-8.44134295109,57.28335547497,-6.75));
#1867=CARTESIAN_POINT('Origin',(-11.69134295109,45.,-6.75));
#1868=CARTESIAN_POINT('',(-10.19134295109,45.,-6.75));
#1869=CARTESIAN_POINT('Origin',(-11.69134295109,45.,-6.75));
#1870=CARTESIAN_POINT('Origin',(-11.69134295109,57.28335547497,-6.75));
#1871=CARTESIAN_POINT('',(-10.19134295109,57.28335547497,-6.75));
#1872=CARTESIAN_POINT('Origin',(0.,57.28335547497,-13.5));
#1873=CARTESIAN_POINT('',(3.25,45.,-13.5));
#1874=CARTESIAN_POINT('Origin',(0.,45.,-13.5));
#1875=CARTESIAN_POINT('',(3.25,57.28335547497,-13.5));
#1876=CARTESIAN_POINT('Origin',(0.,45.,-13.5));
#1877=CARTESIAN_POINT('',(1.5,45.,-13.5));
#1878=CARTESIAN_POINT('Origin',(0.,45.,-13.5));
#1879=CARTESIAN_POINT('Origin',(0.,57.28335547497,-13.5));
#1880=CARTESIAN_POINT('',(1.5,57.28335547497,-13.5));
#1881=CARTESIAN_POINT('Origin',(11.69134295109,57.28335547497,-6.75));
#1882=CARTESIAN_POINT('',(14.94134295109,45.,-6.75));
#1883=CARTESIAN_POINT('Origin',(11.69134295109,45.,-6.75));
#1884=CARTESIAN_POINT('',(14.94134295109,57.28335547497,-6.75));
#1885=CARTESIAN_POINT('Origin',(11.69134295109,45.,-6.75));
#1886=CARTESIAN_POINT('',(13.19134295109,45.,-6.75));
#1887=CARTESIAN_POINT('Origin',(11.69134295109,45.,-6.75));
#1888=CARTESIAN_POINT('Origin',(11.69134295109,57.28335547497,-6.75));
#1889=CARTESIAN_POINT('',(13.19134295109,57.28335547497,-6.75));
#1890=CARTESIAN_POINT('Origin',(-16.5,37.64999999666,27.));
#1891=CARTESIAN_POINT('',(-16.4999999943933,37.7999999989431,28.9999999986133));
#1892=CARTESIAN_POINT('',(-16.49999999274,37.49999999749,28.69999999749));
#1893=CARTESIAN_POINT('',(-18.499999998836,37.7999999990592,26.9999999725858));
#1894=CARTESIAN_POINT('Origin',(-16.5,37.8,27.));
#1895=CARTESIAN_POINT('',(-18.19999999795,37.49999999795,26.99999996793));
#1896=CARTESIAN_POINT('Origin',(-18.35,37.65,0.));
#1897=CARTESIAN_POINT('',(-18.4999999985437,37.7999999986131,-26.9999999935911));
#1898=CARTESIAN_POINT('',(-18.49999999819,37.79999999819,26.9999999717));
#1899=CARTESIAN_POINT('',(-18.19999999749,37.49999999749,-26.99999999274));
#1900=CARTESIAN_POINT('Origin',(-16.5,37.64999999666,-27.));
#1901=CARTESIAN_POINT('',(-16.4999999725858,37.7999999990592,-28.999999998836));
#1902=CARTESIAN_POINT('Origin',(-16.5,37.8,-27.));
#1903=CARTESIAN_POINT('',(-16.49999996793,37.49999999795,-28.69999999795));
#1904=CARTESIAN_POINT('Origin',(0.,37.65,-28.85));
#1905=CARTESIAN_POINT('',(16.4999999935911,37.7999999986131,-28.9999999985437));
#1906=CARTESIAN_POINT('',(-16.4999999717,37.79999999819,-28.99999999819));
#1907=CARTESIAN_POINT('',(16.49999999274,37.49999999749,-28.69999999749));
#1908=CARTESIAN_POINT('Origin',(16.5,37.64999999666,-27.));
#1909=CARTESIAN_POINT('Origin',(16.5,37.8,-27.));
#1910=CARTESIAN_POINT('',(18.19999999795,37.49999999795,-26.99999996793));
#1911=CARTESIAN_POINT('Origin',(18.35,37.65,-16.));
#1912=CARTESIAN_POINT('',(18.2,37.5,-5.));
#1913=CARTESIAN_POINT('Origin',(18.5,37.5,-5.));
#1914=CARTESIAN_POINT('',(22.5,41.5,-5.));
#1915=CARTESIAN_POINT('',(18.5,41.5,-5.));
#1916=CARTESIAN_POINT('',(22.5,37.5,-5.));
#1917=CARTESIAN_POINT('Origin',(22.5,37.5,0.));
#1918=CARTESIAN_POINT('',(22.5,41.5,5.));
#1919=CARTESIAN_POINT('',(22.5,41.5,-5.));
#1920=CARTESIAN_POINT('',(22.5,41.5,5.));
#1921=CARTESIAN_POINT('Origin',(18.5,41.5,5.));
#1922=CARTESIAN_POINT('',(18.5,41.5,5.));
#1923=CARTESIAN_POINT('',(18.5,37.8,5.));
#1924=CARTESIAN_POINT('Origin',(18.35,37.65,16.));
#1925=CARTESIAN_POINT('',(18.19999999749,37.49999999749,26.99999999274));
#1926=CARTESIAN_POINT('Origin',(16.5,37.64999999666,27.));
#1927=CARTESIAN_POINT('',(16.4999999725858,37.7999999990592,28.999999998836));
#1928=CARTESIAN_POINT('Origin',(16.5,37.8,27.));
#1929=CARTESIAN_POINT('',(16.49999996793,37.49999999795,28.69999999795));
#1930=CARTESIAN_POINT('Origin',(0.,37.65,28.85));
#1931=CARTESIAN_POINT('',(16.4999999717,37.79999999819,28.99999999819));
#1932=CARTESIAN_POINT('Origin',(18.5,37.5,29.));
#1933=CARTESIAN_POINT('',(-16.4999999943932,45.200000001058,28.9999999986125));
#1934=CARTESIAN_POINT('',(16.4999999725858,45.2000000009419,28.9999999988352));
#1935=CARTESIAN_POINT('',(-16.49999999359,45.20000000222,28.99999999778));
#1936=CARTESIAN_POINT('',(-16.49999999359,37.79999999778,28.99999999778));
#1937=CARTESIAN_POINT('',(16.4999999717,37.79999999819,28.99999999819));
#1938=CARTESIAN_POINT('Origin',(0.,45.35,28.85));
#1939=CARTESIAN_POINT('',(-16.49999999274,45.50000000251,28.69999999749));
#1940=CARTESIAN_POINT('',(16.49999996793,45.50000000205,28.69999999795));
#1941=CARTESIAN_POINT('Origin',(16.5,45.35000000334,27.));
#1942=CARTESIAN_POINT('Origin',(16.5,45.2,27.));
#1943=CARTESIAN_POINT('Origin',(16.5,19.64068,27.));
#1944=CARTESIAN_POINT('Origin',(-16.5,45.35000000334,27.));
#1945=CARTESIAN_POINT('',(-18.499999998755,45.200000001245,26.9999999717007));
#1946=CARTESIAN_POINT('',(-18.19999999795,45.50000000205,26.99999996793));
#1947=CARTESIAN_POINT('Origin',(-16.5,45.2,27.));
#1948=CARTESIAN_POINT('Origin',(-16.5,19.64068,27.));
#1949=CARTESIAN_POINT('',(-18.49999999819,37.79999999819,26.9999999717));
#1950=CARTESIAN_POINT('Origin',(-18.5,37.5,29.));
#1951=CARTESIAN_POINT('',(-18.4999999986125,45.200000001058,-26.9999999943933));
#1952=CARTESIAN_POINT('',(-18.49999999778,45.20000000222,-26.99999999359));
#1953=CARTESIAN_POINT('',(-18.49999999778,37.79999999778,-26.99999999359));
#1954=CARTESIAN_POINT('Origin',(-18.35,45.35,0.));
#1955=CARTESIAN_POINT('',(-18.19999999749,45.50000000251,-26.99999999274));
#1956=CARTESIAN_POINT('Origin',(-16.5,45.35000000334,-27.));
#1957=CARTESIAN_POINT('',(-16.4999999717007,45.200000001245,-28.999999998755));
#1958=CARTESIAN_POINT('',(-16.49999996793,45.50000000205,-28.69999999795));
#1959=CARTESIAN_POINT('Origin',(-16.5,45.2,-27.));
#1960=CARTESIAN_POINT('Origin',(-16.5,19.64068,-27.));
#1961=CARTESIAN_POINT('',(-16.4999999717,37.79999999819,-28.99999999819));
#1962=CARTESIAN_POINT('Origin',(-18.5,37.5,-29.));
#1963=CARTESIAN_POINT('',(16.4999999943932,45.200000001058,-28.9999999986125));
#1964=CARTESIAN_POINT('',(16.49999999359,45.20000000222,-28.99999999778));
#1965=CARTESIAN_POINT('',(16.49999999359,37.79999999778,-28.99999999778));
#1966=CARTESIAN_POINT('Origin',(0.,45.35,-28.85));
#1967=CARTESIAN_POINT('',(16.49999999274,45.50000000251,-28.69999999749));
#1968=CARTESIAN_POINT('Origin',(16.5,45.35000000334,-27.));
#1969=CARTESIAN_POINT('Origin',(16.5,45.2,-27.));
#1970=CARTESIAN_POINT('Origin',(16.5,19.64068,-27.));
#1971=CARTESIAN_POINT('Origin',(18.5,41.5,-5.));
#1972=CARTESIAN_POINT('Origin',(0.,43.,0.));
#1973=CARTESIAN_POINT('',(-10.73,43.,-1.83697019872103E-16));
#1974=CARTESIAN_POINT('Origin',(-12.23,43.,0.));
#1975=CARTESIAN_POINT('Origin',(-12.23,43.,0.));
#1976=CARTESIAN_POINT('',(-10.73,51.,-1.83697019872103E-16));
#1977=CARTESIAN_POINT('Origin',(-12.23,51.,0.));
#1978=CARTESIAN_POINT('',(-10.73,43.,-1.83697019872103E-16));
#1979=CARTESIAN_POINT('Origin',(0.,51.,0.));
#1980=CARTESIAN_POINT('Origin',(0.,43.,0.));
#1981=CARTESIAN_POINT('',(7.615,43.,-10.59149068828));
#1982=CARTESIAN_POINT('Origin',(6.115,43.,-10.59149068828));
#1983=CARTESIAN_POINT('Origin',(6.115,43.,-10.59149068828));
#1984=CARTESIAN_POINT('',(7.615,51.,-10.59149068828));
#1985=CARTESIAN_POINT('Origin',(6.115,51.,-10.59149068828));
#1986=CARTESIAN_POINT('',(7.615,43.,-10.59149068828));
#1987=CARTESIAN_POINT('Origin',(0.,51.,0.));
#1988=CARTESIAN_POINT('Origin',(0.,43.,0.));
#1989=CARTESIAN_POINT('',(7.615,43.,10.59149068828));
#1990=CARTESIAN_POINT('Origin',(6.115,43.,10.59149068828));
#1991=CARTESIAN_POINT('Origin',(6.115,43.,10.59149068828));
#1992=CARTESIAN_POINT('',(7.615,51.,10.59149068828));
#1993=CARTESIAN_POINT('Origin',(6.115,51.,10.59149068828));
#1994=CARTESIAN_POINT('',(7.615,43.,10.59149068828));
#1995=CARTESIAN_POINT('Origin',(0.,51.,0.));
#1996=UNCERTAINTY_MEASURE_WITH_UNIT(LENGTH_MEASURE(0.01),#2000,
'DISTANCE_ACCURACY_VALUE',
'Maximum model space distance between geometric entities at asserted c
onnectivities');
#1997=UNCERTAINTY_MEASURE_WITH_UNIT(LENGTH_MEASURE(0.01),#2000,
'DISTANCE_ACCURACY_VALUE',
'Maximum model space distance between geometric entities at asserted c
onnectivities');
#1998=(
GEOMETRIC_REPRESENTATION_CONTEXT(3)
GLOBAL_UNCERTAINTY_ASSIGNED_CONTEXT((#1996))
GLOBAL_UNIT_ASSIGNED_CONTEXT((#2000,#2002,#2003))
REPRESENTATION_CONTEXT('','3D')
);
#1999=(
GEOMETRIC_REPRESENTATION_CONTEXT(3)
GLOBAL_UNCERTAINTY_ASSIGNED_CONTEXT((#1997))
GLOBAL_UNIT_ASSIGNED_CONTEXT((#2000,#2002,#2003))
REPRESENTATION_CONTEXT('','3D')
);
#2000=(
LENGTH_UNIT()
NAMED_UNIT(*)
SI_UNIT(.MILLI.,.METRE.)
);
#2001=(
LENGTH_UNIT()
NAMED_UNIT(*)
SI_UNIT($,.METRE.)
);
#2002=(
NAMED_UNIT(*)
PLANE_ANGLE_UNIT()
SI_UNIT($,.RADIAN.)
);
#2003=(
NAMED_UNIT(*)
SI_UNIT($,.STERADIAN.)
SOLID_ANGLE_UNIT()
);
#2004=SHAPE_DEFINITION_REPRESENTATION(#2005,#2006);
#2005=PRODUCT_DEFINITION_SHAPE('',$,#2008);
#2006=SHAPE_REPRESENTATION('',(#1164),#1998);
#2007=PRODUCT_DEFINITION_CONTEXT('part definition',#2012,'design');
#2008=PRODUCT_DEFINITION('2026-07-07-17-46-08-445','2-RSM6-RORATOR-1',#2009,
#2007);
#2009=PRODUCT_DEFINITION_FORMATION('',$,#2014);
#2010=PRODUCT_RELATED_PRODUCT_CATEGORY('2-RSM6-RORATOR-1',
'2-RSM6-RORATOR-1',(#2014));
#2011=APPLICATION_PROTOCOL_DEFINITION('international standard',
'automotive_design',2009,#2012);
#2012=APPLICATION_CONTEXT(
'Core Data for Automotive Mechanical Design Process');
#2013=PRODUCT_CONTEXT('part definition',#2012,'mechanical');
#2014=PRODUCT('2026-07-07-17-46-08-445','2-RSM6-RORATOR-1',
'NOT SPECIFIED',(#2013));
#2015=PRESENTATION_STYLE_ASSIGNMENT((#2016));
#2016=SURFACE_STYLE_USAGE(.BOTH.,#2017);
#2017=SURFACE_SIDE_STYLE('',(#2018));
#2018=SURFACE_STYLE_FILL_AREA(#2019);
#2019=FILL_AREA_STYLE('\X2\94A2\X0\ - \X2\7F0E5149\X0\',(#2020));
#2020=FILL_AREA_STYLE_COLOUR('\X2\94A2\X0\ - \X2\7F0E5149\X0\',#2021);
#2021=COLOUR_RGB('\X2\94A2\X0\ - \X2\7F0E5149\X0\',0.627450980392157,0.627450980392157,
0.627450980392157);
ENDSEC;
END-ISO-10303-21;
