ISO-10303-21;
HEADER;
/* Generated by software containing ST-Developer
 * from STEP Tools, Inc. (www.steptools.com) 
 */

FILE_DESCRIPTION(
/* description */ ('NOT SPECIFIED'),
/* implementation_level */ '2;1');

FILE_NAME(
/* name */ '2-RSM5-STATOR.step',
/* time_stamp */ '2026-07-07T17:45:23+08:00',
/* author */ (''),
/* organization */ (''),
/* preprocessor_version */ 'ST-DEVELOPER v20.1',
/* originating_system */ 'Autodesk Translation Framework v15.8.0.0',
/* authorisation */ '');

FILE_SCHEMA (('AUTOMOTIVE_DESIGN { 1 0 10303 214 3 1 1 }'));
ENDSEC;

DATA;
#10=MECHANICAL_DESIGN_GEOMETRIC_PRESENTATION_REPRESENTATION('',(#13),#2277);
#11=SHAPE_REPRESENTATION_RELATIONSHIP('SRR','None',#2284,#12);
#12=ADVANCED_BREP_SHAPE_REPRESENTATION('',(#14),#2276);
#13=STYLED_ITEM('',(#2293),#14);
#14=MANIFOLD_SOLID_BREP('\X2\5B9E4F53\X0\1',#1331);
#15=CONICAL_SURFACE('',#1376,10.99999999643,0.785398163397448);
#16=CONICAL_SURFACE('',#1379,10.99999999643,0.785398163397448);
#17=CONICAL_SURFACE('',#1382,10.99999999643,0.785398163397448);
#18=CONICAL_SURFACE('',#1385,10.99999999643,0.785398163397448);
#19=CONICAL_SURFACE('',#1400,10.99999999768,0.785398163397448);
#20=CONICAL_SURFACE('',#1402,10.99999999768,0.785398163397448);
#21=CONICAL_SURFACE('',#1404,10.99999999768,0.785398163397448);
#22=CONICAL_SURFACE('',#1406,10.99999999768,0.785398163397448);
#23=CONICAL_SURFACE('',#1412,1.43,0.785398163397448);
#24=CONICAL_SURFACE('',#1418,0.7228680564103,1.02974425867665);
#25=CONICAL_SURFACE('',#1419,1.43,0.785398163397448);
#26=CONICAL_SURFACE('',#1425,0.7228680564103,1.02974425867665);
#27=CONICAL_SURFACE('',#1430,1.43,0.785398163397448);
#28=CONICAL_SURFACE('',#1434,0.7228680564103,1.02974425867665);
#29=CONICAL_SURFACE('',#1435,1.43,0.785398163397448);
#30=CONICAL_SURFACE('',#1439,0.7228680564103,1.02974425867665);
#31=CONICAL_SURFACE('',#1452,2.3,0.785398163397448);
#32=CONICAL_SURFACE('',#1459,2.3,0.785398163397448);
#33=CONICAL_SURFACE('',#1466,2.3,0.785398163397448);
#34=CONICAL_SURFACE('',#1473,2.3,0.785398163397448);
#35=CONICAL_SURFACE('',#1480,2.3,0.785398163397448);
#36=CONICAL_SURFACE('',#1487,2.3,0.785398163397448);
#37=CYLINDRICAL_SURFACE('',#1358,18.5);
#38=CYLINDRICAL_SURFACE('',#1368,29.);
#39=CYLINDRICAL_SURFACE('',#1389,10.);
#40=CYLINDRICAL_SURFACE('',#1392,10.);
#41=CYLINDRICAL_SURFACE('',#1395,10.);
#42=CYLINDRICAL_SURFACE('',#1398,10.);
#43=CYLINDRICAL_SURFACE('',#1415,1.3);
#44=CYLINDRICAL_SURFACE('',#1422,1.3);
#45=CYLINDRICAL_SURFACE('',#1426,33.25);
#46=CYLINDRICAL_SURFACE('',#1432,1.3);
#47=CYLINDRICAL_SURFACE('',#1437,1.3);
#48=CYLINDRICAL_SURFACE('',#1450,1.6);
#49=CYLINDRICAL_SURFACE('',#1456,3.25);
#50=CYLINDRICAL_SURFACE('',#1457,1.6);
#51=CYLINDRICAL_SURFACE('',#1463,3.25);
#52=CYLINDRICAL_SURFACE('',#1464,1.6);
#53=CYLINDRICAL_SURFACE('',#1470,3.25);
#54=CYLINDRICAL_SURFACE('',#1471,1.6);
#55=CYLINDRICAL_SURFACE('',#1477,3.25);
#56=CYLINDRICAL_SURFACE('',#1478,1.6);
#57=CYLINDRICAL_SURFACE('',#1484,3.25);
#58=CYLINDRICAL_SURFACE('',#1485,1.6);
#59=CYLINDRICAL_SURFACE('',#1491,3.25);
#60=FACE_BOUND('',#167,.T.);
#61=FACE_BOUND('',#168,.T.);
#62=FACE_BOUND('',#169,.T.);
#63=FACE_BOUND('',#170,.T.);
#64=FACE_BOUND('',#171,.T.);
#65=FACE_BOUND('',#172,.T.);
#66=FACE_BOUND('',#173,.T.);
#67=FACE_BOUND('',#174,.T.);
#68=FACE_BOUND('',#177,.T.);
#69=FACE_BOUND('',#178,.T.);
#70=FACE_BOUND('',#179,.T.);
#71=FACE_BOUND('',#180,.T.);
#72=FACE_BOUND('',#181,.T.);
#73=FACE_BOUND('',#182,.T.);
#74=FACE_BOUND('',#183,.T.);
#75=FACE_BOUND('',#186,.T.);
#76=FACE_BOUND('',#187,.T.);
#77=FACE_BOUND('',#214,.T.);
#78=FACE_BOUND('',#215,.T.);
#79=FACE_BOUND('',#224,.T.);
#80=FACE_BOUND('',#225,.T.);
#81=FACE_BOUND('',#245,.T.);
#82=FACE_BOUND('',#250,.T.);
#83=FACE_BOUND('',#255,.T.);
#84=FACE_BOUND('',#260,.T.);
#85=FACE_BOUND('',#265,.T.);
#86=FACE_BOUND('',#270,.T.);
#87=FACE_OUTER_BOUND('',#166,.T.);
#88=FACE_OUTER_BOUND('',#175,.T.);
#89=FACE_OUTER_BOUND('',#176,.T.);
#90=FACE_OUTER_BOUND('',#184,.T.);
#91=FACE_OUTER_BOUND('',#185,.T.);
#92=FACE_OUTER_BOUND('',#188,.T.);
#93=FACE_OUTER_BOUND('',#189,.T.);
#94=FACE_OUTER_BOUND('',#190,.T.);
#95=FACE_OUTER_BOUND('',#191,.T.);
#96=FACE_OUTER_BOUND('',#192,.T.);
#97=FACE_OUTER_BOUND('',#193,.T.);
#98=FACE_OUTER_BOUND('',#194,.T.);
#99=FACE_OUTER_BOUND('',#195,.T.);
#100=FACE_OUTER_BOUND('',#196,.T.);
#101=FACE_OUTER_BOUND('',#197,.T.);
#102=FACE_OUTER_BOUND('',#198,.T.);
#103=FACE_OUTER_BOUND('',#199,.T.);
#104=FACE_OUTER_BOUND('',#200,.T.);
#105=FACE_OUTER_BOUND('',#201,.T.);
#106=FACE_OUTER_BOUND('',#202,.T.);
#107=FACE_OUTER_BOUND('',#203,.T.);
#108=FACE_OUTER_BOUND('',#204,.T.);
#109=FACE_OUTER_BOUND('',#205,.T.);
#110=FACE_OUTER_BOUND('',#206,.T.);
#111=FACE_OUTER_BOUND('',#207,.T.);
#112=FACE_OUTER_BOUND('',#208,.T.);
#113=FACE_OUTER_BOUND('',#209,.T.);
#114=FACE_OUTER_BOUND('',#210,.T.);
#115=FACE_OUTER_BOUND('',#211,.T.);
#116=FACE_OUTER_BOUND('',#212,.T.);
#117=FACE_OUTER_BOUND('',#213,.T.);
#118=FACE_OUTER_BOUND('',#216,.T.);
#119=FACE_OUTER_BOUND('',#217,.T.);
#120=FACE_OUTER_BOUND('',#218,.T.);
#121=FACE_OUTER_BOUND('',#219,.T.);
#122=FACE_OUTER_BOUND('',#220,.T.);
#123=FACE_OUTER_BOUND('',#221,.T.);
#124=FACE_OUTER_BOUND('',#222,.T.);
#125=FACE_OUTER_BOUND('',#223,.T.);
#126=FACE_OUTER_BOUND('',#226,.T.);
#127=FACE_OUTER_BOUND('',#227,.T.);
#128=FACE_OUTER_BOUND('',#228,.T.);
#129=FACE_OUTER_BOUND('',#229,.T.);
#130=FACE_OUTER_BOUND('',#230,.T.);
#131=FACE_OUTER_BOUND('',#231,.T.);
#132=FACE_OUTER_BOUND('',#232,.T.);
#133=FACE_OUTER_BOUND('',#233,.T.);
#134=FACE_OUTER_BOUND('',#234,.T.);
#135=FACE_OUTER_BOUND('',#235,.T.);
#136=FACE_OUTER_BOUND('',#236,.T.);
#137=FACE_OUTER_BOUND('',#237,.T.);
#138=FACE_OUTER_BOUND('',#238,.T.);
#139=FACE_OUTER_BOUND('',#239,.T.);
#140=FACE_OUTER_BOUND('',#240,.T.);
#141=FACE_OUTER_BOUND('',#241,.T.);
#142=FACE_OUTER_BOUND('',#242,.T.);
#143=FACE_OUTER_BOUND('',#243,.T.);
#144=FACE_OUTER_BOUND('',#244,.T.);
#145=FACE_OUTER_BOUND('',#246,.T.);
#146=FACE_OUTER_BOUND('',#247,.T.);
#147=FACE_OUTER_BOUND('',#248,.T.);
#148=FACE_OUTER_BOUND('',#249,.T.);
#149=FACE_OUTER_BOUND('',#251,.T.);
#150=FACE_OUTER_BOUND('',#252,.T.);
#151=FACE_OUTER_BOUND('',#253,.T.);
#152=FACE_OUTER_BOUND('',#254,.T.);
#153=FACE_OUTER_BOUND('',#256,.T.);
#154=FACE_OUTER_BOUND('',#257,.T.);
#155=FACE_OUTER_BOUND('',#258,.T.);
#156=FACE_OUTER_BOUND('',#259,.T.);
#157=FACE_OUTER_BOUND('',#261,.T.);
#158=FACE_OUTER_BOUND('',#262,.T.);
#159=FACE_OUTER_BOUND('',#263,.T.);
#160=FACE_OUTER_BOUND('',#264,.T.);
#161=FACE_OUTER_BOUND('',#266,.T.);
#162=FACE_OUTER_BOUND('',#267,.T.);
#163=FACE_OUTER_BOUND('',#268,.T.);
#164=FACE_OUTER_BOUND('',#269,.T.);
#165=FACE_OUTER_BOUND('',#271,.T.);
#166=EDGE_LOOP('',(#858,#859,#860,#861,#862,#863,#864,#865,#866,#867,#868,
#869));
#167=EDGE_LOOP('',(#870));
#168=EDGE_LOOP('',(#871));
#169=EDGE_LOOP('',(#872));
#170=EDGE_LOOP('',(#873));
#171=EDGE_LOOP('',(#874));
#172=EDGE_LOOP('',(#875));
#173=EDGE_LOOP('',(#876,#877,#878,#879,#880,#881,#882,#883));
#174=EDGE_LOOP('',(#884));
#175=EDGE_LOOP('',(#885,#886,#887,#888));
#176=EDGE_LOOP('',(#889));
#177=EDGE_LOOP('',(#890));
#178=EDGE_LOOP('',(#891));
#179=EDGE_LOOP('',(#892));
#180=EDGE_LOOP('',(#893));
#181=EDGE_LOOP('',(#894));
#182=EDGE_LOOP('',(#895));
#183=EDGE_LOOP('',(#896));
#184=EDGE_LOOP('',(#897,#898,#899,#900));
#185=EDGE_LOOP('',(#901,#902,#903,#904));
#186=EDGE_LOOP('',(#905,#906,#907,#908,#909,#910,#911,#912));
#187=EDGE_LOOP('',(#913));
#188=EDGE_LOOP('',(#914,#915,#916,#917));
#189=EDGE_LOOP('',(#918,#919,#920,#921));
#190=EDGE_LOOP('',(#922,#923,#924,#925));
#191=EDGE_LOOP('',(#926,#927,#928,#929));
#192=EDGE_LOOP('',(#930,#931,#932,#933));
#193=EDGE_LOOP('',(#934,#935,#936,#937));
#194=EDGE_LOOP('',(#938,#939,#940,#941));
#195=EDGE_LOOP('',(#942,#943,#944,#945));
#196=EDGE_LOOP('',(#946,#947,#948,#949));
#197=EDGE_LOOP('',(#950,#951,#952,#953));
#198=EDGE_LOOP('',(#954,#955,#956,#957));
#199=EDGE_LOOP('',(#958,#959,#960,#961));
#200=EDGE_LOOP('',(#962,#963,#964,#965));
#201=EDGE_LOOP('',(#966,#967,#968,#969));
#202=EDGE_LOOP('',(#970,#971,#972,#973));
#203=EDGE_LOOP('',(#974,#975,#976,#977));
#204=EDGE_LOOP('',(#978,#979,#980,#981));
#205=EDGE_LOOP('',(#982,#983,#984,#985));
#206=EDGE_LOOP('',(#986,#987,#988,#989));
#207=EDGE_LOOP('',(#990,#991,#992,#993));
#208=EDGE_LOOP('',(#994,#995,#996,#997));
#209=EDGE_LOOP('',(#998,#999,#1000,#1001));
#210=EDGE_LOOP('',(#1002,#1003,#1004,#1005));
#211=EDGE_LOOP('',(#1006,#1007,#1008,#1009));
#212=EDGE_LOOP('',(#1010,#1011,#1012,#1013));
#213=EDGE_LOOP('',(#1014,#1015,#1016,#1017,#1018,#1019,#1020,#1021,#1022,
#1023));
#214=EDGE_LOOP('',(#1024));
#215=EDGE_LOOP('',(#1025));
#216=EDGE_LOOP('',(#1026,#1027,#1028,#1029,#1030));
#217=EDGE_LOOP('',(#1031,#1032,#1033,#1034,#1035,#1036));
#218=EDGE_LOOP('',(#1037,#1038,#1039,#1040));
#219=EDGE_LOOP('',(#1041,#1042,#1043,#1044,#1045));
#220=EDGE_LOOP('',(#1046,#1047,#1048,#1049,#1050,#1051));
#221=EDGE_LOOP('',(#1052,#1053,#1054,#1055));
#222=EDGE_LOOP('',(#1056,#1057,#1058,#1059));
#223=EDGE_LOOP('',(#1060,#1061,#1062,#1063,#1064,#1065,#1066,#1067,#1068,
#1069));
#224=EDGE_LOOP('',(#1070));
#225=EDGE_LOOP('',(#1071));
#226=EDGE_LOOP('',(#1072,#1073,#1074,#1075));
#227=EDGE_LOOP('',(#1076,#1077,#1078,#1079));
#228=EDGE_LOOP('',(#1080,#1081,#1082));
#229=EDGE_LOOP('',(#1083,#1084,#1085,#1086));
#230=EDGE_LOOP('',(#1087,#1088,#1089,#1090));
#231=EDGE_LOOP('',(#1091,#1092,#1093));
#232=EDGE_LOOP('',(#1094,#1095,#1096,#1097));
#233=EDGE_LOOP('',(#1098,#1099,#1100,#1101));
#234=EDGE_LOOP('',(#1102,#1103,#1104,#1105));
#235=EDGE_LOOP('',(#1106,#1107,#1108,#1109));
#236=EDGE_LOOP('',(#1110,#1111,#1112,#1113));
#237=EDGE_LOOP('',(#1114,#1115,#1116,#1117));
#238=EDGE_LOOP('',(#1118,#1119,#1120,#1121));
#239=EDGE_LOOP('',(#1122,#1123,#1124,#1125));
#240=EDGE_LOOP('',(#1126,#1127,#1128,#1129));
#241=EDGE_LOOP('',(#1130,#1131,#1132,#1133));
#242=EDGE_LOOP('',(#1134,#1135,#1136,#1137));
#243=EDGE_LOOP('',(#1138,#1139,#1140,#1141));
#244=EDGE_LOOP('',(#1142));
#245=EDGE_LOOP('',(#1143));
#246=EDGE_LOOP('',(#1144,#1145,#1146,#1147));
#247=EDGE_LOOP('',(#1148,#1149,#1150,#1151));
#248=EDGE_LOOP('',(#1152,#1153,#1154,#1155));
#249=EDGE_LOOP('',(#1156));
#250=EDGE_LOOP('',(#1157));
#251=EDGE_LOOP('',(#1158,#1159,#1160,#1161));
#252=EDGE_LOOP('',(#1162,#1163,#1164,#1165));
#253=EDGE_LOOP('',(#1166,#1167,#1168,#1169));
#254=EDGE_LOOP('',(#1170));
#255=EDGE_LOOP('',(#1171));
#256=EDGE_LOOP('',(#1172,#1173,#1174,#1175));
#257=EDGE_LOOP('',(#1176,#1177,#1178,#1179));
#258=EDGE_LOOP('',(#1180,#1181,#1182,#1183));
#259=EDGE_LOOP('',(#1184));
#260=EDGE_LOOP('',(#1185));
#261=EDGE_LOOP('',(#1186,#1187,#1188,#1189));
#262=EDGE_LOOP('',(#1190,#1191,#1192,#1193));
#263=EDGE_LOOP('',(#1194,#1195,#1196,#1197));
#264=EDGE_LOOP('',(#1198));
#265=EDGE_LOOP('',(#1199));
#266=EDGE_LOOP('',(#1200,#1201,#1202,#1203));
#267=EDGE_LOOP('',(#1204,#1205,#1206,#1207));
#268=EDGE_LOOP('',(#1208,#1209,#1210,#1211));
#269=EDGE_LOOP('',(#1212));
#270=EDGE_LOOP('',(#1213));
#271=EDGE_LOOP('',(#1214,#1215,#1216,#1217));
#272=CIRCLE('',#1346,33.25);
#273=CIRCLE('',#1347,3.25);
#274=CIRCLE('',#1348,3.25);
#275=CIRCLE('',#1349,3.25);
#276=CIRCLE('',#1350,3.25);
#277=CIRCLE('',#1351,3.25);
#278=CIRCLE('',#1352,3.25);
#279=CIRCLE('',#1353,12.);
#280=CIRCLE('',#1354,12.);
#281=CIRCLE('',#1355,12.);
#282=CIRCLE('',#1356,12.);
#283=CIRCLE('',#1357,18.5);
#284=CIRCLE('',#1359,18.5);
#285=CIRCLE('',#1361,29.);
#286=CIRCLE('',#1362,1.6);
#287=CIRCLE('',#1363,1.6);
#288=CIRCLE('',#1364,1.6);
#289=CIRCLE('',#1365,1.6);
#290=CIRCLE('',#1366,1.6);
#291=CIRCLE('',#1367,1.6);
#292=CIRCLE('',#1369,29.);
#293=CIRCLE('',#1371,33.25);
#294=CIRCLE('',#1372,12.);
#295=CIRCLE('',#1373,12.);
#296=CIRCLE('',#1374,12.);
#297=CIRCLE('',#1375,12.);
#298=CIRCLE('',#1377,10.);
#299=CIRCLE('',#1380,10.);
#300=CIRCLE('',#1383,10.);
#301=CIRCLE('',#1386,10.);
#302=CIRCLE('',#1390,10.);
#303=CIRCLE('',#1393,10.);
#304=CIRCLE('',#1396,10.);
#305=CIRCLE('',#1399,10.);
#306=CIRCLE('',#1410,1.56);
#307=CIRCLE('',#1411,1.56);
#308=CIRCLE('',#1413,1.3);
#309=CIRCLE('',#1414,1.3);
#310=CIRCLE('',#1416,1.3);
#311=CIRCLE('',#1417,1.3);
#312=CIRCLE('',#1420,1.3);
#313=CIRCLE('',#1421,1.3);
#314=CIRCLE('',#1423,1.3);
#315=CIRCLE('',#1424,1.3);
#316=CIRCLE('',#1428,1.56);
#317=CIRCLE('',#1429,1.56);
#318=CIRCLE('',#1431,1.3);
#319=CIRCLE('',#1433,1.3);
#320=CIRCLE('',#1436,1.3);
#321=CIRCLE('',#1438,1.3);
#322=CIRCLE('',#1451,1.6);
#323=CIRCLE('',#1453,3.);
#324=CIRCLE('',#1455,3.25);
#325=CIRCLE('',#1458,1.6);
#326=CIRCLE('',#1460,3.);
#327=CIRCLE('',#1462,3.25);
#328=CIRCLE('',#1465,1.6);
#329=CIRCLE('',#1467,3.);
#330=CIRCLE('',#1469,3.25);
#331=CIRCLE('',#1472,1.6);
#332=CIRCLE('',#1474,3.);
#333=CIRCLE('',#1476,3.25);
#334=CIRCLE('',#1479,1.6);
#335=CIRCLE('',#1481,3.);
#336=CIRCLE('',#1483,3.25);
#337=CIRCLE('',#1486,1.6);
#338=CIRCLE('',#1488,3.);
#339=CIRCLE('',#1490,3.25);
#340=LINE('',#1904,#452);
#341=LINE('',#1906,#453);
#342=LINE('',#1908,#454);
#343=LINE('',#1910,#455);
#344=LINE('',#1912,#456);
#345=LINE('',#1914,#457);
#346=LINE('',#1918,#458);
#347=LINE('',#1920,#459);
#348=LINE('',#1922,#460);
#349=LINE('',#1924,#461);
#350=LINE('',#1925,#462);
#351=LINE('',#1940,#463);
#352=LINE('',#1944,#464);
#353=LINE('',#1948,#465);
#354=LINE('',#1952,#466);
#355=LINE('',#1958,#467);
#356=LINE('',#1978,#468);
#357=LINE('',#1982,#469);
#358=LINE('',#1984,#470);
#359=LINE('',#1987,#471);
#360=LINE('',#1992,#472);
#361=LINE('',#1996,#473);
#362=LINE('',#2000,#474);
#363=LINE('',#2003,#475);
#364=LINE('',#2006,#476);
#365=LINE('',#2009,#477);
#366=LINE('',#2012,#478);
#367=LINE('',#2013,#479);
#368=LINE('',#2017,#480);
#369=LINE('',#2020,#481);
#370=LINE('',#2021,#482);
#371=LINE('',#2025,#483);
#372=LINE('',#2028,#484);
#373=LINE('',#2029,#485);
#374=LINE('',#2033,#486);
#375=LINE('',#2035,#487);
#376=LINE('',#2038,#488);
#377=LINE('',#2040,#489);
#378=LINE('',#2041,#490);
#379=LINE('',#2045,#491);
#380=LINE('',#2048,#492);
#381=LINE('',#2049,#493);
#382=LINE('',#2053,#494);
#383=LINE('',#2056,#495);
#384=LINE('',#2057,#496);
#385=LINE('',#2061,#497);
#386=LINE('',#2064,#498);
#387=LINE('',#2065,#499);
#388=LINE('',#2069,#500);
#389=LINE('',#2070,#501);
#390=LINE('',#2072,#502);
#391=LINE('',#2074,#503);
#392=LINE('',#2076,#504);
#393=LINE('',#2078,#505);
#394=LINE('',#2080,#506);
#395=LINE('',#2082,#507);
#396=LINE('',#2086,#508);
#397=LINE('',#2088,#509);
#398=LINE('',#2089,#510);
#399=LINE('',#2092,#511);
#400=LINE('',#2093,#512);
#401=LINE('',#2095,#513);
#402=LINE('',#2097,#514);
#403=LINE('',#2098,#515);
#404=LINE('',#2099,#516);
#405=LINE('',#2108,#517);
#406=LINE('',#2112,#518);
#407=LINE('',#2118,#519);
#408=LINE('',#2123,#520);
#409=LINE('',#2127,#521);
#410=LINE('',#2133,#522);
#411=LINE('',#2135,#523);
#412=LINE('',#2138,#524);
#413=LINE('',#2140,#525);
#414=LINE('',#2141,#526);
#415=LINE('',#2143,#527);
#416=LINE('',#2144,#528);
#417=LINE('',#2152,#529);
#418=LINE('',#2156,#530);
#419=LINE('',#2159,#531);
#420=LINE('',#2163,#532);
#421=LINE('',#2167,#533);
#422=LINE('',#2170,#534);
#423=LINE('',#2172,#535);
#424=LINE('',#2176,#536);
#425=LINE('',#2177,#537);
#426=LINE('',#2180,#538);
#427=LINE('',#2181,#539);
#428=LINE('',#2183,#540);
#429=LINE('',#2187,#541);
#430=LINE('',#2189,#542);
#431=LINE('',#2190,#543);
#432=LINE('',#2192,#544);
#433=LINE('',#2194,#545);
#434=LINE('',#2198,#546);
#435=LINE('',#2202,#547);
#436=LINE('',#2208,#548);
#437=LINE('',#2211,#549);
#438=LINE('',#2215,#550);
#439=LINE('',#2221,#551);
#440=LINE('',#2224,#552);
#441=LINE('',#2228,#553);
#442=LINE('',#2234,#554);
#443=LINE('',#2237,#555);
#444=LINE('',#2241,#556);
#445=LINE('',#2247,#557);
#446=LINE('',#2250,#558);
#447=LINE('',#2254,#559);
#448=LINE('',#2260,#560);
#449=LINE('',#2263,#561);
#450=LINE('',#2267,#562);
#451=LINE('',#2273,#563);
#452=VECTOR('',#1496,66.5);
#453=VECTOR('',#1497,11.1);
#454=VECTOR('',#1498,4.);
#455=VECTOR('',#1499,9.8);
#456=VECTOR('',#1500,4.);
#457=VECTOR('',#1501,42.1);
#458=VECTOR('',#1504,42.1);
#459=VECTOR('',#1505,4.);
#460=VECTOR('',#1506,9.8);
#461=VECTOR('',#1507,4.);
#462=VECTOR('',#1508,11.1);
#463=VECTOR('',#1521,19.99999974027);
#464=VECTOR('',#1524,4.999999740267);
#465=VECTOR('',#1527,19.99999974027);
#466=VECTOR('',#1530,4.999999740267);
#467=VECTOR('',#1537,18.5);
#468=VECTOR('',#1560,29.);
#469=VECTOR('',#1563,66.5);
#470=VECTOR('',#1564,63.);
#471=VECTOR('',#1567,63.);
#472=VECTOR('',#1570,19.99999974169);
#473=VECTOR('',#1573,4.99999974169);
#474=VECTOR('',#1576,19.99999974169);
#475=VECTOR('',#1579,4.99999974169);
#476=VECTOR('',#1582,2.82842712303381);
#477=VECTOR('',#1585,2.82842712367081);
#478=VECTOR('',#1588,19.99999983856);
#479=VECTOR('',#1589,2.82842712303381);
#480=VECTOR('',#1594,2.82842712367081);
#481=VECTOR('',#1597,4.999999838556);
#482=VECTOR('',#1598,2.82842712303381);
#483=VECTOR('',#1603,2.82842712367081);
#484=VECTOR('',#1606,19.99999983856);
#485=VECTOR('',#1607,2.82842712303381);
#486=VECTOR('',#1612,2.82842712367081);
#487=VECTOR('',#1615,4.999999838556);
#488=VECTOR('',#1618,3.999999997424);
#489=VECTOR('',#1619,4.999999837667);
#490=VECTOR('',#1620,3.999999996826);
#491=VECTOR('',#1625,3.999999997424);
#492=VECTOR('',#1628,19.99999983767);
#493=VECTOR('',#1629,3.999999996826);
#494=VECTOR('',#1634,3.999999997424);
#495=VECTOR('',#1637,4.999999837667);
#496=VECTOR('',#1638,3.999999996826);
#497=VECTOR('',#1643,3.999999997424);
#498=VECTOR('',#1646,19.99999983767);
#499=VECTOR('',#1647,3.999999996826);
#500=VECTOR('',#1654,2.82842712376581);
#501=VECTOR('',#1655,2.82842712363481);
#502=VECTOR('',#1658,2.82842712376581);
#503=VECTOR('',#1661,2.82842712363481);
#504=VECTOR('',#1664,2.82842712376581);
#505=VECTOR('',#1667,2.82842712363481);
#506=VECTOR('',#1670,2.82842712376581);
#507=VECTOR('',#1673,2.82842712363481);
#508=VECTOR('',#1678,2.82842712474581);
#509=VECTOR('',#1679,2.82842712474581);
#510=VECTOR('',#1680,66.5);
#511=VECTOR('',#1683,4.);
#512=VECTOR('',#1684,2.82842712474581);
#513=VECTOR('',#1685,5.9);
#514=VECTOR('',#1686,9.8);
#515=VECTOR('',#1687,5.9);
#516=VECTOR('',#1688,8.);
#517=VECTOR('',#1697,1.43);
#518=VECTOR('',#1702,1.3);
#519=VECTOR('',#1709,0.7228680564103);
#520=VECTOR('',#1714,1.43);
#521=VECTOR('',#1719,1.3);
#522=VECTOR('',#1726,0.7228680564103);
#523=VECTOR('',#1729,8.);
#524=VECTOR('',#1732,5.9);
#525=VECTOR('',#1733,9.8);
#526=VECTOR('',#1734,5.9);
#527=VECTOR('',#1735,2.82842712474581);
#528=VECTOR('',#1736,4.);
#529=VECTOR('',#1745,1.43);
#530=VECTOR('',#1750,1.3);
#531=VECTOR('',#1753,0.7228680564103);
#532=VECTOR('',#1758,1.43);
#533=VECTOR('',#1763,1.3);
#534=VECTOR('',#1766,0.7228680564103);
#535=VECTOR('',#1769,66.5);
#536=VECTOR('',#1774,4.);
#537=VECTOR('',#1775,5.9);
#538=VECTOR('',#1778,9.8);
#539=VECTOR('',#1779,5.9);
#540=VECTOR('',#1782,4.);
#541=VECTOR('',#1787,4.);
#542=VECTOR('',#1788,9.8);
#543=VECTOR('',#1789,4.);
#544=VECTOR('',#1792,5.9);
#545=VECTOR('',#1795,5.9);
#546=VECTOR('',#1800,1.6);
#547=VECTOR('',#1805,2.3);
#548=VECTOR('',#1814,3.25);
#549=VECTOR('',#1817,1.6);
#550=VECTOR('',#1822,2.3);
#551=VECTOR('',#1831,3.25);
#552=VECTOR('',#1834,1.6);
#553=VECTOR('',#1839,2.3);
#554=VECTOR('',#1848,3.25);
#555=VECTOR('',#1851,1.6);
#556=VECTOR('',#1856,2.3);
#557=VECTOR('',#1865,3.25);
#558=VECTOR('',#1868,1.6);
#559=VECTOR('',#1873,2.3);
#560=VECTOR('',#1882,3.25);
#561=VECTOR('',#1885,1.6);
#562=VECTOR('',#1890,2.3);
#563=VECTOR('',#1899,3.25);
#564=VERTEX_POINT('',#1902);
#565=VERTEX_POINT('',#1903);
#566=VERTEX_POINT('',#1905);
#567=VERTEX_POINT('',#1907);
#568=VERTEX_POINT('',#1909);
#569=VERTEX_POINT('',#1911);
#570=VERTEX_POINT('',#1913);
#571=VERTEX_POINT('',#1915);
#572=VERTEX_POINT('',#1917);
#573=VERTEX_POINT('',#1919);
#574=VERTEX_POINT('',#1921);
#575=VERTEX_POINT('',#1923);
#576=VERTEX_POINT('',#1926);
#577=VERTEX_POINT('',#1928);
#578=VERTEX_POINT('',#1930);
#579=VERTEX_POINT('',#1932);
#580=VERTEX_POINT('',#1934);
#581=VERTEX_POINT('',#1936);
#582=VERTEX_POINT('',#1938);
#583=VERTEX_POINT('',#1939);
#584=VERTEX_POINT('',#1941);
#585=VERTEX_POINT('',#1943);
#586=VERTEX_POINT('',#1945);
#587=VERTEX_POINT('',#1947);
#588=VERTEX_POINT('',#1949);
#589=VERTEX_POINT('',#1951);
#590=VERTEX_POINT('',#1954);
#591=VERTEX_POINT('',#1957);
#592=VERTEX_POINT('',#1961);
#593=VERTEX_POINT('',#1963);
#594=VERTEX_POINT('',#1965);
#595=VERTEX_POINT('',#1967);
#596=VERTEX_POINT('',#1969);
#597=VERTEX_POINT('',#1971);
#598=VERTEX_POINT('',#1973);
#599=VERTEX_POINT('',#1976);
#600=VERTEX_POINT('',#1980);
#601=VERTEX_POINT('',#1981);
#602=VERTEX_POINT('',#1983);
#603=VERTEX_POINT('',#1985);
#604=VERTEX_POINT('',#1988);
#605=VERTEX_POINT('',#1989);
#606=VERTEX_POINT('',#1991);
#607=VERTEX_POINT('',#1993);
#608=VERTEX_POINT('',#1995);
#609=VERTEX_POINT('',#1997);
#610=VERTEX_POINT('',#1999);
#611=VERTEX_POINT('',#2001);
#612=VERTEX_POINT('',#2005);
#613=VERTEX_POINT('',#2007);
#614=VERTEX_POINT('',#2011);
#615=VERTEX_POINT('',#2015);
#616=VERTEX_POINT('',#2019);
#617=VERTEX_POINT('',#2023);
#618=VERTEX_POINT('',#2027);
#619=VERTEX_POINT('',#2031);
#620=VERTEX_POINT('',#2037);
#621=VERTEX_POINT('',#2039);
#622=VERTEX_POINT('',#2043);
#623=VERTEX_POINT('',#2047);
#624=VERTEX_POINT('',#2051);
#625=VERTEX_POINT('',#2055);
#626=VERTEX_POINT('',#2059);
#627=VERTEX_POINT('',#2063);
#628=VERTEX_POINT('',#2085);
#629=VERTEX_POINT('',#2087);
#630=VERTEX_POINT('',#2091);
#631=VERTEX_POINT('',#2094);
#632=VERTEX_POINT('',#2096);
#633=VERTEX_POINT('',#2100);
#634=VERTEX_POINT('',#2102);
#635=VERTEX_POINT('',#2105);
#636=VERTEX_POINT('',#2106);
#637=VERTEX_POINT('',#2111);
#638=VERTEX_POINT('',#2113);
#639=VERTEX_POINT('',#2117);
#640=VERTEX_POINT('',#2120);
#641=VERTEX_POINT('',#2121);
#642=VERTEX_POINT('',#2126);
#643=VERTEX_POINT('',#2128);
#644=VERTEX_POINT('',#2132);
#645=VERTEX_POINT('',#2137);
#646=VERTEX_POINT('',#2139);
#647=VERTEX_POINT('',#2142);
#648=VERTEX_POINT('',#2145);
#649=VERTEX_POINT('',#2147);
#650=VERTEX_POINT('',#2150);
#651=VERTEX_POINT('',#2154);
#652=VERTEX_POINT('',#2158);
#653=VERTEX_POINT('',#2161);
#654=VERTEX_POINT('',#2165);
#655=VERTEX_POINT('',#2169);
#656=VERTEX_POINT('',#2175);
#657=VERTEX_POINT('',#2179);
#658=VERTEX_POINT('',#2186);
#659=VERTEX_POINT('',#2188);
#660=VERTEX_POINT('',#2197);
#661=VERTEX_POINT('',#2201);
#662=VERTEX_POINT('',#2205);
#663=VERTEX_POINT('',#2210);
#664=VERTEX_POINT('',#2214);
#665=VERTEX_POINT('',#2218);
#666=VERTEX_POINT('',#2223);
#667=VERTEX_POINT('',#2227);
#668=VERTEX_POINT('',#2231);
#669=VERTEX_POINT('',#2236);
#670=VERTEX_POINT('',#2240);
#671=VERTEX_POINT('',#2244);
#672=VERTEX_POINT('',#2249);
#673=VERTEX_POINT('',#2253);
#674=VERTEX_POINT('',#2257);
#675=VERTEX_POINT('',#2262);
#676=VERTEX_POINT('',#2266);
#677=VERTEX_POINT('',#2270);
#678=EDGE_CURVE('',#564,#565,#340,.T.);
#679=EDGE_CURVE('',#566,#565,#341,.T.);
#680=EDGE_CURVE('',#567,#566,#342,.T.);
#681=EDGE_CURVE('',#568,#567,#343,.T.);
#682=EDGE_CURVE('',#569,#568,#344,.T.);
#683=EDGE_CURVE('',#570,#569,#345,.T.);
#684=EDGE_CURVE('',#571,#570,#272,.T.);
#685=EDGE_CURVE('',#572,#571,#346,.T.);
#686=EDGE_CURVE('',#573,#572,#347,.T.);
#687=EDGE_CURVE('',#574,#573,#348,.T.);
#688=EDGE_CURVE('',#575,#574,#349,.T.);
#689=EDGE_CURVE('',#564,#575,#350,.T.);
#690=EDGE_CURVE('',#576,#576,#273,.T.);
#691=EDGE_CURVE('',#577,#577,#274,.T.);
#692=EDGE_CURVE('',#578,#578,#275,.T.);
#693=EDGE_CURVE('',#579,#579,#276,.T.);
#694=EDGE_CURVE('',#580,#580,#277,.T.);
#695=EDGE_CURVE('',#581,#581,#278,.T.);
#696=EDGE_CURVE('',#582,#583,#351,.T.);
#697=EDGE_CURVE('',#584,#582,#279,.T.);
#698=EDGE_CURVE('',#585,#584,#352,.T.);
#699=EDGE_CURVE('',#586,#585,#280,.T.);
#700=EDGE_CURVE('',#587,#586,#353,.T.);
#701=EDGE_CURVE('',#588,#587,#281,.T.);
#702=EDGE_CURVE('',#589,#588,#354,.T.);
#703=EDGE_CURVE('',#583,#589,#282,.T.);
#704=EDGE_CURVE('',#590,#590,#283,.T.);
#705=EDGE_CURVE('',#590,#591,#355,.T.);
#706=EDGE_CURVE('',#591,#591,#284,.T.);
#707=EDGE_CURVE('',#592,#592,#285,.T.);
#708=EDGE_CURVE('',#593,#593,#286,.T.);
#709=EDGE_CURVE('',#594,#594,#287,.T.);
#710=EDGE_CURVE('',#595,#595,#288,.T.);
#711=EDGE_CURVE('',#596,#596,#289,.T.);
#712=EDGE_CURVE('',#597,#597,#290,.T.);
#713=EDGE_CURVE('',#598,#598,#291,.T.);
#714=EDGE_CURVE('',#599,#599,#292,.T.);
#715=EDGE_CURVE('',#599,#592,#356,.T.);
#716=EDGE_CURVE('',#600,#601,#357,.T.);
#717=EDGE_CURVE('',#601,#602,#358,.T.);
#718=EDGE_CURVE('',#602,#603,#293,.T.);
#719=EDGE_CURVE('',#603,#600,#359,.T.);
#720=EDGE_CURVE('',#604,#605,#294,.T.);
#721=EDGE_CURVE('',#605,#606,#360,.T.);
#722=EDGE_CURVE('',#606,#607,#295,.T.);
#723=EDGE_CURVE('',#607,#608,#361,.T.);
#724=EDGE_CURVE('',#608,#609,#296,.T.);
#725=EDGE_CURVE('',#609,#610,#362,.T.);
#726=EDGE_CURVE('',#610,#611,#297,.T.);
#727=EDGE_CURVE('',#611,#604,#363,.T.);
#728=EDGE_CURVE('',#604,#612,#364,.T.);
#729=EDGE_CURVE('',#612,#613,#298,.T.);
#730=EDGE_CURVE('',#605,#613,#365,.T.);
#731=EDGE_CURVE('',#613,#614,#366,.T.);
#732=EDGE_CURVE('',#606,#614,#367,.T.);
#733=EDGE_CURVE('',#614,#615,#299,.T.);
#734=EDGE_CURVE('',#607,#615,#368,.T.);
#735=EDGE_CURVE('',#615,#616,#369,.T.);
#736=EDGE_CURVE('',#608,#616,#370,.T.);
#737=EDGE_CURVE('',#616,#617,#300,.T.);
#738=EDGE_CURVE('',#609,#617,#371,.T.);
#739=EDGE_CURVE('',#617,#618,#372,.T.);
#740=EDGE_CURVE('',#610,#618,#373,.T.);
#741=EDGE_CURVE('',#618,#619,#301,.T.);
#742=EDGE_CURVE('',#611,#619,#374,.T.);
#743=EDGE_CURVE('',#619,#612,#375,.T.);
#744=EDGE_CURVE('',#620,#619,#376,.T.);
#745=EDGE_CURVE('',#620,#621,#377,.T.);
#746=EDGE_CURVE('',#621,#612,#378,.T.);
#747=EDGE_CURVE('',#621,#622,#302,.T.);
#748=EDGE_CURVE('',#622,#613,#379,.T.);
#749=EDGE_CURVE('',#622,#623,#380,.T.);
#750=EDGE_CURVE('',#623,#614,#381,.T.);
#751=EDGE_CURVE('',#623,#624,#303,.T.);
#752=EDGE_CURVE('',#624,#615,#382,.T.);
#753=EDGE_CURVE('',#624,#625,#383,.T.);
#754=EDGE_CURVE('',#625,#616,#384,.T.);
#755=EDGE_CURVE('',#625,#626,#304,.T.);
#756=EDGE_CURVE('',#626,#617,#385,.T.);
#757=EDGE_CURVE('',#626,#627,#386,.T.);
#758=EDGE_CURVE('',#627,#618,#387,.T.);
#759=EDGE_CURVE('',#627,#620,#305,.T.);
#760=EDGE_CURVE('',#627,#586,#388,.T.);
#761=EDGE_CURVE('',#620,#585,#389,.T.);
#762=EDGE_CURVE('',#621,#584,#390,.T.);
#763=EDGE_CURVE('',#622,#582,#391,.T.);
#764=EDGE_CURVE('',#623,#583,#392,.T.);
#765=EDGE_CURVE('',#624,#589,#393,.T.);
#766=EDGE_CURVE('',#625,#588,#394,.T.);
#767=EDGE_CURVE('',#626,#587,#395,.T.);
#768=EDGE_CURVE('',#601,#628,#396,.T.);
#769=EDGE_CURVE('',#629,#600,#397,.T.);
#770=EDGE_CURVE('',#629,#628,#398,.T.);
#771=EDGE_CURVE('',#630,#628,#399,.T.);
#772=EDGE_CURVE('',#630,#564,#400,.T.);
#773=EDGE_CURVE('',#575,#631,#401,.T.);
#774=EDGE_CURVE('',#632,#631,#402,.T.);
#775=EDGE_CURVE('',#572,#632,#403,.T.);
#776=EDGE_CURVE('',#571,#602,#404,.T.);
#777=EDGE_CURVE('',#633,#633,#306,.T.);
#778=EDGE_CURVE('',#634,#634,#307,.T.);
#779=EDGE_CURVE('',#635,#636,#308,.T.);
#780=EDGE_CURVE('',#636,#634,#405,.T.);
#781=EDGE_CURVE('',#636,#635,#309,.T.);
#782=EDGE_CURVE('',#635,#637,#406,.T.);
#783=EDGE_CURVE('',#637,#638,#310,.T.);
#784=EDGE_CURVE('',#638,#637,#311,.T.);
#785=EDGE_CURVE('',#639,#638,#407,.T.);
#786=EDGE_CURVE('',#640,#641,#312,.T.);
#787=EDGE_CURVE('',#641,#633,#408,.T.);
#788=EDGE_CURVE('',#641,#640,#313,.T.);
#789=EDGE_CURVE('',#640,#642,#409,.T.);
#790=EDGE_CURVE('',#642,#643,#314,.T.);
#791=EDGE_CURVE('',#643,#642,#315,.T.);
#792=EDGE_CURVE('',#644,#643,#410,.T.);
#793=EDGE_CURVE('',#570,#603,#411,.T.);
#794=EDGE_CURVE('',#569,#645,#412,.T.);
#795=EDGE_CURVE('',#645,#646,#413,.T.);
#796=EDGE_CURVE('',#566,#646,#414,.T.);
#797=EDGE_CURVE('',#565,#647,#415,.T.);
#798=EDGE_CURVE('',#647,#629,#416,.T.);
#799=EDGE_CURVE('',#648,#648,#316,.T.);
#800=EDGE_CURVE('',#649,#649,#317,.T.);
#801=EDGE_CURVE('',#650,#650,#318,.T.);
#802=EDGE_CURVE('',#650,#649,#417,.T.);
#803=EDGE_CURVE('',#651,#651,#319,.T.);
#804=EDGE_CURVE('',#651,#650,#418,.T.);
#805=EDGE_CURVE('',#652,#651,#419,.T.);
#806=EDGE_CURVE('',#653,#653,#320,.T.);
#807=EDGE_CURVE('',#653,#648,#420,.T.);
#808=EDGE_CURVE('',#654,#654,#321,.T.);
#809=EDGE_CURVE('',#654,#653,#421,.T.);
#810=EDGE_CURVE('',#655,#654,#422,.T.);
#811=EDGE_CURVE('',#630,#647,#423,.T.);
#812=EDGE_CURVE('',#656,#646,#424,.T.);
#813=EDGE_CURVE('',#567,#656,#425,.T.);
#814=EDGE_CURVE('',#657,#656,#426,.T.);
#815=EDGE_CURVE('',#568,#657,#427,.T.);
#816=EDGE_CURVE('',#645,#657,#428,.T.);
#817=EDGE_CURVE('',#631,#658,#429,.T.);
#818=EDGE_CURVE('',#658,#659,#430,.T.);
#819=EDGE_CURVE('',#659,#632,#431,.T.);
#820=EDGE_CURVE('',#574,#658,#432,.T.);
#821=EDGE_CURVE('',#573,#659,#433,.T.);
#822=EDGE_CURVE('',#593,#660,#434,.T.);
#823=EDGE_CURVE('',#660,#660,#322,.T.);
#824=EDGE_CURVE('',#660,#661,#435,.T.);
#825=EDGE_CURVE('',#661,#661,#323,.T.);
#826=EDGE_CURVE('',#662,#662,#324,.T.);
#827=EDGE_CURVE('',#662,#576,#436,.T.);
#828=EDGE_CURVE('',#594,#663,#437,.T.);
#829=EDGE_CURVE('',#663,#663,#325,.T.);
#830=EDGE_CURVE('',#663,#664,#438,.T.);
#831=EDGE_CURVE('',#664,#664,#326,.T.);
#832=EDGE_CURVE('',#665,#665,#327,.T.);
#833=EDGE_CURVE('',#665,#577,#439,.T.);
#834=EDGE_CURVE('',#595,#666,#440,.T.);
#835=EDGE_CURVE('',#666,#666,#328,.T.);
#836=EDGE_CURVE('',#666,#667,#441,.T.);
#837=EDGE_CURVE('',#667,#667,#329,.T.);
#838=EDGE_CURVE('',#668,#668,#330,.T.);
#839=EDGE_CURVE('',#668,#578,#442,.T.);
#840=EDGE_CURVE('',#596,#669,#443,.T.);
#841=EDGE_CURVE('',#669,#669,#331,.T.);
#842=EDGE_CURVE('',#669,#670,#444,.T.);
#843=EDGE_CURVE('',#670,#670,#332,.T.);
#844=EDGE_CURVE('',#671,#671,#333,.T.);
#845=EDGE_CURVE('',#671,#579,#445,.T.);
#846=EDGE_CURVE('',#597,#672,#446,.T.);
#847=EDGE_CURVE('',#672,#672,#334,.T.);
#848=EDGE_CURVE('',#672,#673,#447,.T.);
#849=EDGE_CURVE('',#673,#673,#335,.T.);
#850=EDGE_CURVE('',#674,#674,#336,.T.);
#851=EDGE_CURVE('',#674,#580,#448,.T.);
#852=EDGE_CURVE('',#598,#675,#449,.T.);
#853=EDGE_CURVE('',#675,#675,#337,.T.);
#854=EDGE_CURVE('',#675,#676,#450,.T.);
#855=EDGE_CURVE('',#676,#676,#338,.T.);
#856=EDGE_CURVE('',#677,#677,#339,.T.);
#857=EDGE_CURVE('',#677,#581,#451,.T.);
#858=ORIENTED_EDGE('',*,*,#678,.T.);
#859=ORIENTED_EDGE('',*,*,#679,.F.);
#860=ORIENTED_EDGE('',*,*,#680,.F.);
#861=ORIENTED_EDGE('',*,*,#681,.F.);
#862=ORIENTED_EDGE('',*,*,#682,.F.);
#863=ORIENTED_EDGE('',*,*,#683,.F.);
#864=ORIENTED_EDGE('',*,*,#684,.F.);
#865=ORIENTED_EDGE('',*,*,#685,.F.);
#866=ORIENTED_EDGE('',*,*,#686,.F.);
#867=ORIENTED_EDGE('',*,*,#687,.F.);
#868=ORIENTED_EDGE('',*,*,#688,.F.);
#869=ORIENTED_EDGE('',*,*,#689,.F.);
#870=ORIENTED_EDGE('',*,*,#690,.F.);
#871=ORIENTED_EDGE('',*,*,#691,.F.);
#872=ORIENTED_EDGE('',*,*,#692,.F.);
#873=ORIENTED_EDGE('',*,*,#693,.F.);
#874=ORIENTED_EDGE('',*,*,#694,.F.);
#875=ORIENTED_EDGE('',*,*,#695,.F.);
#876=ORIENTED_EDGE('',*,*,#696,.F.);
#877=ORIENTED_EDGE('',*,*,#697,.F.);
#878=ORIENTED_EDGE('',*,*,#698,.F.);
#879=ORIENTED_EDGE('',*,*,#699,.F.);
#880=ORIENTED_EDGE('',*,*,#700,.F.);
#881=ORIENTED_EDGE('',*,*,#701,.F.);
#882=ORIENTED_EDGE('',*,*,#702,.F.);
#883=ORIENTED_EDGE('',*,*,#703,.F.);
#884=ORIENTED_EDGE('',*,*,#704,.F.);
#885=ORIENTED_EDGE('',*,*,#704,.T.);
#886=ORIENTED_EDGE('',*,*,#705,.T.);
#887=ORIENTED_EDGE('',*,*,#706,.T.);
#888=ORIENTED_EDGE('',*,*,#705,.F.);
#889=ORIENTED_EDGE('',*,*,#707,.F.);
#890=ORIENTED_EDGE('',*,*,#706,.F.);
#891=ORIENTED_EDGE('',*,*,#708,.T.);
#892=ORIENTED_EDGE('',*,*,#709,.T.);
#893=ORIENTED_EDGE('',*,*,#710,.T.);
#894=ORIENTED_EDGE('',*,*,#711,.T.);
#895=ORIENTED_EDGE('',*,*,#712,.T.);
#896=ORIENTED_EDGE('',*,*,#713,.T.);
#897=ORIENTED_EDGE('',*,*,#714,.F.);
#898=ORIENTED_EDGE('',*,*,#715,.T.);
#899=ORIENTED_EDGE('',*,*,#707,.T.);
#900=ORIENTED_EDGE('',*,*,#715,.F.);
#901=ORIENTED_EDGE('',*,*,#716,.T.);
#902=ORIENTED_EDGE('',*,*,#717,.T.);
#903=ORIENTED_EDGE('',*,*,#718,.T.);
#904=ORIENTED_EDGE('',*,*,#719,.T.);
#905=ORIENTED_EDGE('',*,*,#720,.T.);
#906=ORIENTED_EDGE('',*,*,#721,.T.);
#907=ORIENTED_EDGE('',*,*,#722,.T.);
#908=ORIENTED_EDGE('',*,*,#723,.T.);
#909=ORIENTED_EDGE('',*,*,#724,.T.);
#910=ORIENTED_EDGE('',*,*,#725,.T.);
#911=ORIENTED_EDGE('',*,*,#726,.T.);
#912=ORIENTED_EDGE('',*,*,#727,.T.);
#913=ORIENTED_EDGE('',*,*,#714,.T.);
#914=ORIENTED_EDGE('',*,*,#720,.F.);
#915=ORIENTED_EDGE('',*,*,#728,.T.);
#916=ORIENTED_EDGE('',*,*,#729,.T.);
#917=ORIENTED_EDGE('',*,*,#730,.F.);
#918=ORIENTED_EDGE('',*,*,#721,.F.);
#919=ORIENTED_EDGE('',*,*,#730,.T.);
#920=ORIENTED_EDGE('',*,*,#731,.T.);
#921=ORIENTED_EDGE('',*,*,#732,.F.);
#922=ORIENTED_EDGE('',*,*,#722,.F.);
#923=ORIENTED_EDGE('',*,*,#732,.T.);
#924=ORIENTED_EDGE('',*,*,#733,.T.);
#925=ORIENTED_EDGE('',*,*,#734,.F.);
#926=ORIENTED_EDGE('',*,*,#723,.F.);
#927=ORIENTED_EDGE('',*,*,#734,.T.);
#928=ORIENTED_EDGE('',*,*,#735,.T.);
#929=ORIENTED_EDGE('',*,*,#736,.F.);
#930=ORIENTED_EDGE('',*,*,#724,.F.);
#931=ORIENTED_EDGE('',*,*,#736,.T.);
#932=ORIENTED_EDGE('',*,*,#737,.T.);
#933=ORIENTED_EDGE('',*,*,#738,.F.);
#934=ORIENTED_EDGE('',*,*,#725,.F.);
#935=ORIENTED_EDGE('',*,*,#738,.T.);
#936=ORIENTED_EDGE('',*,*,#739,.T.);
#937=ORIENTED_EDGE('',*,*,#740,.F.);
#938=ORIENTED_EDGE('',*,*,#726,.F.);
#939=ORIENTED_EDGE('',*,*,#740,.T.);
#940=ORIENTED_EDGE('',*,*,#741,.T.);
#941=ORIENTED_EDGE('',*,*,#742,.F.);
#942=ORIENTED_EDGE('',*,*,#727,.F.);
#943=ORIENTED_EDGE('',*,*,#742,.T.);
#944=ORIENTED_EDGE('',*,*,#743,.T.);
#945=ORIENTED_EDGE('',*,*,#728,.F.);
#946=ORIENTED_EDGE('',*,*,#743,.F.);
#947=ORIENTED_EDGE('',*,*,#744,.F.);
#948=ORIENTED_EDGE('',*,*,#745,.T.);
#949=ORIENTED_EDGE('',*,*,#746,.T.);
#950=ORIENTED_EDGE('',*,*,#729,.F.);
#951=ORIENTED_EDGE('',*,*,#746,.F.);
#952=ORIENTED_EDGE('',*,*,#747,.T.);
#953=ORIENTED_EDGE('',*,*,#748,.T.);
#954=ORIENTED_EDGE('',*,*,#731,.F.);
#955=ORIENTED_EDGE('',*,*,#748,.F.);
#956=ORIENTED_EDGE('',*,*,#749,.T.);
#957=ORIENTED_EDGE('',*,*,#750,.T.);
#958=ORIENTED_EDGE('',*,*,#733,.F.);
#959=ORIENTED_EDGE('',*,*,#750,.F.);
#960=ORIENTED_EDGE('',*,*,#751,.T.);
#961=ORIENTED_EDGE('',*,*,#752,.T.);
#962=ORIENTED_EDGE('',*,*,#735,.F.);
#963=ORIENTED_EDGE('',*,*,#752,.F.);
#964=ORIENTED_EDGE('',*,*,#753,.T.);
#965=ORIENTED_EDGE('',*,*,#754,.T.);
#966=ORIENTED_EDGE('',*,*,#737,.F.);
#967=ORIENTED_EDGE('',*,*,#754,.F.);
#968=ORIENTED_EDGE('',*,*,#755,.T.);
#969=ORIENTED_EDGE('',*,*,#756,.T.);
#970=ORIENTED_EDGE('',*,*,#739,.F.);
#971=ORIENTED_EDGE('',*,*,#756,.F.);
#972=ORIENTED_EDGE('',*,*,#757,.T.);
#973=ORIENTED_EDGE('',*,*,#758,.T.);
#974=ORIENTED_EDGE('',*,*,#741,.F.);
#975=ORIENTED_EDGE('',*,*,#758,.F.);
#976=ORIENTED_EDGE('',*,*,#759,.T.);
#977=ORIENTED_EDGE('',*,*,#744,.T.);
#978=ORIENTED_EDGE('',*,*,#759,.F.);
#979=ORIENTED_EDGE('',*,*,#760,.T.);
#980=ORIENTED_EDGE('',*,*,#699,.T.);
#981=ORIENTED_EDGE('',*,*,#761,.F.);
#982=ORIENTED_EDGE('',*,*,#745,.F.);
#983=ORIENTED_EDGE('',*,*,#761,.T.);
#984=ORIENTED_EDGE('',*,*,#698,.T.);
#985=ORIENTED_EDGE('',*,*,#762,.F.);
#986=ORIENTED_EDGE('',*,*,#747,.F.);
#987=ORIENTED_EDGE('',*,*,#762,.T.);
#988=ORIENTED_EDGE('',*,*,#697,.T.);
#989=ORIENTED_EDGE('',*,*,#763,.F.);
#990=ORIENTED_EDGE('',*,*,#749,.F.);
#991=ORIENTED_EDGE('',*,*,#763,.T.);
#992=ORIENTED_EDGE('',*,*,#696,.T.);
#993=ORIENTED_EDGE('',*,*,#764,.F.);
#994=ORIENTED_EDGE('',*,*,#751,.F.);
#995=ORIENTED_EDGE('',*,*,#764,.T.);
#996=ORIENTED_EDGE('',*,*,#703,.T.);
#997=ORIENTED_EDGE('',*,*,#765,.F.);
#998=ORIENTED_EDGE('',*,*,#753,.F.);
#999=ORIENTED_EDGE('',*,*,#765,.T.);
#1000=ORIENTED_EDGE('',*,*,#702,.T.);
#1001=ORIENTED_EDGE('',*,*,#766,.F.);
#1002=ORIENTED_EDGE('',*,*,#755,.F.);
#1003=ORIENTED_EDGE('',*,*,#766,.T.);
#1004=ORIENTED_EDGE('',*,*,#701,.T.);
#1005=ORIENTED_EDGE('',*,*,#767,.F.);
#1006=ORIENTED_EDGE('',*,*,#757,.F.);
#1007=ORIENTED_EDGE('',*,*,#767,.T.);
#1008=ORIENTED_EDGE('',*,*,#700,.T.);
#1009=ORIENTED_EDGE('',*,*,#760,.F.);
#1010=ORIENTED_EDGE('',*,*,#768,.F.);
#1011=ORIENTED_EDGE('',*,*,#716,.F.);
#1012=ORIENTED_EDGE('',*,*,#769,.F.);
#1013=ORIENTED_EDGE('',*,*,#770,.T.);
#1014=ORIENTED_EDGE('',*,*,#768,.T.);
#1015=ORIENTED_EDGE('',*,*,#771,.F.);
#1016=ORIENTED_EDGE('',*,*,#772,.T.);
#1017=ORIENTED_EDGE('',*,*,#689,.T.);
#1018=ORIENTED_EDGE('',*,*,#773,.T.);
#1019=ORIENTED_EDGE('',*,*,#774,.F.);
#1020=ORIENTED_EDGE('',*,*,#775,.F.);
#1021=ORIENTED_EDGE('',*,*,#685,.T.);
#1022=ORIENTED_EDGE('',*,*,#776,.T.);
#1023=ORIENTED_EDGE('',*,*,#717,.F.);
#1024=ORIENTED_EDGE('',*,*,#777,.T.);
#1025=ORIENTED_EDGE('',*,*,#778,.T.);
#1026=ORIENTED_EDGE('',*,*,#779,.T.);
#1027=ORIENTED_EDGE('',*,*,#780,.T.);
#1028=ORIENTED_EDGE('',*,*,#778,.F.);
#1029=ORIENTED_EDGE('',*,*,#780,.F.);
#1030=ORIENTED_EDGE('',*,*,#781,.T.);
#1031=ORIENTED_EDGE('',*,*,#779,.F.);
#1032=ORIENTED_EDGE('',*,*,#782,.T.);
#1033=ORIENTED_EDGE('',*,*,#783,.T.);
#1034=ORIENTED_EDGE('',*,*,#784,.T.);
#1035=ORIENTED_EDGE('',*,*,#782,.F.);
#1036=ORIENTED_EDGE('',*,*,#781,.F.);
#1037=ORIENTED_EDGE('',*,*,#785,.T.);
#1038=ORIENTED_EDGE('',*,*,#783,.F.);
#1039=ORIENTED_EDGE('',*,*,#784,.F.);
#1040=ORIENTED_EDGE('',*,*,#785,.F.);
#1041=ORIENTED_EDGE('',*,*,#786,.T.);
#1042=ORIENTED_EDGE('',*,*,#787,.T.);
#1043=ORIENTED_EDGE('',*,*,#777,.F.);
#1044=ORIENTED_EDGE('',*,*,#787,.F.);
#1045=ORIENTED_EDGE('',*,*,#788,.T.);
#1046=ORIENTED_EDGE('',*,*,#786,.F.);
#1047=ORIENTED_EDGE('',*,*,#789,.T.);
#1048=ORIENTED_EDGE('',*,*,#790,.T.);
#1049=ORIENTED_EDGE('',*,*,#791,.T.);
#1050=ORIENTED_EDGE('',*,*,#789,.F.);
#1051=ORIENTED_EDGE('',*,*,#788,.F.);
#1052=ORIENTED_EDGE('',*,*,#792,.T.);
#1053=ORIENTED_EDGE('',*,*,#790,.F.);
#1054=ORIENTED_EDGE('',*,*,#791,.F.);
#1055=ORIENTED_EDGE('',*,*,#792,.F.);
#1056=ORIENTED_EDGE('',*,*,#684,.T.);
#1057=ORIENTED_EDGE('',*,*,#793,.T.);
#1058=ORIENTED_EDGE('',*,*,#718,.F.);
#1059=ORIENTED_EDGE('',*,*,#776,.F.);
#1060=ORIENTED_EDGE('',*,*,#769,.T.);
#1061=ORIENTED_EDGE('',*,*,#719,.F.);
#1062=ORIENTED_EDGE('',*,*,#793,.F.);
#1063=ORIENTED_EDGE('',*,*,#683,.T.);
#1064=ORIENTED_EDGE('',*,*,#794,.T.);
#1065=ORIENTED_EDGE('',*,*,#795,.T.);
#1066=ORIENTED_EDGE('',*,*,#796,.F.);
#1067=ORIENTED_EDGE('',*,*,#679,.T.);
#1068=ORIENTED_EDGE('',*,*,#797,.T.);
#1069=ORIENTED_EDGE('',*,*,#798,.T.);
#1070=ORIENTED_EDGE('',*,*,#799,.F.);
#1071=ORIENTED_EDGE('',*,*,#800,.F.);
#1072=ORIENTED_EDGE('',*,*,#801,.F.);
#1073=ORIENTED_EDGE('',*,*,#802,.T.);
#1074=ORIENTED_EDGE('',*,*,#800,.T.);
#1075=ORIENTED_EDGE('',*,*,#802,.F.);
#1076=ORIENTED_EDGE('',*,*,#803,.T.);
#1077=ORIENTED_EDGE('',*,*,#804,.T.);
#1078=ORIENTED_EDGE('',*,*,#801,.T.);
#1079=ORIENTED_EDGE('',*,*,#804,.F.);
#1080=ORIENTED_EDGE('',*,*,#805,.T.);
#1081=ORIENTED_EDGE('',*,*,#803,.F.);
#1082=ORIENTED_EDGE('',*,*,#805,.F.);
#1083=ORIENTED_EDGE('',*,*,#806,.F.);
#1084=ORIENTED_EDGE('',*,*,#807,.T.);
#1085=ORIENTED_EDGE('',*,*,#799,.T.);
#1086=ORIENTED_EDGE('',*,*,#807,.F.);
#1087=ORIENTED_EDGE('',*,*,#808,.T.);
#1088=ORIENTED_EDGE('',*,*,#809,.T.);
#1089=ORIENTED_EDGE('',*,*,#806,.T.);
#1090=ORIENTED_EDGE('',*,*,#809,.F.);
#1091=ORIENTED_EDGE('',*,*,#810,.T.);
#1092=ORIENTED_EDGE('',*,*,#808,.F.);
#1093=ORIENTED_EDGE('',*,*,#810,.F.);
#1094=ORIENTED_EDGE('',*,*,#770,.F.);
#1095=ORIENTED_EDGE('',*,*,#798,.F.);
#1096=ORIENTED_EDGE('',*,*,#811,.F.);
#1097=ORIENTED_EDGE('',*,*,#771,.T.);
#1098=ORIENTED_EDGE('',*,*,#797,.F.);
#1099=ORIENTED_EDGE('',*,*,#678,.F.);
#1100=ORIENTED_EDGE('',*,*,#772,.F.);
#1101=ORIENTED_EDGE('',*,*,#811,.T.);
#1102=ORIENTED_EDGE('',*,*,#796,.T.);
#1103=ORIENTED_EDGE('',*,*,#812,.F.);
#1104=ORIENTED_EDGE('',*,*,#813,.F.);
#1105=ORIENTED_EDGE('',*,*,#680,.T.);
#1106=ORIENTED_EDGE('',*,*,#681,.T.);
#1107=ORIENTED_EDGE('',*,*,#813,.T.);
#1108=ORIENTED_EDGE('',*,*,#814,.F.);
#1109=ORIENTED_EDGE('',*,*,#815,.F.);
#1110=ORIENTED_EDGE('',*,*,#794,.F.);
#1111=ORIENTED_EDGE('',*,*,#682,.T.);
#1112=ORIENTED_EDGE('',*,*,#815,.T.);
#1113=ORIENTED_EDGE('',*,*,#816,.F.);
#1114=ORIENTED_EDGE('',*,*,#816,.T.);
#1115=ORIENTED_EDGE('',*,*,#814,.T.);
#1116=ORIENTED_EDGE('',*,*,#812,.T.);
#1117=ORIENTED_EDGE('',*,*,#795,.F.);
#1118=ORIENTED_EDGE('',*,*,#817,.T.);
#1119=ORIENTED_EDGE('',*,*,#818,.T.);
#1120=ORIENTED_EDGE('',*,*,#819,.T.);
#1121=ORIENTED_EDGE('',*,*,#774,.T.);
#1122=ORIENTED_EDGE('',*,*,#773,.F.);
#1123=ORIENTED_EDGE('',*,*,#688,.T.);
#1124=ORIENTED_EDGE('',*,*,#820,.T.);
#1125=ORIENTED_EDGE('',*,*,#817,.F.);
#1126=ORIENTED_EDGE('',*,*,#687,.T.);
#1127=ORIENTED_EDGE('',*,*,#821,.T.);
#1128=ORIENTED_EDGE('',*,*,#818,.F.);
#1129=ORIENTED_EDGE('',*,*,#820,.F.);
#1130=ORIENTED_EDGE('',*,*,#775,.T.);
#1131=ORIENTED_EDGE('',*,*,#819,.F.);
#1132=ORIENTED_EDGE('',*,*,#821,.F.);
#1133=ORIENTED_EDGE('',*,*,#686,.T.);
#1134=ORIENTED_EDGE('',*,*,#708,.F.);
#1135=ORIENTED_EDGE('',*,*,#822,.T.);
#1136=ORIENTED_EDGE('',*,*,#823,.T.);
#1137=ORIENTED_EDGE('',*,*,#822,.F.);
#1138=ORIENTED_EDGE('',*,*,#823,.F.);
#1139=ORIENTED_EDGE('',*,*,#824,.T.);
#1140=ORIENTED_EDGE('',*,*,#825,.T.);
#1141=ORIENTED_EDGE('',*,*,#824,.F.);
#1142=ORIENTED_EDGE('',*,*,#826,.T.);
#1143=ORIENTED_EDGE('',*,*,#825,.F.);
#1144=ORIENTED_EDGE('',*,*,#826,.F.);
#1145=ORIENTED_EDGE('',*,*,#827,.T.);
#1146=ORIENTED_EDGE('',*,*,#690,.T.);
#1147=ORIENTED_EDGE('',*,*,#827,.F.);
#1148=ORIENTED_EDGE('',*,*,#709,.F.);
#1149=ORIENTED_EDGE('',*,*,#828,.T.);
#1150=ORIENTED_EDGE('',*,*,#829,.T.);
#1151=ORIENTED_EDGE('',*,*,#828,.F.);
#1152=ORIENTED_EDGE('',*,*,#829,.F.);
#1153=ORIENTED_EDGE('',*,*,#830,.T.);
#1154=ORIENTED_EDGE('',*,*,#831,.T.);
#1155=ORIENTED_EDGE('',*,*,#830,.F.);
#1156=ORIENTED_EDGE('',*,*,#832,.T.);
#1157=ORIENTED_EDGE('',*,*,#831,.F.);
#1158=ORIENTED_EDGE('',*,*,#832,.F.);
#1159=ORIENTED_EDGE('',*,*,#833,.T.);
#1160=ORIENTED_EDGE('',*,*,#691,.T.);
#1161=ORIENTED_EDGE('',*,*,#833,.F.);
#1162=ORIENTED_EDGE('',*,*,#710,.F.);
#1163=ORIENTED_EDGE('',*,*,#834,.T.);
#1164=ORIENTED_EDGE('',*,*,#835,.T.);
#1165=ORIENTED_EDGE('',*,*,#834,.F.);
#1166=ORIENTED_EDGE('',*,*,#835,.F.);
#1167=ORIENTED_EDGE('',*,*,#836,.T.);
#1168=ORIENTED_EDGE('',*,*,#837,.T.);
#1169=ORIENTED_EDGE('',*,*,#836,.F.);
#1170=ORIENTED_EDGE('',*,*,#838,.T.);
#1171=ORIENTED_EDGE('',*,*,#837,.F.);
#1172=ORIENTED_EDGE('',*,*,#838,.F.);
#1173=ORIENTED_EDGE('',*,*,#839,.T.);
#1174=ORIENTED_EDGE('',*,*,#692,.T.);
#1175=ORIENTED_EDGE('',*,*,#839,.F.);
#1176=ORIENTED_EDGE('',*,*,#711,.F.);
#1177=ORIENTED_EDGE('',*,*,#840,.T.);
#1178=ORIENTED_EDGE('',*,*,#841,.T.);
#1179=ORIENTED_EDGE('',*,*,#840,.F.);
#1180=ORIENTED_EDGE('',*,*,#841,.F.);
#1181=ORIENTED_EDGE('',*,*,#842,.T.);
#1182=ORIENTED_EDGE('',*,*,#843,.T.);
#1183=ORIENTED_EDGE('',*,*,#842,.F.);
#1184=ORIENTED_EDGE('',*,*,#844,.T.);
#1185=ORIENTED_EDGE('',*,*,#843,.F.);
#1186=ORIENTED_EDGE('',*,*,#844,.F.);
#1187=ORIENTED_EDGE('',*,*,#845,.T.);
#1188=ORIENTED_EDGE('',*,*,#693,.T.);
#1189=ORIENTED_EDGE('',*,*,#845,.F.);
#1190=ORIENTED_EDGE('',*,*,#712,.F.);
#1191=ORIENTED_EDGE('',*,*,#846,.T.);
#1192=ORIENTED_EDGE('',*,*,#847,.T.);
#1193=ORIENTED_EDGE('',*,*,#846,.F.);
#1194=ORIENTED_EDGE('',*,*,#847,.F.);
#1195=ORIENTED_EDGE('',*,*,#848,.T.);
#1196=ORIENTED_EDGE('',*,*,#849,.T.);
#1197=ORIENTED_EDGE('',*,*,#848,.F.);
#1198=ORIENTED_EDGE('',*,*,#850,.T.);
#1199=ORIENTED_EDGE('',*,*,#849,.F.);
#1200=ORIENTED_EDGE('',*,*,#850,.F.);
#1201=ORIENTED_EDGE('',*,*,#851,.T.);
#1202=ORIENTED_EDGE('',*,*,#694,.T.);
#1203=ORIENTED_EDGE('',*,*,#851,.F.);
#1204=ORIENTED_EDGE('',*,*,#713,.F.);
#1205=ORIENTED_EDGE('',*,*,#852,.T.);
#1206=ORIENTED_EDGE('',*,*,#853,.T.);
#1207=ORIENTED_EDGE('',*,*,#852,.F.);
#1208=ORIENTED_EDGE('',*,*,#853,.F.);
#1209=ORIENTED_EDGE('',*,*,#854,.T.);
#1210=ORIENTED_EDGE('',*,*,#855,.T.);
#1211=ORIENTED_EDGE('',*,*,#854,.F.);
#1212=ORIENTED_EDGE('',*,*,#856,.T.);
#1213=ORIENTED_EDGE('',*,*,#855,.F.);
#1214=ORIENTED_EDGE('',*,*,#856,.F.);
#1215=ORIENTED_EDGE('',*,*,#857,.T.);
#1216=ORIENTED_EDGE('',*,*,#695,.T.);
#1217=ORIENTED_EDGE('',*,*,#857,.F.);
#1218=PLANE('',#1345);
#1219=PLANE('',#1360);
#1220=PLANE('',#1370);
#1221=PLANE('',#1378);
#1222=PLANE('',#1381);
#1223=PLANE('',#1384);
#1224=PLANE('',#1387);
#1225=PLANE('',#1388);
#1226=PLANE('',#1391);
#1227=PLANE('',#1394);
#1228=PLANE('',#1397);
#1229=PLANE('',#1401);
#1230=PLANE('',#1403);
#1231=PLANE('',#1405);
#1232=PLANE('',#1407);
#1233=PLANE('',#1408);
#1234=PLANE('',#1409);
#1235=PLANE('',#1427);
#1236=PLANE('',#1440);
#1237=PLANE('',#1441);
#1238=PLANE('',#1442);
#1239=PLANE('',#1443);
#1240=PLANE('',#1444);
#1241=PLANE('',#1445);
#1242=PLANE('',#1446);
#1243=PLANE('',#1447);
#1244=PLANE('',#1448);
#1245=PLANE('',#1449);
#1246=PLANE('',#1454);
#1247=PLANE('',#1461);
#1248=PLANE('',#1468);
#1249=PLANE('',#1475);
#1250=PLANE('',#1482);
#1251=PLANE('',#1489);
#1252=ADVANCED_FACE('',(#87,#60,#61,#62,#63,#64,#65,#66,#67),#1218,.F.);
#1253=ADVANCED_FACE('',(#88),#37,.F.);
#1254=ADVANCED_FACE('',(#89,#68,#69,#70,#71,#72,#73,#74),#1219,.F.);
#1255=ADVANCED_FACE('',(#90),#38,.F.);
#1256=ADVANCED_FACE('',(#91,#75,#76),#1220,.T.);
#1257=ADVANCED_FACE('',(#92),#15,.F.);
#1258=ADVANCED_FACE('',(#93),#1221,.T.);
#1259=ADVANCED_FACE('',(#94),#16,.F.);
#1260=ADVANCED_FACE('',(#95),#1222,.T.);
#1261=ADVANCED_FACE('',(#96),#17,.F.);
#1262=ADVANCED_FACE('',(#97),#1223,.T.);
#1263=ADVANCED_FACE('',(#98),#18,.F.);
#1264=ADVANCED_FACE('',(#99),#1224,.T.);
#1265=ADVANCED_FACE('',(#100),#1225,.T.);
#1266=ADVANCED_FACE('',(#101),#39,.F.);
#1267=ADVANCED_FACE('',(#102),#1226,.T.);
#1268=ADVANCED_FACE('',(#103),#40,.F.);
#1269=ADVANCED_FACE('',(#104),#1227,.T.);
#1270=ADVANCED_FACE('',(#105),#41,.F.);
#1271=ADVANCED_FACE('',(#106),#1228,.T.);
#1272=ADVANCED_FACE('',(#107),#42,.F.);
#1273=ADVANCED_FACE('',(#108),#19,.F.);
#1274=ADVANCED_FACE('',(#109),#1229,.T.);
#1275=ADVANCED_FACE('',(#110),#20,.F.);
#1276=ADVANCED_FACE('',(#111),#1230,.T.);
#1277=ADVANCED_FACE('',(#112),#21,.F.);
#1278=ADVANCED_FACE('',(#113),#1231,.T.);
#1279=ADVANCED_FACE('',(#114),#22,.F.);
#1280=ADVANCED_FACE('',(#115),#1232,.T.);
#1281=ADVANCED_FACE('',(#116),#1233,.T.);
#1282=ADVANCED_FACE('',(#117,#77,#78),#1234,.T.);
#1283=ADVANCED_FACE('',(#118),#23,.F.);
#1284=ADVANCED_FACE('',(#119),#43,.F.);
#1285=ADVANCED_FACE('',(#120),#24,.F.);
#1286=ADVANCED_FACE('',(#121),#25,.F.);
#1287=ADVANCED_FACE('',(#122),#44,.F.);
#1288=ADVANCED_FACE('',(#123),#26,.F.);
#1289=ADVANCED_FACE('',(#124),#45,.T.);
#1290=ADVANCED_FACE('',(#125,#79,#80),#1235,.T.);
#1291=ADVANCED_FACE('',(#126),#27,.F.);
#1292=ADVANCED_FACE('',(#127),#46,.F.);
#1293=ADVANCED_FACE('',(#128),#28,.F.);
#1294=ADVANCED_FACE('',(#129),#29,.F.);
#1295=ADVANCED_FACE('',(#130),#47,.F.);
#1296=ADVANCED_FACE('',(#131),#30,.F.);
#1297=ADVANCED_FACE('',(#132),#1236,.F.);
#1298=ADVANCED_FACE('',(#133),#1237,.T.);
#1299=ADVANCED_FACE('',(#134),#1238,.T.);
#1300=ADVANCED_FACE('',(#135),#1239,.T.);
#1301=ADVANCED_FACE('',(#136),#1240,.T.);
#1302=ADVANCED_FACE('',(#137),#1241,.T.);
#1303=ADVANCED_FACE('',(#138),#1242,.T.);
#1304=ADVANCED_FACE('',(#139),#1243,.T.);
#1305=ADVANCED_FACE('',(#140),#1244,.T.);
#1306=ADVANCED_FACE('',(#141),#1245,.T.);
#1307=ADVANCED_FACE('',(#142),#48,.F.);
#1308=ADVANCED_FACE('',(#143),#31,.F.);
#1309=ADVANCED_FACE('',(#144,#81),#1246,.T.);
#1310=ADVANCED_FACE('',(#145),#49,.F.);
#1311=ADVANCED_FACE('',(#146),#50,.F.);
#1312=ADVANCED_FACE('',(#147),#32,.F.);
#1313=ADVANCED_FACE('',(#148,#82),#1247,.T.);
#1314=ADVANCED_FACE('',(#149),#51,.F.);
#1315=ADVANCED_FACE('',(#150),#52,.F.);
#1316=ADVANCED_FACE('',(#151),#33,.F.);
#1317=ADVANCED_FACE('',(#152,#83),#1248,.T.);
#1318=ADVANCED_FACE('',(#153),#53,.F.);
#1319=ADVANCED_FACE('',(#154),#54,.F.);
#1320=ADVANCED_FACE('',(#155),#34,.F.);
#1321=ADVANCED_FACE('',(#156,#84),#1249,.T.);
#1322=ADVANCED_FACE('',(#157),#55,.F.);
#1323=ADVANCED_FACE('',(#158),#56,.F.);
#1324=ADVANCED_FACE('',(#159),#35,.F.);
#1325=ADVANCED_FACE('',(#160,#85),#1250,.T.);
#1326=ADVANCED_FACE('',(#161),#57,.F.);
#1327=ADVANCED_FACE('',(#162),#58,.F.);
#1328=ADVANCED_FACE('',(#163),#36,.F.);
#1329=ADVANCED_FACE('',(#164,#86),#1251,.T.);
#1330=ADVANCED_FACE('',(#165),#59,.F.);
#1331=CLOSED_SHELL('',(#1252,#1253,#1254,#1255,#1256,#1257,#1258,#1259,
#1260,#1261,#1262,#1263,#1264,#1265,#1266,#1267,#1268,#1269,#1270,#1271,
#1272,#1273,#1274,#1275,#1276,#1277,#1278,#1279,#1280,#1281,#1282,#1283,
#1284,#1285,#1286,#1287,#1288,#1289,#1290,#1291,#1292,#1293,#1294,#1295,
#1296,#1297,#1298,#1299,#1300,#1301,#1302,#1303,#1304,#1305,#1306,#1307,
#1308,#1309,#1310,#1311,#1312,#1313,#1314,#1315,#1316,#1317,#1318,#1319,
#1320,#1321,#1322,#1323,#1324,#1325,#1326,#1327,#1328,#1329,#1330));
#1332=DERIVED_UNIT_ELEMENT(#1334,1.);
#1333=DERIVED_UNIT_ELEMENT(#2279,-3.);
#1334=(
MASS_UNIT()
NAMED_UNIT(*)
SI_UNIT(.KILO.,.GRAM.)
);
#1335=DERIVED_UNIT((#1332,#1333));
#1336=MEASURE_REPRESENTATION_ITEM('density measure',
POSITIVE_RATIO_MEASURE(7850.),#1335);
#1337=PROPERTY_DEFINITION_REPRESENTATION(#1342,#1339);
#1338=PROPERTY_DEFINITION_REPRESENTATION(#1343,#1340);
#1339=REPRESENTATION('material name',(#1341),#2276);
#1340=REPRESENTATION('density',(#1336),#2276);
#1341=DESCRIPTIVE_REPRESENTATION_ITEM('\X2\94A2\X0\','\X2\94A2\X0\');
#1342=PROPERTY_DEFINITION('material property','material name',#2286);
#1343=PROPERTY_DEFINITION('material property','density of part',#2286);
#1344=AXIS2_PLACEMENT_3D('',#1900,#1492,#1493);
#1345=AXIS2_PLACEMENT_3D('',#1901,#1494,#1495);
#1346=AXIS2_PLACEMENT_3D('',#1916,#1502,#1503);
#1347=AXIS2_PLACEMENT_3D('',#1927,#1509,#1510);
#1348=AXIS2_PLACEMENT_3D('',#1929,#1511,#1512);
#1349=AXIS2_PLACEMENT_3D('',#1931,#1513,#1514);
#1350=AXIS2_PLACEMENT_3D('',#1933,#1515,#1516);
#1351=AXIS2_PLACEMENT_3D('',#1935,#1517,#1518);
#1352=AXIS2_PLACEMENT_3D('',#1937,#1519,#1520);
#1353=AXIS2_PLACEMENT_3D('',#1942,#1522,#1523);
#1354=AXIS2_PLACEMENT_3D('',#1946,#1525,#1526);
#1355=AXIS2_PLACEMENT_3D('',#1950,#1528,#1529);
#1356=AXIS2_PLACEMENT_3D('',#1953,#1531,#1532);
#1357=AXIS2_PLACEMENT_3D('',#1955,#1533,#1534);
#1358=AXIS2_PLACEMENT_3D('',#1956,#1535,#1536);
#1359=AXIS2_PLACEMENT_3D('',#1959,#1538,#1539);
#1360=AXIS2_PLACEMENT_3D('',#1960,#1540,#1541);
#1361=AXIS2_PLACEMENT_3D('',#1962,#1542,#1543);
#1362=AXIS2_PLACEMENT_3D('',#1964,#1544,#1545);
#1363=AXIS2_PLACEMENT_3D('',#1966,#1546,#1547);
#1364=AXIS2_PLACEMENT_3D('',#1968,#1548,#1549);
#1365=AXIS2_PLACEMENT_3D('',#1970,#1550,#1551);
#1366=AXIS2_PLACEMENT_3D('',#1972,#1552,#1553);
#1367=AXIS2_PLACEMENT_3D('',#1974,#1554,#1555);
#1368=AXIS2_PLACEMENT_3D('',#1975,#1556,#1557);
#1369=AXIS2_PLACEMENT_3D('',#1977,#1558,#1559);
#1370=AXIS2_PLACEMENT_3D('',#1979,#1561,#1562);
#1371=AXIS2_PLACEMENT_3D('',#1986,#1565,#1566);
#1372=AXIS2_PLACEMENT_3D('',#1990,#1568,#1569);
#1373=AXIS2_PLACEMENT_3D('',#1994,#1571,#1572);
#1374=AXIS2_PLACEMENT_3D('',#1998,#1574,#1575);
#1375=AXIS2_PLACEMENT_3D('',#2002,#1577,#1578);
#1376=AXIS2_PLACEMENT_3D('',#2004,#1580,#1581);
#1377=AXIS2_PLACEMENT_3D('',#2008,#1583,#1584);
#1378=AXIS2_PLACEMENT_3D('',#2010,#1586,#1587);
#1379=AXIS2_PLACEMENT_3D('',#2014,#1590,#1591);
#1380=AXIS2_PLACEMENT_3D('',#2016,#1592,#1593);
#1381=AXIS2_PLACEMENT_3D('',#2018,#1595,#1596);
#1382=AXIS2_PLACEMENT_3D('',#2022,#1599,#1600);
#1383=AXIS2_PLACEMENT_3D('',#2024,#1601,#1602);
#1384=AXIS2_PLACEMENT_3D('',#2026,#1604,#1605);
#1385=AXIS2_PLACEMENT_3D('',#2030,#1608,#1609);
#1386=AXIS2_PLACEMENT_3D('',#2032,#1610,#1611);
#1387=AXIS2_PLACEMENT_3D('',#2034,#1613,#1614);
#1388=AXIS2_PLACEMENT_3D('',#2036,#1616,#1617);
#1389=AXIS2_PLACEMENT_3D('',#2042,#1621,#1622);
#1390=AXIS2_PLACEMENT_3D('',#2044,#1623,#1624);
#1391=AXIS2_PLACEMENT_3D('',#2046,#1626,#1627);
#1392=AXIS2_PLACEMENT_3D('',#2050,#1630,#1631);
#1393=AXIS2_PLACEMENT_3D('',#2052,#1632,#1633);
#1394=AXIS2_PLACEMENT_3D('',#2054,#1635,#1636);
#1395=AXIS2_PLACEMENT_3D('',#2058,#1639,#1640);
#1396=AXIS2_PLACEMENT_3D('',#2060,#1641,#1642);
#1397=AXIS2_PLACEMENT_3D('',#2062,#1644,#1645);
#1398=AXIS2_PLACEMENT_3D('',#2066,#1648,#1649);
#1399=AXIS2_PLACEMENT_3D('',#2067,#1650,#1651);
#1400=AXIS2_PLACEMENT_3D('',#2068,#1652,#1653);
#1401=AXIS2_PLACEMENT_3D('',#2071,#1656,#1657);
#1402=AXIS2_PLACEMENT_3D('',#2073,#1659,#1660);
#1403=AXIS2_PLACEMENT_3D('',#2075,#1662,#1663);
#1404=AXIS2_PLACEMENT_3D('',#2077,#1665,#1666);
#1405=AXIS2_PLACEMENT_3D('',#2079,#1668,#1669);
#1406=AXIS2_PLACEMENT_3D('',#2081,#1671,#1672);
#1407=AXIS2_PLACEMENT_3D('',#2083,#1674,#1675);
#1408=AXIS2_PLACEMENT_3D('',#2084,#1676,#1677);
#1409=AXIS2_PLACEMENT_3D('',#2090,#1681,#1682);
#1410=AXIS2_PLACEMENT_3D('',#2101,#1689,#1690);
#1411=AXIS2_PLACEMENT_3D('',#2103,#1691,#1692);
#1412=AXIS2_PLACEMENT_3D('',#2104,#1693,#1694);
#1413=AXIS2_PLACEMENT_3D('',#2107,#1695,#1696);
#1414=AXIS2_PLACEMENT_3D('',#2109,#1698,#1699);
#1415=AXIS2_PLACEMENT_3D('',#2110,#1700,#1701);
#1416=AXIS2_PLACEMENT_3D('',#2114,#1703,#1704);
#1417=AXIS2_PLACEMENT_3D('',#2115,#1705,#1706);
#1418=AXIS2_PLACEMENT_3D('',#2116,#1707,#1708);
#1419=AXIS2_PLACEMENT_3D('',#2119,#1710,#1711);
#1420=AXIS2_PLACEMENT_3D('',#2122,#1712,#1713);
#1421=AXIS2_PLACEMENT_3D('',#2124,#1715,#1716);
#1422=AXIS2_PLACEMENT_3D('',#2125,#1717,#1718);
#1423=AXIS2_PLACEMENT_3D('',#2129,#1720,#1721);
#1424=AXIS2_PLACEMENT_3D('',#2130,#1722,#1723);
#1425=AXIS2_PLACEMENT_3D('',#2131,#1724,#1725);
#1426=AXIS2_PLACEMENT_3D('',#2134,#1727,#1728);
#1427=AXIS2_PLACEMENT_3D('',#2136,#1730,#1731);
#1428=AXIS2_PLACEMENT_3D('',#2146,#1737,#1738);
#1429=AXIS2_PLACEMENT_3D('',#2148,#1739,#1740);
#1430=AXIS2_PLACEMENT_3D('',#2149,#1741,#1742);
#1431=AXIS2_PLACEMENT_3D('',#2151,#1743,#1744);
#1432=AXIS2_PLACEMENT_3D('',#2153,#1746,#1747);
#1433=AXIS2_PLACEMENT_3D('',#2155,#1748,#1749);
#1434=AXIS2_PLACEMENT_3D('',#2157,#1751,#1752);
#1435=AXIS2_PLACEMENT_3D('',#2160,#1754,#1755);
#1436=AXIS2_PLACEMENT_3D('',#2162,#1756,#1757);
#1437=AXIS2_PLACEMENT_3D('',#2164,#1759,#1760);
#1438=AXIS2_PLACEMENT_3D('',#2166,#1761,#1762);
#1439=AXIS2_PLACEMENT_3D('',#2168,#1764,#1765);
#1440=AXIS2_PLACEMENT_3D('',#2171,#1767,#1768);
#1441=AXIS2_PLACEMENT_3D('',#2173,#1770,#1771);
#1442=AXIS2_PLACEMENT_3D('',#2174,#1772,#1773);
#1443=AXIS2_PLACEMENT_3D('',#2178,#1776,#1777);
#1444=AXIS2_PLACEMENT_3D('',#2182,#1780,#1781);
#1445=AXIS2_PLACEMENT_3D('',#2184,#1783,#1784);
#1446=AXIS2_PLACEMENT_3D('',#2185,#1785,#1786);
#1447=AXIS2_PLACEMENT_3D('',#2191,#1790,#1791);
#1448=AXIS2_PLACEMENT_3D('',#2193,#1793,#1794);
#1449=AXIS2_PLACEMENT_3D('',#2195,#1796,#1797);
#1450=AXIS2_PLACEMENT_3D('',#2196,#1798,#1799);
#1451=AXIS2_PLACEMENT_3D('',#2199,#1801,#1802);
#1452=AXIS2_PLACEMENT_3D('',#2200,#1803,#1804);
#1453=AXIS2_PLACEMENT_3D('',#2203,#1806,#1807);
#1454=AXIS2_PLACEMENT_3D('',#2204,#1808,#1809);
#1455=AXIS2_PLACEMENT_3D('',#2206,#1810,#1811);
#1456=AXIS2_PLACEMENT_3D('',#2207,#1812,#1813);
#1457=AXIS2_PLACEMENT_3D('',#2209,#1815,#1816);
#1458=AXIS2_PLACEMENT_3D('',#2212,#1818,#1819);
#1459=AXIS2_PLACEMENT_3D('',#2213,#1820,#1821);
#1460=AXIS2_PLACEMENT_3D('',#2216,#1823,#1824);
#1461=AXIS2_PLACEMENT_3D('',#2217,#1825,#1826);
#1462=AXIS2_PLACEMENT_3D('',#2219,#1827,#1828);
#1463=AXIS2_PLACEMENT_3D('',#2220,#1829,#1830);
#1464=AXIS2_PLACEMENT_3D('',#2222,#1832,#1833);
#1465=AXIS2_PLACEMENT_3D('',#2225,#1835,#1836);
#1466=AXIS2_PLACEMENT_3D('',#2226,#1837,#1838);
#1467=AXIS2_PLACEMENT_3D('',#2229,#1840,#1841);
#1468=AXIS2_PLACEMENT_3D('',#2230,#1842,#1843);
#1469=AXIS2_PLACEMENT_3D('',#2232,#1844,#1845);
#1470=AXIS2_PLACEMENT_3D('',#2233,#1846,#1847);
#1471=AXIS2_PLACEMENT_3D('',#2235,#1849,#1850);
#1472=AXIS2_PLACEMENT_3D('',#2238,#1852,#1853);
#1473=AXIS2_PLACEMENT_3D('',#2239,#1854,#1855);
#1474=AXIS2_PLACEMENT_3D('',#2242,#1857,#1858);
#1475=AXIS2_PLACEMENT_3D('',#2243,#1859,#1860);
#1476=AXIS2_PLACEMENT_3D('',#2245,#1861,#1862);
#1477=AXIS2_PLACEMENT_3D('',#2246,#1863,#1864);
#1478=AXIS2_PLACEMENT_3D('',#2248,#1866,#1867);
#1479=AXIS2_PLACEMENT_3D('',#2251,#1869,#1870);
#1480=AXIS2_PLACEMENT_3D('',#2252,#1871,#1872);
#1481=AXIS2_PLACEMENT_3D('',#2255,#1874,#1875);
#1482=AXIS2_PLACEMENT_3D('',#2256,#1876,#1877);
#1483=AXIS2_PLACEMENT_3D('',#2258,#1878,#1879);
#1484=AXIS2_PLACEMENT_3D('',#2259,#1880,#1881);
#1485=AXIS2_PLACEMENT_3D('',#2261,#1883,#1884);
#1486=AXIS2_PLACEMENT_3D('',#2264,#1886,#1887);
#1487=AXIS2_PLACEMENT_3D('',#2265,#1888,#1889);
#1488=AXIS2_PLACEMENT_3D('',#2268,#1891,#1892);
#1489=AXIS2_PLACEMENT_3D('',#2269,#1893,#1894);
#1490=AXIS2_PLACEMENT_3D('',#2271,#1895,#1896);
#1491=AXIS2_PLACEMENT_3D('',#2272,#1897,#1898);
#1492=DIRECTION('axis',(0.,0.,1.));
#1493=DIRECTION('refdir',(1.,0.,0.));
#1494=DIRECTION('center_axis',(0.,1.,0.));
#1495=DIRECTION('ref_axis',(1.,0.,0.));
#1496=DIRECTION('',(0.,0.,1.));
#1497=DIRECTION('',(1.,0.,0.));
#1498=DIRECTION('',(0.,0.,-1.));
#1499=DIRECTION('',(1.,0.,0.));
#1500=DIRECTION('',(0.,0.,1.));
#1501=DIRECTION('',(1.,0.,0.));
#1502=DIRECTION('center_axis',(0.,1.,0.));
#1503=DIRECTION('ref_axis',(0.,0.,-1.));
#1504=DIRECTION('',(-1.,0.,0.));
#1505=DIRECTION('',(0.,0.,1.));
#1506=DIRECTION('',(-1.,0.,0.));
#1507=DIRECTION('',(0.,0.,-1.));
#1508=DIRECTION('',(-1.,0.,0.));
#1509=DIRECTION('center_axis',(0.,-1.,0.));
#1510=DIRECTION('ref_axis',(-1.,0.,0.));
#1511=DIRECTION('center_axis',(0.,-1.,0.));
#1512=DIRECTION('ref_axis',(-1.,0.,0.));
#1513=DIRECTION('center_axis',(0.,-1.,0.));
#1514=DIRECTION('ref_axis',(-1.,0.,0.));
#1515=DIRECTION('center_axis',(0.,-1.,0.));
#1516=DIRECTION('ref_axis',(-1.,0.,0.));
#1517=DIRECTION('center_axis',(0.,-1.,0.));
#1518=DIRECTION('ref_axis',(-1.,0.,0.));
#1519=DIRECTION('center_axis',(0.,-1.,0.));
#1520=DIRECTION('ref_axis',(-1.,0.,0.));
#1521=DIRECTION('',(1.227533646241E-11,-1.227533646241E-11,1.));
#1522=DIRECTION('center_axis',(0.,-1.,0.));
#1523=DIRECTION('ref_axis',(0.,0.,-1.));
#1524=DIRECTION('',(1.,-4.910134776262E-11,-4.910134776262E-11));
#1525=DIRECTION('center_axis',(0.,-1.,0.));
#1526=DIRECTION('ref_axis',(-1.,0.,0.));
#1527=DIRECTION('',(-1.227604700515E-11,-1.227533646241E-11,-1.));
#1528=DIRECTION('center_axis',(0.,-1.,0.));
#1529=DIRECTION('ref_axis',(0.,0.,1.));
#1530=DIRECTION('',(-1.,-4.910134776262E-11,4.910134776262E-11));
#1531=DIRECTION('center_axis',(0.,-1.,0.));
#1532=DIRECTION('ref_axis',(1.,0.,0.));
#1533=DIRECTION('center_axis',(0.,-1.,0.));
#1534=DIRECTION('ref_axis',(1.,0.,0.));
#1535=DIRECTION('center_axis',(0.,1.,0.));
#1536=DIRECTION('ref_axis',(1.,0.,0.));
#1537=DIRECTION('',(0.,1.,0.));
#1538=DIRECTION('center_axis',(0.,1.,0.));
#1539=DIRECTION('ref_axis',(-1.,0.,0.));
#1540=DIRECTION('center_axis',(0.,-1.,0.));
#1541=DIRECTION('ref_axis',(1.,0.,0.));
#1542=DIRECTION('center_axis',(0.,-1.,0.));
#1543=DIRECTION('ref_axis',(1.,0.,0.));
#1544=DIRECTION('center_axis',(0.,-1.,0.));
#1545=DIRECTION('ref_axis',(-1.,0.,0.));
#1546=DIRECTION('center_axis',(0.,-1.,0.));
#1547=DIRECTION('ref_axis',(-1.,0.,0.));
#1548=DIRECTION('center_axis',(0.,-1.,0.));
#1549=DIRECTION('ref_axis',(-1.,0.,0.));
#1550=DIRECTION('center_axis',(0.,-1.,0.));
#1551=DIRECTION('ref_axis',(-1.,0.,0.));
#1552=DIRECTION('center_axis',(0.,-1.,0.));
#1553=DIRECTION('ref_axis',(-1.,0.,0.));
#1554=DIRECTION('center_axis',(0.,-1.,0.));
#1555=DIRECTION('ref_axis',(-1.,0.,0.));
#1556=DIRECTION('center_axis',(0.,-1.,0.));
#1557=DIRECTION('ref_axis',(1.,0.,0.));
#1558=DIRECTION('center_axis',(0.,-1.,0.));
#1559=DIRECTION('ref_axis',(1.,0.,0.));
#1560=DIRECTION('',(0.,-1.,0.));
#1561=DIRECTION('center_axis',(0.,1.,0.));
#1562=DIRECTION('ref_axis',(1.,0.,0.));
#1563=DIRECTION('',(0.,0.,-1.));
#1564=DIRECTION('',(-1.,0.,0.));
#1565=DIRECTION('center_axis',(0.,1.,0.));
#1566=DIRECTION('ref_axis',(0.,0.,-1.));
#1567=DIRECTION('',(1.,0.,0.));
#1568=DIRECTION('center_axis',(0.,-1.,0.));
#1569=DIRECTION('ref_axis',(0.,0.,-1.));
#1570=DIRECTION('',(-6.008722486129E-11,-6.008740249698E-11,1.));
#1571=DIRECTION('center_axis',(0.,-1.,0.));
#1572=DIRECTION('ref_axis',(1.,0.,0.));
#1573=DIRECTION('',(-1.,-2.403496193006E-10,-2.403496193006E-10));
#1574=DIRECTION('center_axis',(0.,-1.,0.));
#1575=DIRECTION('ref_axis',(0.,0.,1.));
#1576=DIRECTION('',(6.008740249698E-11,-6.008740249698E-11,-1.));
#1577=DIRECTION('center_axis',(0.,-1.,0.));
#1578=DIRECTION('ref_axis',(-1.,0.,0.));
#1579=DIRECTION('',(1.,-2.403496193006E-10,2.403496193006E-10));
#1580=DIRECTION('center_axis',(0.,1.,0.));
#1581=DIRECTION('ref_axis',(0.,0.,-1.));
#1582=DIRECTION('',(1.63664327788011E-8,-0.707106781186547,0.707106781186547));
#1583=DIRECTION('center_axis',(0.,-1.,0.));
#1584=DIRECTION('ref_axis',(0.,0.,-1.));
#1585=DIRECTION('',(-0.707106781186547,-0.707106781186547,-1.78809087912612E-8));
#1586=DIRECTION('center_axis',(-0.707106781186548,0.707106781186548,0.));
#1587=DIRECTION('ref_axis',(-0.707106781186548,-0.707106781186548,0.));
#1588=DIRECTION('',(-3.755467078764E-11,-3.755502605902E-11,1.));
#1589=DIRECTION('',(-0.707106781186547,-0.707106781186547,1.63664359189911E-8));
#1590=DIRECTION('center_axis',(0.,1.,0.));
#1591=DIRECTION('ref_axis',(0.707106780849876,0.,0.707106781523219));
#1592=DIRECTION('center_axis',(0.,-1.,0.));
#1593=DIRECTION('ref_axis',(1.,0.,0.));
#1594=DIRECTION('',(1.78809087912612E-8,-0.707106781186547,-0.707106781186547));
#1595=DIRECTION('center_axis',(0.,0.707106781186548,-0.707106781186548));
#1596=DIRECTION('ref_axis',(0.,-0.707106781186548,-0.707106781186548));
#1597=DIRECTION('',(-1.,-1.502201078739E-10,-1.502179762456E-10));
#1598=DIRECTION('',(-1.63664378031011E-8,-0.707106781186547,-0.707106781186547));
#1599=DIRECTION('center_axis',(0.,1.,0.));
#1600=DIRECTION('ref_axis',(-0.707106781523189,0.,0.707106780849906));
#1601=DIRECTION('center_axis',(0.,-1.,0.));
#1602=DIRECTION('ref_axis',(0.,0.,1.));
#1603=DIRECTION('',(0.707106781186547,-0.707106781186547,1.78809081632312E-8));
#1604=DIRECTION('center_axis',(0.707106781186548,0.707106781186548,0.));
#1605=DIRECTION('ref_axis',(0.707106781186548,-0.707106781186548,0.));
#1606=DIRECTION('',(3.755467078764E-11,-3.755502605902E-11,-1.));
#1607=DIRECTION('',(0.707106781186547,-0.707106781186547,-1.63664365470211E-8));
#1608=DIRECTION('center_axis',(0.,1.,0.));
#1609=DIRECTION('ref_axis',(0.,0.,-1.));
#1610=DIRECTION('center_axis',(0.,-1.,0.));
#1611=DIRECTION('ref_axis',(-1.,0.,0.));
#1612=DIRECTION('',(-1.78809113034112E-8,-0.707106781186547,0.707106781186547));
#1613=DIRECTION('center_axis',(0.,0.707106781186548,0.707106781186548));
#1614=DIRECTION('ref_axis',(0.,-0.707106781186548,0.707106781186548));
#1615=DIRECTION('',(1.,-1.502201078739E-10,1.502179762456E-10));
#1616=DIRECTION('center_axis',(0.,0.,1.));
#1617=DIRECTION('ref_axis',(1.,0.,0.));
#1618=DIRECTION('',(7.642775306441E-10,1.,-1.060040944595E-11));
#1619=DIRECTION('',(1.,-3.068692066831E-11,-3.068763121107E-11));
#1620=DIRECTION('',(9.867022762235E-10,1.,2.155315927444E-10));
#1621=DIRECTION('center_axis',(0.,1.,0.));
#1622=DIRECTION('ref_axis',(1.,0.,0.));
#1623=DIRECTION('center_axis',(0.,-1.,0.));
#1624=DIRECTION('ref_axis',(0.,0.,-1.));
#1625=DIRECTION('',(1.059952126753E-11,1.,7.642761983765E-10));
#1626=DIRECTION('center_axis',(-1.,0.,0.));
#1627=DIRECTION('ref_axis',(0.,0.,1.));
#1628=DIRECTION('',(7.671729980271E-12,-7.671729980271E-12,1.));
#1629=DIRECTION('',(-2.155315927444E-10,1.,9.867031644019E-10));
#1630=DIRECTION('center_axis',(0.,1.,0.));
#1631=DIRECTION('ref_axis',(0.,0.,1.));
#1632=DIRECTION('center_axis',(0.,-1.,0.));
#1633=DIRECTION('ref_axis',(1.,0.,0.));
#1634=DIRECTION('',(-7.642775306441E-10,1.,1.060040944595E-11));
#1635=DIRECTION('center_axis',(0.,0.,-1.));
#1636=DIRECTION('ref_axis',(-1.,0.,0.));
#1637=DIRECTION('',(-1.,-3.068692066831E-11,3.068763121107E-11));
#1638=DIRECTION('',(-9.867022762235E-10,1.,-2.155315927444E-10));
#1639=DIRECTION('center_axis',(0.,1.,0.));
#1640=DIRECTION('ref_axis',(-1.,0.,0.));
#1641=DIRECTION('center_axis',(0.,-1.,0.));
#1642=DIRECTION('ref_axis',(0.,0.,1.));
#1643=DIRECTION('',(-1.059774491069E-11,1.,-7.642761983765E-10));
#1644=DIRECTION('center_axis',(1.,0.,0.));
#1645=DIRECTION('ref_axis',(0.,0.,-1.));
#1646=DIRECTION('',(-7.671729980271E-12,-7.671729980271E-12,-1.));
#1647=DIRECTION('',(2.155324809228E-10,1.,-9.867031644019E-10));
#1648=DIRECTION('center_axis',(0.,1.,0.));
#1649=DIRECTION('ref_axis',(0.,0.,-1.));
#1650=DIRECTION('center_axis',(0.,-1.,0.));
#1651=DIRECTION('ref_axis',(-1.,0.,0.));
#1652=DIRECTION('center_axis',(0.,-1.,0.));
#1653=DIRECTION('ref_axis',(0.,0.,-1.));
#1654=DIRECTION('',(-0.707106781186547,-0.707106781186547,1.72036801821911E-8));
#1655=DIRECTION('',(1.72323978021012E-8,-0.707106781186547,-0.707106781186547));
#1656=DIRECTION('center_axis',(0.,-0.707106781186548,0.707106781186548));
#1657=DIRECTION('ref_axis',(0.,-0.707106781186548,-0.707106781186548));
#1658=DIRECTION('',(-1.72036814382712E-8,-0.707106781186547,-0.707106781186547));
#1659=DIRECTION('center_axis',(0.,-1.,0.));
#1660=DIRECTION('ref_axis',(0.,0.,-1.));
#1661=DIRECTION('',(0.707106781186547,-0.707106781186547,1.72323978021012E-8));
#1662=DIRECTION('center_axis',(-0.707106781186548,-0.707106781186548,0.));
#1663=DIRECTION('ref_axis',(0.707106781186548,-0.707106781186548,0.));
#1664=DIRECTION('',(0.707106781186547,-0.707106781186547,-1.72036801821911E-8));
#1665=DIRECTION('center_axis',(0.,-1.,0.));
#1666=DIRECTION('ref_axis',(0.707106781180295,0.,0.7071067811928));
#1667=DIRECTION('',(-1.72323952899512E-8,-0.707106781186547,0.707106781186547));
#1668=DIRECTION('center_axis',(0.,-0.707106781186548,-0.707106781186548));
#1669=DIRECTION('ref_axis',(0.,-0.707106781186548,0.707106781186548));
#1670=DIRECTION('',(1.72036789261212E-8,-0.707106781186547,0.707106781186547));
#1671=DIRECTION('center_axis',(0.,-1.,0.));
#1672=DIRECTION('ref_axis',(-0.707106781192876,0.,0.707106781180219));
#1673=DIRECTION('',(-0.707106781186547,-0.707106781186547,-1.72323978021012E-8));
#1674=DIRECTION('center_axis',(0.707106781186548,-0.707106781186548,0.));
#1675=DIRECTION('ref_axis',(-0.707106781186548,-0.707106781186548,0.));
#1676=DIRECTION('center_axis',(0.707106781186548,0.707106781186548,0.));
#1677=DIRECTION('ref_axis',(0.707106781186548,-0.707106781186548,0.));
#1678=DIRECTION('',(0.707106781186548,-0.707106781186548,0.));
#1679=DIRECTION('',(-0.707106781186548,0.707106781186548,0.));
#1680=DIRECTION('',(0.,0.,-1.));
#1681=DIRECTION('center_axis',(0.,0.,-1.));
#1682=DIRECTION('ref_axis',(-1.,0.,0.));
#1683=DIRECTION('',(0.,1.,0.));
#1684=DIRECTION('',(-0.707106781186548,-0.707106781186548,0.));
#1685=DIRECTION('',(0.,1.,0.));
#1686=DIRECTION('',(1.,0.,0.));
#1687=DIRECTION('',(0.,1.,0.));
#1688=DIRECTION('',(0.,1.,0.));
#1689=DIRECTION('center_axis',(0.,0.,1.));
#1690=DIRECTION('ref_axis',(-1.,0.,0.));
#1691=DIRECTION('center_axis',(0.,0.,1.));
#1692=DIRECTION('ref_axis',(-1.,0.,0.));
#1693=DIRECTION('center_axis',(0.,0.,-1.));
#1694=DIRECTION('ref_axis',(1.,0.,0.));
#1695=DIRECTION('center_axis',(0.,0.,1.));
#1696=DIRECTION('ref_axis',(-1.,0.,0.));
#1697=DIRECTION('',(-0.707106781186548,8.65956056235493E-17,-0.707106781186548));
#1698=DIRECTION('center_axis',(0.,0.,1.));
#1699=DIRECTION('ref_axis',(-1.,0.,0.));
#1700=DIRECTION('center_axis',(0.,0.,1.));
#1701=DIRECTION('ref_axis',(-1.,0.,0.));
#1702=DIRECTION('',(0.,0.,1.));
#1703=DIRECTION('center_axis',(0.,0.,1.));
#1704=DIRECTION('ref_axis',(-1.,0.,0.));
#1705=DIRECTION('center_axis',(0.,0.,1.));
#1706=DIRECTION('ref_axis',(-1.,0.,0.));
#1707=DIRECTION('center_axis',(0.,0.,-1.));
#1708=DIRECTION('ref_axis',(1.,0.,0.));
#1709=DIRECTION('',(-0.857167300702112,1.04972719113862E-16,-0.515038074910054));
#1710=DIRECTION('center_axis',(0.,0.,-1.));
#1711=DIRECTION('ref_axis',(1.,0.,0.));
#1712=DIRECTION('center_axis',(0.,0.,1.));
#1713=DIRECTION('ref_axis',(-1.,0.,0.));
#1714=DIRECTION('',(-0.707106781186548,8.65956056235493E-17,-0.707106781186548));
#1715=DIRECTION('center_axis',(0.,0.,1.));
#1716=DIRECTION('ref_axis',(-1.,0.,0.));
#1717=DIRECTION('center_axis',(0.,0.,1.));
#1718=DIRECTION('ref_axis',(-1.,0.,0.));
#1719=DIRECTION('',(0.,0.,1.));
#1720=DIRECTION('center_axis',(0.,0.,1.));
#1721=DIRECTION('ref_axis',(-1.,0.,0.));
#1722=DIRECTION('center_axis',(0.,0.,1.));
#1723=DIRECTION('ref_axis',(-1.,0.,0.));
#1724=DIRECTION('center_axis',(0.,0.,-1.));
#1725=DIRECTION('ref_axis',(1.,0.,0.));
#1726=DIRECTION('',(-0.857167300702112,1.04972719113862E-16,-0.515038074910054));
#1727=DIRECTION('center_axis',(0.,1.,0.));
#1728=DIRECTION('ref_axis',(-1.,0.,-1.22464679914735E-16));
#1729=DIRECTION('',(0.,1.,0.));
#1730=DIRECTION('center_axis',(0.,0.,1.));
#1731=DIRECTION('ref_axis',(1.,0.,0.));
#1732=DIRECTION('',(0.,1.,0.));
#1733=DIRECTION('',(1.,0.,0.));
#1734=DIRECTION('',(0.,1.,0.));
#1735=DIRECTION('',(0.707106781186548,0.707106781186548,0.));
#1736=DIRECTION('',(0.,1.,0.));
#1737=DIRECTION('center_axis',(0.,0.,1.));
#1738=DIRECTION('ref_axis',(-1.,0.,0.));
#1739=DIRECTION('center_axis',(0.,0.,1.));
#1740=DIRECTION('ref_axis',(-1.,0.,0.));
#1741=DIRECTION('center_axis',(0.,0.,1.));
#1742=DIRECTION('ref_axis',(-1.,0.,0.));
#1743=DIRECTION('center_axis',(0.,0.,1.));
#1744=DIRECTION('ref_axis',(-1.,0.,0.));
#1745=DIRECTION('',(0.707106781186548,8.65956056235493E-17,0.707106781186548));
#1746=DIRECTION('center_axis',(0.,0.,1.));
#1747=DIRECTION('ref_axis',(-1.,0.,0.));
#1748=DIRECTION('center_axis',(0.,0.,-1.));
#1749=DIRECTION('ref_axis',(-1.,0.,0.));
#1750=DIRECTION('',(0.,0.,1.));
#1751=DIRECTION('center_axis',(0.,0.,1.));
#1752=DIRECTION('ref_axis',(-1.,0.,0.));
#1753=DIRECTION('',(0.857167300702112,1.04972719113862E-16,0.515038074910054));
#1754=DIRECTION('center_axis',(0.,0.,1.));
#1755=DIRECTION('ref_axis',(-1.,0.,0.));
#1756=DIRECTION('center_axis',(0.,0.,1.));
#1757=DIRECTION('ref_axis',(-1.,0.,0.));
#1758=DIRECTION('',(0.707106781186548,8.65956056235493E-17,0.707106781186548));
#1759=DIRECTION('center_axis',(0.,0.,1.));
#1760=DIRECTION('ref_axis',(-1.,0.,0.));
#1761=DIRECTION('center_axis',(0.,0.,-1.));
#1762=DIRECTION('ref_axis',(-1.,0.,0.));
#1763=DIRECTION('',(0.,0.,1.));
#1764=DIRECTION('center_axis',(0.,0.,1.));
#1765=DIRECTION('ref_axis',(-1.,0.,0.));
#1766=DIRECTION('',(0.857167300702112,1.04972719113862E-16,0.515038074910054));
#1767=DIRECTION('center_axis',(-1.,0.,0.));
#1768=DIRECTION('ref_axis',(0.,0.,1.));
#1769=DIRECTION('',(0.,0.,1.));
#1770=DIRECTION('center_axis',(0.707106781186548,-0.707106781186548,0.));
#1771=DIRECTION('ref_axis',(0.707106781186548,0.707106781186548,0.));
#1772=DIRECTION('center_axis',(1.,0.,0.));
#1773=DIRECTION('ref_axis',(0.,0.,-1.));
#1774=DIRECTION('',(0.,0.,-1.));
#1775=DIRECTION('',(0.,1.,0.));
#1776=DIRECTION('center_axis',(0.,0.,1.));
#1777=DIRECTION('ref_axis',(1.,0.,0.));
#1778=DIRECTION('',(1.,0.,0.));
#1779=DIRECTION('',(0.,1.,0.));
#1780=DIRECTION('center_axis',(-1.,0.,0.));
#1781=DIRECTION('ref_axis',(0.,0.,1.));
#1782=DIRECTION('',(0.,0.,1.));
#1783=DIRECTION('center_axis',(0.,1.,0.));
#1784=DIRECTION('ref_axis',(1.,0.,0.));
#1785=DIRECTION('center_axis',(0.,1.,0.));
#1786=DIRECTION('ref_axis',(1.,0.,0.));
#1787=DIRECTION('',(0.,0.,-1.));
#1788=DIRECTION('',(-1.,0.,0.));
#1789=DIRECTION('',(0.,0.,1.));
#1790=DIRECTION('center_axis',(1.,0.,0.));
#1791=DIRECTION('ref_axis',(0.,0.,-1.));
#1792=DIRECTION('',(0.,1.,0.));
#1793=DIRECTION('center_axis',(0.,0.,-1.));
#1794=DIRECTION('ref_axis',(-1.,0.,0.));
#1795=DIRECTION('',(0.,1.,0.));
#1796=DIRECTION('center_axis',(-1.,0.,0.));
#1797=DIRECTION('ref_axis',(0.,0.,1.));
#1798=DIRECTION('center_axis',(0.,-1.,0.));
#1799=DIRECTION('ref_axis',(-1.,0.,0.));
#1800=DIRECTION('',(0.,-1.,0.));
#1801=DIRECTION('center_axis',(0.,-1.,0.));
#1802=DIRECTION('ref_axis',(-1.,0.,0.));
#1803=DIRECTION('center_axis',(0.,-1.,0.));
#1804=DIRECTION('ref_axis',(-1.,0.,0.));
#1805=DIRECTION('',(0.707106781186547,-0.707106781186547,8.65956056235493E-17));
#1806=DIRECTION('center_axis',(0.,-1.,0.));
#1807=DIRECTION('ref_axis',(-1.,0.,0.));
#1808=DIRECTION('center_axis',(0.,-1.,0.));
#1809=DIRECTION('ref_axis',(-1.,0.,0.));
#1810=DIRECTION('center_axis',(0.,-1.,0.));
#1811=DIRECTION('ref_axis',(-1.,0.,0.));
#1812=DIRECTION('center_axis',(0.,-1.,0.));
#1813=DIRECTION('ref_axis',(-1.,0.,0.));
#1814=DIRECTION('',(0.,-1.,0.));
#1815=DIRECTION('center_axis',(0.,-1.,0.));
#1816=DIRECTION('ref_axis',(-1.,0.,0.));
#1817=DIRECTION('',(0.,-1.,0.));
#1818=DIRECTION('center_axis',(0.,-1.,0.));
#1819=DIRECTION('ref_axis',(-1.,0.,0.));
#1820=DIRECTION('center_axis',(0.,-1.,0.));
#1821=DIRECTION('ref_axis',(-1.,0.,0.));
#1822=DIRECTION('',(0.707106781186547,-0.707106781186547,8.65956056235493E-17));
#1823=DIRECTION('center_axis',(0.,-1.,0.));
#1824=DIRECTION('ref_axis',(-1.,0.,0.));
#1825=DIRECTION('center_axis',(0.,-1.,0.));
#1826=DIRECTION('ref_axis',(-1.,0.,0.));
#1827=DIRECTION('center_axis',(0.,-1.,0.));
#1828=DIRECTION('ref_axis',(-1.,0.,0.));
#1829=DIRECTION('center_axis',(0.,-1.,0.));
#1830=DIRECTION('ref_axis',(-1.,0.,0.));
#1831=DIRECTION('',(0.,-1.,0.));
#1832=DIRECTION('center_axis',(0.,-1.,0.));
#1833=DIRECTION('ref_axis',(-1.,0.,0.));
#1834=DIRECTION('',(0.,-1.,0.));
#1835=DIRECTION('center_axis',(0.,-1.,0.));
#1836=DIRECTION('ref_axis',(-1.,0.,0.));
#1837=DIRECTION('center_axis',(0.,-1.,0.));
#1838=DIRECTION('ref_axis',(-1.,0.,0.));
#1839=DIRECTION('',(0.707106781186547,-0.707106781186547,8.65956056235493E-17));
#1840=DIRECTION('center_axis',(0.,-1.,0.));
#1841=DIRECTION('ref_axis',(-1.,0.,0.));
#1842=DIRECTION('center_axis',(0.,-1.,0.));
#1843=DIRECTION('ref_axis',(-1.,0.,0.));
#1844=DIRECTION('center_axis',(0.,-1.,0.));
#1845=DIRECTION('ref_axis',(-1.,0.,0.));
#1846=DIRECTION('center_axis',(0.,-1.,0.));
#1847=DIRECTION('ref_axis',(-1.,0.,0.));
#1848=DIRECTION('',(0.,-1.,0.));
#1849=DIRECTION('center_axis',(0.,-1.,0.));
#1850=DIRECTION('ref_axis',(-1.,0.,0.));
#1851=DIRECTION('',(0.,-1.,0.));
#1852=DIRECTION('center_axis',(0.,-1.,0.));
#1853=DIRECTION('ref_axis',(-1.,0.,0.));
#1854=DIRECTION('center_axis',(0.,-1.,0.));
#1855=DIRECTION('ref_axis',(-1.,0.,0.));
#1856=DIRECTION('',(0.707106781186547,-0.707106781186547,8.65956056235493E-17));
#1857=DIRECTION('center_axis',(0.,-1.,0.));
#1858=DIRECTION('ref_axis',(-1.,0.,0.));
#1859=DIRECTION('center_axis',(0.,-1.,0.));
#1860=DIRECTION('ref_axis',(-1.,0.,0.));
#1861=DIRECTION('center_axis',(0.,-1.,0.));
#1862=DIRECTION('ref_axis',(-1.,0.,0.));
#1863=DIRECTION('center_axis',(0.,-1.,0.));
#1864=DIRECTION('ref_axis',(-1.,0.,0.));
#1865=DIRECTION('',(0.,-1.,0.));
#1866=DIRECTION('center_axis',(0.,-1.,0.));
#1867=DIRECTION('ref_axis',(-1.,0.,0.));
#1868=DIRECTION('',(0.,-1.,0.));
#1869=DIRECTION('center_axis',(0.,-1.,0.));
#1870=DIRECTION('ref_axis',(-1.,0.,0.));
#1871=DIRECTION('center_axis',(0.,-1.,0.));
#1872=DIRECTION('ref_axis',(-1.,0.,0.));
#1873=DIRECTION('',(0.707106781186547,-0.707106781186547,8.65956056235493E-17));
#1874=DIRECTION('center_axis',(0.,-1.,0.));
#1875=DIRECTION('ref_axis',(-1.,0.,0.));
#1876=DIRECTION('center_axis',(0.,-1.,0.));
#1877=DIRECTION('ref_axis',(-1.,0.,0.));
#1878=DIRECTION('center_axis',(0.,-1.,0.));
#1879=DIRECTION('ref_axis',(-1.,0.,0.));
#1880=DIRECTION('center_axis',(0.,-1.,0.));
#1881=DIRECTION('ref_axis',(-1.,0.,0.));
#1882=DIRECTION('',(0.,-1.,0.));
#1883=DIRECTION('center_axis',(0.,-1.,0.));
#1884=DIRECTION('ref_axis',(-1.,0.,0.));
#1885=DIRECTION('',(0.,-1.,0.));
#1886=DIRECTION('center_axis',(0.,-1.,0.));
#1887=DIRECTION('ref_axis',(-1.,0.,0.));
#1888=DIRECTION('center_axis',(0.,-1.,0.));
#1889=DIRECTION('ref_axis',(-1.,0.,0.));
#1890=DIRECTION('',(0.707106781186547,-0.707106781186547,8.65956056235493E-17));
#1891=DIRECTION('center_axis',(0.,-1.,0.));
#1892=DIRECTION('ref_axis',(-1.,0.,0.));
#1893=DIRECTION('center_axis',(0.,-1.,0.));
#1894=DIRECTION('ref_axis',(-1.,0.,0.));
#1895=DIRECTION('center_axis',(0.,-1.,0.));
#1896=DIRECTION('ref_axis',(-1.,0.,0.));
#1897=DIRECTION('center_axis',(0.,-1.,0.));
#1898=DIRECTION('ref_axis',(-1.,0.,0.));
#1899=DIRECTION('',(0.,-1.,0.));
#1900=CARTESIAN_POINT('',(0.,0.,0.));
#1901=CARTESIAN_POINT('Origin',(0.,46.,0.));
#1902=CARTESIAN_POINT('',(-24.,46.,-33.25));
#1903=CARTESIAN_POINT('',(-24.,46.,33.25));
#1904=CARTESIAN_POINT('',(-24.,46.,-33.25));
#1905=CARTESIAN_POINT('',(-35.1,46.,33.25));
#1906=CARTESIAN_POINT('',(-35.1,46.,33.25));
#1907=CARTESIAN_POINT('',(-35.1,46.,37.25));
#1908=CARTESIAN_POINT('',(-35.1,46.,37.25));
#1909=CARTESIAN_POINT('',(-44.9,46.,37.25));
#1910=CARTESIAN_POINT('',(-44.9,46.,37.25));
#1911=CARTESIAN_POINT('',(-44.9,46.,33.25));
#1912=CARTESIAN_POINT('',(-44.9,46.,33.25));
#1913=CARTESIAN_POINT('',(-87.,46.,33.25));
#1914=CARTESIAN_POINT('',(-87.,46.,33.25));
#1915=CARTESIAN_POINT('',(-87.,46.,-33.25));
#1916=CARTESIAN_POINT('Origin',(-87.,46.,0.));
#1917=CARTESIAN_POINT('',(-44.9,46.,-33.25));
#1918=CARTESIAN_POINT('',(-44.9,46.,-33.25));
#1919=CARTESIAN_POINT('',(-44.9,46.,-37.25));
#1920=CARTESIAN_POINT('',(-44.9,46.,-37.25));
#1921=CARTESIAN_POINT('',(-35.1,46.,-37.25));
#1922=CARTESIAN_POINT('',(-35.1,46.,-37.25));
#1923=CARTESIAN_POINT('',(-35.1,46.,-33.25));
#1924=CARTESIAN_POINT('',(-35.1,46.,-33.25));
#1925=CARTESIAN_POINT('',(-24.,46.,-33.25));
#1926=CARTESIAN_POINT('',(-108.75,46.,3.9801020972289E-16));
#1927=CARTESIAN_POINT('Origin',(-112.,46.,0.));
#1928=CARTESIAN_POINT('',(-58.75,46.,3.9801020972289E-16));
#1929=CARTESIAN_POINT('Origin',(-62.,46.,0.));
#1930=CARTESIAN_POINT('',(-96.25,46.,-21.65063509461));
#1931=CARTESIAN_POINT('Origin',(-99.5,46.,-21.65063509461));
#1932=CARTESIAN_POINT('',(-71.25,46.,-21.65063509461));
#1933=CARTESIAN_POINT('Origin',(-74.5,46.,-21.65063509461));
#1934=CARTESIAN_POINT('',(-71.25,46.,21.65063509461));
#1935=CARTESIAN_POINT('Origin',(-74.5,46.,21.65063509461));
#1936=CARTESIAN_POINT('',(-96.25,46.,21.65063509461));
#1937=CARTESIAN_POINT('Origin',(-99.5,46.,21.65063509461));
#1938=CARTESIAN_POINT('',(-28.0000000012772,46.0000000012772,-9.99999987002514));
#1939=CARTESIAN_POINT('',(-28.0000000011287,46.0000000011287,9.99999987024188));
#1940=CARTESIAN_POINT('',(-28.00000000209,46.00000000209,-9.999999870025));
#1941=CARTESIAN_POINT('',(-40.0000001297598,46.0000000011287,-21.9999999988713));
#1942=CARTESIAN_POINT('Origin',(-40.,46.,-10.));
#1943=CARTESIAN_POINT('',(-44.999999871532,46.000000001045,-21.999999998955));
#1944=CARTESIAN_POINT('',(-44.99999987003,46.00000000209,-21.99999999791));
#1945=CARTESIAN_POINT('',(-56.9999999988713,46.0000000011287,-9.99999987024188));
#1946=CARTESIAN_POINT('Origin',(-45.,46.,-10.));
#1947=CARTESIAN_POINT('',(-56.999999998955,46.000000001045,9.99999987152806));
#1948=CARTESIAN_POINT('',(-56.99999999791,46.00000000209,9.999999870025));
#1949=CARTESIAN_POINT('',(-44.9999998702402,46.0000000011287,21.9999999988713));
#1950=CARTESIAN_POINT('Origin',(-45.,46.,10.));
#1951=CARTESIAN_POINT('',(-40.000000128468,46.000000001045,21.999999998955));
#1952=CARTESIAN_POINT('',(-40.00000012997,46.00000000209,21.99999999791));
#1953=CARTESIAN_POINT('Origin',(-40.,46.,10.));
#1954=CARTESIAN_POINT('',(-105.5,46.,0.));
#1955=CARTESIAN_POINT('Origin',(-87.,46.,0.));
#1956=CARTESIAN_POINT('Origin',(-87.,46.,0.));
#1957=CARTESIAN_POINT('',(-105.5,49.,0.));
#1958=CARTESIAN_POINT('',(-105.5,46.,2.2655965784226E-15));
#1959=CARTESIAN_POINT('Origin',(-87.,49.,0.));
#1960=CARTESIAN_POINT('Origin',(-87.,49.,0.));
#1961=CARTESIAN_POINT('',(-116.,49.,0.));
#1962=CARTESIAN_POINT('Origin',(-87.,49.,0.));
#1963=CARTESIAN_POINT('',(-110.4,49.,0.));
#1964=CARTESIAN_POINT('Origin',(-112.,49.,0.));
#1965=CARTESIAN_POINT('',(-60.4,49.,0.));
#1966=CARTESIAN_POINT('Origin',(-62.,49.,0.));
#1967=CARTESIAN_POINT('',(-97.9,49.,-21.65063509461));
#1968=CARTESIAN_POINT('Origin',(-99.5,49.,-21.65063509461));
#1969=CARTESIAN_POINT('',(-72.9,49.,-21.65063509461));
#1970=CARTESIAN_POINT('Origin',(-74.5,49.,-21.65063509461));
#1971=CARTESIAN_POINT('',(-72.9,49.,21.65063509461));
#1972=CARTESIAN_POINT('Origin',(-74.5,49.,21.65063509461));
#1973=CARTESIAN_POINT('',(-97.9,49.,21.65063509461));
#1974=CARTESIAN_POINT('Origin',(-99.5,49.,21.65063509461));
#1975=CARTESIAN_POINT('Origin',(-87.,54.,0.));
#1976=CARTESIAN_POINT('',(-116.,54.,0.));
#1977=CARTESIAN_POINT('Origin',(-87.,54.,0.));
#1978=CARTESIAN_POINT('',(-116.,54.,-3.55147571752732E-15));
#1979=CARTESIAN_POINT('Origin',(0.,54.,0.));
#1980=CARTESIAN_POINT('',(-24.,54.,33.25));
#1981=CARTESIAN_POINT('',(-24.,54.,-33.25));
#1982=CARTESIAN_POINT('',(-24.,54.,33.25));
#1983=CARTESIAN_POINT('',(-87.,54.,-33.25));
#1984=CARTESIAN_POINT('',(-24.,54.,-33.25));
#1985=CARTESIAN_POINT('',(-87.,54.,33.25));
#1986=CARTESIAN_POINT('Origin',(-87.,54.,0.));
#1987=CARTESIAN_POINT('',(-87.,54.,33.25));
#1988=CARTESIAN_POINT('',(-40.0000001212994,53.9999999983841,-21.9999999983842));
#1989=CARTESIAN_POINT('',(-28.000000001015,53.999999998985,-9.99999986669319));
#1990=CARTESIAN_POINT('Origin',(-40.,54.,-10.));
#1991=CARTESIAN_POINT('',(-28.0000000018548,53.9999999981452,9.999999876557));
#1992=CARTESIAN_POINT('',(-28.00000000203,53.99999999797,-9.999999865134));
#1993=CARTESIAN_POINT('',(-40.0000001333108,53.999999998985,21.999999998985));
#1994=CARTESIAN_POINT('Origin',(-40.,54.,10.));
#1995=CARTESIAN_POINT('',(-44.99999987656,53.9999999981452,21.9999999981452));
#1996=CARTESIAN_POINT('',(-40.00000013487,53.99999999797,21.99999999797));
#1997=CARTESIAN_POINT('',(-56.999999998985,53.999999998985,9.99999986669319));
#1998=CARTESIAN_POINT('Origin',(-45.,54.,10.));
#1999=CARTESIAN_POINT('',(-56.9999999981452,53.9999999981452,-9.999999876557));
#2000=CARTESIAN_POINT('',(-56.99999999797,53.99999999797,9.999999865134));
#2001=CARTESIAN_POINT('',(-44.9999998666892,53.999999998985,-21.999999998985));
#2002=CARTESIAN_POINT('Origin',(-45.,54.,-10.));
#2003=CARTESIAN_POINT('',(-44.99999986513,53.99999999797,-21.99999999797));
#2004=CARTESIAN_POINT('Origin',(-40.,52.99999999643,-10.));
#2005=CARTESIAN_POINT('',(-40.0000000759455,51.9999999989383,-19.9999999986954));
#2006=CARTESIAN_POINT('',(-40.00000012344,53.99999999677,-21.99999999677));
#2007=CARTESIAN_POINT('',(-30.0000000008201,51.99999999933,-9.9999999163674));
#2008=CARTESIAN_POINT('Origin',(-40.,52.,-10.));
#2009=CARTESIAN_POINT('',(-28.00000000203,53.99999999797,-9.999999865134));
#2010=CARTESIAN_POINT('Origin',(-29.,53.,0.));
#2011=CARTESIAN_POINT('',(-30.0000000013264,51.9999999987372,9.99999992284802));
#2012=CARTESIAN_POINT('',(-30.00000000127,51.99999999873,-9.999999915709));
#2013=CARTESIAN_POINT('',(-28.00000000323,53.99999999677,9.999999876557));
#2014=CARTESIAN_POINT('Origin',(-40.,52.99999999643,10.));
#2015=CARTESIAN_POINT('',(-40.0000000836326,51.99999999933,19.9999999991799));
#2016=CARTESIAN_POINT('Origin',(-40.,52.,10.));
#2017=CARTESIAN_POINT('',(-40.00000013487,53.99999999797,21.99999999797));
#2018=CARTESIAN_POINT('Origin',(-42.5,53.,21.));
#2019=CARTESIAN_POINT('',(-44.9999999228495,51.9999999987372,19.9999999986736));
#2020=CARTESIAN_POINT('',(-40.00000008429,51.99999999873,19.99999999873));
#2021=CARTESIAN_POINT('',(-44.99999987656,53.99999999677,21.99999999677));
#2022=CARTESIAN_POINT('Origin',(-45.,52.99999999643,10.));
#2023=CARTESIAN_POINT('',(-54.9999999991799,51.99999999933,9.9999999163674));
#2024=CARTESIAN_POINT('Origin',(-45.,52.,10.));
#2025=CARTESIAN_POINT('',(-56.99999999797,53.99999999797,9.999999865134));
#2026=CARTESIAN_POINT('Origin',(-56.,53.,0.));
#2027=CARTESIAN_POINT('',(-54.9999999986736,51.9999999987372,-9.99999992284802));
#2028=CARTESIAN_POINT('',(-54.99999999873,51.99999999873,9.999999915709));
#2029=CARTESIAN_POINT('',(-56.99999999677,53.99999999677,-9.999999876557));
#2030=CARTESIAN_POINT('Origin',(-45.,52.99999999643,-10.));
#2031=CARTESIAN_POINT('',(-44.9999999163674,51.99999999933,-19.9999999991799));
#2032=CARTESIAN_POINT('Origin',(-45.,52.,-10.));
#2033=CARTESIAN_POINT('',(-44.99999986513,53.99999999797,-21.99999999797));
#2034=CARTESIAN_POINT('Origin',(-42.5,53.,-21.));
#2035=CARTESIAN_POINT('',(-44.99999991571,51.99999999873,-19.99999999873));
#2036=CARTESIAN_POINT('Origin',(-55.,46.,-20.));
#2037=CARTESIAN_POINT('',(-44.9999999194046,48.0000000006912,-19.9999999991533));
#2038=CARTESIAN_POINT('',(-44.99999991877,48.00000000131,-19.99999999869));
#2039=CARTESIAN_POINT('',(-40.0000000811,48.0000000007966,-19.9999999992034));
#2040=CARTESIAN_POINT('',(-44.99999991877,48.00000000131,-19.99999999869));
#2041=CARTESIAN_POINT('',(-40.0000000811,48.00000000116,-19.99999999884));
#2042=CARTESIAN_POINT('Origin',(-40.,33.1664,-10.));
#2043=CARTESIAN_POINT('',(-30.0000000009006,48.0000000009006,-9.999999918766));
#2044=CARTESIAN_POINT('Origin',(-40.,48.,-10.));
#2045=CARTESIAN_POINT('',(-30.00000000131,48.00000000131,-9.999999918766));
#2046=CARTESIAN_POINT('Origin',(-30.,46.,-20.));
#2047=CARTESIAN_POINT('',(-30.0000000007966,48.0000000007966,9.999999918901));
#2048=CARTESIAN_POINT('',(-30.00000000131,48.00000000131,-9.999999918766));
#2049=CARTESIAN_POINT('',(-30.00000000116,48.00000000116,9.999999918901));
#2050=CARTESIAN_POINT('Origin',(-40.,33.1664,10.));
#2051=CARTESIAN_POINT('',(-40.0000000805954,48.0000000006912,19.9999999991533));
#2052=CARTESIAN_POINT('Origin',(-40.,48.,10.));
#2053=CARTESIAN_POINT('',(-40.00000008123,48.00000000131,19.99999999869));
#2054=CARTESIAN_POINT('Origin',(-30.,46.,20.));
#2055=CARTESIAN_POINT('',(-44.9999999189,48.0000000007966,19.9999999992034));
#2056=CARTESIAN_POINT('',(-40.00000008123,48.00000000131,19.99999999869));
#2057=CARTESIAN_POINT('',(-44.9999999189,48.00000000116,19.99999999884));
#2058=CARTESIAN_POINT('Origin',(-45.,33.1664,10.));
#2059=CARTESIAN_POINT('',(-54.9999999991533,48.0000000006912,9.99999991940064));
#2060=CARTESIAN_POINT('Origin',(-45.,48.,10.));
#2061=CARTESIAN_POINT('',(-54.99999999869,48.00000000131,9.999999918766));
#2062=CARTESIAN_POINT('Origin',(-55.,46.,20.));
#2063=CARTESIAN_POINT('',(-54.9999999992034,48.0000000007966,-9.999999918901));
#2064=CARTESIAN_POINT('',(-54.99999999869,48.00000000131,9.999999918766));
#2065=CARTESIAN_POINT('',(-54.99999999884,48.00000000116,-9.999999918901));
#2066=CARTESIAN_POINT('Origin',(-45.,33.1664,-10.));
#2067=CARTESIAN_POINT('Origin',(-45.,48.,-10.));
#2068=CARTESIAN_POINT('Origin',(-45.,47.00000000232,-10.));
#2069=CARTESIAN_POINT('',(-54.99999999884,48.00000000116,-9.999999918901));
#2070=CARTESIAN_POINT('',(-44.99999991877,48.00000000131,-19.99999999869));
#2071=CARTESIAN_POINT('Origin',(-42.5,47.,-21.));
#2072=CARTESIAN_POINT('',(-40.0000000811,48.00000000116,-19.99999999884));
#2073=CARTESIAN_POINT('Origin',(-40.,47.00000000232,-10.));
#2074=CARTESIAN_POINT('',(-30.00000000131,48.00000000131,-9.999999918766));
#2075=CARTESIAN_POINT('Origin',(-29.,47.,0.));
#2076=CARTESIAN_POINT('',(-30.00000000116,48.00000000116,9.999999918901));
#2077=CARTESIAN_POINT('Origin',(-40.,47.00000000232,10.));
#2078=CARTESIAN_POINT('',(-40.00000008123,48.00000000131,19.99999999869));
#2079=CARTESIAN_POINT('Origin',(-42.5,47.,21.));
#2080=CARTESIAN_POINT('',(-44.9999999189,48.00000000116,19.99999999884));
#2081=CARTESIAN_POINT('Origin',(-45.,47.00000000232,10.));
#2082=CARTESIAN_POINT('',(-54.99999999869,48.00000000131,9.999999918766));
#2083=CARTESIAN_POINT('Origin',(-56.,47.,0.));
#2084=CARTESIAN_POINT('Origin',(-23.,53.,-2.84217094304E-14));
#2085=CARTESIAN_POINT('',(-22.,52.,-33.25));
#2086=CARTESIAN_POINT('',(-24.,54.,-33.25));
#2087=CARTESIAN_POINT('',(-22.,52.,33.25));
#2088=CARTESIAN_POINT('',(-22.,52.,33.25));
#2089=CARTESIAN_POINT('',(-22.,52.,33.25));
#2090=CARTESIAN_POINT('Origin',(0.,46.,-33.25));
#2091=CARTESIAN_POINT('',(-22.,48.,-33.25));
#2092=CARTESIAN_POINT('',(-22.,48.,-33.25));
#2093=CARTESIAN_POINT('',(-22.,48.,-33.25));
#2094=CARTESIAN_POINT('',(-35.1,51.9,-33.25));
#2095=CARTESIAN_POINT('',(-35.1,46.,-33.25));
#2096=CARTESIAN_POINT('',(-44.9,51.9,-33.25));
#2097=CARTESIAN_POINT('',(-44.9,51.9,-33.25));
#2098=CARTESIAN_POINT('',(-44.9,46.,-33.25));
#2099=CARTESIAN_POINT('',(-87.,46.,-33.25));
#2100=CARTESIAN_POINT('',(-54.56,50.,-33.25));
#2101=CARTESIAN_POINT('Origin',(-53.,50.,-33.25));
#2102=CARTESIAN_POINT('',(-28.56,50.,-33.25));
#2103=CARTESIAN_POINT('Origin',(-27.,50.,-33.25));
#2104=CARTESIAN_POINT('Origin',(-27.,50.,-33.12));
#2105=CARTESIAN_POINT('',(-25.7,50.,-32.99));
#2106=CARTESIAN_POINT('',(-28.3,50.,-32.99));
#2107=CARTESIAN_POINT('Origin',(-27.,50.,-32.99));
#2108=CARTESIAN_POINT('',(-28.43,50.,-33.12));
#2109=CARTESIAN_POINT('Origin',(-27.,50.,-32.99));
#2110=CARTESIAN_POINT('Origin',(-27.,50.,-24.02982525503));
#2111=CARTESIAN_POINT('',(-25.7,50.,-25.25));
#2112=CARTESIAN_POINT('',(-25.7,50.,-24.02982525503));
#2113=CARTESIAN_POINT('',(-28.3000000000018,50.,-25.249999999997));
#2114=CARTESIAN_POINT('Origin',(-27.,50.,-25.25));
#2115=CARTESIAN_POINT('Origin',(-27.,50.,-25.25));
#2116=CARTESIAN_POINT('Origin',(-27.,50.,-24.90322414311));
#2117=CARTESIAN_POINT('',(-27.,50.,-24.46888119526));
#2118=CARTESIAN_POINT('',(-27.7228680564103,50.,-24.90322414311));
#2119=CARTESIAN_POINT('Origin',(-53.,50.,-33.12));
#2120=CARTESIAN_POINT('',(-51.7,50.,-32.99));
#2121=CARTESIAN_POINT('',(-54.3,50.,-32.99));
#2122=CARTESIAN_POINT('Origin',(-53.,50.,-32.99));
#2123=CARTESIAN_POINT('',(-54.43,50.,-33.12));
#2124=CARTESIAN_POINT('Origin',(-53.,50.,-32.99));
#2125=CARTESIAN_POINT('Origin',(-53.,50.,-24.02982525503));
#2126=CARTESIAN_POINT('',(-51.7,50.,-25.25));
#2127=CARTESIAN_POINT('',(-51.7,50.,-24.02982525503));
#2128=CARTESIAN_POINT('',(-54.3000000000018,50.,-25.249999999997));
#2129=CARTESIAN_POINT('Origin',(-53.,50.,-25.25));
#2130=CARTESIAN_POINT('Origin',(-53.,50.,-25.25));
#2131=CARTESIAN_POINT('Origin',(-53.,50.,-24.90322414311));
#2132=CARTESIAN_POINT('',(-53.,50.,-24.46888119526));
#2133=CARTESIAN_POINT('',(-53.7228680564103,50.,-24.90322414311));
#2134=CARTESIAN_POINT('Origin',(-87.,46.,0.));
#2135=CARTESIAN_POINT('',(-87.,46.,33.25));
#2136=CARTESIAN_POINT('Origin',(-87.,46.,33.25));
#2137=CARTESIAN_POINT('',(-44.9,51.9,33.25));
#2138=CARTESIAN_POINT('',(-44.9,46.,33.25));
#2139=CARTESIAN_POINT('',(-35.1,51.9,33.25));
#2140=CARTESIAN_POINT('',(-44.9,51.9,33.25));
#2141=CARTESIAN_POINT('',(-35.1,46.,33.25));
#2142=CARTESIAN_POINT('',(-22.,48.,33.25));
#2143=CARTESIAN_POINT('',(-24.,46.,33.25));
#2144=CARTESIAN_POINT('',(-22.,48.,33.25));
#2145=CARTESIAN_POINT('',(-51.44,50.,33.25));
#2146=CARTESIAN_POINT('Origin',(-53.,50.,33.25));
#2147=CARTESIAN_POINT('',(-25.44,50.,33.25));
#2148=CARTESIAN_POINT('Origin',(-27.,50.,33.25));
#2149=CARTESIAN_POINT('Origin',(-27.,50.,33.12));
#2150=CARTESIAN_POINT('',(-25.7,50.,32.99));
#2151=CARTESIAN_POINT('Origin',(-27.,50.,32.99));
#2152=CARTESIAN_POINT('',(-25.57,50.,33.12));
#2153=CARTESIAN_POINT('Origin',(-27.,50.,24.02982525503));
#2154=CARTESIAN_POINT('',(-25.7,50.,25.25));
#2155=CARTESIAN_POINT('Origin',(-27.,50.,25.25));
#2156=CARTESIAN_POINT('',(-25.7,50.,24.02982525503));
#2157=CARTESIAN_POINT('Origin',(-27.,50.,24.90322414311));
#2158=CARTESIAN_POINT('',(-27.,50.,24.46888119526));
#2159=CARTESIAN_POINT('',(-26.2771319435897,50.,24.90322414311));
#2160=CARTESIAN_POINT('Origin',(-53.,50.,33.12));
#2161=CARTESIAN_POINT('',(-51.7,50.,32.99));
#2162=CARTESIAN_POINT('Origin',(-53.,50.,32.99));
#2163=CARTESIAN_POINT('',(-51.57,50.,33.12));
#2164=CARTESIAN_POINT('Origin',(-53.,50.,24.02982525503));
#2165=CARTESIAN_POINT('',(-51.7,50.,25.25));
#2166=CARTESIAN_POINT('Origin',(-53.,50.,25.25));
#2167=CARTESIAN_POINT('',(-51.7,50.,24.02982525503));
#2168=CARTESIAN_POINT('Origin',(-53.,50.,24.90322414311));
#2169=CARTESIAN_POINT('',(-53.,50.,24.46888119526));
#2170=CARTESIAN_POINT('',(-52.2771319435897,50.,24.90322414311));
#2171=CARTESIAN_POINT('Origin',(-22.,54.,-33.25));
#2172=CARTESIAN_POINT('',(-22.,48.,-33.25));
#2173=CARTESIAN_POINT('Origin',(-23.,47.,2.84217094304E-14));
#2174=CARTESIAN_POINT('Origin',(-35.1,46.,37.25));
#2175=CARTESIAN_POINT('',(-35.1,51.9,37.25));
#2176=CARTESIAN_POINT('',(-35.1,51.9,37.25));
#2177=CARTESIAN_POINT('',(-35.1,46.,37.25));
#2178=CARTESIAN_POINT('Origin',(-45.,46.,37.25));
#2179=CARTESIAN_POINT('',(-44.9,51.9,37.25));
#2180=CARTESIAN_POINT('',(-44.9,51.9,37.25));
#2181=CARTESIAN_POINT('',(-44.9,46.,37.25));
#2182=CARTESIAN_POINT('Origin',(-44.9,46.,33.25));
#2183=CARTESIAN_POINT('',(-44.9,51.9,33.25));
#2184=CARTESIAN_POINT('Origin',(0.,51.9,0.));
#2185=CARTESIAN_POINT('Origin',(0.,51.9,0.));
#2186=CARTESIAN_POINT('',(-35.1,51.9,-37.25));
#2187=CARTESIAN_POINT('',(-35.1,51.9,-33.25));
#2188=CARTESIAN_POINT('',(-44.9,51.9,-37.25));
#2189=CARTESIAN_POINT('',(-35.1,51.9,-37.25));
#2190=CARTESIAN_POINT('',(-44.9,51.9,-37.25));
#2191=CARTESIAN_POINT('Origin',(-35.1,46.,-33.25));
#2192=CARTESIAN_POINT('',(-35.1,46.,-37.25));
#2193=CARTESIAN_POINT('Origin',(-35.,46.,-37.25));
#2194=CARTESIAN_POINT('',(-44.9,46.,-37.25));
#2195=CARTESIAN_POINT('Origin',(-44.9,46.,-37.25));
#2196=CARTESIAN_POINT('Origin',(-112.,84.20044583997,0.));
#2197=CARTESIAN_POINT('',(-110.4,47.9,0.));
#2198=CARTESIAN_POINT('',(-110.4,84.20044583997,1.95943487863577E-16));
#2199=CARTESIAN_POINT('Origin',(-112.,47.9,0.));
#2200=CARTESIAN_POINT('Origin',(-112.,47.2,0.));
#2201=CARTESIAN_POINT('',(-109.,46.5,0.));
#2202=CARTESIAN_POINT('',(-109.7,47.2,2.81668763803891E-16));
#2203=CARTESIAN_POINT('Origin',(-112.,46.5,0.));
#2204=CARTESIAN_POINT('Origin',(-112.,46.5,0.));
#2205=CARTESIAN_POINT('',(-108.75,46.5,3.9801020972289E-16));
#2206=CARTESIAN_POINT('Origin',(-112.,46.5,0.));
#2207=CARTESIAN_POINT('Origin',(-112.,84.20044583997,0.));
#2208=CARTESIAN_POINT('',(-108.75,84.20044583997,3.9801020972289E-16));
#2209=CARTESIAN_POINT('Origin',(-62.,84.20044583997,0.));
#2210=CARTESIAN_POINT('',(-60.4,47.9,0.));
#2211=CARTESIAN_POINT('',(-60.4,84.20044583997,1.95943487863577E-16));
#2212=CARTESIAN_POINT('Origin',(-62.,47.9,0.));
#2213=CARTESIAN_POINT('Origin',(-62.,47.2,0.));
#2214=CARTESIAN_POINT('',(-59.,46.5,0.));
#2215=CARTESIAN_POINT('',(-59.7,47.2,2.81668763803891E-16));
#2216=CARTESIAN_POINT('Origin',(-62.,46.5,0.));
#2217=CARTESIAN_POINT('Origin',(-62.,46.5,0.));
#2218=CARTESIAN_POINT('',(-58.75,46.5,3.9801020972289E-16));
#2219=CARTESIAN_POINT('Origin',(-62.,46.5,0.));
#2220=CARTESIAN_POINT('Origin',(-62.,84.20044583997,0.));
#2221=CARTESIAN_POINT('',(-58.75,84.20044583997,3.9801020972289E-16));
#2222=CARTESIAN_POINT('Origin',(-99.5,84.20044583997,-21.65063509461));
#2223=CARTESIAN_POINT('',(-97.9,47.9,-21.65063509461));
#2224=CARTESIAN_POINT('',(-97.9,84.20044583997,-21.65063509461));
#2225=CARTESIAN_POINT('Origin',(-99.5,47.9,-21.65063509461));
#2226=CARTESIAN_POINT('Origin',(-99.5,47.2,-21.65063509461));
#2227=CARTESIAN_POINT('',(-96.5,46.5,-21.65063509461));
#2228=CARTESIAN_POINT('',(-97.2,47.2,-21.65063509461));
#2229=CARTESIAN_POINT('Origin',(-99.5,46.5,-21.65063509461));
#2230=CARTESIAN_POINT('Origin',(-99.5,46.5,-21.65063509461));
#2231=CARTESIAN_POINT('',(-96.25,46.5,-21.65063509461));
#2232=CARTESIAN_POINT('Origin',(-99.5,46.5,-21.65063509461));
#2233=CARTESIAN_POINT('Origin',(-99.5,84.20044583997,-21.65063509461));
#2234=CARTESIAN_POINT('',(-96.25,84.20044583997,-21.65063509461));
#2235=CARTESIAN_POINT('Origin',(-74.5,84.20044583997,-21.65063509461));
#2236=CARTESIAN_POINT('',(-72.9,47.9,-21.65063509461));
#2237=CARTESIAN_POINT('',(-72.9,84.20044583997,-21.65063509461));
#2238=CARTESIAN_POINT('Origin',(-74.5,47.9,-21.65063509461));
#2239=CARTESIAN_POINT('Origin',(-74.5,47.2,-21.65063509461));
#2240=CARTESIAN_POINT('',(-71.5,46.5,-21.65063509461));
#2241=CARTESIAN_POINT('',(-72.2,47.2,-21.65063509461));
#2242=CARTESIAN_POINT('Origin',(-74.5,46.5,-21.65063509461));
#2243=CARTESIAN_POINT('Origin',(-74.5,46.5,-21.65063509461));
#2244=CARTESIAN_POINT('',(-71.25,46.5,-21.65063509461));
#2245=CARTESIAN_POINT('Origin',(-74.5,46.5,-21.65063509461));
#2246=CARTESIAN_POINT('Origin',(-74.5,84.20044583997,-21.65063509461));
#2247=CARTESIAN_POINT('',(-71.25,84.20044583997,-21.65063509461));
#2248=CARTESIAN_POINT('Origin',(-74.5,84.20044583997,21.65063509461));
#2249=CARTESIAN_POINT('',(-72.9,47.9,21.65063509461));
#2250=CARTESIAN_POINT('',(-72.9,84.20044583997,21.65063509461));
#2251=CARTESIAN_POINT('Origin',(-74.5,47.9,21.65063509461));
#2252=CARTESIAN_POINT('Origin',(-74.5,47.2,21.65063509461));
#2253=CARTESIAN_POINT('',(-71.5,46.5,21.65063509461));
#2254=CARTESIAN_POINT('',(-72.2,47.2,21.65063509461));
#2255=CARTESIAN_POINT('Origin',(-74.5,46.5,21.65063509461));
#2256=CARTESIAN_POINT('Origin',(-74.5,46.5,21.65063509461));
#2257=CARTESIAN_POINT('',(-71.25,46.5,21.65063509461));
#2258=CARTESIAN_POINT('Origin',(-74.5,46.5,21.65063509461));
#2259=CARTESIAN_POINT('Origin',(-74.5,84.20044583997,21.65063509461));
#2260=CARTESIAN_POINT('',(-71.25,84.20044583997,21.65063509461));
#2261=CARTESIAN_POINT('Origin',(-99.5,84.20044583997,21.65063509461));
#2262=CARTESIAN_POINT('',(-97.9,47.9,21.65063509461));
#2263=CARTESIAN_POINT('',(-97.9,84.20044583997,21.65063509461));
#2264=CARTESIAN_POINT('Origin',(-99.5,47.9,21.65063509461));
#2265=CARTESIAN_POINT('Origin',(-99.5,47.2,21.65063509461));
#2266=CARTESIAN_POINT('',(-96.5,46.5,21.65063509461));
#2267=CARTESIAN_POINT('',(-97.2,47.2,21.65063509461));
#2268=CARTESIAN_POINT('Origin',(-99.5,46.5,21.65063509461));
#2269=CARTESIAN_POINT('Origin',(-99.5,46.5,21.65063509461));
#2270=CARTESIAN_POINT('',(-96.25,46.5,21.65063509461));
#2271=CARTESIAN_POINT('Origin',(-99.5,46.5,21.65063509461));
#2272=CARTESIAN_POINT('Origin',(-99.5,84.20044583997,21.65063509461));
#2273=CARTESIAN_POINT('',(-96.25,84.20044583997,21.65063509461));
#2274=UNCERTAINTY_MEASURE_WITH_UNIT(LENGTH_MEASURE(0.01),#2278,
'DISTANCE_ACCURACY_VALUE',
'Maximum model space distance between geometric entities at asserted c
onnectivities');
#2275=UNCERTAINTY_MEASURE_WITH_UNIT(LENGTH_MEASURE(0.01),#2278,
'DISTANCE_ACCURACY_VALUE',
'Maximum model space distance between geometric entities at asserted c
onnectivities');
#2276=(
GEOMETRIC_REPRESENTATION_CONTEXT(3)
GLOBAL_UNCERTAINTY_ASSIGNED_CONTEXT((#2274))
GLOBAL_UNIT_ASSIGNED_CONTEXT((#2278,#2280,#2281))
REPRESENTATION_CONTEXT('','3D')
);
#2277=(
GEOMETRIC_REPRESENTATION_CONTEXT(3)
GLOBAL_UNCERTAINTY_ASSIGNED_CONTEXT((#2275))
GLOBAL_UNIT_ASSIGNED_CONTEXT((#2278,#2280,#2281))
REPRESENTATION_CONTEXT('','3D')
);
#2278=(
LENGTH_UNIT()
NAMED_UNIT(*)
SI_UNIT(.MILLI.,.METRE.)
);
#2279=(
LENGTH_UNIT()
NAMED_UNIT(*)
SI_UNIT($,.METRE.)
);
#2280=(
NAMED_UNIT(*)
PLANE_ANGLE_UNIT()
SI_UNIT($,.RADIAN.)
);
#2281=(
NAMED_UNIT(*)
SI_UNIT($,.STERADIAN.)
SOLID_ANGLE_UNIT()
);
#2282=SHAPE_DEFINITION_REPRESENTATION(#2283,#2284);
#2283=PRODUCT_DEFINITION_SHAPE('',$,#2286);
#2284=SHAPE_REPRESENTATION('',(#1344),#2276);
#2285=PRODUCT_DEFINITION_CONTEXT('part definition',#2290,'design');
#2286=PRODUCT_DEFINITION('2026-07-07-17-45-22-987','2-RSM5-STATOR',#2287,
#2285);
#2287=PRODUCT_DEFINITION_FORMATION('',$,#2292);
#2288=PRODUCT_RELATED_PRODUCT_CATEGORY('2-RSM5-STATOR','2-RSM5-STATOR',
(#2292));
#2289=APPLICATION_PROTOCOL_DEFINITION('international standard',
'automotive_design',2009,#2290);
#2290=APPLICATION_CONTEXT(
'Core Data for Automotive Mechanical Design Process');
#2291=PRODUCT_CONTEXT('part definition',#2290,'mechanical');
#2292=PRODUCT('2026-07-07-17-45-22-987','2-RSM5-STATOR','NOT SPECIFIED',
(#2291));
#2293=PRESENTATION_STYLE_ASSIGNMENT((#2294));
#2294=SURFACE_STYLE_USAGE(.BOTH.,#2295);
#2295=SURFACE_SIDE_STYLE('',(#2296));
#2296=SURFACE_STYLE_FILL_AREA(#2297);
#2297=FILL_AREA_STYLE('\X2\94A2\X0\ - \X2\7F0E5149\X0\',(#2298));
#2298=FILL_AREA_STYLE_COLOUR('\X2\94A2\X0\ - \X2\7F0E5149\X0\',#2299);
#2299=COLOUR_RGB('\X2\94A2\X0\ - \X2\7F0E5149\X0\',0.627450980392157,0.627450980392157,
0.627450980392157);
ENDSEC;
END-ISO-10303-21;
