ISO-10303-21;
HEADER;
/* Generated by software containing ST-Developer
 * from STEP Tools, Inc. (www.steptools.com) 
 */

FILE_DESCRIPTION(
/* description */ ('NOT SPECIFIED'),
/* implementation_level */ '2;1');

FILE_NAME(
/* name */ '2-RSM6-RORATOR-2.step',
/* time_stamp */ '2026-07-07T17:46:03+08:00',
/* author */ (''),
/* organization */ (''),
/* preprocessor_version */ 'ST-DEVELOPER v20.1',
/* originating_system */ 'Autodesk Translation Framework v15.8.0.0',
/* authorisation */ '');

FILE_SCHEMA (('AUTOMOTIVE_DESIGN { 1 0 10303 214 3 1 1 }'));
ENDSEC;

DATA;
#10=MECHANICAL_DESIGN_GEOMETRIC_PRESENTATION_REPRESENTATION('',(#13),#1798);
#11=SHAPE_REPRESENTATION_RELATIONSHIP('SRR','None',#1805,#12);
#12=ADVANCED_BREP_SHAPE_REPRESENTATION('',(#14),#1797);
#13=STYLED_ITEM('',(#1814),#14);
#14=MANIFOLD_SOLID_BREP('\X2\5B9E4F53\X0\1',#1037);
#15=CONICAL_SURFACE('',#1113,1.849999996001,0.785398163397448);
#16=CONICAL_SURFACE('',#1116,1.849999996001,0.785398163397448);
#17=CONICAL_SURFACE('',#1119,1.849999996001,0.785398163397448);
#18=CONICAL_SURFACE('',#1122,1.849999996001,0.785398163397448);
#19=CONICAL_SURFACE('',#1137,1.849999996001,0.785398163397448);
#20=CONICAL_SURFACE('',#1139,1.849999996001,0.785398163397448);
#21=CONICAL_SURFACE('',#1141,1.849999996001,0.785398163397448);
#22=CONICAL_SURFACE('',#1143,1.849999996001,0.785398163397448);
#23=CONICAL_SURFACE('',#1145,1.375,0.785398163397448);
#24=CONICAL_SURFACE('',#1150,1.39999998905,0.785398163397448);
#25=CONICAL_SURFACE('',#1151,1.375,0.785398163397448);
#26=CONICAL_SURFACE('',#1156,1.39999998905,0.785398163397448);
#27=CONICAL_SURFACE('',#1157,1.375,0.785398163397448);
#28=CONICAL_SURFACE('',#1162,1.39999998905,0.785398163397448);
#29=CYLINDRICAL_SURFACE('',#1069,1.6);
#30=CYLINDRICAL_SURFACE('',#1073,3.25);
#31=CYLINDRICAL_SURFACE('',#1088,3.25);
#32=CYLINDRICAL_SURFACE('',#1092,1.6);
#33=CYLINDRICAL_SURFACE('',#1093,3.25);
#34=CYLINDRICAL_SURFACE('',#1097,1.6);
#35=CYLINDRICAL_SURFACE('',#1098,3.25);
#36=CYLINDRICAL_SURFACE('',#1102,1.6);
#37=CYLINDRICAL_SURFACE('',#1103,3.25);
#38=CYLINDRICAL_SURFACE('',#1107,1.6);
#39=CYLINDRICAL_SURFACE('',#1108,3.25);
#40=CYLINDRICAL_SURFACE('',#1112,1.6);
#41=CYLINDRICAL_SURFACE('',#1126,2.);
#42=CYLINDRICAL_SURFACE('',#1129,2.);
#43=CYLINDRICAL_SURFACE('',#1132,2.);
#44=CYLINDRICAL_SURFACE('',#1135,2.);
#45=CYLINDRICAL_SURFACE('',#1147,1.25);
#46=CYLINDRICAL_SURFACE('',#1153,1.25);
#47=CYLINDRICAL_SURFACE('',#1159,1.25);
#48=CYLINDRICAL_SURFACE('',#1163,1.);
#49=CYLINDRICAL_SURFACE('',#1166,1.);
#50=CYLINDRICAL_SURFACE('',#1169,1.);
#51=CYLINDRICAL_SURFACE('',#1174,1.);
#52=FACE_BOUND('',#140,.T.);
#53=FACE_BOUND('',#141,.T.);
#54=FACE_BOUND('',#142,.T.);
#55=FACE_BOUND('',#143,.T.);
#56=FACE_BOUND('',#144,.T.);
#57=FACE_BOUND('',#145,.T.);
#58=FACE_BOUND('',#146,.T.);
#59=FACE_BOUND('',#147,.T.);
#60=FACE_BOUND('',#148,.T.);
#61=FACE_BOUND('',#149,.T.);
#62=FACE_BOUND('',#152,.T.);
#63=FACE_BOUND('',#155,.T.);
#64=FACE_BOUND('',#156,.T.);
#65=FACE_BOUND('',#157,.T.);
#66=FACE_BOUND('',#158,.T.);
#67=FACE_BOUND('',#159,.T.);
#68=FACE_BOUND('',#160,.T.);
#69=FACE_BOUND('',#161,.T.);
#70=FACE_BOUND('',#162,.T.);
#71=FACE_BOUND('',#163,.T.);
#72=FACE_BOUND('',#166,.T.);
#73=FACE_BOUND('',#170,.T.);
#74=FACE_BOUND('',#174,.T.);
#75=FACE_BOUND('',#178,.T.);
#76=FACE_BOUND('',#182,.T.);
#77=FACE_OUTER_BOUND('',#139,.T.);
#78=FACE_OUTER_BOUND('',#150,.T.);
#79=FACE_OUTER_BOUND('',#151,.T.);
#80=FACE_OUTER_BOUND('',#153,.T.);
#81=FACE_OUTER_BOUND('',#154,.T.);
#82=FACE_OUTER_BOUND('',#164,.T.);
#83=FACE_OUTER_BOUND('',#165,.T.);
#84=FACE_OUTER_BOUND('',#167,.T.);
#85=FACE_OUTER_BOUND('',#168,.T.);
#86=FACE_OUTER_BOUND('',#169,.T.);
#87=FACE_OUTER_BOUND('',#171,.T.);
#88=FACE_OUTER_BOUND('',#172,.T.);
#89=FACE_OUTER_BOUND('',#173,.T.);
#90=FACE_OUTER_BOUND('',#175,.T.);
#91=FACE_OUTER_BOUND('',#176,.T.);
#92=FACE_OUTER_BOUND('',#177,.T.);
#93=FACE_OUTER_BOUND('',#179,.T.);
#94=FACE_OUTER_BOUND('',#180,.T.);
#95=FACE_OUTER_BOUND('',#181,.T.);
#96=FACE_OUTER_BOUND('',#183,.T.);
#97=FACE_OUTER_BOUND('',#184,.T.);
#98=FACE_OUTER_BOUND('',#185,.T.);
#99=FACE_OUTER_BOUND('',#186,.T.);
#100=FACE_OUTER_BOUND('',#187,.T.);
#101=FACE_OUTER_BOUND('',#188,.T.);
#102=FACE_OUTER_BOUND('',#189,.T.);
#103=FACE_OUTER_BOUND('',#190,.T.);
#104=FACE_OUTER_BOUND('',#191,.T.);
#105=FACE_OUTER_BOUND('',#192,.T.);
#106=FACE_OUTER_BOUND('',#193,.T.);
#107=FACE_OUTER_BOUND('',#194,.T.);
#108=FACE_OUTER_BOUND('',#195,.T.);
#109=FACE_OUTER_BOUND('',#196,.T.);
#110=FACE_OUTER_BOUND('',#197,.T.);
#111=FACE_OUTER_BOUND('',#198,.T.);
#112=FACE_OUTER_BOUND('',#199,.T.);
#113=FACE_OUTER_BOUND('',#200,.T.);
#114=FACE_OUTER_BOUND('',#201,.T.);
#115=FACE_OUTER_BOUND('',#202,.T.);
#116=FACE_OUTER_BOUND('',#203,.T.);
#117=FACE_OUTER_BOUND('',#204,.T.);
#118=FACE_OUTER_BOUND('',#205,.T.);
#119=FACE_OUTER_BOUND('',#206,.T.);
#120=FACE_OUTER_BOUND('',#207,.T.);
#121=FACE_OUTER_BOUND('',#208,.T.);
#122=FACE_OUTER_BOUND('',#209,.T.);
#123=FACE_OUTER_BOUND('',#210,.T.);
#124=FACE_OUTER_BOUND('',#211,.T.);
#125=FACE_OUTER_BOUND('',#212,.T.);
#126=FACE_OUTER_BOUND('',#213,.T.);
#127=FACE_OUTER_BOUND('',#214,.T.);
#128=FACE_OUTER_BOUND('',#215,.T.);
#129=FACE_OUTER_BOUND('',#216,.T.);
#130=FACE_OUTER_BOUND('',#217,.T.);
#131=FACE_OUTER_BOUND('',#218,.T.);
#132=FACE_OUTER_BOUND('',#219,.T.);
#133=FACE_OUTER_BOUND('',#220,.T.);
#134=FACE_OUTER_BOUND('',#221,.T.);
#135=FACE_OUTER_BOUND('',#222,.T.);
#136=FACE_OUTER_BOUND('',#223,.T.);
#137=FACE_OUTER_BOUND('',#224,.T.);
#138=FACE_OUTER_BOUND('',#225,.T.);
#139=EDGE_LOOP('',(#670,#671,#672,#673,#674,#675,#676,#677));
#140=EDGE_LOOP('',(#678));
#141=EDGE_LOOP('',(#679));
#142=EDGE_LOOP('',(#680));
#143=EDGE_LOOP('',(#681));
#144=EDGE_LOOP('',(#682));
#145=EDGE_LOOP('',(#683));
#146=EDGE_LOOP('',(#684,#685,#686,#687,#688,#689,#690,#691));
#147=EDGE_LOOP('',(#692));
#148=EDGE_LOOP('',(#693));
#149=EDGE_LOOP('',(#694));
#150=EDGE_LOOP('',(#695,#696,#697,#698));
#151=EDGE_LOOP('',(#699));
#152=EDGE_LOOP('',(#700));
#153=EDGE_LOOP('',(#701,#702,#703,#704));
#154=EDGE_LOOP('',(#705,#706,#707,#708,#709,#710,#711,#712));
#155=EDGE_LOOP('',(#713));
#156=EDGE_LOOP('',(#714));
#157=EDGE_LOOP('',(#715));
#158=EDGE_LOOP('',(#716));
#159=EDGE_LOOP('',(#717));
#160=EDGE_LOOP('',(#718));
#161=EDGE_LOOP('',(#719));
#162=EDGE_LOOP('',(#720));
#163=EDGE_LOOP('',(#721));
#164=EDGE_LOOP('',(#722,#723,#724,#725));
#165=EDGE_LOOP('',(#726));
#166=EDGE_LOOP('',(#727));
#167=EDGE_LOOP('',(#728,#729,#730,#731));
#168=EDGE_LOOP('',(#732,#733,#734,#735));
#169=EDGE_LOOP('',(#736));
#170=EDGE_LOOP('',(#737));
#171=EDGE_LOOP('',(#738,#739,#740,#741));
#172=EDGE_LOOP('',(#742,#743,#744,#745));
#173=EDGE_LOOP('',(#746));
#174=EDGE_LOOP('',(#747));
#175=EDGE_LOOP('',(#748,#749,#750,#751));
#176=EDGE_LOOP('',(#752,#753,#754,#755));
#177=EDGE_LOOP('',(#756));
#178=EDGE_LOOP('',(#757));
#179=EDGE_LOOP('',(#758,#759,#760,#761));
#180=EDGE_LOOP('',(#762,#763,#764,#765));
#181=EDGE_LOOP('',(#766));
#182=EDGE_LOOP('',(#767));
#183=EDGE_LOOP('',(#768,#769,#770,#771));
#184=EDGE_LOOP('',(#772,#773,#774,#775));
#185=EDGE_LOOP('',(#776,#777,#778,#779));
#186=EDGE_LOOP('',(#780,#781,#782,#783));
#187=EDGE_LOOP('',(#784,#785,#786,#787));
#188=EDGE_LOOP('',(#788,#789,#790,#791));
#189=EDGE_LOOP('',(#792,#793,#794,#795));
#190=EDGE_LOOP('',(#796,#797,#798,#799));
#191=EDGE_LOOP('',(#800,#801,#802,#803));
#192=EDGE_LOOP('',(#804,#805,#806,#807));
#193=EDGE_LOOP('',(#808,#809,#810,#811));
#194=EDGE_LOOP('',(#812,#813,#814,#815));
#195=EDGE_LOOP('',(#816,#817,#818,#819));
#196=EDGE_LOOP('',(#820,#821,#822,#823));
#197=EDGE_LOOP('',(#824,#825,#826,#827));
#198=EDGE_LOOP('',(#828,#829,#830,#831));
#199=EDGE_LOOP('',(#832,#833,#834,#835));
#200=EDGE_LOOP('',(#836,#837,#838,#839));
#201=EDGE_LOOP('',(#840,#841,#842,#843));
#202=EDGE_LOOP('',(#844,#845,#846,#847));
#203=EDGE_LOOP('',(#848,#849,#850,#851));
#204=EDGE_LOOP('',(#852,#853,#854,#855));
#205=EDGE_LOOP('',(#856,#857,#858,#859));
#206=EDGE_LOOP('',(#860,#861,#862,#863));
#207=EDGE_LOOP('',(#864,#865,#866,#867));
#208=EDGE_LOOP('',(#868,#869,#870,#871));
#209=EDGE_LOOP('',(#872,#873,#874,#875,#876));
#210=EDGE_LOOP('',(#877,#878,#879,#880,#881));
#211=EDGE_LOOP('',(#882,#883,#884,#885));
#212=EDGE_LOOP('',(#886,#887,#888,#889,#890));
#213=EDGE_LOOP('',(#891,#892,#893,#894,#895));
#214=EDGE_LOOP('',(#896,#897,#898,#899));
#215=EDGE_LOOP('',(#900,#901,#902,#903,#904));
#216=EDGE_LOOP('',(#905,#906,#907,#908,#909));
#217=EDGE_LOOP('',(#910,#911,#912,#913));
#218=EDGE_LOOP('',(#914,#915,#916,#917));
#219=EDGE_LOOP('',(#918,#919,#920,#921));
#220=EDGE_LOOP('',(#922,#923,#924,#925));
#221=EDGE_LOOP('',(#926,#927,#928,#929));
#222=EDGE_LOOP('',(#930,#931,#932,#933,#934,#935,#936,#937));
#223=EDGE_LOOP('',(#938,#939,#940,#941));
#224=EDGE_LOOP('',(#942,#943,#944,#945));
#225=EDGE_LOOP('',(#946,#947,#948,#949));
#226=LINE('',#1511,#303);
#227=LINE('',#1515,#304);
#228=LINE('',#1519,#305);
#229=LINE('',#1522,#306);
#230=LINE('',#1539,#307);
#231=LINE('',#1543,#308);
#232=LINE('',#1547,#309);
#233=LINE('',#1550,#310);
#234=LINE('',#1559,#311);
#235=LINE('',#1566,#312);
#236=LINE('',#1573,#313);
#237=LINE('',#1577,#314);
#238=LINE('',#1581,#315);
#239=LINE('',#1584,#316);
#240=LINE('',#1604,#317);
#241=LINE('',#1609,#318);
#242=LINE('',#1613,#319);
#243=LINE('',#1618,#320);
#244=LINE('',#1622,#321);
#245=LINE('',#1627,#322);
#246=LINE('',#1631,#323);
#247=LINE('',#1636,#324);
#248=LINE('',#1640,#325);
#249=LINE('',#1645,#326);
#250=LINE('',#1648,#327);
#251=LINE('',#1651,#328);
#252=LINE('',#1654,#329);
#253=LINE('',#1655,#330);
#254=LINE('',#1659,#331);
#255=LINE('',#1662,#332);
#256=LINE('',#1663,#333);
#257=LINE('',#1667,#334);
#258=LINE('',#1670,#335);
#259=LINE('',#1671,#336);
#260=LINE('',#1675,#337);
#261=LINE('',#1677,#338);
#262=LINE('',#1680,#339);
#263=LINE('',#1682,#340);
#264=LINE('',#1683,#341);
#265=LINE('',#1687,#342);
#266=LINE('',#1690,#343);
#267=LINE('',#1691,#344);
#268=LINE('',#1695,#345);
#269=LINE('',#1698,#346);
#270=LINE('',#1699,#347);
#271=LINE('',#1703,#348);
#272=LINE('',#1706,#349);
#273=LINE('',#1707,#350);
#274=LINE('',#1711,#351);
#275=LINE('',#1712,#352);
#276=LINE('',#1714,#353);
#277=LINE('',#1716,#354);
#278=LINE('',#1718,#355);
#279=LINE('',#1720,#356);
#280=LINE('',#1722,#357);
#281=LINE('',#1724,#358);
#282=LINE('',#1729,#359);
#283=LINE('',#1735,#360);
#284=LINE('',#1737,#361);
#285=LINE('',#1741,#362);
#286=LINE('',#1747,#363);
#287=LINE('',#1749,#364);
#288=LINE('',#1753,#365);
#289=LINE('',#1759,#366);
#290=LINE('',#1761,#367);
#291=LINE('',#1764,#368);
#292=LINE('',#1767,#369);
#293=LINE('',#1770,#370);
#294=LINE('',#1771,#371);
#295=LINE('',#1775,#372);
#296=LINE('',#1778,#373);
#297=LINE('',#1779,#374);
#298=LINE('',#1783,#375);
#299=LINE('',#1786,#376);
#300=LINE('',#1788,#377);
#301=LINE('',#1791,#378);
#302=LINE('',#1793,#379);
#303=VECTOR('',#1182,53.99999999743);
#304=VECTOR('',#1185,70.99999999743);
#305=VECTOR('',#1188,53.99999999743);
#306=VECTOR('',#1191,70.99999999743);
#307=VECTOR('',#1206,8.);
#308=VECTOR('',#1209,2.);
#309=VECTOR('',#1212,8.);
#310=VECTOR('',#1215,2.);
#311=VECTOR('',#1224,1.6);
#312=VECTOR('',#1233,3.25);
#313=VECTOR('',#1240,53.99999999743);
#314=VECTOR('',#1243,70.99999999743);
#315=VECTOR('',#1246,53.99999999743);
#316=VECTOR('',#1249,70.99999999743);
#317=VECTOR('',#1270,3.25);
#318=VECTOR('',#1277,1.6);
#319=VECTOR('',#1282,3.25);
#320=VECTOR('',#1289,1.6);
#321=VECTOR('',#1294,3.25);
#322=VECTOR('',#1301,1.6);
#323=VECTOR('',#1306,3.25);
#324=VECTOR('',#1313,1.6);
#325=VECTOR('',#1318,3.25);
#326=VECTOR('',#1325,1.6);
#327=VECTOR('',#1328,0.424264069212202);
#328=VECTOR('',#1331,0.424264069211401);
#329=VECTOR('',#1334,53.99999999773);
#330=VECTOR('',#1335,0.424264069212202);
#331=VECTOR('',#1340,0.424264069211401);
#332=VECTOR('',#1343,70.99999999773);
#333=VECTOR('',#1344,0.424264069212172);
#334=VECTOR('',#1349,0.424264069211371);
#335=VECTOR('',#1352,53.99999999773);
#336=VECTOR('',#1353,0.424264069212172);
#337=VECTOR('',#1358,0.424264069211371);
#338=VECTOR('',#1361,70.99999999773);
#339=VECTOR('',#1364,7.400000005298);
#340=VECTOR('',#1365,70.99999999773);
#341=VECTOR('',#1366,7.400000005306);
#342=VECTOR('',#1371,7.400000005298);
#343=VECTOR('',#1374,53.99999999773);
#344=VECTOR('',#1375,7.400000005306);
#345=VECTOR('',#1380,7.400000005298);
#346=VECTOR('',#1383,70.99999999773);
#347=VECTOR('',#1384,7.400000005306);
#348=VECTOR('',#1389,7.400000005298);
#349=VECTOR('',#1392,53.99999999773);
#350=VECTOR('',#1393,7.400000005306);
#351=VECTOR('',#1400,0.424264069211401);
#352=VECTOR('',#1401,0.424264069212172);
#353=VECTOR('',#1404,0.424264069211371);
#354=VECTOR('',#1407,0.424264069212202);
#355=VECTOR('',#1410,0.424264069211401);
#356=VECTOR('',#1413,0.424264069212172);
#357=VECTOR('',#1416,0.424264069211401);
#358=VECTOR('',#1419,0.424264069212202);
#359=VECTOR('',#1426,1.375);
#360=VECTOR('',#1433,1.25);
#361=VECTOR('',#1436,1.39999998905);
#362=VECTOR('',#1441,1.375);
#363=VECTOR('',#1448,1.25);
#364=VECTOR('',#1451,1.39999998905);
#365=VECTOR('',#1456,1.375);
#366=VECTOR('',#1463,1.25);
#367=VECTOR('',#1466,1.39999998905);
#368=VECTOR('',#1469,4.5);
#369=VECTOR('',#1472,4.5);
#370=VECTOR('',#1475,8.);
#371=VECTOR('',#1476,4.5);
#372=VECTOR('',#1481,4.5);
#373=VECTOR('',#1484,4.5);
#374=VECTOR('',#1485,2.);
#375=VECTOR('',#1490,4.5);
#376=VECTOR('',#1493,8.);
#377=VECTOR('',#1494,2.);
#378=VECTOR('',#1499,4.5);
#379=VECTOR('',#1502,4.5);
#380=CIRCLE('',#1052,1.7);
#381=CIRCLE('',#1053,1.7);
#382=CIRCLE('',#1054,1.7);
#383=CIRCLE('',#1055,1.7);
#384=CIRCLE('',#1056,1.6);
#385=CIRCLE('',#1057,1.6);
#386=CIRCLE('',#1058,1.6);
#387=CIRCLE('',#1059,1.6);
#388=CIRCLE('',#1060,1.6);
#389=CIRCLE('',#1061,1.6);
#390=CIRCLE('',#1062,1.);
#391=CIRCLE('',#1063,1.);
#392=CIRCLE('',#1064,1.);
#393=CIRCLE('',#1065,1.);
#394=CIRCLE('',#1066,1.55);
#395=CIRCLE('',#1067,1.55);
#396=CIRCLE('',#1068,1.55);
#397=CIRCLE('',#1070,1.6);
#398=CIRCLE('',#1072,3.25);
#399=CIRCLE('',#1074,3.25);
#400=CIRCLE('',#1076,1.7);
#401=CIRCLE('',#1077,1.7);
#402=CIRCLE('',#1078,1.7);
#403=CIRCLE('',#1079,1.7);
#404=CIRCLE('',#1080,3.25);
#405=CIRCLE('',#1081,3.25);
#406=CIRCLE('',#1082,3.25);
#407=CIRCLE('',#1083,3.25);
#408=CIRCLE('',#1084,3.25);
#409=CIRCLE('',#1085,1.5);
#410=CIRCLE('',#1086,1.5);
#411=CIRCLE('',#1087,1.5);
#412=CIRCLE('',#1089,3.25);
#413=CIRCLE('',#1091,1.6);
#414=CIRCLE('',#1094,3.25);
#415=CIRCLE('',#1096,1.6);
#416=CIRCLE('',#1099,3.25);
#417=CIRCLE('',#1101,1.6);
#418=CIRCLE('',#1104,3.25);
#419=CIRCLE('',#1106,1.6);
#420=CIRCLE('',#1109,3.25);
#421=CIRCLE('',#1111,1.6);
#422=CIRCLE('',#1114,2.);
#423=CIRCLE('',#1117,2.);
#424=CIRCLE('',#1120,2.);
#425=CIRCLE('',#1123,2.);
#426=CIRCLE('',#1127,2.);
#427=CIRCLE('',#1130,2.);
#428=CIRCLE('',#1133,2.);
#429=CIRCLE('',#1136,2.);
#430=CIRCLE('',#1146,1.25);
#431=CIRCLE('',#1148,1.25);
#432=CIRCLE('',#1149,1.25);
#433=CIRCLE('',#1152,1.25);
#434=CIRCLE('',#1154,1.25);
#435=CIRCLE('',#1155,1.25);
#436=CIRCLE('',#1158,1.25);
#437=CIRCLE('',#1160,1.25);
#438=CIRCLE('',#1161,1.25);
#439=CIRCLE('',#1164,1.);
#440=CIRCLE('',#1167,1.);
#441=CIRCLE('',#1170,1.);
#442=CIRCLE('',#1172,1.);
#443=VERTEX_POINT('',#1507);
#444=VERTEX_POINT('',#1508);
#445=VERTEX_POINT('',#1510);
#446=VERTEX_POINT('',#1512);
#447=VERTEX_POINT('',#1514);
#448=VERTEX_POINT('',#1516);
#449=VERTEX_POINT('',#1518);
#450=VERTEX_POINT('',#1520);
#451=VERTEX_POINT('',#1523);
#452=VERTEX_POINT('',#1525);
#453=VERTEX_POINT('',#1527);
#454=VERTEX_POINT('',#1529);
#455=VERTEX_POINT('',#1531);
#456=VERTEX_POINT('',#1533);
#457=VERTEX_POINT('',#1535);
#458=VERTEX_POINT('',#1536);
#459=VERTEX_POINT('',#1538);
#460=VERTEX_POINT('',#1540);
#461=VERTEX_POINT('',#1542);
#462=VERTEX_POINT('',#1544);
#463=VERTEX_POINT('',#1546);
#464=VERTEX_POINT('',#1548);
#465=VERTEX_POINT('',#1551);
#466=VERTEX_POINT('',#1553);
#467=VERTEX_POINT('',#1555);
#468=VERTEX_POINT('',#1558);
#469=VERTEX_POINT('',#1562);
#470=VERTEX_POINT('',#1565);
#471=VERTEX_POINT('',#1569);
#472=VERTEX_POINT('',#1570);
#473=VERTEX_POINT('',#1572);
#474=VERTEX_POINT('',#1574);
#475=VERTEX_POINT('',#1576);
#476=VERTEX_POINT('',#1578);
#477=VERTEX_POINT('',#1580);
#478=VERTEX_POINT('',#1582);
#479=VERTEX_POINT('',#1585);
#480=VERTEX_POINT('',#1587);
#481=VERTEX_POINT('',#1589);
#482=VERTEX_POINT('',#1591);
#483=VERTEX_POINT('',#1593);
#484=VERTEX_POINT('',#1595);
#485=VERTEX_POINT('',#1597);
#486=VERTEX_POINT('',#1599);
#487=VERTEX_POINT('',#1602);
#488=VERTEX_POINT('',#1606);
#489=VERTEX_POINT('',#1611);
#490=VERTEX_POINT('',#1615);
#491=VERTEX_POINT('',#1620);
#492=VERTEX_POINT('',#1624);
#493=VERTEX_POINT('',#1629);
#494=VERTEX_POINT('',#1633);
#495=VERTEX_POINT('',#1638);
#496=VERTEX_POINT('',#1642);
#497=VERTEX_POINT('',#1647);
#498=VERTEX_POINT('',#1649);
#499=VERTEX_POINT('',#1653);
#500=VERTEX_POINT('',#1657);
#501=VERTEX_POINT('',#1661);
#502=VERTEX_POINT('',#1665);
#503=VERTEX_POINT('',#1669);
#504=VERTEX_POINT('',#1673);
#505=VERTEX_POINT('',#1679);
#506=VERTEX_POINT('',#1681);
#507=VERTEX_POINT('',#1685);
#508=VERTEX_POINT('',#1689);
#509=VERTEX_POINT('',#1693);
#510=VERTEX_POINT('',#1697);
#511=VERTEX_POINT('',#1701);
#512=VERTEX_POINT('',#1705);
#513=VERTEX_POINT('',#1727);
#514=VERTEX_POINT('',#1731);
#515=VERTEX_POINT('',#1732);
#516=VERTEX_POINT('',#1739);
#517=VERTEX_POINT('',#1743);
#518=VERTEX_POINT('',#1744);
#519=VERTEX_POINT('',#1751);
#520=VERTEX_POINT('',#1755);
#521=VERTEX_POINT('',#1756);
#522=VERTEX_POINT('',#1763);
#523=VERTEX_POINT('',#1765);
#524=VERTEX_POINT('',#1769);
#525=VERTEX_POINT('',#1773);
#526=VERTEX_POINT('',#1777);
#527=VERTEX_POINT('',#1781);
#528=VERTEX_POINT('',#1785);
#529=VERTEX_POINT('',#1787);
#530=EDGE_CURVE('',#443,#444,#380,.T.);
#531=EDGE_CURVE('',#444,#445,#226,.T.);
#532=EDGE_CURVE('',#445,#446,#381,.T.);
#533=EDGE_CURVE('',#446,#447,#227,.T.);
#534=EDGE_CURVE('',#447,#448,#382,.T.);
#535=EDGE_CURVE('',#448,#449,#228,.T.);
#536=EDGE_CURVE('',#449,#450,#383,.T.);
#537=EDGE_CURVE('',#450,#443,#229,.T.);
#538=EDGE_CURVE('',#451,#451,#384,.T.);
#539=EDGE_CURVE('',#452,#452,#385,.T.);
#540=EDGE_CURVE('',#453,#453,#386,.T.);
#541=EDGE_CURVE('',#454,#454,#387,.T.);
#542=EDGE_CURVE('',#455,#455,#388,.T.);
#543=EDGE_CURVE('',#456,#456,#389,.T.);
#544=EDGE_CURVE('',#457,#458,#390,.T.);
#545=EDGE_CURVE('',#459,#458,#230,.T.);
#546=EDGE_CURVE('',#459,#460,#391,.T.);
#547=EDGE_CURVE('',#461,#460,#231,.T.);
#548=EDGE_CURVE('',#461,#462,#392,.T.);
#549=EDGE_CURVE('',#463,#462,#232,.T.);
#550=EDGE_CURVE('',#463,#464,#393,.T.);
#551=EDGE_CURVE('',#457,#464,#233,.T.);
#552=EDGE_CURVE('',#465,#465,#394,.T.);
#553=EDGE_CURVE('',#466,#466,#395,.T.);
#554=EDGE_CURVE('',#467,#467,#396,.T.);
#555=EDGE_CURVE('',#456,#468,#234,.T.);
#556=EDGE_CURVE('',#468,#468,#397,.T.);
#557=EDGE_CURVE('',#469,#469,#398,.T.);
#558=EDGE_CURVE('',#469,#470,#235,.T.);
#559=EDGE_CURVE('',#470,#470,#399,.T.);
#560=EDGE_CURVE('',#471,#472,#400,.T.);
#561=EDGE_CURVE('',#472,#473,#236,.T.);
#562=EDGE_CURVE('',#473,#474,#401,.T.);
#563=EDGE_CURVE('',#474,#475,#237,.T.);
#564=EDGE_CURVE('',#475,#476,#402,.T.);
#565=EDGE_CURVE('',#476,#477,#238,.T.);
#566=EDGE_CURVE('',#477,#478,#403,.T.);
#567=EDGE_CURVE('',#478,#471,#239,.T.);
#568=EDGE_CURVE('',#479,#479,#404,.T.);
#569=EDGE_CURVE('',#480,#480,#405,.T.);
#570=EDGE_CURVE('',#481,#481,#406,.T.);
#571=EDGE_CURVE('',#482,#482,#407,.T.);
#572=EDGE_CURVE('',#483,#483,#408,.T.);
#573=EDGE_CURVE('',#484,#484,#409,.T.);
#574=EDGE_CURVE('',#485,#485,#410,.T.);
#575=EDGE_CURVE('',#486,#486,#411,.T.);
#576=EDGE_CURVE('',#487,#487,#412,.T.);
#577=EDGE_CURVE('',#487,#479,#240,.T.);
#578=EDGE_CURVE('',#488,#488,#413,.T.);
#579=EDGE_CURVE('',#451,#488,#241,.T.);
#580=EDGE_CURVE('',#489,#489,#414,.T.);
#581=EDGE_CURVE('',#489,#480,#242,.T.);
#582=EDGE_CURVE('',#490,#490,#415,.T.);
#583=EDGE_CURVE('',#452,#490,#243,.T.);
#584=EDGE_CURVE('',#491,#491,#416,.T.);
#585=EDGE_CURVE('',#491,#481,#244,.T.);
#586=EDGE_CURVE('',#492,#492,#417,.T.);
#587=EDGE_CURVE('',#453,#492,#245,.T.);
#588=EDGE_CURVE('',#493,#493,#418,.T.);
#589=EDGE_CURVE('',#493,#482,#246,.T.);
#590=EDGE_CURVE('',#494,#494,#419,.T.);
#591=EDGE_CURVE('',#454,#494,#247,.T.);
#592=EDGE_CURVE('',#495,#495,#420,.T.);
#593=EDGE_CURVE('',#495,#483,#248,.T.);
#594=EDGE_CURVE('',#496,#496,#421,.T.);
#595=EDGE_CURVE('',#455,#496,#249,.T.);
#596=EDGE_CURVE('',#471,#497,#250,.T.);
#597=EDGE_CURVE('',#497,#498,#422,.T.);
#598=EDGE_CURVE('',#472,#498,#251,.T.);
#599=EDGE_CURVE('',#498,#499,#252,.T.);
#600=EDGE_CURVE('',#473,#499,#253,.T.);
#601=EDGE_CURVE('',#499,#500,#423,.T.);
#602=EDGE_CURVE('',#474,#500,#254,.T.);
#603=EDGE_CURVE('',#500,#501,#255,.T.);
#604=EDGE_CURVE('',#475,#501,#256,.T.);
#605=EDGE_CURVE('',#501,#502,#424,.T.);
#606=EDGE_CURVE('',#476,#502,#257,.T.);
#607=EDGE_CURVE('',#502,#503,#258,.T.);
#608=EDGE_CURVE('',#477,#503,#259,.T.);
#609=EDGE_CURVE('',#503,#504,#425,.T.);
#610=EDGE_CURVE('',#478,#504,#260,.T.);
#611=EDGE_CURVE('',#504,#497,#261,.T.);
#612=EDGE_CURVE('',#504,#505,#262,.T.);
#613=EDGE_CURVE('',#506,#505,#263,.T.);
#614=EDGE_CURVE('',#497,#506,#264,.T.);
#615=EDGE_CURVE('',#507,#506,#426,.T.);
#616=EDGE_CURVE('',#498,#507,#265,.T.);
#617=EDGE_CURVE('',#508,#507,#266,.T.);
#618=EDGE_CURVE('',#499,#508,#267,.T.);
#619=EDGE_CURVE('',#509,#508,#427,.T.);
#620=EDGE_CURVE('',#500,#509,#268,.T.);
#621=EDGE_CURVE('',#510,#509,#269,.T.);
#622=EDGE_CURVE('',#501,#510,#270,.T.);
#623=EDGE_CURVE('',#511,#510,#428,.T.);
#624=EDGE_CURVE('',#502,#511,#271,.T.);
#625=EDGE_CURVE('',#512,#511,#272,.T.);
#626=EDGE_CURVE('',#503,#512,#273,.T.);
#627=EDGE_CURVE('',#505,#512,#429,.T.);
#628=EDGE_CURVE('',#443,#505,#274,.T.);
#629=EDGE_CURVE('',#444,#512,#275,.T.);
#630=EDGE_CURVE('',#445,#511,#276,.T.);
#631=EDGE_CURVE('',#446,#510,#277,.T.);
#632=EDGE_CURVE('',#447,#509,#278,.T.);
#633=EDGE_CURVE('',#448,#508,#279,.T.);
#634=EDGE_CURVE('',#449,#507,#280,.T.);
#635=EDGE_CURVE('',#450,#506,#281,.T.);
#636=EDGE_CURVE('',#513,#513,#430,.T.);
#637=EDGE_CURVE('',#513,#484,#282,.T.);
#638=EDGE_CURVE('',#514,#515,#431,.T.);
#639=EDGE_CURVE('',#515,#514,#432,.T.);
#640=EDGE_CURVE('',#515,#513,#283,.T.);
#641=EDGE_CURVE('',#514,#465,#284,.T.);
#642=EDGE_CURVE('',#516,#516,#433,.T.);
#643=EDGE_CURVE('',#516,#485,#285,.T.);
#644=EDGE_CURVE('',#517,#518,#434,.T.);
#645=EDGE_CURVE('',#518,#517,#435,.T.);
#646=EDGE_CURVE('',#518,#516,#286,.T.);
#647=EDGE_CURVE('',#517,#466,#287,.T.);
#648=EDGE_CURVE('',#519,#519,#436,.T.);
#649=EDGE_CURVE('',#519,#486,#288,.T.);
#650=EDGE_CURVE('',#520,#521,#437,.T.);
#651=EDGE_CURVE('',#521,#520,#438,.T.);
#652=EDGE_CURVE('',#521,#519,#289,.T.);
#653=EDGE_CURVE('',#520,#467,#290,.T.);
#654=EDGE_CURVE('',#522,#457,#291,.T.);
#655=EDGE_CURVE('',#523,#522,#439,.T.);
#656=EDGE_CURVE('',#523,#458,#292,.T.);
#657=EDGE_CURVE('',#524,#523,#293,.T.);
#658=EDGE_CURVE('',#524,#459,#294,.T.);
#659=EDGE_CURVE('',#525,#524,#440,.T.);
#660=EDGE_CURVE('',#525,#460,#295,.T.);
#661=EDGE_CURVE('',#526,#461,#296,.T.);
#662=EDGE_CURVE('',#526,#525,#297,.T.);
#663=EDGE_CURVE('',#527,#526,#441,.T.);
#664=EDGE_CURVE('',#527,#462,#298,.T.);
#665=EDGE_CURVE('',#528,#527,#299,.T.);
#666=EDGE_CURVE('',#522,#529,#300,.T.);
#667=EDGE_CURVE('',#529,#528,#442,.T.);
#668=EDGE_CURVE('',#528,#463,#301,.T.);
#669=EDGE_CURVE('',#529,#464,#302,.T.);
#670=ORIENTED_EDGE('',*,*,#530,.T.);
#671=ORIENTED_EDGE('',*,*,#531,.T.);
#672=ORIENTED_EDGE('',*,*,#532,.T.);
#673=ORIENTED_EDGE('',*,*,#533,.T.);
#674=ORIENTED_EDGE('',*,*,#534,.T.);
#675=ORIENTED_EDGE('',*,*,#535,.T.);
#676=ORIENTED_EDGE('',*,*,#536,.T.);
#677=ORIENTED_EDGE('',*,*,#537,.T.);
#678=ORIENTED_EDGE('',*,*,#538,.T.);
#679=ORIENTED_EDGE('',*,*,#539,.T.);
#680=ORIENTED_EDGE('',*,*,#540,.T.);
#681=ORIENTED_EDGE('',*,*,#541,.T.);
#682=ORIENTED_EDGE('',*,*,#542,.T.);
#683=ORIENTED_EDGE('',*,*,#543,.T.);
#684=ORIENTED_EDGE('',*,*,#544,.T.);
#685=ORIENTED_EDGE('',*,*,#545,.F.);
#686=ORIENTED_EDGE('',*,*,#546,.T.);
#687=ORIENTED_EDGE('',*,*,#547,.F.);
#688=ORIENTED_EDGE('',*,*,#548,.T.);
#689=ORIENTED_EDGE('',*,*,#549,.F.);
#690=ORIENTED_EDGE('',*,*,#550,.T.);
#691=ORIENTED_EDGE('',*,*,#551,.F.);
#692=ORIENTED_EDGE('',*,*,#552,.T.);
#693=ORIENTED_EDGE('',*,*,#553,.T.);
#694=ORIENTED_EDGE('',*,*,#554,.T.);
#695=ORIENTED_EDGE('',*,*,#543,.F.);
#696=ORIENTED_EDGE('',*,*,#555,.T.);
#697=ORIENTED_EDGE('',*,*,#556,.T.);
#698=ORIENTED_EDGE('',*,*,#555,.F.);
#699=ORIENTED_EDGE('',*,*,#557,.T.);
#700=ORIENTED_EDGE('',*,*,#556,.F.);
#701=ORIENTED_EDGE('',*,*,#557,.F.);
#702=ORIENTED_EDGE('',*,*,#558,.T.);
#703=ORIENTED_EDGE('',*,*,#559,.T.);
#704=ORIENTED_EDGE('',*,*,#558,.F.);
#705=ORIENTED_EDGE('',*,*,#560,.T.);
#706=ORIENTED_EDGE('',*,*,#561,.T.);
#707=ORIENTED_EDGE('',*,*,#562,.T.);
#708=ORIENTED_EDGE('',*,*,#563,.T.);
#709=ORIENTED_EDGE('',*,*,#564,.T.);
#710=ORIENTED_EDGE('',*,*,#565,.T.);
#711=ORIENTED_EDGE('',*,*,#566,.T.);
#712=ORIENTED_EDGE('',*,*,#567,.T.);
#713=ORIENTED_EDGE('',*,*,#568,.F.);
#714=ORIENTED_EDGE('',*,*,#569,.F.);
#715=ORIENTED_EDGE('',*,*,#570,.F.);
#716=ORIENTED_EDGE('',*,*,#571,.F.);
#717=ORIENTED_EDGE('',*,*,#572,.F.);
#718=ORIENTED_EDGE('',*,*,#559,.F.);
#719=ORIENTED_EDGE('',*,*,#573,.F.);
#720=ORIENTED_EDGE('',*,*,#574,.F.);
#721=ORIENTED_EDGE('',*,*,#575,.F.);
#722=ORIENTED_EDGE('',*,*,#576,.F.);
#723=ORIENTED_EDGE('',*,*,#577,.T.);
#724=ORIENTED_EDGE('',*,*,#568,.T.);
#725=ORIENTED_EDGE('',*,*,#577,.F.);
#726=ORIENTED_EDGE('',*,*,#576,.T.);
#727=ORIENTED_EDGE('',*,*,#578,.T.);
#728=ORIENTED_EDGE('',*,*,#538,.F.);
#729=ORIENTED_EDGE('',*,*,#579,.T.);
#730=ORIENTED_EDGE('',*,*,#578,.F.);
#731=ORIENTED_EDGE('',*,*,#579,.F.);
#732=ORIENTED_EDGE('',*,*,#580,.F.);
#733=ORIENTED_EDGE('',*,*,#581,.T.);
#734=ORIENTED_EDGE('',*,*,#569,.T.);
#735=ORIENTED_EDGE('',*,*,#581,.F.);
#736=ORIENTED_EDGE('',*,*,#580,.T.);
#737=ORIENTED_EDGE('',*,*,#582,.T.);
#738=ORIENTED_EDGE('',*,*,#539,.F.);
#739=ORIENTED_EDGE('',*,*,#583,.T.);
#740=ORIENTED_EDGE('',*,*,#582,.F.);
#741=ORIENTED_EDGE('',*,*,#583,.F.);
#742=ORIENTED_EDGE('',*,*,#584,.F.);
#743=ORIENTED_EDGE('',*,*,#585,.T.);
#744=ORIENTED_EDGE('',*,*,#570,.T.);
#745=ORIENTED_EDGE('',*,*,#585,.F.);
#746=ORIENTED_EDGE('',*,*,#584,.T.);
#747=ORIENTED_EDGE('',*,*,#586,.T.);
#748=ORIENTED_EDGE('',*,*,#540,.F.);
#749=ORIENTED_EDGE('',*,*,#587,.T.);
#750=ORIENTED_EDGE('',*,*,#586,.F.);
#751=ORIENTED_EDGE('',*,*,#587,.F.);
#752=ORIENTED_EDGE('',*,*,#588,.F.);
#753=ORIENTED_EDGE('',*,*,#589,.T.);
#754=ORIENTED_EDGE('',*,*,#571,.T.);
#755=ORIENTED_EDGE('',*,*,#589,.F.);
#756=ORIENTED_EDGE('',*,*,#588,.T.);
#757=ORIENTED_EDGE('',*,*,#590,.T.);
#758=ORIENTED_EDGE('',*,*,#541,.F.);
#759=ORIENTED_EDGE('',*,*,#591,.T.);
#760=ORIENTED_EDGE('',*,*,#590,.F.);
#761=ORIENTED_EDGE('',*,*,#591,.F.);
#762=ORIENTED_EDGE('',*,*,#592,.F.);
#763=ORIENTED_EDGE('',*,*,#593,.T.);
#764=ORIENTED_EDGE('',*,*,#572,.T.);
#765=ORIENTED_EDGE('',*,*,#593,.F.);
#766=ORIENTED_EDGE('',*,*,#592,.T.);
#767=ORIENTED_EDGE('',*,*,#594,.T.);
#768=ORIENTED_EDGE('',*,*,#542,.F.);
#769=ORIENTED_EDGE('',*,*,#595,.T.);
#770=ORIENTED_EDGE('',*,*,#594,.F.);
#771=ORIENTED_EDGE('',*,*,#595,.F.);
#772=ORIENTED_EDGE('',*,*,#560,.F.);
#773=ORIENTED_EDGE('',*,*,#596,.T.);
#774=ORIENTED_EDGE('',*,*,#597,.T.);
#775=ORIENTED_EDGE('',*,*,#598,.F.);
#776=ORIENTED_EDGE('',*,*,#561,.F.);
#777=ORIENTED_EDGE('',*,*,#598,.T.);
#778=ORIENTED_EDGE('',*,*,#599,.T.);
#779=ORIENTED_EDGE('',*,*,#600,.F.);
#780=ORIENTED_EDGE('',*,*,#562,.F.);
#781=ORIENTED_EDGE('',*,*,#600,.T.);
#782=ORIENTED_EDGE('',*,*,#601,.T.);
#783=ORIENTED_EDGE('',*,*,#602,.F.);
#784=ORIENTED_EDGE('',*,*,#563,.F.);
#785=ORIENTED_EDGE('',*,*,#602,.T.);
#786=ORIENTED_EDGE('',*,*,#603,.T.);
#787=ORIENTED_EDGE('',*,*,#604,.F.);
#788=ORIENTED_EDGE('',*,*,#564,.F.);
#789=ORIENTED_EDGE('',*,*,#604,.T.);
#790=ORIENTED_EDGE('',*,*,#605,.T.);
#791=ORIENTED_EDGE('',*,*,#606,.F.);
#792=ORIENTED_EDGE('',*,*,#565,.F.);
#793=ORIENTED_EDGE('',*,*,#606,.T.);
#794=ORIENTED_EDGE('',*,*,#607,.T.);
#795=ORIENTED_EDGE('',*,*,#608,.F.);
#796=ORIENTED_EDGE('',*,*,#566,.F.);
#797=ORIENTED_EDGE('',*,*,#608,.T.);
#798=ORIENTED_EDGE('',*,*,#609,.T.);
#799=ORIENTED_EDGE('',*,*,#610,.F.);
#800=ORIENTED_EDGE('',*,*,#567,.F.);
#801=ORIENTED_EDGE('',*,*,#610,.T.);
#802=ORIENTED_EDGE('',*,*,#611,.T.);
#803=ORIENTED_EDGE('',*,*,#596,.F.);
#804=ORIENTED_EDGE('',*,*,#611,.F.);
#805=ORIENTED_EDGE('',*,*,#612,.T.);
#806=ORIENTED_EDGE('',*,*,#613,.F.);
#807=ORIENTED_EDGE('',*,*,#614,.F.);
#808=ORIENTED_EDGE('',*,*,#597,.F.);
#809=ORIENTED_EDGE('',*,*,#614,.T.);
#810=ORIENTED_EDGE('',*,*,#615,.F.);
#811=ORIENTED_EDGE('',*,*,#616,.F.);
#812=ORIENTED_EDGE('',*,*,#599,.F.);
#813=ORIENTED_EDGE('',*,*,#616,.T.);
#814=ORIENTED_EDGE('',*,*,#617,.F.);
#815=ORIENTED_EDGE('',*,*,#618,.F.);
#816=ORIENTED_EDGE('',*,*,#601,.F.);
#817=ORIENTED_EDGE('',*,*,#618,.T.);
#818=ORIENTED_EDGE('',*,*,#619,.F.);
#819=ORIENTED_EDGE('',*,*,#620,.F.);
#820=ORIENTED_EDGE('',*,*,#603,.F.);
#821=ORIENTED_EDGE('',*,*,#620,.T.);
#822=ORIENTED_EDGE('',*,*,#621,.F.);
#823=ORIENTED_EDGE('',*,*,#622,.F.);
#824=ORIENTED_EDGE('',*,*,#605,.F.);
#825=ORIENTED_EDGE('',*,*,#622,.T.);
#826=ORIENTED_EDGE('',*,*,#623,.F.);
#827=ORIENTED_EDGE('',*,*,#624,.F.);
#828=ORIENTED_EDGE('',*,*,#607,.F.);
#829=ORIENTED_EDGE('',*,*,#624,.T.);
#830=ORIENTED_EDGE('',*,*,#625,.F.);
#831=ORIENTED_EDGE('',*,*,#626,.F.);
#832=ORIENTED_EDGE('',*,*,#609,.F.);
#833=ORIENTED_EDGE('',*,*,#626,.T.);
#834=ORIENTED_EDGE('',*,*,#627,.F.);
#835=ORIENTED_EDGE('',*,*,#612,.F.);
#836=ORIENTED_EDGE('',*,*,#530,.F.);
#837=ORIENTED_EDGE('',*,*,#628,.T.);
#838=ORIENTED_EDGE('',*,*,#627,.T.);
#839=ORIENTED_EDGE('',*,*,#629,.F.);
#840=ORIENTED_EDGE('',*,*,#531,.F.);
#841=ORIENTED_EDGE('',*,*,#629,.T.);
#842=ORIENTED_EDGE('',*,*,#625,.T.);
#843=ORIENTED_EDGE('',*,*,#630,.F.);
#844=ORIENTED_EDGE('',*,*,#532,.F.);
#845=ORIENTED_EDGE('',*,*,#630,.T.);
#846=ORIENTED_EDGE('',*,*,#623,.T.);
#847=ORIENTED_EDGE('',*,*,#631,.F.);
#848=ORIENTED_EDGE('',*,*,#533,.F.);
#849=ORIENTED_EDGE('',*,*,#631,.T.);
#850=ORIENTED_EDGE('',*,*,#621,.T.);
#851=ORIENTED_EDGE('',*,*,#632,.F.);
#852=ORIENTED_EDGE('',*,*,#534,.F.);
#853=ORIENTED_EDGE('',*,*,#632,.T.);
#854=ORIENTED_EDGE('',*,*,#619,.T.);
#855=ORIENTED_EDGE('',*,*,#633,.F.);
#856=ORIENTED_EDGE('',*,*,#535,.F.);
#857=ORIENTED_EDGE('',*,*,#633,.T.);
#858=ORIENTED_EDGE('',*,*,#617,.T.);
#859=ORIENTED_EDGE('',*,*,#634,.F.);
#860=ORIENTED_EDGE('',*,*,#536,.F.);
#861=ORIENTED_EDGE('',*,*,#634,.T.);
#862=ORIENTED_EDGE('',*,*,#615,.T.);
#863=ORIENTED_EDGE('',*,*,#635,.F.);
#864=ORIENTED_EDGE('',*,*,#537,.F.);
#865=ORIENTED_EDGE('',*,*,#635,.T.);
#866=ORIENTED_EDGE('',*,*,#613,.T.);
#867=ORIENTED_EDGE('',*,*,#628,.F.);
#868=ORIENTED_EDGE('',*,*,#636,.F.);
#869=ORIENTED_EDGE('',*,*,#637,.T.);
#870=ORIENTED_EDGE('',*,*,#573,.T.);
#871=ORIENTED_EDGE('',*,*,#637,.F.);
#872=ORIENTED_EDGE('',*,*,#638,.F.);
#873=ORIENTED_EDGE('',*,*,#639,.F.);
#874=ORIENTED_EDGE('',*,*,#640,.T.);
#875=ORIENTED_EDGE('',*,*,#636,.T.);
#876=ORIENTED_EDGE('',*,*,#640,.F.);
#877=ORIENTED_EDGE('',*,*,#638,.T.);
#878=ORIENTED_EDGE('',*,*,#639,.T.);
#879=ORIENTED_EDGE('',*,*,#641,.T.);
#880=ORIENTED_EDGE('',*,*,#552,.F.);
#881=ORIENTED_EDGE('',*,*,#641,.F.);
#882=ORIENTED_EDGE('',*,*,#642,.F.);
#883=ORIENTED_EDGE('',*,*,#643,.T.);
#884=ORIENTED_EDGE('',*,*,#574,.T.);
#885=ORIENTED_EDGE('',*,*,#643,.F.);
#886=ORIENTED_EDGE('',*,*,#644,.F.);
#887=ORIENTED_EDGE('',*,*,#645,.F.);
#888=ORIENTED_EDGE('',*,*,#646,.T.);
#889=ORIENTED_EDGE('',*,*,#642,.T.);
#890=ORIENTED_EDGE('',*,*,#646,.F.);
#891=ORIENTED_EDGE('',*,*,#644,.T.);
#892=ORIENTED_EDGE('',*,*,#645,.T.);
#893=ORIENTED_EDGE('',*,*,#647,.T.);
#894=ORIENTED_EDGE('',*,*,#553,.F.);
#895=ORIENTED_EDGE('',*,*,#647,.F.);
#896=ORIENTED_EDGE('',*,*,#648,.F.);
#897=ORIENTED_EDGE('',*,*,#649,.T.);
#898=ORIENTED_EDGE('',*,*,#575,.T.);
#899=ORIENTED_EDGE('',*,*,#649,.F.);
#900=ORIENTED_EDGE('',*,*,#650,.F.);
#901=ORIENTED_EDGE('',*,*,#651,.F.);
#902=ORIENTED_EDGE('',*,*,#652,.T.);
#903=ORIENTED_EDGE('',*,*,#648,.T.);
#904=ORIENTED_EDGE('',*,*,#652,.F.);
#905=ORIENTED_EDGE('',*,*,#650,.T.);
#906=ORIENTED_EDGE('',*,*,#651,.T.);
#907=ORIENTED_EDGE('',*,*,#653,.T.);
#908=ORIENTED_EDGE('',*,*,#554,.F.);
#909=ORIENTED_EDGE('',*,*,#653,.F.);
#910=ORIENTED_EDGE('',*,*,#544,.F.);
#911=ORIENTED_EDGE('',*,*,#654,.F.);
#912=ORIENTED_EDGE('',*,*,#655,.F.);
#913=ORIENTED_EDGE('',*,*,#656,.T.);
#914=ORIENTED_EDGE('',*,*,#656,.F.);
#915=ORIENTED_EDGE('',*,*,#657,.F.);
#916=ORIENTED_EDGE('',*,*,#658,.T.);
#917=ORIENTED_EDGE('',*,*,#545,.T.);
#918=ORIENTED_EDGE('',*,*,#546,.F.);
#919=ORIENTED_EDGE('',*,*,#658,.F.);
#920=ORIENTED_EDGE('',*,*,#659,.F.);
#921=ORIENTED_EDGE('',*,*,#660,.T.);
#922=ORIENTED_EDGE('',*,*,#661,.T.);
#923=ORIENTED_EDGE('',*,*,#547,.T.);
#924=ORIENTED_EDGE('',*,*,#660,.F.);
#925=ORIENTED_EDGE('',*,*,#662,.F.);
#926=ORIENTED_EDGE('',*,*,#663,.F.);
#927=ORIENTED_EDGE('',*,*,#664,.T.);
#928=ORIENTED_EDGE('',*,*,#548,.F.);
#929=ORIENTED_EDGE('',*,*,#661,.F.);
#930=ORIENTED_EDGE('',*,*,#665,.T.);
#931=ORIENTED_EDGE('',*,*,#663,.T.);
#932=ORIENTED_EDGE('',*,*,#662,.T.);
#933=ORIENTED_EDGE('',*,*,#659,.T.);
#934=ORIENTED_EDGE('',*,*,#657,.T.);
#935=ORIENTED_EDGE('',*,*,#655,.T.);
#936=ORIENTED_EDGE('',*,*,#666,.T.);
#937=ORIENTED_EDGE('',*,*,#667,.T.);
#938=ORIENTED_EDGE('',*,*,#668,.T.);
#939=ORIENTED_EDGE('',*,*,#549,.T.);
#940=ORIENTED_EDGE('',*,*,#664,.F.);
#941=ORIENTED_EDGE('',*,*,#665,.F.);
#942=ORIENTED_EDGE('',*,*,#667,.F.);
#943=ORIENTED_EDGE('',*,*,#669,.T.);
#944=ORIENTED_EDGE('',*,*,#550,.F.);
#945=ORIENTED_EDGE('',*,*,#668,.F.);
#946=ORIENTED_EDGE('',*,*,#654,.T.);
#947=ORIENTED_EDGE('',*,*,#551,.T.);
#948=ORIENTED_EDGE('',*,*,#669,.F.);
#949=ORIENTED_EDGE('',*,*,#666,.F.);
#950=PLANE('',#1051);
#951=PLANE('',#1071);
#952=PLANE('',#1075);
#953=PLANE('',#1090);
#954=PLANE('',#1095);
#955=PLANE('',#1100);
#956=PLANE('',#1105);
#957=PLANE('',#1110);
#958=PLANE('',#1115);
#959=PLANE('',#1118);
#960=PLANE('',#1121);
#961=PLANE('',#1124);
#962=PLANE('',#1125);
#963=PLANE('',#1128);
#964=PLANE('',#1131);
#965=PLANE('',#1134);
#966=PLANE('',#1138);
#967=PLANE('',#1140);
#968=PLANE('',#1142);
#969=PLANE('',#1144);
#970=PLANE('',#1165);
#971=PLANE('',#1168);
#972=PLANE('',#1171);
#973=PLANE('',#1173);
#974=PLANE('',#1175);
#975=ADVANCED_FACE('',(#77,#52,#53,#54,#55,#56,#57,#58,#59,#60,#61),#950,
 .F.);
#976=ADVANCED_FACE('',(#78),#29,.F.);
#977=ADVANCED_FACE('',(#79,#62),#951,.T.);
#978=ADVANCED_FACE('',(#80),#30,.F.);
#979=ADVANCED_FACE('',(#81,#63,#64,#65,#66,#67,#68,#69,#70,#71),#952,.T.);
#980=ADVANCED_FACE('',(#82),#31,.F.);
#981=ADVANCED_FACE('',(#83,#72),#953,.T.);
#982=ADVANCED_FACE('',(#84),#32,.F.);
#983=ADVANCED_FACE('',(#85),#33,.F.);
#984=ADVANCED_FACE('',(#86,#73),#954,.T.);
#985=ADVANCED_FACE('',(#87),#34,.F.);
#986=ADVANCED_FACE('',(#88),#35,.F.);
#987=ADVANCED_FACE('',(#89,#74),#955,.T.);
#988=ADVANCED_FACE('',(#90),#36,.F.);
#989=ADVANCED_FACE('',(#91),#37,.F.);
#990=ADVANCED_FACE('',(#92,#75),#956,.T.);
#991=ADVANCED_FACE('',(#93),#38,.F.);
#992=ADVANCED_FACE('',(#94),#39,.F.);
#993=ADVANCED_FACE('',(#95,#76),#957,.T.);
#994=ADVANCED_FACE('',(#96),#40,.F.);
#995=ADVANCED_FACE('',(#97),#15,.T.);
#996=ADVANCED_FACE('',(#98),#958,.T.);
#997=ADVANCED_FACE('',(#99),#16,.T.);
#998=ADVANCED_FACE('',(#100),#959,.T.);
#999=ADVANCED_FACE('',(#101),#17,.T.);
#1000=ADVANCED_FACE('',(#102),#960,.T.);
#1001=ADVANCED_FACE('',(#103),#18,.T.);
#1002=ADVANCED_FACE('',(#104),#961,.T.);
#1003=ADVANCED_FACE('',(#105),#962,.T.);
#1004=ADVANCED_FACE('',(#106),#41,.T.);
#1005=ADVANCED_FACE('',(#107),#963,.T.);
#1006=ADVANCED_FACE('',(#108),#42,.T.);
#1007=ADVANCED_FACE('',(#109),#964,.T.);
#1008=ADVANCED_FACE('',(#110),#43,.T.);
#1009=ADVANCED_FACE('',(#111),#965,.T.);
#1010=ADVANCED_FACE('',(#112),#44,.T.);
#1011=ADVANCED_FACE('',(#113),#19,.T.);
#1012=ADVANCED_FACE('',(#114),#966,.T.);
#1013=ADVANCED_FACE('',(#115),#20,.T.);
#1014=ADVANCED_FACE('',(#116),#967,.T.);
#1015=ADVANCED_FACE('',(#117),#21,.T.);
#1016=ADVANCED_FACE('',(#118),#968,.T.);
#1017=ADVANCED_FACE('',(#119),#22,.T.);
#1018=ADVANCED_FACE('',(#120),#969,.T.);
#1019=ADVANCED_FACE('',(#121),#23,.F.);
#1020=ADVANCED_FACE('',(#122),#45,.F.);
#1021=ADVANCED_FACE('',(#123),#24,.F.);
#1022=ADVANCED_FACE('',(#124),#25,.F.);
#1023=ADVANCED_FACE('',(#125),#46,.F.);
#1024=ADVANCED_FACE('',(#126),#26,.F.);
#1025=ADVANCED_FACE('',(#127),#27,.F.);
#1026=ADVANCED_FACE('',(#128),#47,.F.);
#1027=ADVANCED_FACE('',(#129),#28,.F.);
#1028=ADVANCED_FACE('',(#130),#48,.F.);
#1029=ADVANCED_FACE('',(#131),#970,.F.);
#1030=ADVANCED_FACE('',(#132),#49,.F.);
#1031=ADVANCED_FACE('',(#133),#971,.F.);
#1032=ADVANCED_FACE('',(#134),#50,.F.);
#1033=ADVANCED_FACE('',(#135),#972,.T.);
#1034=ADVANCED_FACE('',(#136),#973,.F.);
#1035=ADVANCED_FACE('',(#137),#51,.F.);
#1036=ADVANCED_FACE('',(#138),#974,.F.);
#1037=CLOSED_SHELL('',(#975,#976,#977,#978,#979,#980,#981,#982,#983,#984,
#985,#986,#987,#988,#989,#990,#991,#992,#993,#994,#995,#996,#997,#998,#999,
#1000,#1001,#1002,#1003,#1004,#1005,#1006,#1007,#1008,#1009,#1010,#1011,
#1012,#1013,#1014,#1015,#1016,#1017,#1018,#1019,#1020,#1021,#1022,#1023,
#1024,#1025,#1026,#1027,#1028,#1029,#1030,#1031,#1032,#1033,#1034,#1035,
#1036));
#1038=DERIVED_UNIT_ELEMENT(#1040,1.);
#1039=DERIVED_UNIT_ELEMENT(#1800,-3.);
#1040=(
MASS_UNIT()
NAMED_UNIT(*)
SI_UNIT(.KILO.,.GRAM.)
);
#1041=DERIVED_UNIT((#1038,#1039));
#1042=MEASURE_REPRESENTATION_ITEM('density measure',
POSITIVE_RATIO_MEASURE(7850.),#1041);
#1043=PROPERTY_DEFINITION_REPRESENTATION(#1048,#1045);
#1044=PROPERTY_DEFINITION_REPRESENTATION(#1049,#1046);
#1045=REPRESENTATION('material name',(#1047),#1797);
#1046=REPRESENTATION('density',(#1042),#1797);
#1047=DESCRIPTIVE_REPRESENTATION_ITEM('\X2\94A2\X0\','\X2\94A2\X0\');
#1048=PROPERTY_DEFINITION('material property','material name',#1807);
#1049=PROPERTY_DEFINITION('material property','density of part',#1807);
#1050=AXIS2_PLACEMENT_3D('',#1505,#1176,#1177);
#1051=AXIS2_PLACEMENT_3D('',#1506,#1178,#1179);
#1052=AXIS2_PLACEMENT_3D('',#1509,#1180,#1181);
#1053=AXIS2_PLACEMENT_3D('',#1513,#1183,#1184);
#1054=AXIS2_PLACEMENT_3D('',#1517,#1186,#1187);
#1055=AXIS2_PLACEMENT_3D('',#1521,#1189,#1190);
#1056=AXIS2_PLACEMENT_3D('',#1524,#1192,#1193);
#1057=AXIS2_PLACEMENT_3D('',#1526,#1194,#1195);
#1058=AXIS2_PLACEMENT_3D('',#1528,#1196,#1197);
#1059=AXIS2_PLACEMENT_3D('',#1530,#1198,#1199);
#1060=AXIS2_PLACEMENT_3D('',#1532,#1200,#1201);
#1061=AXIS2_PLACEMENT_3D('',#1534,#1202,#1203);
#1062=AXIS2_PLACEMENT_3D('',#1537,#1204,#1205);
#1063=AXIS2_PLACEMENT_3D('',#1541,#1207,#1208);
#1064=AXIS2_PLACEMENT_3D('',#1545,#1210,#1211);
#1065=AXIS2_PLACEMENT_3D('',#1549,#1213,#1214);
#1066=AXIS2_PLACEMENT_3D('',#1552,#1216,#1217);
#1067=AXIS2_PLACEMENT_3D('',#1554,#1218,#1219);
#1068=AXIS2_PLACEMENT_3D('',#1556,#1220,#1221);
#1069=AXIS2_PLACEMENT_3D('',#1557,#1222,#1223);
#1070=AXIS2_PLACEMENT_3D('',#1560,#1225,#1226);
#1071=AXIS2_PLACEMENT_3D('',#1561,#1227,#1228);
#1072=AXIS2_PLACEMENT_3D('',#1563,#1229,#1230);
#1073=AXIS2_PLACEMENT_3D('',#1564,#1231,#1232);
#1074=AXIS2_PLACEMENT_3D('',#1567,#1234,#1235);
#1075=AXIS2_PLACEMENT_3D('',#1568,#1236,#1237);
#1076=AXIS2_PLACEMENT_3D('',#1571,#1238,#1239);
#1077=AXIS2_PLACEMENT_3D('',#1575,#1241,#1242);
#1078=AXIS2_PLACEMENT_3D('',#1579,#1244,#1245);
#1079=AXIS2_PLACEMENT_3D('',#1583,#1247,#1248);
#1080=AXIS2_PLACEMENT_3D('',#1586,#1250,#1251);
#1081=AXIS2_PLACEMENT_3D('',#1588,#1252,#1253);
#1082=AXIS2_PLACEMENT_3D('',#1590,#1254,#1255);
#1083=AXIS2_PLACEMENT_3D('',#1592,#1256,#1257);
#1084=AXIS2_PLACEMENT_3D('',#1594,#1258,#1259);
#1085=AXIS2_PLACEMENT_3D('',#1596,#1260,#1261);
#1086=AXIS2_PLACEMENT_3D('',#1598,#1262,#1263);
#1087=AXIS2_PLACEMENT_3D('',#1600,#1264,#1265);
#1088=AXIS2_PLACEMENT_3D('',#1601,#1266,#1267);
#1089=AXIS2_PLACEMENT_3D('',#1603,#1268,#1269);
#1090=AXIS2_PLACEMENT_3D('',#1605,#1271,#1272);
#1091=AXIS2_PLACEMENT_3D('',#1607,#1273,#1274);
#1092=AXIS2_PLACEMENT_3D('',#1608,#1275,#1276);
#1093=AXIS2_PLACEMENT_3D('',#1610,#1278,#1279);
#1094=AXIS2_PLACEMENT_3D('',#1612,#1280,#1281);
#1095=AXIS2_PLACEMENT_3D('',#1614,#1283,#1284);
#1096=AXIS2_PLACEMENT_3D('',#1616,#1285,#1286);
#1097=AXIS2_PLACEMENT_3D('',#1617,#1287,#1288);
#1098=AXIS2_PLACEMENT_3D('',#1619,#1290,#1291);
#1099=AXIS2_PLACEMENT_3D('',#1621,#1292,#1293);
#1100=AXIS2_PLACEMENT_3D('',#1623,#1295,#1296);
#1101=AXIS2_PLACEMENT_3D('',#1625,#1297,#1298);
#1102=AXIS2_PLACEMENT_3D('',#1626,#1299,#1300);
#1103=AXIS2_PLACEMENT_3D('',#1628,#1302,#1303);
#1104=AXIS2_PLACEMENT_3D('',#1630,#1304,#1305);
#1105=AXIS2_PLACEMENT_3D('',#1632,#1307,#1308);
#1106=AXIS2_PLACEMENT_3D('',#1634,#1309,#1310);
#1107=AXIS2_PLACEMENT_3D('',#1635,#1311,#1312);
#1108=AXIS2_PLACEMENT_3D('',#1637,#1314,#1315);
#1109=AXIS2_PLACEMENT_3D('',#1639,#1316,#1317);
#1110=AXIS2_PLACEMENT_3D('',#1641,#1319,#1320);
#1111=AXIS2_PLACEMENT_3D('',#1643,#1321,#1322);
#1112=AXIS2_PLACEMENT_3D('',#1644,#1323,#1324);
#1113=AXIS2_PLACEMENT_3D('',#1646,#1326,#1327);
#1114=AXIS2_PLACEMENT_3D('',#1650,#1329,#1330);
#1115=AXIS2_PLACEMENT_3D('',#1652,#1332,#1333);
#1116=AXIS2_PLACEMENT_3D('',#1656,#1336,#1337);
#1117=AXIS2_PLACEMENT_3D('',#1658,#1338,#1339);
#1118=AXIS2_PLACEMENT_3D('',#1660,#1341,#1342);
#1119=AXIS2_PLACEMENT_3D('',#1664,#1345,#1346);
#1120=AXIS2_PLACEMENT_3D('',#1666,#1347,#1348);
#1121=AXIS2_PLACEMENT_3D('',#1668,#1350,#1351);
#1122=AXIS2_PLACEMENT_3D('',#1672,#1354,#1355);
#1123=AXIS2_PLACEMENT_3D('',#1674,#1356,#1357);
#1124=AXIS2_PLACEMENT_3D('',#1676,#1359,#1360);
#1125=AXIS2_PLACEMENT_3D('',#1678,#1362,#1363);
#1126=AXIS2_PLACEMENT_3D('',#1684,#1367,#1368);
#1127=AXIS2_PLACEMENT_3D('',#1686,#1369,#1370);
#1128=AXIS2_PLACEMENT_3D('',#1688,#1372,#1373);
#1129=AXIS2_PLACEMENT_3D('',#1692,#1376,#1377);
#1130=AXIS2_PLACEMENT_3D('',#1694,#1378,#1379);
#1131=AXIS2_PLACEMENT_3D('',#1696,#1381,#1382);
#1132=AXIS2_PLACEMENT_3D('',#1700,#1385,#1386);
#1133=AXIS2_PLACEMENT_3D('',#1702,#1387,#1388);
#1134=AXIS2_PLACEMENT_3D('',#1704,#1390,#1391);
#1135=AXIS2_PLACEMENT_3D('',#1708,#1394,#1395);
#1136=AXIS2_PLACEMENT_3D('',#1709,#1396,#1397);
#1137=AXIS2_PLACEMENT_3D('',#1710,#1398,#1399);
#1138=AXIS2_PLACEMENT_3D('',#1713,#1402,#1403);
#1139=AXIS2_PLACEMENT_3D('',#1715,#1405,#1406);
#1140=AXIS2_PLACEMENT_3D('',#1717,#1408,#1409);
#1141=AXIS2_PLACEMENT_3D('',#1719,#1411,#1412);
#1142=AXIS2_PLACEMENT_3D('',#1721,#1414,#1415);
#1143=AXIS2_PLACEMENT_3D('',#1723,#1417,#1418);
#1144=AXIS2_PLACEMENT_3D('',#1725,#1420,#1421);
#1145=AXIS2_PLACEMENT_3D('',#1726,#1422,#1423);
#1146=AXIS2_PLACEMENT_3D('',#1728,#1424,#1425);
#1147=AXIS2_PLACEMENT_3D('',#1730,#1427,#1428);
#1148=AXIS2_PLACEMENT_3D('',#1733,#1429,#1430);
#1149=AXIS2_PLACEMENT_3D('',#1734,#1431,#1432);
#1150=AXIS2_PLACEMENT_3D('',#1736,#1434,#1435);
#1151=AXIS2_PLACEMENT_3D('',#1738,#1437,#1438);
#1152=AXIS2_PLACEMENT_3D('',#1740,#1439,#1440);
#1153=AXIS2_PLACEMENT_3D('',#1742,#1442,#1443);
#1154=AXIS2_PLACEMENT_3D('',#1745,#1444,#1445);
#1155=AXIS2_PLACEMENT_3D('',#1746,#1446,#1447);
#1156=AXIS2_PLACEMENT_3D('',#1748,#1449,#1450);
#1157=AXIS2_PLACEMENT_3D('',#1750,#1452,#1453);
#1158=AXIS2_PLACEMENT_3D('',#1752,#1454,#1455);
#1159=AXIS2_PLACEMENT_3D('',#1754,#1457,#1458);
#1160=AXIS2_PLACEMENT_3D('',#1757,#1459,#1460);
#1161=AXIS2_PLACEMENT_3D('',#1758,#1461,#1462);
#1162=AXIS2_PLACEMENT_3D('',#1760,#1464,#1465);
#1163=AXIS2_PLACEMENT_3D('',#1762,#1467,#1468);
#1164=AXIS2_PLACEMENT_3D('',#1766,#1470,#1471);
#1165=AXIS2_PLACEMENT_3D('',#1768,#1473,#1474);
#1166=AXIS2_PLACEMENT_3D('',#1772,#1477,#1478);
#1167=AXIS2_PLACEMENT_3D('',#1774,#1479,#1480);
#1168=AXIS2_PLACEMENT_3D('',#1776,#1482,#1483);
#1169=AXIS2_PLACEMENT_3D('',#1780,#1486,#1487);
#1170=AXIS2_PLACEMENT_3D('',#1782,#1488,#1489);
#1171=AXIS2_PLACEMENT_3D('',#1784,#1491,#1492);
#1172=AXIS2_PLACEMENT_3D('',#1789,#1495,#1496);
#1173=AXIS2_PLACEMENT_3D('',#1790,#1497,#1498);
#1174=AXIS2_PLACEMENT_3D('',#1792,#1500,#1501);
#1175=AXIS2_PLACEMENT_3D('',#1794,#1503,#1504);
#1176=DIRECTION('axis',(0.,0.,1.));
#1177=DIRECTION('refdir',(1.,0.,0.));
#1178=DIRECTION('center_axis',(1.,0.,0.));
#1179=DIRECTION('ref_axis',(0.,0.,-1.));
#1180=DIRECTION('center_axis',(-1.,0.,0.));
#1181=DIRECTION('ref_axis',(0.,0.,1.));
#1182=DIRECTION('',(8.910841886465E-14,8.910464958895E-14,-1.));
#1183=DIRECTION('center_axis',(-1.,0.,0.));
#1184=DIRECTION('ref_axis',(0.,1.,0.));
#1185=DIRECTION('',(6.776113317021E-14,-1.,-6.77517510038E-14));
#1186=DIRECTION('center_axis',(-1.,0.,0.));
#1187=DIRECTION('ref_axis',(0.,0.,-1.));
#1188=DIRECTION('',(8.909060047042E-14,-8.921258793857E-14,1.));
#1189=DIRECTION('center_axis',(-1.,0.,0.));
#1190=DIRECTION('ref_axis',(0.,-1.,0.));
#1191=DIRECTION('',(6.778719474356E-14,1.,6.77517510038E-14));
#1192=DIRECTION('center_axis',(1.,0.,0.));
#1193=DIRECTION('ref_axis',(0.,-1.,0.));
#1194=DIRECTION('center_axis',(1.,0.,0.));
#1195=DIRECTION('ref_axis',(0.,-1.,0.));
#1196=DIRECTION('center_axis',(1.,0.,0.));
#1197=DIRECTION('ref_axis',(0.,-1.,0.));
#1198=DIRECTION('center_axis',(1.,0.,0.));
#1199=DIRECTION('ref_axis',(0.,-1.,0.));
#1200=DIRECTION('center_axis',(1.,0.,0.));
#1201=DIRECTION('ref_axis',(0.,-1.,0.));
#1202=DIRECTION('center_axis',(1.,0.,0.));
#1203=DIRECTION('ref_axis',(0.,-1.,0.));
#1204=DIRECTION('center_axis',(1.,0.,0.));
#1205=DIRECTION('ref_axis',(0.,-1.,0.));
#1206=DIRECTION('',(0.,0.,-1.));
#1207=DIRECTION('center_axis',(1.,0.,0.));
#1208=DIRECTION('ref_axis',(0.,0.,-1.));
#1209=DIRECTION('',(0.,1.,0.));
#1210=DIRECTION('center_axis',(1.,0.,0.));
#1211=DIRECTION('ref_axis',(0.,1.,0.));
#1212=DIRECTION('',(0.,0.,1.));
#1213=DIRECTION('center_axis',(1.,0.,0.));
#1214=DIRECTION('ref_axis',(0.,0.,1.));
#1215=DIRECTION('',(0.,-1.,0.));
#1216=DIRECTION('center_axis',(1.,0.,0.));
#1217=DIRECTION('ref_axis',(0.,-1.,0.));
#1218=DIRECTION('center_axis',(1.,0.,0.));
#1219=DIRECTION('ref_axis',(0.,1.,0.));
#1220=DIRECTION('center_axis',(1.,0.,0.));
#1221=DIRECTION('ref_axis',(0.,1.,0.));
#1222=DIRECTION('center_axis',(1.,0.,0.));
#1223=DIRECTION('ref_axis',(0.,-1.,0.));
#1224=DIRECTION('',(1.,0.,0.));
#1225=DIRECTION('center_axis',(1.,0.,0.));
#1226=DIRECTION('ref_axis',(0.,-1.,0.));
#1227=DIRECTION('center_axis',(1.,0.,0.));
#1228=DIRECTION('ref_axis',(0.,-1.,0.));
#1229=DIRECTION('center_axis',(1.,0.,0.));
#1230=DIRECTION('ref_axis',(0.,-1.,0.));
#1231=DIRECTION('center_axis',(1.,0.,0.));
#1232=DIRECTION('ref_axis',(0.,-1.,0.));
#1233=DIRECTION('',(1.,0.,0.));
#1234=DIRECTION('center_axis',(1.,0.,0.));
#1235=DIRECTION('ref_axis',(0.,-1.,0.));
#1236=DIRECTION('center_axis',(1.,0.,0.));
#1237=DIRECTION('ref_axis',(0.,0.,-1.));
#1238=DIRECTION('center_axis',(1.,0.,0.));
#1239=DIRECTION('ref_axis',(0.,0.,1.));
#1240=DIRECTION('',(8.90152149564E-14,8.894942396235E-14,-1.));
#1241=DIRECTION('center_axis',(1.,0.,0.));
#1242=DIRECTION('ref_axis',(0.,-1.,0.));
#1243=DIRECTION('',(6.782680833505E-14,1.,6.770171278297E-14));
#1244=DIRECTION('center_axis',(1.,0.,0.));
#1245=DIRECTION('ref_axis',(0.,0.,-1.));
#1246=DIRECTION('',(8.908100595046E-14,-8.910978951036E-14,1.));
#1247=DIRECTION('center_axis',(1.,0.,0.));
#1248=DIRECTION('ref_axis',(0.,1.,0.));
#1249=DIRECTION('',(6.770171278297E-14,-1.,-6.770171278297E-14));
#1250=DIRECTION('center_axis',(1.,0.,0.));
#1251=DIRECTION('ref_axis',(0.,-1.,0.));
#1252=DIRECTION('center_axis',(1.,0.,0.));
#1253=DIRECTION('ref_axis',(0.,-1.,0.));
#1254=DIRECTION('center_axis',(1.,0.,0.));
#1255=DIRECTION('ref_axis',(0.,-1.,0.));
#1256=DIRECTION('center_axis',(1.,0.,0.));
#1257=DIRECTION('ref_axis',(0.,-1.,0.));
#1258=DIRECTION('center_axis',(1.,0.,0.));
#1259=DIRECTION('ref_axis',(0.,-1.,0.));
#1260=DIRECTION('center_axis',(1.,0.,0.));
#1261=DIRECTION('ref_axis',(0.,-1.,0.));
#1262=DIRECTION('center_axis',(1.,0.,0.));
#1263=DIRECTION('ref_axis',(0.,-1.,0.));
#1264=DIRECTION('center_axis',(1.,0.,0.));
#1265=DIRECTION('ref_axis',(0.,-1.,0.));
#1266=DIRECTION('center_axis',(1.,0.,0.));
#1267=DIRECTION('ref_axis',(0.,-1.,0.));
#1268=DIRECTION('center_axis',(1.,0.,0.));
#1269=DIRECTION('ref_axis',(0.,-1.,0.));
#1270=DIRECTION('',(1.,0.,0.));
#1271=DIRECTION('center_axis',(1.,0.,0.));
#1272=DIRECTION('ref_axis',(0.,-1.,0.));
#1273=DIRECTION('center_axis',(-1.,0.,0.));
#1274=DIRECTION('ref_axis',(0.,-1.,0.));
#1275=DIRECTION('center_axis',(1.,0.,0.));
#1276=DIRECTION('ref_axis',(0.,-1.,0.));
#1277=DIRECTION('',(1.,0.,0.));
#1278=DIRECTION('center_axis',(1.,0.,0.));
#1279=DIRECTION('ref_axis',(0.,-1.,0.));
#1280=DIRECTION('center_axis',(1.,0.,0.));
#1281=DIRECTION('ref_axis',(0.,-1.,0.));
#1282=DIRECTION('',(1.,0.,0.));
#1283=DIRECTION('center_axis',(1.,0.,0.));
#1284=DIRECTION('ref_axis',(0.,-1.,0.));
#1285=DIRECTION('center_axis',(-1.,0.,0.));
#1286=DIRECTION('ref_axis',(0.,-1.,0.));
#1287=DIRECTION('center_axis',(1.,0.,0.));
#1288=DIRECTION('ref_axis',(0.,-1.,0.));
#1289=DIRECTION('',(1.,0.,0.));
#1290=DIRECTION('center_axis',(1.,0.,0.));
#1291=DIRECTION('ref_axis',(0.,-1.,0.));
#1292=DIRECTION('center_axis',(1.,0.,0.));
#1293=DIRECTION('ref_axis',(0.,-1.,0.));
#1294=DIRECTION('',(1.,0.,0.));
#1295=DIRECTION('center_axis',(1.,0.,0.));
#1296=DIRECTION('ref_axis',(0.,-1.,0.));
#1297=DIRECTION('center_axis',(-1.,0.,0.));
#1298=DIRECTION('ref_axis',(0.,-1.,0.));
#1299=DIRECTION('center_axis',(1.,0.,0.));
#1300=DIRECTION('ref_axis',(0.,-1.,0.));
#1301=DIRECTION('',(1.,0.,0.));
#1302=DIRECTION('center_axis',(1.,0.,0.));
#1303=DIRECTION('ref_axis',(0.,-1.,0.));
#1304=DIRECTION('center_axis',(1.,0.,0.));
#1305=DIRECTION('ref_axis',(0.,-1.,0.));
#1306=DIRECTION('',(1.,0.,0.));
#1307=DIRECTION('center_axis',(1.,0.,0.));
#1308=DIRECTION('ref_axis',(0.,-1.,0.));
#1309=DIRECTION('center_axis',(-1.,0.,0.));
#1310=DIRECTION('ref_axis',(0.,-1.,0.));
#1311=DIRECTION('center_axis',(1.,0.,0.));
#1312=DIRECTION('ref_axis',(0.,-1.,0.));
#1313=DIRECTION('',(1.,0.,0.));
#1314=DIRECTION('center_axis',(1.,0.,0.));
#1315=DIRECTION('ref_axis',(0.,-1.,0.));
#1316=DIRECTION('center_axis',(1.,0.,0.));
#1317=DIRECTION('ref_axis',(0.,-1.,0.));
#1318=DIRECTION('',(1.,0.,0.));
#1319=DIRECTION('center_axis',(1.,0.,0.));
#1320=DIRECTION('ref_axis',(0.,-1.,0.));
#1321=DIRECTION('center_axis',(-1.,0.,0.));
#1322=DIRECTION('ref_axis',(0.,-1.,0.));
#1323=DIRECTION('center_axis',(1.,0.,0.));
#1324=DIRECTION('ref_axis',(0.,-1.,0.));
#1325=DIRECTION('',(1.,0.,0.));
#1326=DIRECTION('center_axis',(-1.,0.,0.));
#1327=DIRECTION('ref_axis',(0.,0.,-1.));
#1328=DIRECTION('',(-0.707106781186498,4.37190779185398E-9,0.707106781186598));
#1329=DIRECTION('center_axis',(1.,0.,0.));
#1330=DIRECTION('ref_axis',(0.,0.,1.));
#1331=DIRECTION('',(-0.707106781186498,-0.707106781186597,5.08456229073598E-9));
#1332=DIRECTION('center_axis',(0.707106781186498,-0.707106781186598,0.));
#1333=DIRECTION('ref_axis',(-0.707106781186598,-0.707106781186498,0.));
#1334=DIRECTION('',(7.86531333923E-14,7.868602888933E-14,-1.));
#1335=DIRECTION('',(-0.707106781186598,-0.707106781186498,4.37191616567999E-9));
#1336=DIRECTION('center_axis',(-1.,0.,0.));
#1337=DIRECTION('ref_axis',(0.,0.,-1.));
#1338=DIRECTION('center_axis',(1.,0.,0.));
#1339=DIRECTION('ref_axis',(0.,-1.,0.));
#1340=DIRECTION('',(-0.707106781186498,-5.08462090752098E-9,-0.707106781186597));
#1341=DIRECTION('center_axis',(0.707106781186548,0.,-0.707106781186548));
#1342=DIRECTION('ref_axis',(-0.707106781186548,0.,-0.707106781186548));
#1343=DIRECTION('',(5.984571211241E-14,1.,5.984571211241E-14));
#1344=DIRECTION('',(-0.707106781186547,-4.37192139932229E-9,-0.707106781186547));
#1345=DIRECTION('center_axis',(-1.,0.,0.));
#1346=DIRECTION('ref_axis',(0.,0.,-1.));
#1347=DIRECTION('center_axis',(1.,0.,0.));
#1348=DIRECTION('ref_axis',(0.,0.,-1.));
#1349=DIRECTION('',(-0.707106781186548,0.707106781186548,-5.08456229073634E-9));
#1350=DIRECTION('center_axis',(0.707106781186548,0.707106781186548,0.));
#1351=DIRECTION('ref_axis',(-0.707106781186548,0.707106781186548,0.));
#1352=DIRECTION('',(7.862023789528E-14,-7.862126587956E-14,1.));
#1353=DIRECTION('',(-0.707106781186547,0.707106781186547,-4.37191616568029E-9));
#1354=DIRECTION('center_axis',(-1.,0.,0.));
#1355=DIRECTION('ref_axis',(0.,0.70710677491397,0.707106787459125));
#1356=DIRECTION('center_axis',(1.,0.,0.));
#1357=DIRECTION('ref_axis',(0.,1.,0.));
#1358=DIRECTION('',(-0.707106781186548,5.08455601036734E-9,0.707106781186548));
#1359=DIRECTION('center_axis',(0.707106781186548,0.,0.707106781186548));
#1360=DIRECTION('ref_axis',(-0.707106781186548,0.,0.707106781186548));
#1361=DIRECTION('',(5.973312611554E-14,-1.,-5.984571211241E-14));
#1362=DIRECTION('center_axis',(0.,0.,1.));
#1363=DIRECTION('ref_axis',(0.,-1.,0.));
#1364=DIRECTION('',(-1.,0.,0.));
#1365=DIRECTION('',(5.981052898839E-14,1.,5.984571211241E-14));
#1366=DIRECTION('',(-1.,0.,0.));
#1367=DIRECTION('center_axis',(-1.,0.,0.));
#1368=DIRECTION('ref_axis',(0.,-1.,0.));
#1369=DIRECTION('center_axis',(-1.,0.,0.));
#1370=DIRECTION('ref_axis',(0.,-1.,0.));
#1371=DIRECTION('',(-1.,0.,0.));
#1372=DIRECTION('center_axis',(0.,-1.,0.));
#1373=DIRECTION('ref_axis',(0.,0.,-1.));
#1374=DIRECTION('',(7.855444690122E-14,-7.868602888933E-14,1.));
#1375=DIRECTION('',(-1.,0.,0.));
#1376=DIRECTION('center_axis',(-1.,0.,0.));
#1377=DIRECTION('ref_axis',(0.,0.,-1.));
#1378=DIRECTION('center_axis',(-1.,0.,0.));
#1379=DIRECTION('ref_axis',(0.,0.,-1.));
#1380=DIRECTION('',(-1.,0.,0.));
#1381=DIRECTION('center_axis',(0.,0.,-1.));
#1382=DIRECTION('ref_axis',(0.,1.,0.));
#1383=DIRECTION('',(5.980271051638E-14,-1.,-5.984571211241E-14));
#1384=DIRECTION('',(-1.,0.,0.));
#1385=DIRECTION('center_axis',(-1.,0.,0.));
#1386=DIRECTION('ref_axis',(0.,1.,0.));
#1387=DIRECTION('center_axis',(-1.,0.,0.));
#1388=DIRECTION('ref_axis',(0.,1.,0.));
#1389=DIRECTION('',(-1.,0.,0.));
#1390=DIRECTION('center_axis',(0.,1.,0.));
#1391=DIRECTION('ref_axis',(0.,0.,1.));
#1392=DIRECTION('',(7.86243498324E-14,7.862126587956E-14,-1.));
#1393=DIRECTION('',(-1.,0.,0.));
#1394=DIRECTION('center_axis',(-1.,0.,0.));
#1395=DIRECTION('ref_axis',(0.,0.,1.));
#1396=DIRECTION('center_axis',(-1.,0.,0.));
#1397=DIRECTION('ref_axis',(0.,0.,1.));
#1398=DIRECTION('center_axis',(1.,0.,0.));
#1399=DIRECTION('ref_axis',(0.,0.70710677522117,0.707106787151925));
#1400=DIRECTION('',(0.707106781186498,5.08455810382298E-9,0.707106781186597));
#1401=DIRECTION('',(0.707106781186547,0.707106781186547,-4.37190779185429E-9));
#1402=DIRECTION('center_axis',(-0.707106781186548,0.707106781186548,0.));
#1403=DIRECTION('ref_axis',(0.707106781186548,0.707106781186548,0.));
#1404=DIRECTION('',(0.707106781186548,0.707106781186548,-5.08456229073634E-9));
#1405=DIRECTION('center_axis',(1.,0.,0.));
#1406=DIRECTION('ref_axis',(0.,0.,-1.));
#1407=DIRECTION('',(0.707106781186498,-4.37192453950598E-9,-0.707106781186598));
#1408=DIRECTION('center_axis',(-0.707106781186598,0.,-0.707106781186498));
#1409=DIRECTION('ref_axis',(0.707106781186498,0.,-0.707106781186598));
#1410=DIRECTION('',(0.707106781186498,-5.08458741221598E-9,-0.707106781186597));
#1411=DIRECTION('center_axis',(1.,0.,0.));
#1412=DIRECTION('ref_axis',(0.,0.,-1.));
#1413=DIRECTION('',(0.707106781186547,-0.707106781186547,4.37190779185429E-9));
#1414=DIRECTION('center_axis',(-0.707106781186498,-0.707106781186598,0.));
#1415=DIRECTION('ref_axis',(0.707106781186598,-0.707106781186498,0.));
#1416=DIRECTION('',(0.707106781186498,-0.707106781186597,5.08455391690998E-9));
#1417=DIRECTION('center_axis',(1.,0.,0.));
#1418=DIRECTION('ref_axis',(0.,0.,-1.));
#1419=DIRECTION('',(0.707106781186498,4.37187429654798E-9,0.707106781186598));
#1420=DIRECTION('center_axis',(-0.707106781186598,0.,0.707106781186498));
#1421=DIRECTION('ref_axis',(0.707106781186498,0.,0.707106781186598));
#1422=DIRECTION('center_axis',(1.,0.,0.));
#1423=DIRECTION('ref_axis',(0.,-1.,0.));
#1424=DIRECTION('center_axis',(1.,0.,0.));
#1425=DIRECTION('ref_axis',(0.,-1.,0.));
#1426=DIRECTION('',(0.707106781186548,0.707106781186548,8.65956056235493E-17));
#1427=DIRECTION('center_axis',(1.,0.,0.));
#1428=DIRECTION('ref_axis',(0.,-1.,0.));
#1429=DIRECTION('center_axis',(1.,0.,0.));
#1430=DIRECTION('ref_axis',(0.,1.,0.));
#1431=DIRECTION('center_axis',(1.,0.,0.));
#1432=DIRECTION('ref_axis',(0.,1.,0.));
#1433=DIRECTION('',(1.,0.,0.));
#1434=DIRECTION('center_axis',(-1.,0.,0.));
#1435=DIRECTION('ref_axis',(0.,0.,-1.));
#1436=DIRECTION('',(-0.707106781186547,8.65956056235493E-17,0.707106781186547));
#1437=DIRECTION('center_axis',(1.,0.,0.));
#1438=DIRECTION('ref_axis',(0.,-1.,0.));
#1439=DIRECTION('center_axis',(1.,0.,0.));
#1440=DIRECTION('ref_axis',(0.,-1.,0.));
#1441=DIRECTION('',(0.707106781186548,0.707106781186548,8.65956056235493E-17));
#1442=DIRECTION('center_axis',(1.,0.,0.));
#1443=DIRECTION('ref_axis',(0.,-1.,0.));
#1444=DIRECTION('center_axis',(1.,0.,0.));
#1445=DIRECTION('ref_axis',(0.,1.,0.));
#1446=DIRECTION('center_axis',(1.,0.,0.));
#1447=DIRECTION('ref_axis',(0.,1.,0.));
#1448=DIRECTION('',(1.,0.,0.));
#1449=DIRECTION('center_axis',(-1.,0.,0.));
#1450=DIRECTION('ref_axis',(0.,0.,-1.));
#1451=DIRECTION('',(-0.707106781186547,8.65956056235493E-17,0.707106781186547));
#1452=DIRECTION('center_axis',(1.,0.,0.));
#1453=DIRECTION('ref_axis',(0.,-1.,0.));
#1454=DIRECTION('center_axis',(1.,0.,0.));
#1455=DIRECTION('ref_axis',(0.,-1.,0.));
#1456=DIRECTION('',(0.707106781186548,0.707106781186548,8.65956056235493E-17));
#1457=DIRECTION('center_axis',(1.,0.,0.));
#1458=DIRECTION('ref_axis',(0.,-1.,0.));
#1459=DIRECTION('center_axis',(1.,0.,0.));
#1460=DIRECTION('ref_axis',(0.,1.,0.));
#1461=DIRECTION('center_axis',(1.,0.,0.));
#1462=DIRECTION('ref_axis',(0.,1.,0.));
#1463=DIRECTION('',(1.,0.,0.));
#1464=DIRECTION('center_axis',(-1.,0.,0.));
#1465=DIRECTION('ref_axis',(0.,0.,-1.));
#1466=DIRECTION('',(-0.707106781186547,8.65956056235493E-17,0.707106781186547));
#1467=DIRECTION('center_axis',(-1.,0.,0.));
#1468=DIRECTION('ref_axis',(0.,1.,0.));
#1469=DIRECTION('',(-1.,0.,0.));
#1470=DIRECTION('center_axis',(-1.,0.,0.));
#1471=DIRECTION('ref_axis',(0.,0.,1.));
#1472=DIRECTION('',(-1.,0.,0.));
#1473=DIRECTION('center_axis',(0.,1.,0.));
#1474=DIRECTION('ref_axis',(0.,0.,-1.));
#1475=DIRECTION('',(0.,0.,-1.));
#1476=DIRECTION('',(-1.,0.,0.));
#1477=DIRECTION('center_axis',(-1.,0.,0.));
#1478=DIRECTION('ref_axis',(0.,1.,0.));
#1479=DIRECTION('center_axis',(-1.,0.,0.));
#1480=DIRECTION('ref_axis',(0.,-1.,0.));
#1481=DIRECTION('',(-1.,0.,0.));
#1482=DIRECTION('center_axis',(0.,0.,1.));
#1483=DIRECTION('ref_axis',(0.,1.,0.));
#1484=DIRECTION('',(-1.,0.,0.));
#1485=DIRECTION('',(0.,1.,0.));
#1486=DIRECTION('center_axis',(-1.,0.,0.));
#1487=DIRECTION('ref_axis',(0.,-0.707106781186548,0.707106781186547));
#1488=DIRECTION('center_axis',(-1.,0.,0.));
#1489=DIRECTION('ref_axis',(0.,0.,-1.));
#1490=DIRECTION('',(-1.,0.,0.));
#1491=DIRECTION('center_axis',(-1.,0.,0.));
#1492=DIRECTION('ref_axis',(0.,0.,1.));
#1493=DIRECTION('',(0.,0.,1.));
#1494=DIRECTION('',(0.,-1.,0.));
#1495=DIRECTION('center_axis',(-1.,0.,0.));
#1496=DIRECTION('ref_axis',(0.,1.,0.));
#1497=DIRECTION('center_axis',(0.,-1.,0.));
#1498=DIRECTION('ref_axis',(0.,0.,1.));
#1499=DIRECTION('',(-1.,0.,0.));
#1500=DIRECTION('center_axis',(-1.,0.,0.));
#1501=DIRECTION('ref_axis',(0.,-0.707106781186547,-0.707106781186548));
#1502=DIRECTION('',(-1.,0.,0.));
#1503=DIRECTION('center_axis',(0.,0.,-1.));
#1504=DIRECTION('ref_axis',(0.,-1.,0.));
#1505=CARTESIAN_POINT('',(0.,0.,0.));
#1506=CARTESIAN_POINT('Origin',(0.,0.,0.));
#1507=CARTESIAN_POINT('',(-1.4995537415569E-9,-2.00000001672625,28.6999999985001));
#1508=CARTESIAN_POINT('',(-1.49723548047033E-9,-0.30000000149721,27.0000000136933));
#1509=CARTESIAN_POINT('Origin',(0.,-2.,27.));
#1510=CARTESIAN_POINT('',(-1.72338327194562E-9,-0.300000001723362,-26.99999998166));
#1511=CARTESIAN_POINT('',(-3.006838324623E-9,-0.3000000030068,27.00000001577));
#1512=CARTESIAN_POINT('',(-1.49696611835219E-9,-1.99999998631018,-28.6999999985009));
#1513=CARTESIAN_POINT('Origin',(0.,-2.,-27.));
#1514=CARTESIAN_POINT('',(-1.72341963900152E-9,-72.99999998166,-28.6999999982762));
#1515=CARTESIAN_POINT('',(-3.006837649237E-9,-1.999999984234,-28.69999999699));
#1516=CARTESIAN_POINT('',(-1.49696508447704E-9,-74.6999999985009,-27.0000000136933));
#1517=CARTESIAN_POINT('Origin',(0.,-73.,-27.));
#1518=CARTESIAN_POINT('',(-1.7234176492426E-9,-74.6999999982762,26.99999998166));
#1519=CARTESIAN_POINT('',(-3.006837297666E-9,-74.69999999699,-27.00000001577));
#1520=CARTESIAN_POINT('',(-1.49696669559272E-9,-73.0000000136933,28.6999999985009));
#1521=CARTESIAN_POINT('Origin',(0.,-73.,27.));
#1522=CARTESIAN_POINT('',(-3.00683861143E-9,-73.00000001577,28.69999999699));
#1523=CARTESIAN_POINT('',(0.,-2.4,-20.));
#1524=CARTESIAN_POINT('Origin',(0.,-4.,-20.));
#1525=CARTESIAN_POINT('',(0.,-30.46497115746,13.43502884254));
#1526=CARTESIAN_POINT('Origin',(0.,-32.06497115746,13.43502884254));
#1527=CARTESIAN_POINT('',(0.,-30.46497115746,-13.43502884254));
#1528=CARTESIAN_POINT('Origin',(0.,-32.06497115746,-13.43502884254));
#1529=CARTESIAN_POINT('',(0.,-57.33502884254,-13.43502884254));
#1530=CARTESIAN_POINT('Origin',(0.,-58.93502884254,-13.43502884254));
#1531=CARTESIAN_POINT('',(0.,-57.33502884254,13.43502884254));
#1532=CARTESIAN_POINT('Origin',(0.,-58.93502884254,13.43502884254));
#1533=CARTESIAN_POINT('',(0.,-2.4,20.));
#1534=CARTESIAN_POINT('Origin',(0.,-4.,20.));
#1535=CARTESIAN_POINT('',(0.,-5.,-5.));
#1536=CARTESIAN_POINT('',(0.,-4.,-4.));
#1537=CARTESIAN_POINT('Origin',(0.,-4.,-5.));
#1538=CARTESIAN_POINT('',(0.,-4.,4.));
#1539=CARTESIAN_POINT('',(0.,-4.,4.));
#1540=CARTESIAN_POINT('',(0.,-5.,5.));
#1541=CARTESIAN_POINT('Origin',(0.,-4.,5.));
#1542=CARTESIAN_POINT('',(0.,-7.,5.));
#1543=CARTESIAN_POINT('',(0.,-7.,5.));
#1544=CARTESIAN_POINT('',(0.,-8.,4.));
#1545=CARTESIAN_POINT('Origin',(0.,-8.,5.));
#1546=CARTESIAN_POINT('',(0.,-8.,-4.));
#1547=CARTESIAN_POINT('',(0.,-8.,-4.));
#1548=CARTESIAN_POINT('',(0.,-7.,-5.));
#1549=CARTESIAN_POINT('Origin',(0.,-8.,-5.));
#1550=CARTESIAN_POINT('',(0.,-5.,-5.));
#1551=CARTESIAN_POINT('',(-5.12090370108353E-14,-70.,1.54999999999995));
#1552=CARTESIAN_POINT('Origin',(0.,-70.,0.));
#1553=CARTESIAN_POINT('',(-5.12090370108353E-14,-50.,11.55));
#1554=CARTESIAN_POINT('Origin',(0.,-50.,10.));
#1555=CARTESIAN_POINT('',(-5.12090370108353E-14,-50.,-8.45000000000005));
#1556=CARTESIAN_POINT('Origin',(0.,-50.,-10.));
#1557=CARTESIAN_POINT('Origin',(-17.98894583997,-4.,20.));
#1558=CARTESIAN_POINT('',(2.,-2.4,20.));
#1559=CARTESIAN_POINT('',(-17.98894583997,-2.4,20.));
#1560=CARTESIAN_POINT('Origin',(2.,-4.,20.));
#1561=CARTESIAN_POINT('Origin',(2.,-4.,20.));
#1562=CARTESIAN_POINT('',(2.,-0.75,20.));
#1563=CARTESIAN_POINT('Origin',(2.,-4.,20.));
#1564=CARTESIAN_POINT('Origin',(-17.98894583997,-4.,20.));
#1565=CARTESIAN_POINT('',(8.,-0.75,20.));
#1566=CARTESIAN_POINT('',(-17.98894583997,-0.75,20.));
#1567=CARTESIAN_POINT('Origin',(8.,-4.,20.));
#1568=CARTESIAN_POINT('Origin',(8.,0.,0.));
#1569=CARTESIAN_POINT('',(8.00000000149655,-73.0000000136933,28.6999999985031));
#1570=CARTESIAN_POINT('',(8.00000000149911,-74.6999999985022,26.9999999832701));
#1571=CARTESIAN_POINT('Origin',(8.,-73.,27.));
#1572=CARTESIAN_POINT('',(8.00000000172612,-74.6999999982735,-27.00000001577));
#1573=CARTESIAN_POINT('',(8.000000003002,-74.699999997,26.99999998166));
#1574=CARTESIAN_POINT('',(8.00000000149911,-72.9999999832701,-28.6999999985022));
#1575=CARTESIAN_POINT('Origin',(8.,-73.,-27.));
#1576=CARTESIAN_POINT('',(8.00000000172613,-1.999999984234,-28.6999999982735));
#1577=CARTESIAN_POINT('',(8.000000003002,-72.99999998166,-28.699999997));
#1578=CARTESIAN_POINT('',(8.00000000149894,-0.300000001498941,-26.9999999832701));
#1579=CARTESIAN_POINT('Origin',(8.,-2.,-27.));
#1580=CARTESIAN_POINT('',(8.00000000172618,-0.300000001726115,27.00000001577));
#1581=CARTESIAN_POINT('',(8.000000003002,-0.300000003002,-26.99999998166));
#1582=CARTESIAN_POINT('',(8.00000000149911,-2.00000001672626,28.6999999985022));
#1583=CARTESIAN_POINT('Origin',(8.,-2.,27.));
#1584=CARTESIAN_POINT('',(8.000000003002,-2.000000018336,28.699999997));
#1585=CARTESIAN_POINT('',(8.,-0.75,-20.));
#1586=CARTESIAN_POINT('Origin',(8.,-4.,-20.));
#1587=CARTESIAN_POINT('',(8.,-28.81497115746,13.43502884254));
#1588=CARTESIAN_POINT('Origin',(8.,-32.06497115746,13.43502884254));
#1589=CARTESIAN_POINT('',(8.,-28.81497115746,-13.43502884254));
#1590=CARTESIAN_POINT('Origin',(8.,-32.06497115746,-13.43502884254));
#1591=CARTESIAN_POINT('',(8.,-55.68502884254,-13.43502884254));
#1592=CARTESIAN_POINT('Origin',(8.,-58.93502884254,-13.43502884254));
#1593=CARTESIAN_POINT('',(8.,-55.68502884254,13.43502884254));
#1594=CARTESIAN_POINT('Origin',(8.,-58.93502884254,13.43502884254));
#1595=CARTESIAN_POINT('',(8.,-68.5,1.83697019872103E-16));
#1596=CARTESIAN_POINT('Origin',(8.,-70.,0.));
#1597=CARTESIAN_POINT('',(8.,-48.5,10.));
#1598=CARTESIAN_POINT('Origin',(8.,-50.,10.));
#1599=CARTESIAN_POINT('',(8.,-48.5,-10.));
#1600=CARTESIAN_POINT('Origin',(8.,-50.,-10.));
#1601=CARTESIAN_POINT('Origin',(-17.98894583997,-4.,-20.));
#1602=CARTESIAN_POINT('',(2.,-0.75,-20.));
#1603=CARTESIAN_POINT('Origin',(2.,-4.,-20.));
#1604=CARTESIAN_POINT('',(-17.98894583997,-0.75,-20.));
#1605=CARTESIAN_POINT('Origin',(2.,-4.,-20.));
#1606=CARTESIAN_POINT('',(2.,-2.4,-20.));
#1607=CARTESIAN_POINT('Origin',(2.,-4.,-20.));
#1608=CARTESIAN_POINT('Origin',(-17.98894583997,-4.,-20.));
#1609=CARTESIAN_POINT('',(-17.98894583997,-2.4,-20.));
#1610=CARTESIAN_POINT('Origin',(-17.98894583997,-32.06497115746,13.43502884254));
#1611=CARTESIAN_POINT('',(1.,-28.81497115746,13.43502884254));
#1612=CARTESIAN_POINT('Origin',(1.,-32.06497115746,13.43502884254));
#1613=CARTESIAN_POINT('',(-17.98894583997,-28.81497115746,13.43502884254));
#1614=CARTESIAN_POINT('Origin',(1.,-32.06497115746,13.43502884254));
#1615=CARTESIAN_POINT('',(1.,-30.46497115746,13.43502884254));
#1616=CARTESIAN_POINT('Origin',(1.,-32.06497115746,13.43502884254));
#1617=CARTESIAN_POINT('Origin',(-17.98894583997,-32.06497115746,13.43502884254));
#1618=CARTESIAN_POINT('',(-17.98894583997,-30.46497115746,13.43502884254));
#1619=CARTESIAN_POINT('Origin',(-17.98894583997,-32.06497115746,-13.43502884254));
#1620=CARTESIAN_POINT('',(1.,-28.81497115746,-13.43502884254));
#1621=CARTESIAN_POINT('Origin',(1.,-32.06497115746,-13.43502884254));
#1622=CARTESIAN_POINT('',(-17.98894583997,-28.81497115746,-13.43502884254));
#1623=CARTESIAN_POINT('Origin',(1.,-32.06497115746,-13.43502884254));
#1624=CARTESIAN_POINT('',(1.,-30.46497115746,-13.43502884254));
#1625=CARTESIAN_POINT('Origin',(1.,-32.06497115746,-13.43502884254));
#1626=CARTESIAN_POINT('Origin',(-17.98894583997,-32.06497115746,-13.43502884254));
#1627=CARTESIAN_POINT('',(-17.98894583997,-30.46497115746,-13.43502884254));
#1628=CARTESIAN_POINT('Origin',(-17.98894583997,-58.93502884254,-13.43502884254));
#1629=CARTESIAN_POINT('',(1.,-55.68502884254,-13.43502884254));
#1630=CARTESIAN_POINT('Origin',(1.,-58.93502884254,-13.43502884254));
#1631=CARTESIAN_POINT('',(-17.98894583997,-55.68502884254,-13.43502884254));
#1632=CARTESIAN_POINT('Origin',(1.,-58.93502884254,-13.43502884254));
#1633=CARTESIAN_POINT('',(1.,-57.33502884254,-13.43502884254));
#1634=CARTESIAN_POINT('Origin',(1.,-58.93502884254,-13.43502884254));
#1635=CARTESIAN_POINT('Origin',(-17.98894583997,-58.93502884254,-13.43502884254));
#1636=CARTESIAN_POINT('',(-17.98894583997,-57.33502884254,-13.43502884254));
#1637=CARTESIAN_POINT('Origin',(-17.98894583997,-58.93502884254,13.43502884254));
#1638=CARTESIAN_POINT('',(1.,-55.68502884254,13.43502884254));
#1639=CARTESIAN_POINT('Origin',(1.,-58.93502884254,13.43502884254));
#1640=CARTESIAN_POINT('',(-17.98894583997,-55.68502884254,13.43502884254));
#1641=CARTESIAN_POINT('Origin',(1.,-58.93502884254,13.43502884254));
#1642=CARTESIAN_POINT('',(1.,-57.33502884254,13.43502884254));
#1643=CARTESIAN_POINT('Origin',(1.,-58.93502884254,13.43502884254));
#1644=CARTESIAN_POINT('Origin',(-17.98894583997,-58.93502884254,13.43502884254));
#1645=CARTESIAN_POINT('',(-17.98894583997,-57.33502884254,13.43502884254));
#1646=CARTESIAN_POINT('Origin',(7.850000003999,-73.,27.));
#1647=CARTESIAN_POINT('',(7.70000000126383,-73.0000000121735,28.999999998342));
#1648=CARTESIAN_POINT('',(8.000000003007,-73.00000001577,28.69999999699));
#1649=CARTESIAN_POINT('',(7.70000000134307,-74.9999999983104,26.9999999848299));
#1650=CARTESIAN_POINT('Origin',(7.7,-73.,27.));
#1651=CARTESIAN_POINT('',(8.000000003002,-74.699999997,26.99999998166));
#1652=CARTESIAN_POINT('Origin',(7.85,-74.85,1.06581410364E-14));
#1653=CARTESIAN_POINT('',(7.70000000165748,-74.9999999982592,-27.0000000139113));
#1654=CARTESIAN_POINT('',(7.700000002649,-74.99999999735,26.99999998382));
#1655=CARTESIAN_POINT('',(8.000000003007,-74.69999999699,-27.00000001577));
#1656=CARTESIAN_POINT('Origin',(7.850000003999,-73.,-27.));
#1657=CARTESIAN_POINT('',(7.70000000134307,-72.99999998483,-28.9999999983104));
#1658=CARTESIAN_POINT('Origin',(7.7,-73.,-27.));
#1659=CARTESIAN_POINT('',(8.000000003002,-72.99999998166,-28.699999997));
#1660=CARTESIAN_POINT('Origin',(7.85,-37.5,-28.85));
#1661=CARTESIAN_POINT('',(7.70000000165749,-1.99999998608896,-28.9999999982592));
#1662=CARTESIAN_POINT('',(7.700000002649,-72.99999998382,-28.99999999735));
#1663=CARTESIAN_POINT('',(8.000000003007,-1.999999984234,-28.69999999699));
#1664=CARTESIAN_POINT('Origin',(7.850000003999,-2.,-27.));
#1665=CARTESIAN_POINT('',(7.70000000134259,-1.68916601539501E-9,-26.9999999848299));
#1666=CARTESIAN_POINT('Origin',(7.7,-2.,-27.));
#1667=CARTESIAN_POINT('',(8.000000003002,-0.300000003002,-26.99999998166));
#1668=CARTESIAN_POINT('Origin',(7.85,-0.15,-1.06581410364E-14));
#1669=CARTESIAN_POINT('',(7.70000000165822,-1.74105721680023E-9,27.0000000139113));
#1670=CARTESIAN_POINT('',(7.700000002649,-2.648847641229E-9,-26.99999998382));
#1671=CARTESIAN_POINT('',(8.000000003007,-0.3000000030068,27.00000001577));
#1672=CARTESIAN_POINT('Origin',(7.850000003999,-2.,27.));
#1673=CARTESIAN_POINT('',(7.70000000134306,-2.00000001516772,28.9999999983104));
#1674=CARTESIAN_POINT('Origin',(7.7,-2.,27.));
#1675=CARTESIAN_POINT('',(8.000000003002,-2.000000018336,28.699999997));
#1676=CARTESIAN_POINT('Origin',(7.85,-37.5,28.85));
#1677=CARTESIAN_POINT('',(7.700000002649,-2.000000016179,28.99999999735));
#1678=CARTESIAN_POINT('Origin',(0.,0.,29.));
#1679=CARTESIAN_POINT('',(0.299999998657213,-2.00000001516772,28.9999999983117));
#1680=CARTESIAN_POINT('',(7.700000002649,-2.000000016179,28.99999999735));
#1681=CARTESIAN_POINT('',(0.299999998736446,-73.0000000121735,28.9999999983432));
#1682=CARTESIAN_POINT('',(0.2999999973469,-73.00000001391,28.99999999735));
#1683=CARTESIAN_POINT('',(7.700000002653,-73.00000001391,28.99999999735));
#1684=CARTESIAN_POINT('Origin',(18.4288,-73.,27.));
#1685=CARTESIAN_POINT('',(0.299999998344079,-74.9999999982624,26.9999999838193));
#1686=CARTESIAN_POINT('Origin',(0.3,-73.,27.));
#1687=CARTESIAN_POINT('',(7.700000002649,-74.99999999735,26.99999998382));
#1688=CARTESIAN_POINT('Origin',(0.,-75.,29.));
#1689=CARTESIAN_POINT('',(0.299999998736454,-74.9999999983432,-27.0000000121735));
#1690=CARTESIAN_POINT('',(0.2999999973469,-74.99999999735,-27.00000001391));
#1691=CARTESIAN_POINT('',(7.700000002653,-74.99999999735,-27.00000001391));
#1692=CARTESIAN_POINT('Origin',(18.4288,-73.,-27.));
#1693=CARTESIAN_POINT('',(0.299999998344079,-72.9999999838193,-28.9999999982624));
#1694=CARTESIAN_POINT('Origin',(0.3,-73.,-27.));
#1695=CARTESIAN_POINT('',(7.700000002649,-72.99999998382,-28.99999999735));
#1696=CARTESIAN_POINT('Origin',(0.,-75.,-29.));
#1697=CARTESIAN_POINT('',(0.299999998736446,-1.99999998782781,-28.9999999983432));
#1698=CARTESIAN_POINT('',(0.2999999973469,-1.999999986089,-28.99999999735));
#1699=CARTESIAN_POINT('',(7.700000002653,-1.999999986089,-28.99999999735));
#1700=CARTESIAN_POINT('Origin',(18.4288,-2.,-27.));
#1701=CARTESIAN_POINT('',(0.299999998344462,-1.73830015832997E-9,-26.9999999838193));
#1702=CARTESIAN_POINT('Origin',(0.3,-2.,-27.));
#1703=CARTESIAN_POINT('',(7.700000002649,-2.648847641229E-9,-26.99999998382));
#1704=CARTESIAN_POINT('Origin',(0.,0.,-29.));
#1705=CARTESIAN_POINT('',(0.299999998735626,-1.65817893790771E-9,27.0000000121735));
#1706=CARTESIAN_POINT('',(0.2999999973469,-2.653093363059E-9,27.00000001391));
#1707=CARTESIAN_POINT('',(7.700000002653,-2.653093189586E-9,27.00000001391));
#1708=CARTESIAN_POINT('Origin',(18.4288,-2.,27.));
#1709=CARTESIAN_POINT('Origin',(0.3,-2.,27.));
#1710=CARTESIAN_POINT('Origin',(0.1499999960007,-2.,27.));
#1711=CARTESIAN_POINT('',(-3.002025720604E-9,-2.000000018336,28.699999997));
#1712=CARTESIAN_POINT('',(-3.006838324623E-9,-0.3000000030068,27.00000001577));
#1713=CARTESIAN_POINT('Origin',(0.15,-0.15,0.));
#1714=CARTESIAN_POINT('',(-3.002026470004E-9,-0.300000003002,-26.99999998166));
#1715=CARTESIAN_POINT('Origin',(0.1499999960007,-2.,-27.));
#1716=CARTESIAN_POINT('',(-3.006837649237E-9,-1.999999984234,-28.69999999699));
#1717=CARTESIAN_POINT('Origin',(0.15,-37.5,-28.85));
#1718=CARTESIAN_POINT('',(-3.002026608782E-9,-72.99999998166,-28.699999997));
#1719=CARTESIAN_POINT('Origin',(0.1499999960007,-73.,-27.));
#1720=CARTESIAN_POINT('',(-3.006837297666E-9,-74.69999999699,-27.00000001577));
#1721=CARTESIAN_POINT('Origin',(0.15,-74.85,0.));
#1722=CARTESIAN_POINT('',(-3.002026405241E-9,-74.699999997,26.99999998166));
#1723=CARTESIAN_POINT('Origin',(0.1499999960007,-73.,27.));
#1724=CARTESIAN_POINT('',(-3.00683861143E-9,-73.00000001577,28.69999999699));
#1725=CARTESIAN_POINT('Origin',(0.15,-37.5,28.85));
#1726=CARTESIAN_POINT('Origin',(7.875,-70.,0.));
#1727=CARTESIAN_POINT('',(7.75,-68.75,1.53080849893419E-16));
#1728=CARTESIAN_POINT('Origin',(7.75,-70.,0.));
#1729=CARTESIAN_POINT('',(7.875,-68.625,1.68388934882761E-16));
#1730=CARTESIAN_POINT('Origin',(-17.76812956247,-70.,0.));
#1731=CARTESIAN_POINT('',(0.299999999999951,-70.,1.24999999999995));
#1732=CARTESIAN_POINT('',(0.3,-68.75,1.53080849893419E-16));
#1733=CARTESIAN_POINT('Origin',(0.3,-70.,0.));
#1734=CARTESIAN_POINT('Origin',(0.3,-70.,0.));
#1735=CARTESIAN_POINT('',(-17.76812956247,-68.75,1.53080849893419E-16));
#1736=CARTESIAN_POINT('Origin',(0.1500000109499,-70.,0.));
#1737=CARTESIAN_POINT('',(0.1500000109499,-70.,1.39999998905));
#1738=CARTESIAN_POINT('Origin',(7.875,-50.,10.));
#1739=CARTESIAN_POINT('',(7.75,-48.75,10.));
#1740=CARTESIAN_POINT('Origin',(7.75,-50.,10.));
#1741=CARTESIAN_POINT('',(7.875,-48.625,10.));
#1742=CARTESIAN_POINT('Origin',(-17.76812956247,-50.,10.));
#1743=CARTESIAN_POINT('',(0.299999999999951,-50.,11.2499999999999));
#1744=CARTESIAN_POINT('',(0.3,-48.75,10.));
#1745=CARTESIAN_POINT('Origin',(0.3,-50.,10.));
#1746=CARTESIAN_POINT('Origin',(0.3,-50.,10.));
#1747=CARTESIAN_POINT('',(-17.76812956247,-48.75,10.));
#1748=CARTESIAN_POINT('Origin',(0.1500000109499,-50.,10.));
#1749=CARTESIAN_POINT('',(0.1500000109499,-50.,11.39999998905));
#1750=CARTESIAN_POINT('Origin',(7.875,-50.,-10.));
#1751=CARTESIAN_POINT('',(7.75,-48.75,-10.));
#1752=CARTESIAN_POINT('Origin',(7.75,-50.,-10.));
#1753=CARTESIAN_POINT('',(7.875,-48.625,-10.));
#1754=CARTESIAN_POINT('Origin',(-17.76812956247,-50.,-10.));
#1755=CARTESIAN_POINT('',(0.299999999999951,-50.,-8.75000000000005));
#1756=CARTESIAN_POINT('',(0.3,-48.75,-10.));
#1757=CARTESIAN_POINT('Origin',(0.3,-50.,-10.));
#1758=CARTESIAN_POINT('Origin',(0.3,-50.,-10.));
#1759=CARTESIAN_POINT('',(-17.76812956247,-48.75,-10.));
#1760=CARTESIAN_POINT('Origin',(0.1500000109499,-50.,-10.));
#1761=CARTESIAN_POINT('',(0.1500000109499,-50.,-8.60000001095));
#1762=CARTESIAN_POINT('Origin',(0.,-4.,-5.));
#1763=CARTESIAN_POINT('',(4.5,-5.,-5.));
#1764=CARTESIAN_POINT('',(4.5,-5.,-5.));
#1765=CARTESIAN_POINT('',(4.5,-4.,-4.));
#1766=CARTESIAN_POINT('Origin',(4.5,-4.,-5.));
#1767=CARTESIAN_POINT('',(4.5,-4.,-4.));
#1768=CARTESIAN_POINT('Origin',(0.,-4.,5.));
#1769=CARTESIAN_POINT('',(4.5,-4.,4.));
#1770=CARTESIAN_POINT('',(4.5,-4.,4.));
#1771=CARTESIAN_POINT('',(4.5,-4.,4.));
#1772=CARTESIAN_POINT('Origin',(0.,-4.,5.));
#1773=CARTESIAN_POINT('',(4.5,-5.,5.));
#1774=CARTESIAN_POINT('Origin',(4.5,-4.,5.));
#1775=CARTESIAN_POINT('',(4.5,-5.,5.));
#1776=CARTESIAN_POINT('Origin',(0.,-8.,5.));
#1777=CARTESIAN_POINT('',(4.5,-7.,5.));
#1778=CARTESIAN_POINT('',(4.5,-7.,5.));
#1779=CARTESIAN_POINT('',(4.5,-7.,5.));
#1780=CARTESIAN_POINT('Origin',(0.,-8.,5.));
#1781=CARTESIAN_POINT('',(4.5,-8.,4.));
#1782=CARTESIAN_POINT('Origin',(4.5,-8.,5.));
#1783=CARTESIAN_POINT('',(4.5,-8.,4.));
#1784=CARTESIAN_POINT('Origin',(4.5,0.,0.));
#1785=CARTESIAN_POINT('',(4.5,-8.,-4.));
#1786=CARTESIAN_POINT('',(4.5,-8.,-4.));
#1787=CARTESIAN_POINT('',(4.5,-7.,-5.));
#1788=CARTESIAN_POINT('',(4.5,-5.,-5.));
#1789=CARTESIAN_POINT('Origin',(4.5,-8.,-5.));
#1790=CARTESIAN_POINT('Origin',(0.,-8.,-5.));
#1791=CARTESIAN_POINT('',(4.5,-8.,-4.));
#1792=CARTESIAN_POINT('Origin',(0.,-8.,-5.));
#1793=CARTESIAN_POINT('',(4.5,-7.,-5.));
#1794=CARTESIAN_POINT('Origin',(0.,-4.,-5.));
#1795=UNCERTAINTY_MEASURE_WITH_UNIT(LENGTH_MEASURE(0.01),#1799,
'DISTANCE_ACCURACY_VALUE',
'Maximum model space distance between geometric entities at asserted c
onnectivities');
#1796=UNCERTAINTY_MEASURE_WITH_UNIT(LENGTH_MEASURE(0.01),#1799,
'DISTANCE_ACCURACY_VALUE',
'Maximum model space distance between geometric entities at asserted c
onnectivities');
#1797=(
GEOMETRIC_REPRESENTATION_CONTEXT(3)
GLOBAL_UNCERTAINTY_ASSIGNED_CONTEXT((#1795))
GLOBAL_UNIT_ASSIGNED_CONTEXT((#1799,#1801,#1802))
REPRESENTATION_CONTEXT('','3D')
);
#1798=(
GEOMETRIC_REPRESENTATION_CONTEXT(3)
GLOBAL_UNCERTAINTY_ASSIGNED_CONTEXT((#1796))
GLOBAL_UNIT_ASSIGNED_CONTEXT((#1799,#1801,#1802))
REPRESENTATION_CONTEXT('','3D')
);
#1799=(
LENGTH_UNIT()
NAMED_UNIT(*)
SI_UNIT(.MILLI.,.METRE.)
);
#1800=(
LENGTH_UNIT()
NAMED_UNIT(*)
SI_UNIT($,.METRE.)
);
#1801=(
NAMED_UNIT(*)
PLANE_ANGLE_UNIT()
SI_UNIT($,.RADIAN.)
);
#1802=(
NAMED_UNIT(*)
SI_UNIT($,.STERADIAN.)
SOLID_ANGLE_UNIT()
);
#1803=SHAPE_DEFINITION_REPRESENTATION(#1804,#1805);
#1804=PRODUCT_DEFINITION_SHAPE('',$,#1807);
#1805=SHAPE_REPRESENTATION('',(#1050),#1797);
#1806=PRODUCT_DEFINITION_CONTEXT('part definition',#1811,'design');
#1807=PRODUCT_DEFINITION('2026-07-07-17-46-03-841','2-RSM6-RORATOR-2',#1808,
#1806);
#1808=PRODUCT_DEFINITION_FORMATION('',$,#1813);
#1809=PRODUCT_RELATED_PRODUCT_CATEGORY('2-RSM6-RORATOR-2',
'2-RSM6-RORATOR-2',(#1813));
#1810=APPLICATION_PROTOCOL_DEFINITION('international standard',
'automotive_design',2009,#1811);
#1811=APPLICATION_CONTEXT(
'Core Data for Automotive Mechanical Design Process');
#1812=PRODUCT_CONTEXT('part definition',#1811,'mechanical');
#1813=PRODUCT('2026-07-07-17-46-03-841','2-RSM6-RORATOR-2',
'NOT SPECIFIED',(#1812));
#1814=PRESENTATION_STYLE_ASSIGNMENT((#1815));
#1815=SURFACE_STYLE_USAGE(.BOTH.,#1816);
#1816=SURFACE_SIDE_STYLE('',(#1817));
#1817=SURFACE_STYLE_FILL_AREA(#1818);
#1818=FILL_AREA_STYLE('\X2\94A2\X0\ - \X2\7F0E5149\X0\',(#1819));
#1819=FILL_AREA_STYLE_COLOUR('\X2\94A2\X0\ - \X2\7F0E5149\X0\',#1820);
#1820=COLOUR_RGB('\X2\94A2\X0\ - \X2\7F0E5149\X0\',0.627450980392157,0.627450980392157,
0.627450980392157);
ENDSEC;
END-ISO-10303-21;
