ISO-10303-21;
HEADER;
/* Generated by software containing ST-Developer
 * from STEP Tools, Inc. (www.steptools.com) 
 */

FILE_DESCRIPTION(
/* description */ ('NOT SPECIFIED'),
/* implementation_level */ '2;1');

FILE_NAME(
/* name */ '2-SPACE-M4-STATOR.step',
/* time_stamp */ '2026-07-09T12:36:31+08:00',
/* author */ (''),
/* organization */ (''),
/* preprocessor_version */ 'ST-DEVELOPER v20.1',
/* originating_system */ 'Autodesk Translation Framework v15.8.0.0',
/* authorisation */ '');

FILE_SCHEMA (('AUTOMOTIVE_DESIGN { 1 0 10303 214 3 1 1 }'));
ENDSEC;

DATA;
#10=MECHANICAL_DESIGN_GEOMETRIC_PRESENTATION_REPRESENTATION('',(#13),#1598);
#11=SHAPE_REPRESENTATION_RELATIONSHIP('SRR','None',#1605,#12);
#12=ADVANCED_BREP_SHAPE_REPRESENTATION('',(#14),#1597);
#13=STYLED_ITEM('',(#1614),#14);
#14=MANIFOLD_SOLID_BREP('\X2\5B9E4F53\X0\1',#908);
#15=CONICAL_SURFACE('',#999,1.375,0.785398163397448);
#16=CONICAL_SURFACE('',#1004,1.399999989004,0.785398163397448);
#17=CONICAL_SURFACE('',#1005,1.375,0.785398163397448);
#18=CONICAL_SURFACE('',#1010,1.399999989004,0.785398163397448);
#19=CONICAL_SURFACE('',#1011,1.375,0.785398163397448);
#20=CONICAL_SURFACE('',#1016,1.399999989004,0.785398163397448);
#21=CONICAL_SURFACE('',#1017,1.375,0.785398163397448);
#22=CONICAL_SURFACE('',#1022,1.399999989004,0.785398163397448);
#23=CONICAL_SURFACE('',#1023,1.375,0.785398163397448);
#24=CONICAL_SURFACE('',#1028,1.399999989004,0.785398163397448);
#25=CONICAL_SURFACE('',#1029,1.375,0.785398163397448);
#26=CONICAL_SURFACE('',#1034,1.399999989004,0.785398163397448);
#27=CONICAL_SURFACE('',#1035,31.35,0.785398163397448);
#28=CONICAL_SURFACE('',#1041,31.34999999989,0.785398163397448);
#29=LINE('',#1368,#84);
#30=LINE('',#1375,#85);
#31=LINE('',#1381,#86);
#32=LINE('',#1385,#87);
#33=LINE('',#1389,#88);
#34=LINE('',#1413,#89);
#35=LINE('',#1417,#90);
#36=LINE('',#1421,#91);
#37=LINE('',#1425,#92);
#38=LINE('',#1427,#93);
#39=LINE('',#1428,#94);
#40=LINE('',#1432,#95);
#41=LINE('',#1437,#96);
#42=LINE('',#1440,#97);
#43=LINE('',#1446,#98);
#44=LINE('',#1450,#99);
#45=LINE('',#1453,#100);
#46=LINE('',#1455,#101);
#47=LINE('',#1457,#102);
#48=LINE('',#1459,#103);
#49=LINE('',#1462,#104);
#50=LINE('',#1463,#105);
#51=LINE('',#1465,#106);
#52=LINE('',#1467,#107);
#53=LINE('',#1469,#108);
#54=LINE('',#1471,#109);
#55=LINE('',#1476,#110);
#56=LINE('',#1481,#111);
#57=LINE('',#1485,#112);
#58=LINE('',#1490,#113);
#59=LINE('',#1494,#114);
#60=LINE('',#1499,#115);
#61=LINE('',#1503,#116);
#62=LINE('',#1508,#117);
#63=LINE('',#1512,#118);
#64=LINE('',#1518,#119);
#65=LINE('',#1520,#120);
#66=LINE('',#1524,#121);
#67=LINE('',#1530,#122);
#68=LINE('',#1532,#123);
#69=LINE('',#1536,#124);
#70=LINE('',#1542,#125);
#71=LINE('',#1544,#126);
#72=LINE('',#1548,#127);
#73=LINE('',#1554,#128);
#74=LINE('',#1556,#129);
#75=LINE('',#1560,#130);
#76=LINE('',#1566,#131);
#77=LINE('',#1568,#132);
#78=LINE('',#1572,#133);
#79=LINE('',#1578,#134);
#80=LINE('',#1580,#135);
#81=LINE('',#1585,#136);
#82=LINE('',#1591,#137);
#83=LINE('',#1594,#138);
#84=VECTOR('',#1074,13.025);
#85=VECTOR('',#1083,14.05);
#86=VECTOR('',#1088,1.53589838486195);
#87=VECTOR('',#1091,1.53589838486195);
#88=VECTOR('',#1094,1.535898384862);
#89=VECTOR('',#1117,1.53589838486195);
#90=VECTOR('',#1120,1.535898384862);
#91=VECTOR('',#1123,1.53589838486195);
#92=VECTOR('',#1128,0.3);
#93=VECTOR('',#1129,0.3);
#94=VECTOR('',#1130,1.53589838486195);
#95=VECTOR('',#1135,0.3);
#96=VECTOR('',#1140,1.53589838486195);
#97=VECTOR('',#1143,1.535898384862);
#98=VECTOR('',#1148,1.535898384862);
#99=VECTOR('',#1151,1.53589838486195);
#100=VECTOR('',#1154,1.53589838486195);
#101=VECTOR('',#1157,0.3);
#102=VECTOR('',#1160,0.3);
#103=VECTOR('',#1163,0.3);
#104=VECTOR('',#1168,0.3);
#105=VECTOR('',#1169,0.3);
#106=VECTOR('',#1172,0.3);
#107=VECTOR('',#1175,0.3);
#108=VECTOR('',#1178,0.3);
#109=VECTOR('',#1181,0.3);
#110=VECTOR('',#1188,3.25);
#111=VECTOR('',#1195,1.6);
#112=VECTOR('',#1200,3.25);
#113=VECTOR('',#1207,1.6);
#114=VECTOR('',#1212,3.25);
#115=VECTOR('',#1219,1.6);
#116=VECTOR('',#1224,3.25);
#117=VECTOR('',#1231,1.6);
#118=VECTOR('',#1236,1.375);
#119=VECTOR('',#1243,1.25);
#120=VECTOR('',#1246,1.399999989004);
#121=VECTOR('',#1251,1.375);
#122=VECTOR('',#1258,1.25);
#123=VECTOR('',#1261,1.399999989004);
#124=VECTOR('',#1266,1.375);
#125=VECTOR('',#1273,1.25);
#126=VECTOR('',#1276,1.399999989004);
#127=VECTOR('',#1281,1.375);
#128=VECTOR('',#1288,1.25);
#129=VECTOR('',#1291,1.399999989004);
#130=VECTOR('',#1296,1.375);
#131=VECTOR('',#1303,1.25);
#132=VECTOR('',#1306,1.399999989004);
#133=VECTOR('',#1311,1.375);
#134=VECTOR('',#1318,1.25);
#135=VECTOR('',#1321,1.399999989004);
#136=VECTOR('',#1326,31.35);
#137=VECTOR('',#1333,31.5);
#138=VECTOR('',#1338,31.34999999989);
#139=CYLINDRICAL_SURFACE('',#935,13.025);
#140=CYLINDRICAL_SURFACE('',#939,14.05);
#141=CYLINDRICAL_SURFACE('',#960,1.);
#142=CYLINDRICAL_SURFACE('',#970,1.);
#143=CYLINDRICAL_SURFACE('',#972,1.);
#144=CYLINDRICAL_SURFACE('',#973,1.);
#145=CYLINDRICAL_SURFACE('',#975,1.);
#146=CYLINDRICAL_SURFACE('',#977,1.);
#147=CYLINDRICAL_SURFACE('',#979,3.25);
#148=CYLINDRICAL_SURFACE('',#983,1.6);
#149=CYLINDRICAL_SURFACE('',#984,3.25);
#150=CYLINDRICAL_SURFACE('',#988,1.6);
#151=CYLINDRICAL_SURFACE('',#989,3.25);
#152=CYLINDRICAL_SURFACE('',#993,1.6);
#153=CYLINDRICAL_SURFACE('',#994,3.25);
#154=CYLINDRICAL_SURFACE('',#998,1.6);
#155=CYLINDRICAL_SURFACE('',#1001,1.25);
#156=CYLINDRICAL_SURFACE('',#1007,1.25);
#157=CYLINDRICAL_SURFACE('',#1013,1.25);
#158=CYLINDRICAL_SURFACE('',#1019,1.25);
#159=CYLINDRICAL_SURFACE('',#1025,1.25);
#160=CYLINDRICAL_SURFACE('',#1031,1.25);
#161=CYLINDRICAL_SURFACE('',#1038,31.5);
#162=FACE_BOUND('',#244,.T.);
#163=FACE_BOUND('',#245,.T.);
#164=FACE_BOUND('',#246,.T.);
#165=FACE_BOUND('',#247,.T.);
#166=FACE_BOUND('',#248,.T.);
#167=FACE_BOUND('',#249,.T.);
#168=FACE_BOUND('',#250,.T.);
#169=FACE_BOUND('',#251,.T.);
#170=FACE_BOUND('',#252,.T.);
#171=FACE_BOUND('',#253,.T.);
#172=FACE_BOUND('',#254,.T.);
#173=FACE_BOUND('',#257,.T.);
#174=FACE_BOUND('',#260,.T.);
#175=FACE_BOUND('',#261,.T.);
#176=FACE_BOUND('',#262,.T.);
#177=FACE_BOUND('',#263,.T.);
#178=FACE_BOUND('',#264,.T.);
#179=FACE_BOUND('',#265,.T.);
#180=FACE_BOUND('',#266,.T.);
#181=FACE_BOUND('',#267,.T.);
#182=FACE_BOUND('',#268,.T.);
#183=FACE_BOUND('',#269,.T.);
#184=FACE_BOUND('',#270,.T.);
#185=FACE_BOUND('',#271,.T.);
#186=FACE_BOUND('',#272,.T.);
#187=FACE_BOUND('',#289,.T.);
#188=FACE_BOUND('',#293,.T.);
#189=FACE_BOUND('',#297,.T.);
#190=FACE_BOUND('',#301,.T.);
#191=FACE_OUTER_BOUND('',#243,.T.);
#192=FACE_OUTER_BOUND('',#255,.T.);
#193=FACE_OUTER_BOUND('',#256,.T.);
#194=FACE_OUTER_BOUND('',#258,.T.);
#195=FACE_OUTER_BOUND('',#259,.T.);
#196=FACE_OUTER_BOUND('',#273,.T.);
#197=FACE_OUTER_BOUND('',#274,.T.);
#198=FACE_OUTER_BOUND('',#275,.T.);
#199=FACE_OUTER_BOUND('',#276,.T.);
#200=FACE_OUTER_BOUND('',#277,.T.);
#201=FACE_OUTER_BOUND('',#278,.T.);
#202=FACE_OUTER_BOUND('',#279,.T.);
#203=FACE_OUTER_BOUND('',#280,.T.);
#204=FACE_OUTER_BOUND('',#281,.T.);
#205=FACE_OUTER_BOUND('',#282,.T.);
#206=FACE_OUTER_BOUND('',#283,.T.);
#207=FACE_OUTER_BOUND('',#284,.T.);
#208=FACE_OUTER_BOUND('',#285,.T.);
#209=FACE_OUTER_BOUND('',#286,.T.);
#210=FACE_OUTER_BOUND('',#287,.T.);
#211=FACE_OUTER_BOUND('',#288,.T.);
#212=FACE_OUTER_BOUND('',#290,.T.);
#213=FACE_OUTER_BOUND('',#291,.T.);
#214=FACE_OUTER_BOUND('',#292,.T.);
#215=FACE_OUTER_BOUND('',#294,.T.);
#216=FACE_OUTER_BOUND('',#295,.T.);
#217=FACE_OUTER_BOUND('',#296,.T.);
#218=FACE_OUTER_BOUND('',#298,.T.);
#219=FACE_OUTER_BOUND('',#299,.T.);
#220=FACE_OUTER_BOUND('',#300,.T.);
#221=FACE_OUTER_BOUND('',#302,.T.);
#222=FACE_OUTER_BOUND('',#303,.T.);
#223=FACE_OUTER_BOUND('',#304,.T.);
#224=FACE_OUTER_BOUND('',#305,.T.);
#225=FACE_OUTER_BOUND('',#306,.T.);
#226=FACE_OUTER_BOUND('',#307,.T.);
#227=FACE_OUTER_BOUND('',#308,.T.);
#228=FACE_OUTER_BOUND('',#309,.T.);
#229=FACE_OUTER_BOUND('',#310,.T.);
#230=FACE_OUTER_BOUND('',#311,.T.);
#231=FACE_OUTER_BOUND('',#312,.T.);
#232=FACE_OUTER_BOUND('',#313,.T.);
#233=FACE_OUTER_BOUND('',#314,.T.);
#234=FACE_OUTER_BOUND('',#315,.T.);
#235=FACE_OUTER_BOUND('',#316,.T.);
#236=FACE_OUTER_BOUND('',#317,.T.);
#237=FACE_OUTER_BOUND('',#318,.T.);
#238=FACE_OUTER_BOUND('',#319,.T.);
#239=FACE_OUTER_BOUND('',#320,.T.);
#240=FACE_OUTER_BOUND('',#321,.T.);
#241=FACE_OUTER_BOUND('',#322,.T.);
#242=FACE_OUTER_BOUND('',#323,.T.);
#243=EDGE_LOOP('',(#595));
#244=EDGE_LOOP('',(#596));
#245=EDGE_LOOP('',(#597));
#246=EDGE_LOOP('',(#598));
#247=EDGE_LOOP('',(#599));
#248=EDGE_LOOP('',(#600));
#249=EDGE_LOOP('',(#601));
#250=EDGE_LOOP('',(#602));
#251=EDGE_LOOP('',(#603));
#252=EDGE_LOOP('',(#604));
#253=EDGE_LOOP('',(#605));
#254=EDGE_LOOP('',(#606));
#255=EDGE_LOOP('',(#607,#608,#609,#610));
#256=EDGE_LOOP('',(#611));
#257=EDGE_LOOP('',(#612));
#258=EDGE_LOOP('',(#613,#614,#615,#616));
#259=EDGE_LOOP('',(#617));
#260=EDGE_LOOP('',(#618,#619,#620,#621,#622,#623));
#261=EDGE_LOOP('',(#624));
#262=EDGE_LOOP('',(#625));
#263=EDGE_LOOP('',(#626));
#264=EDGE_LOOP('',(#627));
#265=EDGE_LOOP('',(#628));
#266=EDGE_LOOP('',(#629));
#267=EDGE_LOOP('',(#630));
#268=EDGE_LOOP('',(#631));
#269=EDGE_LOOP('',(#632));
#270=EDGE_LOOP('',(#633));
#271=EDGE_LOOP('',(#634));
#272=EDGE_LOOP('',(#635,#636,#637,#638,#639,#640));
#273=EDGE_LOOP('',(#641,#642,#643,#644));
#274=EDGE_LOOP('',(#645,#646,#647,#648));
#275=EDGE_LOOP('',(#649,#650,#651,#652,#653,#654));
#276=EDGE_LOOP('',(#655,#656,#657,#658,#659,#660));
#277=EDGE_LOOP('',(#661,#662,#663,#664));
#278=EDGE_LOOP('',(#665,#666,#667,#668));
#279=EDGE_LOOP('',(#669,#670,#671,#672));
#280=EDGE_LOOP('',(#673,#674,#675,#676));
#281=EDGE_LOOP('',(#677,#678,#679,#680));
#282=EDGE_LOOP('',(#681,#682,#683,#684));
#283=EDGE_LOOP('',(#685,#686,#687,#688));
#284=EDGE_LOOP('',(#689,#690,#691,#692));
#285=EDGE_LOOP('',(#693,#694,#695,#696));
#286=EDGE_LOOP('',(#697,#698,#699,#700));
#287=EDGE_LOOP('',(#701,#702,#703,#704));
#288=EDGE_LOOP('',(#705));
#289=EDGE_LOOP('',(#706));
#290=EDGE_LOOP('',(#707,#708,#709,#710));
#291=EDGE_LOOP('',(#711,#712,#713,#714));
#292=EDGE_LOOP('',(#715));
#293=EDGE_LOOP('',(#716));
#294=EDGE_LOOP('',(#717,#718,#719,#720));
#295=EDGE_LOOP('',(#721,#722,#723,#724));
#296=EDGE_LOOP('',(#725));
#297=EDGE_LOOP('',(#726));
#298=EDGE_LOOP('',(#727,#728,#729,#730));
#299=EDGE_LOOP('',(#731,#732,#733,#734));
#300=EDGE_LOOP('',(#735));
#301=EDGE_LOOP('',(#736));
#302=EDGE_LOOP('',(#737,#738,#739,#740));
#303=EDGE_LOOP('',(#741,#742,#743,#744));
#304=EDGE_LOOP('',(#745,#746,#747,#748,#749));
#305=EDGE_LOOP('',(#750,#751,#752,#753,#754));
#306=EDGE_LOOP('',(#755,#756,#757,#758));
#307=EDGE_LOOP('',(#759,#760,#761,#762,#763));
#308=EDGE_LOOP('',(#764,#765,#766,#767,#768));
#309=EDGE_LOOP('',(#769,#770,#771,#772));
#310=EDGE_LOOP('',(#773,#774,#775,#776,#777));
#311=EDGE_LOOP('',(#778,#779,#780,#781,#782));
#312=EDGE_LOOP('',(#783,#784,#785,#786));
#313=EDGE_LOOP('',(#787,#788,#789,#790,#791));
#314=EDGE_LOOP('',(#792,#793,#794,#795,#796));
#315=EDGE_LOOP('',(#797,#798,#799,#800));
#316=EDGE_LOOP('',(#801,#802,#803,#804,#805));
#317=EDGE_LOOP('',(#806,#807,#808,#809,#810));
#318=EDGE_LOOP('',(#811,#812,#813,#814));
#319=EDGE_LOOP('',(#815,#816,#817,#818,#819));
#320=EDGE_LOOP('',(#820,#821,#822,#823,#824));
#321=EDGE_LOOP('',(#825,#826,#827,#828,#829));
#322=EDGE_LOOP('',(#830,#831,#832,#833,#834,#835));
#323=EDGE_LOOP('',(#836,#837,#838,#839,#840));
#324=CIRCLE('',#923,31.2);
#325=CIRCLE('',#924,1.6);
#326=CIRCLE('',#925,1.6);
#327=CIRCLE('',#926,1.6);
#328=CIRCLE('',#927,1.6);
#329=CIRCLE('',#928,13.025);
#330=CIRCLE('',#929,1.55);
#331=CIRCLE('',#930,1.55);
#332=CIRCLE('',#931,1.55);
#333=CIRCLE('',#932,1.55);
#334=CIRCLE('',#933,1.55);
#335=CIRCLE('',#934,1.55);
#336=CIRCLE('',#936,13.025);
#337=CIRCLE('',#938,14.05);
#338=CIRCLE('',#940,14.05);
#339=CIRCLE('',#942,31.2);
#340=CIRCLE('',#943,1.);
#341=CIRCLE('',#944,1.);
#342=CIRCLE('',#945,1.);
#343=CIRCLE('',#946,3.25);
#344=CIRCLE('',#947,3.25);
#345=CIRCLE('',#948,3.25);
#346=CIRCLE('',#949,3.25);
#347=CIRCLE('',#950,1.5);
#348=CIRCLE('',#951,1.5);
#349=CIRCLE('',#952,1.5);
#350=CIRCLE('',#953,1.5);
#351=CIRCLE('',#954,1.5);
#352=CIRCLE('',#955,1.5);
#353=CIRCLE('',#956,1.);
#354=CIRCLE('',#957,1.);
#355=CIRCLE('',#958,1.);
#356=CIRCLE('',#961,1.);
#357=CIRCLE('',#963,1.);
#358=CIRCLE('',#964,1.);
#359=CIRCLE('',#966,1.);
#360=CIRCLE('',#967,1.);
#361=CIRCLE('',#968,1.);
#362=CIRCLE('',#980,3.25);
#363=CIRCLE('',#982,1.6);
#364=CIRCLE('',#985,3.25);
#365=CIRCLE('',#987,1.6);
#366=CIRCLE('',#990,3.25);
#367=CIRCLE('',#992,1.6);
#368=CIRCLE('',#995,3.25);
#369=CIRCLE('',#997,1.6);
#370=CIRCLE('',#1000,1.25);
#371=CIRCLE('',#1002,1.25);
#372=CIRCLE('',#1003,1.25);
#373=CIRCLE('',#1006,1.25);
#374=CIRCLE('',#1008,1.25);
#375=CIRCLE('',#1009,1.25);
#376=CIRCLE('',#1012,1.25);
#377=CIRCLE('',#1014,1.25);
#378=CIRCLE('',#1015,1.25);
#379=CIRCLE('',#1018,1.25);
#380=CIRCLE('',#1020,1.25);
#381=CIRCLE('',#1021,1.25);
#382=CIRCLE('',#1024,1.25);
#383=CIRCLE('',#1026,1.25);
#384=CIRCLE('',#1027,1.25);
#385=CIRCLE('',#1030,1.25);
#386=CIRCLE('',#1032,1.25);
#387=CIRCLE('',#1033,1.25);
#388=CIRCLE('',#1036,31.5);
#389=CIRCLE('',#1037,31.5);
#390=CIRCLE('',#1039,31.5);
#391=CIRCLE('',#1040,31.5);
#392=VERTEX_POINT('',#1341);
#393=VERTEX_POINT('',#1343);
#394=VERTEX_POINT('',#1345);
#395=VERTEX_POINT('',#1347);
#396=VERTEX_POINT('',#1349);
#397=VERTEX_POINT('',#1351);
#398=VERTEX_POINT('',#1353);
#399=VERTEX_POINT('',#1355);
#400=VERTEX_POINT('',#1357);
#401=VERTEX_POINT('',#1359);
#402=VERTEX_POINT('',#1361);
#403=VERTEX_POINT('',#1363);
#404=VERTEX_POINT('',#1366);
#405=VERTEX_POINT('',#1370);
#406=VERTEX_POINT('',#1373);
#407=VERTEX_POINT('',#1377);
#408=VERTEX_POINT('',#1379);
#409=VERTEX_POINT('',#1380);
#410=VERTEX_POINT('',#1382);
#411=VERTEX_POINT('',#1384);
#412=VERTEX_POINT('',#1386);
#413=VERTEX_POINT('',#1388);
#414=VERTEX_POINT('',#1391);
#415=VERTEX_POINT('',#1393);
#416=VERTEX_POINT('',#1395);
#417=VERTEX_POINT('',#1397);
#418=VERTEX_POINT('',#1399);
#419=VERTEX_POINT('',#1401);
#420=VERTEX_POINT('',#1403);
#421=VERTEX_POINT('',#1405);
#422=VERTEX_POINT('',#1407);
#423=VERTEX_POINT('',#1409);
#424=VERTEX_POINT('',#1411);
#425=VERTEX_POINT('',#1412);
#426=VERTEX_POINT('',#1414);
#427=VERTEX_POINT('',#1416);
#428=VERTEX_POINT('',#1418);
#429=VERTEX_POINT('',#1420);
#430=VERTEX_POINT('',#1424);
#431=VERTEX_POINT('',#1426);
#432=VERTEX_POINT('',#1430);
#433=VERTEX_POINT('',#1434);
#434=VERTEX_POINT('',#1436);
#435=VERTEX_POINT('',#1438);
#436=VERTEX_POINT('',#1442);
#437=VERTEX_POINT('',#1443);
#438=VERTEX_POINT('',#1445);
#439=VERTEX_POINT('',#1447);
#440=VERTEX_POINT('',#1449);
#441=VERTEX_POINT('',#1451);
#442=VERTEX_POINT('',#1474);
#443=VERTEX_POINT('',#1478);
#444=VERTEX_POINT('',#1483);
#445=VERTEX_POINT('',#1487);
#446=VERTEX_POINT('',#1492);
#447=VERTEX_POINT('',#1496);
#448=VERTEX_POINT('',#1501);
#449=VERTEX_POINT('',#1505);
#450=VERTEX_POINT('',#1510);
#451=VERTEX_POINT('',#1514);
#452=VERTEX_POINT('',#1515);
#453=VERTEX_POINT('',#1522);
#454=VERTEX_POINT('',#1526);
#455=VERTEX_POINT('',#1527);
#456=VERTEX_POINT('',#1534);
#457=VERTEX_POINT('',#1538);
#458=VERTEX_POINT('',#1539);
#459=VERTEX_POINT('',#1546);
#460=VERTEX_POINT('',#1550);
#461=VERTEX_POINT('',#1551);
#462=VERTEX_POINT('',#1558);
#463=VERTEX_POINT('',#1562);
#464=VERTEX_POINT('',#1563);
#465=VERTEX_POINT('',#1570);
#466=VERTEX_POINT('',#1574);
#467=VERTEX_POINT('',#1575);
#468=VERTEX_POINT('',#1582);
#469=VERTEX_POINT('',#1583);
#470=VERTEX_POINT('',#1588);
#471=VERTEX_POINT('',#1589);
#472=EDGE_CURVE('',#392,#392,#324,.T.);
#473=EDGE_CURVE('',#393,#393,#325,.T.);
#474=EDGE_CURVE('',#394,#394,#326,.T.);
#475=EDGE_CURVE('',#395,#395,#327,.T.);
#476=EDGE_CURVE('',#396,#396,#328,.T.);
#477=EDGE_CURVE('',#397,#397,#329,.T.);
#478=EDGE_CURVE('',#398,#398,#330,.T.);
#479=EDGE_CURVE('',#399,#399,#331,.T.);
#480=EDGE_CURVE('',#400,#400,#332,.T.);
#481=EDGE_CURVE('',#401,#401,#333,.T.);
#482=EDGE_CURVE('',#402,#402,#334,.T.);
#483=EDGE_CURVE('',#403,#403,#335,.T.);
#484=EDGE_CURVE('',#404,#404,#336,.T.);
#485=EDGE_CURVE('',#404,#397,#29,.T.);
#486=EDGE_CURVE('',#405,#405,#337,.T.);
#487=EDGE_CURVE('',#406,#406,#338,.T.);
#488=EDGE_CURVE('',#406,#405,#30,.T.);
#489=EDGE_CURVE('',#407,#407,#339,.T.);
#490=EDGE_CURVE('',#408,#409,#31,.T.);
#491=EDGE_CURVE('',#408,#410,#340,.T.);
#492=EDGE_CURVE('',#411,#410,#32,.T.);
#493=EDGE_CURVE('',#411,#412,#341,.T.);
#494=EDGE_CURVE('',#413,#412,#33,.T.);
#495=EDGE_CURVE('',#413,#409,#342,.T.);
#496=EDGE_CURVE('',#414,#414,#343,.T.);
#497=EDGE_CURVE('',#415,#415,#344,.T.);
#498=EDGE_CURVE('',#416,#416,#345,.T.);
#499=EDGE_CURVE('',#417,#417,#346,.T.);
#500=EDGE_CURVE('',#418,#418,#347,.T.);
#501=EDGE_CURVE('',#419,#419,#348,.T.);
#502=EDGE_CURVE('',#420,#420,#349,.T.);
#503=EDGE_CURVE('',#421,#421,#350,.T.);
#504=EDGE_CURVE('',#422,#422,#351,.T.);
#505=EDGE_CURVE('',#423,#423,#352,.T.);
#506=EDGE_CURVE('',#424,#425,#34,.T.);
#507=EDGE_CURVE('',#424,#426,#353,.T.);
#508=EDGE_CURVE('',#427,#426,#35,.T.);
#509=EDGE_CURVE('',#427,#428,#354,.T.);
#510=EDGE_CURVE('',#429,#428,#36,.T.);
#511=EDGE_CURVE('',#429,#425,#355,.T.);
#512=EDGE_CURVE('',#424,#430,#37,.T.);
#513=EDGE_CURVE('',#425,#431,#38,.T.);
#514=EDGE_CURVE('',#430,#431,#39,.T.);
#515=EDGE_CURVE('',#432,#430,#356,.T.);
#516=EDGE_CURVE('',#426,#432,#40,.T.);
#517=EDGE_CURVE('',#431,#433,#357,.T.);
#518=EDGE_CURVE('',#433,#434,#41,.T.);
#519=EDGE_CURVE('',#434,#435,#358,.T.);
#520=EDGE_CURVE('',#435,#432,#42,.T.);
#521=EDGE_CURVE('',#436,#437,#359,.T.);
#522=EDGE_CURVE('',#437,#438,#43,.T.);
#523=EDGE_CURVE('',#438,#439,#360,.T.);
#524=EDGE_CURVE('',#439,#440,#44,.T.);
#525=EDGE_CURVE('',#440,#441,#361,.T.);
#526=EDGE_CURVE('',#441,#436,#45,.T.);
#527=EDGE_CURVE('',#427,#435,#46,.T.);
#528=EDGE_CURVE('',#428,#434,#47,.T.);
#529=EDGE_CURVE('',#429,#433,#48,.T.);
#530=EDGE_CURVE('',#409,#436,#49,.T.);
#531=EDGE_CURVE('',#413,#437,#50,.T.);
#532=EDGE_CURVE('',#412,#438,#51,.T.);
#533=EDGE_CURVE('',#411,#439,#52,.T.);
#534=EDGE_CURVE('',#410,#440,#53,.T.);
#535=EDGE_CURVE('',#408,#441,#54,.T.);
#536=EDGE_CURVE('',#442,#442,#362,.T.);
#537=EDGE_CURVE('',#442,#414,#55,.T.);
#538=EDGE_CURVE('',#443,#443,#363,.T.);
#539=EDGE_CURVE('',#393,#443,#56,.T.);
#540=EDGE_CURVE('',#444,#444,#364,.T.);
#541=EDGE_CURVE('',#444,#415,#57,.T.);
#542=EDGE_CURVE('',#445,#445,#365,.T.);
#543=EDGE_CURVE('',#394,#445,#58,.T.);
#544=EDGE_CURVE('',#446,#446,#366,.T.);
#545=EDGE_CURVE('',#446,#416,#59,.T.);
#546=EDGE_CURVE('',#447,#447,#367,.T.);
#547=EDGE_CURVE('',#395,#447,#60,.T.);
#548=EDGE_CURVE('',#448,#448,#368,.T.);
#549=EDGE_CURVE('',#448,#417,#61,.T.);
#550=EDGE_CURVE('',#449,#449,#369,.T.);
#551=EDGE_CURVE('',#396,#449,#62,.T.);
#552=EDGE_CURVE('',#450,#450,#370,.T.);
#553=EDGE_CURVE('',#450,#418,#63,.T.);
#554=EDGE_CURVE('',#451,#452,#371,.T.);
#555=EDGE_CURVE('',#452,#451,#372,.T.);
#556=EDGE_CURVE('',#452,#450,#64,.T.);
#557=EDGE_CURVE('',#451,#398,#65,.T.);
#558=EDGE_CURVE('',#453,#453,#373,.T.);
#559=EDGE_CURVE('',#453,#419,#66,.T.);
#560=EDGE_CURVE('',#454,#455,#374,.T.);
#561=EDGE_CURVE('',#455,#454,#375,.T.);
#562=EDGE_CURVE('',#455,#453,#67,.T.);
#563=EDGE_CURVE('',#454,#399,#68,.T.);
#564=EDGE_CURVE('',#456,#456,#376,.T.);
#565=EDGE_CURVE('',#456,#420,#69,.T.);
#566=EDGE_CURVE('',#457,#458,#377,.T.);
#567=EDGE_CURVE('',#458,#457,#378,.T.);
#568=EDGE_CURVE('',#458,#456,#70,.T.);
#569=EDGE_CURVE('',#457,#400,#71,.T.);
#570=EDGE_CURVE('',#459,#459,#379,.T.);
#571=EDGE_CURVE('',#459,#421,#72,.T.);
#572=EDGE_CURVE('',#460,#461,#380,.T.);
#573=EDGE_CURVE('',#461,#460,#381,.T.);
#574=EDGE_CURVE('',#461,#459,#73,.T.);
#575=EDGE_CURVE('',#460,#401,#74,.T.);
#576=EDGE_CURVE('',#462,#462,#382,.T.);
#577=EDGE_CURVE('',#462,#422,#75,.T.);
#578=EDGE_CURVE('',#463,#464,#383,.T.);
#579=EDGE_CURVE('',#464,#463,#384,.T.);
#580=EDGE_CURVE('',#464,#462,#76,.T.);
#581=EDGE_CURVE('',#463,#402,#77,.T.);
#582=EDGE_CURVE('',#465,#465,#385,.T.);
#583=EDGE_CURVE('',#465,#423,#78,.T.);
#584=EDGE_CURVE('',#466,#467,#386,.T.);
#585=EDGE_CURVE('',#467,#466,#387,.T.);
#586=EDGE_CURVE('',#467,#465,#79,.T.);
#587=EDGE_CURVE('',#466,#403,#80,.T.);
#588=EDGE_CURVE('',#468,#469,#388,.T.);
#589=EDGE_CURVE('',#469,#407,#81,.T.);
#590=EDGE_CURVE('',#469,#468,#389,.T.);
#591=EDGE_CURVE('',#470,#471,#390,.T.);
#592=EDGE_CURVE('',#470,#468,#82,.T.);
#593=EDGE_CURVE('',#471,#470,#391,.T.);
#594=EDGE_CURVE('',#471,#392,#83,.T.);
#595=ORIENTED_EDGE('',*,*,#472,.T.);
#596=ORIENTED_EDGE('',*,*,#473,.T.);
#597=ORIENTED_EDGE('',*,*,#474,.T.);
#598=ORIENTED_EDGE('',*,*,#475,.T.);
#599=ORIENTED_EDGE('',*,*,#476,.T.);
#600=ORIENTED_EDGE('',*,*,#477,.T.);
#601=ORIENTED_EDGE('',*,*,#478,.T.);
#602=ORIENTED_EDGE('',*,*,#479,.T.);
#603=ORIENTED_EDGE('',*,*,#480,.T.);
#604=ORIENTED_EDGE('',*,*,#481,.T.);
#605=ORIENTED_EDGE('',*,*,#482,.T.);
#606=ORIENTED_EDGE('',*,*,#483,.T.);
#607=ORIENTED_EDGE('',*,*,#484,.F.);
#608=ORIENTED_EDGE('',*,*,#485,.T.);
#609=ORIENTED_EDGE('',*,*,#477,.F.);
#610=ORIENTED_EDGE('',*,*,#485,.F.);
#611=ORIENTED_EDGE('',*,*,#486,.F.);
#612=ORIENTED_EDGE('',*,*,#484,.T.);
#613=ORIENTED_EDGE('',*,*,#487,.F.);
#614=ORIENTED_EDGE('',*,*,#488,.T.);
#615=ORIENTED_EDGE('',*,*,#486,.T.);
#616=ORIENTED_EDGE('',*,*,#488,.F.);
#617=ORIENTED_EDGE('',*,*,#489,.T.);
#618=ORIENTED_EDGE('',*,*,#490,.F.);
#619=ORIENTED_EDGE('',*,*,#491,.T.);
#620=ORIENTED_EDGE('',*,*,#492,.F.);
#621=ORIENTED_EDGE('',*,*,#493,.T.);
#622=ORIENTED_EDGE('',*,*,#494,.F.);
#623=ORIENTED_EDGE('',*,*,#495,.T.);
#624=ORIENTED_EDGE('',*,*,#487,.T.);
#625=ORIENTED_EDGE('',*,*,#496,.F.);
#626=ORIENTED_EDGE('',*,*,#497,.F.);
#627=ORIENTED_EDGE('',*,*,#498,.F.);
#628=ORIENTED_EDGE('',*,*,#499,.F.);
#629=ORIENTED_EDGE('',*,*,#500,.F.);
#630=ORIENTED_EDGE('',*,*,#501,.F.);
#631=ORIENTED_EDGE('',*,*,#502,.F.);
#632=ORIENTED_EDGE('',*,*,#503,.F.);
#633=ORIENTED_EDGE('',*,*,#504,.F.);
#634=ORIENTED_EDGE('',*,*,#505,.F.);
#635=ORIENTED_EDGE('',*,*,#506,.F.);
#636=ORIENTED_EDGE('',*,*,#507,.T.);
#637=ORIENTED_EDGE('',*,*,#508,.F.);
#638=ORIENTED_EDGE('',*,*,#509,.T.);
#639=ORIENTED_EDGE('',*,*,#510,.F.);
#640=ORIENTED_EDGE('',*,*,#511,.T.);
#641=ORIENTED_EDGE('',*,*,#512,.F.);
#642=ORIENTED_EDGE('',*,*,#506,.T.);
#643=ORIENTED_EDGE('',*,*,#513,.T.);
#644=ORIENTED_EDGE('',*,*,#514,.F.);
#645=ORIENTED_EDGE('',*,*,#515,.F.);
#646=ORIENTED_EDGE('',*,*,#516,.F.);
#647=ORIENTED_EDGE('',*,*,#507,.F.);
#648=ORIENTED_EDGE('',*,*,#512,.T.);
#649=ORIENTED_EDGE('',*,*,#515,.T.);
#650=ORIENTED_EDGE('',*,*,#514,.T.);
#651=ORIENTED_EDGE('',*,*,#517,.T.);
#652=ORIENTED_EDGE('',*,*,#518,.T.);
#653=ORIENTED_EDGE('',*,*,#519,.T.);
#654=ORIENTED_EDGE('',*,*,#520,.T.);
#655=ORIENTED_EDGE('',*,*,#521,.T.);
#656=ORIENTED_EDGE('',*,*,#522,.T.);
#657=ORIENTED_EDGE('',*,*,#523,.T.);
#658=ORIENTED_EDGE('',*,*,#524,.T.);
#659=ORIENTED_EDGE('',*,*,#525,.T.);
#660=ORIENTED_EDGE('',*,*,#526,.T.);
#661=ORIENTED_EDGE('',*,*,#516,.T.);
#662=ORIENTED_EDGE('',*,*,#520,.F.);
#663=ORIENTED_EDGE('',*,*,#527,.F.);
#664=ORIENTED_EDGE('',*,*,#508,.T.);
#665=ORIENTED_EDGE('',*,*,#519,.F.);
#666=ORIENTED_EDGE('',*,*,#528,.F.);
#667=ORIENTED_EDGE('',*,*,#509,.F.);
#668=ORIENTED_EDGE('',*,*,#527,.T.);
#669=ORIENTED_EDGE('',*,*,#529,.F.);
#670=ORIENTED_EDGE('',*,*,#510,.T.);
#671=ORIENTED_EDGE('',*,*,#528,.T.);
#672=ORIENTED_EDGE('',*,*,#518,.F.);
#673=ORIENTED_EDGE('',*,*,#517,.F.);
#674=ORIENTED_EDGE('',*,*,#513,.F.);
#675=ORIENTED_EDGE('',*,*,#511,.F.);
#676=ORIENTED_EDGE('',*,*,#529,.T.);
#677=ORIENTED_EDGE('',*,*,#521,.F.);
#678=ORIENTED_EDGE('',*,*,#530,.F.);
#679=ORIENTED_EDGE('',*,*,#495,.F.);
#680=ORIENTED_EDGE('',*,*,#531,.T.);
#681=ORIENTED_EDGE('',*,*,#531,.F.);
#682=ORIENTED_EDGE('',*,*,#494,.T.);
#683=ORIENTED_EDGE('',*,*,#532,.T.);
#684=ORIENTED_EDGE('',*,*,#522,.F.);
#685=ORIENTED_EDGE('',*,*,#523,.F.);
#686=ORIENTED_EDGE('',*,*,#532,.F.);
#687=ORIENTED_EDGE('',*,*,#493,.F.);
#688=ORIENTED_EDGE('',*,*,#533,.T.);
#689=ORIENTED_EDGE('',*,*,#533,.F.);
#690=ORIENTED_EDGE('',*,*,#492,.T.);
#691=ORIENTED_EDGE('',*,*,#534,.T.);
#692=ORIENTED_EDGE('',*,*,#524,.F.);
#693=ORIENTED_EDGE('',*,*,#525,.F.);
#694=ORIENTED_EDGE('',*,*,#534,.F.);
#695=ORIENTED_EDGE('',*,*,#491,.F.);
#696=ORIENTED_EDGE('',*,*,#535,.T.);
#697=ORIENTED_EDGE('',*,*,#530,.T.);
#698=ORIENTED_EDGE('',*,*,#526,.F.);
#699=ORIENTED_EDGE('',*,*,#535,.F.);
#700=ORIENTED_EDGE('',*,*,#490,.T.);
#701=ORIENTED_EDGE('',*,*,#536,.F.);
#702=ORIENTED_EDGE('',*,*,#537,.T.);
#703=ORIENTED_EDGE('',*,*,#496,.T.);
#704=ORIENTED_EDGE('',*,*,#537,.F.);
#705=ORIENTED_EDGE('',*,*,#536,.T.);
#706=ORIENTED_EDGE('',*,*,#538,.T.);
#707=ORIENTED_EDGE('',*,*,#473,.F.);
#708=ORIENTED_EDGE('',*,*,#539,.T.);
#709=ORIENTED_EDGE('',*,*,#538,.F.);
#710=ORIENTED_EDGE('',*,*,#539,.F.);
#711=ORIENTED_EDGE('',*,*,#540,.F.);
#712=ORIENTED_EDGE('',*,*,#541,.T.);
#713=ORIENTED_EDGE('',*,*,#497,.T.);
#714=ORIENTED_EDGE('',*,*,#541,.F.);
#715=ORIENTED_EDGE('',*,*,#540,.T.);
#716=ORIENTED_EDGE('',*,*,#542,.T.);
#717=ORIENTED_EDGE('',*,*,#474,.F.);
#718=ORIENTED_EDGE('',*,*,#543,.T.);
#719=ORIENTED_EDGE('',*,*,#542,.F.);
#720=ORIENTED_EDGE('',*,*,#543,.F.);
#721=ORIENTED_EDGE('',*,*,#544,.F.);
#722=ORIENTED_EDGE('',*,*,#545,.T.);
#723=ORIENTED_EDGE('',*,*,#498,.T.);
#724=ORIENTED_EDGE('',*,*,#545,.F.);
#725=ORIENTED_EDGE('',*,*,#544,.T.);
#726=ORIENTED_EDGE('',*,*,#546,.T.);
#727=ORIENTED_EDGE('',*,*,#475,.F.);
#728=ORIENTED_EDGE('',*,*,#547,.T.);
#729=ORIENTED_EDGE('',*,*,#546,.F.);
#730=ORIENTED_EDGE('',*,*,#547,.F.);
#731=ORIENTED_EDGE('',*,*,#548,.F.);
#732=ORIENTED_EDGE('',*,*,#549,.T.);
#733=ORIENTED_EDGE('',*,*,#499,.T.);
#734=ORIENTED_EDGE('',*,*,#549,.F.);
#735=ORIENTED_EDGE('',*,*,#548,.T.);
#736=ORIENTED_EDGE('',*,*,#550,.T.);
#737=ORIENTED_EDGE('',*,*,#476,.F.);
#738=ORIENTED_EDGE('',*,*,#551,.T.);
#739=ORIENTED_EDGE('',*,*,#550,.F.);
#740=ORIENTED_EDGE('',*,*,#551,.F.);
#741=ORIENTED_EDGE('',*,*,#552,.F.);
#742=ORIENTED_EDGE('',*,*,#553,.T.);
#743=ORIENTED_EDGE('',*,*,#500,.T.);
#744=ORIENTED_EDGE('',*,*,#553,.F.);
#745=ORIENTED_EDGE('',*,*,#554,.F.);
#746=ORIENTED_EDGE('',*,*,#555,.F.);
#747=ORIENTED_EDGE('',*,*,#556,.T.);
#748=ORIENTED_EDGE('',*,*,#552,.T.);
#749=ORIENTED_EDGE('',*,*,#556,.F.);
#750=ORIENTED_EDGE('',*,*,#554,.T.);
#751=ORIENTED_EDGE('',*,*,#555,.T.);
#752=ORIENTED_EDGE('',*,*,#557,.T.);
#753=ORIENTED_EDGE('',*,*,#478,.F.);
#754=ORIENTED_EDGE('',*,*,#557,.F.);
#755=ORIENTED_EDGE('',*,*,#558,.F.);
#756=ORIENTED_EDGE('',*,*,#559,.T.);
#757=ORIENTED_EDGE('',*,*,#501,.T.);
#758=ORIENTED_EDGE('',*,*,#559,.F.);
#759=ORIENTED_EDGE('',*,*,#560,.F.);
#760=ORIENTED_EDGE('',*,*,#561,.F.);
#761=ORIENTED_EDGE('',*,*,#562,.T.);
#762=ORIENTED_EDGE('',*,*,#558,.T.);
#763=ORIENTED_EDGE('',*,*,#562,.F.);
#764=ORIENTED_EDGE('',*,*,#560,.T.);
#765=ORIENTED_EDGE('',*,*,#561,.T.);
#766=ORIENTED_EDGE('',*,*,#563,.T.);
#767=ORIENTED_EDGE('',*,*,#479,.F.);
#768=ORIENTED_EDGE('',*,*,#563,.F.);
#769=ORIENTED_EDGE('',*,*,#564,.F.);
#770=ORIENTED_EDGE('',*,*,#565,.T.);
#771=ORIENTED_EDGE('',*,*,#502,.T.);
#772=ORIENTED_EDGE('',*,*,#565,.F.);
#773=ORIENTED_EDGE('',*,*,#566,.F.);
#774=ORIENTED_EDGE('',*,*,#567,.F.);
#775=ORIENTED_EDGE('',*,*,#568,.T.);
#776=ORIENTED_EDGE('',*,*,#564,.T.);
#777=ORIENTED_EDGE('',*,*,#568,.F.);
#778=ORIENTED_EDGE('',*,*,#566,.T.);
#779=ORIENTED_EDGE('',*,*,#567,.T.);
#780=ORIENTED_EDGE('',*,*,#569,.T.);
#781=ORIENTED_EDGE('',*,*,#480,.F.);
#782=ORIENTED_EDGE('',*,*,#569,.F.);
#783=ORIENTED_EDGE('',*,*,#570,.F.);
#784=ORIENTED_EDGE('',*,*,#571,.T.);
#785=ORIENTED_EDGE('',*,*,#503,.T.);
#786=ORIENTED_EDGE('',*,*,#571,.F.);
#787=ORIENTED_EDGE('',*,*,#572,.F.);
#788=ORIENTED_EDGE('',*,*,#573,.F.);
#789=ORIENTED_EDGE('',*,*,#574,.T.);
#790=ORIENTED_EDGE('',*,*,#570,.T.);
#791=ORIENTED_EDGE('',*,*,#574,.F.);
#792=ORIENTED_EDGE('',*,*,#572,.T.);
#793=ORIENTED_EDGE('',*,*,#573,.T.);
#794=ORIENTED_EDGE('',*,*,#575,.T.);
#795=ORIENTED_EDGE('',*,*,#481,.F.);
#796=ORIENTED_EDGE('',*,*,#575,.F.);
#797=ORIENTED_EDGE('',*,*,#576,.F.);
#798=ORIENTED_EDGE('',*,*,#577,.T.);
#799=ORIENTED_EDGE('',*,*,#504,.T.);
#800=ORIENTED_EDGE('',*,*,#577,.F.);
#801=ORIENTED_EDGE('',*,*,#578,.F.);
#802=ORIENTED_EDGE('',*,*,#579,.F.);
#803=ORIENTED_EDGE('',*,*,#580,.T.);
#804=ORIENTED_EDGE('',*,*,#576,.T.);
#805=ORIENTED_EDGE('',*,*,#580,.F.);
#806=ORIENTED_EDGE('',*,*,#578,.T.);
#807=ORIENTED_EDGE('',*,*,#579,.T.);
#808=ORIENTED_EDGE('',*,*,#581,.T.);
#809=ORIENTED_EDGE('',*,*,#482,.F.);
#810=ORIENTED_EDGE('',*,*,#581,.F.);
#811=ORIENTED_EDGE('',*,*,#582,.F.);
#812=ORIENTED_EDGE('',*,*,#583,.T.);
#813=ORIENTED_EDGE('',*,*,#505,.T.);
#814=ORIENTED_EDGE('',*,*,#583,.F.);
#815=ORIENTED_EDGE('',*,*,#584,.F.);
#816=ORIENTED_EDGE('',*,*,#585,.F.);
#817=ORIENTED_EDGE('',*,*,#586,.T.);
#818=ORIENTED_EDGE('',*,*,#582,.T.);
#819=ORIENTED_EDGE('',*,*,#586,.F.);
#820=ORIENTED_EDGE('',*,*,#584,.T.);
#821=ORIENTED_EDGE('',*,*,#585,.T.);
#822=ORIENTED_EDGE('',*,*,#587,.T.);
#823=ORIENTED_EDGE('',*,*,#483,.F.);
#824=ORIENTED_EDGE('',*,*,#587,.F.);
#825=ORIENTED_EDGE('',*,*,#588,.T.);
#826=ORIENTED_EDGE('',*,*,#589,.T.);
#827=ORIENTED_EDGE('',*,*,#489,.F.);
#828=ORIENTED_EDGE('',*,*,#589,.F.);
#829=ORIENTED_EDGE('',*,*,#590,.T.);
#830=ORIENTED_EDGE('',*,*,#591,.F.);
#831=ORIENTED_EDGE('',*,*,#592,.T.);
#832=ORIENTED_EDGE('',*,*,#590,.F.);
#833=ORIENTED_EDGE('',*,*,#588,.F.);
#834=ORIENTED_EDGE('',*,*,#592,.F.);
#835=ORIENTED_EDGE('',*,*,#593,.F.);
#836=ORIENTED_EDGE('',*,*,#591,.T.);
#837=ORIENTED_EDGE('',*,*,#594,.T.);
#838=ORIENTED_EDGE('',*,*,#472,.F.);
#839=ORIENTED_EDGE('',*,*,#594,.F.);
#840=ORIENTED_EDGE('',*,*,#593,.T.);
#841=PLANE('',#922);
#842=PLANE('',#937);
#843=PLANE('',#941);
#844=PLANE('',#959);
#845=PLANE('',#962);
#846=PLANE('',#965);
#847=PLANE('',#969);
#848=PLANE('',#971);
#849=PLANE('',#974);
#850=PLANE('',#976);
#851=PLANE('',#978);
#852=PLANE('',#981);
#853=PLANE('',#986);
#854=PLANE('',#991);
#855=PLANE('',#996);
#856=ADVANCED_FACE('',(#191,#162,#163,#164,#165,#166,#167,#168,#169,#170,
#171,#172),#841,.T.);
#857=ADVANCED_FACE('',(#192),#139,.F.);
#858=ADVANCED_FACE('',(#193,#173),#842,.F.);
#859=ADVANCED_FACE('',(#194),#140,.F.);
#860=ADVANCED_FACE('',(#195,#174,#175,#176,#177,#178,#179,#180,#181,#182,
#183,#184,#185,#186),#843,.F.);
#861=ADVANCED_FACE('',(#196),#844,.F.);
#862=ADVANCED_FACE('',(#197),#141,.F.);
#863=ADVANCED_FACE('',(#198),#845,.T.);
#864=ADVANCED_FACE('',(#199),#846,.T.);
#865=ADVANCED_FACE('',(#200),#847,.F.);
#866=ADVANCED_FACE('',(#201),#142,.F.);
#867=ADVANCED_FACE('',(#202),#848,.F.);
#868=ADVANCED_FACE('',(#203),#143,.F.);
#869=ADVANCED_FACE('',(#204),#144,.F.);
#870=ADVANCED_FACE('',(#205),#849,.F.);
#871=ADVANCED_FACE('',(#206),#145,.F.);
#872=ADVANCED_FACE('',(#207),#850,.F.);
#873=ADVANCED_FACE('',(#208),#146,.F.);
#874=ADVANCED_FACE('',(#209),#851,.F.);
#875=ADVANCED_FACE('',(#210),#147,.F.);
#876=ADVANCED_FACE('',(#211,#187),#852,.T.);
#877=ADVANCED_FACE('',(#212),#148,.F.);
#878=ADVANCED_FACE('',(#213),#149,.F.);
#879=ADVANCED_FACE('',(#214,#188),#853,.T.);
#880=ADVANCED_FACE('',(#215),#150,.F.);
#881=ADVANCED_FACE('',(#216),#151,.F.);
#882=ADVANCED_FACE('',(#217,#189),#854,.T.);
#883=ADVANCED_FACE('',(#218),#152,.F.);
#884=ADVANCED_FACE('',(#219),#153,.F.);
#885=ADVANCED_FACE('',(#220,#190),#855,.T.);
#886=ADVANCED_FACE('',(#221),#154,.F.);
#887=ADVANCED_FACE('',(#222),#15,.F.);
#888=ADVANCED_FACE('',(#223),#155,.F.);
#889=ADVANCED_FACE('',(#224),#16,.F.);
#890=ADVANCED_FACE('',(#225),#17,.F.);
#891=ADVANCED_FACE('',(#226),#156,.F.);
#892=ADVANCED_FACE('',(#227),#18,.F.);
#893=ADVANCED_FACE('',(#228),#19,.F.);
#894=ADVANCED_FACE('',(#229),#157,.F.);
#895=ADVANCED_FACE('',(#230),#20,.F.);
#896=ADVANCED_FACE('',(#231),#21,.F.);
#897=ADVANCED_FACE('',(#232),#158,.F.);
#898=ADVANCED_FACE('',(#233),#22,.F.);
#899=ADVANCED_FACE('',(#234),#23,.F.);
#900=ADVANCED_FACE('',(#235),#159,.F.);
#901=ADVANCED_FACE('',(#236),#24,.F.);
#902=ADVANCED_FACE('',(#237),#25,.F.);
#903=ADVANCED_FACE('',(#238),#160,.F.);
#904=ADVANCED_FACE('',(#239),#26,.F.);
#905=ADVANCED_FACE('',(#240),#27,.T.);
#906=ADVANCED_FACE('',(#241),#161,.T.);
#907=ADVANCED_FACE('',(#242),#28,.T.);
#908=CLOSED_SHELL('',(#856,#857,#858,#859,#860,#861,#862,#863,#864,#865,
#866,#867,#868,#869,#870,#871,#872,#873,#874,#875,#876,#877,#878,#879,#880,
#881,#882,#883,#884,#885,#886,#887,#888,#889,#890,#891,#892,#893,#894,#895,
#896,#897,#898,#899,#900,#901,#902,#903,#904,#905,#906,#907));
#909=DERIVED_UNIT_ELEMENT(#911,1.);
#910=DERIVED_UNIT_ELEMENT(#1600,-3.);
#911=(
MASS_UNIT()
NAMED_UNIT(*)
SI_UNIT(.KILO.,.GRAM.)
);
#912=DERIVED_UNIT((#909,#910));
#913=MEASURE_REPRESENTATION_ITEM('density measure',
POSITIVE_RATIO_MEASURE(7850.),#912);
#914=PROPERTY_DEFINITION_REPRESENTATION(#919,#916);
#915=PROPERTY_DEFINITION_REPRESENTATION(#920,#917);
#916=REPRESENTATION('material name',(#918),#1597);
#917=REPRESENTATION('density',(#913),#1597);
#918=DESCRIPTIVE_REPRESENTATION_ITEM('\X2\94A2\X0\','\X2\94A2\X0\');
#919=PROPERTY_DEFINITION('material property','material name',#1607);
#920=PROPERTY_DEFINITION('material property','density of part',#1607);
#921=AXIS2_PLACEMENT_3D('',#1339,#1042,#1043);
#922=AXIS2_PLACEMENT_3D('',#1340,#1044,#1045);
#923=AXIS2_PLACEMENT_3D('',#1342,#1046,#1047);
#924=AXIS2_PLACEMENT_3D('',#1344,#1048,#1049);
#925=AXIS2_PLACEMENT_3D('',#1346,#1050,#1051);
#926=AXIS2_PLACEMENT_3D('',#1348,#1052,#1053);
#927=AXIS2_PLACEMENT_3D('',#1350,#1054,#1055);
#928=AXIS2_PLACEMENT_3D('',#1352,#1056,#1057);
#929=AXIS2_PLACEMENT_3D('',#1354,#1058,#1059);
#930=AXIS2_PLACEMENT_3D('',#1356,#1060,#1061);
#931=AXIS2_PLACEMENT_3D('',#1358,#1062,#1063);
#932=AXIS2_PLACEMENT_3D('',#1360,#1064,#1065);
#933=AXIS2_PLACEMENT_3D('',#1362,#1066,#1067);
#934=AXIS2_PLACEMENT_3D('',#1364,#1068,#1069);
#935=AXIS2_PLACEMENT_3D('',#1365,#1070,#1071);
#936=AXIS2_PLACEMENT_3D('',#1367,#1072,#1073);
#937=AXIS2_PLACEMENT_3D('',#1369,#1075,#1076);
#938=AXIS2_PLACEMENT_3D('',#1371,#1077,#1078);
#939=AXIS2_PLACEMENT_3D('',#1372,#1079,#1080);
#940=AXIS2_PLACEMENT_3D('',#1374,#1081,#1082);
#941=AXIS2_PLACEMENT_3D('',#1376,#1084,#1085);
#942=AXIS2_PLACEMENT_3D('',#1378,#1086,#1087);
#943=AXIS2_PLACEMENT_3D('',#1383,#1089,#1090);
#944=AXIS2_PLACEMENT_3D('',#1387,#1092,#1093);
#945=AXIS2_PLACEMENT_3D('',#1390,#1095,#1096);
#946=AXIS2_PLACEMENT_3D('',#1392,#1097,#1098);
#947=AXIS2_PLACEMENT_3D('',#1394,#1099,#1100);
#948=AXIS2_PLACEMENT_3D('',#1396,#1101,#1102);
#949=AXIS2_PLACEMENT_3D('',#1398,#1103,#1104);
#950=AXIS2_PLACEMENT_3D('',#1400,#1105,#1106);
#951=AXIS2_PLACEMENT_3D('',#1402,#1107,#1108);
#952=AXIS2_PLACEMENT_3D('',#1404,#1109,#1110);
#953=AXIS2_PLACEMENT_3D('',#1406,#1111,#1112);
#954=AXIS2_PLACEMENT_3D('',#1408,#1113,#1114);
#955=AXIS2_PLACEMENT_3D('',#1410,#1115,#1116);
#956=AXIS2_PLACEMENT_3D('',#1415,#1118,#1119);
#957=AXIS2_PLACEMENT_3D('',#1419,#1121,#1122);
#958=AXIS2_PLACEMENT_3D('',#1422,#1124,#1125);
#959=AXIS2_PLACEMENT_3D('',#1423,#1126,#1127);
#960=AXIS2_PLACEMENT_3D('',#1429,#1131,#1132);
#961=AXIS2_PLACEMENT_3D('',#1431,#1133,#1134);
#962=AXIS2_PLACEMENT_3D('',#1433,#1136,#1137);
#963=AXIS2_PLACEMENT_3D('',#1435,#1138,#1139);
#964=AXIS2_PLACEMENT_3D('',#1439,#1141,#1142);
#965=AXIS2_PLACEMENT_3D('',#1441,#1144,#1145);
#966=AXIS2_PLACEMENT_3D('',#1444,#1146,#1147);
#967=AXIS2_PLACEMENT_3D('',#1448,#1149,#1150);
#968=AXIS2_PLACEMENT_3D('',#1452,#1152,#1153);
#969=AXIS2_PLACEMENT_3D('',#1454,#1155,#1156);
#970=AXIS2_PLACEMENT_3D('',#1456,#1158,#1159);
#971=AXIS2_PLACEMENT_3D('',#1458,#1161,#1162);
#972=AXIS2_PLACEMENT_3D('',#1460,#1164,#1165);
#973=AXIS2_PLACEMENT_3D('',#1461,#1166,#1167);
#974=AXIS2_PLACEMENT_3D('',#1464,#1170,#1171);
#975=AXIS2_PLACEMENT_3D('',#1466,#1173,#1174);
#976=AXIS2_PLACEMENT_3D('',#1468,#1176,#1177);
#977=AXIS2_PLACEMENT_3D('',#1470,#1179,#1180);
#978=AXIS2_PLACEMENT_3D('',#1472,#1182,#1183);
#979=AXIS2_PLACEMENT_3D('',#1473,#1184,#1185);
#980=AXIS2_PLACEMENT_3D('',#1475,#1186,#1187);
#981=AXIS2_PLACEMENT_3D('',#1477,#1189,#1190);
#982=AXIS2_PLACEMENT_3D('',#1479,#1191,#1192);
#983=AXIS2_PLACEMENT_3D('',#1480,#1193,#1194);
#984=AXIS2_PLACEMENT_3D('',#1482,#1196,#1197);
#985=AXIS2_PLACEMENT_3D('',#1484,#1198,#1199);
#986=AXIS2_PLACEMENT_3D('',#1486,#1201,#1202);
#987=AXIS2_PLACEMENT_3D('',#1488,#1203,#1204);
#988=AXIS2_PLACEMENT_3D('',#1489,#1205,#1206);
#989=AXIS2_PLACEMENT_3D('',#1491,#1208,#1209);
#990=AXIS2_PLACEMENT_3D('',#1493,#1210,#1211);
#991=AXIS2_PLACEMENT_3D('',#1495,#1213,#1214);
#992=AXIS2_PLACEMENT_3D('',#1497,#1215,#1216);
#993=AXIS2_PLACEMENT_3D('',#1498,#1217,#1218);
#994=AXIS2_PLACEMENT_3D('',#1500,#1220,#1221);
#995=AXIS2_PLACEMENT_3D('',#1502,#1222,#1223);
#996=AXIS2_PLACEMENT_3D('',#1504,#1225,#1226);
#997=AXIS2_PLACEMENT_3D('',#1506,#1227,#1228);
#998=AXIS2_PLACEMENT_3D('',#1507,#1229,#1230);
#999=AXIS2_PLACEMENT_3D('',#1509,#1232,#1233);
#1000=AXIS2_PLACEMENT_3D('',#1511,#1234,#1235);
#1001=AXIS2_PLACEMENT_3D('',#1513,#1237,#1238);
#1002=AXIS2_PLACEMENT_3D('',#1516,#1239,#1240);
#1003=AXIS2_PLACEMENT_3D('',#1517,#1241,#1242);
#1004=AXIS2_PLACEMENT_3D('',#1519,#1244,#1245);
#1005=AXIS2_PLACEMENT_3D('',#1521,#1247,#1248);
#1006=AXIS2_PLACEMENT_3D('',#1523,#1249,#1250);
#1007=AXIS2_PLACEMENT_3D('',#1525,#1252,#1253);
#1008=AXIS2_PLACEMENT_3D('',#1528,#1254,#1255);
#1009=AXIS2_PLACEMENT_3D('',#1529,#1256,#1257);
#1010=AXIS2_PLACEMENT_3D('',#1531,#1259,#1260);
#1011=AXIS2_PLACEMENT_3D('',#1533,#1262,#1263);
#1012=AXIS2_PLACEMENT_3D('',#1535,#1264,#1265);
#1013=AXIS2_PLACEMENT_3D('',#1537,#1267,#1268);
#1014=AXIS2_PLACEMENT_3D('',#1540,#1269,#1270);
#1015=AXIS2_PLACEMENT_3D('',#1541,#1271,#1272);
#1016=AXIS2_PLACEMENT_3D('',#1543,#1274,#1275);
#1017=AXIS2_PLACEMENT_3D('',#1545,#1277,#1278);
#1018=AXIS2_PLACEMENT_3D('',#1547,#1279,#1280);
#1019=AXIS2_PLACEMENT_3D('',#1549,#1282,#1283);
#1020=AXIS2_PLACEMENT_3D('',#1552,#1284,#1285);
#1021=AXIS2_PLACEMENT_3D('',#1553,#1286,#1287);
#1022=AXIS2_PLACEMENT_3D('',#1555,#1289,#1290);
#1023=AXIS2_PLACEMENT_3D('',#1557,#1292,#1293);
#1024=AXIS2_PLACEMENT_3D('',#1559,#1294,#1295);
#1025=AXIS2_PLACEMENT_3D('',#1561,#1297,#1298);
#1026=AXIS2_PLACEMENT_3D('',#1564,#1299,#1300);
#1027=AXIS2_PLACEMENT_3D('',#1565,#1301,#1302);
#1028=AXIS2_PLACEMENT_3D('',#1567,#1304,#1305);
#1029=AXIS2_PLACEMENT_3D('',#1569,#1307,#1308);
#1030=AXIS2_PLACEMENT_3D('',#1571,#1309,#1310);
#1031=AXIS2_PLACEMENT_3D('',#1573,#1312,#1313);
#1032=AXIS2_PLACEMENT_3D('',#1576,#1314,#1315);
#1033=AXIS2_PLACEMENT_3D('',#1577,#1316,#1317);
#1034=AXIS2_PLACEMENT_3D('',#1579,#1319,#1320);
#1035=AXIS2_PLACEMENT_3D('',#1581,#1322,#1323);
#1036=AXIS2_PLACEMENT_3D('',#1584,#1324,#1325);
#1037=AXIS2_PLACEMENT_3D('',#1586,#1327,#1328);
#1038=AXIS2_PLACEMENT_3D('',#1587,#1329,#1330);
#1039=AXIS2_PLACEMENT_3D('',#1590,#1331,#1332);
#1040=AXIS2_PLACEMENT_3D('',#1592,#1334,#1335);
#1041=AXIS2_PLACEMENT_3D('',#1593,#1336,#1337);
#1042=DIRECTION('axis',(0.,0.,1.));
#1043=DIRECTION('refdir',(1.,0.,0.));
#1044=DIRECTION('center_axis',(0.,0.,1.));
#1045=DIRECTION('ref_axis',(1.,0.,0.));
#1046=DIRECTION('center_axis',(0.,0.,1.));
#1047=DIRECTION('ref_axis',(1.,0.,0.));
#1048=DIRECTION('center_axis',(0.,0.,-1.));
#1049=DIRECTION('ref_axis',(1.,0.,0.));
#1050=DIRECTION('center_axis',(0.,0.,-1.));
#1051=DIRECTION('ref_axis',(1.,0.,0.));
#1052=DIRECTION('center_axis',(0.,0.,-1.));
#1053=DIRECTION('ref_axis',(1.,0.,0.));
#1054=DIRECTION('center_axis',(0.,0.,-1.));
#1055=DIRECTION('ref_axis',(1.,0.,0.));
#1056=DIRECTION('center_axis',(0.,0.,-1.));
#1057=DIRECTION('ref_axis',(1.,0.,0.));
#1058=DIRECTION('center_axis',(0.,0.,-1.));
#1059=DIRECTION('ref_axis',(-1.,0.,0.));
#1060=DIRECTION('center_axis',(0.,0.,-1.));
#1061=DIRECTION('ref_axis',(-1.,0.,0.));
#1062=DIRECTION('center_axis',(0.,0.,-1.));
#1063=DIRECTION('ref_axis',(-1.,0.,0.));
#1064=DIRECTION('center_axis',(0.,0.,-1.));
#1065=DIRECTION('ref_axis',(-1.,0.,0.));
#1066=DIRECTION('center_axis',(0.,0.,-1.));
#1067=DIRECTION('ref_axis',(-1.,0.,0.));
#1068=DIRECTION('center_axis',(0.,0.,-1.));
#1069=DIRECTION('ref_axis',(-1.,0.,0.));
#1070=DIRECTION('center_axis',(0.,0.,1.));
#1071=DIRECTION('ref_axis',(1.,0.,0.));
#1072=DIRECTION('center_axis',(0.,0.,1.));
#1073=DIRECTION('ref_axis',(-1.,0.,0.));
#1074=DIRECTION('',(0.,0.,1.));
#1075=DIRECTION('center_axis',(0.,0.,1.));
#1076=DIRECTION('ref_axis',(1.,0.,0.));
#1077=DIRECTION('center_axis',(0.,0.,1.));
#1078=DIRECTION('ref_axis',(1.,0.,0.));
#1079=DIRECTION('center_axis',(0.,0.,1.));
#1080=DIRECTION('ref_axis',(1.,0.,0.));
#1081=DIRECTION('center_axis',(0.,0.,1.));
#1082=DIRECTION('ref_axis',(1.,0.,0.));
#1083=DIRECTION('',(0.,0.,1.));
#1084=DIRECTION('center_axis',(0.,0.,1.));
#1085=DIRECTION('ref_axis',(1.,0.,0.));
#1086=DIRECTION('center_axis',(0.,0.,-1.));
#1087=DIRECTION('ref_axis',(1.,-1.56939933008E-9,0.));
#1088=DIRECTION('',(0.866025403784429,0.500000000000017,0.));
#1089=DIRECTION('center_axis',(0.,0.,1.));
#1090=DIRECTION('ref_axis',(-0.500000000000017,0.866025403784429,0.));
#1091=DIRECTION('',(-0.866025403784429,0.500000000000017,0.));
#1092=DIRECTION('center_axis',(0.,0.,1.));
#1093=DIRECTION('ref_axis',(-0.500000000000017,-0.866025403784429,0.));
#1094=DIRECTION('',(0.,-1.,0.));
#1095=DIRECTION('center_axis',(0.,0.,1.));
#1096=DIRECTION('ref_axis',(1.,0.,0.));
#1097=DIRECTION('center_axis',(0.,0.,-1.));
#1098=DIRECTION('ref_axis',(1.,0.,0.));
#1099=DIRECTION('center_axis',(0.,0.,-1.));
#1100=DIRECTION('ref_axis',(1.,0.,0.));
#1101=DIRECTION('center_axis',(0.,0.,-1.));
#1102=DIRECTION('ref_axis',(1.,0.,0.));
#1103=DIRECTION('center_axis',(0.,0.,-1.));
#1104=DIRECTION('ref_axis',(1.,0.,0.));
#1105=DIRECTION('center_axis',(0.,0.,-1.));
#1106=DIRECTION('ref_axis',(1.,0.,0.));
#1107=DIRECTION('center_axis',(0.,0.,-1.));
#1108=DIRECTION('ref_axis',(1.,0.,0.));
#1109=DIRECTION('center_axis',(0.,0.,-1.));
#1110=DIRECTION('ref_axis',(1.,0.,0.));
#1111=DIRECTION('center_axis',(0.,0.,-1.));
#1112=DIRECTION('ref_axis',(1.,0.,0.));
#1113=DIRECTION('center_axis',(0.,0.,-1.));
#1114=DIRECTION('ref_axis',(1.,0.,0.));
#1115=DIRECTION('center_axis',(0.,0.,-1.));
#1116=DIRECTION('ref_axis',(1.,0.,0.));
#1117=DIRECTION('',(0.866025403784429,-0.500000000000017,0.));
#1118=DIRECTION('center_axis',(0.,0.,1.));
#1119=DIRECTION('ref_axis',(0.500000000000017,0.866025403784429,0.));
#1120=DIRECTION('',(0.,1.,0.));
#1121=DIRECTION('center_axis',(0.,0.,1.));
#1122=DIRECTION('ref_axis',(-1.,0.,0.));
#1123=DIRECTION('',(-0.866025403784429,-0.500000000000017,0.));
#1124=DIRECTION('center_axis',(0.,0.,1.));
#1125=DIRECTION('ref_axis',(0.500000000000017,-0.866025403784429,0.));
#1126=DIRECTION('center_axis',(0.500000000000017,0.866025403784429,0.));
#1127=DIRECTION('ref_axis',(0.866025403784429,-0.500000000000017,0.));
#1128=DIRECTION('',(0.,0.,1.));
#1129=DIRECTION('',(0.,0.,1.));
#1130=DIRECTION('',(0.866025403784429,-0.500000000000017,0.));
#1131=DIRECTION('center_axis',(0.,0.,1.));
#1132=DIRECTION('ref_axis',(0.500000000000017,0.866025403784429,0.));
#1133=DIRECTION('center_axis',(0.,0.,-1.));
#1134=DIRECTION('ref_axis',(-1.,0.,0.));
#1135=DIRECTION('',(0.,0.,1.));
#1136=DIRECTION('center_axis',(0.,0.,-1.));
#1137=DIRECTION('ref_axis',(-1.,0.,0.));
#1138=DIRECTION('center_axis',(0.,0.,-1.));
#1139=DIRECTION('ref_axis',(0.500000000000017,0.866025403784429,0.));
#1140=DIRECTION('',(-0.866025403784429,-0.500000000000017,0.));
#1141=DIRECTION('center_axis',(0.,0.,-1.));
#1142=DIRECTION('ref_axis',(0.500000000000017,-0.866025403784429,0.));
#1143=DIRECTION('',(0.,1.,0.));
#1144=DIRECTION('center_axis',(0.,0.,-1.));
#1145=DIRECTION('ref_axis',(-1.,0.,0.));
#1146=DIRECTION('center_axis',(0.,0.,-1.));
#1147=DIRECTION('ref_axis',(-0.500000000000017,0.866025403784429,0.));
#1148=DIRECTION('',(0.,-1.,0.));
#1149=DIRECTION('center_axis',(0.,0.,-1.));
#1150=DIRECTION('ref_axis',(1.,0.,0.));
#1151=DIRECTION('',(-0.866025403784429,0.500000000000017,0.));
#1152=DIRECTION('center_axis',(0.,0.,-1.));
#1153=DIRECTION('ref_axis',(-0.500000000000017,-0.866025403784429,0.));
#1154=DIRECTION('',(0.866025403784429,0.500000000000017,0.));
#1155=DIRECTION('center_axis',(-1.,0.,0.));
#1156=DIRECTION('ref_axis',(0.,1.,0.));
#1157=DIRECTION('',(0.,0.,1.));
#1158=DIRECTION('center_axis',(0.,0.,1.));
#1159=DIRECTION('ref_axis',(-1.,0.,0.));
#1160=DIRECTION('',(0.,0.,1.));
#1161=DIRECTION('center_axis',(0.500000000000017,-0.866025403784429,0.));
#1162=DIRECTION('ref_axis',(-0.866025403784429,-0.500000000000017,0.));
#1163=DIRECTION('',(1.184237892933E-14,0.,1.));
#1164=DIRECTION('center_axis',(0.,0.,1.));
#1165=DIRECTION('ref_axis',(0.500000000000017,-0.866025403784429,0.));
#1166=DIRECTION('center_axis',(0.,0.,1.));
#1167=DIRECTION('ref_axis',(1.,0.,0.));
#1168=DIRECTION('',(0.,0.,1.));
#1169=DIRECTION('',(0.,0.,1.));
#1170=DIRECTION('center_axis',(1.,0.,0.));
#1171=DIRECTION('ref_axis',(0.,-1.,0.));
#1172=DIRECTION('',(0.,0.,1.));
#1173=DIRECTION('center_axis',(0.,0.,1.));
#1174=DIRECTION('ref_axis',(-0.500000000000017,-0.866025403784429,0.));
#1175=DIRECTION('',(0.,0.,1.));
#1176=DIRECTION('center_axis',(-0.500000000000017,-0.866025403784429,0.));
#1177=DIRECTION('ref_axis',(-0.866025403784429,0.500000000000017,0.));
#1178=DIRECTION('',(0.,0.,1.));
#1179=DIRECTION('center_axis',(0.,0.,1.));
#1180=DIRECTION('ref_axis',(-0.500000000000017,0.866025403784429,0.));
#1181=DIRECTION('',(0.,0.,1.));
#1182=DIRECTION('center_axis',(-0.500000000000017,0.866025403784429,0.));
#1183=DIRECTION('ref_axis',(0.866025403784429,0.500000000000017,0.));
#1184=DIRECTION('center_axis',(0.,0.,-1.));
#1185=DIRECTION('ref_axis',(1.,0.,0.));
#1186=DIRECTION('center_axis',(0.,0.,-1.));
#1187=DIRECTION('ref_axis',(1.,0.,0.));
#1188=DIRECTION('',(0.,0.,-1.));
#1189=DIRECTION('center_axis',(0.,0.,-1.));
#1190=DIRECTION('ref_axis',(1.,0.,0.));
#1191=DIRECTION('center_axis',(0.,0.,1.));
#1192=DIRECTION('ref_axis',(1.,0.,0.));
#1193=DIRECTION('center_axis',(0.,0.,-1.));
#1194=DIRECTION('ref_axis',(1.,0.,0.));
#1195=DIRECTION('',(0.,0.,-1.));
#1196=DIRECTION('center_axis',(0.,0.,-1.));
#1197=DIRECTION('ref_axis',(1.,0.,0.));
#1198=DIRECTION('center_axis',(0.,0.,-1.));
#1199=DIRECTION('ref_axis',(1.,0.,0.));
#1200=DIRECTION('',(0.,0.,-1.));
#1201=DIRECTION('center_axis',(0.,0.,-1.));
#1202=DIRECTION('ref_axis',(1.,0.,0.));
#1203=DIRECTION('center_axis',(0.,0.,1.));
#1204=DIRECTION('ref_axis',(1.,0.,0.));
#1205=DIRECTION('center_axis',(0.,0.,-1.));
#1206=DIRECTION('ref_axis',(1.,0.,0.));
#1207=DIRECTION('',(0.,0.,-1.));
#1208=DIRECTION('center_axis',(0.,0.,-1.));
#1209=DIRECTION('ref_axis',(1.,0.,0.));
#1210=DIRECTION('center_axis',(0.,0.,-1.));
#1211=DIRECTION('ref_axis',(1.,0.,0.));
#1212=DIRECTION('',(0.,0.,-1.));
#1213=DIRECTION('center_axis',(0.,0.,-1.));
#1214=DIRECTION('ref_axis',(1.,0.,0.));
#1215=DIRECTION('center_axis',(0.,0.,1.));
#1216=DIRECTION('ref_axis',(1.,0.,0.));
#1217=DIRECTION('center_axis',(0.,0.,-1.));
#1218=DIRECTION('ref_axis',(1.,0.,0.));
#1219=DIRECTION('',(0.,0.,-1.));
#1220=DIRECTION('center_axis',(0.,0.,-1.));
#1221=DIRECTION('ref_axis',(1.,0.,0.));
#1222=DIRECTION('center_axis',(0.,0.,-1.));
#1223=DIRECTION('ref_axis',(1.,0.,0.));
#1224=DIRECTION('',(0.,0.,-1.));
#1225=DIRECTION('center_axis',(0.,0.,-1.));
#1226=DIRECTION('ref_axis',(1.,0.,0.));
#1227=DIRECTION('center_axis',(0.,0.,1.));
#1228=DIRECTION('ref_axis',(1.,0.,0.));
#1229=DIRECTION('center_axis',(0.,0.,-1.));
#1230=DIRECTION('ref_axis',(1.,0.,0.));
#1231=DIRECTION('',(0.,0.,-1.));
#1232=DIRECTION('center_axis',(0.,0.,-1.));
#1233=DIRECTION('ref_axis',(1.,0.,0.));
#1234=DIRECTION('center_axis',(0.,0.,-1.));
#1235=DIRECTION('ref_axis',(1.,0.,0.));
#1236=DIRECTION('',(-0.707106781186548,8.65956056235493E-17,-0.707106781186548));
#1237=DIRECTION('center_axis',(0.,0.,-1.));
#1238=DIRECTION('ref_axis',(1.,0.,0.));
#1239=DIRECTION('center_axis',(0.,0.,-1.));
#1240=DIRECTION('ref_axis',(-1.,0.,0.));
#1241=DIRECTION('center_axis',(0.,0.,-1.));
#1242=DIRECTION('ref_axis',(-1.,0.,0.));
#1243=DIRECTION('',(0.,0.,-1.));
#1244=DIRECTION('center_axis',(0.,0.,1.));
#1245=DIRECTION('ref_axis',(0.,-1.,0.));
#1246=DIRECTION('',(-8.65956056235493E-17,0.707106781186547,0.707106781186547));
#1247=DIRECTION('center_axis',(0.,0.,-1.));
#1248=DIRECTION('ref_axis',(1.,0.,0.));
#1249=DIRECTION('center_axis',(0.,0.,-1.));
#1250=DIRECTION('ref_axis',(1.,0.,0.));
#1251=DIRECTION('',(-0.707106781186548,8.65956056235493E-17,-0.707106781186548));
#1252=DIRECTION('center_axis',(0.,0.,-1.));
#1253=DIRECTION('ref_axis',(1.,0.,0.));
#1254=DIRECTION('center_axis',(0.,0.,-1.));
#1255=DIRECTION('ref_axis',(-1.,0.,0.));
#1256=DIRECTION('center_axis',(0.,0.,-1.));
#1257=DIRECTION('ref_axis',(-1.,0.,0.));
#1258=DIRECTION('',(0.,0.,-1.));
#1259=DIRECTION('center_axis',(0.,0.,1.));
#1260=DIRECTION('ref_axis',(0.,-1.,0.));
#1261=DIRECTION('',(-8.65956056235493E-17,0.707106781186547,0.707106781186547));
#1262=DIRECTION('center_axis',(0.,0.,-1.));
#1263=DIRECTION('ref_axis',(1.,0.,0.));
#1264=DIRECTION('center_axis',(0.,0.,-1.));
#1265=DIRECTION('ref_axis',(1.,0.,0.));
#1266=DIRECTION('',(-0.707106781186548,8.65956056235493E-17,-0.707106781186548));
#1267=DIRECTION('center_axis',(0.,0.,-1.));
#1268=DIRECTION('ref_axis',(1.,0.,0.));
#1269=DIRECTION('center_axis',(0.,0.,-1.));
#1270=DIRECTION('ref_axis',(-1.,0.,0.));
#1271=DIRECTION('center_axis',(0.,0.,-1.));
#1272=DIRECTION('ref_axis',(-1.,0.,0.));
#1273=DIRECTION('',(0.,0.,-1.));
#1274=DIRECTION('center_axis',(0.,0.,1.));
#1275=DIRECTION('ref_axis',(0.,-1.,0.));
#1276=DIRECTION('',(-8.65956056235493E-17,0.707106781186547,0.707106781186547));
#1277=DIRECTION('center_axis',(0.,0.,-1.));
#1278=DIRECTION('ref_axis',(1.,0.,0.));
#1279=DIRECTION('center_axis',(0.,0.,-1.));
#1280=DIRECTION('ref_axis',(1.,0.,0.));
#1281=DIRECTION('',(-0.707106781186548,8.65956056235493E-17,-0.707106781186548));
#1282=DIRECTION('center_axis',(0.,0.,-1.));
#1283=DIRECTION('ref_axis',(1.,0.,0.));
#1284=DIRECTION('center_axis',(0.,0.,-1.));
#1285=DIRECTION('ref_axis',(-1.,0.,0.));
#1286=DIRECTION('center_axis',(0.,0.,-1.));
#1287=DIRECTION('ref_axis',(-1.,0.,0.));
#1288=DIRECTION('',(0.,0.,-1.));
#1289=DIRECTION('center_axis',(0.,0.,1.));
#1290=DIRECTION('ref_axis',(0.,-1.,0.));
#1291=DIRECTION('',(-8.65956056235493E-17,0.707106781186547,0.707106781186547));
#1292=DIRECTION('center_axis',(0.,0.,-1.));
#1293=DIRECTION('ref_axis',(1.,0.,0.));
#1294=DIRECTION('center_axis',(0.,0.,-1.));
#1295=DIRECTION('ref_axis',(1.,0.,0.));
#1296=DIRECTION('',(-0.707106781186548,8.65956056235493E-17,-0.707106781186548));
#1297=DIRECTION('center_axis',(0.,0.,-1.));
#1298=DIRECTION('ref_axis',(1.,0.,0.));
#1299=DIRECTION('center_axis',(0.,0.,-1.));
#1300=DIRECTION('ref_axis',(-1.,0.,0.));
#1301=DIRECTION('center_axis',(0.,0.,-1.));
#1302=DIRECTION('ref_axis',(-1.,0.,0.));
#1303=DIRECTION('',(0.,0.,-1.));
#1304=DIRECTION('center_axis',(0.,0.,1.));
#1305=DIRECTION('ref_axis',(0.,-1.,0.));
#1306=DIRECTION('',(-8.65956056235493E-17,0.707106781186547,0.707106781186547));
#1307=DIRECTION('center_axis',(0.,0.,-1.));
#1308=DIRECTION('ref_axis',(1.,0.,0.));
#1309=DIRECTION('center_axis',(0.,0.,-1.));
#1310=DIRECTION('ref_axis',(1.,0.,0.));
#1311=DIRECTION('',(-0.707106781186548,8.65956056235493E-17,-0.707106781186548));
#1312=DIRECTION('center_axis',(0.,0.,-1.));
#1313=DIRECTION('ref_axis',(1.,0.,0.));
#1314=DIRECTION('center_axis',(0.,0.,-1.));
#1315=DIRECTION('ref_axis',(-1.,0.,0.));
#1316=DIRECTION('center_axis',(0.,0.,-1.));
#1317=DIRECTION('ref_axis',(-1.,0.,0.));
#1318=DIRECTION('',(0.,0.,-1.));
#1319=DIRECTION('center_axis',(0.,0.,1.));
#1320=DIRECTION('ref_axis',(0.,-1.,0.));
#1321=DIRECTION('',(-8.65956056235493E-17,0.707106781186547,0.707106781186547));
#1322=DIRECTION('center_axis',(0.,0.,1.));
#1323=DIRECTION('ref_axis',(0.,-1.,0.));
#1324=DIRECTION('center_axis',(0.,0.,-1.));
#1325=DIRECTION('ref_axis',(1.,0.,0.));
#1326=DIRECTION('',(8.65956056235493E-17,-0.707106781186548,-0.707106781186548));
#1327=DIRECTION('center_axis',(0.,0.,-1.));
#1328=DIRECTION('ref_axis',(1.,0.,0.));
#1329=DIRECTION('center_axis',(0.,0.,1.));
#1330=DIRECTION('ref_axis',(1.,0.,0.));
#1331=DIRECTION('center_axis',(0.,0.,1.));
#1332=DIRECTION('ref_axis',(1.,0.,0.));
#1333=DIRECTION('',(0.,0.,-1.));
#1334=DIRECTION('center_axis',(0.,0.,1.));
#1335=DIRECTION('ref_axis',(1.,0.,0.));
#1336=DIRECTION('center_axis',(0.,0.,-1.));
#1337=DIRECTION('ref_axis',(0.,-1.,0.));
#1338=DIRECTION('',(-8.65956056235493E-17,-0.707106781186547,0.707106781186547));
#1339=CARTESIAN_POINT('',(0.,0.,0.));
#1340=CARTESIAN_POINT('Origin',(0.,0.,0.));
#1341=CARTESIAN_POINT('',(3.82089801333964E-15,31.1999999999996,-3.98483329666632E-13));
#1342=CARTESIAN_POINT('Origin',(0.,0.,0.));
#1343=CARTESIAN_POINT('',(-15.03502884254,-13.43502884254,0.));
#1344=CARTESIAN_POINT('Origin',(-13.43502884254,-13.43502884254,0.));
#1345=CARTESIAN_POINT('',(11.83502884254,-13.43502884254,0.));
#1346=CARTESIAN_POINT('Origin',(13.43502884254,-13.43502884254,0.));
#1347=CARTESIAN_POINT('',(11.83502884254,13.43502884254,0.));
#1348=CARTESIAN_POINT('Origin',(13.43502884254,13.43502884254,0.));
#1349=CARTESIAN_POINT('',(-15.03502884254,13.43502884254,0.));
#1350=CARTESIAN_POINT('Origin',(-13.43502884254,13.43502884254,0.));
#1351=CARTESIAN_POINT('',(-13.025,-1.59510245588943E-15,0.));
#1352=CARTESIAN_POINT('Origin',(0.,0.,0.));
#1353=CARTESIAN_POINT('',(12.5,23.20063509461,5.05324948552044E-14));
#1354=CARTESIAN_POINT('Origin',(12.5,21.65063509461,0.));
#1355=CARTESIAN_POINT('',(-12.5,23.20063509461,5.05324948552044E-14));
#1356=CARTESIAN_POINT('Origin',(-12.5,21.65063509461,0.));
#1357=CARTESIAN_POINT('',(-25.,1.54999999999995,5.11743425413158E-14));
#1358=CARTESIAN_POINT('Origin',(-25.,0.,0.));
#1359=CARTESIAN_POINT('',(-12.5,-20.10063509461,5.05324948552044E-14));
#1360=CARTESIAN_POINT('Origin',(-12.5,-21.65063509461,0.));
#1361=CARTESIAN_POINT('',(12.5,-20.10063509461,5.05324948552044E-14));
#1362=CARTESIAN_POINT('Origin',(12.5,-21.65063509461,0.));
#1363=CARTESIAN_POINT('',(25.,1.54999999999995,5.11743425413158E-14));
#1364=CARTESIAN_POINT('Origin',(25.,0.,0.));
#1365=CARTESIAN_POINT('Origin',(0.,0.,0.));
#1366=CARTESIAN_POINT('',(-13.025,-1.59510245588943E-15,-4.2));
#1367=CARTESIAN_POINT('Origin',(0.,0.,-4.2));
#1368=CARTESIAN_POINT('',(-13.025,-1.59510245588943E-15,0.));
#1369=CARTESIAN_POINT('Origin',(0.,0.,-4.2));
#1370=CARTESIAN_POINT('',(-14.05,0.,-4.2));
#1371=CARTESIAN_POINT('Origin',(0.,0.,-4.2));
#1372=CARTESIAN_POINT('Origin',(0.,0.,-5.5));
#1373=CARTESIAN_POINT('',(-14.05,0.,-5.5));
#1374=CARTESIAN_POINT('Origin',(0.,0.,-5.5));
#1375=CARTESIAN_POINT('',(-14.05,-1.72062875280203E-15,-5.5));
#1376=CARTESIAN_POINT('Origin',(0.,0.,-5.5));
#1377=CARTESIAN_POINT('',(-3.82089801333974E-15,31.2000000000004,-5.50000000000001));
#1378=CARTESIAN_POINT('Origin',(0.,4.011942914007E-13,-5.5));
#1379=CARTESIAN_POINT('',(-29.83012701892,0.8660254037844,-5.5));
#1380=CARTESIAN_POINT('',(-28.5,1.633974596216,-5.5));
#1381=CARTESIAN_POINT('',(-29.83012701892,0.8660254037844,-5.5));
#1382=CARTESIAN_POINT('',(-29.83012701892,-0.8660254037844,-5.5));
#1383=CARTESIAN_POINT('Origin',(-29.33012701892,0.,-5.5));
#1384=CARTESIAN_POINT('',(-28.5,-1.633974596216,-5.5));
#1385=CARTESIAN_POINT('',(-28.5,-1.633974596216,-5.5));
#1386=CARTESIAN_POINT('',(-27.,-0.7679491924311,-5.5));
#1387=CARTESIAN_POINT('Origin',(-28.,-0.7679491924311,-5.5));
#1388=CARTESIAN_POINT('',(-27.,0.7679491924311,-5.5));
#1389=CARTESIAN_POINT('',(-27.,0.7679491924311,-5.5));
#1390=CARTESIAN_POINT('Origin',(-28.,0.7679491924311,-5.5));
#1391=CARTESIAN_POINT('',(-16.68502884254,-13.43502884254,-5.5));
#1392=CARTESIAN_POINT('Origin',(-13.43502884254,-13.43502884254,-5.5));
#1393=CARTESIAN_POINT('',(10.18502884254,-13.43502884254,-5.5));
#1394=CARTESIAN_POINT('Origin',(13.43502884254,-13.43502884254,-5.5));
#1395=CARTESIAN_POINT('',(10.18502884254,13.43502884254,-5.5));
#1396=CARTESIAN_POINT('Origin',(13.43502884254,13.43502884254,-5.5));
#1397=CARTESIAN_POINT('',(-16.68502884254,13.43502884254,-5.5));
#1398=CARTESIAN_POINT('Origin',(-13.43502884254,13.43502884254,-5.5));
#1399=CARTESIAN_POINT('',(11.,21.65063509461,-5.5));
#1400=CARTESIAN_POINT('Origin',(12.5,21.65063509461,-5.5));
#1401=CARTESIAN_POINT('',(-14.,21.65063509461,-5.5));
#1402=CARTESIAN_POINT('Origin',(-12.5,21.65063509461,-5.5));
#1403=CARTESIAN_POINT('',(-26.5,1.83697019872103E-16,-5.5));
#1404=CARTESIAN_POINT('Origin',(-25.,0.,-5.5));
#1405=CARTESIAN_POINT('',(-14.,-21.65063509461,-5.5));
#1406=CARTESIAN_POINT('Origin',(-12.5,-21.65063509461,-5.5));
#1407=CARTESIAN_POINT('',(11.,-21.65063509461,-5.5));
#1408=CARTESIAN_POINT('Origin',(12.5,-21.65063509461,-5.5));
#1409=CARTESIAN_POINT('',(23.5,1.83697019872103E-16,-5.5));
#1410=CARTESIAN_POINT('Origin',(25.,0.,-5.5));
#1411=CARTESIAN_POINT('',(28.5,1.633974596216,-5.5));
#1412=CARTESIAN_POINT('',(29.83012701892,0.8660254037844,-5.5));
#1413=CARTESIAN_POINT('',(28.5,1.633974596216,-5.5));
#1414=CARTESIAN_POINT('',(27.,0.7679491924311,-5.5));
#1415=CARTESIAN_POINT('Origin',(28.,0.7679491924311,-5.5));
#1416=CARTESIAN_POINT('',(27.,-0.7679491924311,-5.5));
#1417=CARTESIAN_POINT('',(27.,-0.7679491924311,-5.5));
#1418=CARTESIAN_POINT('',(28.5,-1.633974596216,-5.5));
#1419=CARTESIAN_POINT('Origin',(28.,-0.7679491924311,-5.5));
#1420=CARTESIAN_POINT('',(29.83012701892,-0.8660254037844,-5.5));
#1421=CARTESIAN_POINT('',(29.83012701892,-0.8660254037844,-5.5));
#1422=CARTESIAN_POINT('Origin',(29.33012701892,0.,-5.5));
#1423=CARTESIAN_POINT('Origin',(27.,2.5,-5.5));
#1424=CARTESIAN_POINT('',(28.5,1.633974596216,-5.2));
#1425=CARTESIAN_POINT('',(28.5,1.633974596216,-5.5));
#1426=CARTESIAN_POINT('',(29.83012701892,0.8660254037844,-5.2));
#1427=CARTESIAN_POINT('',(29.83012701892,0.8660254037844,-5.5));
#1428=CARTESIAN_POINT('',(28.5,1.633974596216,-5.2));
#1429=CARTESIAN_POINT('Origin',(28.,0.7679491924311,-12.66980000389));
#1430=CARTESIAN_POINT('',(27.,0.7679491924311,-5.2));
#1431=CARTESIAN_POINT('Origin',(28.,0.7679491924311,-5.2));
#1432=CARTESIAN_POINT('',(27.,0.7679491924311,-5.5));
#1433=CARTESIAN_POINT('Origin',(0.,0.,-5.2));
#1434=CARTESIAN_POINT('',(29.83012701892,-0.8660254037844,-5.2));
#1435=CARTESIAN_POINT('Origin',(29.33012701892,0.,-5.2));
#1436=CARTESIAN_POINT('',(28.5,-1.633974596216,-5.2));
#1437=CARTESIAN_POINT('',(29.83012701892,-0.8660254037844,-5.2));
#1438=CARTESIAN_POINT('',(27.,-0.7679491924311,-5.2));
#1439=CARTESIAN_POINT('Origin',(28.,-0.7679491924311,-5.2));
#1440=CARTESIAN_POINT('',(27.,-0.7679491924311,-5.2));
#1441=CARTESIAN_POINT('Origin',(0.,0.,-5.2));
#1442=CARTESIAN_POINT('',(-28.5,1.633974596216,-5.2));
#1443=CARTESIAN_POINT('',(-27.,0.7679491924311,-5.2));
#1444=CARTESIAN_POINT('Origin',(-28.,0.7679491924311,-5.2));
#1445=CARTESIAN_POINT('',(-27.,-0.7679491924311,-5.2));
#1446=CARTESIAN_POINT('',(-27.,0.7679491924311,-5.2));
#1447=CARTESIAN_POINT('',(-28.5,-1.633974596216,-5.2));
#1448=CARTESIAN_POINT('Origin',(-28.,-0.7679491924311,-5.2));
#1449=CARTESIAN_POINT('',(-29.83012701892,-0.8660254037844,-5.2));
#1450=CARTESIAN_POINT('',(-28.5,-1.633974596216,-5.2));
#1451=CARTESIAN_POINT('',(-29.83012701892,0.8660254037844,-5.2));
#1452=CARTESIAN_POINT('Origin',(-29.33012701892,0.,-5.2));
#1453=CARTESIAN_POINT('',(-29.83012701892,0.8660254037844,-5.2));
#1454=CARTESIAN_POINT('Origin',(27.,-2.5,-5.5));
#1455=CARTESIAN_POINT('',(27.,-0.7679491924311,-5.5));
#1456=CARTESIAN_POINT('Origin',(28.,-0.7679491924311,-12.66980000389));
#1457=CARTESIAN_POINT('',(28.5,-1.633974596216,-5.5));
#1458=CARTESIAN_POINT('Origin',(31.33012701892,0.,-5.5));
#1459=CARTESIAN_POINT('',(29.83012701892,-0.8660254037844,-5.5));
#1460=CARTESIAN_POINT('Origin',(29.33012701892,0.,-12.66980000389));
#1461=CARTESIAN_POINT('Origin',(-28.,0.7679491924311,-12.66980000389));
#1462=CARTESIAN_POINT('',(-28.5,1.633974596216,-5.5));
#1463=CARTESIAN_POINT('',(-27.,0.7679491924311,-5.5));
#1464=CARTESIAN_POINT('Origin',(-27.,2.5,-5.5));
#1465=CARTESIAN_POINT('',(-27.,-0.7679491924311,-5.5));
#1466=CARTESIAN_POINT('Origin',(-28.,-0.7679491924311,-12.66980000389));
#1467=CARTESIAN_POINT('',(-28.5,-1.633974596216,-5.5));
#1468=CARTESIAN_POINT('Origin',(-27.,-2.5,-5.5));
#1469=CARTESIAN_POINT('',(-29.83012701892,-0.8660254037844,-5.5));
#1470=CARTESIAN_POINT('Origin',(-29.33012701892,0.,-12.66980000389));
#1471=CARTESIAN_POINT('',(-29.83012701892,0.8660254037844,-5.5));
#1472=CARTESIAN_POINT('Origin',(-31.33012701892,0.,-5.5));
#1473=CARTESIAN_POINT('Origin',(-13.43502884254,-13.43502884254,18.94544583997));
#1474=CARTESIAN_POINT('',(-16.68502884254,-13.43502884254,-1.));
#1475=CARTESIAN_POINT('Origin',(-13.43502884254,-13.43502884254,-1.));
#1476=CARTESIAN_POINT('',(-16.68502884254,-13.43502884254,18.94544583997));
#1477=CARTESIAN_POINT('Origin',(-13.43502884254,-13.43502884254,-1.));
#1478=CARTESIAN_POINT('',(-15.03502884254,-13.43502884254,-0.999999999999999));
#1479=CARTESIAN_POINT('Origin',(-13.43502884254,-13.43502884254,-1.));
#1480=CARTESIAN_POINT('Origin',(-13.43502884254,-13.43502884254,18.94544583997));
#1481=CARTESIAN_POINT('',(-15.03502884254,-13.43502884254,18.94544583997));
#1482=CARTESIAN_POINT('Origin',(13.43502884254,-13.43502884254,18.94544583997));
#1483=CARTESIAN_POINT('',(10.18502884254,-13.43502884254,-1.));
#1484=CARTESIAN_POINT('Origin',(13.43502884254,-13.43502884254,-1.));
#1485=CARTESIAN_POINT('',(10.18502884254,-13.43502884254,18.94544583997));
#1486=CARTESIAN_POINT('Origin',(13.43502884254,-13.43502884254,-1.));
#1487=CARTESIAN_POINT('',(11.83502884254,-13.43502884254,-0.999999999999999));
#1488=CARTESIAN_POINT('Origin',(13.43502884254,-13.43502884254,-1.));
#1489=CARTESIAN_POINT('Origin',(13.43502884254,-13.43502884254,18.94544583997));
#1490=CARTESIAN_POINT('',(11.83502884254,-13.43502884254,18.94544583997));
#1491=CARTESIAN_POINT('Origin',(13.43502884254,13.43502884254,18.94544583997));
#1492=CARTESIAN_POINT('',(10.18502884254,13.43502884254,-1.));
#1493=CARTESIAN_POINT('Origin',(13.43502884254,13.43502884254,-1.));
#1494=CARTESIAN_POINT('',(10.18502884254,13.43502884254,18.94544583997));
#1495=CARTESIAN_POINT('Origin',(13.43502884254,13.43502884254,-1.));
#1496=CARTESIAN_POINT('',(11.83502884254,13.43502884254,-0.999999999999999));
#1497=CARTESIAN_POINT('Origin',(13.43502884254,13.43502884254,-1.));
#1498=CARTESIAN_POINT('Origin',(13.43502884254,13.43502884254,18.94544583997));
#1499=CARTESIAN_POINT('',(11.83502884254,13.43502884254,18.94544583997));
#1500=CARTESIAN_POINT('Origin',(-13.43502884254,13.43502884254,18.94544583997));
#1501=CARTESIAN_POINT('',(-16.68502884254,13.43502884254,-1.));
#1502=CARTESIAN_POINT('Origin',(-13.43502884254,13.43502884254,-1.));
#1503=CARTESIAN_POINT('',(-16.68502884254,13.43502884254,18.94544583997));
#1504=CARTESIAN_POINT('Origin',(-13.43502884254,13.43502884254,-1.));
#1505=CARTESIAN_POINT('',(-15.03502884254,13.43502884254,-0.999999999999999));
#1506=CARTESIAN_POINT('Origin',(-13.43502884254,13.43502884254,-1.));
#1507=CARTESIAN_POINT('Origin',(-13.43502884254,13.43502884254,18.94544583997));
#1508=CARTESIAN_POINT('',(-15.03502884254,13.43502884254,18.94544583997));
#1509=CARTESIAN_POINT('Origin',(12.5,21.65063509461,-5.375));
#1510=CARTESIAN_POINT('',(11.25,21.65063509461,-5.25));
#1511=CARTESIAN_POINT('Origin',(12.5,21.65063509461,-5.25));
#1512=CARTESIAN_POINT('',(11.125,21.65063509461,-5.375));
#1513=CARTESIAN_POINT('Origin',(12.5,21.65063509461,18.72462956247));
#1514=CARTESIAN_POINT('',(12.5,22.90063509461,-0.299999999999951));
#1515=CARTESIAN_POINT('',(11.25,21.65063509461,-0.3));
#1516=CARTESIAN_POINT('Origin',(12.5,21.65063509461,-0.3));
#1517=CARTESIAN_POINT('Origin',(12.5,21.65063509461,-0.3));
#1518=CARTESIAN_POINT('',(11.25,21.65063509461,18.72462956247));
#1519=CARTESIAN_POINT('Origin',(12.5,21.65063509461,-0.1500000109959));
#1520=CARTESIAN_POINT('',(12.5,23.050635083614,-0.1500000109959));
#1521=CARTESIAN_POINT('Origin',(-12.5,21.65063509461,-5.375));
#1522=CARTESIAN_POINT('',(-13.75,21.65063509461,-5.25));
#1523=CARTESIAN_POINT('Origin',(-12.5,21.65063509461,-5.25));
#1524=CARTESIAN_POINT('',(-13.875,21.65063509461,-5.375));
#1525=CARTESIAN_POINT('Origin',(-12.5,21.65063509461,18.72462956247));
#1526=CARTESIAN_POINT('',(-12.5,22.90063509461,-0.299999999999951));
#1527=CARTESIAN_POINT('',(-13.75,21.65063509461,-0.3));
#1528=CARTESIAN_POINT('Origin',(-12.5,21.65063509461,-0.3));
#1529=CARTESIAN_POINT('Origin',(-12.5,21.65063509461,-0.3));
#1530=CARTESIAN_POINT('',(-13.75,21.65063509461,18.72462956247));
#1531=CARTESIAN_POINT('Origin',(-12.5,21.65063509461,-0.1500000109959));
#1532=CARTESIAN_POINT('',(-12.5,23.050635083614,-0.1500000109959));
#1533=CARTESIAN_POINT('Origin',(-25.,0.,-5.375));
#1534=CARTESIAN_POINT('',(-26.25,1.53080849893419E-16,-5.25));
#1535=CARTESIAN_POINT('Origin',(-25.,0.,-5.25));
#1536=CARTESIAN_POINT('',(-26.375,1.68388934882761E-16,-5.375));
#1537=CARTESIAN_POINT('Origin',(-25.,0.,18.72462956247));
#1538=CARTESIAN_POINT('',(-25.,1.24999999999995,-0.299999999999952));
#1539=CARTESIAN_POINT('',(-26.25,1.53080849893419E-16,-0.3));
#1540=CARTESIAN_POINT('Origin',(-25.,0.,-0.3));
#1541=CARTESIAN_POINT('Origin',(-25.,0.,-0.3));
#1542=CARTESIAN_POINT('',(-26.25,1.53080849893419E-16,18.72462956247));
#1543=CARTESIAN_POINT('Origin',(-25.,0.,-0.1500000109959));
#1544=CARTESIAN_POINT('',(-25.,1.399999989004,-0.1500000109959));
#1545=CARTESIAN_POINT('Origin',(-12.5,-21.65063509461,-5.375));
#1546=CARTESIAN_POINT('',(-13.75,-21.65063509461,-5.25));
#1547=CARTESIAN_POINT('Origin',(-12.5,-21.65063509461,-5.25));
#1548=CARTESIAN_POINT('',(-13.875,-21.65063509461,-5.375));
#1549=CARTESIAN_POINT('Origin',(-12.5,-21.65063509461,18.72462956247));
#1550=CARTESIAN_POINT('',(-12.5,-20.40063509461,-0.299999999999951));
#1551=CARTESIAN_POINT('',(-13.75,-21.65063509461,-0.3));
#1552=CARTESIAN_POINT('Origin',(-12.5,-21.65063509461,-0.3));
#1553=CARTESIAN_POINT('Origin',(-12.5,-21.65063509461,-0.3));
#1554=CARTESIAN_POINT('',(-13.75,-21.65063509461,18.72462956247));
#1555=CARTESIAN_POINT('Origin',(-12.5,-21.65063509461,-0.1500000109959));
#1556=CARTESIAN_POINT('',(-12.5,-20.250635105606,-0.1500000109959));
#1557=CARTESIAN_POINT('Origin',(12.5,-21.65063509461,-5.375));
#1558=CARTESIAN_POINT('',(11.25,-21.65063509461,-5.25));
#1559=CARTESIAN_POINT('Origin',(12.5,-21.65063509461,-5.25));
#1560=CARTESIAN_POINT('',(11.125,-21.65063509461,-5.375));
#1561=CARTESIAN_POINT('Origin',(12.5,-21.65063509461,18.72462956247));
#1562=CARTESIAN_POINT('',(12.5,-20.40063509461,-0.299999999999951));
#1563=CARTESIAN_POINT('',(11.25,-21.65063509461,-0.3));
#1564=CARTESIAN_POINT('Origin',(12.5,-21.65063509461,-0.3));
#1565=CARTESIAN_POINT('Origin',(12.5,-21.65063509461,-0.3));
#1566=CARTESIAN_POINT('',(11.25,-21.65063509461,18.72462956247));
#1567=CARTESIAN_POINT('Origin',(12.5,-21.65063509461,-0.1500000109959));
#1568=CARTESIAN_POINT('',(12.5,-20.250635105606,-0.1500000109959));
#1569=CARTESIAN_POINT('Origin',(25.,0.,-5.375));
#1570=CARTESIAN_POINT('',(23.75,1.53080849893419E-16,-5.25));
#1571=CARTESIAN_POINT('Origin',(25.,0.,-5.25));
#1572=CARTESIAN_POINT('',(23.625,1.68388934882761E-16,-5.375));
#1573=CARTESIAN_POINT('Origin',(25.,0.,18.72462956247));
#1574=CARTESIAN_POINT('',(25.,1.24999999999995,-0.299999999999952));
#1575=CARTESIAN_POINT('',(23.75,1.53080849893419E-16,-0.3));
#1576=CARTESIAN_POINT('Origin',(25.,0.,-0.3));
#1577=CARTESIAN_POINT('Origin',(25.,0.,-0.3));
#1578=CARTESIAN_POINT('',(23.75,1.53080849893419E-16,18.72462956247));
#1579=CARTESIAN_POINT('Origin',(25.,0.,-0.1500000109959));
#1580=CARTESIAN_POINT('',(25.,1.399999989004,-0.1500000109959));
#1581=CARTESIAN_POINT('Origin',(0.,4.011942914007E-13,-5.35));
#1582=CARTESIAN_POINT('',(-31.5,0.,-5.2));
#1583=CARTESIAN_POINT('',(-3.85763741731419E-15,31.5000000000006,-5.1999999999998));
#1584=CARTESIAN_POINT('Origin',(0.,0.,-5.2));
#1585=CARTESIAN_POINT('',(-3.83926771532695E-15,31.3500000000004,-5.35));
#1586=CARTESIAN_POINT('Origin',(0.,0.,-5.2));
#1587=CARTESIAN_POINT('Origin',(0.,0.,0.));
#1588=CARTESIAN_POINT('',(-31.5,-3.85763741731416E-15,-0.3));
#1589=CARTESIAN_POINT('',(3.85763741731411E-15,31.5,-0.300000000000802));
#1590=CARTESIAN_POINT('Origin',(0.,0.,-0.3));
#1591=CARTESIAN_POINT('',(-31.5,-3.85763741731416E-15,0.));
#1592=CARTESIAN_POINT('Origin',(0.,0.,-0.3));
#1593=CARTESIAN_POINT('Origin',(0.,4.011942914007E-13,-0.1499999998912));
#1594=CARTESIAN_POINT('',(3.83926771531348E-15,31.3499999998904,-0.1499999998912));
#1595=UNCERTAINTY_MEASURE_WITH_UNIT(LENGTH_MEASURE(0.01),#1599,
'DISTANCE_ACCURACY_VALUE',
'Maximum model space distance between geometric entities at asserted c
onnectivities');
#1596=UNCERTAINTY_MEASURE_WITH_UNIT(LENGTH_MEASURE(0.01),#1599,
'DISTANCE_ACCURACY_VALUE',
'Maximum model space distance between geometric entities at asserted c
onnectivities');
#1597=(
GEOMETRIC_REPRESENTATION_CONTEXT(3)
GLOBAL_UNCERTAINTY_ASSIGNED_CONTEXT((#1595))
GLOBAL_UNIT_ASSIGNED_CONTEXT((#1599,#1601,#1602))
REPRESENTATION_CONTEXT('','3D')
);
#1598=(
GEOMETRIC_REPRESENTATION_CONTEXT(3)
GLOBAL_UNCERTAINTY_ASSIGNED_CONTEXT((#1596))
GLOBAL_UNIT_ASSIGNED_CONTEXT((#1599,#1601,#1602))
REPRESENTATION_CONTEXT('','3D')
);
#1599=(
LENGTH_UNIT()
NAMED_UNIT(*)
SI_UNIT(.MILLI.,.METRE.)
);
#1600=(
LENGTH_UNIT()
NAMED_UNIT(*)
SI_UNIT($,.METRE.)
);
#1601=(
NAMED_UNIT(*)
PLANE_ANGLE_UNIT()
SI_UNIT($,.RADIAN.)
);
#1602=(
NAMED_UNIT(*)
SI_UNIT($,.STERADIAN.)
SOLID_ANGLE_UNIT()
);
#1603=SHAPE_DEFINITION_REPRESENTATION(#1604,#1605);
#1604=PRODUCT_DEFINITION_SHAPE('',$,#1607);
#1605=SHAPE_REPRESENTATION('',(#921),#1597);
#1606=PRODUCT_DEFINITION_CONTEXT('part definition',#1611,'design');
#1607=PRODUCT_DEFINITION('2026-07-09-12-36-31-392','2-SPACE-M4-STATOR',
#1608,#1606);
#1608=PRODUCT_DEFINITION_FORMATION('',$,#1613);
#1609=PRODUCT_RELATED_PRODUCT_CATEGORY('2-SPACE-M4-STATOR',
'2-SPACE-M4-STATOR',(#1613));
#1610=APPLICATION_PROTOCOL_DEFINITION('international standard',
'automotive_design',2009,#1611);
#1611=APPLICATION_CONTEXT(
'Core Data for Automotive Mechanical Design Process');
#1612=PRODUCT_CONTEXT('part definition',#1611,'mechanical');
#1613=PRODUCT('2026-07-09-12-36-31-392','2-SPACE-M4-STATOR',
'NOT SPECIFIED',(#1612));
#1614=PRESENTATION_STYLE_ASSIGNMENT((#1615));
#1615=SURFACE_STYLE_USAGE(.BOTH.,#1616);
#1616=SURFACE_SIDE_STYLE('',(#1617));
#1617=SURFACE_STYLE_FILL_AREA(#1618);
#1618=FILL_AREA_STYLE('\X2\94A2\X0\ - \X2\7F0E5149\X0\',(#1619));
#1619=FILL_AREA_STYLE_COLOUR('\X2\94A2\X0\ - \X2\7F0E5149\X0\',#1620);
#1620=COLOUR_RGB('\X2\94A2\X0\ - \X2\7F0E5149\X0\',0.627450980392157,0.627450980392157,
0.627450980392157);
ENDSEC;
END-ISO-10303-21;
