ISO-10303-21;
HEADER;
/* Generated by software containing ST-Developer
 * from STEP Tools, Inc. (www.steptools.com) 
 */

FILE_DESCRIPTION(
/* description */ ('NOT SPECIFIED'),
/* implementation_level */ '2;1');

FILE_NAME(
/* name */ '1-HANDLE.step',
/* time_stamp */ '2026-07-07T17:51:24+08:00',
/* author */ (''),
/* organization */ (''),
/* preprocessor_version */ 'ST-DEVELOPER v20.1',
/* originating_system */ 'Autodesk Translation Framework v15.8.0.0',
/* authorisation */ '');

FILE_SCHEMA (('AUTOMOTIVE_DESIGN { 1 0 10303 214 3 1 1 }'));
ENDSEC;

DATA;
#10=MECHANICAL_DESIGN_GEOMETRIC_PRESENTATION_REPRESENTATION('',(#13),#1249);
#11=SHAPE_REPRESENTATION_RELATIONSHIP('SRR','None',#1256,#12);
#12=ADVANCED_BREP_SHAPE_REPRESENTATION('',(#14),#1248);
#13=STYLED_ITEM('',(#1265),#14);
#14=MANIFOLD_SOLID_BREP('\X2\5B9E4F53\X0\1',#715);
#15=CYLINDRICAL_SURFACE('',#740,1.35);
#16=CYLINDRICAL_SURFACE('',#747,1.35);
#17=CYLINDRICAL_SURFACE('',#754,1.35);
#18=CYLINDRICAL_SURFACE('',#782,1.35);
#19=CYLINDRICAL_SURFACE('',#787,1.35);
#20=CYLINDRICAL_SURFACE('',#792,1.35);
#21=CYLINDRICAL_SURFACE('',#803,2.);
#22=CYLINDRICAL_SURFACE('',#805,2.);
#23=CYLINDRICAL_SURFACE('',#807,5.);
#24=CYLINDRICAL_SURFACE('',#812,2.);
#25=CONICAL_SURFACE('',#737,1.485,0.785398163397448);
#26=CONICAL_SURFACE('',#743,0.7102371507272,1.02974425867665);
#27=CONICAL_SURFACE('',#744,1.485,0.785398163397448);
#28=CONICAL_SURFACE('',#750,0.7102371507272,1.02974425867665);
#29=CONICAL_SURFACE('',#751,1.485,0.785398163397448);
#30=CONICAL_SURFACE('',#757,0.7102371507272,1.02974425867665);
#31=CONICAL_SURFACE('',#758,1.849999996826,0.785398163397448);
#32=CONICAL_SURFACE('',#761,1.849999996826,0.785398163397448);
#33=CONICAL_SURFACE('',#764,4.849999998882,0.785398163397448);
#34=CONICAL_SURFACE('',#767,1.849999998248,0.785398163397448);
#35=CONICAL_SURFACE('',#780,1.485,0.785398163397448);
#36=CONICAL_SURFACE('',#784,0.7102371507272,1.02974425867665);
#37=CONICAL_SURFACE('',#785,1.485,0.785398163397448);
#38=CONICAL_SURFACE('',#789,0.7102371507272,1.02974425867665);
#39=CONICAL_SURFACE('',#790,1.485,0.785398163397448);
#40=CONICAL_SURFACE('',#794,0.7102371507272,1.02974425867665);
#41=CONICAL_SURFACE('',#795,4.849999998882,0.785398163397448);
#42=CONICAL_SURFACE('',#798,1.849999996826,0.785398163397448);
#43=CONICAL_SURFACE('',#801,1.849999996826,0.785398163397448);
#44=CONICAL_SURFACE('',#810,1.849999998248,0.785398163397448);
#45=FACE_BOUND('',#96,.T.);
#46=FACE_BOUND('',#97,.T.);
#47=FACE_BOUND('',#98,.T.);
#48=FACE_BOUND('',#119,.T.);
#49=FACE_BOUND('',#120,.T.);
#50=FACE_BOUND('',#121,.T.);
#51=FACE_OUTER_BOUND('',#95,.T.);
#52=FACE_OUTER_BOUND('',#99,.T.);
#53=FACE_OUTER_BOUND('',#100,.T.);
#54=FACE_OUTER_BOUND('',#101,.T.);
#55=FACE_OUTER_BOUND('',#102,.T.);
#56=FACE_OUTER_BOUND('',#103,.T.);
#57=FACE_OUTER_BOUND('',#104,.T.);
#58=FACE_OUTER_BOUND('',#105,.T.);
#59=FACE_OUTER_BOUND('',#106,.T.);
#60=FACE_OUTER_BOUND('',#107,.T.);
#61=FACE_OUTER_BOUND('',#108,.T.);
#62=FACE_OUTER_BOUND('',#109,.T.);
#63=FACE_OUTER_BOUND('',#110,.T.);
#64=FACE_OUTER_BOUND('',#111,.T.);
#65=FACE_OUTER_BOUND('',#112,.T.);
#66=FACE_OUTER_BOUND('',#113,.T.);
#67=FACE_OUTER_BOUND('',#114,.T.);
#68=FACE_OUTER_BOUND('',#115,.T.);
#69=FACE_OUTER_BOUND('',#116,.T.);
#70=FACE_OUTER_BOUND('',#117,.T.);
#71=FACE_OUTER_BOUND('',#118,.T.);
#72=FACE_OUTER_BOUND('',#122,.T.);
#73=FACE_OUTER_BOUND('',#123,.T.);
#74=FACE_OUTER_BOUND('',#124,.T.);
#75=FACE_OUTER_BOUND('',#125,.T.);
#76=FACE_OUTER_BOUND('',#126,.T.);
#77=FACE_OUTER_BOUND('',#127,.T.);
#78=FACE_OUTER_BOUND('',#128,.T.);
#79=FACE_OUTER_BOUND('',#129,.T.);
#80=FACE_OUTER_BOUND('',#130,.T.);
#81=FACE_OUTER_BOUND('',#131,.T.);
#82=FACE_OUTER_BOUND('',#132,.T.);
#83=FACE_OUTER_BOUND('',#133,.T.);
#84=FACE_OUTER_BOUND('',#134,.T.);
#85=FACE_OUTER_BOUND('',#135,.T.);
#86=FACE_OUTER_BOUND('',#136,.T.);
#87=FACE_OUTER_BOUND('',#137,.T.);
#88=FACE_OUTER_BOUND('',#138,.T.);
#89=FACE_OUTER_BOUND('',#139,.T.);
#90=FACE_OUTER_BOUND('',#140,.T.);
#91=FACE_OUTER_BOUND('',#141,.T.);
#92=FACE_OUTER_BOUND('',#142,.T.);
#93=FACE_OUTER_BOUND('',#143,.T.);
#94=FACE_OUTER_BOUND('',#144,.T.);
#95=EDGE_LOOP('',(#461,#462,#463,#464,#465,#466,#467,#468));
#96=EDGE_LOOP('',(#469));
#97=EDGE_LOOP('',(#470));
#98=EDGE_LOOP('',(#471));
#99=EDGE_LOOP('',(#472,#473,#474,#475,#476));
#100=EDGE_LOOP('',(#477,#478,#479,#480,#481,#482));
#101=EDGE_LOOP('',(#483,#484,#485,#486));
#102=EDGE_LOOP('',(#487,#488,#489,#490,#491));
#103=EDGE_LOOP('',(#492,#493,#494,#495,#496,#497));
#104=EDGE_LOOP('',(#498,#499,#500,#501));
#105=EDGE_LOOP('',(#502,#503,#504,#505,#506));
#106=EDGE_LOOP('',(#507,#508,#509,#510,#511,#512));
#107=EDGE_LOOP('',(#513,#514,#515,#516));
#108=EDGE_LOOP('',(#517,#518,#519,#520));
#109=EDGE_LOOP('',(#521,#522,#523,#524));
#110=EDGE_LOOP('',(#525,#526,#527,#528));
#111=EDGE_LOOP('',(#529,#530,#531,#532));
#112=EDGE_LOOP('',(#533,#534,#535,#536));
#113=EDGE_LOOP('',(#537,#538,#539,#540));
#114=EDGE_LOOP('',(#541,#542,#543,#544));
#115=EDGE_LOOP('',(#545,#546,#547,#548));
#116=EDGE_LOOP('',(#549,#550,#551,#552));
#117=EDGE_LOOP('',(#553,#554,#555,#556));
#118=EDGE_LOOP('',(#557,#558,#559,#560,#561,#562,#563,#564));
#119=EDGE_LOOP('',(#565));
#120=EDGE_LOOP('',(#566));
#121=EDGE_LOOP('',(#567));
#122=EDGE_LOOP('',(#568,#569,#570,#571));
#123=EDGE_LOOP('',(#572,#573,#574,#575));
#124=EDGE_LOOP('',(#576,#577,#578));
#125=EDGE_LOOP('',(#579,#580,#581,#582));
#126=EDGE_LOOP('',(#583,#584,#585,#586));
#127=EDGE_LOOP('',(#587,#588,#589));
#128=EDGE_LOOP('',(#590,#591,#592,#593));
#129=EDGE_LOOP('',(#594,#595,#596,#597));
#130=EDGE_LOOP('',(#598,#599,#600));
#131=EDGE_LOOP('',(#601,#602,#603,#604));
#132=EDGE_LOOP('',(#605,#606,#607,#608));
#133=EDGE_LOOP('',(#609,#610,#611,#612));
#134=EDGE_LOOP('',(#613,#614,#615,#616));
#135=EDGE_LOOP('',(#617,#618,#619,#620));
#136=EDGE_LOOP('',(#621,#622,#623,#624));
#137=EDGE_LOOP('',(#625,#626,#627,#628));
#138=EDGE_LOOP('',(#629,#630,#631,#632));
#139=EDGE_LOOP('',(#633,#634,#635,#636));
#140=EDGE_LOOP('',(#637,#638,#639,#640));
#141=EDGE_LOOP('',(#641,#642,#643,#644));
#142=EDGE_LOOP('',(#645,#646,#647,#648));
#143=EDGE_LOOP('',(#649,#650,#651,#652));
#144=EDGE_LOOP('',(#653,#654,#655,#656));
#145=LINE('',#1047,#203);
#146=LINE('',#1051,#204);
#147=LINE('',#1055,#205);
#148=LINE('',#1058,#206);
#149=LINE('',#1069,#207);
#150=LINE('',#1073,#208);
#151=LINE('',#1079,#209);
#152=LINE('',#1084,#210);
#153=LINE('',#1088,#211);
#154=LINE('',#1094,#212);
#155=LINE('',#1099,#213);
#156=LINE('',#1103,#214);
#157=LINE('',#1109,#215);
#158=LINE('',#1112,#216);
#159=LINE('',#1115,#217);
#160=LINE('',#1118,#218);
#161=LINE('',#1119,#219);
#162=LINE('',#1123,#220);
#163=LINE('',#1126,#221);
#164=LINE('',#1127,#222);
#165=LINE('',#1131,#223);
#166=LINE('',#1134,#224);
#167=LINE('',#1135,#225);
#168=LINE('',#1139,#226);
#169=LINE('',#1141,#227);
#170=LINE('',#1145,#228);
#171=LINE('',#1146,#229);
#172=LINE('',#1147,#230);
#173=LINE('',#1151,#231);
#174=LINE('',#1152,#232);
#175=LINE('',#1153,#233);
#176=LINE('',#1159,#234);
#177=LINE('',#1163,#235);
#178=LINE('',#1167,#236);
#179=LINE('',#1177,#237);
#180=LINE('',#1181,#238);
#181=LINE('',#1184,#239);
#182=LINE('',#1188,#240);
#183=LINE('',#1192,#241);
#184=LINE('',#1195,#242);
#185=LINE('',#1199,#243);
#186=LINE('',#1203,#244);
#187=LINE('',#1206,#245);
#188=LINE('',#1209,#246);
#189=LINE('',#1212,#247);
#190=LINE('',#1215,#248);
#191=LINE('',#1216,#249);
#192=LINE('',#1220,#250);
#193=LINE('',#1223,#251);
#194=LINE('',#1224,#252);
#195=LINE('',#1228,#253);
#196=LINE('',#1230,#254);
#197=LINE('',#1232,#255);
#198=LINE('',#1234,#256);
#199=LINE('',#1236,#257);
#200=LINE('',#1239,#258);
#201=LINE('',#1240,#259);
#202=LINE('',#1242,#260);
#203=VECTOR('',#819,18.9999999554);
#204=VECTOR('',#822,17.99999995416);
#205=VECTOR('',#825,17.9604345094998);
#206=VECTOR('',#828,9.306484587988);
#207=VECTOR('',#839,1.485);
#208=VECTOR('',#844,1.35);
#209=VECTOR('',#851,0.7102371507272);
#210=VECTOR('',#856,1.485);
#211=VECTOR('',#861,1.35);
#212=VECTOR('',#868,0.7102371507272);
#213=VECTOR('',#873,1.485);
#214=VECTOR('',#878,1.35);
#215=VECTOR('',#885,0.7102371507272);
#216=VECTOR('',#888,0.424264069026002);
#217=VECTOR('',#891,0.424264069109001);
#218=VECTOR('',#894,18.99999996064);
#219=VECTOR('',#895,0.424264069026002);
#220=VECTOR('',#900,0.424264069109001);
#221=VECTOR('',#903,17.9999999625);
#222=VECTOR('',#904,0.424264068949402);
#223=VECTOR('',#909,0.424264068857913);
#224=VECTOR('',#912,17.9604345186999);
#225=VECTOR('',#913,0.4242640689033);
#226=VECTOR('',#918,0.424264068931102);
#227=VECTOR('',#921,9.306484591885);
#228=VECTOR('',#924,9.306484591885);
#229=VECTOR('',#925,58.90000000333);
#230=VECTOR('',#926,58.90000000232);
#231=VECTOR('',#929,9.306484587988);
#232=VECTOR('',#930,0.424264069026002);
#233=VECTOR('',#931,0.424264068931102);
#234=VECTOR('',#936,17.99999995416);
#235=VECTOR('',#939,18.9999999554);
#236=VECTOR('',#944,17.9604345094998);
#237=VECTOR('',#955,1.485);
#238=VECTOR('',#960,1.35);
#239=VECTOR('',#963,0.7102371507272);
#240=VECTOR('',#968,1.485);
#241=VECTOR('',#973,1.35);
#242=VECTOR('',#976,0.7102371507272);
#243=VECTOR('',#981,1.485);
#244=VECTOR('',#986,1.35);
#245=VECTOR('',#989,0.7102371507272);
#246=VECTOR('',#992,0.424264068858007);
#247=VECTOR('',#995,0.424264068949402);
#248=VECTOR('',#998,17.9999999625);
#249=VECTOR('',#999,0.424264069109001);
#250=VECTOR('',#1004,0.424264069026002);
#251=VECTOR('',#1007,18.99999996064);
#252=VECTOR('',#1008,0.424264069109001);
#253=VECTOR('',#1015,58.90000000421);
#254=VECTOR('',#1018,58.90000000333);
#255=VECTOR('',#1021,58.90000000421);
#256=VECTOR('',#1024,58.90000000133);
#257=VECTOR('',#1027,58.90000000082);
#258=VECTOR('',#1030,17.9604345186999);
#259=VECTOR('',#1031,58.90000000203);
#260=VECTOR('',#1034,0.4242640689033);
#261=CIRCLE('',#730,1.7);
#262=CIRCLE('',#731,1.7);
#263=CIRCLE('',#732,4.7);
#264=CIRCLE('',#733,1.7);
#265=CIRCLE('',#734,1.62);
#266=CIRCLE('',#735,1.62);
#267=CIRCLE('',#736,1.62);
#268=CIRCLE('',#738,1.35);
#269=CIRCLE('',#739,1.35);
#270=CIRCLE('',#741,1.35);
#271=CIRCLE('',#742,1.35);
#272=CIRCLE('',#745,1.35);
#273=CIRCLE('',#746,1.35);
#274=CIRCLE('',#748,1.35);
#275=CIRCLE('',#749,1.35);
#276=CIRCLE('',#752,1.35);
#277=CIRCLE('',#753,1.35);
#278=CIRCLE('',#755,1.35);
#279=CIRCLE('',#756,1.35);
#280=CIRCLE('',#759,2.);
#281=CIRCLE('',#762,2.);
#282=CIRCLE('',#765,5.);
#283=CIRCLE('',#768,2.);
#284=CIRCLE('',#773,4.7);
#285=CIRCLE('',#774,1.7);
#286=CIRCLE('',#775,1.7);
#287=CIRCLE('',#776,1.7);
#288=CIRCLE('',#777,1.62);
#289=CIRCLE('',#778,1.62);
#290=CIRCLE('',#779,1.62);
#291=CIRCLE('',#781,1.35);
#292=CIRCLE('',#783,1.35);
#293=CIRCLE('',#786,1.35);
#294=CIRCLE('',#788,1.35);
#295=CIRCLE('',#791,1.35);
#296=CIRCLE('',#793,1.35);
#297=CIRCLE('',#796,5.);
#298=CIRCLE('',#799,2.);
#299=CIRCLE('',#802,2.);
#300=CIRCLE('',#811,2.);
#301=VERTEX_POINT('',#1043);
#302=VERTEX_POINT('',#1044);
#303=VERTEX_POINT('',#1046);
#304=VERTEX_POINT('',#1048);
#305=VERTEX_POINT('',#1050);
#306=VERTEX_POINT('',#1052);
#307=VERTEX_POINT('',#1054);
#308=VERTEX_POINT('',#1056);
#309=VERTEX_POINT('',#1059);
#310=VERTEX_POINT('',#1061);
#311=VERTEX_POINT('',#1063);
#312=VERTEX_POINT('',#1066);
#313=VERTEX_POINT('',#1067);
#314=VERTEX_POINT('',#1072);
#315=VERTEX_POINT('',#1074);
#316=VERTEX_POINT('',#1078);
#317=VERTEX_POINT('',#1081);
#318=VERTEX_POINT('',#1082);
#319=VERTEX_POINT('',#1087);
#320=VERTEX_POINT('',#1089);
#321=VERTEX_POINT('',#1093);
#322=VERTEX_POINT('',#1096);
#323=VERTEX_POINT('',#1097);
#324=VERTEX_POINT('',#1102);
#325=VERTEX_POINT('',#1104);
#326=VERTEX_POINT('',#1108);
#327=VERTEX_POINT('',#1111);
#328=VERTEX_POINT('',#1113);
#329=VERTEX_POINT('',#1117);
#330=VERTEX_POINT('',#1121);
#331=VERTEX_POINT('',#1125);
#332=VERTEX_POINT('',#1129);
#333=VERTEX_POINT('',#1133);
#334=VERTEX_POINT('',#1137);
#335=VERTEX_POINT('',#1143);
#336=VERTEX_POINT('',#1144);
#337=VERTEX_POINT('',#1149);
#338=VERTEX_POINT('',#1150);
#339=VERTEX_POINT('',#1155);
#340=VERTEX_POINT('',#1156);
#341=VERTEX_POINT('',#1158);
#342=VERTEX_POINT('',#1160);
#343=VERTEX_POINT('',#1162);
#344=VERTEX_POINT('',#1165);
#345=VERTEX_POINT('',#1168);
#346=VERTEX_POINT('',#1170);
#347=VERTEX_POINT('',#1172);
#348=VERTEX_POINT('',#1175);
#349=VERTEX_POINT('',#1179);
#350=VERTEX_POINT('',#1183);
#351=VERTEX_POINT('',#1186);
#352=VERTEX_POINT('',#1190);
#353=VERTEX_POINT('',#1194);
#354=VERTEX_POINT('',#1197);
#355=VERTEX_POINT('',#1201);
#356=VERTEX_POINT('',#1205);
#357=VERTEX_POINT('',#1208);
#358=VERTEX_POINT('',#1210);
#359=VERTEX_POINT('',#1214);
#360=VERTEX_POINT('',#1218);
#361=VERTEX_POINT('',#1222);
#362=VERTEX_POINT('',#1238);
#363=EDGE_CURVE('',#301,#302,#261,.T.);
#364=EDGE_CURVE('',#302,#303,#145,.T.);
#365=EDGE_CURVE('',#303,#304,#262,.T.);
#366=EDGE_CURVE('',#304,#305,#146,.T.);
#367=EDGE_CURVE('',#305,#306,#263,.T.);
#368=EDGE_CURVE('',#306,#307,#147,.T.);
#369=EDGE_CURVE('',#307,#308,#264,.T.);
#370=EDGE_CURVE('',#308,#301,#148,.T.);
#371=EDGE_CURVE('',#309,#309,#265,.T.);
#372=EDGE_CURVE('',#310,#310,#266,.T.);
#373=EDGE_CURVE('',#311,#311,#267,.T.);
#374=EDGE_CURVE('',#312,#313,#268,.T.);
#375=EDGE_CURVE('',#313,#311,#149,.T.);
#376=EDGE_CURVE('',#313,#312,#269,.T.);
#377=EDGE_CURVE('',#312,#314,#150,.T.);
#378=EDGE_CURVE('',#314,#315,#270,.T.);
#379=EDGE_CURVE('',#315,#314,#271,.T.);
#380=EDGE_CURVE('',#316,#315,#151,.T.);
#381=EDGE_CURVE('',#317,#318,#272,.T.);
#382=EDGE_CURVE('',#318,#309,#152,.T.);
#383=EDGE_CURVE('',#318,#317,#273,.T.);
#384=EDGE_CURVE('',#317,#319,#153,.T.);
#385=EDGE_CURVE('',#319,#320,#274,.T.);
#386=EDGE_CURVE('',#320,#319,#275,.T.);
#387=EDGE_CURVE('',#321,#320,#154,.T.);
#388=EDGE_CURVE('',#322,#323,#276,.T.);
#389=EDGE_CURVE('',#323,#310,#155,.T.);
#390=EDGE_CURVE('',#323,#322,#277,.T.);
#391=EDGE_CURVE('',#322,#324,#156,.T.);
#392=EDGE_CURVE('',#324,#325,#278,.T.);
#393=EDGE_CURVE('',#325,#324,#279,.T.);
#394=EDGE_CURVE('',#326,#325,#157,.T.);
#395=EDGE_CURVE('',#301,#327,#158,.T.);
#396=EDGE_CURVE('',#327,#328,#280,.T.);
#397=EDGE_CURVE('',#302,#328,#159,.T.);
#398=EDGE_CURVE('',#328,#329,#160,.T.);
#399=EDGE_CURVE('',#303,#329,#161,.T.);
#400=EDGE_CURVE('',#329,#330,#281,.T.);
#401=EDGE_CURVE('',#304,#330,#162,.T.);
#402=EDGE_CURVE('',#330,#331,#163,.T.);
#403=EDGE_CURVE('',#305,#331,#164,.T.);
#404=EDGE_CURVE('',#331,#332,#282,.T.);
#405=EDGE_CURVE('',#306,#332,#165,.T.);
#406=EDGE_CURVE('',#332,#333,#166,.T.);
#407=EDGE_CURVE('',#307,#333,#167,.T.);
#408=EDGE_CURVE('',#333,#334,#283,.T.);
#409=EDGE_CURVE('',#308,#334,#168,.T.);
#410=EDGE_CURVE('',#334,#327,#169,.T.);
#411=EDGE_CURVE('',#335,#336,#170,.T.);
#412=EDGE_CURVE('',#335,#327,#171,.T.);
#413=EDGE_CURVE('',#336,#334,#172,.T.);
#414=EDGE_CURVE('',#337,#338,#173,.T.);
#415=EDGE_CURVE('',#337,#335,#174,.T.);
#416=EDGE_CURVE('',#338,#336,#175,.T.);
#417=EDGE_CURVE('',#339,#340,#284,.T.);
#418=EDGE_CURVE('',#340,#341,#176,.T.);
#419=EDGE_CURVE('',#341,#342,#285,.T.);
#420=EDGE_CURVE('',#342,#343,#177,.T.);
#421=EDGE_CURVE('',#343,#337,#286,.T.);
#422=EDGE_CURVE('',#338,#344,#287,.T.);
#423=EDGE_CURVE('',#344,#339,#178,.T.);
#424=EDGE_CURVE('',#345,#345,#288,.T.);
#425=EDGE_CURVE('',#346,#346,#289,.T.);
#426=EDGE_CURVE('',#347,#347,#290,.T.);
#427=EDGE_CURVE('',#348,#348,#291,.T.);
#428=EDGE_CURVE('',#348,#347,#179,.T.);
#429=EDGE_CURVE('',#349,#349,#292,.T.);
#430=EDGE_CURVE('',#349,#348,#180,.T.);
#431=EDGE_CURVE('',#350,#349,#181,.T.);
#432=EDGE_CURVE('',#351,#351,#293,.T.);
#433=EDGE_CURVE('',#351,#345,#182,.T.);
#434=EDGE_CURVE('',#352,#352,#294,.T.);
#435=EDGE_CURVE('',#352,#351,#183,.T.);
#436=EDGE_CURVE('',#353,#352,#184,.T.);
#437=EDGE_CURVE('',#354,#354,#295,.T.);
#438=EDGE_CURVE('',#354,#346,#185,.T.);
#439=EDGE_CURVE('',#355,#355,#296,.T.);
#440=EDGE_CURVE('',#355,#354,#186,.T.);
#441=EDGE_CURVE('',#356,#355,#187,.T.);
#442=EDGE_CURVE('',#339,#357,#188,.T.);
#443=EDGE_CURVE('',#357,#358,#297,.T.);
#444=EDGE_CURVE('',#340,#358,#189,.T.);
#445=EDGE_CURVE('',#358,#359,#190,.T.);
#446=EDGE_CURVE('',#341,#359,#191,.T.);
#447=EDGE_CURVE('',#359,#360,#298,.T.);
#448=EDGE_CURVE('',#342,#360,#192,.T.);
#449=EDGE_CURVE('',#360,#361,#193,.T.);
#450=EDGE_CURVE('',#343,#361,#194,.T.);
#451=EDGE_CURVE('',#361,#335,#299,.T.);
#452=EDGE_CURVE('',#361,#328,#195,.T.);
#453=EDGE_CURVE('',#360,#329,#196,.T.);
#454=EDGE_CURVE('',#359,#330,#197,.T.);
#455=EDGE_CURVE('',#331,#358,#198,.T.);
#456=EDGE_CURVE('',#332,#357,#199,.T.);
#457=EDGE_CURVE('',#362,#357,#200,.T.);
#458=EDGE_CURVE('',#362,#333,#201,.T.);
#459=EDGE_CURVE('',#344,#362,#202,.T.);
#460=EDGE_CURVE('',#336,#362,#300,.T.);
#461=ORIENTED_EDGE('',*,*,#363,.T.);
#462=ORIENTED_EDGE('',*,*,#364,.T.);
#463=ORIENTED_EDGE('',*,*,#365,.T.);
#464=ORIENTED_EDGE('',*,*,#366,.T.);
#465=ORIENTED_EDGE('',*,*,#367,.T.);
#466=ORIENTED_EDGE('',*,*,#368,.T.);
#467=ORIENTED_EDGE('',*,*,#369,.T.);
#468=ORIENTED_EDGE('',*,*,#370,.T.);
#469=ORIENTED_EDGE('',*,*,#371,.T.);
#470=ORIENTED_EDGE('',*,*,#372,.T.);
#471=ORIENTED_EDGE('',*,*,#373,.T.);
#472=ORIENTED_EDGE('',*,*,#374,.T.);
#473=ORIENTED_EDGE('',*,*,#375,.T.);
#474=ORIENTED_EDGE('',*,*,#373,.F.);
#475=ORIENTED_EDGE('',*,*,#375,.F.);
#476=ORIENTED_EDGE('',*,*,#376,.T.);
#477=ORIENTED_EDGE('',*,*,#374,.F.);
#478=ORIENTED_EDGE('',*,*,#377,.T.);
#479=ORIENTED_EDGE('',*,*,#378,.T.);
#480=ORIENTED_EDGE('',*,*,#379,.T.);
#481=ORIENTED_EDGE('',*,*,#377,.F.);
#482=ORIENTED_EDGE('',*,*,#376,.F.);
#483=ORIENTED_EDGE('',*,*,#380,.T.);
#484=ORIENTED_EDGE('',*,*,#378,.F.);
#485=ORIENTED_EDGE('',*,*,#379,.F.);
#486=ORIENTED_EDGE('',*,*,#380,.F.);
#487=ORIENTED_EDGE('',*,*,#381,.T.);
#488=ORIENTED_EDGE('',*,*,#382,.T.);
#489=ORIENTED_EDGE('',*,*,#371,.F.);
#490=ORIENTED_EDGE('',*,*,#382,.F.);
#491=ORIENTED_EDGE('',*,*,#383,.T.);
#492=ORIENTED_EDGE('',*,*,#381,.F.);
#493=ORIENTED_EDGE('',*,*,#384,.T.);
#494=ORIENTED_EDGE('',*,*,#385,.T.);
#495=ORIENTED_EDGE('',*,*,#386,.T.);
#496=ORIENTED_EDGE('',*,*,#384,.F.);
#497=ORIENTED_EDGE('',*,*,#383,.F.);
#498=ORIENTED_EDGE('',*,*,#387,.T.);
#499=ORIENTED_EDGE('',*,*,#385,.F.);
#500=ORIENTED_EDGE('',*,*,#386,.F.);
#501=ORIENTED_EDGE('',*,*,#387,.F.);
#502=ORIENTED_EDGE('',*,*,#388,.T.);
#503=ORIENTED_EDGE('',*,*,#389,.T.);
#504=ORIENTED_EDGE('',*,*,#372,.F.);
#505=ORIENTED_EDGE('',*,*,#389,.F.);
#506=ORIENTED_EDGE('',*,*,#390,.T.);
#507=ORIENTED_EDGE('',*,*,#388,.F.);
#508=ORIENTED_EDGE('',*,*,#391,.T.);
#509=ORIENTED_EDGE('',*,*,#392,.T.);
#510=ORIENTED_EDGE('',*,*,#393,.T.);
#511=ORIENTED_EDGE('',*,*,#391,.F.);
#512=ORIENTED_EDGE('',*,*,#390,.F.);
#513=ORIENTED_EDGE('',*,*,#394,.T.);
#514=ORIENTED_EDGE('',*,*,#392,.F.);
#515=ORIENTED_EDGE('',*,*,#393,.F.);
#516=ORIENTED_EDGE('',*,*,#394,.F.);
#517=ORIENTED_EDGE('',*,*,#363,.F.);
#518=ORIENTED_EDGE('',*,*,#395,.T.);
#519=ORIENTED_EDGE('',*,*,#396,.T.);
#520=ORIENTED_EDGE('',*,*,#397,.F.);
#521=ORIENTED_EDGE('',*,*,#364,.F.);
#522=ORIENTED_EDGE('',*,*,#397,.T.);
#523=ORIENTED_EDGE('',*,*,#398,.T.);
#524=ORIENTED_EDGE('',*,*,#399,.F.);
#525=ORIENTED_EDGE('',*,*,#365,.F.);
#526=ORIENTED_EDGE('',*,*,#399,.T.);
#527=ORIENTED_EDGE('',*,*,#400,.T.);
#528=ORIENTED_EDGE('',*,*,#401,.F.);
#529=ORIENTED_EDGE('',*,*,#366,.F.);
#530=ORIENTED_EDGE('',*,*,#401,.T.);
#531=ORIENTED_EDGE('',*,*,#402,.T.);
#532=ORIENTED_EDGE('',*,*,#403,.F.);
#533=ORIENTED_EDGE('',*,*,#367,.F.);
#534=ORIENTED_EDGE('',*,*,#403,.T.);
#535=ORIENTED_EDGE('',*,*,#404,.T.);
#536=ORIENTED_EDGE('',*,*,#405,.F.);
#537=ORIENTED_EDGE('',*,*,#368,.F.);
#538=ORIENTED_EDGE('',*,*,#405,.T.);
#539=ORIENTED_EDGE('',*,*,#406,.T.);
#540=ORIENTED_EDGE('',*,*,#407,.F.);
#541=ORIENTED_EDGE('',*,*,#369,.F.);
#542=ORIENTED_EDGE('',*,*,#407,.T.);
#543=ORIENTED_EDGE('',*,*,#408,.T.);
#544=ORIENTED_EDGE('',*,*,#409,.F.);
#545=ORIENTED_EDGE('',*,*,#370,.F.);
#546=ORIENTED_EDGE('',*,*,#409,.T.);
#547=ORIENTED_EDGE('',*,*,#410,.T.);
#548=ORIENTED_EDGE('',*,*,#395,.F.);
#549=ORIENTED_EDGE('',*,*,#411,.F.);
#550=ORIENTED_EDGE('',*,*,#412,.T.);
#551=ORIENTED_EDGE('',*,*,#410,.F.);
#552=ORIENTED_EDGE('',*,*,#413,.F.);
#553=ORIENTED_EDGE('',*,*,#414,.F.);
#554=ORIENTED_EDGE('',*,*,#415,.T.);
#555=ORIENTED_EDGE('',*,*,#411,.T.);
#556=ORIENTED_EDGE('',*,*,#416,.F.);
#557=ORIENTED_EDGE('',*,*,#417,.T.);
#558=ORIENTED_EDGE('',*,*,#418,.T.);
#559=ORIENTED_EDGE('',*,*,#419,.T.);
#560=ORIENTED_EDGE('',*,*,#420,.T.);
#561=ORIENTED_EDGE('',*,*,#421,.T.);
#562=ORIENTED_EDGE('',*,*,#414,.T.);
#563=ORIENTED_EDGE('',*,*,#422,.T.);
#564=ORIENTED_EDGE('',*,*,#423,.T.);
#565=ORIENTED_EDGE('',*,*,#424,.F.);
#566=ORIENTED_EDGE('',*,*,#425,.F.);
#567=ORIENTED_EDGE('',*,*,#426,.F.);
#568=ORIENTED_EDGE('',*,*,#427,.F.);
#569=ORIENTED_EDGE('',*,*,#428,.T.);
#570=ORIENTED_EDGE('',*,*,#426,.T.);
#571=ORIENTED_EDGE('',*,*,#428,.F.);
#572=ORIENTED_EDGE('',*,*,#429,.T.);
#573=ORIENTED_EDGE('',*,*,#430,.T.);
#574=ORIENTED_EDGE('',*,*,#427,.T.);
#575=ORIENTED_EDGE('',*,*,#430,.F.);
#576=ORIENTED_EDGE('',*,*,#431,.T.);
#577=ORIENTED_EDGE('',*,*,#429,.F.);
#578=ORIENTED_EDGE('',*,*,#431,.F.);
#579=ORIENTED_EDGE('',*,*,#432,.F.);
#580=ORIENTED_EDGE('',*,*,#433,.T.);
#581=ORIENTED_EDGE('',*,*,#424,.T.);
#582=ORIENTED_EDGE('',*,*,#433,.F.);
#583=ORIENTED_EDGE('',*,*,#434,.T.);
#584=ORIENTED_EDGE('',*,*,#435,.T.);
#585=ORIENTED_EDGE('',*,*,#432,.T.);
#586=ORIENTED_EDGE('',*,*,#435,.F.);
#587=ORIENTED_EDGE('',*,*,#436,.T.);
#588=ORIENTED_EDGE('',*,*,#434,.F.);
#589=ORIENTED_EDGE('',*,*,#436,.F.);
#590=ORIENTED_EDGE('',*,*,#437,.F.);
#591=ORIENTED_EDGE('',*,*,#438,.T.);
#592=ORIENTED_EDGE('',*,*,#425,.T.);
#593=ORIENTED_EDGE('',*,*,#438,.F.);
#594=ORIENTED_EDGE('',*,*,#439,.T.);
#595=ORIENTED_EDGE('',*,*,#440,.T.);
#596=ORIENTED_EDGE('',*,*,#437,.T.);
#597=ORIENTED_EDGE('',*,*,#440,.F.);
#598=ORIENTED_EDGE('',*,*,#441,.T.);
#599=ORIENTED_EDGE('',*,*,#439,.F.);
#600=ORIENTED_EDGE('',*,*,#441,.F.);
#601=ORIENTED_EDGE('',*,*,#417,.F.);
#602=ORIENTED_EDGE('',*,*,#442,.T.);
#603=ORIENTED_EDGE('',*,*,#443,.T.);
#604=ORIENTED_EDGE('',*,*,#444,.F.);
#605=ORIENTED_EDGE('',*,*,#418,.F.);
#606=ORIENTED_EDGE('',*,*,#444,.T.);
#607=ORIENTED_EDGE('',*,*,#445,.T.);
#608=ORIENTED_EDGE('',*,*,#446,.F.);
#609=ORIENTED_EDGE('',*,*,#419,.F.);
#610=ORIENTED_EDGE('',*,*,#446,.T.);
#611=ORIENTED_EDGE('',*,*,#447,.T.);
#612=ORIENTED_EDGE('',*,*,#448,.F.);
#613=ORIENTED_EDGE('',*,*,#420,.F.);
#614=ORIENTED_EDGE('',*,*,#448,.T.);
#615=ORIENTED_EDGE('',*,*,#449,.T.);
#616=ORIENTED_EDGE('',*,*,#450,.F.);
#617=ORIENTED_EDGE('',*,*,#421,.F.);
#618=ORIENTED_EDGE('',*,*,#450,.T.);
#619=ORIENTED_EDGE('',*,*,#451,.T.);
#620=ORIENTED_EDGE('',*,*,#415,.F.);
#621=ORIENTED_EDGE('',*,*,#451,.F.);
#622=ORIENTED_EDGE('',*,*,#452,.T.);
#623=ORIENTED_EDGE('',*,*,#396,.F.);
#624=ORIENTED_EDGE('',*,*,#412,.F.);
#625=ORIENTED_EDGE('',*,*,#449,.F.);
#626=ORIENTED_EDGE('',*,*,#453,.T.);
#627=ORIENTED_EDGE('',*,*,#398,.F.);
#628=ORIENTED_EDGE('',*,*,#452,.F.);
#629=ORIENTED_EDGE('',*,*,#447,.F.);
#630=ORIENTED_EDGE('',*,*,#454,.T.);
#631=ORIENTED_EDGE('',*,*,#400,.F.);
#632=ORIENTED_EDGE('',*,*,#453,.F.);
#633=ORIENTED_EDGE('',*,*,#445,.F.);
#634=ORIENTED_EDGE('',*,*,#455,.F.);
#635=ORIENTED_EDGE('',*,*,#402,.F.);
#636=ORIENTED_EDGE('',*,*,#454,.F.);
#637=ORIENTED_EDGE('',*,*,#443,.F.);
#638=ORIENTED_EDGE('',*,*,#456,.F.);
#639=ORIENTED_EDGE('',*,*,#404,.F.);
#640=ORIENTED_EDGE('',*,*,#455,.T.);
#641=ORIENTED_EDGE('',*,*,#457,.F.);
#642=ORIENTED_EDGE('',*,*,#458,.T.);
#643=ORIENTED_EDGE('',*,*,#406,.F.);
#644=ORIENTED_EDGE('',*,*,#456,.T.);
#645=ORIENTED_EDGE('',*,*,#423,.F.);
#646=ORIENTED_EDGE('',*,*,#459,.T.);
#647=ORIENTED_EDGE('',*,*,#457,.T.);
#648=ORIENTED_EDGE('',*,*,#442,.F.);
#649=ORIENTED_EDGE('',*,*,#422,.F.);
#650=ORIENTED_EDGE('',*,*,#416,.T.);
#651=ORIENTED_EDGE('',*,*,#460,.T.);
#652=ORIENTED_EDGE('',*,*,#459,.F.);
#653=ORIENTED_EDGE('',*,*,#460,.F.);
#654=ORIENTED_EDGE('',*,*,#413,.T.);
#655=ORIENTED_EDGE('',*,*,#408,.F.);
#656=ORIENTED_EDGE('',*,*,#458,.F.);
#657=PLANE('',#729);
#658=PLANE('',#760);
#659=PLANE('',#763);
#660=PLANE('',#766);
#661=PLANE('',#769);
#662=PLANE('',#770);
#663=PLANE('',#771);
#664=PLANE('',#772);
#665=PLANE('',#797);
#666=PLANE('',#800);
#667=PLANE('',#804);
#668=PLANE('',#806);
#669=PLANE('',#808);
#670=PLANE('',#809);
#671=ADVANCED_FACE('',(#51,#45,#46,#47),#657,.F.);
#672=ADVANCED_FACE('',(#52),#25,.F.);
#673=ADVANCED_FACE('',(#53),#15,.F.);
#674=ADVANCED_FACE('',(#54),#26,.F.);
#675=ADVANCED_FACE('',(#55),#27,.F.);
#676=ADVANCED_FACE('',(#56),#16,.F.);
#677=ADVANCED_FACE('',(#57),#28,.F.);
#678=ADVANCED_FACE('',(#58),#29,.F.);
#679=ADVANCED_FACE('',(#59),#17,.F.);
#680=ADVANCED_FACE('',(#60),#30,.F.);
#681=ADVANCED_FACE('',(#61),#31,.T.);
#682=ADVANCED_FACE('',(#62),#658,.T.);
#683=ADVANCED_FACE('',(#63),#32,.T.);
#684=ADVANCED_FACE('',(#64),#659,.T.);
#685=ADVANCED_FACE('',(#65),#33,.T.);
#686=ADVANCED_FACE('',(#66),#660,.T.);
#687=ADVANCED_FACE('',(#67),#34,.T.);
#688=ADVANCED_FACE('',(#68),#661,.T.);
#689=ADVANCED_FACE('',(#69),#662,.T.);
#690=ADVANCED_FACE('',(#70),#663,.T.);
#691=ADVANCED_FACE('',(#71,#48,#49,#50),#664,.T.);
#692=ADVANCED_FACE('',(#72),#35,.F.);
#693=ADVANCED_FACE('',(#73),#18,.F.);
#694=ADVANCED_FACE('',(#74),#36,.F.);
#695=ADVANCED_FACE('',(#75),#37,.F.);
#696=ADVANCED_FACE('',(#76),#19,.F.);
#697=ADVANCED_FACE('',(#77),#38,.F.);
#698=ADVANCED_FACE('',(#78),#39,.F.);
#699=ADVANCED_FACE('',(#79),#20,.F.);
#700=ADVANCED_FACE('',(#80),#40,.F.);
#701=ADVANCED_FACE('',(#81),#41,.T.);
#702=ADVANCED_FACE('',(#82),#665,.T.);
#703=ADVANCED_FACE('',(#83),#42,.T.);
#704=ADVANCED_FACE('',(#84),#666,.T.);
#705=ADVANCED_FACE('',(#85),#43,.T.);
#706=ADVANCED_FACE('',(#86),#21,.T.);
#707=ADVANCED_FACE('',(#87),#667,.T.);
#708=ADVANCED_FACE('',(#88),#22,.T.);
#709=ADVANCED_FACE('',(#89),#668,.T.);
#710=ADVANCED_FACE('',(#90),#23,.T.);
#711=ADVANCED_FACE('',(#91),#669,.T.);
#712=ADVANCED_FACE('',(#92),#670,.T.);
#713=ADVANCED_FACE('',(#93),#44,.T.);
#714=ADVANCED_FACE('',(#94),#24,.T.);
#715=CLOSED_SHELL('',(#671,#672,#673,#674,#675,#676,#677,#678,#679,#680,
#681,#682,#683,#684,#685,#686,#687,#688,#689,#690,#691,#692,#693,#694,#695,
#696,#697,#698,#699,#700,#701,#702,#703,#704,#705,#706,#707,#708,#709,#710,
#711,#712,#713,#714));
#716=DERIVED_UNIT_ELEMENT(#718,1.);
#717=DERIVED_UNIT_ELEMENT(#1251,-3.);
#718=(
MASS_UNIT()
NAMED_UNIT(*)
SI_UNIT(.KILO.,.GRAM.)
);
#719=DERIVED_UNIT((#716,#717));
#720=MEASURE_REPRESENTATION_ITEM('density measure',
POSITIVE_RATIO_MEASURE(7850.),#719);
#721=PROPERTY_DEFINITION_REPRESENTATION(#726,#723);
#722=PROPERTY_DEFINITION_REPRESENTATION(#727,#724);
#723=REPRESENTATION('material name',(#725),#1248);
#724=REPRESENTATION('density',(#720),#1248);
#725=DESCRIPTIVE_REPRESENTATION_ITEM('\X2\94A2\X0\','\X2\94A2\X0\');
#726=PROPERTY_DEFINITION('material property','material name',#1258);
#727=PROPERTY_DEFINITION('material property','density of part',#1258);
#728=AXIS2_PLACEMENT_3D('',#1041,#813,#814);
#729=AXIS2_PLACEMENT_3D('',#1042,#815,#816);
#730=AXIS2_PLACEMENT_3D('',#1045,#817,#818);
#731=AXIS2_PLACEMENT_3D('',#1049,#820,#821);
#732=AXIS2_PLACEMENT_3D('',#1053,#823,#824);
#733=AXIS2_PLACEMENT_3D('',#1057,#826,#827);
#734=AXIS2_PLACEMENT_3D('',#1060,#829,#830);
#735=AXIS2_PLACEMENT_3D('',#1062,#831,#832);
#736=AXIS2_PLACEMENT_3D('',#1064,#833,#834);
#737=AXIS2_PLACEMENT_3D('',#1065,#835,#836);
#738=AXIS2_PLACEMENT_3D('',#1068,#837,#838);
#739=AXIS2_PLACEMENT_3D('',#1070,#840,#841);
#740=AXIS2_PLACEMENT_3D('',#1071,#842,#843);
#741=AXIS2_PLACEMENT_3D('',#1075,#845,#846);
#742=AXIS2_PLACEMENT_3D('',#1076,#847,#848);
#743=AXIS2_PLACEMENT_3D('',#1077,#849,#850);
#744=AXIS2_PLACEMENT_3D('',#1080,#852,#853);
#745=AXIS2_PLACEMENT_3D('',#1083,#854,#855);
#746=AXIS2_PLACEMENT_3D('',#1085,#857,#858);
#747=AXIS2_PLACEMENT_3D('',#1086,#859,#860);
#748=AXIS2_PLACEMENT_3D('',#1090,#862,#863);
#749=AXIS2_PLACEMENT_3D('',#1091,#864,#865);
#750=AXIS2_PLACEMENT_3D('',#1092,#866,#867);
#751=AXIS2_PLACEMENT_3D('',#1095,#869,#870);
#752=AXIS2_PLACEMENT_3D('',#1098,#871,#872);
#753=AXIS2_PLACEMENT_3D('',#1100,#874,#875);
#754=AXIS2_PLACEMENT_3D('',#1101,#876,#877);
#755=AXIS2_PLACEMENT_3D('',#1105,#879,#880);
#756=AXIS2_PLACEMENT_3D('',#1106,#881,#882);
#757=AXIS2_PLACEMENT_3D('',#1107,#883,#884);
#758=AXIS2_PLACEMENT_3D('',#1110,#886,#887);
#759=AXIS2_PLACEMENT_3D('',#1114,#889,#890);
#760=AXIS2_PLACEMENT_3D('',#1116,#892,#893);
#761=AXIS2_PLACEMENT_3D('',#1120,#896,#897);
#762=AXIS2_PLACEMENT_3D('',#1122,#898,#899);
#763=AXIS2_PLACEMENT_3D('',#1124,#901,#902);
#764=AXIS2_PLACEMENT_3D('',#1128,#905,#906);
#765=AXIS2_PLACEMENT_3D('',#1130,#907,#908);
#766=AXIS2_PLACEMENT_3D('',#1132,#910,#911);
#767=AXIS2_PLACEMENT_3D('',#1136,#914,#915);
#768=AXIS2_PLACEMENT_3D('',#1138,#916,#917);
#769=AXIS2_PLACEMENT_3D('',#1140,#919,#920);
#770=AXIS2_PLACEMENT_3D('',#1142,#922,#923);
#771=AXIS2_PLACEMENT_3D('',#1148,#927,#928);
#772=AXIS2_PLACEMENT_3D('',#1154,#932,#933);
#773=AXIS2_PLACEMENT_3D('',#1157,#934,#935);
#774=AXIS2_PLACEMENT_3D('',#1161,#937,#938);
#775=AXIS2_PLACEMENT_3D('',#1164,#940,#941);
#776=AXIS2_PLACEMENT_3D('',#1166,#942,#943);
#777=AXIS2_PLACEMENT_3D('',#1169,#945,#946);
#778=AXIS2_PLACEMENT_3D('',#1171,#947,#948);
#779=AXIS2_PLACEMENT_3D('',#1173,#949,#950);
#780=AXIS2_PLACEMENT_3D('',#1174,#951,#952);
#781=AXIS2_PLACEMENT_3D('',#1176,#953,#954);
#782=AXIS2_PLACEMENT_3D('',#1178,#956,#957);
#783=AXIS2_PLACEMENT_3D('',#1180,#958,#959);
#784=AXIS2_PLACEMENT_3D('',#1182,#961,#962);
#785=AXIS2_PLACEMENT_3D('',#1185,#964,#965);
#786=AXIS2_PLACEMENT_3D('',#1187,#966,#967);
#787=AXIS2_PLACEMENT_3D('',#1189,#969,#970);
#788=AXIS2_PLACEMENT_3D('',#1191,#971,#972);
#789=AXIS2_PLACEMENT_3D('',#1193,#974,#975);
#790=AXIS2_PLACEMENT_3D('',#1196,#977,#978);
#791=AXIS2_PLACEMENT_3D('',#1198,#979,#980);
#792=AXIS2_PLACEMENT_3D('',#1200,#982,#983);
#793=AXIS2_PLACEMENT_3D('',#1202,#984,#985);
#794=AXIS2_PLACEMENT_3D('',#1204,#987,#988);
#795=AXIS2_PLACEMENT_3D('',#1207,#990,#991);
#796=AXIS2_PLACEMENT_3D('',#1211,#993,#994);
#797=AXIS2_PLACEMENT_3D('',#1213,#996,#997);
#798=AXIS2_PLACEMENT_3D('',#1217,#1000,#1001);
#799=AXIS2_PLACEMENT_3D('',#1219,#1002,#1003);
#800=AXIS2_PLACEMENT_3D('',#1221,#1005,#1006);
#801=AXIS2_PLACEMENT_3D('',#1225,#1009,#1010);
#802=AXIS2_PLACEMENT_3D('',#1226,#1011,#1012);
#803=AXIS2_PLACEMENT_3D('',#1227,#1013,#1014);
#804=AXIS2_PLACEMENT_3D('',#1229,#1016,#1017);
#805=AXIS2_PLACEMENT_3D('',#1231,#1019,#1020);
#806=AXIS2_PLACEMENT_3D('',#1233,#1022,#1023);
#807=AXIS2_PLACEMENT_3D('',#1235,#1025,#1026);
#808=AXIS2_PLACEMENT_3D('',#1237,#1028,#1029);
#809=AXIS2_PLACEMENT_3D('',#1241,#1032,#1033);
#810=AXIS2_PLACEMENT_3D('',#1243,#1035,#1036);
#811=AXIS2_PLACEMENT_3D('',#1244,#1037,#1038);
#812=AXIS2_PLACEMENT_3D('',#1245,#1039,#1040);
#813=DIRECTION('axis',(0.,0.,1.));
#814=DIRECTION('refdir',(1.,0.,0.));
#815=DIRECTION('center_axis',(0.,0.,1.));
#816=DIRECTION('ref_axis',(1.,0.,0.));
#817=DIRECTION('center_axis',(0.,0.,-1.));
#818=DIRECTION('ref_axis',(0.,-1.,0.));
#819=DIRECTION('',(-2.625776356901E-11,1.,2.625791987673E-11));
#820=DIRECTION('center_axis',(0.,0.,-1.));
#821=DIRECTION('ref_axis',(-1.,0.,0.));
#822=DIRECTION('',(1.,8.643120808988E-11,8.643180020883E-11));
#823=DIRECTION('center_axis',(0.,0.,-1.));
#824=DIRECTION('ref_axis',(1.209434443847E-14,1.,0.));
#825=DIRECTION('',(-0.615661475353706,-0.788010753584808,-3.55872020906604E-11));
#826=DIRECTION('center_axis',(0.,0.,-1.));
#827=DIRECTION('ref_axis',(0.788010753606693,-0.615661475325695,0.));
#828=DIRECTION('',(-1.,6.128245600077E-11,-6.128092901659E-11));
#829=DIRECTION('center_axis',(0.,0.,1.));
#830=DIRECTION('ref_axis',(-1.,0.,0.));
#831=DIRECTION('center_axis',(0.,0.,1.));
#832=DIRECTION('ref_axis',(-1.,0.,0.));
#833=DIRECTION('center_axis',(0.,0.,1.));
#834=DIRECTION('ref_axis',(-1.,0.,0.));
#835=DIRECTION('center_axis',(0.,0.,-1.));
#836=DIRECTION('ref_axis',(1.,0.,0.));
#837=DIRECTION('center_axis',(0.,0.,1.));
#838=DIRECTION('ref_axis',(-1.,0.,0.));
#839=DIRECTION('',(-0.707106781186547,8.65956056235493E-17,-0.707106781186547));
#840=DIRECTION('center_axis',(0.,0.,1.));
#841=DIRECTION('ref_axis',(-1.,0.,0.));
#842=DIRECTION('center_axis',(0.,0.,1.));
#843=DIRECTION('ref_axis',(-1.,0.,0.));
#844=DIRECTION('',(0.,0.,1.));
#845=DIRECTION('center_axis',(0.,0.,1.));
#846=DIRECTION('ref_axis',(-1.,0.,0.));
#847=DIRECTION('center_axis',(0.,0.,1.));
#848=DIRECTION('ref_axis',(-1.,0.,0.));
#849=DIRECTION('center_axis',(0.,0.,-1.));
#850=DIRECTION('ref_axis',(1.,0.,0.));
#851=DIRECTION('',(-0.857167300702112,1.04972719113862E-16,-0.515038074910054));
#852=DIRECTION('center_axis',(0.,0.,-1.));
#853=DIRECTION('ref_axis',(1.,0.,0.));
#854=DIRECTION('center_axis',(0.,0.,1.));
#855=DIRECTION('ref_axis',(-1.,0.,0.));
#856=DIRECTION('',(-0.707106781186547,8.65956056235493E-17,-0.707106781186547));
#857=DIRECTION('center_axis',(0.,0.,1.));
#858=DIRECTION('ref_axis',(-1.,0.,0.));
#859=DIRECTION('center_axis',(0.,0.,1.));
#860=DIRECTION('ref_axis',(-1.,0.,0.));
#861=DIRECTION('',(0.,0.,1.));
#862=DIRECTION('center_axis',(0.,0.,1.));
#863=DIRECTION('ref_axis',(-1.,0.,0.));
#864=DIRECTION('center_axis',(0.,0.,1.));
#865=DIRECTION('ref_axis',(-1.,0.,0.));
#866=DIRECTION('center_axis',(0.,0.,-1.));
#867=DIRECTION('ref_axis',(1.,0.,0.));
#868=DIRECTION('',(-0.857167300702112,1.04972719113862E-16,-0.515038074910054));
#869=DIRECTION('center_axis',(0.,0.,-1.));
#870=DIRECTION('ref_axis',(1.,0.,0.));
#871=DIRECTION('center_axis',(0.,0.,1.));
#872=DIRECTION('ref_axis',(-1.,0.,0.));
#873=DIRECTION('',(-0.707106781186547,8.65956056235493E-17,-0.707106781186547));
#874=DIRECTION('center_axis',(0.,0.,1.));
#875=DIRECTION('ref_axis',(-1.,0.,0.));
#876=DIRECTION('center_axis',(0.,0.,1.));
#877=DIRECTION('ref_axis',(-1.,0.,0.));
#878=DIRECTION('',(0.,0.,1.));
#879=DIRECTION('center_axis',(0.,0.,1.));
#880=DIRECTION('ref_axis',(-1.,0.,0.));
#881=DIRECTION('center_axis',(0.,0.,1.));
#882=DIRECTION('ref_axis',(-1.,0.,0.));
#883=DIRECTION('center_axis',(0.,0.,-1.));
#884=DIRECTION('ref_axis',(1.,0.,0.));
#885=DIRECTION('',(-0.857167300702112,1.04972719113862E-16,-0.515038074910054));
#886=DIRECTION('center_axis',(0.,0.,1.));
#887=DIRECTION('ref_axis',(0.,-1.,0.));
#888=DIRECTION('',(-9.31787226849997E-9,-0.707106781186597,0.707106781186498));
#889=DIRECTION('center_axis',(0.,0.,-1.));
#890=DIRECTION('ref_axis',(0.,-1.,0.));
#891=DIRECTION('',(-0.707106781186598,-3.05095341989999E-9,0.707106781186498));
#892=DIRECTION('center_axis',(-0.707106781186498,0.,-0.707106781186598));
#893=DIRECTION('ref_axis',(-0.707106781186598,0.,0.707106781186498));
#894=DIRECTION('',(-2.316858698E-11,1.,2.316855484196E-11));
#895=DIRECTION('',(-0.707106781186597,9.31785813766797E-9,0.707106781186498));
#896=DIRECTION('center_axis',(0.,0.,1.));
#897=DIRECTION('ref_axis',(-0.707106785886312,0.707106776486783,0.));
#898=DIRECTION('center_axis',(0.,0.,-1.));
#899=DIRECTION('ref_axis',(-1.,0.,0.));
#900=DIRECTION('',(-3.05094452270999E-9,0.707106781186598,0.707106781186498));
#901=DIRECTION('center_axis',(0.,0.707106781186498,-0.707106781186598));
#902=DIRECTION('ref_axis',(0.,0.707106781186598,0.707106781186498));
#903=DIRECTION('',(1.,8.016106313967E-11,8.016145788564E-11));
#904=DIRECTION('',(1.65951571299299E-8,0.707106781186597,0.707106781186497));
#905=DIRECTION('center_axis',(0.,0.,1.));
#906=DIRECTION('ref_axis',(0.898794046366395,0.43837114665124,0.));
#907=DIRECTION('center_axis',(0.,0.,-1.));
#908=DIRECTION('ref_axis',(0.,1.,0.));
#909=DIRECTION('',(0.557207758164383,-0.435338390497987,0.707106781186579));
#910=DIRECTION('center_axis',(0.557207747523226,-0.435338404118121,-0.707106781186534));
#911=DIRECTION('ref_axis',(0.557207747523204,-0.435338404118104,0.707106781186562));
#912=DIRECTION('',(-0.615661475352303,-0.788010753585904,-3.38033715129802E-11));
#913=DIRECTION('',(0.5572077448153,-0.435338407584,0.7071067811866));
#914=DIRECTION('center_axis',(0.,0.,1.));
#915=DIRECTION('ref_axis',(0.,-1.,0.));
#916=DIRECTION('center_axis',(0.,0.,-1.));
#917=DIRECTION('ref_axis',(0.788010753606693,-0.615661475325695,0.));
#918=DIRECTION('',(-1.332736347375E-10,-0.707106781186597,0.707106781186498));
#919=DIRECTION('center_axis',(0.,-0.707106781186548,-0.707106781186548));
#920=DIRECTION('ref_axis',(0.,-0.707106781186548,0.707106781186548));
#921=DIRECTION('',(-1.,5.407050970719E-11,-5.407165494532E-11));
#922=DIRECTION('center_axis',(0.,-1.,0.));
#923=DIRECTION('ref_axis',(1.,0.,0.));
#924=DIRECTION('',(1.,-5.407050970719E-11,-5.407127319927E-11));
#925=DIRECTION('',(0.,0.,-1.));
#926=DIRECTION('',(0.,0.,-1.));
#927=DIRECTION('center_axis',(0.,-0.707106781186548,0.707106781186548));
#928=DIRECTION('ref_axis',(0.,-0.707106781186548,-0.707106781186548));
#929=DIRECTION('',(1.,-6.127940203241E-11,-6.128092901659E-11));
#930=DIRECTION('',(-9.31787174513597E-9,-0.707106781186498,-0.707106781186597));
#931=DIRECTION('',(-1.332778216507E-10,-0.707106781186498,-0.707106781186597));
#932=DIRECTION('center_axis',(0.,0.,1.));
#933=DIRECTION('ref_axis',(1.,0.,0.));
#934=DIRECTION('center_axis',(0.,0.,1.));
#935=DIRECTION('ref_axis',(0.788010753606742,-0.615661475325633,0.));
#936=DIRECTION('',(-1.,-8.643120808988E-11,8.643199758181E-11));
#937=DIRECTION('center_axis',(0.,0.,1.));
#938=DIRECTION('ref_axis',(0.,1.,0.));
#939=DIRECTION('',(2.625775224766E-11,-1.,2.625791987673E-11));
#940=DIRECTION('center_axis',(0.,0.,1.));
#941=DIRECTION('ref_axis',(-1.,0.,0.));
#942=DIRECTION('center_axis',(0.,0.,1.));
#943=DIRECTION('ref_axis',(0.,-1.,0.));
#944=DIRECTION('',(0.615661475353706,0.788010753584808,-3.55870042828804E-11));
#945=DIRECTION('center_axis',(0.,0.,1.));
#946=DIRECTION('ref_axis',(-1.,0.,0.));
#947=DIRECTION('center_axis',(0.,0.,1.));
#948=DIRECTION('ref_axis',(-1.,0.,0.));
#949=DIRECTION('center_axis',(0.,0.,1.));
#950=DIRECTION('ref_axis',(-1.,0.,0.));
#951=DIRECTION('center_axis',(0.,0.,1.));
#952=DIRECTION('ref_axis',(-1.,0.,0.));
#953=DIRECTION('center_axis',(0.,0.,1.));
#954=DIRECTION('ref_axis',(-1.,0.,0.));
#955=DIRECTION('',(0.707106781186547,8.65956056235493E-17,0.707106781186547));
#956=DIRECTION('center_axis',(0.,0.,1.));
#957=DIRECTION('ref_axis',(-1.,0.,0.));
#958=DIRECTION('center_axis',(0.,0.,-1.));
#959=DIRECTION('ref_axis',(-1.,0.,0.));
#960=DIRECTION('',(0.,0.,1.));
#961=DIRECTION('center_axis',(0.,0.,1.));
#962=DIRECTION('ref_axis',(-1.,0.,0.));
#963=DIRECTION('',(0.857167300702112,1.04972719113862E-16,0.515038074910054));
#964=DIRECTION('center_axis',(0.,0.,1.));
#965=DIRECTION('ref_axis',(-1.,0.,0.));
#966=DIRECTION('center_axis',(0.,0.,1.));
#967=DIRECTION('ref_axis',(-1.,0.,0.));
#968=DIRECTION('',(0.707106781186547,8.65956056235493E-17,0.707106781186547));
#969=DIRECTION('center_axis',(0.,0.,1.));
#970=DIRECTION('ref_axis',(-1.,0.,0.));
#971=DIRECTION('center_axis',(0.,0.,-1.));
#972=DIRECTION('ref_axis',(-1.,0.,0.));
#973=DIRECTION('',(0.,0.,1.));
#974=DIRECTION('center_axis',(0.,0.,1.));
#975=DIRECTION('ref_axis',(-1.,0.,0.));
#976=DIRECTION('',(0.857167300702112,1.04972719113862E-16,0.515038074910054));
#977=DIRECTION('center_axis',(0.,0.,1.));
#978=DIRECTION('ref_axis',(-1.,0.,0.));
#979=DIRECTION('center_axis',(0.,0.,1.));
#980=DIRECTION('ref_axis',(-1.,0.,0.));
#981=DIRECTION('',(0.707106781186547,8.65956056235493E-17,0.707106781186547));
#982=DIRECTION('center_axis',(0.,0.,1.));
#983=DIRECTION('ref_axis',(-1.,0.,0.));
#984=DIRECTION('center_axis',(0.,0.,-1.));
#985=DIRECTION('ref_axis',(-1.,0.,0.));
#986=DIRECTION('',(0.,0.,1.));
#987=DIRECTION('center_axis',(0.,0.,1.));
#988=DIRECTION('ref_axis',(-1.,0.,0.));
#989=DIRECTION('',(0.857167300702112,1.04972719113862E-16,0.515038074910054));
#990=DIRECTION('center_axis',(0.,0.,-1.));
#991=DIRECTION('ref_axis',(0.898794046366395,0.438371146651239,0.));
#992=DIRECTION('',(0.55720775816429,-0.435338390498092,-0.707106781186587));
#993=DIRECTION('center_axis',(0.,0.,1.));
#994=DIRECTION('ref_axis',(0.788010753606693,-0.615661475325695,0.));
#995=DIRECTION('',(1.65951571299299E-8,0.707106781186597,-0.707106781186497));
#996=DIRECTION('center_axis',(0.,0.707106781186548,0.707106781186548));
#997=DIRECTION('ref_axis',(0.,0.707106781186548,-0.707106781186548));
#998=DIRECTION('',(-1.,-8.016106313967E-11,8.01618526316E-11));
#999=DIRECTION('',(-3.05094504607399E-9,0.707106781186598,-0.707106781186498));
#1000=DIRECTION('center_axis',(0.,0.,-1.));
#1001=DIRECTION('ref_axis',(-0.707106785886313,0.707106776486782,0.));
#1002=DIRECTION('center_axis',(0.,0.,1.));
#1003=DIRECTION('ref_axis',(0.,1.,0.));
#1004=DIRECTION('',(-0.707106781186597,9.31789163297397E-9,-0.707106781186498));
#1005=DIRECTION('center_axis',(-0.707106781186498,0.,0.707106781186598));
#1006=DIRECTION('ref_axis',(-0.707106781186598,0.,-0.707106781186498));
#1007=DIRECTION('',(2.316862496131E-11,-1.,2.316855484196E-11));
#1008=DIRECTION('',(-0.707106781186598,-3.05095341989999E-9,-0.707106781186498));
#1009=DIRECTION('center_axis',(0.,0.,-1.));
#1010=DIRECTION('ref_axis',(0.,-1.,0.));
#1011=DIRECTION('center_axis',(0.,0.,1.));
#1012=DIRECTION('ref_axis',(-1.,0.,0.));
#1013=DIRECTION('center_axis',(0.,0.,-1.));
#1014=DIRECTION('ref_axis',(0.,-1.,0.));
#1015=DIRECTION('',(0.,0.,-1.));
#1016=DIRECTION('center_axis',(-1.,0.,0.));
#1017=DIRECTION('ref_axis',(0.,-1.,0.));
#1018=DIRECTION('',(0.,0.,-1.));
#1019=DIRECTION('center_axis',(0.,0.,-1.));
#1020=DIRECTION('ref_axis',(-1.,0.,0.));
#1021=DIRECTION('',(0.,0.,-1.));
#1022=DIRECTION('center_axis',(0.,1.,0.));
#1023=DIRECTION('ref_axis',(-1.,0.,0.));
#1024=DIRECTION('',(0.,0.,1.));
#1025=DIRECTION('center_axis',(0.,0.,1.));
#1026=DIRECTION('ref_axis',(1.,0.,0.));
#1027=DIRECTION('',(0.,0.,1.));
#1028=DIRECTION('center_axis',(0.788010753606693,-0.615661475325695,0.));
#1029=DIRECTION('ref_axis',(0.615661475325695,0.788010753606693,0.));
#1030=DIRECTION('',(0.615661475352303,0.788010753585904,-3.38033715129802E-11));
#1031=DIRECTION('',(0.,0.,-1.));
#1032=DIRECTION('center_axis',(0.557207747523226,-0.435338404118121,0.707106781186534));
#1033=DIRECTION('ref_axis',(0.557207747523204,-0.435338404118104,-0.707106781186562));
#1034=DIRECTION('',(0.5572077448153,-0.435338407584,-0.7071067811866));
#1035=DIRECTION('center_axis',(0.,0.,-1.));
#1036=DIRECTION('ref_axis',(0.,-1.,0.));
#1037=DIRECTION('center_axis',(0.,0.,1.));
#1038=DIRECTION('ref_axis',(0.,-1.,0.));
#1039=DIRECTION('center_axis',(0.,0.,-1.));
#1040=DIRECTION('ref_axis',(0.788010753606693,-0.615661475325695,0.));
#1041=CARTESIAN_POINT('',(0.,0.,0.));
#1042=CARTESIAN_POINT('Origin',(14.,1.732050807569,-29.75));
#1043=CARTESIAN_POINT('',(1.74840401446735,71.0461339188347,-29.7500000009447));
#1044=CARTESIAN_POINT('',(0.0484039840197291,72.7461339274501,-29.7500000011904));
#1045=CARTESIAN_POINT('Origin',(1.748403982832,72.74613391789,-29.75));
#1046=CARTESIAN_POINT('',(0.048403983985041,91.74613388429,-29.7500000011554));
#1047=CARTESIAN_POINT('',(0.04840398521796,72.7461339289,-29.75000000239));
#1048=CARTESIAN_POINT('',(1.74840399238518,93.4461339167058,-29.7500000011909));
#1049=CARTESIAN_POINT('Origin',(1.748403982832,91.74613391789,-29.75));
#1050=CARTESIAN_POINT('',(19.748403948,93.4461339173386,-29.7500000005547));
#1051=CARTESIAN_POINT('',(1.748403993834,93.44613391551,-29.75000000239));
#1052=CARTESIAN_POINT('',(23.4520545031217,85.8525249565486,-29.7500000002551));
#1053=CARTESIAN_POINT('Origin',(19.74840398283,88.74613391789,-29.75));
#1054=CARTESIAN_POINT('',(12.3945068942854,71.6995094227723,-29.7500000007025));
#1055=CARTESIAN_POINT('',(23.45205450205,85.85252495559,-29.75000000051));
#1056=CARTESIAN_POINT('',(11.0548886041,71.04613391833,-29.75000000044));
#1057=CARTESIAN_POINT('Origin',(11.05488860394,72.74613391789,-29.75));
#1058=CARTESIAN_POINT('',(11.05488860442,71.04613391921,-29.75000000132));
#1059=CARTESIAN_POINT('',(4.38,88.74613391789,-29.75));
#1060=CARTESIAN_POINT('Origin',(6.,88.74613391789,-29.75));
#1061=CARTESIAN_POINT('',(4.38,75.,-29.75));
#1062=CARTESIAN_POINT('Origin',(6.,75.,-29.75));
#1063=CARTESIAN_POINT('',(18.12840398283,88.74613391789,-29.75));
#1064=CARTESIAN_POINT('Origin',(19.74840398283,88.74613391789,-29.75));
#1065=CARTESIAN_POINT('Origin',(19.74840398283,88.74613391789,-29.615));
#1066=CARTESIAN_POINT('',(21.09840398283,88.74613391789,-29.48));
#1067=CARTESIAN_POINT('',(18.39840398283,88.74613391789,-29.48));
#1068=CARTESIAN_POINT('Origin',(19.74840398283,88.74613391789,-29.48));
#1069=CARTESIAN_POINT('',(18.26340398283,88.74613391789,-29.615));
#1070=CARTESIAN_POINT('Origin',(19.74840398283,88.74613391789,-29.48));
#1071=CARTESIAN_POINT('Origin',(19.74840398283,88.74613391789,-16.29828007253));
#1072=CARTESIAN_POINT('',(21.09840398283,88.74613391789,-17.75));
#1073=CARTESIAN_POINT('',(21.09840398283,88.74613391789,-16.29828007253));
#1074=CARTESIAN_POINT('',(18.3984039828322,88.74613391789,-17.7500000000036));
#1075=CARTESIAN_POINT('Origin',(19.74840398283,88.74613391789,-17.75));
#1076=CARTESIAN_POINT('Origin',(19.74840398283,88.74613391789,-17.75));
#1077=CARTESIAN_POINT('Origin',(19.74840398283,88.74613391789,-17.36559169836));
#1078=CARTESIAN_POINT('',(19.74840398283,88.74613391789,-16.93883816431));
#1079=CARTESIAN_POINT('',(19.0381668321028,88.74613391789,-17.36559169836));
#1080=CARTESIAN_POINT('Origin',(6.,88.74613391789,-29.615));
#1081=CARTESIAN_POINT('',(7.35,88.74613391789,-29.48));
#1082=CARTESIAN_POINT('',(4.65,88.74613391789,-29.48));
#1083=CARTESIAN_POINT('Origin',(6.,88.74613391789,-29.48));
#1084=CARTESIAN_POINT('',(4.515,88.74613391789,-29.615));
#1085=CARTESIAN_POINT('Origin',(6.,88.74613391789,-29.48));
#1086=CARTESIAN_POINT('Origin',(6.,88.74613391789,-16.29828007253));
#1087=CARTESIAN_POINT('',(7.35,88.74613391789,-17.75));
#1088=CARTESIAN_POINT('',(7.35,88.74613391789,-16.29828007253));
#1089=CARTESIAN_POINT('',(4.65000000000216,88.74613391789,-17.7500000000036));
#1090=CARTESIAN_POINT('Origin',(6.,88.74613391789,-17.75));
#1091=CARTESIAN_POINT('Origin',(6.,88.74613391789,-17.75));
#1092=CARTESIAN_POINT('Origin',(6.,88.74613391789,-17.36559169836));
#1093=CARTESIAN_POINT('',(6.,88.74613391789,-16.93883816431));
#1094=CARTESIAN_POINT('',(5.2897628492728,88.74613391789,-17.36559169836));
#1095=CARTESIAN_POINT('Origin',(6.,75.,-29.615));
#1096=CARTESIAN_POINT('',(7.35,75.,-29.48));
#1097=CARTESIAN_POINT('',(4.65,75.,-29.48));
#1098=CARTESIAN_POINT('Origin',(6.,75.,-29.48));
#1099=CARTESIAN_POINT('',(4.515,75.,-29.615));
#1100=CARTESIAN_POINT('Origin',(6.,75.,-29.48));
#1101=CARTESIAN_POINT('Origin',(6.,75.,-16.29828007253));
#1102=CARTESIAN_POINT('',(7.35,75.,-17.75));
#1103=CARTESIAN_POINT('',(7.35,75.,-16.29828007253));
#1104=CARTESIAN_POINT('',(4.65000000000216,75.,-17.7500000000036));
#1105=CARTESIAN_POINT('Origin',(6.,75.,-17.75));
#1106=CARTESIAN_POINT('Origin',(6.,75.,-17.75));
#1107=CARTESIAN_POINT('Origin',(6.,75.,-17.36559169836));
#1108=CARTESIAN_POINT('',(6.,75.,-16.93883816431));
#1109=CARTESIAN_POINT('',(5.2897628492728,75.,-17.36559169836));
#1110=CARTESIAN_POINT('Origin',(1.748403982832,72.74613391789,-29.60000000317));
#1111=CARTESIAN_POINT('',(1.74840401155435,70.7461339189645,-29.4500000008655));
#1112=CARTESIAN_POINT('',(1.748404016434,71.04613391978,-29.75000000189));
#1113=CARTESIAN_POINT('',(-0.251596015852524,72.7461339263887,-29.4500000010058));
#1114=CARTESIAN_POINT('Origin',(1.748403982832,72.74613391789,-29.45));
#1115=CARTESIAN_POINT('',(0.04840398521796,72.7461339289,-29.75000000239));
#1116=CARTESIAN_POINT('Origin',(-0.1015960171684,82.24613391789,-29.6));
#1117=CARTESIAN_POINT('',(-0.251596016023074,91.7461338882408,-29.4500000011477));
#1118=CARTESIAN_POINT('',(-0.2515960150628,72.7461339276,-29.45000000211));
#1119=CARTESIAN_POINT('',(0.04840398471906,91.74613388429,-29.75000000189));
#1120=CARTESIAN_POINT('Origin',(1.748403982832,91.74613391789,-29.60000000317));
#1121=CARTESIAN_POINT('',(1.74840399132632,93.7461339165782,-29.4500000010063));
#1122=CARTESIAN_POINT('Origin',(1.748403982832,91.74613391789,-29.45));
#1123=CARTESIAN_POINT('',(1.748403993834,93.44613391551,-29.75000000239));
#1124=CARTESIAN_POINT('Origin',(10.74840398283,93.59613391789,-29.6));
#1125=CARTESIAN_POINT('',(19.74840395504,93.74613391723,-29.45000000066));
#1126=CARTESIAN_POINT('',(1.74840399254,93.74613391579,-29.45000000211));
#1127=CARTESIAN_POINT('',(19.748403948,93.44613391706,-29.75000000083));
#1128=CARTESIAN_POINT('Origin',(19.74840398283,88.74613391789,-29.60000000112));
#1129=CARTESIAN_POINT('',(23.6884577333942,85.6678265193328,-29.4500000002137));
#1130=CARTESIAN_POINT('Origin',(19.74840398283,88.74613391789,-29.45));
#1131=CARTESIAN_POINT('',(23.45205450205,85.85252495559,-29.75000000051));
#1132=CARTESIAN_POINT('Origin',(18.04148231797,78.68366797555,-29.6));
#1133=CARTESIAN_POINT('',(12.6309101192193,71.5148109786974,-29.4500000006961));
#1134=CARTESIAN_POINT('',(23.68845773272,85.66782651871,-29.45000000041));
#1135=CARTESIAN_POINT('',(12.39450689393,71.69950942305,-29.75000000115));
#1136=CARTESIAN_POINT('Origin',(11.05488860394,72.74613391789,-29.60000000175));
#1137=CARTESIAN_POINT('',(11.0548886041534,70.746133918475,-29.45000000029));
#1138=CARTESIAN_POINT('Origin',(11.05488860394,72.74613391789,-29.45));
#1139=CARTESIAN_POINT('',(11.05488860442,71.04613391921,-29.75000000132));
#1140=CARTESIAN_POINT('Origin',(6.401646293387,70.89613391789,-29.6));
#1141=CARTESIAN_POINT('',(11.05488860437,70.74613391906,-29.45000000116));
#1142=CARTESIAN_POINT('Origin',(-0.2515960171684,70.74613391789,-29.75));
#1143=CARTESIAN_POINT('',(1.74840401155435,70.7461339189639,29.450000000868));
#1144=CARTESIAN_POINT('',(11.0548886043684,70.7461339186923,29.4500000008004));
#1145=CARTESIAN_POINT('',(1.748404012481,70.74613391956,29.45000000167));
#1146=CARTESIAN_POINT('',(1.748404012481,70.74613391956,29.45000000167));
#1147=CARTESIAN_POINT('',(11.05488860437,70.74613391906,29.45000000116));
#1148=CARTESIAN_POINT('Origin',(6.401646293387,70.89613391789,29.6));
#1149=CARTESIAN_POINT('',(1.74840401446735,71.0461339188346,29.7500000009446));
#1150=CARTESIAN_POINT('',(11.05488860442,71.0461339186966,29.7500000008066));
#1151=CARTESIAN_POINT('',(1.748404016434,71.04613391978,29.75000000189));
#1152=CARTESIAN_POINT('',(1.748404016434,71.04613391978,29.75000000189));
#1153=CARTESIAN_POINT('',(11.05488860442,71.04613391921,29.75000000132));
#1154=CARTESIAN_POINT('Origin',(14.,1.732050807569,29.75));
#1155=CARTESIAN_POINT('',(23.4520545031194,85.8525249565505,29.750000000256));
#1156=CARTESIAN_POINT('',(19.748403949359,93.4461339174751,29.7500000004149));
#1157=CARTESIAN_POINT('Origin',(19.74840398283,88.74613391789,29.75));
#1158=CARTESIAN_POINT('',(1.748403993834,93.4461339164342,29.7500000014591));
#1159=CARTESIAN_POINT('',(19.748403948,93.44613391706,29.75000000083));
#1160=CARTESIAN_POINT('',(0.0484039837748529,91.7461338862565,29.7500000009448));
#1161=CARTESIAN_POINT('Origin',(1.748403982832,91.74613391789,29.75));
#1162=CARTESIAN_POINT('',(0.0484039842898609,72.7461339289,29.7500000014602));
#1163=CARTESIAN_POINT('',(0.04840398471906,91.74613388429,29.75000000189));
#1164=CARTESIAN_POINT('Origin',(1.748403982832,72.74613391789,29.75));
#1165=CARTESIAN_POINT('',(12.3945068935277,71.6995094215969,29.7500000005738));
#1166=CARTESIAN_POINT('Origin',(11.05488860394,72.74613391789,29.75));
#1167=CARTESIAN_POINT('',(12.39450689393,71.69950942305,29.75000000115));
#1168=CARTESIAN_POINT('',(7.62,88.74613391789,29.75));
#1169=CARTESIAN_POINT('Origin',(6.,88.74613391789,29.75));
#1170=CARTESIAN_POINT('',(7.62,75.,29.75));
#1171=CARTESIAN_POINT('Origin',(6.,75.,29.75));
#1172=CARTESIAN_POINT('',(21.36840398283,88.74613391789,29.75));
#1173=CARTESIAN_POINT('Origin',(19.74840398283,88.74613391789,29.75));
#1174=CARTESIAN_POINT('Origin',(19.74840398283,88.74613391789,29.615));
#1175=CARTESIAN_POINT('',(21.09840398283,88.74613391789,29.48));
#1176=CARTESIAN_POINT('Origin',(19.74840398283,88.74613391789,29.48));
#1177=CARTESIAN_POINT('',(21.23340398283,88.74613391789,29.615));
#1178=CARTESIAN_POINT('Origin',(19.74840398283,88.74613391789,16.29828007253));
#1179=CARTESIAN_POINT('',(21.09840398283,88.74613391789,17.75));
#1180=CARTESIAN_POINT('Origin',(19.74840398283,88.74613391789,17.75));
#1181=CARTESIAN_POINT('',(21.09840398283,88.74613391789,16.29828007253));
#1182=CARTESIAN_POINT('Origin',(19.74840398283,88.74613391789,17.36559169836));
#1183=CARTESIAN_POINT('',(19.74840398283,88.74613391789,16.93883816431));
#1184=CARTESIAN_POINT('',(20.4586411335572,88.74613391789,17.36559169836));
#1185=CARTESIAN_POINT('Origin',(6.,88.74613391789,29.615));
#1186=CARTESIAN_POINT('',(7.35,88.74613391789,29.48));
#1187=CARTESIAN_POINT('Origin',(6.,88.74613391789,29.48));
#1188=CARTESIAN_POINT('',(7.485,88.74613391789,29.615));
#1189=CARTESIAN_POINT('Origin',(6.,88.74613391789,16.29828007253));
#1190=CARTESIAN_POINT('',(7.35,88.74613391789,17.75));
#1191=CARTESIAN_POINT('Origin',(6.,88.74613391789,17.75));
#1192=CARTESIAN_POINT('',(7.35,88.74613391789,16.29828007253));
#1193=CARTESIAN_POINT('Origin',(6.,88.74613391789,17.36559169836));
#1194=CARTESIAN_POINT('',(6.,88.74613391789,16.93883816431));
#1195=CARTESIAN_POINT('',(6.7102371507272,88.74613391789,17.36559169836));
#1196=CARTESIAN_POINT('Origin',(6.,75.,29.615));
#1197=CARTESIAN_POINT('',(7.35,75.,29.48));
#1198=CARTESIAN_POINT('Origin',(6.,75.,29.48));
#1199=CARTESIAN_POINT('',(7.485,75.,29.615));
#1200=CARTESIAN_POINT('Origin',(6.,75.,16.29828007253));
#1201=CARTESIAN_POINT('',(7.35,75.,17.75));
#1202=CARTESIAN_POINT('Origin',(6.,75.,17.75));
#1203=CARTESIAN_POINT('',(7.35,75.,16.29828007253));
#1204=CARTESIAN_POINT('Origin',(6.,75.,17.36559169836));
#1205=CARTESIAN_POINT('',(6.,75.,16.93883816431));
#1206=CARTESIAN_POINT('',(6.7102371507272,75.,17.36559169836));
#1207=CARTESIAN_POINT('Origin',(19.74840398283,88.74613391789,29.60000000112));
#1208=CARTESIAN_POINT('',(23.688457733396,85.6678265193314,29.4500000002105));
#1209=CARTESIAN_POINT('',(23.45205450205,85.85252495559,29.75000000051));
#1210=CARTESIAN_POINT('',(19.7484039559088,93.7461339174656,29.4500000003431));
#1211=CARTESIAN_POINT('Origin',(19.74840398283,88.74613391789,29.45));
#1212=CARTESIAN_POINT('',(19.748403948,93.44613391706,29.75000000083));
#1213=CARTESIAN_POINT('Origin',(10.74840398283,93.59613391789,29.6));
#1214=CARTESIAN_POINT('',(1.7484039925399,93.7461339165114,29.4500000013169));
#1215=CARTESIAN_POINT('',(19.74840395504,93.74613391723,29.45000000066));
#1216=CARTESIAN_POINT('',(1.748403993834,93.44613391551,29.75000000239));
#1217=CARTESIAN_POINT('Origin',(1.748403982832,91.74613391789,29.60000000317));
#1218=CARTESIAN_POINT('',(-0.251596016097365,91.7461338891681,29.450000000868));
#1219=CARTESIAN_POINT('Origin',(1.748403982832,91.74613391789,29.45));
#1220=CARTESIAN_POINT('',(0.04840398471906,91.74613388429,29.75000000189));
#1221=CARTESIAN_POINT('Origin',(-0.1015960171684,82.24613391789,29.6));
#1222=CARTESIAN_POINT('',(-0.251596015786493,72.7461339276014,29.4500000013186));
#1223=CARTESIAN_POINT('',(-0.251596015503,91.74613388824,29.45000000167));
#1224=CARTESIAN_POINT('',(0.04840398521796,72.7461339289,29.75000000239));
#1225=CARTESIAN_POINT('Origin',(1.748403982832,72.74613391789,29.60000000317));
#1226=CARTESIAN_POINT('Origin',(1.748403982832,72.74613391789,29.45));
#1227=CARTESIAN_POINT('Origin',(1.748403982832,72.74613391789,107.3142));
#1228=CARTESIAN_POINT('',(-0.2515960150628,72.7461339276,29.45000000211));
#1229=CARTESIAN_POINT('Origin',(-0.2515960171684,93.74613391789,-29.75));
#1230=CARTESIAN_POINT('',(-0.251596015503,91.74613388824,29.45000000167));
#1231=CARTESIAN_POINT('Origin',(1.748403982832,91.74613391789,107.3142));
#1232=CARTESIAN_POINT('',(1.74840399254,93.74613391579,29.45000000211));
#1233=CARTESIAN_POINT('Origin',(19.74840398283,93.74613391789,-29.75));
#1234=CARTESIAN_POINT('',(19.74840395504,93.74613391723,-29.45000000066));
#1235=CARTESIAN_POINT('Origin',(19.74840398283,88.74613391789,-29.75));
#1236=CARTESIAN_POINT('',(23.68845773272,85.66782651871,-29.45000000041));
#1237=CARTESIAN_POINT('Origin',(12.03035378107,70.74613391789,-29.75));
#1238=CARTESIAN_POINT('',(12.6309101187228,71.5148109779776,29.4500000005115));
#1239=CARTESIAN_POINT('',(12.63091011897,71.51481097889,29.45000000101));
#1240=CARTESIAN_POINT('',(12.63091011897,71.51481097889,29.45000000101));
#1241=CARTESIAN_POINT('Origin',(18.04148231797,78.68366797555,29.6));
#1242=CARTESIAN_POINT('',(12.39450689393,71.69950942305,29.75000000115));
#1243=CARTESIAN_POINT('Origin',(11.05488860394,72.74613391789,29.60000000175));
#1244=CARTESIAN_POINT('Origin',(11.05488860394,72.74613391789,29.45));
#1245=CARTESIAN_POINT('Origin',(11.05488860394,72.74613391789,107.3142));
#1246=UNCERTAINTY_MEASURE_WITH_UNIT(LENGTH_MEASURE(0.01),#1250,
'DISTANCE_ACCURACY_VALUE',
'Maximum model space distance between geometric entities at asserted c
onnectivities');
#1247=UNCERTAINTY_MEASURE_WITH_UNIT(LENGTH_MEASURE(0.01),#1250,
'DISTANCE_ACCURACY_VALUE',
'Maximum model space distance between geometric entities at asserted c
onnectivities');
#1248=(
GEOMETRIC_REPRESENTATION_CONTEXT(3)
GLOBAL_UNCERTAINTY_ASSIGNED_CONTEXT((#1246))
GLOBAL_UNIT_ASSIGNED_CONTEXT((#1250,#1252,#1253))
REPRESENTATION_CONTEXT('','3D')
);
#1249=(
GEOMETRIC_REPRESENTATION_CONTEXT(3)
GLOBAL_UNCERTAINTY_ASSIGNED_CONTEXT((#1247))
GLOBAL_UNIT_ASSIGNED_CONTEXT((#1250,#1252,#1253))
REPRESENTATION_CONTEXT('','3D')
);
#1250=(
LENGTH_UNIT()
NAMED_UNIT(*)
SI_UNIT(.MILLI.,.METRE.)
);
#1251=(
LENGTH_UNIT()
NAMED_UNIT(*)
SI_UNIT($,.METRE.)
);
#1252=(
NAMED_UNIT(*)
PLANE_ANGLE_UNIT()
SI_UNIT($,.RADIAN.)
);
#1253=(
NAMED_UNIT(*)
SI_UNIT($,.STERADIAN.)
SOLID_ANGLE_UNIT()
);
#1254=SHAPE_DEFINITION_REPRESENTATION(#1255,#1256);
#1255=PRODUCT_DEFINITION_SHAPE('',$,#1258);
#1256=SHAPE_REPRESENTATION('',(#728),#1248);
#1257=PRODUCT_DEFINITION_CONTEXT('part definition',#1262,'design');
#1258=PRODUCT_DEFINITION('2026-07-07-17-51-24-639','1-HANDLE',#1259,#1257);
#1259=PRODUCT_DEFINITION_FORMATION('',$,#1264);
#1260=PRODUCT_RELATED_PRODUCT_CATEGORY('1-HANDLE','1-HANDLE',(#1264));
#1261=APPLICATION_PROTOCOL_DEFINITION('international standard',
'automotive_design',2009,#1262);
#1262=APPLICATION_CONTEXT(
'Core Data for Automotive Mechanical Design Process');
#1263=PRODUCT_CONTEXT('part definition',#1262,'mechanical');
#1264=PRODUCT('2026-07-07-17-51-24-639','1-HANDLE','NOT SPECIFIED',(#1263));
#1265=PRESENTATION_STYLE_ASSIGNMENT((#1266));
#1266=SURFACE_STYLE_USAGE(.BOTH.,#1267);
#1267=SURFACE_SIDE_STYLE('',(#1268));
#1268=SURFACE_STYLE_FILL_AREA(#1269);
#1269=FILL_AREA_STYLE('\X2\94A2\X0\ - \X2\7F0E5149\X0\',(#1270));
#1270=FILL_AREA_STYLE_COLOUR('\X2\94A2\X0\ - \X2\7F0E5149\X0\',#1271);
#1271=COLOUR_RGB('\X2\94A2\X0\ - \X2\7F0E5149\X0\',0.627450980392157,0.627450980392157,
0.627450980392157);
ENDSEC;
END-ISO-10303-21;
