ISO-10303-21;
HEADER;
/* Generated by software containing ST-Developer
 * from STEP Tools, Inc. (www.steptools.com) 
 */

FILE_DESCRIPTION(
/* description */ ('NOT SPECIFIED'),
/* implementation_level */ '2;1');

FILE_NAME(
/* name */ '1-STOPPER-1.step',
/* time_stamp */ '2026-07-07T17:51:59+08:00',
/* author */ (''),
/* organization */ (''),
/* preprocessor_version */ 'ST-DEVELOPER v20.1',
/* originating_system */ 'Autodesk Translation Framework v15.8.0.0',
/* authorisation */ '');

FILE_SCHEMA (('AUTOMOTIVE_DESIGN { 1 0 10303 214 3 1 1 }'));
ENDSEC;

DATA;
#10=MECHANICAL_DESIGN_GEOMETRIC_PRESENTATION_REPRESENTATION('',(#13),#1868);
#11=SHAPE_REPRESENTATION_RELATIONSHIP('SRR','None',#1875,#12);
#12=ADVANCED_BREP_SHAPE_REPRESENTATION('',(#14),#1867);
#13=STYLED_ITEM('',(#1884),#14);
#14=MANIFOLD_SOLID_BREP('\X2\5B9E4F53\X0\1',#1054);
#15=SPHERICAL_SURFACE('',#1098,1.);
#16=SPHERICAL_SURFACE('',#1106,1.);
#17=SPHERICAL_SURFACE('',#1111,1.);
#18=SPHERICAL_SURFACE('',#1137,1.);
#19=SPHERICAL_SURFACE('',#1144,1.);
#20=SPHERICAL_SURFACE('',#1149,1.);
#21=SPHERICAL_SURFACE('',#1154,1.);
#22=SPHERICAL_SURFACE('',#1163,1.);
#23=SPHERICAL_SURFACE('',#1171,1.);
#24=SPHERICAL_SURFACE('',#1176,1.);
#25=SPHERICAL_SURFACE('',#1187,1.);
#26=SPHERICAL_SURFACE('',#1190,1.);
#27=SPHERICAL_SURFACE('',#1194,1.);
#28=SPHERICAL_SURFACE('',#1198,1.);
#29=SPHERICAL_SURFACE('',#1205,1.);
#30=SPHERICAL_SURFACE('',#1208,1.);
#31=FACE_BOUND('',#221,.T.);
#32=FACE_BOUND('',#222,.T.);
#33=FACE_BOUND('',#223,.T.);
#34=FACE_BOUND('',#226,.T.);
#35=FACE_BOUND('',#229,.T.);
#36=FACE_BOUND('',#230,.T.);
#37=FACE_BOUND('',#231,.T.);
#38=FACE_BOUND('',#234,.T.);
#39=FACE_BOUND('',#238,.T.);
#40=FACE_BOUND('',#250,.T.);
#41=ELLIPSE('',#1071,1.4142135623731,1.);
#42=ELLIPSE('',#1081,3.80029027212829,3.25);
#43=ELLIPSE('',#1083,3.80029027212829,3.25);
#44=ELLIPSE('',#1084,3.80029027212829,3.25);
#45=ELLIPSE('',#1117,2.24939873109557,2.);
#46=ELLIPSE('',#1118,2.24939873109557,2.);
#47=ELLIPSE('',#1119,2.2493987310956,2.);
#48=ELLIPSE('',#1120,2.2493987310956,2.);
#49=ELLIPSE('',#1123,2.2493987310956,2.);
#50=ELLIPSE('',#1125,2.2493987310956,2.);
#51=ELLIPSE('',#1126,2.24939873109557,2.);
#52=ELLIPSE('',#1127,2.24939873109557,2.);
#53=ELLIPSE('',#1166,1.4142135623731,1.);
#54=CIRCLE('',#1070,1.);
#55=CIRCLE('',#1073,1.75);
#56=CIRCLE('',#1074,1.75);
#57=CIRCLE('',#1075,1.75);
#58=CIRCLE('',#1077,1.75);
#59=CIRCLE('',#1079,3.25);
#60=CIRCLE('',#1086,3.25);
#61=CIRCLE('',#1088,1.75);
#62=CIRCLE('',#1091,3.25);
#63=CIRCLE('',#1093,1.75);
#64=CIRCLE('',#1096,1.);
#65=CIRCLE('',#1097,1.);
#66=CIRCLE('',#1099,1.);
#67=CIRCLE('',#1100,1.);
#68=CIRCLE('',#1102,1.);
#69=CIRCLE('',#1105,1.);
#70=CIRCLE('',#1107,1.);
#71=CIRCLE('',#1108,1.);
#72=CIRCLE('',#1110,1.);
#73=CIRCLE('',#1112,1.);
#74=CIRCLE('',#1113,1.);
#75=CIRCLE('',#1115,1.);
#76=CIRCLE('',#1135,1.);
#77=CIRCLE('',#1136,1.);
#78=CIRCLE('',#1138,1.);
#79=CIRCLE('',#1140,1.);
#80=CIRCLE('',#1143,1.);
#81=CIRCLE('',#1145,1.);
#82=CIRCLE('',#1146,1.);
#83=CIRCLE('',#1148,1.);
#84=CIRCLE('',#1150,1.);
#85=CIRCLE('',#1151,1.);
#86=CIRCLE('',#1153,1.);
#87=CIRCLE('',#1155,1.);
#88=CIRCLE('',#1156,1.);
#89=CIRCLE('',#1158,1.);
#90=CIRCLE('',#1161,1.);
#91=CIRCLE('',#1162,1.);
#92=CIRCLE('',#1164,1.);
#93=CIRCLE('',#1170,1.);
#94=CIRCLE('',#1172,1.);
#95=CIRCLE('',#1173,1.);
#96=CIRCLE('',#1175,1.);
#97=CIRCLE('',#1177,1.);
#98=CIRCLE('',#1179,1.);
#99=CIRCLE('',#1182,1.);
#100=CIRCLE('',#1185,1.);
#101=CIRCLE('',#1186,1.);
#102=CIRCLE('',#1188,1.);
#103=CIRCLE('',#1191,1.);
#104=CIRCLE('',#1193,1.);
#105=CIRCLE('',#1195,1.);
#106=CIRCLE('',#1197,1.);
#107=CIRCLE('',#1200,1.);
#108=CIRCLE('',#1201,1.);
#109=CIRCLE('',#1204,1.);
#110=CIRCLE('',#1207,1.);
#111=CYLINDRICAL_SURFACE('',#1069,1.);
#112=CYLINDRICAL_SURFACE('',#1076,1.75);
#113=CYLINDRICAL_SURFACE('',#1080,3.25);
#114=CYLINDRICAL_SURFACE('',#1085,3.25);
#115=CYLINDRICAL_SURFACE('',#1089,1.75);
#116=CYLINDRICAL_SURFACE('',#1090,3.25);
#117=CYLINDRICAL_SURFACE('',#1094,1.75);
#118=CYLINDRICAL_SURFACE('',#1095,1.);
#119=CYLINDRICAL_SURFACE('',#1101,1.);
#120=CYLINDRICAL_SURFACE('',#1104,1.);
#121=CYLINDRICAL_SURFACE('',#1109,1.);
#122=CYLINDRICAL_SURFACE('',#1114,1.);
#123=CYLINDRICAL_SURFACE('',#1122,2.);
#124=CYLINDRICAL_SURFACE('',#1128,2.);
#125=CYLINDRICAL_SURFACE('',#1130,2.);
#126=CYLINDRICAL_SURFACE('',#1132,2.);
#127=CYLINDRICAL_SURFACE('',#1134,1.);
#128=CYLINDRICAL_SURFACE('',#1139,1.);
#129=CYLINDRICAL_SURFACE('',#1142,1.);
#130=CYLINDRICAL_SURFACE('',#1147,1.);
#131=CYLINDRICAL_SURFACE('',#1152,1.);
#132=CYLINDRICAL_SURFACE('',#1157,1.);
#133=CYLINDRICAL_SURFACE('',#1160,1.);
#134=CYLINDRICAL_SURFACE('',#1165,1.);
#135=CYLINDRICAL_SURFACE('',#1168,1.);
#136=CYLINDRICAL_SURFACE('',#1169,1.);
#137=CYLINDRICAL_SURFACE('',#1174,1.);
#138=CYLINDRICAL_SURFACE('',#1178,1.);
#139=CYLINDRICAL_SURFACE('',#1181,1.);
#140=CYLINDRICAL_SURFACE('',#1184,1.);
#141=CYLINDRICAL_SURFACE('',#1189,1.);
#142=CYLINDRICAL_SURFACE('',#1192,1.);
#143=CYLINDRICAL_SURFACE('',#1196,1.);
#144=CYLINDRICAL_SURFACE('',#1199,1.);
#145=CYLINDRICAL_SURFACE('',#1203,1.);
#146=CYLINDRICAL_SURFACE('',#1206,1.);
#147=FACE_OUTER_BOUND('',#218,.T.);
#148=FACE_OUTER_BOUND('',#219,.T.);
#149=FACE_OUTER_BOUND('',#220,.T.);
#150=FACE_OUTER_BOUND('',#224,.T.);
#151=FACE_OUTER_BOUND('',#225,.T.);
#152=FACE_OUTER_BOUND('',#227,.T.);
#153=FACE_OUTER_BOUND('',#228,.T.);
#154=FACE_OUTER_BOUND('',#232,.T.);
#155=FACE_OUTER_BOUND('',#233,.T.);
#156=FACE_OUTER_BOUND('',#235,.T.);
#157=FACE_OUTER_BOUND('',#236,.T.);
#158=FACE_OUTER_BOUND('',#237,.T.);
#159=FACE_OUTER_BOUND('',#239,.T.);
#160=FACE_OUTER_BOUND('',#240,.T.);
#161=FACE_OUTER_BOUND('',#241,.T.);
#162=FACE_OUTER_BOUND('',#242,.T.);
#163=FACE_OUTER_BOUND('',#243,.T.);
#164=FACE_OUTER_BOUND('',#244,.T.);
#165=FACE_OUTER_BOUND('',#245,.T.);
#166=FACE_OUTER_BOUND('',#246,.T.);
#167=FACE_OUTER_BOUND('',#247,.T.);
#168=FACE_OUTER_BOUND('',#248,.T.);
#169=FACE_OUTER_BOUND('',#249,.T.);
#170=FACE_OUTER_BOUND('',#251,.T.);
#171=FACE_OUTER_BOUND('',#252,.T.);
#172=FACE_OUTER_BOUND('',#253,.T.);
#173=FACE_OUTER_BOUND('',#254,.T.);
#174=FACE_OUTER_BOUND('',#255,.T.);
#175=FACE_OUTER_BOUND('',#256,.T.);
#176=FACE_OUTER_BOUND('',#257,.T.);
#177=FACE_OUTER_BOUND('',#258,.T.);
#178=FACE_OUTER_BOUND('',#259,.T.);
#179=FACE_OUTER_BOUND('',#260,.T.);
#180=FACE_OUTER_BOUND('',#261,.T.);
#181=FACE_OUTER_BOUND('',#262,.T.);
#182=FACE_OUTER_BOUND('',#263,.T.);
#183=FACE_OUTER_BOUND('',#264,.T.);
#184=FACE_OUTER_BOUND('',#265,.T.);
#185=FACE_OUTER_BOUND('',#266,.T.);
#186=FACE_OUTER_BOUND('',#267,.T.);
#187=FACE_OUTER_BOUND('',#268,.T.);
#188=FACE_OUTER_BOUND('',#269,.T.);
#189=FACE_OUTER_BOUND('',#270,.T.);
#190=FACE_OUTER_BOUND('',#271,.T.);
#191=FACE_OUTER_BOUND('',#272,.T.);
#192=FACE_OUTER_BOUND('',#273,.T.);
#193=FACE_OUTER_BOUND('',#274,.T.);
#194=FACE_OUTER_BOUND('',#275,.T.);
#195=FACE_OUTER_BOUND('',#276,.T.);
#196=FACE_OUTER_BOUND('',#277,.T.);
#197=FACE_OUTER_BOUND('',#278,.T.);
#198=FACE_OUTER_BOUND('',#279,.T.);
#199=FACE_OUTER_BOUND('',#280,.T.);
#200=FACE_OUTER_BOUND('',#281,.T.);
#201=FACE_OUTER_BOUND('',#282,.T.);
#202=FACE_OUTER_BOUND('',#283,.T.);
#203=FACE_OUTER_BOUND('',#284,.T.);
#204=FACE_OUTER_BOUND('',#285,.T.);
#205=FACE_OUTER_BOUND('',#286,.T.);
#206=FACE_OUTER_BOUND('',#287,.T.);
#207=FACE_OUTER_BOUND('',#288,.T.);
#208=FACE_OUTER_BOUND('',#289,.T.);
#209=FACE_OUTER_BOUND('',#290,.T.);
#210=FACE_OUTER_BOUND('',#291,.T.);
#211=FACE_OUTER_BOUND('',#292,.T.);
#212=FACE_OUTER_BOUND('',#293,.T.);
#213=FACE_OUTER_BOUND('',#294,.T.);
#214=FACE_OUTER_BOUND('',#295,.T.);
#215=FACE_OUTER_BOUND('',#296,.T.);
#216=FACE_OUTER_BOUND('',#297,.T.);
#217=FACE_OUTER_BOUND('',#298,.T.);
#218=EDGE_LOOP('',(#674,#675,#676,#677,#678,#679,#680,#681,#682));
#219=EDGE_LOOP('',(#683,#684,#685,#686));
#220=EDGE_LOOP('',(#687,#688,#689,#690));
#221=EDGE_LOOP('',(#691));
#222=EDGE_LOOP('',(#692));
#223=EDGE_LOOP('',(#693));
#224=EDGE_LOOP('',(#694,#695,#696,#697));
#225=EDGE_LOOP('',(#698));
#226=EDGE_LOOP('',(#699));
#227=EDGE_LOOP('',(#700,#701,#702,#703));
#228=EDGE_LOOP('',(#704,#705,#706,#707));
#229=EDGE_LOOP('',(#708));
#230=EDGE_LOOP('',(#709));
#231=EDGE_LOOP('',(#710));
#232=EDGE_LOOP('',(#711,#712,#713,#714));
#233=EDGE_LOOP('',(#715));
#234=EDGE_LOOP('',(#716));
#235=EDGE_LOOP('',(#717,#718,#719,#720));
#236=EDGE_LOOP('',(#721,#722,#723,#724));
#237=EDGE_LOOP('',(#725));
#238=EDGE_LOOP('',(#726));
#239=EDGE_LOOP('',(#727,#728,#729,#730));
#240=EDGE_LOOP('',(#731,#732,#733,#734));
#241=EDGE_LOOP('',(#735,#736,#737));
#242=EDGE_LOOP('',(#738,#739,#740,#741));
#243=EDGE_LOOP('',(#742,#743,#744,#745));
#244=EDGE_LOOP('',(#746,#747,#748,#749));
#245=EDGE_LOOP('',(#750,#751,#752));
#246=EDGE_LOOP('',(#753,#754,#755,#756));
#247=EDGE_LOOP('',(#757,#758,#759));
#248=EDGE_LOOP('',(#760,#761,#762,#763));
#249=EDGE_LOOP('',(#764,#765,#766,#767));
#250=EDGE_LOOP('',(#768,#769,#770,#771,#772,#773,#774,#775));
#251=EDGE_LOOP('',(#776,#777,#778,#779));
#252=EDGE_LOOP('',(#780,#781,#782,#783));
#253=EDGE_LOOP('',(#784,#785,#786,#787,#788,#789,#790,#791));
#254=EDGE_LOOP('',(#792,#793,#794,#795));
#255=EDGE_LOOP('',(#796,#797,#798,#799));
#256=EDGE_LOOP('',(#800,#801,#802,#803));
#257=EDGE_LOOP('',(#804,#805,#806,#807));
#258=EDGE_LOOP('',(#808,#809,#810,#811));
#259=EDGE_LOOP('',(#812,#813,#814,#815));
#260=EDGE_LOOP('',(#816,#817,#818,#819));
#261=EDGE_LOOP('',(#820,#821,#822));
#262=EDGE_LOOP('',(#823,#824,#825,#826));
#263=EDGE_LOOP('',(#827,#828,#829,#830));
#264=EDGE_LOOP('',(#831,#832,#833,#834));
#265=EDGE_LOOP('',(#835,#836,#837));
#266=EDGE_LOOP('',(#838,#839,#840,#841));
#267=EDGE_LOOP('',(#842,#843,#844));
#268=EDGE_LOOP('',(#845,#846,#847,#848));
#269=EDGE_LOOP('',(#849,#850,#851));
#270=EDGE_LOOP('',(#852,#853,#854,#855));
#271=EDGE_LOOP('',(#856,#857,#858,#859));
#272=EDGE_LOOP('',(#860,#861,#862,#863));
#273=EDGE_LOOP('',(#864,#865,#866));
#274=EDGE_LOOP('',(#867,#868,#869,#870));
#275=EDGE_LOOP('',(#871,#872,#873,#874));
#276=EDGE_LOOP('',(#875,#876,#877,#878));
#277=EDGE_LOOP('',(#879,#880,#881,#882));
#278=EDGE_LOOP('',(#883,#884,#885));
#279=EDGE_LOOP('',(#886,#887,#888,#889));
#280=EDGE_LOOP('',(#890,#891,#892));
#281=EDGE_LOOP('',(#893,#894,#895,#896));
#282=EDGE_LOOP('',(#897,#898,#899,#900));
#283=EDGE_LOOP('',(#901,#902,#903,#904));
#284=EDGE_LOOP('',(#905,#906,#907,#908,#909,#910,#911,#912,#913));
#285=EDGE_LOOP('',(#914,#915,#916,#917));
#286=EDGE_LOOP('',(#918,#919,#920));
#287=EDGE_LOOP('',(#921,#922,#923,#924));
#288=EDGE_LOOP('',(#925,#926,#927));
#289=EDGE_LOOP('',(#928,#929,#930,#931));
#290=EDGE_LOOP('',(#932,#933,#934));
#291=EDGE_LOOP('',(#935,#936,#937,#938));
#292=EDGE_LOOP('',(#939,#940,#941));
#293=EDGE_LOOP('',(#942,#943,#944,#945));
#294=EDGE_LOOP('',(#946,#947,#948,#949));
#295=EDGE_LOOP('',(#950,#951,#952,#953));
#296=EDGE_LOOP('',(#954,#955,#956));
#297=EDGE_LOOP('',(#957,#958,#959,#960));
#298=EDGE_LOOP('',(#961,#962,#963));
#299=LINE('',#1572,#374);
#300=LINE('',#1574,#375);
#301=LINE('',#1576,#376);
#302=LINE('',#1578,#377);
#303=LINE('',#1580,#378);
#304=LINE('',#1582,#379);
#305=LINE('',#1584,#380);
#306=LINE('',#1586,#381);
#307=LINE('',#1587,#382);
#308=LINE('',#1591,#383);
#309=LINE('',#1596,#384);
#310=LINE('',#1598,#385);
#311=LINE('',#1599,#386);
#312=LINE('',#1608,#387);
#313=LINE('',#1615,#388);
#314=LINE('',#1620,#389);
#315=LINE('',#1622,#390);
#316=LINE('',#1624,#391);
#317=LINE('',#1625,#392);
#318=LINE('',#1633,#393);
#319=LINE('',#1638,#394);
#320=LINE('',#1642,#395);
#321=LINE('',#1647,#396);
#322=LINE('',#1658,#397);
#323=LINE('',#1661,#398);
#324=LINE('',#1663,#399);
#325=LINE('',#1664,#400);
#326=LINE('',#1673,#401);
#327=LINE('',#1681,#402);
#328=LINE('',#1684,#403);
#329=LINE('',#1687,#404);
#330=LINE('',#1688,#405);
#331=LINE('',#1691,#406);
#332=LINE('',#1695,#407);
#333=LINE('',#1699,#408);
#334=LINE('',#1703,#409);
#335=LINE('',#1707,#410);
#336=LINE('',#1709,#411);
#337=LINE('',#1710,#412);
#338=LINE('',#1714,#413);
#339=LINE('',#1720,#414);
#340=LINE('',#1724,#415);
#341=LINE('',#1726,#416);
#342=LINE('',#1728,#417);
#343=LINE('',#1729,#418);
#344=LINE('',#1731,#419);
#345=LINE('',#1733,#420);
#346=LINE('',#1735,#421);
#347=LINE('',#1742,#422);
#348=LINE('',#1748,#423);
#349=LINE('',#1750,#424);
#350=LINE('',#1754,#425);
#351=LINE('',#1755,#426);
#352=LINE('',#1764,#427);
#353=LINE('',#1772,#428);
#354=LINE('',#1780,#429);
#355=LINE('',#1783,#430);
#356=LINE('',#1786,#431);
#357=LINE('',#1787,#432);
#358=LINE('',#1792,#433);
#359=LINE('',#1797,#434);
#360=LINE('',#1799,#435);
#361=LINE('',#1802,#436);
#362=LINE('',#1806,#437);
#363=LINE('',#1814,#438);
#364=LINE('',#1820,#439);
#365=LINE('',#1824,#440);
#366=LINE('',#1825,#441);
#367=LINE('',#1828,#442);
#368=LINE('',#1832,#443);
#369=LINE('',#1833,#444);
#370=LINE('',#1834,#445);
#371=LINE('',#1853,#446);
#372=LINE('',#1857,#447);
#373=LINE('',#1858,#448);
#374=VECTOR('',#1213,30.);
#375=VECTOR('',#1214,3.436740522329);
#376=VECTOR('',#1215,37.7449251473185);
#377=VECTOR('',#1216,7.358571926661);
#378=VECTOR('',#1217,14.7900744706505);
#379=VECTOR('',#1218,6.031625054016);
#380=VECTOR('',#1219,24.16666666667);
#381=VECTOR('',#1220,1.666666666667);
#382=VECTOR('',#1221,7.);
#383=VECTOR('',#1224,29.);
#384=VECTOR('',#1231,36.);
#385=VECTOR('',#1232,29.);
#386=VECTOR('',#1233,36.);
#387=VECTOR('',#1242,1.75);
#388=VECTOR('',#1251,3.25);
#389=VECTOR('',#1256,37.7449251473185);
#390=VECTOR('',#1257,36.);
#391=VECTOR('',#1258,37.7449251473185);
#392=VECTOR('',#1259,36.);
#393=VECTOR('',#1268,3.25);
#394=VECTOR('',#1275,1.75);
#395=VECTOR('',#1280,3.25);
#396=VECTOR('',#1287,1.75);
#397=VECTOR('',#1304,36.);
#398=VECTOR('',#1307,7.358571926661);
#399=VECTOR('',#1308,7.358571926661);
#400=VECTOR('',#1309,36.);
#401=VECTOR('',#1322,14.7900744706505);
#402=VECTOR('',#1333,36.);
#403=VECTOR('',#1336,36.);
#404=VECTOR('',#1339,14.7900744706505);
#405=VECTOR('',#1340,36.);
#406=VECTOR('',#1341,5.74122951685618);
#407=VECTOR('',#1344,26.74122951686);
#408=VECTOR('',#1347,5.74122951685618);
#409=VECTOR('',#1350,26.74122951686);
#410=VECTOR('',#1355,1.12469936554796);
#411=VECTOR('',#1356,5.01328904832416);
#412=VECTOR('',#1357,1.12469936554804);
#413=VECTOR('',#1362,1.12469936554796);
#414=VECTOR('',#1367,5.01328904832416);
#415=VECTOR('',#1370,26.01328904832);
#416=VECTOR('',#1373,26.01328904832);
#417=VECTOR('',#1376,1.12469936554796);
#418=VECTOR('',#1377,1.12469936554796);
#419=VECTOR('',#1380,1.12469936554804);
#420=VECTOR('',#1383,1.12469936554804);
#421=VECTOR('',#1386,1.12469936554804);
#422=VECTOR('',#1395,14.7900744706505);
#423=VECTOR('',#1404,6.031625054016);
#424=VECTOR('',#1405,6.031625054016);
#425=VECTOR('',#1410,6.031625054016);
#426=VECTOR('',#1411,36.);
#427=VECTOR('',#1424,24.16666666667);
#428=VECTOR('',#1435,1.666666666667);
#429=VECTOR('',#1446,36.);
#430=VECTOR('',#1449,36.);
#431=VECTOR('',#1452,1.666666666667);
#432=VECTOR('',#1453,36.);
#433=VECTOR('',#1458,1.666666666667);
#434=VECTOR('',#1467,6.);
#435=VECTOR('',#1468,7.);
#436=VECTOR('',#1473,6.);
#437=VECTOR('',#1478,30.);
#438=VECTOR('',#1489,36.);
#439=VECTOR('',#1498,3.436740522329);
#440=VECTOR('',#1503,3.436740522329);
#441=VECTOR('',#1504,36.);
#442=VECTOR('',#1507,3.436740522329);
#443=VECTOR('',#1512,7.358571926661);
#444=VECTOR('',#1513,37.7449251473185);
#445=VECTOR('',#1514,24.16666666667);
#446=VECTOR('',#1547,24.16666666667);
#447=VECTOR('',#1554,36.);
#448=VECTOR('',#1555,36.);
#449=VERTEX_POINT('',#1570);
#450=VERTEX_POINT('',#1571);
#451=VERTEX_POINT('',#1573);
#452=VERTEX_POINT('',#1575);
#453=VERTEX_POINT('',#1577);
#454=VERTEX_POINT('',#1579);
#455=VERTEX_POINT('',#1581);
#456=VERTEX_POINT('',#1583);
#457=VERTEX_POINT('',#1585);
#458=VERTEX_POINT('',#1589);
#459=VERTEX_POINT('',#1590);
#460=VERTEX_POINT('',#1595);
#461=VERTEX_POINT('',#1597);
#462=VERTEX_POINT('',#1600);
#463=VERTEX_POINT('',#1602);
#464=VERTEX_POINT('',#1604);
#465=VERTEX_POINT('',#1607);
#466=VERTEX_POINT('',#1611);
#467=VERTEX_POINT('',#1614);
#468=VERTEX_POINT('',#1618);
#469=VERTEX_POINT('',#1619);
#470=VERTEX_POINT('',#1621);
#471=VERTEX_POINT('',#1623);
#472=VERTEX_POINT('',#1626);
#473=VERTEX_POINT('',#1628);
#474=VERTEX_POINT('',#1631);
#475=VERTEX_POINT('',#1635);
#476=VERTEX_POINT('',#1640);
#477=VERTEX_POINT('',#1644);
#478=VERTEX_POINT('',#1652);
#479=VERTEX_POINT('',#1656);
#480=VERTEX_POINT('',#1660);
#481=VERTEX_POINT('',#1662);
#482=VERTEX_POINT('',#1668);
#483=VERTEX_POINT('',#1672);
#484=VERTEX_POINT('',#1676);
#485=VERTEX_POINT('',#1680);
#486=VERTEX_POINT('',#1682);
#487=VERTEX_POINT('',#1686);
#488=VERTEX_POINT('',#1689);
#489=VERTEX_POINT('',#1690);
#490=VERTEX_POINT('',#1692);
#491=VERTEX_POINT('',#1694);
#492=VERTEX_POINT('',#1696);
#493=VERTEX_POINT('',#1698);
#494=VERTEX_POINT('',#1700);
#495=VERTEX_POINT('',#1702);
#496=VERTEX_POINT('',#1706);
#497=VERTEX_POINT('',#1708);
#498=VERTEX_POINT('',#1712);
#499=VERTEX_POINT('',#1716);
#500=VERTEX_POINT('',#1717);
#501=VERTEX_POINT('',#1719);
#502=VERTEX_POINT('',#1721);
#503=VERTEX_POINT('',#1723);
#504=VERTEX_POINT('',#1739);
#505=VERTEX_POINT('',#1741);
#506=VERTEX_POINT('',#1747);
#507=VERTEX_POINT('',#1749);
#508=VERTEX_POINT('',#1753);
#509=VERTEX_POINT('',#1759);
#510=VERTEX_POINT('',#1763);
#511=VERTEX_POINT('',#1767);
#512=VERTEX_POINT('',#1771);
#513=VERTEX_POINT('',#1775);
#514=VERTEX_POINT('',#1779);
#515=VERTEX_POINT('',#1781);
#516=VERTEX_POINT('',#1785);
#517=VERTEX_POINT('',#1789);
#518=VERTEX_POINT('',#1791);
#519=VERTEX_POINT('',#1798);
#520=VERTEX_POINT('',#1805);
#521=VERTEX_POINT('',#1809);
#522=VERTEX_POINT('',#1813);
#523=VERTEX_POINT('',#1819);
#524=VERTEX_POINT('',#1823);
#525=VERTEX_POINT('',#1827);
#526=VERTEX_POINT('',#1831);
#527=VERTEX_POINT('',#1851);
#528=VERTEX_POINT('',#1852);
#529=EDGE_CURVE('',#449,#450,#299,.T.);
#530=EDGE_CURVE('',#450,#451,#300,.T.);
#531=EDGE_CURVE('',#451,#452,#301,.T.);
#532=EDGE_CURVE('',#452,#453,#302,.T.);
#533=EDGE_CURVE('',#453,#454,#303,.T.);
#534=EDGE_CURVE('',#454,#455,#304,.T.);
#535=EDGE_CURVE('',#455,#456,#305,.T.);
#536=EDGE_CURVE('',#456,#457,#306,.T.);
#537=EDGE_CURVE('',#457,#449,#307,.T.);
#538=EDGE_CURVE('',#458,#459,#308,.T.);
#539=EDGE_CURVE('',#450,#459,#54,.T.);
#540=EDGE_CURVE('',#458,#449,#41,.T.);
#541=EDGE_CURVE('',#458,#460,#309,.T.);
#542=EDGE_CURVE('',#461,#460,#310,.T.);
#543=EDGE_CURVE('',#461,#459,#311,.T.);
#544=EDGE_CURVE('',#462,#462,#55,.T.);
#545=EDGE_CURVE('',#463,#463,#56,.T.);
#546=EDGE_CURVE('',#464,#464,#57,.T.);
#547=EDGE_CURVE('',#464,#465,#312,.T.);
#548=EDGE_CURVE('',#465,#465,#58,.T.);
#549=EDGE_CURVE('',#466,#466,#59,.T.);
#550=EDGE_CURVE('',#466,#467,#313,.T.);
#551=EDGE_CURVE('',#467,#467,#42,.T.);
#552=EDGE_CURVE('',#468,#469,#314,.T.);
#553=EDGE_CURVE('',#470,#468,#315,.T.);
#554=EDGE_CURVE('',#471,#470,#316,.T.);
#555=EDGE_CURVE('',#469,#471,#317,.T.);
#556=EDGE_CURVE('',#472,#472,#43,.T.);
#557=EDGE_CURVE('',#473,#473,#44,.T.);
#558=EDGE_CURVE('',#474,#474,#60,.T.);
#559=EDGE_CURVE('',#474,#472,#318,.T.);
#560=EDGE_CURVE('',#475,#475,#61,.T.);
#561=EDGE_CURVE('',#462,#475,#319,.T.);
#562=EDGE_CURVE('',#476,#476,#62,.T.);
#563=EDGE_CURVE('',#476,#473,#320,.T.);
#564=EDGE_CURVE('',#477,#477,#63,.T.);
#565=EDGE_CURVE('',#463,#477,#321,.T.);
#566=EDGE_CURVE('',#468,#451,#64,.T.);
#567=EDGE_CURVE('',#452,#469,#65,.T.);
#568=EDGE_CURVE('',#469,#478,#66,.T.);
#569=EDGE_CURVE('',#478,#452,#67,.T.);
#570=EDGE_CURVE('',#479,#471,#68,.T.);
#571=EDGE_CURVE('',#478,#479,#322,.T.);
#572=EDGE_CURVE('',#478,#480,#323,.T.);
#573=EDGE_CURVE('',#481,#479,#324,.T.);
#574=EDGE_CURVE('',#481,#480,#325,.T.);
#575=EDGE_CURVE('',#453,#480,#69,.T.);
#576=EDGE_CURVE('',#482,#453,#70,.T.);
#577=EDGE_CURVE('',#480,#482,#71,.T.);
#578=EDGE_CURVE('',#482,#483,#326,.T.);
#579=EDGE_CURVE('',#454,#483,#72,.T.);
#580=EDGE_CURVE('',#483,#484,#73,.T.);
#581=EDGE_CURVE('',#484,#454,#74,.T.);
#582=EDGE_CURVE('',#483,#485,#327,.T.);
#583=EDGE_CURVE('',#486,#485,#75,.T.);
#584=EDGE_CURVE('',#484,#486,#328,.T.);
#585=EDGE_CURVE('',#485,#487,#329,.T.);
#586=EDGE_CURVE('',#487,#482,#330,.T.);
#587=EDGE_CURVE('',#488,#489,#331,.T.);
#588=EDGE_CURVE('',#489,#490,#45,.T.);
#589=EDGE_CURVE('',#491,#490,#332,.T.);
#590=EDGE_CURVE('',#491,#492,#46,.T.);
#591=EDGE_CURVE('',#492,#493,#333,.T.);
#592=EDGE_CURVE('',#493,#494,#47,.T.);
#593=EDGE_CURVE('',#494,#495,#334,.T.);
#594=EDGE_CURVE('',#495,#488,#48,.T.);
#595=EDGE_CURVE('',#488,#496,#335,.T.);
#596=EDGE_CURVE('',#496,#497,#336,.T.);
#597=EDGE_CURVE('',#489,#497,#337,.T.);
#598=EDGE_CURVE('',#496,#498,#49,.T.);
#599=EDGE_CURVE('',#495,#498,#338,.T.);
#600=EDGE_CURVE('',#499,#500,#50,.T.);
#601=EDGE_CURVE('',#501,#500,#339,.T.);
#602=EDGE_CURVE('',#501,#502,#51,.T.);
#603=EDGE_CURVE('',#502,#503,#340,.T.);
#604=EDGE_CURVE('',#503,#497,#52,.T.);
#605=EDGE_CURVE('',#499,#498,#341,.T.);
#606=EDGE_CURVE('',#494,#499,#342,.T.);
#607=EDGE_CURVE('',#493,#500,#343,.T.);
#608=EDGE_CURVE('',#492,#501,#344,.T.);
#609=EDGE_CURVE('',#491,#502,#345,.T.);
#610=EDGE_CURVE('',#490,#503,#346,.T.);
#611=EDGE_CURVE('',#504,#487,#76,.T.);
#612=EDGE_CURVE('',#505,#504,#347,.T.);
#613=EDGE_CURVE('',#485,#505,#77,.T.);
#614=EDGE_CURVE('',#505,#486,#78,.T.);
#615=EDGE_CURVE('',#506,#486,#348,.T.);
#616=EDGE_CURVE('',#507,#505,#349,.T.);
#617=EDGE_CURVE('',#506,#507,#79,.T.);
#618=EDGE_CURVE('',#484,#508,#350,.T.);
#619=EDGE_CURVE('',#506,#508,#351,.T.);
#620=EDGE_CURVE('',#455,#508,#80,.T.);
#621=EDGE_CURVE('',#509,#455,#81,.T.);
#622=EDGE_CURVE('',#508,#509,#82,.T.);
#623=EDGE_CURVE('',#509,#510,#352,.T.);
#624=EDGE_CURVE('',#456,#510,#83,.T.);
#625=EDGE_CURVE('',#511,#456,#84,.T.);
#626=EDGE_CURVE('',#510,#511,#85,.T.);
#627=EDGE_CURVE('',#511,#512,#353,.T.);
#628=EDGE_CURVE('',#457,#512,#86,.T.);
#629=EDGE_CURVE('',#512,#513,#87,.T.);
#630=EDGE_CURVE('',#513,#457,#88,.T.);
#631=EDGE_CURVE('',#514,#512,#354,.T.);
#632=EDGE_CURVE('',#515,#514,#89,.T.);
#633=EDGE_CURVE('',#515,#513,#355,.T.);
#634=EDGE_CURVE('',#514,#516,#356,.T.);
#635=EDGE_CURVE('',#511,#516,#357,.T.);
#636=EDGE_CURVE('',#517,#516,#90,.T.);
#637=EDGE_CURVE('',#518,#517,#358,.T.);
#638=EDGE_CURVE('',#514,#518,#91,.T.);
#639=EDGE_CURVE('',#518,#515,#92,.T.);
#640=EDGE_CURVE('',#460,#515,#359,.T.);
#641=EDGE_CURVE('',#519,#518,#360,.T.);
#642=EDGE_CURVE('',#460,#519,#53,.T.);
#643=EDGE_CURVE('',#513,#458,#361,.T.);
#644=EDGE_CURVE('',#520,#519,#362,.T.);
#645=EDGE_CURVE('',#461,#520,#93,.T.);
#646=EDGE_CURVE('',#521,#461,#94,.T.);
#647=EDGE_CURVE('',#520,#521,#95,.T.);
#648=EDGE_CURVE('',#521,#522,#363,.T.);
#649=EDGE_CURVE('',#459,#522,#96,.T.);
#650=EDGE_CURVE('',#522,#450,#97,.T.);
#651=EDGE_CURVE('',#522,#523,#364,.T.);
#652=EDGE_CURVE('',#451,#523,#98,.T.);
#653=EDGE_CURVE('',#524,#521,#365,.T.);
#654=EDGE_CURVE('',#524,#523,#366,.T.);
#655=EDGE_CURVE('',#525,#520,#367,.T.);
#656=EDGE_CURVE('',#524,#525,#99,.T.);
#657=EDGE_CURVE('',#504,#526,#368,.T.);
#658=EDGE_CURVE('',#526,#525,#369,.T.);
#659=EDGE_CURVE('',#517,#507,#370,.T.);
#660=EDGE_CURVE('',#526,#479,#100,.T.);
#661=EDGE_CURVE('',#481,#504,#101,.T.);
#662=EDGE_CURVE('',#487,#481,#102,.T.);
#663=EDGE_CURVE('',#471,#526,#103,.T.);
#664=EDGE_CURVE('',#525,#470,#104,.T.);
#665=EDGE_CURVE('',#470,#524,#105,.T.);
#666=EDGE_CURVE('',#523,#468,#106,.T.);
#667=EDGE_CURVE('',#527,#528,#371,.T.);
#668=EDGE_CURVE('',#507,#528,#107,.T.);
#669=EDGE_CURVE('',#527,#517,#108,.T.);
#670=EDGE_CURVE('',#510,#527,#372,.T.);
#671=EDGE_CURVE('',#528,#509,#373,.T.);
#672=EDGE_CURVE('',#516,#527,#109,.T.);
#673=EDGE_CURVE('',#528,#506,#110,.T.);
#674=ORIENTED_EDGE('',*,*,#529,.T.);
#675=ORIENTED_EDGE('',*,*,#530,.T.);
#676=ORIENTED_EDGE('',*,*,#531,.T.);
#677=ORIENTED_EDGE('',*,*,#532,.T.);
#678=ORIENTED_EDGE('',*,*,#533,.T.);
#679=ORIENTED_EDGE('',*,*,#534,.T.);
#680=ORIENTED_EDGE('',*,*,#535,.T.);
#681=ORIENTED_EDGE('',*,*,#536,.T.);
#682=ORIENTED_EDGE('',*,*,#537,.T.);
#683=ORIENTED_EDGE('',*,*,#538,.T.);
#684=ORIENTED_EDGE('',*,*,#539,.F.);
#685=ORIENTED_EDGE('',*,*,#529,.F.);
#686=ORIENTED_EDGE('',*,*,#540,.F.);
#687=ORIENTED_EDGE('',*,*,#538,.F.);
#688=ORIENTED_EDGE('',*,*,#541,.T.);
#689=ORIENTED_EDGE('',*,*,#542,.F.);
#690=ORIENTED_EDGE('',*,*,#543,.T.);
#691=ORIENTED_EDGE('',*,*,#544,.T.);
#692=ORIENTED_EDGE('',*,*,#545,.T.);
#693=ORIENTED_EDGE('',*,*,#546,.T.);
#694=ORIENTED_EDGE('',*,*,#546,.F.);
#695=ORIENTED_EDGE('',*,*,#547,.T.);
#696=ORIENTED_EDGE('',*,*,#548,.T.);
#697=ORIENTED_EDGE('',*,*,#547,.F.);
#698=ORIENTED_EDGE('',*,*,#549,.T.);
#699=ORIENTED_EDGE('',*,*,#548,.F.);
#700=ORIENTED_EDGE('',*,*,#549,.F.);
#701=ORIENTED_EDGE('',*,*,#550,.T.);
#702=ORIENTED_EDGE('',*,*,#551,.T.);
#703=ORIENTED_EDGE('',*,*,#550,.F.);
#704=ORIENTED_EDGE('',*,*,#552,.F.);
#705=ORIENTED_EDGE('',*,*,#553,.F.);
#706=ORIENTED_EDGE('',*,*,#554,.F.);
#707=ORIENTED_EDGE('',*,*,#555,.F.);
#708=ORIENTED_EDGE('',*,*,#556,.F.);
#709=ORIENTED_EDGE('',*,*,#557,.F.);
#710=ORIENTED_EDGE('',*,*,#551,.F.);
#711=ORIENTED_EDGE('',*,*,#558,.F.);
#712=ORIENTED_EDGE('',*,*,#559,.T.);
#713=ORIENTED_EDGE('',*,*,#556,.T.);
#714=ORIENTED_EDGE('',*,*,#559,.F.);
#715=ORIENTED_EDGE('',*,*,#558,.T.);
#716=ORIENTED_EDGE('',*,*,#560,.T.);
#717=ORIENTED_EDGE('',*,*,#544,.F.);
#718=ORIENTED_EDGE('',*,*,#561,.T.);
#719=ORIENTED_EDGE('',*,*,#560,.F.);
#720=ORIENTED_EDGE('',*,*,#561,.F.);
#721=ORIENTED_EDGE('',*,*,#562,.F.);
#722=ORIENTED_EDGE('',*,*,#563,.T.);
#723=ORIENTED_EDGE('',*,*,#557,.T.);
#724=ORIENTED_EDGE('',*,*,#563,.F.);
#725=ORIENTED_EDGE('',*,*,#562,.T.);
#726=ORIENTED_EDGE('',*,*,#564,.T.);
#727=ORIENTED_EDGE('',*,*,#545,.F.);
#728=ORIENTED_EDGE('',*,*,#565,.T.);
#729=ORIENTED_EDGE('',*,*,#564,.F.);
#730=ORIENTED_EDGE('',*,*,#565,.F.);
#731=ORIENTED_EDGE('',*,*,#531,.F.);
#732=ORIENTED_EDGE('',*,*,#566,.F.);
#733=ORIENTED_EDGE('',*,*,#552,.T.);
#734=ORIENTED_EDGE('',*,*,#567,.F.);
#735=ORIENTED_EDGE('',*,*,#568,.T.);
#736=ORIENTED_EDGE('',*,*,#569,.T.);
#737=ORIENTED_EDGE('',*,*,#567,.T.);
#738=ORIENTED_EDGE('',*,*,#555,.T.);
#739=ORIENTED_EDGE('',*,*,#570,.F.);
#740=ORIENTED_EDGE('',*,*,#571,.F.);
#741=ORIENTED_EDGE('',*,*,#568,.F.);
#742=ORIENTED_EDGE('',*,*,#572,.F.);
#743=ORIENTED_EDGE('',*,*,#571,.T.);
#744=ORIENTED_EDGE('',*,*,#573,.F.);
#745=ORIENTED_EDGE('',*,*,#574,.T.);
#746=ORIENTED_EDGE('',*,*,#572,.T.);
#747=ORIENTED_EDGE('',*,*,#575,.F.);
#748=ORIENTED_EDGE('',*,*,#532,.F.);
#749=ORIENTED_EDGE('',*,*,#569,.F.);
#750=ORIENTED_EDGE('',*,*,#576,.T.);
#751=ORIENTED_EDGE('',*,*,#575,.T.);
#752=ORIENTED_EDGE('',*,*,#577,.T.);
#753=ORIENTED_EDGE('',*,*,#533,.F.);
#754=ORIENTED_EDGE('',*,*,#576,.F.);
#755=ORIENTED_EDGE('',*,*,#578,.T.);
#756=ORIENTED_EDGE('',*,*,#579,.F.);
#757=ORIENTED_EDGE('',*,*,#580,.T.);
#758=ORIENTED_EDGE('',*,*,#581,.T.);
#759=ORIENTED_EDGE('',*,*,#579,.T.);
#760=ORIENTED_EDGE('',*,*,#582,.T.);
#761=ORIENTED_EDGE('',*,*,#583,.F.);
#762=ORIENTED_EDGE('',*,*,#584,.F.);
#763=ORIENTED_EDGE('',*,*,#580,.F.);
#764=ORIENTED_EDGE('',*,*,#585,.F.);
#765=ORIENTED_EDGE('',*,*,#582,.F.);
#766=ORIENTED_EDGE('',*,*,#578,.F.);
#767=ORIENTED_EDGE('',*,*,#586,.F.);
#768=ORIENTED_EDGE('',*,*,#587,.T.);
#769=ORIENTED_EDGE('',*,*,#588,.T.);
#770=ORIENTED_EDGE('',*,*,#589,.F.);
#771=ORIENTED_EDGE('',*,*,#590,.T.);
#772=ORIENTED_EDGE('',*,*,#591,.T.);
#773=ORIENTED_EDGE('',*,*,#592,.T.);
#774=ORIENTED_EDGE('',*,*,#593,.T.);
#775=ORIENTED_EDGE('',*,*,#594,.T.);
#776=ORIENTED_EDGE('',*,*,#595,.T.);
#777=ORIENTED_EDGE('',*,*,#596,.T.);
#778=ORIENTED_EDGE('',*,*,#597,.F.);
#779=ORIENTED_EDGE('',*,*,#587,.F.);
#780=ORIENTED_EDGE('',*,*,#598,.F.);
#781=ORIENTED_EDGE('',*,*,#595,.F.);
#782=ORIENTED_EDGE('',*,*,#594,.F.);
#783=ORIENTED_EDGE('',*,*,#599,.T.);
#784=ORIENTED_EDGE('',*,*,#600,.T.);
#785=ORIENTED_EDGE('',*,*,#601,.F.);
#786=ORIENTED_EDGE('',*,*,#602,.T.);
#787=ORIENTED_EDGE('',*,*,#603,.T.);
#788=ORIENTED_EDGE('',*,*,#604,.T.);
#789=ORIENTED_EDGE('',*,*,#596,.F.);
#790=ORIENTED_EDGE('',*,*,#598,.T.);
#791=ORIENTED_EDGE('',*,*,#605,.F.);
#792=ORIENTED_EDGE('',*,*,#600,.F.);
#793=ORIENTED_EDGE('',*,*,#606,.F.);
#794=ORIENTED_EDGE('',*,*,#592,.F.);
#795=ORIENTED_EDGE('',*,*,#607,.T.);
#796=ORIENTED_EDGE('',*,*,#607,.F.);
#797=ORIENTED_EDGE('',*,*,#591,.F.);
#798=ORIENTED_EDGE('',*,*,#608,.T.);
#799=ORIENTED_EDGE('',*,*,#601,.T.);
#800=ORIENTED_EDGE('',*,*,#602,.F.);
#801=ORIENTED_EDGE('',*,*,#608,.F.);
#802=ORIENTED_EDGE('',*,*,#590,.F.);
#803=ORIENTED_EDGE('',*,*,#609,.T.);
#804=ORIENTED_EDGE('',*,*,#610,.T.);
#805=ORIENTED_EDGE('',*,*,#603,.F.);
#806=ORIENTED_EDGE('',*,*,#609,.F.);
#807=ORIENTED_EDGE('',*,*,#589,.T.);
#808=ORIENTED_EDGE('',*,*,#604,.F.);
#809=ORIENTED_EDGE('',*,*,#610,.F.);
#810=ORIENTED_EDGE('',*,*,#588,.F.);
#811=ORIENTED_EDGE('',*,*,#597,.T.);
#812=ORIENTED_EDGE('',*,*,#606,.T.);
#813=ORIENTED_EDGE('',*,*,#605,.T.);
#814=ORIENTED_EDGE('',*,*,#599,.F.);
#815=ORIENTED_EDGE('',*,*,#593,.F.);
#816=ORIENTED_EDGE('',*,*,#585,.T.);
#817=ORIENTED_EDGE('',*,*,#611,.F.);
#818=ORIENTED_EDGE('',*,*,#612,.F.);
#819=ORIENTED_EDGE('',*,*,#613,.F.);
#820=ORIENTED_EDGE('',*,*,#614,.T.);
#821=ORIENTED_EDGE('',*,*,#583,.T.);
#822=ORIENTED_EDGE('',*,*,#613,.T.);
#823=ORIENTED_EDGE('',*,*,#615,.T.);
#824=ORIENTED_EDGE('',*,*,#614,.F.);
#825=ORIENTED_EDGE('',*,*,#616,.F.);
#826=ORIENTED_EDGE('',*,*,#617,.F.);
#827=ORIENTED_EDGE('',*,*,#618,.F.);
#828=ORIENTED_EDGE('',*,*,#584,.T.);
#829=ORIENTED_EDGE('',*,*,#615,.F.);
#830=ORIENTED_EDGE('',*,*,#619,.T.);
#831=ORIENTED_EDGE('',*,*,#618,.T.);
#832=ORIENTED_EDGE('',*,*,#620,.F.);
#833=ORIENTED_EDGE('',*,*,#534,.F.);
#834=ORIENTED_EDGE('',*,*,#581,.F.);
#835=ORIENTED_EDGE('',*,*,#621,.T.);
#836=ORIENTED_EDGE('',*,*,#620,.T.);
#837=ORIENTED_EDGE('',*,*,#622,.T.);
#838=ORIENTED_EDGE('',*,*,#535,.F.);
#839=ORIENTED_EDGE('',*,*,#621,.F.);
#840=ORIENTED_EDGE('',*,*,#623,.T.);
#841=ORIENTED_EDGE('',*,*,#624,.F.);
#842=ORIENTED_EDGE('',*,*,#625,.T.);
#843=ORIENTED_EDGE('',*,*,#624,.T.);
#844=ORIENTED_EDGE('',*,*,#626,.T.);
#845=ORIENTED_EDGE('',*,*,#536,.F.);
#846=ORIENTED_EDGE('',*,*,#625,.F.);
#847=ORIENTED_EDGE('',*,*,#627,.T.);
#848=ORIENTED_EDGE('',*,*,#628,.F.);
#849=ORIENTED_EDGE('',*,*,#629,.T.);
#850=ORIENTED_EDGE('',*,*,#630,.T.);
#851=ORIENTED_EDGE('',*,*,#628,.T.);
#852=ORIENTED_EDGE('',*,*,#631,.F.);
#853=ORIENTED_EDGE('',*,*,#632,.F.);
#854=ORIENTED_EDGE('',*,*,#633,.T.);
#855=ORIENTED_EDGE('',*,*,#629,.F.);
#856=ORIENTED_EDGE('',*,*,#634,.F.);
#857=ORIENTED_EDGE('',*,*,#631,.T.);
#858=ORIENTED_EDGE('',*,*,#627,.F.);
#859=ORIENTED_EDGE('',*,*,#635,.T.);
#860=ORIENTED_EDGE('',*,*,#634,.T.);
#861=ORIENTED_EDGE('',*,*,#636,.F.);
#862=ORIENTED_EDGE('',*,*,#637,.F.);
#863=ORIENTED_EDGE('',*,*,#638,.F.);
#864=ORIENTED_EDGE('',*,*,#639,.T.);
#865=ORIENTED_EDGE('',*,*,#632,.T.);
#866=ORIENTED_EDGE('',*,*,#638,.T.);
#867=ORIENTED_EDGE('',*,*,#640,.T.);
#868=ORIENTED_EDGE('',*,*,#639,.F.);
#869=ORIENTED_EDGE('',*,*,#641,.F.);
#870=ORIENTED_EDGE('',*,*,#642,.F.);
#871=ORIENTED_EDGE('',*,*,#643,.F.);
#872=ORIENTED_EDGE('',*,*,#633,.F.);
#873=ORIENTED_EDGE('',*,*,#640,.F.);
#874=ORIENTED_EDGE('',*,*,#541,.F.);
#875=ORIENTED_EDGE('',*,*,#537,.F.);
#876=ORIENTED_EDGE('',*,*,#630,.F.);
#877=ORIENTED_EDGE('',*,*,#643,.T.);
#878=ORIENTED_EDGE('',*,*,#540,.T.);
#879=ORIENTED_EDGE('',*,*,#542,.T.);
#880=ORIENTED_EDGE('',*,*,#642,.T.);
#881=ORIENTED_EDGE('',*,*,#644,.F.);
#882=ORIENTED_EDGE('',*,*,#645,.F.);
#883=ORIENTED_EDGE('',*,*,#646,.T.);
#884=ORIENTED_EDGE('',*,*,#645,.T.);
#885=ORIENTED_EDGE('',*,*,#647,.T.);
#886=ORIENTED_EDGE('',*,*,#543,.F.);
#887=ORIENTED_EDGE('',*,*,#646,.F.);
#888=ORIENTED_EDGE('',*,*,#648,.T.);
#889=ORIENTED_EDGE('',*,*,#649,.F.);
#890=ORIENTED_EDGE('',*,*,#650,.T.);
#891=ORIENTED_EDGE('',*,*,#539,.T.);
#892=ORIENTED_EDGE('',*,*,#649,.T.);
#893=ORIENTED_EDGE('',*,*,#651,.T.);
#894=ORIENTED_EDGE('',*,*,#652,.F.);
#895=ORIENTED_EDGE('',*,*,#530,.F.);
#896=ORIENTED_EDGE('',*,*,#650,.F.);
#897=ORIENTED_EDGE('',*,*,#653,.F.);
#898=ORIENTED_EDGE('',*,*,#654,.T.);
#899=ORIENTED_EDGE('',*,*,#651,.F.);
#900=ORIENTED_EDGE('',*,*,#648,.F.);
#901=ORIENTED_EDGE('',*,*,#655,.F.);
#902=ORIENTED_EDGE('',*,*,#656,.F.);
#903=ORIENTED_EDGE('',*,*,#653,.T.);
#904=ORIENTED_EDGE('',*,*,#647,.F.);
#905=ORIENTED_EDGE('',*,*,#657,.T.);
#906=ORIENTED_EDGE('',*,*,#658,.T.);
#907=ORIENTED_EDGE('',*,*,#655,.T.);
#908=ORIENTED_EDGE('',*,*,#644,.T.);
#909=ORIENTED_EDGE('',*,*,#641,.T.);
#910=ORIENTED_EDGE('',*,*,#637,.T.);
#911=ORIENTED_EDGE('',*,*,#659,.T.);
#912=ORIENTED_EDGE('',*,*,#616,.T.);
#913=ORIENTED_EDGE('',*,*,#612,.T.);
#914=ORIENTED_EDGE('',*,*,#573,.T.);
#915=ORIENTED_EDGE('',*,*,#660,.F.);
#916=ORIENTED_EDGE('',*,*,#657,.F.);
#917=ORIENTED_EDGE('',*,*,#661,.F.);
#918=ORIENTED_EDGE('',*,*,#662,.T.);
#919=ORIENTED_EDGE('',*,*,#661,.T.);
#920=ORIENTED_EDGE('',*,*,#611,.T.);
#921=ORIENTED_EDGE('',*,*,#574,.F.);
#922=ORIENTED_EDGE('',*,*,#662,.F.);
#923=ORIENTED_EDGE('',*,*,#586,.T.);
#924=ORIENTED_EDGE('',*,*,#577,.F.);
#925=ORIENTED_EDGE('',*,*,#663,.T.);
#926=ORIENTED_EDGE('',*,*,#660,.T.);
#927=ORIENTED_EDGE('',*,*,#570,.T.);
#928=ORIENTED_EDGE('',*,*,#554,.T.);
#929=ORIENTED_EDGE('',*,*,#664,.F.);
#930=ORIENTED_EDGE('',*,*,#658,.F.);
#931=ORIENTED_EDGE('',*,*,#663,.F.);
#932=ORIENTED_EDGE('',*,*,#664,.T.);
#933=ORIENTED_EDGE('',*,*,#665,.T.);
#934=ORIENTED_EDGE('',*,*,#656,.T.);
#935=ORIENTED_EDGE('',*,*,#654,.F.);
#936=ORIENTED_EDGE('',*,*,#665,.F.);
#937=ORIENTED_EDGE('',*,*,#553,.T.);
#938=ORIENTED_EDGE('',*,*,#666,.F.);
#939=ORIENTED_EDGE('',*,*,#566,.T.);
#940=ORIENTED_EDGE('',*,*,#652,.T.);
#941=ORIENTED_EDGE('',*,*,#666,.T.);
#942=ORIENTED_EDGE('',*,*,#667,.T.);
#943=ORIENTED_EDGE('',*,*,#668,.F.);
#944=ORIENTED_EDGE('',*,*,#659,.F.);
#945=ORIENTED_EDGE('',*,*,#669,.F.);
#946=ORIENTED_EDGE('',*,*,#670,.F.);
#947=ORIENTED_EDGE('',*,*,#623,.F.);
#948=ORIENTED_EDGE('',*,*,#671,.F.);
#949=ORIENTED_EDGE('',*,*,#667,.F.);
#950=ORIENTED_EDGE('',*,*,#670,.T.);
#951=ORIENTED_EDGE('',*,*,#672,.F.);
#952=ORIENTED_EDGE('',*,*,#635,.F.);
#953=ORIENTED_EDGE('',*,*,#626,.F.);
#954=ORIENTED_EDGE('',*,*,#669,.T.);
#955=ORIENTED_EDGE('',*,*,#636,.T.);
#956=ORIENTED_EDGE('',*,*,#672,.T.);
#957=ORIENTED_EDGE('',*,*,#619,.F.);
#958=ORIENTED_EDGE('',*,*,#673,.F.);
#959=ORIENTED_EDGE('',*,*,#671,.T.);
#960=ORIENTED_EDGE('',*,*,#622,.F.);
#961=ORIENTED_EDGE('',*,*,#673,.T.);
#962=ORIENTED_EDGE('',*,*,#617,.T.);
#963=ORIENTED_EDGE('',*,*,#668,.T.);
#964=PLANE('',#1068);
#965=PLANE('',#1072);
#966=PLANE('',#1078);
#967=PLANE('',#1082);
#968=PLANE('',#1087);
#969=PLANE('',#1092);
#970=PLANE('',#1103);
#971=PLANE('',#1116);
#972=PLANE('',#1121);
#973=PLANE('',#1124);
#974=PLANE('',#1129);
#975=PLANE('',#1131);
#976=PLANE('',#1133);
#977=PLANE('',#1141);
#978=PLANE('',#1159);
#979=PLANE('',#1167);
#980=PLANE('',#1180);
#981=PLANE('',#1183);
#982=PLANE('',#1202);
#983=ADVANCED_FACE('',(#147),#964,.F.);
#984=ADVANCED_FACE('',(#148),#111,.T.);
#985=ADVANCED_FACE('',(#149,#31,#32,#33),#965,.T.);
#986=ADVANCED_FACE('',(#150),#112,.F.);
#987=ADVANCED_FACE('',(#151,#34),#966,.T.);
#988=ADVANCED_FACE('',(#152),#113,.F.);
#989=ADVANCED_FACE('',(#153,#35,#36,#37),#967,.T.);
#990=ADVANCED_FACE('',(#154),#114,.F.);
#991=ADVANCED_FACE('',(#155,#38),#968,.T.);
#992=ADVANCED_FACE('',(#156),#115,.F.);
#993=ADVANCED_FACE('',(#157),#116,.F.);
#994=ADVANCED_FACE('',(#158,#39),#969,.T.);
#995=ADVANCED_FACE('',(#159),#117,.F.);
#996=ADVANCED_FACE('',(#160),#118,.T.);
#997=ADVANCED_FACE('',(#161),#15,.T.);
#998=ADVANCED_FACE('',(#162),#119,.T.);
#999=ADVANCED_FACE('',(#163),#970,.T.);
#1000=ADVANCED_FACE('',(#164),#120,.T.);
#1001=ADVANCED_FACE('',(#165),#16,.T.);
#1002=ADVANCED_FACE('',(#166),#121,.T.);
#1003=ADVANCED_FACE('',(#167),#17,.T.);
#1004=ADVANCED_FACE('',(#168),#122,.T.);
#1005=ADVANCED_FACE('',(#169,#40),#971,.T.);
#1006=ADVANCED_FACE('',(#170),#972,.T.);
#1007=ADVANCED_FACE('',(#171),#123,.F.);
#1008=ADVANCED_FACE('',(#172),#973,.T.);
#1009=ADVANCED_FACE('',(#173),#124,.F.);
#1010=ADVANCED_FACE('',(#174),#974,.T.);
#1011=ADVANCED_FACE('',(#175),#125,.F.);
#1012=ADVANCED_FACE('',(#176),#975,.T.);
#1013=ADVANCED_FACE('',(#177),#126,.F.);
#1014=ADVANCED_FACE('',(#178),#976,.T.);
#1015=ADVANCED_FACE('',(#179),#127,.T.);
#1016=ADVANCED_FACE('',(#180),#18,.T.);
#1017=ADVANCED_FACE('',(#181),#128,.T.);
#1018=ADVANCED_FACE('',(#182),#977,.T.);
#1019=ADVANCED_FACE('',(#183),#129,.T.);
#1020=ADVANCED_FACE('',(#184),#19,.T.);
#1021=ADVANCED_FACE('',(#185),#130,.T.);
#1022=ADVANCED_FACE('',(#186),#20,.T.);
#1023=ADVANCED_FACE('',(#187),#131,.T.);
#1024=ADVANCED_FACE('',(#188),#21,.T.);
#1025=ADVANCED_FACE('',(#189),#132,.T.);
#1026=ADVANCED_FACE('',(#190),#978,.T.);
#1027=ADVANCED_FACE('',(#191),#133,.T.);
#1028=ADVANCED_FACE('',(#192),#22,.T.);
#1029=ADVANCED_FACE('',(#193),#134,.T.);
#1030=ADVANCED_FACE('',(#194),#979,.T.);
#1031=ADVANCED_FACE('',(#195),#135,.T.);
#1032=ADVANCED_FACE('',(#196),#136,.T.);
#1033=ADVANCED_FACE('',(#197),#23,.T.);
#1034=ADVANCED_FACE('',(#198),#137,.T.);
#1035=ADVANCED_FACE('',(#199),#24,.T.);
#1036=ADVANCED_FACE('',(#200),#138,.T.);
#1037=ADVANCED_FACE('',(#201),#980,.T.);
#1038=ADVANCED_FACE('',(#202),#139,.T.);
#1039=ADVANCED_FACE('',(#203),#981,.T.);
#1040=ADVANCED_FACE('',(#204),#140,.T.);
#1041=ADVANCED_FACE('',(#205),#25,.T.);
#1042=ADVANCED_FACE('',(#206),#141,.T.);
#1043=ADVANCED_FACE('',(#207),#26,.T.);
#1044=ADVANCED_FACE('',(#208),#142,.T.);
#1045=ADVANCED_FACE('',(#209),#27,.T.);
#1046=ADVANCED_FACE('',(#210),#143,.T.);
#1047=ADVANCED_FACE('',(#211),#28,.T.);
#1048=ADVANCED_FACE('',(#212),#144,.T.);
#1049=ADVANCED_FACE('',(#213),#982,.T.);
#1050=ADVANCED_FACE('',(#214),#145,.T.);
#1051=ADVANCED_FACE('',(#215),#29,.T.);
#1052=ADVANCED_FACE('',(#216),#146,.T.);
#1053=ADVANCED_FACE('',(#217),#30,.T.);
#1054=CLOSED_SHELL('',(#983,#984,#985,#986,#987,#988,#989,#990,#991,#992,
#993,#994,#995,#996,#997,#998,#999,#1000,#1001,#1002,#1003,#1004,#1005,
#1006,#1007,#1008,#1009,#1010,#1011,#1012,#1013,#1014,#1015,#1016,#1017,
#1018,#1019,#1020,#1021,#1022,#1023,#1024,#1025,#1026,#1027,#1028,#1029,
#1030,#1031,#1032,#1033,#1034,#1035,#1036,#1037,#1038,#1039,#1040,#1041,
#1042,#1043,#1044,#1045,#1046,#1047,#1048,#1049,#1050,#1051,#1052,#1053));
#1055=DERIVED_UNIT_ELEMENT(#1057,1.);
#1056=DERIVED_UNIT_ELEMENT(#1870,-3.);
#1057=(
MASS_UNIT()
NAMED_UNIT(*)
SI_UNIT(.KILO.,.GRAM.)
);
#1058=DERIVED_UNIT((#1055,#1056));
#1059=MEASURE_REPRESENTATION_ITEM('density measure',
POSITIVE_RATIO_MEASURE(7850.),#1058);
#1060=PROPERTY_DEFINITION_REPRESENTATION(#1065,#1062);
#1061=PROPERTY_DEFINITION_REPRESENTATION(#1066,#1063);
#1062=REPRESENTATION('material name',(#1064),#1867);
#1063=REPRESENTATION('density',(#1059),#1867);
#1064=DESCRIPTIVE_REPRESENTATION_ITEM('\X2\94A2\X0\','\X2\94A2\X0\');
#1065=PROPERTY_DEFINITION('material property','material name',#1877);
#1066=PROPERTY_DEFINITION('material property','density of part',#1877);
#1067=AXIS2_PLACEMENT_3D('',#1568,#1209,#1210);
#1068=AXIS2_PLACEMENT_3D('',#1569,#1211,#1212);
#1069=AXIS2_PLACEMENT_3D('',#1588,#1222,#1223);
#1070=AXIS2_PLACEMENT_3D('',#1592,#1225,#1226);
#1071=AXIS2_PLACEMENT_3D('',#1593,#1227,#1228);
#1072=AXIS2_PLACEMENT_3D('',#1594,#1229,#1230);
#1073=AXIS2_PLACEMENT_3D('',#1601,#1234,#1235);
#1074=AXIS2_PLACEMENT_3D('',#1603,#1236,#1237);
#1075=AXIS2_PLACEMENT_3D('',#1605,#1238,#1239);
#1076=AXIS2_PLACEMENT_3D('',#1606,#1240,#1241);
#1077=AXIS2_PLACEMENT_3D('',#1609,#1243,#1244);
#1078=AXIS2_PLACEMENT_3D('',#1610,#1245,#1246);
#1079=AXIS2_PLACEMENT_3D('',#1612,#1247,#1248);
#1080=AXIS2_PLACEMENT_3D('',#1613,#1249,#1250);
#1081=AXIS2_PLACEMENT_3D('',#1616,#1252,#1253);
#1082=AXIS2_PLACEMENT_3D('',#1617,#1254,#1255);
#1083=AXIS2_PLACEMENT_3D('',#1627,#1260,#1261);
#1084=AXIS2_PLACEMENT_3D('',#1629,#1262,#1263);
#1085=AXIS2_PLACEMENT_3D('',#1630,#1264,#1265);
#1086=AXIS2_PLACEMENT_3D('',#1632,#1266,#1267);
#1087=AXIS2_PLACEMENT_3D('',#1634,#1269,#1270);
#1088=AXIS2_PLACEMENT_3D('',#1636,#1271,#1272);
#1089=AXIS2_PLACEMENT_3D('',#1637,#1273,#1274);
#1090=AXIS2_PLACEMENT_3D('',#1639,#1276,#1277);
#1091=AXIS2_PLACEMENT_3D('',#1641,#1278,#1279);
#1092=AXIS2_PLACEMENT_3D('',#1643,#1281,#1282);
#1093=AXIS2_PLACEMENT_3D('',#1645,#1283,#1284);
#1094=AXIS2_PLACEMENT_3D('',#1646,#1285,#1286);
#1095=AXIS2_PLACEMENT_3D('',#1648,#1288,#1289);
#1096=AXIS2_PLACEMENT_3D('',#1649,#1290,#1291);
#1097=AXIS2_PLACEMENT_3D('',#1650,#1292,#1293);
#1098=AXIS2_PLACEMENT_3D('',#1651,#1294,#1295);
#1099=AXIS2_PLACEMENT_3D('',#1653,#1296,#1297);
#1100=AXIS2_PLACEMENT_3D('',#1654,#1298,#1299);
#1101=AXIS2_PLACEMENT_3D('',#1655,#1300,#1301);
#1102=AXIS2_PLACEMENT_3D('',#1657,#1302,#1303);
#1103=AXIS2_PLACEMENT_3D('',#1659,#1305,#1306);
#1104=AXIS2_PLACEMENT_3D('',#1665,#1310,#1311);
#1105=AXIS2_PLACEMENT_3D('',#1666,#1312,#1313);
#1106=AXIS2_PLACEMENT_3D('',#1667,#1314,#1315);
#1107=AXIS2_PLACEMENT_3D('',#1669,#1316,#1317);
#1108=AXIS2_PLACEMENT_3D('',#1670,#1318,#1319);
#1109=AXIS2_PLACEMENT_3D('',#1671,#1320,#1321);
#1110=AXIS2_PLACEMENT_3D('',#1674,#1323,#1324);
#1111=AXIS2_PLACEMENT_3D('',#1675,#1325,#1326);
#1112=AXIS2_PLACEMENT_3D('',#1677,#1327,#1328);
#1113=AXIS2_PLACEMENT_3D('',#1678,#1329,#1330);
#1114=AXIS2_PLACEMENT_3D('',#1679,#1331,#1332);
#1115=AXIS2_PLACEMENT_3D('',#1683,#1334,#1335);
#1116=AXIS2_PLACEMENT_3D('',#1685,#1337,#1338);
#1117=AXIS2_PLACEMENT_3D('',#1693,#1342,#1343);
#1118=AXIS2_PLACEMENT_3D('',#1697,#1345,#1346);
#1119=AXIS2_PLACEMENT_3D('',#1701,#1348,#1349);
#1120=AXIS2_PLACEMENT_3D('',#1704,#1351,#1352);
#1121=AXIS2_PLACEMENT_3D('',#1705,#1353,#1354);
#1122=AXIS2_PLACEMENT_3D('',#1711,#1358,#1359);
#1123=AXIS2_PLACEMENT_3D('',#1713,#1360,#1361);
#1124=AXIS2_PLACEMENT_3D('',#1715,#1363,#1364);
#1125=AXIS2_PLACEMENT_3D('',#1718,#1365,#1366);
#1126=AXIS2_PLACEMENT_3D('',#1722,#1368,#1369);
#1127=AXIS2_PLACEMENT_3D('',#1725,#1371,#1372);
#1128=AXIS2_PLACEMENT_3D('',#1727,#1374,#1375);
#1129=AXIS2_PLACEMENT_3D('',#1730,#1378,#1379);
#1130=AXIS2_PLACEMENT_3D('',#1732,#1381,#1382);
#1131=AXIS2_PLACEMENT_3D('',#1734,#1384,#1385);
#1132=AXIS2_PLACEMENT_3D('',#1736,#1387,#1388);
#1133=AXIS2_PLACEMENT_3D('',#1737,#1389,#1390);
#1134=AXIS2_PLACEMENT_3D('',#1738,#1391,#1392);
#1135=AXIS2_PLACEMENT_3D('',#1740,#1393,#1394);
#1136=AXIS2_PLACEMENT_3D('',#1743,#1396,#1397);
#1137=AXIS2_PLACEMENT_3D('',#1744,#1398,#1399);
#1138=AXIS2_PLACEMENT_3D('',#1745,#1400,#1401);
#1139=AXIS2_PLACEMENT_3D('',#1746,#1402,#1403);
#1140=AXIS2_PLACEMENT_3D('',#1751,#1406,#1407);
#1141=AXIS2_PLACEMENT_3D('',#1752,#1408,#1409);
#1142=AXIS2_PLACEMENT_3D('',#1756,#1412,#1413);
#1143=AXIS2_PLACEMENT_3D('',#1757,#1414,#1415);
#1144=AXIS2_PLACEMENT_3D('',#1758,#1416,#1417);
#1145=AXIS2_PLACEMENT_3D('',#1760,#1418,#1419);
#1146=AXIS2_PLACEMENT_3D('',#1761,#1420,#1421);
#1147=AXIS2_PLACEMENT_3D('',#1762,#1422,#1423);
#1148=AXIS2_PLACEMENT_3D('',#1765,#1425,#1426);
#1149=AXIS2_PLACEMENT_3D('',#1766,#1427,#1428);
#1150=AXIS2_PLACEMENT_3D('',#1768,#1429,#1430);
#1151=AXIS2_PLACEMENT_3D('',#1769,#1431,#1432);
#1152=AXIS2_PLACEMENT_3D('',#1770,#1433,#1434);
#1153=AXIS2_PLACEMENT_3D('',#1773,#1436,#1437);
#1154=AXIS2_PLACEMENT_3D('',#1774,#1438,#1439);
#1155=AXIS2_PLACEMENT_3D('',#1776,#1440,#1441);
#1156=AXIS2_PLACEMENT_3D('',#1777,#1442,#1443);
#1157=AXIS2_PLACEMENT_3D('',#1778,#1444,#1445);
#1158=AXIS2_PLACEMENT_3D('',#1782,#1447,#1448);
#1159=AXIS2_PLACEMENT_3D('',#1784,#1450,#1451);
#1160=AXIS2_PLACEMENT_3D('',#1788,#1454,#1455);
#1161=AXIS2_PLACEMENT_3D('',#1790,#1456,#1457);
#1162=AXIS2_PLACEMENT_3D('',#1793,#1459,#1460);
#1163=AXIS2_PLACEMENT_3D('',#1794,#1461,#1462);
#1164=AXIS2_PLACEMENT_3D('',#1795,#1463,#1464);
#1165=AXIS2_PLACEMENT_3D('',#1796,#1465,#1466);
#1166=AXIS2_PLACEMENT_3D('',#1800,#1469,#1470);
#1167=AXIS2_PLACEMENT_3D('',#1801,#1471,#1472);
#1168=AXIS2_PLACEMENT_3D('',#1803,#1474,#1475);
#1169=AXIS2_PLACEMENT_3D('',#1804,#1476,#1477);
#1170=AXIS2_PLACEMENT_3D('',#1807,#1479,#1480);
#1171=AXIS2_PLACEMENT_3D('',#1808,#1481,#1482);
#1172=AXIS2_PLACEMENT_3D('',#1810,#1483,#1484);
#1173=AXIS2_PLACEMENT_3D('',#1811,#1485,#1486);
#1174=AXIS2_PLACEMENT_3D('',#1812,#1487,#1488);
#1175=AXIS2_PLACEMENT_3D('',#1815,#1490,#1491);
#1176=AXIS2_PLACEMENT_3D('',#1816,#1492,#1493);
#1177=AXIS2_PLACEMENT_3D('',#1817,#1494,#1495);
#1178=AXIS2_PLACEMENT_3D('',#1818,#1496,#1497);
#1179=AXIS2_PLACEMENT_3D('',#1821,#1499,#1500);
#1180=AXIS2_PLACEMENT_3D('',#1822,#1501,#1502);
#1181=AXIS2_PLACEMENT_3D('',#1826,#1505,#1506);
#1182=AXIS2_PLACEMENT_3D('',#1829,#1508,#1509);
#1183=AXIS2_PLACEMENT_3D('',#1830,#1510,#1511);
#1184=AXIS2_PLACEMENT_3D('',#1835,#1515,#1516);
#1185=AXIS2_PLACEMENT_3D('',#1836,#1517,#1518);
#1186=AXIS2_PLACEMENT_3D('',#1837,#1519,#1520);
#1187=AXIS2_PLACEMENT_3D('',#1838,#1521,#1522);
#1188=AXIS2_PLACEMENT_3D('',#1839,#1523,#1524);
#1189=AXIS2_PLACEMENT_3D('',#1840,#1525,#1526);
#1190=AXIS2_PLACEMENT_3D('',#1841,#1527,#1528);
#1191=AXIS2_PLACEMENT_3D('',#1842,#1529,#1530);
#1192=AXIS2_PLACEMENT_3D('',#1843,#1531,#1532);
#1193=AXIS2_PLACEMENT_3D('',#1844,#1533,#1534);
#1194=AXIS2_PLACEMENT_3D('',#1845,#1535,#1536);
#1195=AXIS2_PLACEMENT_3D('',#1846,#1537,#1538);
#1196=AXIS2_PLACEMENT_3D('',#1847,#1539,#1540);
#1197=AXIS2_PLACEMENT_3D('',#1848,#1541,#1542);
#1198=AXIS2_PLACEMENT_3D('',#1849,#1543,#1544);
#1199=AXIS2_PLACEMENT_3D('',#1850,#1545,#1546);
#1200=AXIS2_PLACEMENT_3D('',#1854,#1548,#1549);
#1201=AXIS2_PLACEMENT_3D('',#1855,#1550,#1551);
#1202=AXIS2_PLACEMENT_3D('',#1856,#1552,#1553);
#1203=AXIS2_PLACEMENT_3D('',#1859,#1556,#1557);
#1204=AXIS2_PLACEMENT_3D('',#1860,#1558,#1559);
#1205=AXIS2_PLACEMENT_3D('',#1861,#1560,#1561);
#1206=AXIS2_PLACEMENT_3D('',#1862,#1562,#1563);
#1207=AXIS2_PLACEMENT_3D('',#1863,#1564,#1565);
#1208=AXIS2_PLACEMENT_3D('',#1864,#1566,#1567);
#1209=DIRECTION('axis',(0.,0.,1.));
#1210=DIRECTION('refdir',(1.,0.,0.));
#1211=DIRECTION('center_axis',(0.,0.,1.));
#1212=DIRECTION('ref_axis',(1.,0.,0.));
#1213=DIRECTION('',(0.,1.,0.));
#1214=DIRECTION('',(1.,0.,0.));
#1215=DIRECTION('',(0.51830171609332,-0.855197831554033,0.));
#1216=DIRECTION('',(0.,-1.,0.));
#1217=DIRECTION('',(-0.64018439966448,-0.768221279597376,0.));
#1218=DIRECTION('',(-1.,0.,0.));
#1219=DIRECTION('',(-0.6,0.8,0.));
#1220=DIRECTION('',(0.,1.,0.));
#1221=DIRECTION('',(1.,0.,0.));
#1222=DIRECTION('center_axis',(0.,1.,0.));
#1223=DIRECTION('ref_axis',(0.,0.,-1.));
#1224=DIRECTION('',(0.,1.,0.));
#1225=DIRECTION('center_axis',(0.,1.,0.));
#1226=DIRECTION('ref_axis',(0.,0.,-1.));
#1227=DIRECTION('center_axis',(-0.707106781186548,-0.707106781186548,0.));
#1228=DIRECTION('ref_axis',(-0.707106781186547,0.707106781186547,0.));
#1229=DIRECTION('center_axis',(-1.,0.,0.));
#1230=DIRECTION('ref_axis',(0.,-1.,0.));
#1231=DIRECTION('',(0.,0.,1.));
#1232=DIRECTION('',(0.,-1.,0.));
#1233=DIRECTION('',(0.,0.,-1.));
#1234=DIRECTION('center_axis',(1.,0.,0.));
#1235=DIRECTION('ref_axis',(0.,-1.,0.));
#1236=DIRECTION('center_axis',(1.,0.,0.));
#1237=DIRECTION('ref_axis',(0.,-1.,0.));
#1238=DIRECTION('center_axis',(1.,0.,0.));
#1239=DIRECTION('ref_axis',(0.,-1.,0.));
#1240=DIRECTION('center_axis',(1.,0.,0.));
#1241=DIRECTION('ref_axis',(0.,-1.,0.));
#1242=DIRECTION('',(1.,0.,0.));
#1243=DIRECTION('center_axis',(1.,0.,0.));
#1244=DIRECTION('ref_axis',(0.,-1.,0.));
#1245=DIRECTION('center_axis',(1.,0.,0.));
#1246=DIRECTION('ref_axis',(0.,-1.,0.));
#1247=DIRECTION('center_axis',(1.,0.,0.));
#1248=DIRECTION('ref_axis',(0.,-1.,0.));
#1249=DIRECTION('center_axis',(1.,0.,0.));
#1250=DIRECTION('ref_axis',(0.,-1.,0.));
#1251=DIRECTION('',(1.,0.,0.));
#1252=DIRECTION('center_axis',(0.855197831554033,0.51830171609332,0.));
#1253=DIRECTION('ref_axis',(0.51830171609332,-0.855197831554033,0.));
#1254=DIRECTION('center_axis',(0.855197831554033,0.51830171609332,0.));
#1255=DIRECTION('ref_axis',(0.51830171609332,-0.855197831554033,0.));
#1256=DIRECTION('',(0.51830171609332,-0.855197831554033,0.));
#1257=DIRECTION('',(0.,0.,-1.));
#1258=DIRECTION('',(-0.51830171609332,0.855197831554033,0.));
#1259=DIRECTION('',(0.,0.,1.));
#1260=DIRECTION('center_axis',(0.855197831554033,0.51830171609332,0.));
#1261=DIRECTION('ref_axis',(0.51830171609332,-0.855197831554033,0.));
#1262=DIRECTION('center_axis',(0.855197831554033,0.51830171609332,0.));
#1263=DIRECTION('ref_axis',(0.51830171609332,-0.855197831554033,0.));
#1264=DIRECTION('center_axis',(1.,0.,0.));
#1265=DIRECTION('ref_axis',(0.,-1.,0.));
#1266=DIRECTION('center_axis',(1.,0.,0.));
#1267=DIRECTION('ref_axis',(0.,-1.,0.));
#1268=DIRECTION('',(1.,0.,0.));
#1269=DIRECTION('center_axis',(1.,0.,0.));
#1270=DIRECTION('ref_axis',(0.,-1.,0.));
#1271=DIRECTION('center_axis',(-1.,0.,0.));
#1272=DIRECTION('ref_axis',(0.,-1.,0.));
#1273=DIRECTION('center_axis',(1.,0.,0.));
#1274=DIRECTION('ref_axis',(0.,-1.,0.));
#1275=DIRECTION('',(1.,0.,0.));
#1276=DIRECTION('center_axis',(1.,0.,0.));
#1277=DIRECTION('ref_axis',(0.,-1.,0.));
#1278=DIRECTION('center_axis',(1.,0.,0.));
#1279=DIRECTION('ref_axis',(0.,-1.,0.));
#1280=DIRECTION('',(1.,0.,0.));
#1281=DIRECTION('center_axis',(1.,0.,0.));
#1282=DIRECTION('ref_axis',(0.,-1.,0.));
#1283=DIRECTION('center_axis',(-1.,0.,0.));
#1284=DIRECTION('ref_axis',(0.,-1.,0.));
#1285=DIRECTION('center_axis',(1.,0.,0.));
#1286=DIRECTION('ref_axis',(0.,-1.,0.));
#1287=DIRECTION('',(1.,0.,0.));
#1288=DIRECTION('center_axis',(0.51830171609332,-0.855197831554033,0.));
#1289=DIRECTION('ref_axis',(0.,0.,-1.));
#1290=DIRECTION('center_axis',(-0.51830171609332,0.855197831554033,0.));
#1291=DIRECTION('ref_axis',(0.855197831554033,0.51830171609332,0.));
#1292=DIRECTION('center_axis',(0.51830171609332,-0.855197831554033,0.));
#1293=DIRECTION('ref_axis',(0.,0.,-1.));
#1294=DIRECTION('center_axis',(-0.269074495675405,0.963119367356418,0.));
#1295=DIRECTION('ref_axis',(0.963119367356418,0.269074495675404,0.));
#1296=DIRECTION('center_axis',(0.,0.,-1.));
#1297=DIRECTION('ref_axis',(0.855197831554033,0.51830171609332,0.));
#1298=DIRECTION('center_axis',(0.,1.,0.));
#1299=DIRECTION('ref_axis',(1.,0.,0.));
#1300=DIRECTION('center_axis',(0.,0.,1.));
#1301=DIRECTION('ref_axis',(1.,0.,0.));
#1302=DIRECTION('center_axis',(0.,0.,1.));
#1303=DIRECTION('ref_axis',(1.,0.,0.));
#1304=DIRECTION('',(0.,0.,1.));
#1305=DIRECTION('center_axis',(1.,0.,0.));
#1306=DIRECTION('ref_axis',(0.,1.,0.));
#1307=DIRECTION('',(0.,-1.,0.));
#1308=DIRECTION('',(0.,1.,0.));
#1309=DIRECTION('',(0.,0.,-1.));
#1310=DIRECTION('center_axis',(0.,-1.,0.));
#1311=DIRECTION('ref_axis',(0.,0.,-1.));
#1312=DIRECTION('center_axis',(0.,-1.,0.));
#1313=DIRECTION('ref_axis',(0.,0.,-1.));
#1314=DIRECTION('center_axis',(0.543214476255122,-0.452678730212617,0.707106781186523));
#1315=DIRECTION('ref_axis',(0.543214476255086,-0.452678730212589,-0.707106781186569));
#1316=DIRECTION('center_axis',(0.64018439966448,0.768221279597376,0.));
#1317=DIRECTION('ref_axis',(0.768221279597376,-0.64018439966448,0.));
#1318=DIRECTION('center_axis',(0.,0.,-1.));
#1319=DIRECTION('ref_axis',(1.,0.,0.));
#1320=DIRECTION('center_axis',(-0.64018439966448,-0.768221279597376,0.));
#1321=DIRECTION('ref_axis',(0.,0.,-1.));
#1322=DIRECTION('',(-0.64018439966448,-0.768221279597376,0.));
#1323=DIRECTION('center_axis',(-0.64018439966448,-0.768221279597376,0.));
#1324=DIRECTION('ref_axis',(0.,0.,-1.));
#1325=DIRECTION('center_axis',(0.905589421223694,0.424155396249695,0.));
#1326=DIRECTION('ref_axis',(0.424155396249695,-0.905589421223694,0.));
#1327=DIRECTION('center_axis',(0.,0.,-1.));
#1328=DIRECTION('ref_axis',(0.768221279597376,-0.64018439966448,0.));
#1329=DIRECTION('center_axis',(1.,0.,0.));
#1330=DIRECTION('ref_axis',(0.,-1.,0.));
#1331=DIRECTION('center_axis',(0.,0.,1.));
#1332=DIRECTION('ref_axis',(0.,-1.,0.));
#1333=DIRECTION('',(0.,0.,1.));
#1334=DIRECTION('center_axis',(0.,0.,1.));
#1335=DIRECTION('ref_axis',(0.,-1.,0.));
#1336=DIRECTION('',(0.,0.,1.));
#1337=DIRECTION('center_axis',(0.768221279597376,-0.64018439966448,0.));
#1338=DIRECTION('ref_axis',(-0.64018439966448,-0.768221279597376,0.));
#1339=DIRECTION('',(0.64018439966448,0.768221279597376,0.));
#1340=DIRECTION('',(0.,0.,-1.));
#1341=DIRECTION('',(-0.64018439966448,-0.768221279597376,0.));
#1342=DIRECTION('center_axis',(-0.768221279597376,0.64018439966448,0.));
#1343=DIRECTION('ref_axis',(-0.452678730212587,-0.543214476255104,-0.707106781186557));
#1344=DIRECTION('',(0.,0.,-1.));
#1345=DIRECTION('center_axis',(-0.768221279597376,0.64018439966448,0.));
#1346=DIRECTION('ref_axis',(-0.452678730212587,-0.543214476255104,0.707106781186556));
#1347=DIRECTION('',(0.64018439966448,0.768221279597376,0.));
#1348=DIRECTION('center_axis',(-0.768221279597376,0.64018439966448,0.));
#1349=DIRECTION('ref_axis',(0.452678730212577,0.543214476255093,0.707106781186571));
#1350=DIRECTION('',(0.,0.,-1.));
#1351=DIRECTION('center_axis',(-0.768221279597376,0.64018439966448,0.));
#1352=DIRECTION('ref_axis',(0.452678730212578,0.543214476255093,-0.707106781186571));
#1353=DIRECTION('center_axis',(0.262747152153704,-0.218955960128103,0.939692620785914));
#1354=DIRECTION('ref_axis',(-0.640184399664483,-0.768221279597373,-1.20459198171826E-14));
#1355=DIRECTION('',(-0.890219534381235,0.320596535933413,0.323615577118213));
#1356=DIRECTION('',(-0.64018439966448,-0.768221279597376,0.));
#1357=DIRECTION('',(-0.475872246462284,0.817813281436173,0.323615577118189));
#1358=DIRECTION('center_axis',(-0.890219534381235,0.320596535933412,0.323615577118213));
#1359=DIRECTION('ref_axis',(0.338829404153231,0.94084782769647,-1.33087985076938E-14));
#1360=DIRECTION('center_axis',(0.768221279597376,-0.64018439966448,0.));
#1361=DIRECTION('ref_axis',(0.452678730212578,0.543214476255093,-0.707106781186571));
#1362=DIRECTION('',(-0.890219534381235,0.320596535933413,0.323615577118213));
#1363=DIRECTION('center_axis',(0.768221279597376,-0.64018439966448,0.));
#1364=DIRECTION('ref_axis',(-0.64018439966448,-0.768221279597376,0.));
#1365=DIRECTION('center_axis',(0.768221279597376,-0.64018439966448,0.));
#1366=DIRECTION('ref_axis',(0.452678730212577,0.543214476255093,0.707106781186571));
#1367=DIRECTION('',(0.64018439966448,0.768221279597376,0.));
#1368=DIRECTION('center_axis',(0.768221279597376,-0.64018439966448,0.));
#1369=DIRECTION('ref_axis',(-0.452678730212587,-0.543214476255104,0.707106781186556));
#1370=DIRECTION('',(0.,0.,-1.));
#1371=DIRECTION('center_axis',(0.768221279597376,-0.64018439966448,0.));
#1372=DIRECTION('ref_axis',(-0.452678730212587,-0.543214476255104,-0.707106781186557));
#1373=DIRECTION('',(0.,0.,-1.));
#1374=DIRECTION('center_axis',(-0.890219534381235,0.320596535933412,-0.323615577118213));
#1375=DIRECTION('ref_axis',(-0.262747152153748,0.218955960128119,0.939692620785898));
#1376=DIRECTION('',(-0.890219534381235,0.320596535933413,-0.323615577118213));
#1377=DIRECTION('',(-0.890219534381235,0.320596535933413,-0.323615577118213));
#1378=DIRECTION('center_axis',(0.262747152153704,-0.218955960128103,-0.939692620785914));
#1379=DIRECTION('ref_axis',(0.640184399664483,0.768221279597373,-1.20459198171826E-14));
#1380=DIRECTION('',(-0.475872246462284,0.817813281436173,-0.323615577118189));
#1381=DIRECTION('center_axis',(-0.475872246462284,0.817813281436173,-0.323615577118189));
#1382=DIRECTION('ref_axis',(-0.864323708460688,-0.502935907440265,-8.21565038222593E-15));
#1383=DIRECTION('',(-0.475872246462284,0.817813281436173,-0.323615577118189));
#1384=DIRECTION('center_axis',(0.864323708460676,0.502935907440286,0.));
#1385=DIRECTION('ref_axis',(0.,0.,1.));
#1386=DIRECTION('',(-0.475872246462284,0.817813281436173,0.323615577118189));
#1387=DIRECTION('center_axis',(-0.475872246462284,0.817813281436173,0.323615577118189));
#1388=DIRECTION('ref_axis',(-0.262747152153711,0.218955960128115,-0.939692620785909));
#1389=DIRECTION('center_axis',(-0.338829404153194,-0.940847827696483,0.));
#1390=DIRECTION('ref_axis',(0.,0.,-1.));
#1391=DIRECTION('center_axis',(0.64018439966448,0.768221279597376,0.));
#1392=DIRECTION('ref_axis',(0.,0.,1.));
#1393=DIRECTION('center_axis',(0.64018439966448,0.768221279597376,0.));
#1394=DIRECTION('ref_axis',(0.,0.,1.));
#1395=DIRECTION('',(0.64018439966448,0.768221279597376,0.));
#1396=DIRECTION('center_axis',(-0.64018439966448,-0.768221279597376,0.));
#1397=DIRECTION('ref_axis',(0.768221279597376,-0.64018439966448,0.));
#1398=DIRECTION('center_axis',(0.543214476255122,-0.452678730212617,-0.707106781186523));
#1399=DIRECTION('ref_axis',(0.543214476255086,-0.452678730212589,0.707106781186569));
#1400=DIRECTION('center_axis',(1.,0.,0.));
#1401=DIRECTION('ref_axis',(0.,0.,1.));
#1402=DIRECTION('center_axis',(1.,0.,0.));
#1403=DIRECTION('ref_axis',(0.,0.,1.));
#1404=DIRECTION('',(1.,0.,0.));
#1405=DIRECTION('',(1.,0.,0.));
#1406=DIRECTION('center_axis',(-1.,0.,0.));
#1407=DIRECTION('ref_axis',(0.,-1.,0.));
#1408=DIRECTION('center_axis',(0.,-1.,0.));
#1409=DIRECTION('ref_axis',(1.,0.,0.));
#1410=DIRECTION('',(-1.,0.,0.));
#1411=DIRECTION('',(0.,0.,-1.));
#1412=DIRECTION('center_axis',(-1.,0.,0.));
#1413=DIRECTION('ref_axis',(0.,0.,-1.));
#1414=DIRECTION('center_axis',(-1.,0.,0.));
#1415=DIRECTION('ref_axis',(0.,0.,-1.));
#1416=DIRECTION('center_axis',(-0.565685424949238,-0.424264068711929,0.707106781186548));
#1417=DIRECTION('ref_axis',(-0.565685424949238,-0.424264068711929,-0.707106781186548));
#1418=DIRECTION('center_axis',(0.6,-0.8,0.));
#1419=DIRECTION('ref_axis',(-0.8,-0.6,0.));
#1420=DIRECTION('center_axis',(0.,0.,-1.));
#1421=DIRECTION('ref_axis',(0.,-1.,0.));
#1422=DIRECTION('center_axis',(-0.6,0.8,0.));
#1423=DIRECTION('ref_axis',(0.,0.,-1.));
#1424=DIRECTION('',(-0.6,0.8,0.));
#1425=DIRECTION('center_axis',(-0.6,0.8,0.));
#1426=DIRECTION('ref_axis',(0.,0.,-1.));
#1427=DIRECTION('center_axis',(0.316227766016808,-0.948683298050524,0.));
#1428=DIRECTION('ref_axis',(-0.948683298050523,-0.316227766016809,0.));
#1429=DIRECTION('center_axis',(0.,-1.,0.));
#1430=DIRECTION('ref_axis',(-1.,0.,0.));
#1431=DIRECTION('center_axis',(0.,0.,-1.));
#1432=DIRECTION('ref_axis',(-0.8,-0.6,0.));
#1433=DIRECTION('center_axis',(0.,1.,0.));
#1434=DIRECTION('ref_axis',(0.,0.,-1.));
#1435=DIRECTION('',(0.,1.,0.));
#1436=DIRECTION('center_axis',(0.,1.,0.));
#1437=DIRECTION('ref_axis',(0.,0.,-1.));
#1438=DIRECTION('center_axis',(-0.707106781186548,-0.707106781186548,0.));
#1439=DIRECTION('ref_axis',(-0.707106781186548,0.707106781186548,0.));
#1440=DIRECTION('center_axis',(0.,0.,-1.));
#1441=DIRECTION('ref_axis',(-1.,0.,0.));
#1442=DIRECTION('center_axis',(-1.,0.,0.));
#1443=DIRECTION('ref_axis',(0.,1.,0.));
#1444=DIRECTION('center_axis',(0.,0.,-1.));
#1445=DIRECTION('ref_axis',(-1.,0.,0.));
#1446=DIRECTION('',(0.,0.,-1.));
#1447=DIRECTION('center_axis',(0.,0.,1.));
#1448=DIRECTION('ref_axis',(0.,1.,0.));
#1449=DIRECTION('',(0.,0.,-1.));
#1450=DIRECTION('center_axis',(-1.,0.,0.));
#1451=DIRECTION('ref_axis',(0.,-1.,0.));
#1452=DIRECTION('',(0.,-1.,0.));
#1453=DIRECTION('',(0.,0.,1.));
#1454=DIRECTION('center_axis',(0.,-1.,0.));
#1455=DIRECTION('ref_axis',(0.,0.,1.));
#1456=DIRECTION('center_axis',(0.,-1.,0.));
#1457=DIRECTION('ref_axis',(0.,0.,1.));
#1458=DIRECTION('',(0.,-1.,0.));
#1459=DIRECTION('center_axis',(0.,1.,0.));
#1460=DIRECTION('ref_axis',(-1.,0.,0.));
#1461=DIRECTION('center_axis',(-0.707106781186548,0.,-0.707106781186548));
#1462=DIRECTION('ref_axis',(-0.707106781186548,0.,0.707106781186548));
#1463=DIRECTION('center_axis',(-1.,0.,0.));
#1464=DIRECTION('ref_axis',(0.,0.,1.));
#1465=DIRECTION('center_axis',(-1.,0.,0.));
#1466=DIRECTION('ref_axis',(0.,0.,1.));
#1467=DIRECTION('',(-1.,0.,0.));
#1468=DIRECTION('',(-1.,0.,0.));
#1469=DIRECTION('center_axis',(0.707106781186548,0.707106781186548,0.));
#1470=DIRECTION('ref_axis',(-0.707106781186547,0.707106781186547,0.));
#1471=DIRECTION('center_axis',(0.,1.,0.));
#1472=DIRECTION('ref_axis',(-1.,0.,0.));
#1473=DIRECTION('',(1.,0.,0.));
#1474=DIRECTION('center_axis',(1.,0.,0.));
#1475=DIRECTION('ref_axis',(0.,0.,-1.));
#1476=DIRECTION('center_axis',(0.,-1.,0.));
#1477=DIRECTION('ref_axis',(0.,0.,1.));
#1478=DIRECTION('',(0.,-1.,0.));
#1479=DIRECTION('center_axis',(0.,1.,0.));
#1480=DIRECTION('ref_axis',(-1.,0.,0.));
#1481=DIRECTION('center_axis',(0.707106781186547,0.707106781186548,0.));
#1482=DIRECTION('ref_axis',(-0.707106781186547,0.707106781186548,0.));
#1483=DIRECTION('center_axis',(0.,0.,1.));
#1484=DIRECTION('ref_axis',(0.,1.,0.));
#1485=DIRECTION('center_axis',(-1.,0.,0.));
#1486=DIRECTION('ref_axis',(0.,0.,1.));
#1487=DIRECTION('center_axis',(0.,0.,-1.));
#1488=DIRECTION('ref_axis',(-1.,0.,0.));
#1489=DIRECTION('',(0.,0.,-1.));
#1490=DIRECTION('center_axis',(0.,0.,-1.));
#1491=DIRECTION('ref_axis',(-1.,0.,0.));
#1492=DIRECTION('center_axis',(0.,0.707106781186548,0.707106781186547));
#1493=DIRECTION('ref_axis',(0.,0.707106781186548,-0.707106781186547));
#1494=DIRECTION('center_axis',(-1.,0.,0.));
#1495=DIRECTION('ref_axis',(0.,1.,0.));
#1496=DIRECTION('center_axis',(1.,0.,0.));
#1497=DIRECTION('ref_axis',(0.,0.,-1.));
#1498=DIRECTION('',(1.,0.,0.));
#1499=DIRECTION('center_axis',(1.,0.,0.));
#1500=DIRECTION('ref_axis',(0.,0.,-1.));
#1501=DIRECTION('center_axis',(0.,1.,0.));
#1502=DIRECTION('ref_axis',(-1.,0.,0.));
#1503=DIRECTION('',(-1.,0.,0.));
#1504=DIRECTION('',(0.,0.,-1.));
#1505=DIRECTION('center_axis',(-1.,0.,0.));
#1506=DIRECTION('ref_axis',(0.,0.,1.));
#1507=DIRECTION('',(-1.,0.,0.));
#1508=DIRECTION('center_axis',(1.,0.,0.));
#1509=DIRECTION('ref_axis',(0.,1.,0.));
#1510=DIRECTION('center_axis',(0.,0.,1.));
#1511=DIRECTION('ref_axis',(1.,0.,0.));
#1512=DIRECTION('',(0.,1.,0.));
#1513=DIRECTION('',(-0.51830171609332,0.855197831554033,0.));
#1514=DIRECTION('',(0.6,-0.8,0.));
#1515=DIRECTION('center_axis',(0.,1.,0.));
#1516=DIRECTION('ref_axis',(0.,0.,1.));
#1517=DIRECTION('center_axis',(0.,1.,0.));
#1518=DIRECTION('ref_axis',(0.,0.,1.));
#1519=DIRECTION('center_axis',(0.,-1.,0.));
#1520=DIRECTION('ref_axis',(1.,0.,0.));
#1521=DIRECTION('center_axis',(-0.340425263753006,-0.940271577683116,0.));
#1522=DIRECTION('ref_axis',(0.940271577683116,-0.340425263753006,0.));
#1523=DIRECTION('center_axis',(0.,0.,1.));
#1524=DIRECTION('ref_axis',(0.768221279597376,-0.64018439966448,0.));
#1525=DIRECTION('center_axis',(0.,0.,-1.));
#1526=DIRECTION('ref_axis',(1.,0.,0.));
#1527=DIRECTION('center_axis',(0.604716185947916,0.36649465815021,-0.707106781186523));
#1528=DIRECTION('ref_axis',(0.604716185947873,0.366494658150181,0.707106781186575));
#1529=DIRECTION('center_axis',(0.51830171609332,-0.855197831554033,0.));
#1530=DIRECTION('ref_axis',(0.855197831554033,0.51830171609332,0.));
#1531=DIRECTION('center_axis',(-0.51830171609332,0.855197831554033,0.));
#1532=DIRECTION('ref_axis',(0.,0.,1.));
#1533=DIRECTION('center_axis',(-0.51830171609332,0.855197831554033,0.));
#1534=DIRECTION('ref_axis',(0.,0.,1.));
#1535=DIRECTION('center_axis',(0.871292636286259,-0.490763835213376,0.));
#1536=DIRECTION('ref_axis',(0.490763835213375,0.871292636286259,0.));
#1537=DIRECTION('center_axis',(0.,0.,1.));
#1538=DIRECTION('ref_axis',(0.855197831554033,0.51830171609332,0.));
#1539=DIRECTION('center_axis',(0.,0.,-1.));
#1540=DIRECTION('ref_axis',(0.,1.,0.));
#1541=DIRECTION('center_axis',(0.,0.,-1.));
#1542=DIRECTION('ref_axis',(0.,1.,0.));
#1543=DIRECTION('center_axis',(0.604716185947918,0.366494658150211,0.707106781186521));
#1544=DIRECTION('ref_axis',(0.604716185947872,0.366494658150184,-0.707106781186575));
#1545=DIRECTION('center_axis',(0.6,-0.8,0.));
#1546=DIRECTION('ref_axis',(0.,0.,1.));
#1547=DIRECTION('',(0.6,-0.8,0.));
#1548=DIRECTION('center_axis',(0.6,-0.8,0.));
#1549=DIRECTION('ref_axis',(0.,0.,1.));
#1550=DIRECTION('center_axis',(-0.6,0.8,0.));
#1551=DIRECTION('ref_axis',(-0.8,-0.6,0.));
#1552=DIRECTION('center_axis',(-0.8,-0.6,0.));
#1553=DIRECTION('ref_axis',(-0.6,0.8,0.));
#1554=DIRECTION('',(0.,0.,1.));
#1555=DIRECTION('',(0.,0.,-1.));
#1556=DIRECTION('center_axis',(0.,0.,1.));
#1557=DIRECTION('ref_axis',(-1.,0.,0.));
#1558=DIRECTION('center_axis',(0.,0.,1.));
#1559=DIRECTION('ref_axis',(-1.,0.,0.));
#1560=DIRECTION('center_axis',(-0.565685424949238,-0.424264068711929,-0.707106781186548));
#1561=DIRECTION('ref_axis',(-0.565685424949238,-0.424264068711929,0.707106781186548));
#1562=DIRECTION('center_axis',(0.,0.,-1.));
#1563=DIRECTION('ref_axis',(0.,-1.,0.));
#1564=DIRECTION('center_axis',(0.,0.,1.));
#1565=DIRECTION('ref_axis',(-0.8,-0.6,0.));
#1566=DIRECTION('center_axis',(-0.894427190999897,0.447213595499995,0.));
#1567=DIRECTION('ref_axis',(-0.447213595499995,-0.894427190999897,0.));
#1568=CARTESIAN_POINT('',(0.,0.,0.));
#1569=CARTESIAN_POINT('Origin',(0.,0.,-19.));
#1570=CARTESIAN_POINT('',(27.5,-30.5,-19.));
#1571=CARTESIAN_POINT('',(27.5,-0.5,-19.));
#1572=CARTESIAN_POINT('',(27.5,-30.5,-19.));
#1573=CARTESIAN_POINT('',(30.93674052233,-0.5,-19.));
#1574=CARTESIAN_POINT('',(27.5,-0.5,-19.));
#1575=CARTESIAN_POINT('',(50.5,-32.77937813816,-19.));
#1576=CARTESIAN_POINT('',(30.93674052233,-0.5,-19.));
#1577=CARTESIAN_POINT('',(50.5,-40.13795006482,-19.));
#1578=CARTESIAN_POINT('',(50.5,-32.77937813816,-19.));
#1579=CARTESIAN_POINT('',(41.03162505402,-51.5,-19.));
#1580=CARTESIAN_POINT('',(50.5,-40.13795006482,-19.));
#1581=CARTESIAN_POINT('',(35.,-51.5,-19.));
#1582=CARTESIAN_POINT('',(41.03162505402,-51.5,-19.));
#1583=CARTESIAN_POINT('',(20.5,-32.16666666667,-19.));
#1584=CARTESIAN_POINT('',(35.,-51.5,-19.));
#1585=CARTESIAN_POINT('',(20.5,-30.5,-19.));
#1586=CARTESIAN_POINT('',(20.5,-32.16666666667,-19.));
#1587=CARTESIAN_POINT('',(20.5,-30.5,-19.));
#1588=CARTESIAN_POINT('Origin',(27.5,-121.5908,-18.));
#1589=CARTESIAN_POINT('',(26.5,-29.5,-18.));
#1590=CARTESIAN_POINT('',(26.5,-0.5,-18.));
#1591=CARTESIAN_POINT('',(26.5,-29.5,-18.));
#1592=CARTESIAN_POINT('Origin',(27.5,-0.5,-18.));
#1593=CARTESIAN_POINT('Origin',(27.5,-30.5,-18.));
#1594=CARTESIAN_POINT('Origin',(26.5,0.5,-19.));
#1595=CARTESIAN_POINT('',(26.5,-29.5,18.));
#1596=CARTESIAN_POINT('',(26.5,-29.5,-18.));
#1597=CARTESIAN_POINT('',(26.5,-0.5,18.));
#1598=CARTESIAN_POINT('',(26.5,-0.5,18.));
#1599=CARTESIAN_POINT('',(26.5,-0.5,18.));
#1600=CARTESIAN_POINT('',(26.5,-2.75,-10.));
#1601=CARTESIAN_POINT('Origin',(26.5,-4.5,-10.));
#1602=CARTESIAN_POINT('',(26.5,-22.75,2.14313189850787E-16));
#1603=CARTESIAN_POINT('Origin',(26.5,-24.5,0.));
#1604=CARTESIAN_POINT('',(26.5,-2.75,10.));
#1605=CARTESIAN_POINT('Origin',(26.5,-4.5,10.));
#1606=CARTESIAN_POINT('Origin',(18.89591861254,-4.5,10.));
#1607=CARTESIAN_POINT('',(29.5,-2.75,10.));
#1608=CARTESIAN_POINT('',(18.89591861254,-2.75,10.));
#1609=CARTESIAN_POINT('Origin',(29.5,-4.5,10.));
#1610=CARTESIAN_POINT('Origin',(29.5,-4.5,10.));
#1611=CARTESIAN_POINT('',(29.5,-1.25,10.));
#1612=CARTESIAN_POINT('Origin',(29.5,-4.5,10.));
#1613=CARTESIAN_POINT('Origin',(18.89591861254,-4.5,10.));
#1614=CARTESIAN_POINT('',(32.56060606061,-1.25,10.));
#1615=CARTESIAN_POINT('',(18.89591861254,-1.25,10.));
#1616=CARTESIAN_POINT('Origin',(34.5303030303035,-4.5,10.));
#1617=CARTESIAN_POINT('Origin',(41.5,-16.,3.552713678801E-14));
#1618=CARTESIAN_POINT('',(31.79193835388,0.01830171609334,-18.));
#1619=CARTESIAN_POINT('',(51.35519783155,-32.26107642206,-18.));
#1620=CARTESIAN_POINT('',(31.79193835388,0.01830171609334,-18.));
#1621=CARTESIAN_POINT('',(31.79193835388,0.01830171609335,18.));
#1622=CARTESIAN_POINT('',(31.79193835388,0.01830171609334,18.));
#1623=CARTESIAN_POINT('',(51.35519783155,-32.26107642206,18.));
#1624=CARTESIAN_POINT('',(51.35519783155,-32.26107642206,18.));
#1625=CARTESIAN_POINT('',(51.35519783155,-32.26107642206,-18.));
#1626=CARTESIAN_POINT('',(32.56060606061,-1.25,-10.));
#1627=CARTESIAN_POINT('Origin',(34.5303030303035,-4.5,-10.));
#1628=CARTESIAN_POINT('',(44.68181818182,-21.25,1.42108547152E-14));
#1629=CARTESIAN_POINT('Origin',(46.6515151515148,-24.5,0.));
#1630=CARTESIAN_POINT('Origin',(18.89591861254,-4.5,-10.));
#1631=CARTESIAN_POINT('',(29.5,-1.25,-10.));
#1632=CARTESIAN_POINT('Origin',(29.5,-4.5,-10.));
#1633=CARTESIAN_POINT('',(18.89591861254,-1.25,-10.));
#1634=CARTESIAN_POINT('Origin',(29.5,-4.5,-10.));
#1635=CARTESIAN_POINT('',(29.5,-2.75,-10.));
#1636=CARTESIAN_POINT('Origin',(29.5,-4.5,-10.));
#1637=CARTESIAN_POINT('Origin',(18.89591861254,-4.5,-10.));
#1638=CARTESIAN_POINT('',(18.89591861254,-2.75,-10.));
#1639=CARTESIAN_POINT('Origin',(18.89591861254,-24.5,0.));
#1640=CARTESIAN_POINT('',(29.5,-21.25,3.9801020972289E-16));
#1641=CARTESIAN_POINT('Origin',(29.5,-24.5,0.));
#1642=CARTESIAN_POINT('',(18.89591861254,-21.25,3.9801020972289E-16));
#1643=CARTESIAN_POINT('Origin',(29.5,-24.5,0.));
#1644=CARTESIAN_POINT('',(29.5,-22.75,2.14313189850787E-16));
#1645=CARTESIAN_POINT('Origin',(29.5,-24.5,0.));
#1646=CARTESIAN_POINT('Origin',(18.89591861254,-24.5,0.));
#1647=CARTESIAN_POINT('',(18.89591861254,-22.75,2.14313189850787E-16));
#1648=CARTESIAN_POINT('Origin',(-11.54253220494,69.5908,-18.));
#1649=CARTESIAN_POINT('Origin',(30.93674052233,-0.5,-18.));
#1650=CARTESIAN_POINT('Origin',(50.5,-32.77937813816,-18.));
#1651=CARTESIAN_POINT('Origin',(50.5,-32.77937813816,-18.));
#1652=CARTESIAN_POINT('',(51.5,-32.77937813816,-18.));
#1653=CARTESIAN_POINT('Origin',(50.5,-32.77937813816,-18.));
#1654=CARTESIAN_POINT('Origin',(50.5,-32.77937813816,-18.));
#1655=CARTESIAN_POINT('Origin',(50.5,-32.77937813816,-68.5368));
#1656=CARTESIAN_POINT('',(51.5,-32.77937813816,18.));
#1657=CARTESIAN_POINT('Origin',(50.5,-32.77937813816,18.));
#1658=CARTESIAN_POINT('',(51.5,-32.77937813816,-18.));
#1659=CARTESIAN_POINT('Origin',(51.5,-52.5,-19.));
#1660=CARTESIAN_POINT('',(51.5,-40.13795006482,-18.));
#1661=CARTESIAN_POINT('',(51.5,-32.77937813816,-18.));
#1662=CARTESIAN_POINT('',(51.5,-40.13795006482,18.));
#1663=CARTESIAN_POINT('',(51.5,-40.13795006482,18.));
#1664=CARTESIAN_POINT('',(51.5,-40.13795006482,18.));
#1665=CARTESIAN_POINT('Origin',(50.5,69.5908,-18.));
#1666=CARTESIAN_POINT('Origin',(50.5,-40.13795006482,-18.));
#1667=CARTESIAN_POINT('Origin',(50.5,-40.13795006482,-18.));
#1668=CARTESIAN_POINT('',(51.2682212796,-40.77813446448,-18.));
#1669=CARTESIAN_POINT('Origin',(50.5,-40.13795006482,-18.));
#1670=CARTESIAN_POINT('Origin',(50.5,-40.13795006482,-18.));
#1671=CARTESIAN_POINT('Origin',(93.2152,11.12028993518,-18.));
#1672=CARTESIAN_POINT('',(41.79984633361,-52.14018439966,-18.));
#1673=CARTESIAN_POINT('',(51.2682212796,-40.77813446448,-18.));
#1674=CARTESIAN_POINT('Origin',(41.03162505402,-51.5,-18.));
#1675=CARTESIAN_POINT('Origin',(41.03162505402,-51.5,-18.));
#1676=CARTESIAN_POINT('',(41.03162505402,-52.5,-18.));
#1677=CARTESIAN_POINT('Origin',(41.03162505402,-51.5,-18.));
#1678=CARTESIAN_POINT('Origin',(41.03162505402,-51.5,-18.));
#1679=CARTESIAN_POINT('Origin',(41.03162505402,-51.5,-68.5368));
#1680=CARTESIAN_POINT('',(41.79984633361,-52.14018439966,18.));
#1681=CARTESIAN_POINT('',(41.79984633361,-52.14018439966,-18.));
#1682=CARTESIAN_POINT('',(41.03162505402,-52.5,18.));
#1683=CARTESIAN_POINT('Origin',(41.03162505402,-51.5,18.));
#1684=CARTESIAN_POINT('',(41.03162505402,-52.5,-18.));
#1685=CARTESIAN_POINT('Origin',(46.5,-46.5,3.552713678801E-14));
#1686=CARTESIAN_POINT('',(51.2682212796,-40.77813446448,18.));
#1687=CARTESIAN_POINT('',(41.79984633361,-52.14018439966,18.));
#1688=CARTESIAN_POINT('',(51.2682212796,-40.77813446448,18.));
#1689=CARTESIAN_POINT('',(48.33772278579,-44.29473265705,-15.25));
#1690=CARTESIAN_POINT('',(44.66227721421,-48.70526734295,-15.25));
#1691=CARTESIAN_POINT('',(48.33772278579,-44.29473265705,-15.25));
#1692=CARTESIAN_POINT('',(43.45912410159,-50.14905107809,-13.37061475843));
#1693=CARTESIAN_POINT('Origin',(44.8216641184099,-48.5140030579082,-13.1216444550451));
#1694=CARTESIAN_POINT('',(43.45912410159,-50.14905107809,13.37061475843));
#1695=CARTESIAN_POINT('',(43.45912410159,-50.14905107809,13.37061475843));
#1696=CARTESIAN_POINT('',(44.66227721421,-48.70526734295,15.25));
#1697=CARTESIAN_POINT('Origin',(44.8216641184099,-48.5140030579082,13.1216444550451));
#1698=CARTESIAN_POINT('',(48.33772278579,-44.29473265705,15.25));
#1699=CARTESIAN_POINT('',(44.66227721421,-48.70526734295,15.25));
#1700=CARTESIAN_POINT('',(49.54087589841,-42.85094892191,13.37061475843));
#1701=CARTESIAN_POINT('Origin',(48.178335881591,-44.4859969420908,13.1216444550442));
#1702=CARTESIAN_POINT('',(49.54087589841,-42.85094892191,-13.37061475843));
#1703=CARTESIAN_POINT('',(49.54087589841,-42.85094892191,13.37061475843));
#1704=CARTESIAN_POINT('Origin',(48.178335881591,-44.4859969420908,-13.1216444550442));
#1705=CARTESIAN_POINT('Origin',(46.13905406622,-46.19921172185,-15.07898992834));
#1706=CARTESIAN_POINT('',(47.33649344028,-43.93415793649,-14.88602976573));
#1707=CARTESIAN_POINT('',(48.33772278579,-44.29473265705,-15.25));
#1708=CARTESIAN_POINT('',(44.12706400053,-47.78547326418,-14.88602976573));
#1709=CARTESIAN_POINT('',(47.33649344028,-43.93415793649,-14.88602976573));
#1710=CARTESIAN_POINT('',(44.66227721421,-48.70526734295,-15.25));
#1711=CARTESIAN_POINT('Origin',(93.2152,-60.70521261646,-29.49359565403));
#1712=CARTESIAN_POINT('',(48.53964655289,-42.49037420135,-13.00664452416));
#1713=CARTESIAN_POINT('Origin',(47.177106536075,-44.12542222153,-12.7576742207783));
#1714=CARTESIAN_POINT('',(49.54087589841,-42.85094892191,-13.37061475843));
#1715=CARTESIAN_POINT('Origin',(45.7317787204,-45.85981560034,3.552713678801E-14));
#1716=CARTESIAN_POINT('',(48.53964655289,-42.49037420135,13.00664452416));
#1717=CARTESIAN_POINT('',(47.33649344028,-43.93415793649,14.88602976573));
#1718=CARTESIAN_POINT('Origin',(47.177106536075,-44.12542222153,12.7576742207783));
#1719=CARTESIAN_POINT('',(44.12706400053,-47.78547326418,14.88602976573));
#1720=CARTESIAN_POINT('',(44.12706400053,-47.78547326418,14.88602976573));
#1721=CARTESIAN_POINT('',(42.92391088792,-49.22925699932,13.00664452416));
#1722=CARTESIAN_POINT('Origin',(44.2864509047324,-47.5942089791411,12.7576742207792));
#1723=CARTESIAN_POINT('',(42.92391088792,-49.22925699932,-13.00664452416));
#1724=CARTESIAN_POINT('',(42.92391088792,-49.22925699932,13.00664452416));
#1725=CARTESIAN_POINT('Origin',(44.2864509047324,-47.5942089791411,-12.7576742207792));
#1726=CARTESIAN_POINT('',(48.53964655289,-42.49037420135,13.00664452416));
#1727=CARTESIAN_POINT('Origin',(93.2152,-60.70521261646,29.49359565403));
#1728=CARTESIAN_POINT('',(49.54087589841,-42.85094892191,13.37061475843));
#1729=CARTESIAN_POINT('',(48.33772278579,-44.29473265705,15.25));
#1730=CARTESIAN_POINT('Origin',(46.13905406622,-46.19921172185,15.07898992834));
#1731=CARTESIAN_POINT('',(44.66227721421,-48.70526734295,15.25));
#1732=CARTESIAN_POINT('Origin',(87.34386364057,-121.5908,42.03874613727));
#1733=CARTESIAN_POINT('',(43.45912410159,-50.14905107809,13.37061475843));
#1734=CARTESIAN_POINT('Origin',(43.20765614787,-49.71688922386,-1.59872115546E-14));
#1735=CARTESIAN_POINT('',(43.45912410159,-50.14905107809,-13.37061475843));
#1736=CARTESIAN_POINT('Origin',(87.34386364057,-121.5908,-42.03874613727));
#1737=CARTESIAN_POINT('Origin',(49.07045198456,-42.68153421984,-3.01980662698E-14));
#1738=CARTESIAN_POINT('Origin',(-17.37737494598,-121.5908,18.));
#1739=CARTESIAN_POINT('',(50.5,-40.13795006482,19.));
#1740=CARTESIAN_POINT('Origin',(50.5,-40.13795006482,18.));
#1741=CARTESIAN_POINT('',(41.03162505402,-51.5,19.));
#1742=CARTESIAN_POINT('',(41.03162505402,-51.5,19.));
#1743=CARTESIAN_POINT('Origin',(41.03162505402,-51.5,18.));
#1744=CARTESIAN_POINT('Origin',(41.03162505402,-51.5,18.));
#1745=CARTESIAN_POINT('Origin',(41.03162505402,-51.5,18.));
#1746=CARTESIAN_POINT('Origin',(-22.2152,-51.5,18.));
#1747=CARTESIAN_POINT('',(35.,-52.5,18.));
#1748=CARTESIAN_POINT('',(35.,-52.5,18.));
#1749=CARTESIAN_POINT('',(35.,-51.5,19.));
#1750=CARTESIAN_POINT('',(35.,-51.5,19.));
#1751=CARTESIAN_POINT('Origin',(35.,-51.5,18.));
#1752=CARTESIAN_POINT('Origin',(19.5,-52.5,-19.));
#1753=CARTESIAN_POINT('',(35.,-52.5,-18.));
#1754=CARTESIAN_POINT('',(41.03162505402,-52.5,-18.));
#1755=CARTESIAN_POINT('',(35.,-52.5,18.));
#1756=CARTESIAN_POINT('Origin',(93.2152,-51.5,-18.));
#1757=CARTESIAN_POINT('Origin',(35.,-51.5,-18.));
#1758=CARTESIAN_POINT('Origin',(35.,-51.5,-18.));
#1759=CARTESIAN_POINT('',(34.2,-52.1,-18.));
#1760=CARTESIAN_POINT('Origin',(35.,-51.5,-18.));
#1761=CARTESIAN_POINT('Origin',(35.,-51.5,-18.));
#1762=CARTESIAN_POINT('Origin',(87.5681,-121.5908,-18.));
#1763=CARTESIAN_POINT('',(19.7,-32.76666666667,-18.));
#1764=CARTESIAN_POINT('',(34.2,-52.1,-18.));
#1765=CARTESIAN_POINT('Origin',(20.5,-32.16666666667,-18.));
#1766=CARTESIAN_POINT('Origin',(20.5,-32.16666666667,-18.));
#1767=CARTESIAN_POINT('',(19.5,-32.16666666667,-18.));
#1768=CARTESIAN_POINT('Origin',(20.5,-32.16666666667,-18.));
#1769=CARTESIAN_POINT('Origin',(20.5,-32.16666666667,-18.));
#1770=CARTESIAN_POINT('Origin',(20.5,-121.5908,-18.));
#1771=CARTESIAN_POINT('',(19.5,-30.5,-18.));
#1772=CARTESIAN_POINT('',(19.5,-32.16666666667,-18.));
#1773=CARTESIAN_POINT('Origin',(20.5,-30.5,-18.));
#1774=CARTESIAN_POINT('Origin',(20.5,-30.5,-18.));
#1775=CARTESIAN_POINT('',(20.5,-29.5,-18.));
#1776=CARTESIAN_POINT('Origin',(20.5,-30.5,-18.));
#1777=CARTESIAN_POINT('Origin',(20.5,-30.5,-18.));
#1778=CARTESIAN_POINT('Origin',(20.5,-30.5,68.5368));
#1779=CARTESIAN_POINT('',(19.5,-30.5,18.));
#1780=CARTESIAN_POINT('',(19.5,-30.5,18.));
#1781=CARTESIAN_POINT('',(20.5,-29.5,18.));
#1782=CARTESIAN_POINT('Origin',(20.5,-30.5,18.));
#1783=CARTESIAN_POINT('',(20.5,-29.5,18.));
#1784=CARTESIAN_POINT('Origin',(19.5,-29.5,-19.));
#1785=CARTESIAN_POINT('',(19.5,-32.16666666667,18.));
#1786=CARTESIAN_POINT('',(19.5,-30.5,18.));
#1787=CARTESIAN_POINT('',(19.5,-32.16666666667,-18.));
#1788=CARTESIAN_POINT('Origin',(20.5,69.5908,18.));
#1789=CARTESIAN_POINT('',(20.5,-32.16666666667,19.));
#1790=CARTESIAN_POINT('Origin',(20.5,-32.16666666667,18.));
#1791=CARTESIAN_POINT('',(20.5,-30.5,19.));
#1792=CARTESIAN_POINT('',(20.5,-30.5,19.));
#1793=CARTESIAN_POINT('Origin',(20.5,-30.5,18.));
#1794=CARTESIAN_POINT('Origin',(20.5,-30.5,18.));
#1795=CARTESIAN_POINT('Origin',(20.5,-30.5,18.));
#1796=CARTESIAN_POINT('Origin',(93.2152,-30.5,18.));
#1797=CARTESIAN_POINT('',(26.5,-29.5,18.));
#1798=CARTESIAN_POINT('',(27.5,-30.5,19.));
#1799=CARTESIAN_POINT('',(27.5,-30.5,19.));
#1800=CARTESIAN_POINT('Origin',(27.5,-30.5,18.));
#1801=CARTESIAN_POINT('Origin',(26.5,-29.5,-19.));
#1802=CARTESIAN_POINT('',(20.5,-29.5,-18.));
#1803=CARTESIAN_POINT('Origin',(-22.2152,-30.5,-18.));
#1804=CARTESIAN_POINT('Origin',(27.5,69.5908,18.));
#1805=CARTESIAN_POINT('',(27.5,-0.5,19.));
#1806=CARTESIAN_POINT('',(27.5,-0.5,19.));
#1807=CARTESIAN_POINT('Origin',(27.5,-0.5,18.));
#1808=CARTESIAN_POINT('Origin',(27.5,-0.5,18.));
#1809=CARTESIAN_POINT('',(27.5,0.5,18.));
#1810=CARTESIAN_POINT('Origin',(27.5,-0.5,18.));
#1811=CARTESIAN_POINT('Origin',(27.5,-0.5,18.));
#1812=CARTESIAN_POINT('Origin',(27.5,-0.5,68.5368));
#1813=CARTESIAN_POINT('',(27.5,0.5,-18.));
#1814=CARTESIAN_POINT('',(27.5,0.5,18.));
#1815=CARTESIAN_POINT('Origin',(27.5,-0.5,-18.));
#1816=CARTESIAN_POINT('Origin',(27.5,-0.5,-18.));
#1817=CARTESIAN_POINT('Origin',(27.5,-0.5,-18.));
#1818=CARTESIAN_POINT('Origin',(-22.2152,-0.5,-18.));
#1819=CARTESIAN_POINT('',(30.93674052233,0.5,-18.));
#1820=CARTESIAN_POINT('',(27.5,0.5,-18.));
#1821=CARTESIAN_POINT('Origin',(30.93674052233,-0.5,-18.));
#1822=CARTESIAN_POINT('Origin',(51.5,0.5,-19.));
#1823=CARTESIAN_POINT('',(30.93674052233,0.5,18.));
#1824=CARTESIAN_POINT('',(30.93674052233,0.5,18.));
#1825=CARTESIAN_POINT('',(30.93674052233,0.5,18.));
#1826=CARTESIAN_POINT('Origin',(93.2152,-0.5,18.));
#1827=CARTESIAN_POINT('',(30.93674052233,-0.5,19.));
#1828=CARTESIAN_POINT('',(30.93674052233,-0.5,19.));
#1829=CARTESIAN_POINT('Origin',(30.93674052233,-0.5,18.));
#1830=CARTESIAN_POINT('Origin',(0.,0.,19.));
#1831=CARTESIAN_POINT('',(50.5,-32.77937813816,19.));
#1832=CARTESIAN_POINT('',(50.5,-40.13795006482,19.));
#1833=CARTESIAN_POINT('',(50.5,-32.77937813816,19.));
#1834=CARTESIAN_POINT('',(20.5,-32.16666666667,19.));
#1835=CARTESIAN_POINT('Origin',(50.5,-121.5908,18.));
#1836=CARTESIAN_POINT('Origin',(50.5,-32.77937813816,18.));
#1837=CARTESIAN_POINT('Origin',(50.5,-40.13795006482,18.));
#1838=CARTESIAN_POINT('Origin',(50.5,-40.13795006482,18.));
#1839=CARTESIAN_POINT('Origin',(50.5,-40.13795006482,18.));
#1840=CARTESIAN_POINT('Origin',(50.5,-40.13795006482,68.5368));
#1841=CARTESIAN_POINT('Origin',(50.5,-32.77937813816,18.));
#1842=CARTESIAN_POINT('Origin',(50.5,-32.77937813816,18.));
#1843=CARTESIAN_POINT('Origin',(93.2152,-103.2594581382,18.));
#1844=CARTESIAN_POINT('Origin',(30.93674052233,-0.5,18.));
#1845=CARTESIAN_POINT('Origin',(30.93674052233,-0.5,18.));
#1846=CARTESIAN_POINT('Origin',(30.93674052233,-0.5,18.));
#1847=CARTESIAN_POINT('Origin',(30.93674052233,-0.5,68.5368));
#1848=CARTESIAN_POINT('Origin',(30.93674052233,-0.5,-18.));
#1849=CARTESIAN_POINT('Origin',(30.93674052233,-0.5,-18.));
#1850=CARTESIAN_POINT('Origin',(-22.2152,24.78693333333,18.));
#1851=CARTESIAN_POINT('',(19.7,-32.76666666667,18.));
#1852=CARTESIAN_POINT('',(34.2,-52.1,18.));
#1853=CARTESIAN_POINT('',(19.7,-32.76666666667,18.));
#1854=CARTESIAN_POINT('Origin',(35.,-51.5,18.));
#1855=CARTESIAN_POINT('Origin',(20.5,-32.16666666667,18.));
#1856=CARTESIAN_POINT('Origin',(27.,-42.5,3.552713678801E-14));
#1857=CARTESIAN_POINT('',(19.7,-32.76666666667,-18.));
#1858=CARTESIAN_POINT('',(34.2,-52.1,18.));
#1859=CARTESIAN_POINT('Origin',(20.5,-32.16666666667,-68.5368));
#1860=CARTESIAN_POINT('Origin',(20.5,-32.16666666667,18.));
#1861=CARTESIAN_POINT('Origin',(20.5,-32.16666666667,18.));
#1862=CARTESIAN_POINT('Origin',(35.,-51.5,68.5368));
#1863=CARTESIAN_POINT('Origin',(35.,-51.5,18.));
#1864=CARTESIAN_POINT('Origin',(35.,-51.5,18.));
#1865=UNCERTAINTY_MEASURE_WITH_UNIT(LENGTH_MEASURE(0.01),#1869,
'DISTANCE_ACCURACY_VALUE',
'Maximum model space distance between geometric entities at asserted c
onnectivities');
#1866=UNCERTAINTY_MEASURE_WITH_UNIT(LENGTH_MEASURE(0.01),#1869,
'DISTANCE_ACCURACY_VALUE',
'Maximum model space distance between geometric entities at asserted c
onnectivities');
#1867=(
GEOMETRIC_REPRESENTATION_CONTEXT(3)
GLOBAL_UNCERTAINTY_ASSIGNED_CONTEXT((#1865))
GLOBAL_UNIT_ASSIGNED_CONTEXT((#1869,#1871,#1872))
REPRESENTATION_CONTEXT('','3D')
);
#1868=(
GEOMETRIC_REPRESENTATION_CONTEXT(3)
GLOBAL_UNCERTAINTY_ASSIGNED_CONTEXT((#1866))
GLOBAL_UNIT_ASSIGNED_CONTEXT((#1869,#1871,#1872))
REPRESENTATION_CONTEXT('','3D')
);
#1869=(
LENGTH_UNIT()
NAMED_UNIT(*)
SI_UNIT(.MILLI.,.METRE.)
);
#1870=(
LENGTH_UNIT()
NAMED_UNIT(*)
SI_UNIT($,.METRE.)
);
#1871=(
NAMED_UNIT(*)
PLANE_ANGLE_UNIT()
SI_UNIT($,.RADIAN.)
);
#1872=(
NAMED_UNIT(*)
SI_UNIT($,.STERADIAN.)
SOLID_ANGLE_UNIT()
);
#1873=SHAPE_DEFINITION_REPRESENTATION(#1874,#1875);
#1874=PRODUCT_DEFINITION_SHAPE('',$,#1877);
#1875=SHAPE_REPRESENTATION('',(#1067),#1867);
#1876=PRODUCT_DEFINITION_CONTEXT('part definition',#1881,'design');
#1877=PRODUCT_DEFINITION('2026-07-07-17-51-59-496','1-STOPPER-1',#1878,
#1876);
#1878=PRODUCT_DEFINITION_FORMATION('',$,#1883);
#1879=PRODUCT_RELATED_PRODUCT_CATEGORY('1-STOPPER-1','1-STOPPER-1',(#1883));
#1880=APPLICATION_PROTOCOL_DEFINITION('international standard',
'automotive_design',2009,#1881);
#1881=APPLICATION_CONTEXT(
'Core Data for Automotive Mechanical Design Process');
#1882=PRODUCT_CONTEXT('part definition',#1881,'mechanical');
#1883=PRODUCT('2026-07-07-17-51-59-496','1-STOPPER-1','NOT SPECIFIED',(#1882));
#1884=PRESENTATION_STYLE_ASSIGNMENT((#1885));
#1885=SURFACE_STYLE_USAGE(.BOTH.,#1886);
#1886=SURFACE_SIDE_STYLE('',(#1887));
#1887=SURFACE_STYLE_FILL_AREA(#1888);
#1888=FILL_AREA_STYLE('\X2\94A2\X0\ - \X2\7F0E5149\X0\',(#1889));
#1889=FILL_AREA_STYLE_COLOUR('\X2\94A2\X0\ - \X2\7F0E5149\X0\',#1890);
#1890=COLOUR_RGB('\X2\94A2\X0\ - \X2\7F0E5149\X0\',0.627450980392157,0.627450980392157,
0.627450980392157);
ENDSEC;
END-ISO-10303-21;
