ISO-10303-21;
HEADER;
FILE_DESCRIPTION((''),'2;1');
FILE_NAME('00','2026-06-29T14:56:14',('EDY'),(''),
'CREO PARAMETRIC BY PTC INC, 2021284','CREO PARAMETRIC BY PTC INC, 2021284','');
FILE_SCHEMA(('CONFIG_CONTROL_DESIGN'));
ENDSEC;
DATA;
#1=DIRECTION('',(0.E0,0.E0,-1.E0));
#2=VECTOR('',#1,4.300304609687E0);
#3=CARTESIAN_POINT('',(6.3E0,0.E0,5.700152304844E0));
#4=LINE('',#3,#2);
#5=DIRECTION('',(-1.E0,0.E0,0.E0));
#6=VECTOR('',#5,1.060030460969E1);
#7=CARTESIAN_POINT('',(5.300152304844E0,0.E0,4.E-1));
#8=LINE('',#7,#6);
#9=DIRECTION('',(0.E0,0.E0,1.E0));
#10=VECTOR('',#9,1.000152304844E0);
#11=CARTESIAN_POINT('',(-6.3E0,0.E0,1.399847695156E0));
#12=LINE('',#11,#10);
#13=DIRECTION('',(1.E0,0.E0,0.E0));
#14=VECTOR('',#13,4.2E0);
#15=CARTESIAN_POINT('',(-1.05E1,0.E0,2.4E0));
#16=LINE('',#15,#14);
#17=DIRECTION('',(0.E0,0.E0,-1.E0));
#18=VECTOR('',#17,2.E0);
#19=CARTESIAN_POINT('',(-1.05E1,0.E0,2.4E0));
#20=LINE('',#19,#18);
#21=DIRECTION('',(1.E0,0.E0,0.E0));
#22=VECTOR('',#21,5.E-1);
#23=CARTESIAN_POINT('',(-1.1E1,0.E0,4.E-1));
#24=LINE('',#23,#22);
#25=DIRECTION('',(0.E0,0.E0,1.E0));
#26=VECTOR('',#25,2.5E0);
#27=CARTESIAN_POINT('',(-1.1E1,0.E0,-2.1E0));
#28=LINE('',#27,#26);
#29=DIRECTION('',(-1.E0,0.E0,0.E0));
#30=VECTOR('',#29,5.E-1);
#31=CARTESIAN_POINT('',(-1.05E1,0.E0,-2.1E0));
#32=LINE('',#31,#30);
#33=DIRECTION('',(0.E0,0.E0,-1.E0));
#34=VECTOR('',#33,2.9E0);
#35=CARTESIAN_POINT('',(-1.05E1,0.E0,-2.1E0));
#36=LINE('',#35,#34);
#37=DIRECTION('',(1.E0,0.E0,0.E0));
#38=VECTOR('',#37,3.E0);
#39=CARTESIAN_POINT('',(-1.05E1,0.E0,-5.E0));
#40=LINE('',#39,#38);
#41=DIRECTION('',(0.E0,0.E0,1.E0));
#42=VECTOR('',#41,5.E-1);
#43=CARTESIAN_POINT('',(-7.5E0,0.E0,-5.5E0));
#44=LINE('',#43,#42);
#45=DIRECTION('',(-1.E0,0.E0,0.E0));
#46=VECTOR('',#45,2.5E0);
#47=CARTESIAN_POINT('',(-5.E0,0.E0,-5.5E0));
#48=LINE('',#47,#46);
#49=DIRECTION('',(0.E0,0.E0,-1.E0));
#50=VECTOR('',#49,5.E-1);
#51=CARTESIAN_POINT('',(-5.E0,0.E0,-5.E0));
#52=LINE('',#51,#50);
#53=DIRECTION('',(1.E0,0.E0,0.E0));
#54=VECTOR('',#53,1.E1);
#55=CARTESIAN_POINT('',(-5.E0,0.E0,-5.E0));
#56=LINE('',#55,#54);
#57=DIRECTION('',(0.E0,0.E0,1.E0));
#58=VECTOR('',#57,5.E-1);
#59=CARTESIAN_POINT('',(5.E0,0.E0,-5.5E0));
#60=LINE('',#59,#58);
#61=DIRECTION('',(-1.E0,0.E0,0.E0));
#62=VECTOR('',#61,2.5E0);
#63=CARTESIAN_POINT('',(7.5E0,0.E0,-5.5E0));
#64=LINE('',#63,#62);
#65=DIRECTION('',(0.E0,0.E0,-1.E0));
#66=VECTOR('',#65,5.E-1);
#67=CARTESIAN_POINT('',(7.5E0,0.E0,-5.E0));
#68=LINE('',#67,#66);
#69=DIRECTION('',(1.E0,0.E0,0.E0));
#70=VECTOR('',#69,3.E0);
#71=CARTESIAN_POINT('',(7.5E0,0.E0,-5.E0));
#72=LINE('',#71,#70);
#73=DIRECTION('',(0.E0,0.E0,1.E0));
#74=VECTOR('',#73,2.9E0);
#75=CARTESIAN_POINT('',(1.05E1,0.E0,-5.E0));
#76=LINE('',#75,#74);
#77=DIRECTION('',(-1.E0,0.E0,0.E0));
#78=VECTOR('',#77,5.E-1);
#79=CARTESIAN_POINT('',(1.1E1,0.E0,-2.1E0));
#80=LINE('',#79,#78);
#81=DIRECTION('',(0.E0,0.E0,-1.E0));
#82=VECTOR('',#81,2.5E0);
#83=CARTESIAN_POINT('',(1.1E1,0.E0,4.E-1));
#84=LINE('',#83,#82);
#85=DIRECTION('',(1.E0,0.E0,0.E0));
#86=VECTOR('',#85,5.E-1);
#87=CARTESIAN_POINT('',(1.05E1,0.E0,4.E-1));
#88=LINE('',#87,#86);
#89=DIRECTION('',(0.E0,0.E0,1.E0));
#90=VECTOR('',#89,8.E0);
#91=CARTESIAN_POINT('',(1.05E1,0.E0,4.E-1));
#92=LINE('',#91,#90);
#93=DIRECTION('',(-1.E0,0.E0,0.E0));
#94=VECTOR('',#93,5.E-1);
#95=CARTESIAN_POINT('',(1.1E1,0.E0,8.4E0));
#96=LINE('',#95,#94);
#97=DIRECTION('',(0.E0,0.E0,-1.E0));
#98=VECTOR('',#97,2.5E0);
#99=CARTESIAN_POINT('',(1.1E1,0.E0,1.09E1));
#100=LINE('',#99,#98);
#101=DIRECTION('',(1.E0,0.E0,0.E0));
#102=VECTOR('',#101,5.E-1);
#103=CARTESIAN_POINT('',(1.05E1,0.E0,1.09E1));
#104=LINE('',#103,#102);
#105=DIRECTION('',(0.E0,0.E0,1.E0));
#106=VECTOR('',#105,2.9E0);
#107=CARTESIAN_POINT('',(1.05E1,0.E0,1.09E1));
#108=LINE('',#107,#106);
#109=DIRECTION('',(-1.E0,0.E0,0.E0));
#110=VECTOR('',#109,3.E0);
#111=CARTESIAN_POINT('',(1.05E1,0.E0,1.38E1));
#112=LINE('',#111,#110);
#113=DIRECTION('',(0.E0,0.E0,-1.E0));
#114=VECTOR('',#113,5.E-1);
#115=CARTESIAN_POINT('',(7.5E0,0.E0,1.43E1));
#116=LINE('',#115,#114);
#117=DIRECTION('',(1.E0,0.E0,0.E0));
#118=VECTOR('',#117,2.5E0);
#119=CARTESIAN_POINT('',(5.E0,0.E0,1.43E1));
#120=LINE('',#119,#118);
#121=DIRECTION('',(0.E0,0.E0,1.E0));
#122=VECTOR('',#121,5.E-1);
#123=CARTESIAN_POINT('',(5.E0,0.E0,1.38E1));
#124=LINE('',#123,#122);
#125=DIRECTION('',(-1.E0,0.E0,0.E0));
#126=VECTOR('',#125,1.E1);
#127=CARTESIAN_POINT('',(5.E0,0.E0,1.38E1));
#128=LINE('',#127,#126);
#129=DIRECTION('',(0.E0,0.E0,-1.E0));
#130=VECTOR('',#129,5.E-1);
#131=CARTESIAN_POINT('',(-5.E0,0.E0,1.43E1));
#132=LINE('',#131,#130);
#133=DIRECTION('',(1.E0,0.E0,0.E0));
#134=VECTOR('',#133,2.5E0);
#135=CARTESIAN_POINT('',(-7.5E0,0.E0,1.43E1));
#136=LINE('',#135,#134);
#137=DIRECTION('',(0.E0,0.E0,1.E0));
#138=VECTOR('',#137,5.E-1);
#139=CARTESIAN_POINT('',(-7.5E0,0.E0,1.38E1));
#140=LINE('',#139,#138);
#141=DIRECTION('',(-1.E0,0.E0,0.E0));
#142=VECTOR('',#141,3.E0);
#143=CARTESIAN_POINT('',(-7.5E0,0.E0,1.38E1));
#144=LINE('',#143,#142);
#145=DIRECTION('',(0.E0,0.E0,-1.E0));
#146=VECTOR('',#145,2.9E0);
#147=CARTESIAN_POINT('',(-1.05E1,0.E0,1.38E1));
#148=LINE('',#147,#146);
#149=DIRECTION('',(1.E0,0.E0,0.E0));
#150=VECTOR('',#149,5.E-1);
#151=CARTESIAN_POINT('',(-1.1E1,0.E0,1.09E1));
#152=LINE('',#151,#150);
#153=DIRECTION('',(0.E0,0.E0,1.E0));
#154=VECTOR('',#153,2.5E0);
#155=CARTESIAN_POINT('',(-1.1E1,0.E0,8.4E0));
#156=LINE('',#155,#154);
#157=DIRECTION('',(-1.E0,0.E0,0.E0));
#158=VECTOR('',#157,5.E-1);
#159=CARTESIAN_POINT('',(-1.05E1,0.E0,8.4E0));
#160=LINE('',#159,#158);
#161=DIRECTION('',(0.E0,0.E0,-1.E0));
#162=VECTOR('',#161,1.7E0);
#163=CARTESIAN_POINT('',(-1.05E1,0.E0,8.4E0));
#164=LINE('',#163,#162);
#165=DIRECTION('',(-1.E0,-1.226798670025E-12,2.152968707017E-14));
#166=VECTOR('',#165,1.580015230302E1);
#167=CARTESIAN_POINT('',(5.530560755170E0,-1.320009138289E1,6.930408452147E0));
#168=LINE('',#167,#166);
#169=DIRECTION('',(1.744974902289E-2,-9.996954598843E-1,1.744974916072E-2));
#170=VECTOR('',#169,1.320411256486E1);
#171=CARTESIAN_POINT('',(5.300152304844E0,0.E0,6.7E0));
#172=LINE('',#171,#170);
#173=DIRECTION('',(-1.E0,0.E0,0.E0));
#174=VECTOR('',#173,1.580015230484E1);
#175=CARTESIAN_POINT('',(5.300152304844E0,0.E0,6.7E0));
#176=LINE('',#175,#174);
#177=DIRECTION('',(-2.547404931215E-9,-7.009092643112E-1,7.132504491431E-1));
#178=VECTOR('',#177,8.559005389988E-1);
#179=CARTESIAN_POINT('',(5.530560755170E0,-1.320009138289E1,6.930408452147E0));
#180=LINE('',#179,#178);
#181=DIRECTION('',(1.745240643728E-2,-9.998476951564E-1,0.E0));
#182=VECTOR('',#181,1.380210212701E1);
#183=CARTESIAN_POINT('',(-1.05E1,0.E0,1.09E1));
#184=LINE('',#183,#182);
#185=DIRECTION('',(-1.744974916068E-2,9.996954598819E-1,1.744974916068E-2));
#186=VECTOR('',#185,1.380420393390E1);
#187=CARTESIAN_POINT('',(-1.025912010399E1,-1.38E1,1.355912010399E1));
#188=LINE('',#187,#186);
#189=DIRECTION('',(0.E0,0.E0,-1.E0));
#190=VECTOR('',#189,2.659120103991E0);
#191=CARTESIAN_POINT('',(-1.025912010399E1,-1.38E1,1.355912010399E1));
#192=LINE('',#191,#190);
#193=DIRECTION('',(-1.745240643728E-2,9.998476951564E-1,0.E0));
#194=VECTOR('',#193,9.801492814830E0);
#195=CARTESIAN_POINT('',(-1.025912010399E1,-1.38E1,-2.7E0));
#196=LINE('',#195,#194);
#197=DIRECTION('',(0.E0,0.E0,1.E0));
#198=VECTOR('',#197,2.230179740287E0);
#199=CARTESIAN_POINT('',(-1.043017974029E1,-4.E0,-4.930179740287E0));
#200=LINE('',#199,#198);
#201=DIRECTION('',(1.745240643728E-2,-9.998476951564E-1,0.E0));
#202=VECTOR('',#201,1.380210212701E1);
#203=CARTESIAN_POINT('',(-1.05E1,0.E0,-2.1E0));
#204=LINE('',#203,#202);
#205=DIRECTION('',(0.E0,0.E0,-1.E0));
#206=VECTOR('',#205,6.E-1);
#207=CARTESIAN_POINT('',(-1.025912010399E1,-1.38E1,-2.1E0));
#208=LINE('',#207,#206);
#209=DIRECTION('',(1.744974916068E-2,-9.996954598819E-1,-1.744974916068E-2));
#210=VECTOR('',#209,1.380420393390E1);
#211=CARTESIAN_POINT('',(-1.05E1,0.E0,2.4E0));
#212=LINE('',#211,#210);
#213=DIRECTION('',(0.E0,0.E0,-1.E0));
#214=VECTOR('',#213,1.759120103991E0);
#215=CARTESIAN_POINT('',(-1.025912010399E1,-1.38E1,2.159120103991E0));
#216=LINE('',#215,#214);
#217=DIRECTION('',(1.745240643728E-2,-9.998476951564E-1,0.E0));
#218=VECTOR('',#217,1.380210212701E1);
#219=CARTESIAN_POINT('',(-1.05E1,0.E0,4.E-1));
#220=LINE('',#219,#218);
#221=DIRECTION('',(1.223350119035E-2,-7.008568138048E-1,7.131970751426E-1));
#222=VECTOR('',#221,8.559645925921E-1);
#223=CARTESIAN_POINT('',(-1.026959154785E1,-1.320009138291E1,6.930408452147E0));
#224=LINE('',#223,#222);
#225=DIRECTION('',(1.744974916068E-2,-9.996954598819E-1,1.744974916068E-2));
#226=VECTOR('',#225,1.320411256491E1);
#227=CARTESIAN_POINT('',(-1.05E1,0.E0,6.7E0));
#228=LINE('',#227,#226);
#229=DIRECTION('',(1.745240643728E-2,-9.998476951564E-1,0.E0));
#230=VECTOR('',#229,1.380210212701E1);
#231=CARTESIAN_POINT('',(-1.05E1,0.E0,8.4E0));
#232=LINE('',#231,#230);
#233=DIRECTION('',(0.E0,0.E0,-1.E0));
#234=VECTOR('',#233,8.591201039906E-1);
#235=CARTESIAN_POINT('',(-1.025912010399E1,-1.38E1,8.4E0));
#236=LINE('',#235,#234);
#237=DIRECTION('',(0.E0,-1.E0,0.E0));
#238=VECTOR('',#237,1.38E1);
#239=CARTESIAN_POINT('',(-1.1E1,0.E0,1.09E1));
#240=LINE('',#239,#238);
#241=DIRECTION('',(-1.E0,0.E0,0.E0));
#242=VECTOR('',#241,1.578968085698E1);
#243=CARTESIAN_POINT('',(5.530560752990E0,-1.38E1,7.540879896009E0));
#244=LINE('',#243,#242);
#245=DIRECTION('',(-1.E0,0.E0,0.E0));
#246=VECTOR('',#245,7.408798960094E-1);
#247=CARTESIAN_POINT('',(-1.025912010399E1,-1.38E1,8.4E0));
#248=LINE('',#247,#246);
#249=DIRECTION('',(0.E0,0.E0,1.E0));
#250=VECTOR('',#249,2.5E0);
#251=CARTESIAN_POINT('',(-1.1E1,-1.38E1,8.4E0));
#252=LINE('',#251,#250);
#253=DIRECTION('',(1.E0,0.E0,0.E0));
#254=VECTOR('',#253,7.408798960094E-1);
#255=CARTESIAN_POINT('',(-1.1E1,-1.38E1,1.09E1));
#256=LINE('',#255,#254);
#257=DIRECTION('',(-1.E0,0.E0,0.E0));
#258=VECTOR('',#257,2.759120103991E0);
#259=CARTESIAN_POINT('',(-7.5E0,-1.38E1,1.355912010399E1));
#260=LINE('',#259,#258);
#261=DIRECTION('',(0.E0,0.E0,1.E0));
#262=VECTOR('',#261,7.408798960094E-1);
#263=CARTESIAN_POINT('',(-7.5E0,-1.38E1,1.355912010399E1));
#264=LINE('',#263,#262);
#265=DIRECTION('',(1.E0,0.E0,0.E0));
#266=VECTOR('',#265,2.5E0);
#267=CARTESIAN_POINT('',(-7.5E0,-1.38E1,1.43E1));
#268=LINE('',#267,#266);
#269=DIRECTION('',(0.E0,0.E0,-1.E0));
#270=VECTOR('',#269,7.408798960094E-1);
#271=CARTESIAN_POINT('',(-5.E0,-1.38E1,1.43E1));
#272=LINE('',#271,#270);
#273=DIRECTION('',(-1.E0,0.E0,0.E0));
#274=VECTOR('',#273,1.E1);
#275=CARTESIAN_POINT('',(5.E0,-1.38E1,1.355912010399E1));
#276=LINE('',#275,#274);
#277=DIRECTION('',(0.E0,0.E0,1.E0));
#278=VECTOR('',#277,7.408798960094E-1);
#279=CARTESIAN_POINT('',(5.E0,-1.38E1,1.355912010399E1));
#280=LINE('',#279,#278);
#281=DIRECTION('',(1.E0,0.E0,0.E0));
#282=VECTOR('',#281,2.5E0);
#283=CARTESIAN_POINT('',(5.E0,-1.38E1,1.43E1));
#284=LINE('',#283,#282);
#285=DIRECTION('',(0.E0,0.E0,-1.E0));
#286=VECTOR('',#285,7.408798960094E-1);
#287=CARTESIAN_POINT('',(7.5E0,-1.38E1,1.43E1));
#288=LINE('',#287,#286);
#289=DIRECTION('',(-1.E0,0.E0,0.E0));
#290=VECTOR('',#289,2.759120103991E0);
#291=CARTESIAN_POINT('',(1.025912010399E1,-1.38E1,1.355912010399E1));
#292=LINE('',#291,#290);
#293=DIRECTION('',(1.E0,0.E0,0.E0));
#294=VECTOR('',#293,7.408798960094E-1);
#295=CARTESIAN_POINT('',(1.025912010399E1,-1.38E1,1.09E1));
#296=LINE('',#295,#294);
#297=DIRECTION('',(0.E0,0.E0,-1.E0));
#298=VECTOR('',#297,2.5E0);
#299=CARTESIAN_POINT('',(1.1E1,-1.38E1,1.09E1));
#300=LINE('',#299,#298);
#301=DIRECTION('',(-1.E0,0.E0,0.E0));
#302=VECTOR('',#301,7.408798960094E-1);
#303=CARTESIAN_POINT('',(1.1E1,-1.38E1,8.4E0));
#304=LINE('',#303,#302);
#305=DIRECTION('',(1.E0,0.E0,0.E0));
#306=VECTOR('',#305,7.408798960094E-1);
#307=CARTESIAN_POINT('',(1.025912010399E1,-1.38E1,4.E-1));
#308=LINE('',#307,#306);
#309=DIRECTION('',(0.E0,0.E0,-1.E0));
#310=VECTOR('',#309,2.5E0);
#311=CARTESIAN_POINT('',(1.1E1,-1.38E1,4.E-1));
#312=LINE('',#311,#310);
#313=DIRECTION('',(-1.E0,0.E0,0.E0));
#314=VECTOR('',#313,7.408798960094E-1);
#315=CARTESIAN_POINT('',(1.1E1,-1.38E1,-2.1E0));
#316=LINE('',#315,#314);
#317=DIRECTION('',(1.E0,0.E0,0.E0));
#318=VECTOR('',#317,2.051824020798E1);
#319=CARTESIAN_POINT('',(-1.025912010399E1,-1.38E1,-2.7E0));
#320=LINE('',#319,#318);
#321=DIRECTION('',(-1.E0,0.E0,0.E0));
#322=VECTOR('',#321,7.408798960094E-1);
#323=CARTESIAN_POINT('',(-1.025912010399E1,-1.38E1,-2.1E0));
#324=LINE('',#323,#322);
#325=DIRECTION('',(0.E0,0.E0,1.E0));
#326=VECTOR('',#325,2.5E0);
#327=CARTESIAN_POINT('',(-1.1E1,-1.38E1,-2.1E0));
#328=LINE('',#327,#326);
#329=DIRECTION('',(1.E0,0.E0,0.E0));
#330=VECTOR('',#329,7.408798960094E-1);
#331=CARTESIAN_POINT('',(-1.1E1,-1.38E1,4.E-1));
#332=LINE('',#331,#330);
#333=DIRECTION('',(1.E0,0.E0,0.E0));
#334=VECTOR('',#333,3.118240207981E0);
#335=CARTESIAN_POINT('',(-1.025912010399E1,-1.38E1,2.159120103991E0));
#336=LINE('',#335,#334);
#337=DIRECTION('',(0.E0,0.E0,-1.E0));
#338=VECTOR('',#337,9.896808575758E-1);
#339=CARTESIAN_POINT('',(-7.140879896009E0,-1.38E1,2.159120103991E0));
#340=LINE('',#339,#338);
#341=CARTESIAN_POINT('',(-7.140879896009E0,-1.38E1,1.169439246415E0));
#342=CARTESIAN_POINT('',(-7.140879896676E0,-1.38E1,1.064270508308E0));
#343=CARTESIAN_POINT('',(-7.120280183941E0,-1.38E1,8.537260162956E-1));
#344=CARTESIAN_POINT('',(-7.027575090969E0,-1.38E1,5.482525242128E-1));
#345=CARTESIAN_POINT('',(-6.877572090981E0,-1.38E1,2.680846560046E-1));
#346=CARTESIAN_POINT('',(-6.675162846759E0,-1.38E1,2.190310172631E-2));
#347=CARTESIAN_POINT('',(-6.429223043885E0,-1.38E1,-1.793380061824E-1));
#348=CARTESIAN_POINT('',(-6.147893035105E0,-1.38E1,-3.292999186253E-1));
#349=CARTESIAN_POINT('',(-5.841581191086E0,-1.38E1,-4.210376484489E-1));
#350=CARTESIAN_POINT('',(-5.634481005947E0,-1.38E1,-4.408798967733E-1));
#351=CARTESIAN_POINT('',(-5.530560752990E0,-1.38E1,-4.408798960094E-1));
#353=DIRECTION('',(1.E0,0.E0,0.E0));
#354=VECTOR('',#353,1.106112150658E1);
#355=CARTESIAN_POINT('',(-5.530560752990E0,-1.38E1,-4.408798960094E-1));
#356=LINE('',#355,#354);
#357=CARTESIAN_POINT('',(5.530560753585E0,-1.38E1,-4.408798960094E-1));
#358=CARTESIAN_POINT('',(5.635729491692E0,-1.38E1,-4.408798966764E-1));
#359=CARTESIAN_POINT('',(5.846273983704E0,-1.38E1,-4.202801839410E-1));
#360=CARTESIAN_POINT('',(6.151747475787E0,-1.38E1,-3.275750909686E-1));
#361=CARTESIAN_POINT('',(6.431915343995E0,-1.38E1,-1.775720909809E-1));
#362=CARTESIAN_POINT('',(6.678096898274E0,-1.38E1,2.483715324124E-2));
#363=CARTESIAN_POINT('',(6.879338006182E0,-1.38E1,2.707769561147E-1));
#364=CARTESIAN_POINT('',(7.029299918625E0,-1.38E1,5.521069648951E-1));
#365=CARTESIAN_POINT('',(7.121037648449E0,-1.38E1,8.584188089139E-1));
#366=CARTESIAN_POINT('',(7.140879896773E0,-1.38E1,1.065518994053E0));
#367=CARTESIAN_POINT('',(7.140879896009E0,-1.38E1,1.169439247010E0));
#369=DIRECTION('',(0.E0,0.E0,1.E0));
#370=VECTOR('',#369,4.761121506575E0);
#371=CARTESIAN_POINT('',(7.140879896009E0,-1.38E1,1.169439247010E0));
#372=LINE('',#371,#370);
#373=CARTESIAN_POINT('',(7.140879896009E0,-1.38E1,5.930560753585E0));
#374=CARTESIAN_POINT('',(7.140879896676E0,-1.38E1,6.035729491692E0));
#375=CARTESIAN_POINT('',(7.120280183941E0,-1.38E1,6.246273983704E0));
#376=CARTESIAN_POINT('',(7.027575090969E0,-1.38E1,6.551747475787E0));
#377=CARTESIAN_POINT('',(6.877572090981E0,-1.38E1,6.831915343995E0));
#378=CARTESIAN_POINT('',(6.675162846759E0,-1.38E1,7.078096898274E0));
#379=CARTESIAN_POINT('',(6.429223043885E0,-1.38E1,7.279338006182E0));
#380=CARTESIAN_POINT('',(6.147893035105E0,-1.38E1,7.429299918625E0));
#381=CARTESIAN_POINT('',(5.841581191086E0,-1.38E1,7.521037648449E0));
#382=CARTESIAN_POINT('',(5.634481005947E0,-1.38E1,7.540879896773E0));
#383=CARTESIAN_POINT('',(5.530560752990E0,-1.38E1,7.540879896009E0));
#385=DIRECTION('',(0.E0,-1.E0,0.E0));
#386=VECTOR('',#385,1.38E1);
#387=CARTESIAN_POINT('',(-1.1E1,0.E0,8.4E0));
#388=LINE('',#387,#386);
#389=DIRECTION('',(0.E0,-9.998476951564E-1,-1.745240643728E-2));
#390=VECTOR('',#389,1.380210212701E1);
#391=CARTESIAN_POINT('',(-7.5E0,0.E0,1.38E1));
#392=LINE('',#391,#390);
#393=DIRECTION('',(0.E0,-9.998476951564E-1,-1.745240643728E-2));
#394=VECTOR('',#393,1.380210212701E1);
#395=CARTESIAN_POINT('',(-5.E0,0.E0,1.38E1));
#396=LINE('',#395,#394);
#397=DIRECTION('',(0.E0,-9.998476951564E-1,-1.745240643728E-2));
#398=VECTOR('',#397,1.380210212701E1);
#399=CARTESIAN_POINT('',(5.E0,0.E0,1.38E1));
#400=LINE('',#399,#398);
#401=DIRECTION('',(0.E0,-9.998476951564E-1,-1.745240643728E-2));
#402=VECTOR('',#401,1.380210212701E1);
#403=CARTESIAN_POINT('',(7.5E0,0.E0,1.38E1));
#404=LINE('',#403,#402);
#405=DIRECTION('',(1.744974916068E-2,9.996954598819E-1,1.744974916068E-2));
#406=VECTOR('',#405,1.380420393390E1);
#407=CARTESIAN_POINT('',(1.025912010399E1,-1.38E1,1.355912010399E1));
#408=LINE('',#407,#406);
#409=DIRECTION('',(0.E0,-1.E0,0.E0));
#410=VECTOR('',#409,1.38E1);
#411=CARTESIAN_POINT('',(-7.5E0,0.E0,1.43E1));
#412=LINE('',#411,#410);
#413=DIRECTION('',(0.E0,-1.E0,0.E0));
#414=VECTOR('',#413,1.38E1);
#415=CARTESIAN_POINT('',(-5.E0,0.E0,1.43E1));
#416=LINE('',#415,#414);
#417=DIRECTION('',(0.E0,-1.E0,0.E0));
#418=VECTOR('',#417,1.38E1);
#419=CARTESIAN_POINT('',(5.E0,0.E0,1.43E1));
#420=LINE('',#419,#418);
#421=DIRECTION('',(0.E0,-1.E0,0.E0));
#422=VECTOR('',#421,1.38E1);
#423=CARTESIAN_POINT('',(7.5E0,0.E0,1.43E1));
#424=LINE('',#423,#422);
#425=DIRECTION('',(-1.745240643728E-2,-9.998476951564E-1,0.E0));
#426=VECTOR('',#425,1.380210212701E1);
#427=CARTESIAN_POINT('',(1.05E1,0.E0,4.E-1));
#428=LINE('',#427,#426);
#429=DIRECTION('',(0.E0,0.E0,1.E0));
#430=VECTOR('',#429,8.E0);
#431=CARTESIAN_POINT('',(1.025912010399E1,-1.38E1,4.E-1));
#432=LINE('',#431,#430);
#433=DIRECTION('',(-1.745240643728E-2,-9.998476951564E-1,0.E0));
#434=VECTOR('',#433,1.380210212701E1);
#435=CARTESIAN_POINT('',(1.05E1,0.E0,8.4E0));
#436=LINE('',#435,#434);
#437=DIRECTION('',(-1.745240643728E-2,-9.998476951564E-1,0.E0));
#438=VECTOR('',#437,1.380210212701E1);
#439=CARTESIAN_POINT('',(1.05E1,0.E0,1.09E1));
#440=LINE('',#439,#438);
#441=DIRECTION('',(0.E0,0.E0,1.E0));
#442=VECTOR('',#441,2.659120103991E0);
#443=CARTESIAN_POINT('',(1.025912010399E1,-1.38E1,1.09E1));
#444=LINE('',#443,#442);
#445=DIRECTION('',(1.745240643728E-2,9.998476951564E-1,0.E0));
#446=VECTOR('',#445,9.801492814830E0);
#447=CARTESIAN_POINT('',(1.025912010399E1,-1.38E1,-2.7E0));
#448=LINE('',#447,#446);
#449=DIRECTION('',(0.E0,0.E0,1.E0));
#450=VECTOR('',#449,6.E-1);
#451=CARTESIAN_POINT('',(1.025912010399E1,-1.38E1,-2.7E0));
#452=LINE('',#451,#450);
#453=DIRECTION('',(-1.745240643728E-2,-9.998476951564E-1,0.E0));
#454=VECTOR('',#453,1.380210212701E1);
#455=CARTESIAN_POINT('',(1.05E1,0.E0,-2.1E0));
#456=LINE('',#455,#454);
#457=DIRECTION('',(1.744974916068E-2,9.996954598819E-1,-1.744974916068E-2));
#458=VECTOR('',#457,4.001218531564E0);
#459=CARTESIAN_POINT('',(1.043017974029E1,-4.E0,-4.930179740287E0));
#460=LINE('',#459,#458);
#461=DIRECTION('',(0.E0,0.E0,1.E0));
#462=VECTOR('',#461,2.230179740287E0);
#463=CARTESIAN_POINT('',(1.043017974029E1,-4.E0,-4.930179740287E0));
#464=LINE('',#463,#462);
#465=DIRECTION('',(0.E0,-1.E0,0.E0));
#466=VECTOR('',#465,1.38E1);
#467=CARTESIAN_POINT('',(1.1E1,0.E0,4.E-1));
#468=LINE('',#467,#466);
#469=DIRECTION('',(0.E0,-1.E0,0.E0));
#470=VECTOR('',#469,1.38E1);
#471=CARTESIAN_POINT('',(1.1E1,0.E0,-2.1E0));
#472=LINE('',#471,#470);
#473=DIRECTION('',(0.E0,-1.E0,0.E0));
#474=VECTOR('',#473,1.38E1);
#475=CARTESIAN_POINT('',(1.1E1,0.E0,8.4E0));
#476=LINE('',#475,#474);
#477=DIRECTION('',(0.E0,-1.E0,0.E0));
#478=VECTOR('',#477,1.38E1);
#479=CARTESIAN_POINT('',(1.1E1,0.E0,1.09E1));
#480=LINE('',#479,#478);
#481=DIRECTION('',(1.E0,0.E0,0.E0));
#482=VECTOR('',#481,2.086035948057E1);
#483=CARTESIAN_POINT('',(-1.043017974029E1,-4.E0,-2.7E0));
#484=LINE('',#483,#482);
#485=DIRECTION('',(1.E0,0.E0,0.E0));
#486=VECTOR('',#485,2.930179740287E0);
#487=CARTESIAN_POINT('',(-1.043017974029E1,-4.E0,-4.930179740287E0));
#488=LINE('',#487,#486);
#489=DIRECTION('',(0.E0,-9.998476951564E-1,1.745240643728E-2));
#490=VECTOR('',#489,4.000609312176E0);
#491=CARTESIAN_POINT('',(-7.5E0,0.E0,-5.E0));
#492=LINE('',#491,#490);
#493=DIRECTION('',(-1.744974916068E-2,9.996954598819E-1,-1.744974916068E-2));
#494=VECTOR('',#493,4.001218531564E0);
#495=CARTESIAN_POINT('',(-1.043017974029E1,-4.E0,-4.930179740287E0));
#496=LINE('',#495,#494);
#497=DIRECTION('',(1.E0,0.E0,0.E0));
#498=VECTOR('',#497,1.E1);
#499=CARTESIAN_POINT('',(-5.E0,-4.E0,-4.930179740287E0));
#500=LINE('',#499,#498);
#501=DIRECTION('',(0.E0,-9.998476951564E-1,1.745240643728E-2));
#502=VECTOR('',#501,4.000609312176E0);
#503=CARTESIAN_POINT('',(5.E0,0.E0,-5.E0));
#504=LINE('',#503,#502);
#505=DIRECTION('',(0.E0,-9.998476951564E-1,1.745240643728E-2));
#506=VECTOR('',#505,4.000609312176E0);
#507=CARTESIAN_POINT('',(-5.E0,0.E0,-5.E0));
#508=LINE('',#507,#506);
#509=DIRECTION('',(1.E0,0.E0,0.E0));
#510=VECTOR('',#509,2.930179740287E0);
#511=CARTESIAN_POINT('',(7.5E0,-4.E0,-4.930179740287E0));
#512=LINE('',#511,#510);
#513=DIRECTION('',(0.E0,-9.998476951564E-1,1.745240643728E-2));
#514=VECTOR('',#513,4.000609312176E0);
#515=CARTESIAN_POINT('',(7.5E0,0.E0,-5.E0));
#516=LINE('',#515,#514);
#517=DIRECTION('',(0.E0,0.E0,1.E0));
#518=VECTOR('',#517,5.698202597129E-1);
#519=CARTESIAN_POINT('',(-7.5E0,-4.E0,-5.5E0));
#520=LINE('',#519,#518);
#521=DIRECTION('',(0.E0,-1.E0,0.E0));
#522=VECTOR('',#521,4.E0);
#523=CARTESIAN_POINT('',(-7.5E0,0.E0,-5.5E0));
#524=LINE('',#523,#522);
#525=DIRECTION('',(-1.E0,0.E0,0.E0));
#526=VECTOR('',#525,2.5E0);
#527=CARTESIAN_POINT('',(-5.E0,-4.E0,-5.5E0));
#528=LINE('',#527,#526);
#529=DIRECTION('',(0.E0,-1.E0,0.E0));
#530=VECTOR('',#529,4.E0);
#531=CARTESIAN_POINT('',(-5.E0,0.E0,-5.5E0));
#532=LINE('',#531,#530);
#533=DIRECTION('',(0.E0,0.E0,-1.E0));
#534=VECTOR('',#533,5.698202597129E-1);
#535=CARTESIAN_POINT('',(-5.E0,-4.E0,-4.930179740287E0));
#536=LINE('',#535,#534);
#537=DIRECTION('',(0.E0,0.E0,1.E0));
#538=VECTOR('',#537,5.698202597129E-1);
#539=CARTESIAN_POINT('',(5.E0,-4.E0,-5.5E0));
#540=LINE('',#539,#538);
#541=DIRECTION('',(0.E0,-1.E0,0.E0));
#542=VECTOR('',#541,4.E0);
#543=CARTESIAN_POINT('',(5.E0,0.E0,-5.5E0));
#544=LINE('',#543,#542);
#545=DIRECTION('',(-1.E0,0.E0,0.E0));
#546=VECTOR('',#545,2.5E0);
#547=CARTESIAN_POINT('',(7.5E0,-4.E0,-5.5E0));
#548=LINE('',#547,#546);
#549=DIRECTION('',(0.E0,-1.E0,0.E0));
#550=VECTOR('',#549,4.E0);
#551=CARTESIAN_POINT('',(7.5E0,0.E0,-5.5E0));
#552=LINE('',#551,#550);
#553=DIRECTION('',(0.E0,0.E0,-1.E0));
#554=VECTOR('',#553,5.698202597129E-1);
#555=CARTESIAN_POINT('',(7.5E0,-4.E0,-4.930179740287E0));
#556=LINE('',#555,#554);
#557=DIRECTION('',(0.E0,-1.E0,0.E0));
#558=VECTOR('',#557,1.38E1);
#559=CARTESIAN_POINT('',(-1.1E1,0.E0,-2.1E0));
#560=LINE('',#559,#558);
#561=DIRECTION('',(0.E0,-1.E0,0.E0));
#562=VECTOR('',#561,1.38E1);
#563=CARTESIAN_POINT('',(-1.1E1,0.E0,4.E-1));
#564=LINE('',#563,#562);
#565=DIRECTION('',(7.131970751426E-1,7.008568138048E-1,1.223350119035E-2));
#566=VECTOR('',#565,8.559645925921E-1);
#567=CARTESIAN_POINT('',(-7.140879896009E0,-1.38E1,2.159120103991E0));
#568=LINE('',#567,#566);
#569=DIRECTION('',(2.877259863671E-13,1.649273771238E-11,-1.E0));
#570=VECTOR('',#569,1.000152303295E0);
#571=CARTESIAN_POINT('',(-6.530408452147E0,-1.320009138291E1,2.169591547853E0));
#572=LINE('',#571,#570);
#573=DIRECTION('',(-1.744974916068E-2,-9.996954598819E-1,-1.744974916068E-2));
#574=VECTOR('',#573,1.320411256491E1);
#575=CARTESIAN_POINT('',(-6.3E0,0.E0,2.4E0));
#576=LINE('',#575,#574);
#577=DIRECTION('',(-1.744974916072E-2,-9.996954598839E-1,-1.744974904344E-2));
#578=VECTOR('',#577,1.320411256486E1);
#579=CARTESIAN_POINT('',(-6.3E0,0.E0,1.399847695156E0));
#580=LINE('',#579,#578);
#581=CARTESIAN_POINT('',(-6.530408452147E0,-1.320009138289E1,1.169439244558E0));
#582=CARTESIAN_POINT('',(-6.530420591970E0,-1.320078684974E1,1.104130887902E0));
#583=CARTESIAN_POINT('',(-6.517652150780E0,-1.320204303680E1,
9.733772952783E-1));
#584=CARTESIAN_POINT('',(-6.460116085140E0,-1.320345009303E1,
7.836859577340E-1));
#585=CARTESIAN_POINT('',(-6.366994206617E0,-1.320431090194E1,
6.097141218602E-1));
#586=CARTESIAN_POINT('',(-6.241323257414E0,-1.320460037433E1,
4.568549896613E-1));
#587=CARTESIAN_POINT('',(-6.088614118740E0,-1.320430477557E1,
3.319094428031E-1));
#588=CARTESIAN_POINT('',(-5.913920581952E0,-1.320343600961E1,
2.388132146611E-1));
#589=CARTESIAN_POINT('',(-5.723708460243E0,-1.320201701141E1,
1.818779935165E-1));
#590=CARTESIAN_POINT('',(-5.595093855395E0,-1.320077859406E1,
1.695795520743E-1));
#591=CARTESIAN_POINT('',(-5.530560755170E0,-1.320009138289E1,
1.695915478533E-1));
#593=CARTESIAN_POINT('',(-6.3E0,0.E0,1.399847695156E0));
#594=CARTESIAN_POINT('',(-6.3E0,0.E0,1.233206412630E0));
#595=CARTESIAN_POINT('',(-6.227681376436E0,0.E0,9.722424711420E-1));
#596=CARTESIAN_POINT('',(-6.021895065365E0,0.E0,6.781049346351E-1));
#597=CARTESIAN_POINT('',(-5.727757528858E0,0.E0,4.723186235638E-1));
#598=CARTESIAN_POINT('',(-5.466793587370E0,0.E0,4.E-1));
#599=CARTESIAN_POINT('',(-5.300152304844E0,0.E0,4.E-1));
#601=DIRECTION('',(-7.132504491447E-1,-7.009092643095E-1,2.169139382160E-9));
#602=VECTOR('',#601,8.559005389968E-1);
#603=CARTESIAN_POINT('',(-6.530408452147E0,-1.320009138289E1,1.169439244558E0));
#604=LINE('',#603,#602);
#605=DIRECTION('',(2.547403893503E-9,-7.009092643112E-1,-7.132504491431E-1));
#606=VECTOR('',#605,8.559005389988E-1);
#607=CARTESIAN_POINT('',(-5.530560755170E0,-1.320009138289E1,
1.695915478533E-1));
#608=LINE('',#607,#606);
#609=DIRECTION('',(1.E0,-2.611268864639E-13,0.E0));
#610=VECTOR('',#609,1.106112151061E1);
#611=CARTESIAN_POINT('',(-5.530560755170E0,-1.320009138289E1,
1.695915478533E-1));
#612=LINE('',#611,#610);
#613=DIRECTION('',(-1.744974902289E-2,-9.996954598843E-1,-1.744974916072E-2));
#614=VECTOR('',#613,1.320411256486E1);
#615=CARTESIAN_POINT('',(-5.300152304844E0,0.E0,4.E-1));
#616=LINE('',#615,#614);
#617=DIRECTION('',(1.744974904344E-2,-9.996954598839E-1,-1.744974916072E-2));
#618=VECTOR('',#617,1.320411256486E1);
#619=CARTESIAN_POINT('',(5.300152304844E0,0.E0,4.E-1));
#620=LINE('',#619,#618);
#621=CARTESIAN_POINT('',(5.530560755442E0,-1.320009138289E1,1.695915478533E-1));
#622=CARTESIAN_POINT('',(5.595869112098E0,-1.320078684974E1,1.695794080297E-1));
#623=CARTESIAN_POINT('',(5.726622704722E0,-1.320204303680E1,1.823478492205E-1));
#624=CARTESIAN_POINT('',(5.916314042266E0,-1.320345009303E1,2.398839148596E-1));
#625=CARTESIAN_POINT('',(6.090285878140E0,-1.320431090194E1,3.330057933833E-1));
#626=CARTESIAN_POINT('',(6.243145010339E0,-1.320460037433E1,4.586767425858E-1));
#627=CARTESIAN_POINT('',(6.368090557197E0,-1.320430477557E1,6.113858812598E-1));
#628=CARTESIAN_POINT('',(6.461186785339E0,-1.320343600961E1,7.860794180485E-1));
#629=CARTESIAN_POINT('',(6.518122006483E0,-1.320201701141E1,9.762915397565E-1));
#630=CARTESIAN_POINT('',(6.530420447926E0,-1.320077859406E1,1.104906144605E0));
#631=CARTESIAN_POINT('',(6.530408452147E0,-1.320009138289E1,1.169439244830E0));
#633=CARTESIAN_POINT('',(5.300152304844E0,0.E0,4.E-1));
#634=CARTESIAN_POINT('',(5.466793587370E0,0.E0,4.E-1));
#635=CARTESIAN_POINT('',(5.727757528858E0,0.E0,4.723186235638E-1));
#636=CARTESIAN_POINT('',(6.021895065365E0,0.E0,6.781049346351E-1));
#637=CARTESIAN_POINT('',(6.227681376436E0,0.E0,9.722424711420E-1));
#638=CARTESIAN_POINT('',(6.3E0,0.E0,1.233206412630E0));
#639=CARTESIAN_POINT('',(6.3E0,0.E0,1.399847695156E0));
#641=DIRECTION('',(-2.169136009595E-9,-7.009092643095E-1,-7.132504491447E-1));
#642=VECTOR('',#641,8.559005389968E-1);
#643=CARTESIAN_POINT('',(5.530560755442E0,-1.320009138289E1,1.695915478533E-1));
#644=LINE('',#643,#642);
#645=DIRECTION('',(7.132504491431E-1,-7.009092643112E-1,2.547404412359E-9));
#646=VECTOR('',#645,8.559005389988E-1);
#647=CARTESIAN_POINT('',(6.530408452147E0,-1.320009138289E1,1.169439244830E0));
#648=LINE('',#647,#646);
#649=DIRECTION('',(1.044669651727E-14,-6.066545906100E-13,1.E0));
#650=VECTOR('',#649,4.761121510612E0);
#651=CARTESIAN_POINT('',(6.530408452147E0,-1.320009138289E1,1.169439244830E0));
#652=LINE('',#651,#650);
#653=DIRECTION('',(1.744974916072E-2,-9.996954598843E-1,-1.744974902289E-2));
#654=VECTOR('',#653,1.320411256486E1);
#655=CARTESIAN_POINT('',(6.3E0,0.E0,1.399847695156E0));
#656=LINE('',#655,#654);
#657=DIRECTION('',(1.744974916072E-2,-9.996954598839E-1,1.744974904344E-2));
#658=VECTOR('',#657,1.320411256486E1);
#659=CARTESIAN_POINT('',(6.3E0,0.E0,5.700152304844E0));
#660=LINE('',#659,#658);
#661=CARTESIAN_POINT('',(6.530408452147E0,-1.320009138289E1,5.930560755442E0));
#662=CARTESIAN_POINT('',(6.530420591970E0,-1.320078684974E1,5.995869112098E0));
#663=CARTESIAN_POINT('',(6.517652150780E0,-1.320204303680E1,6.126622704722E0));
#664=CARTESIAN_POINT('',(6.460116085140E0,-1.320345009303E1,6.316314042266E0));
#665=CARTESIAN_POINT('',(6.366994206617E0,-1.320431090194E1,6.490285878140E0));
#666=CARTESIAN_POINT('',(6.241323257414E0,-1.320460037433E1,6.643145010339E0));
#667=CARTESIAN_POINT('',(6.088614118740E0,-1.320430477557E1,6.768090557197E0));
#668=CARTESIAN_POINT('',(5.913920581952E0,-1.320343600961E1,6.861186785339E0));
#669=CARTESIAN_POINT('',(5.723708460243E0,-1.320201701141E1,6.918122006483E0));
#670=CARTESIAN_POINT('',(5.595093855395E0,-1.320077859406E1,6.930420447926E0));
#671=CARTESIAN_POINT('',(5.530560755170E0,-1.320009138289E1,6.930408452147E0));
#673=CARTESIAN_POINT('',(6.3E0,0.E0,5.700152304844E0));
#674=CARTESIAN_POINT('',(6.3E0,0.E0,5.866793587370E0));
#675=CARTESIAN_POINT('',(6.227681376436E0,0.E0,6.127757528858E0));
#676=CARTESIAN_POINT('',(6.021895065365E0,0.E0,6.421895065365E0));
#677=CARTESIAN_POINT('',(5.727757528858E0,0.E0,6.627681376436E0));
#678=CARTESIAN_POINT('',(5.466793587370E0,0.E0,6.7E0));
#679=CARTESIAN_POINT('',(5.300152304844E0,0.E0,6.7E0));
#681=DIRECTION('',(7.132504491447E-1,-7.009092643095E-1,-2.169138085019E-9));
#682=VECTOR('',#681,8.559005389968E-1);
#683=CARTESIAN_POINT('',(6.530408452147E0,-1.320009138289E1,5.930560755442E0));
#684=LINE('',#683,#682);
#685=CARTESIAN_POINT('',(-1.025912010399E1,-1.38E1,1.355912010399E1));
#686=CARTESIAN_POINT('',(-1.05E1,0.E0,1.38E1));
#687=VERTEX_POINT('',#685);
#688=VERTEX_POINT('',#686);
#689=CARTESIAN_POINT('',(1.025912010399E1,-1.38E1,1.355912010399E1));
#690=CARTESIAN_POINT('',(1.05E1,0.E0,1.38E1));
#691=VERTEX_POINT('',#689);
#692=VERTEX_POINT('',#690);
#693=CARTESIAN_POINT('',(-5.E0,0.E0,-5.5E0));
#694=CARTESIAN_POINT('',(-7.5E0,0.E0,-5.5E0));
#695=VERTEX_POINT('',#693);
#696=VERTEX_POINT('',#694);
#697=CARTESIAN_POINT('',(-1.1E1,0.E0,-2.1E0));
#698=CARTESIAN_POINT('',(-1.1E1,0.E0,4.E-1));
#699=VERTEX_POINT('',#697);
#700=VERTEX_POINT('',#698);
#701=CARTESIAN_POINT('',(7.5E0,0.E0,-5.5E0));
#702=CARTESIAN_POINT('',(5.E0,0.E0,-5.5E0));
#703=VERTEX_POINT('',#701);
#704=VERTEX_POINT('',#702);
#705=CARTESIAN_POINT('',(1.1E1,0.E0,4.E-1));
#706=CARTESIAN_POINT('',(1.1E1,0.E0,-2.1E0));
#707=VERTEX_POINT('',#705);
#708=VERTEX_POINT('',#706);
#709=CARTESIAN_POINT('',(-7.5E0,0.E0,1.43E1));
#710=CARTESIAN_POINT('',(-5.E0,0.E0,1.43E1));
#711=VERTEX_POINT('',#709);
#712=VERTEX_POINT('',#710);
#713=CARTESIAN_POINT('',(-1.1E1,0.E0,8.4E0));
#714=CARTESIAN_POINT('',(-1.1E1,0.E0,1.09E1));
#715=VERTEX_POINT('',#713);
#716=VERTEX_POINT('',#714);
#717=CARTESIAN_POINT('',(5.E0,0.E0,1.43E1));
#718=CARTESIAN_POINT('',(7.5E0,0.E0,1.43E1));
#719=VERTEX_POINT('',#717);
#720=VERTEX_POINT('',#718);
#721=CARTESIAN_POINT('',(1.1E1,0.E0,1.09E1));
#722=CARTESIAN_POINT('',(1.1E1,0.E0,8.4E0));
#723=VERTEX_POINT('',#721);
#724=VERTEX_POINT('',#722);
#725=CARTESIAN_POINT('',(-1.1E1,-1.38E1,-2.1E0));
#726=CARTESIAN_POINT('',(-1.1E1,-1.38E1,4.E-1));
#727=VERTEX_POINT('',#725);
#728=VERTEX_POINT('',#726);
#729=CARTESIAN_POINT('',(1.1E1,-1.38E1,4.E-1));
#730=CARTESIAN_POINT('',(1.1E1,-1.38E1,-2.1E0));
#731=VERTEX_POINT('',#729);
#732=VERTEX_POINT('',#730);
#733=CARTESIAN_POINT('',(-7.5E0,-1.38E1,1.43E1));
#734=CARTESIAN_POINT('',(-5.E0,-1.38E1,1.43E1));
#735=VERTEX_POINT('',#733);
#736=VERTEX_POINT('',#734);
#737=CARTESIAN_POINT('',(-1.1E1,-1.38E1,8.4E0));
#738=CARTESIAN_POINT('',(-1.1E1,-1.38E1,1.09E1));
#739=VERTEX_POINT('',#737);
#740=VERTEX_POINT('',#738);
#741=CARTESIAN_POINT('',(5.E0,-1.38E1,1.43E1));
#742=CARTESIAN_POINT('',(7.5E0,-1.38E1,1.43E1));
#743=VERTEX_POINT('',#741);
#744=VERTEX_POINT('',#742);
#745=CARTESIAN_POINT('',(1.1E1,-1.38E1,1.09E1));
#746=CARTESIAN_POINT('',(1.1E1,-1.38E1,8.4E0));
#747=VERTEX_POINT('',#745);
#748=VERTEX_POINT('',#746);
#749=CARTESIAN_POINT('',(-1.05E1,0.E0,-2.1E0));
#750=CARTESIAN_POINT('',(-1.025912010399E1,-1.38E1,-2.1E0));
#751=VERTEX_POINT('',#749);
#752=VERTEX_POINT('',#750);
#753=CARTESIAN_POINT('',(-1.05E1,0.E0,4.E-1));
#754=CARTESIAN_POINT('',(-1.025912010399E1,-1.38E1,4.E-1));
#755=VERTEX_POINT('',#753);
#756=VERTEX_POINT('',#754);
#757=CARTESIAN_POINT('',(-1.05E1,0.E0,8.4E0));
#758=CARTESIAN_POINT('',(-1.025912010399E1,-1.38E1,8.4E0));
#759=VERTEX_POINT('',#757);
#760=VERTEX_POINT('',#758);
#761=CARTESIAN_POINT('',(-1.05E1,0.E0,1.09E1));
#762=CARTESIAN_POINT('',(-1.025912010399E1,-1.38E1,1.09E1));
#763=VERTEX_POINT('',#761);
#764=VERTEX_POINT('',#762);
#765=CARTESIAN_POINT('',(-7.5E0,0.E0,1.38E1));
#766=CARTESIAN_POINT('',(-7.5E0,-1.38E1,1.355912010399E1));
#767=VERTEX_POINT('',#765);
#768=VERTEX_POINT('',#766);
#769=CARTESIAN_POINT('',(-5.E0,0.E0,1.38E1));
#770=CARTESIAN_POINT('',(-5.E0,-1.38E1,1.355912010399E1));
#771=VERTEX_POINT('',#769);
#772=VERTEX_POINT('',#770);
#773=CARTESIAN_POINT('',(5.E0,0.E0,1.38E1));
#774=CARTESIAN_POINT('',(5.E0,-1.38E1,1.355912010399E1));
#775=VERTEX_POINT('',#773);
#776=VERTEX_POINT('',#774);
#777=CARTESIAN_POINT('',(7.5E0,0.E0,1.38E1));
#778=CARTESIAN_POINT('',(7.5E0,-1.38E1,1.355912010399E1));
#779=VERTEX_POINT('',#777);
#780=VERTEX_POINT('',#778);
#781=CARTESIAN_POINT('',(1.05E1,0.E0,4.E-1));
#782=CARTESIAN_POINT('',(1.025912010399E1,-1.38E1,4.E-1));
#783=VERTEX_POINT('',#781);
#784=VERTEX_POINT('',#782);
#785=CARTESIAN_POINT('',(1.05E1,0.E0,-2.1E0));
#786=CARTESIAN_POINT('',(1.025912010399E1,-1.38E1,-2.1E0));
#787=VERTEX_POINT('',#785);
#788=VERTEX_POINT('',#786);
#789=CARTESIAN_POINT('',(1.05E1,0.E0,1.09E1));
#790=CARTESIAN_POINT('',(1.025912010399E1,-1.38E1,1.09E1));
#791=VERTEX_POINT('',#789);
#792=VERTEX_POINT('',#790);
#793=CARTESIAN_POINT('',(1.05E1,0.E0,8.4E0));
#794=CARTESIAN_POINT('',(1.025912010399E1,-1.38E1,8.4E0));
#795=VERTEX_POINT('',#793);
#796=VERTEX_POINT('',#794);
#797=CARTESIAN_POINT('',(-1.05E1,0.E0,-5.E0));
#798=VERTEX_POINT('',#797);
#799=CARTESIAN_POINT('',(1.05E1,0.E0,-5.E0));
#800=VERTEX_POINT('',#799);
#801=CARTESIAN_POINT('',(-7.5E0,0.E0,-5.E0));
#802=VERTEX_POINT('',#801);
#803=CARTESIAN_POINT('',(-5.E0,0.E0,-5.E0));
#804=CARTESIAN_POINT('',(5.E0,0.E0,-5.E0));
#805=VERTEX_POINT('',#803);
#806=VERTEX_POINT('',#804);
#807=CARTESIAN_POINT('',(7.5E0,0.E0,-5.E0));
#808=VERTEX_POINT('',#807);
#809=CARTESIAN_POINT('',(-1.025912010399E1,-1.38E1,-2.7E0));
#810=CARTESIAN_POINT('',(1.025912010399E1,-1.38E1,-2.7E0));
#811=VERTEX_POINT('',#809);
#812=VERTEX_POINT('',#810);
#813=CARTESIAN_POINT('',(-1.043017974029E1,-4.E0,-2.7E0));
#814=VERTEX_POINT('',#813);
#815=CARTESIAN_POINT('',(-1.043017974029E1,-4.E0,-4.930179740287E0));
#816=VERTEX_POINT('',#815);
#817=CARTESIAN_POINT('',(1.043017974029E1,-4.E0,-2.7E0));
#818=VERTEX_POINT('',#817);
#819=CARTESIAN_POINT('',(1.043017974029E1,-4.E0,-4.930179740287E0));
#820=VERTEX_POINT('',#819);
#821=CARTESIAN_POINT('',(-7.5E0,-4.E0,-4.930179740287E0));
#822=VERTEX_POINT('',#821);
#823=CARTESIAN_POINT('',(-5.E0,-4.E0,-4.930179740287E0));
#824=CARTESIAN_POINT('',(5.E0,-4.E0,-4.930179740287E0));
#825=VERTEX_POINT('',#823);
#826=VERTEX_POINT('',#824);
#827=CARTESIAN_POINT('',(7.5E0,-4.E0,-4.930179740287E0));
#828=VERTEX_POINT('',#827);
#829=CARTESIAN_POINT('',(-5.E0,-4.E0,-5.5E0));
#830=VERTEX_POINT('',#829);
#831=CARTESIAN_POINT('',(-7.5E0,-4.E0,-5.5E0));
#832=VERTEX_POINT('',#831);
#833=CARTESIAN_POINT('',(7.5E0,-4.E0,-5.5E0));
#834=VERTEX_POINT('',#833);
#835=CARTESIAN_POINT('',(5.E0,-4.E0,-5.5E0));
#836=VERTEX_POINT('',#835);
#837=CARTESIAN_POINT('',(-1.05E1,0.E0,2.4E0));
#838=CARTESIAN_POINT('',(-6.3E0,0.E0,2.4E0));
#839=VERTEX_POINT('',#837);
#840=VERTEX_POINT('',#838);
#841=CARTESIAN_POINT('',(-1.025912010399E1,-1.38E1,2.159120103991E0));
#842=VERTEX_POINT('',#841);
#843=CARTESIAN_POINT('',(-1.05E1,0.E0,6.7E0));
#844=VERTEX_POINT('',#843);
#845=CARTESIAN_POINT('',(5.300152304844E0,0.E0,4.E-1));
#846=CARTESIAN_POINT('',(-5.300152304844E0,0.E0,4.E-1));
#847=VERTEX_POINT('',#845);
#848=VERTEX_POINT('',#846);
#849=CARTESIAN_POINT('',(6.3E0,0.E0,5.700152304844E0));
#850=CARTESIAN_POINT('',(6.3E0,0.E0,1.399847695156E0));
#851=VERTEX_POINT('',#849);
#852=VERTEX_POINT('',#850);
#853=CARTESIAN_POINT('',(-6.3E0,0.E0,1.399847695156E0));
#854=VERTEX_POINT('',#853);
#855=VERTEX_POINT('',#679);
#856=CARTESIAN_POINT('',(-1.026959154785E1,-1.320009138291E1,6.930408452147E0));
#857=CARTESIAN_POINT('',(-1.025912010399E1,-1.38E1,7.540879896009E0));
#858=VERTEX_POINT('',#856);
#859=VERTEX_POINT('',#857);
#860=CARTESIAN_POINT('',(5.530560752990E0,-1.38E1,7.540879896009E0));
#861=VERTEX_POINT('',#860);
#862=CARTESIAN_POINT('',(5.530560755170E0,-1.320009138289E1,6.930408452147E0));
#863=VERTEX_POINT('',#862);
#864=VERTEX_POINT('',#661);
#865=VERTEX_POINT('',#373);
#866=CARTESIAN_POINT('',(6.530408452147E0,-1.320009138289E1,1.169439244830E0));
#867=VERTEX_POINT('',#866);
#868=CARTESIAN_POINT('',(7.140879896009E0,-1.38E1,1.169439247010E0));
#869=VERTEX_POINT('',#868);
#870=VERTEX_POINT('',#621);
#871=VERTEX_POINT('',#357);
#872=CARTESIAN_POINT('',(-5.530560755170E0,-1.320009138289E1,
1.695915478533E-1));
#873=VERTEX_POINT('',#872);
#874=CARTESIAN_POINT('',(-5.530560752990E0,-1.38E1,-4.408798960094E-1));
#875=VERTEX_POINT('',#874);
#876=VERTEX_POINT('',#581);
#877=VERTEX_POINT('',#341);
#878=CARTESIAN_POINT('',(-7.140879896009E0,-1.38E1,2.159120103991E0));
#879=CARTESIAN_POINT('',(-6.530408452147E0,-1.320009138291E1,2.169591547853E0));
#880=VERTEX_POINT('',#878);
#881=VERTEX_POINT('',#879);
#882=CARTESIAN_POINT('',(0.E0,0.E0,0.E0));
#883=DIRECTION('',(0.E0,1.E0,0.E0));
#884=DIRECTION('',(1.E0,0.E0,0.E0));
#885=AXIS2_PLACEMENT_3D('',#882,#883,#884);
#886=PLANE('',#885);
#888=ORIENTED_EDGE('',*,*,#887,.F.);
#890=ORIENTED_EDGE('',*,*,#889,.F.);
#892=ORIENTED_EDGE('',*,*,#891,.T.);
#894=ORIENTED_EDGE('',*,*,#893,.F.);
#896=ORIENTED_EDGE('',*,*,#895,.T.);
#898=ORIENTED_EDGE('',*,*,#897,.F.);
#900=ORIENTED_EDGE('',*,*,#899,.T.);
#902=ORIENTED_EDGE('',*,*,#901,.F.);
#904=ORIENTED_EDGE('',*,*,#903,.T.);
#906=ORIENTED_EDGE('',*,*,#905,.F.);
#908=ORIENTED_EDGE('',*,*,#907,.F.);
#910=ORIENTED_EDGE('',*,*,#909,.F.);
#912=ORIENTED_EDGE('',*,*,#911,.T.);
#914=ORIENTED_EDGE('',*,*,#913,.T.);
#916=ORIENTED_EDGE('',*,*,#915,.F.);
#918=ORIENTED_EDGE('',*,*,#917,.F.);
#920=ORIENTED_EDGE('',*,*,#919,.F.);
#922=ORIENTED_EDGE('',*,*,#921,.T.);
#924=ORIENTED_EDGE('',*,*,#923,.F.);
#926=ORIENTED_EDGE('',*,*,#925,.F.);
#928=ORIENTED_EDGE('',*,*,#927,.F.);
#930=ORIENTED_EDGE('',*,*,#929,.T.);
#932=ORIENTED_EDGE('',*,*,#931,.T.);
#934=ORIENTED_EDGE('',*,*,#933,.F.);
#936=ORIENTED_EDGE('',*,*,#935,.F.);
#938=ORIENTED_EDGE('',*,*,#937,.F.);
#940=ORIENTED_EDGE('',*,*,#939,.T.);
#942=ORIENTED_EDGE('',*,*,#941,.F.);
#944=ORIENTED_EDGE('',*,*,#943,.F.);
#946=ORIENTED_EDGE('',*,*,#945,.F.);
#948=ORIENTED_EDGE('',*,*,#947,.T.);
#950=ORIENTED_EDGE('',*,*,#949,.T.);
#952=ORIENTED_EDGE('',*,*,#951,.F.);
#954=ORIENTED_EDGE('',*,*,#953,.F.);
#956=ORIENTED_EDGE('',*,*,#955,.F.);
#958=ORIENTED_EDGE('',*,*,#957,.T.);
#960=ORIENTED_EDGE('',*,*,#959,.F.);
#962=ORIENTED_EDGE('',*,*,#961,.F.);
#964=ORIENTED_EDGE('',*,*,#963,.F.);
#966=ORIENTED_EDGE('',*,*,#965,.T.);
#968=ORIENTED_EDGE('',*,*,#967,.T.);
#970=ORIENTED_EDGE('',*,*,#969,.F.);
#972=ORIENTED_EDGE('',*,*,#971,.F.);
#974=ORIENTED_EDGE('',*,*,#973,.F.);
#976=ORIENTED_EDGE('',*,*,#975,.T.);
#977=EDGE_LOOP('',(#888,#890,#892,#894,#896,#898,#900,#902,#904,#906,#908,#910,
#912,#914,#916,#918,#920,#922,#924,#926,#928,#930,#932,#934,#936,#938,#940,#942,
#944,#946,#948,#950,#952,#954,#956,#958,#960,#962,#964,#966,#968,#970,#972,#974,
#976));
#978=FACE_OUTER_BOUND('',#977,.F.);
#979=ADVANCED_FACE('',(#978),#886,.T.);
#980=CARTESIAN_POINT('',(6.3E0,0.E0,6.7E0));
#981=DIRECTION('',(0.E0,-1.745240643728E-2,-9.998476951564E-1));
#982=DIRECTION('',(1.E0,0.E0,0.E0));
#983=AXIS2_PLACEMENT_3D('',#980,#981,#982);
#984=PLANE('',#983);
#986=ORIENTED_EDGE('',*,*,#985,.F.);
#988=ORIENTED_EDGE('',*,*,#987,.F.);
#989=ORIENTED_EDGE('',*,*,#887,.T.);
#991=ORIENTED_EDGE('',*,*,#990,.T.);
#992=EDGE_LOOP('',(#986,#988,#989,#991));
#993=FACE_OUTER_BOUND('',#992,.F.);
#994=ADVANCED_FACE('',(#993),#984,.T.);
#995=CARTESIAN_POINT('',(-2.364279673500E0,-1.350004569145E1,7.235644174078E0));
#996=DIRECTION('',(0.E0,-7.132504491542E-1,-7.009092642999E-1));
#997=DIRECTION('',(0.E0,-7.009092642999E-1,7.132504491542E-1));
#998=AXIS2_PLACEMENT_3D('',#995,#996,#997);
#999=PLANE('',#998);
#1001=ORIENTED_EDGE('',*,*,#1000,.T.);
#1003=ORIENTED_EDGE('',*,*,#1002,.F.);
#1005=ORIENTED_EDGE('',*,*,#1004,.F.);
#1006=ORIENTED_EDGE('',*,*,#985,.T.);
#1007=EDGE_LOOP('',(#1001,#1003,#1005,#1006));
#1008=FACE_OUTER_BOUND('',#1007,.F.);
#1009=ADVANCED_FACE('',(#1008),#999,.T.);
#1010=CARTESIAN_POINT('',(-1.05E1,0.E0,-5.E0));
#1011=DIRECTION('',(-9.998476951564E-1,-1.745240643728E-2,0.E0));
#1012=DIRECTION('',(0.E0,0.E0,-1.E0));
#1013=AXIS2_PLACEMENT_3D('',#1010,#1011,#1012);
#1014=PLANE('',#1013);
#1016=ORIENTED_EDGE('',*,*,#1015,.F.);
#1017=ORIENTED_EDGE('',*,*,#967,.F.);
#1019=ORIENTED_EDGE('',*,*,#1018,.F.);
#1021=ORIENTED_EDGE('',*,*,#1020,.T.);
#1022=EDGE_LOOP('',(#1016,#1017,#1019,#1021));
#1023=FACE_OUTER_BOUND('',#1022,.F.);
#1024=ADVANCED_FACE('',(#1023),#1014,.T.);
#1025=CARTESIAN_POINT('',(-1.05E1,0.E0,-5.E0));
#1026=DIRECTION('',(-9.998476951564E-1,-1.745240643728E-2,0.E0));
#1027=DIRECTION('',(0.E0,0.E0,-1.E0));
#1028=AXIS2_PLACEMENT_3D('',#1025,#1026,#1027);
#1029=PLANE('',#1028);
#1031=ORIENTED_EDGE('',*,*,#1030,.T.);
#1033=ORIENTED_EDGE('',*,*,#1032,.F.);
#1035=ORIENTED_EDGE('',*,*,#1034,.T.);
#1036=ORIENTED_EDGE('',*,*,#911,.F.);
#1038=ORIENTED_EDGE('',*,*,#1037,.T.);
#1040=ORIENTED_EDGE('',*,*,#1039,.T.);
#1041=EDGE_LOOP('',(#1031,#1033,#1035,#1036,#1038,#1040));
#1042=FACE_OUTER_BOUND('',#1041,.F.);
#1043=ADVANCED_FACE('',(#1042),#1029,.T.);
#1044=CARTESIAN_POINT('',(-1.05E1,0.E0,-5.E0));
#1045=DIRECTION('',(-9.998476951564E-1,-1.745240643728E-2,0.E0));
#1046=DIRECTION('',(0.E0,0.E0,-1.E0));
#1047=AXIS2_PLACEMENT_3D('',#1044,#1045,#1046);
#1048=PLANE('',#1047);
#1050=ORIENTED_EDGE('',*,*,#1049,.T.);
#1052=ORIENTED_EDGE('',*,*,#1051,.T.);
#1054=ORIENTED_EDGE('',*,*,#1053,.F.);
#1055=ORIENTED_EDGE('',*,*,#903,.F.);
#1056=EDGE_LOOP('',(#1050,#1052,#1054,#1055));
#1057=FACE_OUTER_BOUND('',#1056,.F.);
#1058=ADVANCED_FACE('',(#1057),#1048,.T.);
#1059=CARTESIAN_POINT('',(-1.05E1,0.E0,-5.E0));
#1060=DIRECTION('',(-9.998476951564E-1,-1.745240643728E-2,0.E0));
#1061=DIRECTION('',(0.E0,0.E0,-1.E0));
#1062=AXIS2_PLACEMENT_3D('',#1059,#1060,#1061);
#1063=PLANE('',#1062);
#1064=ORIENTED_EDGE('',*,*,#1000,.F.);
#1065=ORIENTED_EDGE('',*,*,#990,.F.);
#1066=ORIENTED_EDGE('',*,*,#975,.F.);
#1068=ORIENTED_EDGE('',*,*,#1067,.T.);
#1070=ORIENTED_EDGE('',*,*,#1069,.T.);
#1071=EDGE_LOOP('',(#1064,#1065,#1066,#1068,#1070));
#1072=FACE_OUTER_BOUND('',#1071,.F.);
#1073=ADVANCED_FACE('',(#1072),#1063,.T.);
#1074=CARTESIAN_POINT('',(-1.1E1,0.E0,1.09E1));
#1075=DIRECTION('',(0.E0,0.E0,1.E0));
#1076=DIRECTION('',(1.E0,0.E0,0.E0));
#1077=AXIS2_PLACEMENT_3D('',#1074,#1075,#1076);
#1078=PLANE('',#1077);
#1079=ORIENTED_EDGE('',*,*,#1015,.T.);
#1081=ORIENTED_EDGE('',*,*,#1080,.F.);
#1083=ORIENTED_EDGE('',*,*,#1082,.F.);
#1084=ORIENTED_EDGE('',*,*,#969,.T.);
#1085=EDGE_LOOP('',(#1079,#1081,#1083,#1084));
#1086=FACE_OUTER_BOUND('',#1085,.F.);
#1087=ADVANCED_FACE('',(#1086),#1078,.T.);
#1088=CARTESIAN_POINT('',(0.E0,-1.38E1,0.E0));
#1089=DIRECTION('',(0.E0,1.E0,0.E0));
#1090=DIRECTION('',(1.E0,0.E0,0.E0));
#1091=AXIS2_PLACEMENT_3D('',#1088,#1089,#1090);
#1092=PLANE('',#1091);
#1093=ORIENTED_EDGE('',*,*,#1002,.T.);
#1094=ORIENTED_EDGE('',*,*,#1069,.F.);
#1096=ORIENTED_EDGE('',*,*,#1095,.T.);
#1098=ORIENTED_EDGE('',*,*,#1097,.T.);
#1099=ORIENTED_EDGE('',*,*,#1080,.T.);
#1100=ORIENTED_EDGE('',*,*,#1020,.F.);
#1102=ORIENTED_EDGE('',*,*,#1101,.F.);
#1104=ORIENTED_EDGE('',*,*,#1103,.T.);
#1106=ORIENTED_EDGE('',*,*,#1105,.T.);
#1108=ORIENTED_EDGE('',*,*,#1107,.T.);
#1110=ORIENTED_EDGE('',*,*,#1109,.F.);
#1112=ORIENTED_EDGE('',*,*,#1111,.T.);
#1114=ORIENTED_EDGE('',*,*,#1113,.T.);
#1116=ORIENTED_EDGE('',*,*,#1115,.T.);
#1118=ORIENTED_EDGE('',*,*,#1117,.F.);
#1120=ORIENTED_EDGE('',*,*,#1119,.F.);
#1122=ORIENTED_EDGE('',*,*,#1121,.T.);
#1124=ORIENTED_EDGE('',*,*,#1123,.T.);
#1126=ORIENTED_EDGE('',*,*,#1125,.T.);
#1128=ORIENTED_EDGE('',*,*,#1127,.F.);
#1130=ORIENTED_EDGE('',*,*,#1129,.T.);
#1132=ORIENTED_EDGE('',*,*,#1131,.T.);
#1134=ORIENTED_EDGE('',*,*,#1133,.T.);
#1136=ORIENTED_EDGE('',*,*,#1135,.F.);
#1138=ORIENTED_EDGE('',*,*,#1137,.F.);
#1139=ORIENTED_EDGE('',*,*,#1039,.F.);
#1141=ORIENTED_EDGE('',*,*,#1140,.T.);
#1143=ORIENTED_EDGE('',*,*,#1142,.T.);
#1145=ORIENTED_EDGE('',*,*,#1144,.T.);
#1146=ORIENTED_EDGE('',*,*,#1051,.F.);
#1148=ORIENTED_EDGE('',*,*,#1147,.T.);
#1150=ORIENTED_EDGE('',*,*,#1149,.T.);
#1152=ORIENTED_EDGE('',*,*,#1151,.T.);
#1154=ORIENTED_EDGE('',*,*,#1153,.T.);
#1156=ORIENTED_EDGE('',*,*,#1155,.T.);
#1158=ORIENTED_EDGE('',*,*,#1157,.T.);
#1160=ORIENTED_EDGE('',*,*,#1159,.T.);
#1161=EDGE_LOOP('',(#1093,#1094,#1096,#1098,#1099,#1100,#1102,#1104,#1106,#1108,
#1110,#1112,#1114,#1116,#1118,#1120,#1122,#1124,#1126,#1128,#1130,#1132,#1134,
#1136,#1138,#1139,#1141,#1143,#1145,#1146,#1148,#1150,#1152,#1154,#1156,#1158,
#1160));
#1162=FACE_OUTER_BOUND('',#1161,.F.);
#1163=ADVANCED_FACE('',(#1162),#1092,.F.);
#1164=CARTESIAN_POINT('',(-1.025912010399E1,0.E0,8.4E0));
#1165=DIRECTION('',(0.E0,0.E0,-1.E0));
#1166=DIRECTION('',(-1.E0,0.E0,0.E0));
#1167=AXIS2_PLACEMENT_3D('',#1164,#1165,#1166);
#1168=PLANE('',#1167);
#1169=ORIENTED_EDGE('',*,*,#1067,.F.);
#1170=ORIENTED_EDGE('',*,*,#973,.T.);
#1172=ORIENTED_EDGE('',*,*,#1171,.T.);
#1173=ORIENTED_EDGE('',*,*,#1095,.F.);
#1174=EDGE_LOOP('',(#1169,#1170,#1172,#1173));
#1175=FACE_OUTER_BOUND('',#1174,.F.);
#1176=ADVANCED_FACE('',(#1175),#1168,.T.);
#1177=CARTESIAN_POINT('',(-1.1E1,0.E0,8.4E0));
#1178=DIRECTION('',(-1.E0,0.E0,0.E0));
#1179=DIRECTION('',(0.E0,0.E0,1.E0));
#1180=AXIS2_PLACEMENT_3D('',#1177,#1178,#1179);
#1181=PLANE('',#1180);
#1182=ORIENTED_EDGE('',*,*,#971,.T.);
#1183=ORIENTED_EDGE('',*,*,#1082,.T.);
#1184=ORIENTED_EDGE('',*,*,#1097,.F.);
#1185=ORIENTED_EDGE('',*,*,#1171,.F.);
#1186=EDGE_LOOP('',(#1182,#1183,#1184,#1185));
#1187=FACE_OUTER_BOUND('',#1186,.F.);
#1188=ADVANCED_FACE('',(#1187),#1181,.T.);
#1189=CARTESIAN_POINT('',(-1.05E1,0.E0,1.38E1));
#1190=DIRECTION('',(0.E0,-1.745240643728E-2,9.998476951564E-1));
#1191=DIRECTION('',(-1.E0,0.E0,0.E0));
#1192=AXIS2_PLACEMENT_3D('',#1189,#1190,#1191);
#1193=PLANE('',#1192);
#1195=ORIENTED_EDGE('',*,*,#1194,.T.);
#1196=ORIENTED_EDGE('',*,*,#1101,.T.);
#1197=ORIENTED_EDGE('',*,*,#1018,.T.);
#1198=ORIENTED_EDGE('',*,*,#965,.F.);
#1199=EDGE_LOOP('',(#1195,#1196,#1197,#1198));
#1200=FACE_OUTER_BOUND('',#1199,.F.);
#1201=ADVANCED_FACE('',(#1200),#1193,.T.);
#1202=CARTESIAN_POINT('',(-1.05E1,0.E0,1.38E1));
#1203=DIRECTION('',(0.E0,-1.745240643728E-2,9.998476951564E-1));
#1204=DIRECTION('',(-1.E0,0.E0,0.E0));
#1205=AXIS2_PLACEMENT_3D('',#1202,#1203,#1204);
#1206=PLANE('',#1205);
#1208=ORIENTED_EDGE('',*,*,#1207,.F.);
#1209=ORIENTED_EDGE('',*,*,#957,.F.);
#1211=ORIENTED_EDGE('',*,*,#1210,.T.);
#1212=ORIENTED_EDGE('',*,*,#1109,.T.);
#1213=EDGE_LOOP('',(#1208,#1209,#1211,#1212));
#1214=FACE_OUTER_BOUND('',#1213,.F.);
#1215=ADVANCED_FACE('',(#1214),#1206,.T.);
#1216=CARTESIAN_POINT('',(-1.05E1,0.E0,1.38E1));
#1217=DIRECTION('',(0.E0,-1.745240643728E-2,9.998476951564E-1));
#1218=DIRECTION('',(-1.E0,0.E0,0.E0));
#1219=AXIS2_PLACEMENT_3D('',#1216,#1217,#1218);
#1220=PLANE('',#1219);
#1222=ORIENTED_EDGE('',*,*,#1221,.F.);
#1223=ORIENTED_EDGE('',*,*,#949,.F.);
#1225=ORIENTED_EDGE('',*,*,#1224,.F.);
#1226=ORIENTED_EDGE('',*,*,#1117,.T.);
#1227=EDGE_LOOP('',(#1222,#1223,#1225,#1226));
#1228=FACE_OUTER_BOUND('',#1227,.F.);
#1229=ADVANCED_FACE('',(#1228),#1220,.T.);
#1230=CARTESIAN_POINT('',(-7.5E0,0.E0,1.355912010399E1));
#1231=DIRECTION('',(-1.E0,0.E0,0.E0));
#1232=DIRECTION('',(0.E0,0.E0,1.E0));
#1233=AXIS2_PLACEMENT_3D('',#1230,#1231,#1232);
#1234=PLANE('',#1233);
#1235=ORIENTED_EDGE('',*,*,#1194,.F.);
#1236=ORIENTED_EDGE('',*,*,#963,.T.);
#1238=ORIENTED_EDGE('',*,*,#1237,.T.);
#1239=ORIENTED_EDGE('',*,*,#1103,.F.);
#1240=EDGE_LOOP('',(#1235,#1236,#1238,#1239));
#1241=FACE_OUTER_BOUND('',#1240,.F.);
#1242=ADVANCED_FACE('',(#1241),#1234,.T.);
#1243=CARTESIAN_POINT('',(-7.5E0,0.E0,1.43E1));
#1244=DIRECTION('',(0.E0,0.E0,1.E0));
#1245=DIRECTION('',(1.E0,0.E0,0.E0));
#1246=AXIS2_PLACEMENT_3D('',#1243,#1244,#1245);
#1247=PLANE('',#1246);
#1248=ORIENTED_EDGE('',*,*,#961,.T.);
#1250=ORIENTED_EDGE('',*,*,#1249,.T.);
#1251=ORIENTED_EDGE('',*,*,#1105,.F.);
#1252=ORIENTED_EDGE('',*,*,#1237,.F.);
#1253=EDGE_LOOP('',(#1248,#1250,#1251,#1252));
#1254=FACE_OUTER_BOUND('',#1253,.F.);
#1255=ADVANCED_FACE('',(#1254),#1247,.T.);
#1256=CARTESIAN_POINT('',(-5.E0,0.E0,1.43E1));
#1257=DIRECTION('',(1.E0,0.E0,0.E0));
#1258=DIRECTION('',(0.E0,0.E0,-1.E0));
#1259=AXIS2_PLACEMENT_3D('',#1256,#1257,#1258);
#1260=PLANE('',#1259);
#1261=ORIENTED_EDGE('',*,*,#1207,.T.);
#1262=ORIENTED_EDGE('',*,*,#1107,.F.);
#1263=ORIENTED_EDGE('',*,*,#1249,.F.);
#1264=ORIENTED_EDGE('',*,*,#959,.T.);
#1265=EDGE_LOOP('',(#1261,#1262,#1263,#1264));
#1266=FACE_OUTER_BOUND('',#1265,.F.);
#1267=ADVANCED_FACE('',(#1266),#1260,.T.);
#1268=CARTESIAN_POINT('',(5.E0,0.E0,1.355912010399E1));
#1269=DIRECTION('',(-1.E0,0.E0,0.E0));
#1270=DIRECTION('',(0.E0,0.E0,1.E0));
#1271=AXIS2_PLACEMENT_3D('',#1268,#1269,#1270);
#1272=PLANE('',#1271);
#1273=ORIENTED_EDGE('',*,*,#1210,.F.);
#1274=ORIENTED_EDGE('',*,*,#955,.T.);
#1276=ORIENTED_EDGE('',*,*,#1275,.T.);
#1277=ORIENTED_EDGE('',*,*,#1111,.F.);
#1278=EDGE_LOOP('',(#1273,#1274,#1276,#1277));
#1279=FACE_OUTER_BOUND('',#1278,.F.);
#1280=ADVANCED_FACE('',(#1279),#1272,.T.);
#1281=CARTESIAN_POINT('',(5.E0,0.E0,1.43E1));
#1282=DIRECTION('',(0.E0,0.E0,1.E0));
#1283=DIRECTION('',(1.E0,0.E0,0.E0));
#1284=AXIS2_PLACEMENT_3D('',#1281,#1282,#1283);
#1285=PLANE('',#1284);
#1286=ORIENTED_EDGE('',*,*,#953,.T.);
#1288=ORIENTED_EDGE('',*,*,#1287,.T.);
#1289=ORIENTED_EDGE('',*,*,#1113,.F.);
#1290=ORIENTED_EDGE('',*,*,#1275,.F.);
#1291=EDGE_LOOP('',(#1286,#1288,#1289,#1290));
#1292=FACE_OUTER_BOUND('',#1291,.F.);
#1293=ADVANCED_FACE('',(#1292),#1285,.T.);
#1294=CARTESIAN_POINT('',(7.5E0,0.E0,1.43E1));
#1295=DIRECTION('',(1.E0,0.E0,0.E0));
#1296=DIRECTION('',(0.E0,0.E0,-1.E0));
#1297=AXIS2_PLACEMENT_3D('',#1294,#1295,#1296);
#1298=PLANE('',#1297);
#1299=ORIENTED_EDGE('',*,*,#1221,.T.);
#1300=ORIENTED_EDGE('',*,*,#1115,.F.);
#1301=ORIENTED_EDGE('',*,*,#1287,.F.);
#1302=ORIENTED_EDGE('',*,*,#951,.T.);
#1303=EDGE_LOOP('',(#1299,#1300,#1301,#1302));
#1304=FACE_OUTER_BOUND('',#1303,.F.);
#1305=ADVANCED_FACE('',(#1304),#1298,.T.);
#1306=CARTESIAN_POINT('',(1.05E1,0.E0,1.38E1));
#1307=DIRECTION('',(9.998476951564E-1,-1.745240643728E-2,0.E0));
#1308=DIRECTION('',(0.E0,0.E0,1.E0));
#1309=AXIS2_PLACEMENT_3D('',#1306,#1307,#1308);
#1310=PLANE('',#1309);
#1312=ORIENTED_EDGE('',*,*,#1311,.T.);
#1313=ORIENTED_EDGE('',*,*,#1127,.T.);
#1315=ORIENTED_EDGE('',*,*,#1314,.F.);
#1316=ORIENTED_EDGE('',*,*,#939,.F.);
#1317=EDGE_LOOP('',(#1312,#1313,#1315,#1316));
#1318=FACE_OUTER_BOUND('',#1317,.F.);
#1319=ADVANCED_FACE('',(#1318),#1310,.T.);
#1320=CARTESIAN_POINT('',(1.05E1,0.E0,1.38E1));
#1321=DIRECTION('',(9.998476951564E-1,-1.745240643728E-2,0.E0));
#1322=DIRECTION('',(0.E0,0.E0,1.E0));
#1323=AXIS2_PLACEMENT_3D('',#1320,#1321,#1322);
#1324=PLANE('',#1323);
#1326=ORIENTED_EDGE('',*,*,#1325,.T.);
#1327=ORIENTED_EDGE('',*,*,#1119,.T.);
#1328=ORIENTED_EDGE('',*,*,#1224,.T.);
#1329=ORIENTED_EDGE('',*,*,#947,.F.);
#1330=EDGE_LOOP('',(#1326,#1327,#1328,#1329));
#1331=FACE_OUTER_BOUND('',#1330,.F.);
#1332=ADVANCED_FACE('',(#1331),#1324,.T.);
#1333=CARTESIAN_POINT('',(1.05E1,0.E0,1.38E1));
#1334=DIRECTION('',(9.998476951564E-1,-1.745240643728E-2,0.E0));
#1335=DIRECTION('',(0.E0,0.E0,1.E0));
#1336=AXIS2_PLACEMENT_3D('',#1333,#1334,#1335);
#1337=PLANE('',#1336);
#1339=ORIENTED_EDGE('',*,*,#1338,.F.);
#1340=ORIENTED_EDGE('',*,*,#1135,.T.);
#1342=ORIENTED_EDGE('',*,*,#1341,.F.);
#1343=ORIENTED_EDGE('',*,*,#931,.F.);
#1345=ORIENTED_EDGE('',*,*,#1344,.F.);
#1347=ORIENTED_EDGE('',*,*,#1346,.T.);
#1348=EDGE_LOOP('',(#1339,#1340,#1342,#1343,#1345,#1347));
#1349=FACE_OUTER_BOUND('',#1348,.F.);
#1350=ADVANCED_FACE('',(#1349),#1337,.T.);
#1351=CARTESIAN_POINT('',(1.025912010399E1,0.E0,4.E-1));
#1352=DIRECTION('',(0.E0,0.E0,1.E0));
#1353=DIRECTION('',(1.E0,0.E0,0.E0));
#1354=AXIS2_PLACEMENT_3D('',#1351,#1352,#1353);
#1355=PLANE('',#1354);
#1356=ORIENTED_EDGE('',*,*,#1311,.F.);
#1357=ORIENTED_EDGE('',*,*,#937,.T.);
#1359=ORIENTED_EDGE('',*,*,#1358,.T.);
#1360=ORIENTED_EDGE('',*,*,#1129,.F.);
#1361=EDGE_LOOP('',(#1356,#1357,#1359,#1360));
#1362=FACE_OUTER_BOUND('',#1361,.F.);
#1363=ADVANCED_FACE('',(#1362),#1355,.T.);
#1364=CARTESIAN_POINT('',(1.1E1,0.E0,4.E-1));
#1365=DIRECTION('',(1.E0,0.E0,0.E0));
#1366=DIRECTION('',(0.E0,0.E0,-1.E0));
#1367=AXIS2_PLACEMENT_3D('',#1364,#1365,#1366);
#1368=PLANE('',#1367);
#1369=ORIENTED_EDGE('',*,*,#935,.T.);
#1371=ORIENTED_EDGE('',*,*,#1370,.T.);
#1372=ORIENTED_EDGE('',*,*,#1131,.F.);
#1373=ORIENTED_EDGE('',*,*,#1358,.F.);
#1374=EDGE_LOOP('',(#1369,#1371,#1372,#1373));
#1375=FACE_OUTER_BOUND('',#1374,.F.);
#1376=ADVANCED_FACE('',(#1375),#1368,.T.);
#1377=CARTESIAN_POINT('',(1.1E1,0.E0,-2.1E0));
#1378=DIRECTION('',(0.E0,0.E0,-1.E0));
#1379=DIRECTION('',(-1.E0,0.E0,0.E0));
#1380=AXIS2_PLACEMENT_3D('',#1377,#1378,#1379);
#1381=PLANE('',#1380);
#1382=ORIENTED_EDGE('',*,*,#1341,.T.);
#1383=ORIENTED_EDGE('',*,*,#1133,.F.);
#1384=ORIENTED_EDGE('',*,*,#1370,.F.);
#1385=ORIENTED_EDGE('',*,*,#933,.T.);
#1386=EDGE_LOOP('',(#1382,#1383,#1384,#1385));
#1387=FACE_OUTER_BOUND('',#1386,.F.);
#1388=ADVANCED_FACE('',(#1387),#1381,.T.);
#1389=CARTESIAN_POINT('',(1.1E1,0.E0,8.4E0));
#1390=DIRECTION('',(0.E0,0.E0,-1.E0));
#1391=DIRECTION('',(-1.E0,0.E0,0.E0));
#1392=AXIS2_PLACEMENT_3D('',#1389,#1390,#1391);
#1393=PLANE('',#1392);
#1394=ORIENTED_EDGE('',*,*,#1314,.T.);
#1395=ORIENTED_EDGE('',*,*,#1125,.F.);
#1397=ORIENTED_EDGE('',*,*,#1396,.F.);
#1398=ORIENTED_EDGE('',*,*,#941,.T.);
#1399=EDGE_LOOP('',(#1394,#1395,#1397,#1398));
#1400=FACE_OUTER_BOUND('',#1399,.F.);
#1401=ADVANCED_FACE('',(#1400),#1393,.T.);
#1402=CARTESIAN_POINT('',(1.1E1,0.E0,1.09E1));
#1403=DIRECTION('',(1.E0,0.E0,0.E0));
#1404=DIRECTION('',(0.E0,0.E0,-1.E0));
#1405=AXIS2_PLACEMENT_3D('',#1402,#1403,#1404);
#1406=PLANE('',#1405);
#1407=ORIENTED_EDGE('',*,*,#943,.T.);
#1408=ORIENTED_EDGE('',*,*,#1396,.T.);
#1409=ORIENTED_EDGE('',*,*,#1123,.F.);
#1411=ORIENTED_EDGE('',*,*,#1410,.F.);
#1412=EDGE_LOOP('',(#1407,#1408,#1409,#1411));
#1413=FACE_OUTER_BOUND('',#1412,.F.);
#1414=ADVANCED_FACE('',(#1413),#1406,.T.);
#1415=CARTESIAN_POINT('',(1.025912010399E1,0.E0,1.09E1));
#1416=DIRECTION('',(0.E0,0.E0,1.E0));
#1417=DIRECTION('',(1.E0,0.E0,0.E0));
#1418=AXIS2_PLACEMENT_3D('',#1415,#1416,#1417);
#1419=PLANE('',#1418);
#1420=ORIENTED_EDGE('',*,*,#1325,.F.);
#1421=ORIENTED_EDGE('',*,*,#945,.T.);
#1422=ORIENTED_EDGE('',*,*,#1410,.T.);
#1423=ORIENTED_EDGE('',*,*,#1121,.F.);
#1424=EDGE_LOOP('',(#1420,#1421,#1422,#1423));
#1425=FACE_OUTER_BOUND('',#1424,.F.);
#1426=ADVANCED_FACE('',(#1425),#1419,.T.);
#1427=CARTESIAN_POINT('',(0.E0,0.E0,-2.7E0));
#1428=DIRECTION('',(0.E0,0.E0,-1.E0));
#1429=DIRECTION('',(-1.E0,0.E0,0.E0));
#1430=AXIS2_PLACEMENT_3D('',#1427,#1428,#1429);
#1431=PLANE('',#1430);
#1432=ORIENTED_EDGE('',*,*,#1137,.T.);
#1433=ORIENTED_EDGE('',*,*,#1338,.T.);
#1435=ORIENTED_EDGE('',*,*,#1434,.F.);
#1436=ORIENTED_EDGE('',*,*,#1030,.F.);
#1437=EDGE_LOOP('',(#1432,#1433,#1435,#1436));
#1438=FACE_OUTER_BOUND('',#1437,.F.);
#1439=ADVANCED_FACE('',(#1438),#1431,.T.);
#1440=CARTESIAN_POINT('',(-1.301348262704E1,-4.E0,-5.5E0));
#1441=DIRECTION('',(0.E0,1.E0,0.E0));
#1442=DIRECTION('',(1.E0,0.E0,0.E0));
#1443=AXIS2_PLACEMENT_3D('',#1440,#1441,#1442);
#1444=PLANE('',#1443);
#1445=ORIENTED_EDGE('',*,*,#1032,.T.);
#1446=ORIENTED_EDGE('',*,*,#1434,.T.);
#1447=ORIENTED_EDGE('',*,*,#1346,.F.);
#1449=ORIENTED_EDGE('',*,*,#1448,.F.);
#1451=ORIENTED_EDGE('',*,*,#1450,.T.);
#1453=ORIENTED_EDGE('',*,*,#1452,.T.);
#1455=ORIENTED_EDGE('',*,*,#1454,.T.);
#1457=ORIENTED_EDGE('',*,*,#1456,.F.);
#1459=ORIENTED_EDGE('',*,*,#1458,.T.);
#1461=ORIENTED_EDGE('',*,*,#1460,.T.);
#1463=ORIENTED_EDGE('',*,*,#1462,.T.);
#1465=ORIENTED_EDGE('',*,*,#1464,.F.);
#1466=EDGE_LOOP('',(#1445,#1446,#1447,#1449,#1451,#1453,#1455,#1457,#1459,#1461,
#1463,#1465));
#1467=FACE_OUTER_BOUND('',#1466,.F.);
#1468=ADVANCED_FACE('',(#1467),#1444,.F.);
#1469=CARTESIAN_POINT('',(1.05E1,0.E0,-5.E0));
#1470=DIRECTION('',(0.E0,-1.745240643728E-2,-9.998476951564E-1));
#1471=DIRECTION('',(1.E0,0.E0,0.E0));
#1472=AXIS2_PLACEMENT_3D('',#1469,#1470,#1471);
#1473=PLANE('',#1472);
#1474=ORIENTED_EDGE('',*,*,#1464,.T.);
#1476=ORIENTED_EDGE('',*,*,#1475,.F.);
#1477=ORIENTED_EDGE('',*,*,#913,.F.);
#1478=ORIENTED_EDGE('',*,*,#1034,.F.);
#1479=EDGE_LOOP('',(#1474,#1476,#1477,#1478));
#1480=FACE_OUTER_BOUND('',#1479,.F.);
#1481=ADVANCED_FACE('',(#1480),#1473,.T.);
#1482=CARTESIAN_POINT('',(1.05E1,0.E0,-5.E0));
#1483=DIRECTION('',(0.E0,-1.745240643728E-2,-9.998476951564E-1));
#1484=DIRECTION('',(1.E0,0.E0,0.E0));
#1485=AXIS2_PLACEMENT_3D('',#1482,#1483,#1484);
#1486=PLANE('',#1485);
#1487=ORIENTED_EDGE('',*,*,#1456,.T.);
#1489=ORIENTED_EDGE('',*,*,#1488,.F.);
#1490=ORIENTED_EDGE('',*,*,#921,.F.);
#1492=ORIENTED_EDGE('',*,*,#1491,.T.);
#1493=EDGE_LOOP('',(#1487,#1489,#1490,#1492));
#1494=FACE_OUTER_BOUND('',#1493,.F.);
#1495=ADVANCED_FACE('',(#1494),#1486,.T.);
#1496=CARTESIAN_POINT('',(1.05E1,0.E0,-5.E0));
#1497=DIRECTION('',(0.E0,-1.745240643728E-2,-9.998476951564E-1));
#1498=DIRECTION('',(1.E0,0.E0,0.E0));
#1499=AXIS2_PLACEMENT_3D('',#1496,#1497,#1498);
#1500=PLANE('',#1499);
#1501=ORIENTED_EDGE('',*,*,#1448,.T.);
#1502=ORIENTED_EDGE('',*,*,#1344,.T.);
#1503=ORIENTED_EDGE('',*,*,#929,.F.);
#1505=ORIENTED_EDGE('',*,*,#1504,.T.);
#1506=EDGE_LOOP('',(#1501,#1502,#1503,#1505));
#1507=FACE_OUTER_BOUND('',#1506,.F.);
#1508=ADVANCED_FACE('',(#1507),#1500,.T.);
#1509=CARTESIAN_POINT('',(-7.5E0,0.E0,-5.5E0));
#1510=DIRECTION('',(-1.E0,0.E0,0.E0));
#1511=DIRECTION('',(0.E0,0.E0,1.E0));
#1512=AXIS2_PLACEMENT_3D('',#1509,#1510,#1511);
#1513=PLANE('',#1512);
#1514=ORIENTED_EDGE('',*,*,#1462,.F.);
#1516=ORIENTED_EDGE('',*,*,#1515,.F.);
#1517=ORIENTED_EDGE('',*,*,#915,.T.);
#1518=ORIENTED_EDGE('',*,*,#1475,.T.);
#1519=EDGE_LOOP('',(#1514,#1516,#1517,#1518));
#1520=FACE_OUTER_BOUND('',#1519,.F.);
#1521=ADVANCED_FACE('',(#1520),#1513,.T.);
#1522=CARTESIAN_POINT('',(-5.E0,0.E0,-5.5E0));
#1523=DIRECTION('',(0.E0,0.E0,-1.E0));
#1524=DIRECTION('',(-1.E0,0.E0,0.E0));
#1525=AXIS2_PLACEMENT_3D('',#1522,#1523,#1524);
#1526=PLANE('',#1525);
#1527=ORIENTED_EDGE('',*,*,#1460,.F.);
#1529=ORIENTED_EDGE('',*,*,#1528,.F.);
#1530=ORIENTED_EDGE('',*,*,#917,.T.);
#1531=ORIENTED_EDGE('',*,*,#1515,.T.);
#1532=EDGE_LOOP('',(#1527,#1529,#1530,#1531));
#1533=FACE_OUTER_BOUND('',#1532,.F.);
#1534=ADVANCED_FACE('',(#1533),#1526,.T.);
#1535=CARTESIAN_POINT('',(-5.E0,0.E0,-4.759120103991E0));
#1536=DIRECTION('',(1.E0,0.E0,0.E0));
#1537=DIRECTION('',(0.E0,0.E0,-1.E0));
#1538=AXIS2_PLACEMENT_3D('',#1535,#1536,#1537);
#1539=PLANE('',#1538);
#1540=ORIENTED_EDGE('',*,*,#1458,.F.);
#1541=ORIENTED_EDGE('',*,*,#1491,.F.);
#1542=ORIENTED_EDGE('',*,*,#919,.T.);
#1543=ORIENTED_EDGE('',*,*,#1528,.T.);
#1544=EDGE_LOOP('',(#1540,#1541,#1542,#1543));
#1545=FACE_OUTER_BOUND('',#1544,.F.);
#1546=ADVANCED_FACE('',(#1545),#1539,.T.);
#1547=CARTESIAN_POINT('',(5.E0,0.E0,-5.5E0));
#1548=DIRECTION('',(-1.E0,0.E0,0.E0));
#1549=DIRECTION('',(0.E0,0.E0,1.E0));
#1550=AXIS2_PLACEMENT_3D('',#1547,#1548,#1549);
#1551=PLANE('',#1550);
#1552=ORIENTED_EDGE('',*,*,#1454,.F.);
#1554=ORIENTED_EDGE('',*,*,#1553,.F.);
#1555=ORIENTED_EDGE('',*,*,#923,.T.);
#1556=ORIENTED_EDGE('',*,*,#1488,.T.);
#1557=EDGE_LOOP('',(#1552,#1554,#1555,#1556));
#1558=FACE_OUTER_BOUND('',#1557,.F.);
#1559=ADVANCED_FACE('',(#1558),#1551,.T.);
#1560=CARTESIAN_POINT('',(7.5E0,0.E0,-5.5E0));
#1561=DIRECTION('',(0.E0,0.E0,-1.E0));
#1562=DIRECTION('',(-1.E0,0.E0,0.E0));
#1563=AXIS2_PLACEMENT_3D('',#1560,#1561,#1562);
#1564=PLANE('',#1563);
#1565=ORIENTED_EDGE('',*,*,#1452,.F.);
#1567=ORIENTED_EDGE('',*,*,#1566,.F.);
#1568=ORIENTED_EDGE('',*,*,#925,.T.);
#1569=ORIENTED_EDGE('',*,*,#1553,.T.);
#1570=EDGE_LOOP('',(#1565,#1567,#1568,#1569));
#1571=FACE_OUTER_BOUND('',#1570,.F.);
#1572=ADVANCED_FACE('',(#1571),#1564,.T.);
#1573=CARTESIAN_POINT('',(7.5E0,0.E0,-4.759120103991E0));
#1574=DIRECTION('',(1.E0,0.E0,0.E0));
#1575=DIRECTION('',(0.E0,0.E0,-1.E0));
#1576=AXIS2_PLACEMENT_3D('',#1573,#1574,#1575);
#1577=PLANE('',#1576);
#1578=ORIENTED_EDGE('',*,*,#1450,.F.);
#1579=ORIENTED_EDGE('',*,*,#1504,.F.);
#1580=ORIENTED_EDGE('',*,*,#927,.T.);
#1581=ORIENTED_EDGE('',*,*,#1566,.T.);
#1582=EDGE_LOOP('',(#1578,#1579,#1580,#1581));
#1583=FACE_OUTER_BOUND('',#1582,.F.);
#1584=ADVANCED_FACE('',(#1583),#1577,.T.);
#1585=CARTESIAN_POINT('',(-1.025912010399E1,0.E0,-2.1E0));
#1586=DIRECTION('',(0.E0,0.E0,-1.E0));
#1587=DIRECTION('',(-1.E0,0.E0,0.E0));
#1588=AXIS2_PLACEMENT_3D('',#1585,#1586,#1587);
#1589=PLANE('',#1588);
#1590=ORIENTED_EDGE('',*,*,#1037,.F.);
#1591=ORIENTED_EDGE('',*,*,#909,.T.);
#1593=ORIENTED_EDGE('',*,*,#1592,.T.);
#1594=ORIENTED_EDGE('',*,*,#1140,.F.);
#1595=EDGE_LOOP('',(#1590,#1591,#1593,#1594));
#1596=FACE_OUTER_BOUND('',#1595,.F.);
#1597=ADVANCED_FACE('',(#1596),#1589,.T.);
#1598=CARTESIAN_POINT('',(-1.1E1,0.E0,-2.1E0));
#1599=DIRECTION('',(-1.E0,0.E0,0.E0));
#1600=DIRECTION('',(0.E0,0.E0,1.E0));
#1601=AXIS2_PLACEMENT_3D('',#1598,#1599,#1600);
#1602=PLANE('',#1601);
#1603=ORIENTED_EDGE('',*,*,#907,.T.);
#1605=ORIENTED_EDGE('',*,*,#1604,.T.);
#1606=ORIENTED_EDGE('',*,*,#1142,.F.);
#1607=ORIENTED_EDGE('',*,*,#1592,.F.);
#1608=EDGE_LOOP('',(#1603,#1605,#1606,#1607));
#1609=FACE_OUTER_BOUND('',#1608,.F.);
#1610=ADVANCED_FACE('',(#1609),#1602,.T.);
#1611=CARTESIAN_POINT('',(-1.1E1,0.E0,4.E-1));
#1612=DIRECTION('',(0.E0,0.E0,1.E0));
#1613=DIRECTION('',(1.E0,0.E0,0.E0));
#1614=AXIS2_PLACEMENT_3D('',#1611,#1612,#1613);
#1615=PLANE('',#1614);
#1616=ORIENTED_EDGE('',*,*,#1053,.T.);
#1617=ORIENTED_EDGE('',*,*,#1144,.F.);
#1618=ORIENTED_EDGE('',*,*,#1604,.F.);
#1619=ORIENTED_EDGE('',*,*,#905,.T.);
#1620=EDGE_LOOP('',(#1616,#1617,#1618,#1619));
#1621=FACE_OUTER_BOUND('',#1620,.F.);
#1622=ADVANCED_FACE('',(#1621),#1615,.T.);
#1623=CARTESIAN_POINT('',(-6.3E0,0.E0,2.4E0));
#1624=DIRECTION('',(0.E0,1.745240643728E-2,-9.998476951564E-1));
#1625=DIRECTION('',(1.E0,0.E0,0.E0));
#1626=AXIS2_PLACEMENT_3D('',#1623,#1624,#1625);
#1627=PLANE('',#1626);
#1629=ORIENTED_EDGE('',*,*,#1628,.F.);
#1630=ORIENTED_EDGE('',*,*,#1147,.F.);
#1631=ORIENTED_EDGE('',*,*,#1049,.F.);
#1632=ORIENTED_EDGE('',*,*,#901,.T.);
#1634=ORIENTED_EDGE('',*,*,#1633,.T.);
#1635=EDGE_LOOP('',(#1629,#1630,#1631,#1632,#1634));
#1636=FACE_OUTER_BOUND('',#1635,.F.);
#1637=ADVANCED_FACE('',(#1636),#1627,.F.);
#1638=CARTESIAN_POINT('',(-6.835644174078E0,-1.350004569145E1,
1.664279673500E0));
#1639=DIRECTION('',(7.009092642999E-1,-7.132504491542E-1,0.E0));
#1640=DIRECTION('',(-7.132504491542E-1,-7.009092642999E-1,0.E0));
#1641=AXIS2_PLACEMENT_3D('',#1638,#1639,#1640);
#1642=PLANE('',#1641);
#1643=ORIENTED_EDGE('',*,*,#1628,.T.);
#1645=ORIENTED_EDGE('',*,*,#1644,.T.);
#1647=ORIENTED_EDGE('',*,*,#1646,.T.);
#1648=ORIENTED_EDGE('',*,*,#1149,.F.);
#1649=EDGE_LOOP('',(#1643,#1645,#1647,#1648));
#1650=FACE_OUTER_BOUND('',#1649,.F.);
#1651=ADVANCED_FACE('',(#1650),#1642,.T.);
#1652=CARTESIAN_POINT('',(-6.3E0,0.E0,6.7E0));
#1653=DIRECTION('',(9.998476951564E-1,-1.745240643728E-2,0.E0));
#1654=DIRECTION('',(0.E0,0.E0,1.E0));
#1655=AXIS2_PLACEMENT_3D('',#1652,#1653,#1654);
#1656=PLANE('',#1655);
#1657=ORIENTED_EDGE('',*,*,#1644,.F.);
#1658=ORIENTED_EDGE('',*,*,#1633,.F.);
#1659=ORIENTED_EDGE('',*,*,#899,.F.);
#1661=ORIENTED_EDGE('',*,*,#1660,.T.);
#1662=EDGE_LOOP('',(#1657,#1658,#1659,#1661));
#1663=FACE_OUTER_BOUND('',#1662,.F.);
#1664=ADVANCED_FACE('',(#1663),#1656,.T.);
#1665=CARTESIAN_POINT('',(-4.985836639518E0,1.798968E1,1.714163360482E0));
#1666=DIRECTION('',(-1.744974916068E-2,-9.996954598819E-1,-1.744974916068E-2));
#1667=DIRECTION('',(-9.998476951564E-1,1.745240643728E-2,0.E0));
#1668=AXIS2_PLACEMENT_3D('',#1665,#1666,#1667);
#1669=CYLINDRICAL_SURFACE('',#1668,1.E0);
#1671=ORIENTED_EDGE('',*,*,#1670,.F.);
#1672=ORIENTED_EDGE('',*,*,#1660,.F.);
#1673=ORIENTED_EDGE('',*,*,#897,.T.);
#1675=ORIENTED_EDGE('',*,*,#1674,.T.);
#1676=EDGE_LOOP('',(#1671,#1672,#1673,#1675));
#1677=FACE_OUTER_BOUND('',#1676,.F.);
#1678=ADVANCED_FACE('',(#1677),#1669,.F.);
#1679=CARTESIAN_POINT('',(-6.506968240181E0,-1.317700692903E1,
1.185617763643E0));
#1680=CARTESIAN_POINT('',(-6.725965130669E0,-1.339230681897E1,
1.189245084990E0));
#1681=CARTESIAN_POINT('',(-6.944962021157E0,-1.360760670890E1,
1.192872406336E0));
#1682=CARTESIAN_POINT('',(-7.163958911645E0,-1.382290659884E1,
1.196499727683E0));
#1683=CARTESIAN_POINT('',(-6.507058638556E0,-1.317706897207E1,
1.180225852773E0));
#1684=CARTESIAN_POINT('',(-6.726075187029E0,-1.339234742058E1,
1.182644256129E0));
#1685=CARTESIAN_POINT('',(-6.945091735502E0,-1.360762586909E1,
1.185062659484E0));
#1686=CARTESIAN_POINT('',(-7.164108283975E0,-1.382290431761E1,
1.187481062840E0));
#1687=CARTESIAN_POINT('',(-6.507645223855E0,-1.317785845123E1,
1.111051664275E0));
#1688=CARTESIAN_POINT('',(-6.726785482402E0,-1.339286406400E1,
1.097960810203E0));
#1689=CARTESIAN_POINT('',(-6.945925740950E0,-1.360786967677E1,
1.084869956132E0));
#1690=CARTESIAN_POINT('',(-7.165065999497E0,-1.382287528954E1,
1.071779102060E0));
#1691=CARTESIAN_POINT('',(-6.494648534463E0,-1.317921772596E1,
9.779446393775E-1));
#1692=CARTESIAN_POINT('',(-6.710860289193E0,-1.339375358760E1,
9.350159801124E-1));
#1693=CARTESIAN_POINT('',(-6.927072043923E0,-1.360828944924E1,
8.920873208473E-1));
#1694=CARTESIAN_POINT('',(-7.143283798653E0,-1.382282531088E1,
8.491586615822E-1));
#1695=CARTESIAN_POINT('',(-6.438454947267E0,-1.318067849252E1,
7.926729617860E-1));
#1696=CARTESIAN_POINT('',(-6.642048707789E0,-1.339470952851E1,
7.082038150526E-1));
#1697=CARTESIAN_POINT('',(-6.845642468311E0,-1.360874056451E1,
6.237346683191E-1));
#1698=CARTESIAN_POINT('',(-7.049236228833E0,-1.382277160050E1,
5.392655215857E-1));
#1699=CARTESIAN_POINT('',(-6.347504344220E0,-1.318157216038E1,
6.227548574868E-1));
#1700=CARTESIAN_POINT('',(-6.530690213950E0,-1.339529435411E1,
5.001845449899E-1));
#1701=CARTESIAN_POINT('',(-6.713876083680E0,-1.360901654784E1,
3.776142324931E-1));
#1702=CARTESIAN_POINT('',(-6.897061953409E0,-1.382273874156E1,
2.550439199962E-1));
#1703=CARTESIAN_POINT('',(-6.224762661691E0,-1.318187268255E1,
4.734580442214E-1));
#1704=CARTESIAN_POINT('',(-6.380416255248E0,-1.339549101896E1,
3.174053785705E-1));
#1705=CARTESIAN_POINT('',(-6.536069848805E0,-1.360910935537E1,
1.613527129195E-1));
#1706=CARTESIAN_POINT('',(-6.691723442362E0,-1.382272769177E1,
5.300047268532E-3));
#1707=CARTESIAN_POINT('',(-6.075612339387E0,-1.318156580015E1,
3.514248639314E-1));
#1708=CARTESIAN_POINT('',(-6.197816500820E0,-1.339529019191E1,
1.679987668415E-1));
#1709=CARTESIAN_POINT('',(-6.320020662254E0,-1.360901458366E1,
-1.542733024831E-2));
#1710=CARTESIAN_POINT('',(-6.442224823687E0,-1.382273897542E1,
-1.988534273382E-1));
#1711=CARTESIAN_POINT('',(-5.904989346581E0,-1.318066387151E1,
2.604993219940E-1));
#1712=CARTESIAN_POINT('',(-5.988934320655E0,-1.339469996037E1,
5.667087267910E-2));
#1713=CARTESIAN_POINT('',(-6.072879294728E0,-1.360873604923E1,
-1.471575766358E-1));
#1714=CARTESIAN_POINT('',(-6.156824268801E0,-1.382277213810E1,
-3.509860259508E-1));
#1715=CARTESIAN_POINT('',(-5.719209007921E0,-1.317919070713E1,
2.048925885877E-1));
#1716=CARTESIAN_POINT('',(-5.761499557271E0,-1.339373590620E1,
-1.142235481874E-2));
#1717=CARTESIAN_POINT('',(-5.803790106621E0,-1.360828110526E1,
-2.277372982252E-1));
#1718=CARTESIAN_POINT('',(-5.846080655971E0,-1.382282630432E1,
-4.440522416317E-1));
#1719=CARTESIAN_POINT('',(-5.588214506495E0,-1.317784999547E1,
1.923681213833E-1));
#1720=CARTESIAN_POINT('',(-5.601140812444E0,-1.339285853046E1,
-2.676922811889E-2));
#1721=CARTESIAN_POINT('',(-5.614067118393E0,-1.360786706546E1,
-2.459065776211E-1));
#1722=CARTESIAN_POINT('',(-5.626993424342E0,-1.382287560045E1,
-4.650439271233E-1));
#1723=CARTESIAN_POINT('',(-5.519769724341E0,-1.317706892861E1,
1.929407788626E-1));
#1724=CARTESIAN_POINT('',(-5.517350332978E0,-1.339234739214E1,
-2.607590070759E-2));
#1725=CARTESIAN_POINT('',(-5.514930941616E0,-1.360762585567E1,
-2.450925802778E-1));
#1726=CARTESIAN_POINT('',(-5.512511550254E0,-1.382290431920E1,
-4.641092598480E-1));
#1727=CARTESIAN_POINT('',(-5.514371926009E0,-1.317700683389E1,
1.930298567392E-1));
#1728=CARTESIAN_POINT('',(-5.510742298419E0,-1.339230675671E1,
-2.596746152984E-2));
#1729=CARTESIAN_POINT('',(-5.507112670829E0,-1.360760667952E1,
-2.449647797989E-1));
#1730=CARTESIAN_POINT('',(-5.503483043240E0,-1.382290660234E1,
-4.639620980680E-1));
#1731=B_SPLINE_SURFACE_WITH_KNOTS('',3,3,((#1679,#1680,#1681,#1682),(#1683,
#1684,#1685,#1686),(#1687,#1688,#1689,#1690),(#1691,#1692,#1693,#1694),(#1695,
#1696,#1697,#1698),(#1699,#1700,#1701,#1702),(#1703,#1704,#1705,#1706),(#1707,
#1708,#1709,#1710),(#1711,#1712,#1713,#1714),(#1715,#1716,#1717,#1718),(#1719,
#1720,#1721,#1722),(#1723,#1724,#1725,#1726),(#1727,#1728,#1729,#1730)),
.UNSPECIFIED.,.F.,.F.,.F.,(4,1,1,1,1,1,1,1,1,1,4),(4,4),(-1.056947709296E-2,
0.E0,1.25E-1,2.5E-1,3.75E-1,5.E-1,6.25E-1,7.5E-1,8.75E-1,1.E0,1.010698761058E0),
(-3.817216335846E-2,1.038172163358E0),.UNSPECIFIED.);
#1732=ORIENTED_EDGE('',*,*,#1670,.T.);
#1734=ORIENTED_EDGE('',*,*,#1733,.T.);
#1735=ORIENTED_EDGE('',*,*,#1151,.F.);
#1736=ORIENTED_EDGE('',*,*,#1646,.F.);
#1737=EDGE_LOOP('',(#1732,#1734,#1735,#1736));
#1738=FACE_OUTER_BOUND('',#1737,.F.);
#1739=ADVANCED_FACE('',(#1738),#1731,.F.);
#1740=CARTESIAN_POINT('',(0.E0,-1.350004569145E1,-1.356441740782E-1));
#1741=DIRECTION('',(0.E0,-7.132504491542E-1,7.009092642999E-1));
#1742=DIRECTION('',(0.E0,-7.009092642999E-1,-7.132504491542E-1));
#1743=AXIS2_PLACEMENT_3D('',#1740,#1741,#1742);
#1744=PLANE('',#1743);
#1746=ORIENTED_EDGE('',*,*,#1745,.T.);
#1748=ORIENTED_EDGE('',*,*,#1747,.T.);
#1749=ORIENTED_EDGE('',*,*,#1153,.F.);
#1750=ORIENTED_EDGE('',*,*,#1733,.F.);
#1751=EDGE_LOOP('',(#1746,#1748,#1749,#1750));
#1752=FACE_OUTER_BOUND('',#1751,.F.);
#1753=ADVANCED_FACE('',(#1752),#1744,.T.);
#1754=CARTESIAN_POINT('',(-6.3E0,0.E0,4.E-1));
#1755=DIRECTION('',(0.E0,-1.745240643728E-2,9.998476951564E-1));
#1756=DIRECTION('',(-1.E0,0.E0,0.E0));
#1757=AXIS2_PLACEMENT_3D('',#1754,#1755,#1756);
#1758=PLANE('',#1757);
#1759=ORIENTED_EDGE('',*,*,#1745,.F.);
#1760=ORIENTED_EDGE('',*,*,#1674,.F.);
#1761=ORIENTED_EDGE('',*,*,#895,.F.);
#1763=ORIENTED_EDGE('',*,*,#1762,.T.);
#1764=EDGE_LOOP('',(#1759,#1760,#1761,#1763));
#1765=FACE_OUTER_BOUND('',#1764,.F.);
#1766=ADVANCED_FACE('',(#1765),#1758,.T.);
#1767=CARTESIAN_POINT('',(4.985836639518E0,1.798968E1,1.714163360482E0));
#1768=DIRECTION('',(1.744974916068E-2,-9.996954598819E-1,-1.744974916068E-2));
#1769=DIRECTION('',(0.E0,1.745240643728E-2,-9.998476951564E-1));
#1770=AXIS2_PLACEMENT_3D('',#1767,#1768,#1769);
#1771=CYLINDRICAL_SURFACE('',#1770,1.E0);
#1773=ORIENTED_EDGE('',*,*,#1772,.F.);
#1774=ORIENTED_EDGE('',*,*,#1762,.F.);
#1775=ORIENTED_EDGE('',*,*,#893,.T.);
#1777=ORIENTED_EDGE('',*,*,#1776,.T.);
#1778=EDGE_LOOP('',(#1773,#1774,#1775,#1777));
#1779=FACE_OUTER_BOUND('',#1778,.F.);
#1780=ADVANCED_FACE('',(#1779),#1771,.F.);
#1781=CARTESIAN_POINT('',(5.514382236357E0,-1.317700692903E1,
1.930317598187E-1));
#1782=CARTESIAN_POINT('',(5.510754915010E0,-1.339230681897E1,
-2.596513066904E-2));
#1783=CARTESIAN_POINT('',(5.507127593664E0,-1.360760670890E1,
-2.449620211568E-1));
#1784=CARTESIAN_POINT('',(5.503500272317E0,-1.382290659884E1,
-4.639589116446E-1));
#1785=CARTESIAN_POINT('',(5.519774147227E0,-1.317706897207E1,
1.929413614440E-1));
#1786=CARTESIAN_POINT('',(5.517355743871E0,-1.339234742058E1,
-2.607518702890E-2));
#1787=CARTESIAN_POINT('',(5.514937340516E0,-1.360762586909E1,
-2.450917355018E-1));
#1788=CARTESIAN_POINT('',(5.512518937160E0,-1.382290431761E1,
-4.641082839746E-1));
#1789=CARTESIAN_POINT('',(5.588948335725E0,-1.317785845123E1,
1.923547761455E-1));
#1790=CARTESIAN_POINT('',(5.602039189797E0,-1.339286406400E1,
-2.678548240213E-2));
#1791=CARTESIAN_POINT('',(5.615130043868E0,-1.360786967677E1,
-2.459257409497E-1));
#1792=CARTESIAN_POINT('',(5.628220897940E0,-1.382287528954E1,
-4.650659994973E-1));
#1793=CARTESIAN_POINT('',(5.722055360622E0,-1.317921772596E1,
2.053514655367E-1));
#1794=CARTESIAN_POINT('',(5.764984019888E0,-1.339375358760E1,
-1.086028919318E-2));
#1795=CARTESIAN_POINT('',(5.807912679153E0,-1.360828944924E1,
-2.270720439231E-1));
#1796=CARTESIAN_POINT('',(5.850841338418E0,-1.382282531088E1,
-4.432837986530E-1));
#1797=CARTESIAN_POINT('',(5.907327038214E0,-1.318067849252E1,
2.615450527329E-1));
#1798=CARTESIAN_POINT('',(5.991796184947E0,-1.339470952851E1,
5.795129221092E-2));
#1799=CARTESIAN_POINT('',(6.076265331681E0,-1.360874056451E1,
-1.456424683111E-1));
#1800=CARTESIAN_POINT('',(6.160734478414E0,-1.382277160050E1,
-3.492362288331E-1));
#1801=CARTESIAN_POINT('',(6.077245142513E0,-1.318157216038E1,
3.524956557796E-1));
#1802=CARTESIAN_POINT('',(6.199815455010E0,-1.339529435411E1,
1.693097860499E-1));
#1803=CARTESIAN_POINT('',(6.322385767507E0,-1.360901654784E1,
-1.387608367979E-2));
#1804=CARTESIAN_POINT('',(6.444956080004E0,-1.382273874156E1,
-1.970619534095E-1));
#1805=CARTESIAN_POINT('',(6.226541955779E0,-1.318187268255E1,
4.752373383095E-1));
#1806=CARTESIAN_POINT('',(6.382594621430E0,-1.339549101896E1,
3.195837447522E-1));
#1807=CARTESIAN_POINT('',(6.538647287081E0,-1.360910935537E1,
1.639301511950E-1));
#1808=CARTESIAN_POINT('',(6.694699952731E0,-1.382272769177E1,
8.276557637713E-3));
#1809=CARTESIAN_POINT('',(6.348575136069E0,-1.318156580015E1,
6.243876606130E-1));
#1810=CARTESIAN_POINT('',(6.532001233158E0,-1.339529019191E1,
5.021834991797E-1));
#1811=CARTESIAN_POINT('',(6.715427330248E0,-1.360901458366E1,
3.799793377463E-1));
#1812=CARTESIAN_POINT('',(6.898853427338E0,-1.382273897542E1,
2.577751763129E-1));
#1813=CARTESIAN_POINT('',(6.439500678006E0,-1.318066387151E1,
7.950106534186E-1));
#1814=CARTESIAN_POINT('',(6.643329127321E0,-1.339469996037E1,
7.110656793454E-1));
#1815=CARTESIAN_POINT('',(6.847157576636E0,-1.360873604923E1,
6.271207052722E-1));
#1816=CARTESIAN_POINT('',(7.050986025951E0,-1.382277213810E1,
5.431757311990E-1));
#1817=CARTESIAN_POINT('',(6.495107411412E0,-1.317919070713E1,
9.807909920788E-1));
#1818=CARTESIAN_POINT('',(6.711422354819E0,-1.339373590620E1,
9.385004427287E-1));
#1819=CARTESIAN_POINT('',(6.927737298225E0,-1.360828110526E1,
8.962098933786E-1));
#1820=CARTESIAN_POINT('',(7.144052241632E0,-1.382282630432E1,
8.539193440285E-1));
#1821=CARTESIAN_POINT('',(6.507631878617E0,-1.317784999547E1,1.111785493505E0));
#1822=CARTESIAN_POINT('',(6.726769228119E0,-1.339285853046E1,1.098859187556E0));
#1823=CARTESIAN_POINT('',(6.945906577621E0,-1.360786706546E1,1.085932881607E0));
#1824=CARTESIAN_POINT('',(7.165043927123E0,-1.382287560045E1,1.073006575658E0));
#1825=CARTESIAN_POINT('',(6.507059221137E0,-1.317706892861E1,1.180230275659E0));
#1826=CARTESIAN_POINT('',(6.726075900708E0,-1.339234739214E1,1.182649667022E0));
#1827=CARTESIAN_POINT('',(6.945092580278E0,-1.360762585567E1,1.185069058384E0));
#1828=CARTESIAN_POINT('',(7.164109259848E0,-1.382290431920E1,1.187488449746E0));
#1829=CARTESIAN_POINT('',(6.506970143261E0,-1.317700683389E1,1.185628073991E0));
#1830=CARTESIAN_POINT('',(6.725967461530E0,-1.339230675671E1,1.189257701581E0));
#1831=CARTESIAN_POINT('',(6.944964779799E0,-1.360760667952E1,1.192887329171E0));
#1832=CARTESIAN_POINT('',(7.163962098068E0,-1.382290660234E1,1.196516956760E0));
#1833=B_SPLINE_SURFACE_WITH_KNOTS('',3,3,((#1781,#1782,#1783,#1784),(#1785,
#1786,#1787,#1788),(#1789,#1790,#1791,#1792),(#1793,#1794,#1795,#1796),(#1797,
#1798,#1799,#1800),(#1801,#1802,#1803,#1804),(#1805,#1806,#1807,#1808),(#1809,
#1810,#1811,#1812),(#1813,#1814,#1815,#1816),(#1817,#1818,#1819,#1820),(#1821,
#1822,#1823,#1824),(#1825,#1826,#1827,#1828),(#1829,#1830,#1831,#1832)),
.UNSPECIFIED.,.F.,.F.,.F.,(4,1,1,1,1,1,1,1,1,1,4),(4,4),(-1.056947709297E-2,
0.E0,1.25E-1,2.5E-1,3.75E-1,5.E-1,6.25E-1,7.5E-1,8.75E-1,1.E0,1.010698761058E0),
(-3.817216335846E-2,1.038172163358E0),.UNSPECIFIED.);
#1834=ORIENTED_EDGE('',*,*,#1772,.T.);
#1836=ORIENTED_EDGE('',*,*,#1835,.T.);
#1837=ORIENTED_EDGE('',*,*,#1155,.F.);
#1838=ORIENTED_EDGE('',*,*,#1747,.F.);
#1839=EDGE_LOOP('',(#1834,#1836,#1837,#1838));
#1840=FACE_OUTER_BOUND('',#1839,.F.);
#1841=ADVANCED_FACE('',(#1840),#1833,.F.);
#1842=CARTESIAN_POINT('',(6.835644174078E0,-1.350004569145E1,3.55E0));
#1843=DIRECTION('',(-7.009092642999E-1,-7.132504491542E-1,0.E0));
#1844=DIRECTION('',(7.132504491542E-1,-7.009092642999E-1,0.E0));
#1845=AXIS2_PLACEMENT_3D('',#1842,#1843,#1844);
#1846=PLANE('',#1845);
#1848=ORIENTED_EDGE('',*,*,#1847,.T.);
#1850=ORIENTED_EDGE('',*,*,#1849,.T.);
#1851=ORIENTED_EDGE('',*,*,#1157,.F.);
#1852=ORIENTED_EDGE('',*,*,#1835,.F.);
#1853=EDGE_LOOP('',(#1848,#1850,#1851,#1852));
#1854=FACE_OUTER_BOUND('',#1853,.F.);
#1855=ADVANCED_FACE('',(#1854),#1846,.T.);
#1856=CARTESIAN_POINT('',(6.3E0,0.E0,4.E-1));
#1857=DIRECTION('',(-9.998476951564E-1,-1.745240643728E-2,0.E0));
#1858=DIRECTION('',(0.E0,0.E0,-1.E0));
#1859=AXIS2_PLACEMENT_3D('',#1856,#1857,#1858);
#1860=PLANE('',#1859);
#1861=ORIENTED_EDGE('',*,*,#1847,.F.);
#1862=ORIENTED_EDGE('',*,*,#1776,.F.);
#1863=ORIENTED_EDGE('',*,*,#891,.F.);
#1865=ORIENTED_EDGE('',*,*,#1864,.T.);
#1866=EDGE_LOOP('',(#1861,#1862,#1863,#1865));
#1867=FACE_OUTER_BOUND('',#1866,.F.);
#1868=ADVANCED_FACE('',(#1867),#1860,.T.);
#1869=CARTESIAN_POINT('',(4.985836639518E0,1.798968E1,5.385836639518E0));
#1870=DIRECTION('',(1.744974916068E-2,-9.996954598819E-1,1.744974916068E-2));
#1871=DIRECTION('',(9.998476951564E-1,1.745240643728E-2,0.E0));
#1872=AXIS2_PLACEMENT_3D('',#1869,#1870,#1871);
#1873=CYLINDRICAL_SURFACE('',#1872,1.E0);
#1875=ORIENTED_EDGE('',*,*,#1874,.F.);
#1876=ORIENTED_EDGE('',*,*,#1864,.F.);
#1877=ORIENTED_EDGE('',*,*,#889,.T.);
#1878=ORIENTED_EDGE('',*,*,#987,.T.);
#1879=EDGE_LOOP('',(#1875,#1876,#1877,#1878));
#1880=FACE_OUTER_BOUND('',#1879,.F.);
#1881=ADVANCED_FACE('',(#1880),#1873,.F.);
#1882=CARTESIAN_POINT('',(6.506968240181E0,-1.317700692903E1,5.914382236357E0));
#1883=CARTESIAN_POINT('',(6.725965130669E0,-1.339230681897E1,5.910754915010E0));
#1884=CARTESIAN_POINT('',(6.944962021157E0,-1.360760670890E1,5.907127593664E0));
#1885=CARTESIAN_POINT('',(7.163958911645E0,-1.382290659884E1,5.903500272317E0));
#1886=CARTESIAN_POINT('',(6.507058638556E0,-1.317706897207E1,5.919774147227E0));
#1887=CARTESIAN_POINT('',(6.726075187029E0,-1.339234742058E1,5.917355743871E0));
#1888=CARTESIAN_POINT('',(6.945091735502E0,-1.360762586909E1,5.914937340516E0));
#1889=CARTESIAN_POINT('',(7.164108283975E0,-1.382290431761E1,5.912518937160E0));
#1890=CARTESIAN_POINT('',(6.507645223855E0,-1.317785845123E1,5.988948335725E0));
#1891=CARTESIAN_POINT('',(6.726785482402E0,-1.339286406400E1,6.002039189797E0));
#1892=CARTESIAN_POINT('',(6.945925740950E0,-1.360786967677E1,6.015130043868E0));
#1893=CARTESIAN_POINT('',(7.165065999497E0,-1.382287528954E1,6.028220897940E0));
#1894=CARTESIAN_POINT('',(6.494648534463E0,-1.317921772596E1,6.122055360623E0));
#1895=CARTESIAN_POINT('',(6.710860289193E0,-1.339375358760E1,6.164984019888E0));
#1896=CARTESIAN_POINT('',(6.927072043923E0,-1.360828944924E1,6.207912679153E0));
#1897=CARTESIAN_POINT('',(7.143283798653E0,-1.382282531088E1,6.250841338418E0));
#1898=CARTESIAN_POINT('',(6.438454947267E0,-1.318067849252E1,6.307327038214E0));
#1899=CARTESIAN_POINT('',(6.642048707789E0,-1.339470952851E1,6.391796184947E0));
#1900=CARTESIAN_POINT('',(6.845642468311E0,-1.360874056451E1,6.476265331681E0));
#1901=CARTESIAN_POINT('',(7.049236228833E0,-1.382277160050E1,6.560734478414E0));
#1902=CARTESIAN_POINT('',(6.347504344220E0,-1.318157216038E1,6.477245142513E0));
#1903=CARTESIAN_POINT('',(6.530690213950E0,-1.339529435411E1,6.599815455010E0));
#1904=CARTESIAN_POINT('',(6.713876083680E0,-1.360901654784E1,6.722385767507E0));
#1905=CARTESIAN_POINT('',(6.897061953409E0,-1.382273874156E1,6.844956080004E0));
#1906=CARTESIAN_POINT('',(6.224762661691E0,-1.318187268255E1,6.626541955779E0));
#1907=CARTESIAN_POINT('',(6.380416255248E0,-1.339549101896E1,6.782594621430E0));
#1908=CARTESIAN_POINT('',(6.536069848805E0,-1.360910935537E1,6.938647287080E0));
#1909=CARTESIAN_POINT('',(6.691723442362E0,-1.382272769177E1,7.094699952731E0));
#1910=CARTESIAN_POINT('',(6.075612339387E0,-1.318156580015E1,6.748575136069E0));
#1911=CARTESIAN_POINT('',(6.197816500820E0,-1.339529019191E1,6.932001233158E0));
#1912=CARTESIAN_POINT('',(6.320020662254E0,-1.360901458366E1,7.115427330248E0));
#1913=CARTESIAN_POINT('',(6.442224823687E0,-1.382273897542E1,7.298853427338E0));
#1914=CARTESIAN_POINT('',(5.904989346581E0,-1.318066387151E1,6.839500678006E0));
#1915=CARTESIAN_POINT('',(5.988934320655E0,-1.339469996037E1,7.043329127321E0));
#1916=CARTESIAN_POINT('',(6.072879294728E0,-1.360873604923E1,7.247157576636E0));
#1917=CARTESIAN_POINT('',(6.156824268801E0,-1.382277213810E1,7.450986025951E0));
#1918=CARTESIAN_POINT('',(5.719209007921E0,-1.317919070713E1,6.895107411412E0));
#1919=CARTESIAN_POINT('',(5.761499557271E0,-1.339373590620E1,7.111422354819E0));
#1920=CARTESIAN_POINT('',(5.803790106621E0,-1.360828110526E1,7.327737298225E0));
#1921=CARTESIAN_POINT('',(5.846080655971E0,-1.382282630432E1,7.544052241632E0));
#1922=CARTESIAN_POINT('',(5.588214506495E0,-1.317784999547E1,6.907631878617E0));
#1923=CARTESIAN_POINT('',(5.601140812444E0,-1.339285853046E1,7.126769228119E0));
#1924=CARTESIAN_POINT('',(5.614067118393E0,-1.360786706546E1,7.345906577621E0));
#1925=CARTESIAN_POINT('',(5.626993424342E0,-1.382287560045E1,7.565043927123E0));
#1926=CARTESIAN_POINT('',(5.519769724341E0,-1.317706892861E1,6.907059221137E0));
#1927=CARTESIAN_POINT('',(5.517350332978E0,-1.339234739214E1,7.126075900708E0));
#1928=CARTESIAN_POINT('',(5.514930941616E0,-1.360762585567E1,7.345092580278E0));
#1929=CARTESIAN_POINT('',(5.512511550254E0,-1.382290431920E1,7.564109259848E0));
#1930=CARTESIAN_POINT('',(5.514371926009E0,-1.317700683389E1,6.906970143261E0));
#1931=CARTESIAN_POINT('',(5.510742298419E0,-1.339230675671E1,7.125967461530E0));
#1932=CARTESIAN_POINT('',(5.507112670829E0,-1.360760667952E1,7.344964779799E0));
#1933=CARTESIAN_POINT('',(5.503483043240E0,-1.382290660234E1,7.563962098068E0));
#1934=B_SPLINE_SURFACE_WITH_KNOTS('',3,3,((#1882,#1883,#1884,#1885),(#1886,
#1887,#1888,#1889),(#1890,#1891,#1892,#1893),(#1894,#1895,#1896,#1897),(#1898,
#1899,#1900,#1901),(#1902,#1903,#1904,#1905),(#1906,#1907,#1908,#1909),(#1910,
#1911,#1912,#1913),(#1914,#1915,#1916,#1917),(#1918,#1919,#1920,#1921),(#1922,
#1923,#1924,#1925),(#1926,#1927,#1928,#1929),(#1930,#1931,#1932,#1933)),
.UNSPECIFIED.,.F.,.F.,.F.,(4,1,1,1,1,1,1,1,1,1,4),(4,4),(-1.056947709296E-2,
0.E0,1.25E-1,2.5E-1,3.75E-1,5.E-1,6.25E-1,7.5E-1,8.75E-1,1.E0,1.010698761058E0),
(-3.817216335846E-2,1.038172163358E0),.UNSPECIFIED.);
#1935=ORIENTED_EDGE('',*,*,#1874,.T.);
#1936=ORIENTED_EDGE('',*,*,#1004,.T.);
#1937=ORIENTED_EDGE('',*,*,#1159,.F.);
#1938=ORIENTED_EDGE('',*,*,#1849,.F.);
#1939=EDGE_LOOP('',(#1935,#1936,#1937,#1938));
#1940=FACE_OUTER_BOUND('',#1939,.F.);
#1941=ADVANCED_FACE('',(#1940),#1934,.F.);
#1945=DIMENSIONAL_EXPONENTS(0.E0,0.E0,0.E0,0.E0,0.E0,0.E0,0.E0);
#1947=PLANE_ANGLE_MEASURE_WITH_UNIT(PLANE_ANGLE_MEASURE(1.745329251994E-2),
#1946);
#1948=(CONVERSION_BASED_UNIT('DEGREE',#1947)NAMED_UNIT(*)PLANE_ANGLE_UNIT());
#1950=UNCERTAINTY_MEASURE_WITH_UNIT(LENGTH_MEASURE(2.722522360964E-3),#1944,
'closure',
'Maximum model space distance between geometric entities at asserted connectivities');
#1951=(GEOMETRIC_REPRESENTATION_CONTEXT(3)GLOBAL_UNCERTAINTY_ASSIGNED_CONTEXT((
#1950))GLOBAL_UNIT_ASSIGNED_CONTEXT((#1944,#1948,#1949))REPRESENTATION_CONTEXT(
'ID1','3'));
#1953=APPLICATION_CONTEXT(
'CONFIGURATION CONTROLLED 3D DESIGNS OF MECHANICAL PARTS AND ASSEMBLIES');
#1954=APPLICATION_PROTOCOL_DEFINITION('international standard',
'config_control_design',1994,#1953);
#1955=DESIGN_CONTEXT('',#1953,'design');
#1956=MECHANICAL_CONTEXT('',#1953,'mechanical');
#1957=PRODUCT('00','00','NOT SPECIFIED',(#1956));
#1958=PRODUCT_DEFINITION_FORMATION_WITH_SPECIFIED_SOURCE('1','LAST_VERSION',
#1957,.MADE.);
#1962=PRODUCT_CATEGORY('part','');
#1963=PRODUCT_RELATED_PRODUCT_CATEGORY('detail','',(#1957));
#1964=PRODUCT_CATEGORY_RELATIONSHIP('','',#1962,#1963);
#1965=SECURITY_CLASSIFICATION_LEVEL('unclassified');
#1966=SECURITY_CLASSIFICATION('','',#1965);
#1967=CC_DESIGN_SECURITY_CLASSIFICATION(#1966,(#1958));
#1968=APPROVAL_STATUS('approved');
#1969=APPROVAL(#1968,'');
#1970=CC_DESIGN_APPROVAL(#1969,(#1966,#1958,#1959));
#1971=CALENDAR_DATE(126,29,6);
#1972=COORDINATED_UNIVERSAL_TIME_OFFSET(8,0,.AHEAD.);
#1973=LOCAL_TIME(14,56,1.4E1,#1972);
#1974=DATE_AND_TIME(#1971,#1973);
#1975=APPROVAL_DATE_TIME(#1974,#1969);
#1976=DATE_TIME_ROLE('creation_date');
#1977=CC_DESIGN_DATE_AND_TIME_ASSIGNMENT(#1974,#1976,(#1959));
#1978=DATE_TIME_ROLE('classification_date');
#1979=CC_DESIGN_DATE_AND_TIME_ASSIGNMENT(#1974,#1978,(#1966));
#1980=PERSON('UNSPECIFIED','UNSPECIFIED',$,$,$,$);
#1981=ORGANIZATION('UNSPECIFIED','UNSPECIFIED','UNSPECIFIED');
#1982=PERSON_AND_ORGANIZATION(#1980,#1981);
#1983=APPROVAL_ROLE('approver');
#1984=APPROVAL_PERSON_ORGANIZATION(#1982,#1969,#1983);
#1985=PERSON_AND_ORGANIZATION_ROLE('creator');
#1986=CC_DESIGN_PERSON_AND_ORGANIZATION_ASSIGNMENT(#1982,#1985,(#1958,#1959));
#1987=PERSON_AND_ORGANIZATION_ROLE('design_supplier');
#1988=CC_DESIGN_PERSON_AND_ORGANIZATION_ASSIGNMENT(#1982,#1987,(#1958));
#1989=PERSON_AND_ORGANIZATION_ROLE('classification_officer');
#1990=CC_DESIGN_PERSON_AND_ORGANIZATION_ASSIGNMENT(#1982,#1989,(#1966));
#1991=PERSON_AND_ORGANIZATION_ROLE('design_owner');
#1992=CC_DESIGN_PERSON_AND_ORGANIZATION_ASSIGNMENT(#1982,#1991,(#1957));
#352=B_SPLINE_CURVE_WITH_KNOTS('',3,(#341,#342,#343,#344,#345,#346,#347,#348,
#349,#350,#351),.UNSPECIFIED.,.F.,.F.,(4,1,1,1,1,1,1,1,4),(0.E0,
1.250000029402E-1,2.500000018327E-1,3.750000007252E-1,4.999999996177E-1,
6.249999985103E-1,7.499999974028E-1,8.749999962953E-1,1.E0),.UNSPECIFIED.);
#368=B_SPLINE_CURVE_WITH_KNOTS('',3,(#357,#358,#359,#360,#361,#362,#363,#364,
#365,#366,#367),.UNSPECIFIED.,.F.,.F.,(4,1,1,1,1,1,1,1,4),(0.E0,
1.250000029402E-1,2.500000018327E-1,3.750000007252E-1,4.999999996177E-1,
6.249999985103E-1,7.499999974028E-1,8.749999962953E-1,1.E0),.UNSPECIFIED.);
#384=B_SPLINE_CURVE_WITH_KNOTS('',3,(#373,#374,#375,#376,#377,#378,#379,#380,
#381,#382,#383),.UNSPECIFIED.,.F.,.F.,(4,1,1,1,1,1,1,1,4),(0.E0,
1.250000029402E-1,2.500000018327E-1,3.750000007252E-1,4.999999996177E-1,
6.249999985103E-1,7.499999974028E-1,8.749999962953E-1,1.E0),.UNSPECIFIED.);
#592=B_SPLINE_CURVE_WITH_KNOTS('',3,(#581,#582,#583,#584,#585,#586,#587,#588,
#589,#590,#591),.UNSPECIFIED.,.F.,.F.,(4,1,1,1,1,1,1,1,4),(0.E0,
1.250000028710E-1,2.500000017893E-1,3.750000007075E-1,4.999999996258E-1,
6.249999985440E-1,7.499999974623E-1,8.749999963805E-1,1.E0),.UNSPECIFIED.);
#600=B_SPLINE_CURVE_WITH_KNOTS('',3,(#593,#594,#595,#596,#597,#598,#599),
.UNSPECIFIED.,.F.,.F.,(4,1,1,1,4),(0.E0,2.5E-1,5.E-1,7.5E-1,1.E0),
.UNSPECIFIED.);
#632=B_SPLINE_CURVE_WITH_KNOTS('',3,(#621,#622,#623,#624,#625,#626,#627,#628,
#629,#630,#631),.UNSPECIFIED.,.F.,.F.,(4,1,1,1,1,1,1,1,4),(0.E0,
1.250000028710E-1,2.500000017893E-1,3.750000007075E-1,4.999999996258E-1,
6.249999985440E-1,7.499999974623E-1,8.749999963805E-1,1.E0),.UNSPECIFIED.);
#640=B_SPLINE_CURVE_WITH_KNOTS('',3,(#633,#634,#635,#636,#637,#638,#639),
.UNSPECIFIED.,.F.,.F.,(4,1,1,1,4),(0.E0,2.5E-1,5.E-1,7.5E-1,1.E0),
.UNSPECIFIED.);
#672=B_SPLINE_CURVE_WITH_KNOTS('',3,(#661,#662,#663,#664,#665,#666,#667,#668,
#669,#670,#671),.UNSPECIFIED.,.F.,.F.,(4,1,1,1,1,1,1,1,4),(0.E0,
1.250000028710E-1,2.500000017893E-1,3.750000007075E-1,4.999999996258E-1,
6.249999985440E-1,7.499999974623E-1,8.749999963805E-1,1.E0),.UNSPECIFIED.);
#680=B_SPLINE_CURVE_WITH_KNOTS('',3,(#673,#674,#675,#676,#677,#678,#679),
.UNSPECIFIED.,.F.,.F.,(4,1,1,1,4),(0.E0,2.5E-1,5.E-1,7.5E-1,1.E0),
.UNSPECIFIED.);
#887=EDGE_CURVE('',#855,#844,#176,.T.);
#889=EDGE_CURVE('',#851,#855,#680,.T.);
#891=EDGE_CURVE('',#851,#852,#4,.T.);
#893=EDGE_CURVE('',#847,#852,#640,.T.);
#895=EDGE_CURVE('',#847,#848,#8,.T.);
#897=EDGE_CURVE('',#854,#848,#600,.T.);
#899=EDGE_CURVE('',#854,#840,#12,.T.);
#901=EDGE_CURVE('',#839,#840,#16,.T.);
#903=EDGE_CURVE('',#839,#755,#20,.T.);
#905=EDGE_CURVE('',#700,#755,#24,.T.);
#907=EDGE_CURVE('',#699,#700,#28,.T.);
#909=EDGE_CURVE('',#751,#699,#32,.T.);
#911=EDGE_CURVE('',#751,#798,#36,.T.);
#913=EDGE_CURVE('',#798,#802,#40,.T.);
#915=EDGE_CURVE('',#696,#802,#44,.T.);
#917=EDGE_CURVE('',#695,#696,#48,.T.);
#919=EDGE_CURVE('',#805,#695,#52,.T.);
#921=EDGE_CURVE('',#805,#806,#56,.T.);
#923=EDGE_CURVE('',#704,#806,#60,.T.);
#925=EDGE_CURVE('',#703,#704,#64,.T.);
#927=EDGE_CURVE('',#808,#703,#68,.T.);
#929=EDGE_CURVE('',#808,#800,#72,.T.);
#931=EDGE_CURVE('',#800,#787,#76,.T.);
#933=EDGE_CURVE('',#708,#787,#80,.T.);
#935=EDGE_CURVE('',#707,#708,#84,.T.);
#937=EDGE_CURVE('',#783,#707,#88,.T.);
#939=EDGE_CURVE('',#783,#795,#92,.T.);
#941=EDGE_CURVE('',#724,#795,#96,.T.);
#943=EDGE_CURVE('',#723,#724,#100,.T.);
#945=EDGE_CURVE('',#791,#723,#104,.T.);
#947=EDGE_CURVE('',#791,#692,#108,.T.);
#949=EDGE_CURVE('',#692,#779,#112,.T.);
#951=EDGE_CURVE('',#720,#779,#116,.T.);
#953=EDGE_CURVE('',#719,#720,#120,.T.);
#955=EDGE_CURVE('',#775,#719,#124,.T.);
#957=EDGE_CURVE('',#775,#771,#128,.T.);
#959=EDGE_CURVE('',#712,#771,#132,.T.);
#961=EDGE_CURVE('',#711,#712,#136,.T.);
#963=EDGE_CURVE('',#767,#711,#140,.T.);
#965=EDGE_CURVE('',#767,#688,#144,.T.);
#967=EDGE_CURVE('',#688,#763,#148,.T.);
#969=EDGE_CURVE('',#716,#763,#152,.T.);
#971=EDGE_CURVE('',#715,#716,#156,.T.);
#973=EDGE_CURVE('',#759,#715,#160,.T.);
#975=EDGE_CURVE('',#759,#844,#164,.T.);
#985=EDGE_CURVE('',#863,#858,#168,.T.);
#987=EDGE_CURVE('',#855,#863,#172,.T.);
#990=EDGE_CURVE('',#844,#858,#228,.T.);
#1000=EDGE_CURVE('',#858,#859,#224,.T.);
#1002=EDGE_CURVE('',#861,#859,#244,.T.);
#1004=EDGE_CURVE('',#863,#861,#180,.T.);
#1015=EDGE_CURVE('',#763,#764,#184,.T.);
#1018=EDGE_CURVE('',#687,#688,#188,.T.);
#1020=EDGE_CURVE('',#687,#764,#192,.T.);
#1030=EDGE_CURVE('',#811,#814,#196,.T.);
#1032=EDGE_CURVE('',#816,#814,#200,.T.);
#1034=EDGE_CURVE('',#816,#798,#496,.T.);
#1037=EDGE_CURVE('',#751,#752,#204,.T.);
#1039=EDGE_CURVE('',#752,#811,#208,.T.);
#1049=EDGE_CURVE('',#839,#842,#212,.T.);
#1051=EDGE_CURVE('',#842,#756,#216,.T.);
#1053=EDGE_CURVE('',#755,#756,#220,.T.);
#1067=EDGE_CURVE('',#759,#760,#232,.T.);
#1069=EDGE_CURVE('',#760,#859,#236,.T.);
#1080=EDGE_CURVE('',#740,#764,#256,.T.);
#1082=EDGE_CURVE('',#716,#740,#240,.T.);
#1095=EDGE_CURVE('',#760,#739,#248,.T.);
#1097=EDGE_CURVE('',#739,#740,#252,.T.);
#1101=EDGE_CURVE('',#768,#687,#260,.T.);
#1103=EDGE_CURVE('',#768,#735,#264,.T.);
#1105=EDGE_CURVE('',#735,#736,#268,.T.);
#1107=EDGE_CURVE('',#736,#772,#272,.T.);
#1109=EDGE_CURVE('',#776,#772,#276,.T.);
#1111=EDGE_CURVE('',#776,#743,#280,.T.);
#1113=EDGE_CURVE('',#743,#744,#284,.T.);
#1115=EDGE_CURVE('',#744,#780,#288,.T.);
#1117=EDGE_CURVE('',#691,#780,#292,.T.);
#1119=EDGE_CURVE('',#792,#691,#444,.T.);
#1121=EDGE_CURVE('',#792,#747,#296,.T.);
#1123=EDGE_CURVE('',#747,#748,#300,.T.);
#1125=EDGE_CURVE('',#748,#796,#304,.T.);
#1127=EDGE_CURVE('',#784,#796,#432,.T.);
#1129=EDGE_CURVE('',#784,#731,#308,.T.);
#1131=EDGE_CURVE('',#731,#732,#312,.T.);
#1133=EDGE_CURVE('',#732,#788,#316,.T.);
#1135=EDGE_CURVE('',#812,#788,#452,.T.);
#1137=EDGE_CURVE('',#811,#812,#320,.T.);
#1140=EDGE_CURVE('',#752,#727,#324,.T.);
#1142=EDGE_CURVE('',#727,#728,#328,.T.);
#1144=EDGE_CURVE('',#728,#756,#332,.T.);
#1147=EDGE_CURVE('',#842,#880,#336,.T.);
#1149=EDGE_CURVE('',#880,#877,#340,.T.);
#1151=EDGE_CURVE('',#877,#875,#352,.T.);
#1153=EDGE_CURVE('',#875,#871,#356,.T.);
#1155=EDGE_CURVE('',#871,#869,#368,.T.);
#1157=EDGE_CURVE('',#869,#865,#372,.T.);
#1159=EDGE_CURVE('',#865,#861,#384,.T.);
#1171=EDGE_CURVE('',#715,#739,#388,.T.);
#1194=EDGE_CURVE('',#767,#768,#392,.T.);
#1207=EDGE_CURVE('',#771,#772,#396,.T.);
#1210=EDGE_CURVE('',#775,#776,#400,.T.);
#1221=EDGE_CURVE('',#779,#780,#404,.T.);
#1224=EDGE_CURVE('',#691,#692,#408,.T.);
#1237=EDGE_CURVE('',#711,#735,#412,.T.);
#1249=EDGE_CURVE('',#712,#736,#416,.T.);
#1275=EDGE_CURVE('',#719,#743,#420,.T.);
#1287=EDGE_CURVE('',#720,#744,#424,.T.);
#1311=EDGE_CURVE('',#783,#784,#428,.T.);
#1314=EDGE_CURVE('',#795,#796,#436,.T.);
#1325=EDGE_CURVE('',#791,#792,#440,.T.);
#1338=EDGE_CURVE('',#812,#818,#448,.T.);
#1341=EDGE_CURVE('',#787,#788,#456,.T.);
#1344=EDGE_CURVE('',#820,#800,#460,.T.);
#1346=EDGE_CURVE('',#820,#818,#464,.T.);
#1358=EDGE_CURVE('',#707,#731,#468,.T.);
#1370=EDGE_CURVE('',#708,#732,#472,.T.);
#1396=EDGE_CURVE('',#724,#748,#476,.T.);
#1410=EDGE_CURVE('',#723,#747,#480,.T.);
#1434=EDGE_CURVE('',#814,#818,#484,.T.);
#1448=EDGE_CURVE('',#828,#820,#512,.T.);
#1450=EDGE_CURVE('',#828,#834,#556,.T.);
#1452=EDGE_CURVE('',#834,#836,#548,.T.);
#1454=EDGE_CURVE('',#836,#826,#540,.T.);
#1456=EDGE_CURVE('',#825,#826,#500,.T.);
#1458=EDGE_CURVE('',#825,#830,#536,.T.);
#1460=EDGE_CURVE('',#830,#832,#528,.T.);
#1462=EDGE_CURVE('',#832,#822,#520,.T.);
#1464=EDGE_CURVE('',#816,#822,#488,.T.);
#1475=EDGE_CURVE('',#802,#822,#492,.T.);
#1488=EDGE_CURVE('',#806,#826,#504,.T.);
#1491=EDGE_CURVE('',#805,#825,#508,.T.);
#1504=EDGE_CURVE('',#808,#828,#516,.T.);
#1515=EDGE_CURVE('',#696,#832,#524,.T.);
#1528=EDGE_CURVE('',#695,#830,#532,.T.);
#1553=EDGE_CURVE('',#704,#836,#544,.T.);
#1566=EDGE_CURVE('',#703,#834,#552,.T.);
#1592=EDGE_CURVE('',#699,#727,#560,.T.);
#1604=EDGE_CURVE('',#700,#728,#564,.T.);
#1628=EDGE_CURVE('',#880,#881,#568,.T.);
#1633=EDGE_CURVE('',#840,#881,#576,.T.);
#1644=EDGE_CURVE('',#881,#876,#572,.T.);
#1646=EDGE_CURVE('',#876,#877,#604,.T.);
#1660=EDGE_CURVE('',#854,#876,#580,.T.);
#1670=EDGE_CURVE('',#876,#873,#592,.T.);
#1674=EDGE_CURVE('',#848,#873,#616,.T.);
#1733=EDGE_CURVE('',#873,#875,#608,.T.);
#1745=EDGE_CURVE('',#873,#870,#612,.T.);
#1747=EDGE_CURVE('',#870,#871,#644,.T.);
#1762=EDGE_CURVE('',#847,#870,#620,.T.);
#1772=EDGE_CURVE('',#870,#867,#632,.T.);
#1776=EDGE_CURVE('',#852,#867,#656,.T.);
#1835=EDGE_CURVE('',#867,#869,#648,.T.);
#1847=EDGE_CURVE('',#867,#864,#652,.T.);
#1849=EDGE_CURVE('',#864,#865,#684,.T.);
#1864=EDGE_CURVE('',#851,#864,#660,.T.);
#1874=EDGE_CURVE('',#864,#863,#672,.T.);
#1942=CLOSED_SHELL('',(#979,#994,#1009,#1024,#1043,#1058,#1073,#1087,#1163,
#1176,#1188,#1201,#1215,#1229,#1242,#1255,#1267,#1280,#1293,#1305,#1319,#1332,
#1350,#1363,#1376,#1388,#1401,#1414,#1426,#1439,#1468,#1481,#1495,#1508,#1521,
#1534,#1546,#1559,#1572,#1584,#1597,#1610,#1622,#1637,#1651,#1664,#1678,#1739,
#1753,#1766,#1780,#1841,#1855,#1868,#1881,#1941));
#1943=MANIFOLD_SOLID_BREP('',#1942);
#1944=(LENGTH_UNIT()NAMED_UNIT(*)SI_UNIT(.MILLI.,.METRE.));
#1946=(NAMED_UNIT(*)PLANE_ANGLE_UNIT()SI_UNIT($,.RADIAN.));
#1949=(NAMED_UNIT(*)SI_UNIT($,.STERADIAN.)SOLID_ANGLE_UNIT());
#1952=ADVANCED_BREP_SHAPE_REPRESENTATION('',(#1943),#1951);
#1959=PRODUCT_DEFINITION('design','',#1958,#1955);
#1960=PRODUCT_DEFINITION_SHAPE('','SHAPE FOR 00.',#1959);
#1961=SHAPE_DEFINITION_REPRESENTATION(#1960,#1952);
ENDSEC;
END-ISO-10303-21;
